<?xml version="1.0" encoding="UTF-8" standalone="no"?>
<!-- Created with Inkscape (http://www.inkscape.org/) -->

<svg
   xmlns:dc="http://purl.org/dc/elements/1.1/"
   xmlns:cc="http://creativecommons.org/ns#"
   xmlns:rdf="http://www.w3.org/1999/02/22-rdf-syntax-ns#"
   xmlns:svg="http://www.w3.org/2000/svg"
   xmlns="http://www.w3.org/2000/svg"
   version="1.1"
   width="715.74799"
   height="119.05511"
   id="svg7661">
  <defs
     id="defs7663">
    <clipPath
       id="clipPath4651">
      <path
         d="m 0,731.321 206.17,0 0,31.214 -206.17,0 0,-31.214 z"
         id="path4653" />
    </clipPath>
  </defs>
  <metadata
     id="metadata7666">
    <rdf:RDF>
      <cc:Work
         rdf:about="">
        <dc:format>image/svg+xml</dc:format>
        <dc:type
           rdf:resource="http://purl.org/dc/dcmitype/StillImage" />
        <dc:title></dc:title>
      </cc:Work>
    </rdf:RDF>
  </metadata>
  <g
     transform="translate(-19.616765,-470.61255)"
     id="layer1">
    <g
       transform="matrix(2.8713996,0,0,2.8713996,-385.1603,-1146.2176)"
       id="g7762">
      <g
         transform="matrix(1.25,0,0,-1.25,142.20255,603.28829)"
         id="g4643">
        <path
           d="M 0,0 179.454,0 197.44,31.162 0,31.162 0,0 z"
           id="path4645"
           style="fill:#ffd20a;fill-opacity:1;fill-rule:nonzero;stroke:none" />
      </g>
      <g
         transform="matrix(1.25,0,0,-1.25,141.72867,1518.019)"
         id="g4647">
        <g
           clip-path="url(#clipPath4651)"
           id="g4649">
          <g
             transform="translate(34.548904,751.66051)"
             id="g4655">
            <path
               d="m 0,0 c -0.741,0.562 -1.552,0.808 -2.541,0.808 -1.04,0 -1.915,-0.659 -1.915,-1.451 0,-0.462 0.28,-0.841 1.058,-1.106 l 1.32,-0.447 c 1.484,-0.493 2.258,-1.286 2.258,-2.588 0,-2.495 -2.128,-4.54 -5.561,-4.54 -1.617,0 -2.821,0.428 -3.776,1.04 l 1.219,1.766 c 0.959,-0.563 1.815,-0.891 2.969,-0.891 1.456,0 2.395,0.759 2.395,1.898 0,0.579 -0.397,0.959 -1.221,1.237 L -5,-3.861 c -1.302,0.444 -2.095,1.073 -2.095,2.41 0,2.311 2.177,4.191 4.899,4.191 1.404,0 2.743,-0.428 3.584,-1.154 L 0,0 z"
               id="path4657"
               style="fill:#000000;fill-opacity:1;fill-rule:nonzero;stroke:none" />
          </g>
          <g
             transform="translate(40.7229,749.51601)"
             id="g4659">
            <path
               d="M 0,0 -1.469,0 -2.36,-4.241 c -0.066,-0.279 -0.084,-0.547 -0.084,-0.744 0,-0.461 0.248,-0.611 0.745,-0.611 0.196,0 0.577,0.068 0.823,0.166 l 0,-1.338 c -0.642,-0.245 -1.304,-0.363 -1.879,-0.363 -1.271,0 -1.998,0.627 -1.998,1.453 0,0.297 0.033,0.693 0.117,1.09 L -3.664,0 l -0.841,0 0.328,1.519 0.844,0 c 0.165,0.826 0.28,1.369 0.511,1.997 l 2.327,0.561 C -0.744,3.301 -0.989,2.376 -1.173,1.519 l 1.966,0 L 0,0 z"
               id="path4661"
               style="fill:#000000;fill-opacity:1;fill-rule:nonzero;stroke:none" />
          </g>
          <g
             transform="translate(46.086899,749.4826)"
             id="g4663">
            <path
               d="m 0,0 c -0.547,0 -0.957,-0.033 -1.551,-0.727 -0.693,-0.824 -1.041,-2.491 -1.041,-3.613 0,-0.761 0.199,-1.089 0.678,-1.089 0.693,0 1.402,0.709 1.635,1.318 l 0.874,3.98 C 0.496,-0.066 0.199,0 0,0 m 2.56,-0.942 -0.677,-3.2 C 1.733,-4.869 1.798,-5.361 2.194,-5.794 l -1.83,-1.368 c -0.397,0.264 -0.578,0.707 -0.643,1.04 -0.629,-0.662 -1.322,-1.007 -2.246,-1.007 -1.535,0 -2.326,0.941 -2.326,2.691 0,2.028 0.773,3.828 1.781,4.835 0.923,0.924 1.962,1.319 3.367,1.319 0.991,0 2.095,-0.163 2.807,-0.576 C 2.922,0.629 2.69,-0.299 2.56,-0.942"
               id="path4665"
               style="fill:#000000;fill-opacity:1;fill-rule:nonzero;stroke:none" />
          </g>
          <g
             transform="translate(53.004303,751.31531)"
             id="g4667">
            <path
               d="m 0,0 c 0.148,-0.28 0.248,-1.007 0.215,-1.37 0.707,0.758 1.615,1.269 2.852,1.269 1.074,0 1.701,-0.643 1.701,-1.666 0,-0.364 -0.052,-0.825 -0.131,-1.189 l -1.221,-5.775 -2.179,0 1.174,5.496 c 0.063,0.33 0.112,0.577 0.112,0.758 0,0.414 -0.18,0.529 -0.578,0.529 -0.527,0 -1.153,-0.33 -1.846,-1.27 l -1.174,-5.513 -2.178,0 1.205,5.693 c 0.198,0.924 0.181,1.651 0,2.229 L 0,0 z"
               id="path4669"
               style="fill:#000000;fill-opacity:1;fill-rule:nonzero;stroke:none" />
          </g>
          <g
             transform="translate(62.691406,752.2722)"
             id="g4671">
            <path
               d="m 0,0 -1.338,-6.254 c -0.214,-0.99 -0.279,-1.405 -0.279,-1.636 0,-0.312 0.132,-0.479 0.429,-0.479 0.083,0 0.166,0 0.246,0.034 l 0.101,-1.321 c -0.397,-0.148 -0.891,-0.231 -1.371,-0.231 -1.187,0 -1.749,0.643 -1.749,1.518 0,0.299 0.116,0.928 0.248,1.535 l 1.334,6.306 c 0.234,1.105 0.364,1.881 0.201,2.442 l 2.343,0.71 C 0.232,2.244 0.232,1.072 0,0"
               id="path4673"
               style="fill:#000000;fill-opacity:1;fill-rule:nonzero;stroke:none" />
          </g>
          <g
             transform="translate(66.553406,747.55321)"
             id="g4675">
            <path
               d="m 0,0 c 0.959,0 2.063,0.329 2.063,1.17 0,0.513 -0.23,0.874 -0.89,0.874 C 0.33,2.044 -0.299,1.55 -0.628,0.082 -0.628,0.082 -0.299,0 0,0 M 3.25,-4.046 C 2.112,-4.837 1.007,-5.2 -0.182,-5.2 c -2.013,0 -3.199,1.057 -3.199,3.101 0,1.751 0.774,3.55 1.898,4.641 0.837,0.807 1.779,1.119 2.905,1.119 1.664,0 2.868,-0.659 2.868,-2.31 0,-1.6 -1.469,-2.904 -4.272,-2.904 -0.578,0 -1.009,0.117 -1.009,0.117 0,0 -0.082,-0.546 -0.082,-0.76 0,-0.958 0.496,-1.352 1.421,-1.352 0.757,0 1.549,0.329 2.342,0.889 l 0.56,-1.387 z"
               id="path4677"
               style="fill:#000000;fill-opacity:1;fill-rule:nonzero;stroke:none" />
          </g>
          <g
             transform="translate(74.212097,751.16611)"
             id="g4679">
            <path
               d="m 0,0 0.414,-4.936 c 0.031,-0.508 0.065,-1.748 0.065,-1.748 0,0 0.578,1.469 1.138,2.525 l 2.129,4.028 2.375,0 -4.899,-8.584 c -0.924,-1.634 -1.503,-2.341 -2.214,-2.787 -0.644,-0.413 -1.416,-0.676 -2.211,-0.774 l -0.444,1.484 c 0.511,0.115 1.106,0.298 1.485,0.527 0.677,0.409 0.94,0.791 1.468,1.683 l -0.609,0 c -0.034,0.628 -0.115,1.651 -0.216,2.377 L -2.278,-0.264 0,0 z"
               id="path4681"
               style="fill:#000000;fill-opacity:1;fill-rule:nonzero;stroke:none" />
          </g>
          <g
             transform="translate(83.660995,749.4646)"
             id="g4683">
            <path
               d="m 0,0 1.353,0 c 0.631,0 0.926,0.132 1.208,0.332 0.361,0.264 0.693,0.726 0.693,1.286 0,0.711 -0.316,1.008 -1.27,1.008 l -1.436,0 L 0,0 z m -1.053,-5 1.501,0 c 0.479,0 0.889,0.132 1.187,0.333 0.513,0.345 0.874,1.056 0.874,1.7 0,0.807 -0.444,1.071 -1.467,1.071 l -1.437,0 L -1.053,-5 z m 3.811,9.59 c 1.735,0 2.985,-0.826 2.985,-2.476 0,-1.123 -0.707,-2.409 -2.406,-2.906 1.054,-0.229 1.716,-1.154 1.716,-2.226 0,-0.725 -0.299,-1.85 -1.074,-2.643 C 3.136,-6.519 2.181,-6.88 0.398,-6.88 l -4.16,0 2.444,11.47 4.076,0 z"
               id="path4685"
               style="fill:#000000;fill-opacity:1;fill-rule:nonzero;stroke:none" />
          </g>
          <g
             transform="translate(93.9617,752.2722)"
             id="g4687">
            <path
               d="m 0,0 -1.337,-6.254 c -0.215,-0.99 -0.281,-1.405 -0.281,-1.636 0,-0.312 0.133,-0.479 0.43,-0.479 0.081,0 0.164,0 0.248,0.034 l 0.099,-1.321 c -0.397,-0.148 -0.892,-0.231 -1.373,-0.231 -1.186,0 -1.747,0.643 -1.747,1.518 0,0.299 0.115,0.928 0.246,1.535 l 1.339,6.306 c 0.231,1.105 0.366,1.881 0.197,2.442 l 2.343,0.71 C 0.23,2.244 0.23,1.072 0,0"
               id="path4689"
               style="fill:#000000;fill-opacity:1;fill-rule:nonzero;stroke:none" />
          </g>
          <g
             transform="translate(99.542099,749.4826)"
             id="g4691">
            <path
               d="m 0,0 c -0.546,0 -0.959,-0.033 -1.554,-0.727 -0.691,-0.824 -1.037,-2.491 -1.037,-3.613 0,-0.761 0.197,-1.089 0.676,-1.089 0.693,0 1.401,0.709 1.633,1.318 l 0.875,3.98 C 0.493,-0.066 0.197,0 0,0 m 2.558,-0.942 -0.68,-3.2 C 1.729,-4.869 1.797,-5.361 2.195,-5.794 L 0.361,-7.162 c -0.395,0.264 -0.576,0.707 -0.643,1.04 -0.627,-0.662 -1.319,-1.007 -2.243,-1.007 -1.535,0 -2.329,0.941 -2.329,2.691 0,2.028 0.778,3.828 1.786,4.835 0.921,0.924 1.96,1.319 3.364,1.319 0.991,0 2.095,-0.163 2.807,-0.576 C 2.919,0.629 2.689,-0.299 2.558,-0.942"
               id="path4693"
               style="fill:#000000;fill-opacity:1;fill-rule:nonzero;stroke:none" />
          </g>
          <g
             transform="translate(109.1628,748.88811)"
             id="g4695">
            <path
               d="m 0,0 c -0.363,0.413 -0.84,0.628 -1.253,0.628 -0.399,0 -0.743,-0.164 -1.041,-0.496 -0.61,-0.693 -1.171,-2.439 -1.171,-3.746 0,-0.875 0.412,-1.253 1.006,-1.253 0.61,0 1.222,0.345 1.848,0.842 l 0.742,-1.372 c -0.923,-0.71 -1.864,-1.121 -3.104,-1.121 -1.878,0 -2.9,1.089 -2.9,2.904 0,2.096 0.974,4.011 2.143,5.001 0.757,0.644 1.6,1.007 2.774,1.007 0.775,0 1.631,-0.315 2.242,-1.007 L 0,0 z"
               id="path4697"
               style="fill:#000000;fill-opacity:1;fill-rule:nonzero;stroke:none" />
          </g>
          <g
             transform="translate(119.2789,751.0351)"
             id="g4699">
            <path
               d="m 0,0 -3.448,-3.665 2.278,-4.786 -2.608,0 -1.816,4.786 L -2.738,0 0,0 z m -4.439,3.861 c 0.114,-0.412 0.098,-1.419 -0.28,-3.186 l -1.947,-9.126 -2.211,0 1.983,9.276 c 0.244,1.172 0.279,1.847 0.164,2.326 l 2.291,0.71 z"
               id="path4701"
               style="fill:#000000;fill-opacity:1;fill-rule:nonzero;stroke:none" />
          </g>
          <g
             transform="translate(125.40269,751.2317)"
             id="g4703">
            <path
               d="m 0,0 c 0,0.479 -0.33,0.81 -0.824,0.81 -0.728,0 -1.336,-0.611 -1.336,-1.355 0,-0.345 0.147,-0.726 0.658,-1.319 C -0.561,-1.484 0,-0.742 0,0 m -3.924,-6.057 c 0,-0.758 0.56,-1.204 1.549,-1.204 0.79,0 1.435,0.215 1.878,0.592 l -2.145,2.577 c -0.82,-0.445 -1.282,-1.122 -1.282,-1.965 m 7.358,3.021 C 3.24,-4.159 2.774,-5.444 2.182,-6.271 l 1.896,-2.376 -2.919,0 -0.563,0.727 c -0.808,-0.564 -1.783,-0.958 -3.385,-0.958 -2.291,0 -3.563,1.137 -3.563,2.642 0,1.383 0.957,2.607 2.776,3.364 -0.681,0.629 -0.862,1.174 -0.862,1.899 0,1.832 1.7,3.317 3.927,3.317 1.701,0 2.774,-0.841 2.774,-2.047 0,-1.27 -0.463,-2.228 -2.545,-3.186 L -0.497,-2.988 1.024,-4.82 c 0.298,0.465 0.528,1.47 0.562,1.784 l 1.848,0 z"
               id="path4705"
               style="fill:#000000;fill-opacity:1;fill-rule:nonzero;stroke:none" />
          </g>
          <g
             transform="translate(133.32719,744.4649)"
             id="g4707">
            <path
               d="m 0,0 1.138,0 c 0.989,0 1.734,0.545 2.146,1.191 1.023,1.599 1.239,3.91 1.239,4.52 0,1.056 -0.299,2.063 -1.831,2.063 l -1.044,0 L 0,0 z M 2.329,9.59 C 4.241,9.59 5.416,9.376 6.138,8.467 6.667,7.789 7.012,7.033 7.012,5.678 7.012,3.796 6.334,1.339 4.92,-0.164 3.712,-1.437 2.559,-1.881 0.033,-1.881 l -2.792,0 2.442,11.471 2.646,0 z"
               id="path4709"
               style="fill:#000000;fill-opacity:1;fill-rule:nonzero;stroke:none" />
          </g>
          <g
             transform="translate(144.3022,747.55321)"
             id="g4711">
            <path
               d="m 0,0 c 0.958,0 2.063,0.329 2.063,1.17 0,0.513 -0.23,0.874 -0.888,0.874 C 0.33,2.044 -0.294,1.55 -0.628,0.082 -0.628,0.082 -0.294,0 0,0 M 3.249,-4.046 C 2.113,-4.837 1.008,-5.2 -0.181,-5.2 c -2.012,0 -3.203,1.057 -3.203,3.101 0,1.751 0.778,3.55 1.901,4.641 0.839,0.807 1.782,1.119 2.903,1.119 1.665,0 2.87,-0.659 2.87,-2.31 0,-1.6 -1.466,-2.904 -4.274,-2.904 -0.577,0 -1.005,0.117 -1.005,0.117 0,0 -0.082,-0.546 -0.082,-0.76 0,-0.958 0.493,-1.352 1.419,-1.352 0.76,0 1.552,0.329 2.341,0.889 l 0.56,-1.387 z"
               id="path4713"
               style="fill:#000000;fill-opacity:1;fill-rule:nonzero;stroke:none" />
          </g>
          <g
             transform="translate(155.2123,748.88811)"
             id="g4715">
            <path
               d="m 0,0 c -0.363,0.413 -0.842,0.628 -1.253,0.628 -0.396,0 -0.745,-0.164 -1.038,-0.496 -0.613,-0.693 -1.174,-2.439 -1.174,-3.746 0,-0.875 0.41,-1.253 1.005,-1.253 0.614,0 1.222,0.345 1.852,0.842 l 0.741,-1.372 c -0.925,-0.71 -1.862,-1.121 -3.102,-1.121 -1.885,0 -2.909,1.089 -2.909,2.904 0,2.096 0.977,4.011 2.149,5.001 0.76,0.644 1.599,1.007 2.772,1.007 0.775,0 1.631,-0.315 2.244,-1.007 L 0,0 z"
               id="path4717"
               style="fill:#000000;fill-opacity:1;fill-rule:nonzero;stroke:none" />
          </g>
          <g
             transform="translate(165.3273,751.0351)"
             id="g4719">
            <path
               d="m 0,0 -3.445,-3.665 2.278,-4.786 -2.609,0 -1.818,4.786 L -2.736,0 0,0 z M -4.438,3.861 C -4.321,3.449 -4.339,2.442 -4.719,0.675 l -1.948,-9.126 -2.21,0 1.98,9.276 c 0.248,1.172 0.282,1.847 0.166,2.326 l 2.293,0.71 z"
               id="path4721"
               style="fill:#000000;fill-opacity:1;fill-rule:nonzero;stroke:none" />
          </g>
          <g
             transform="translate(168.466,747.55321)"
             id="g4723">
            <path
               d="M 0,0 C 0.957,0 2.064,0.329 2.064,1.17 2.064,1.683 1.833,2.044 1.17,2.044 0.33,2.044 -0.296,1.55 -0.628,0.082 -0.628,0.082 -0.296,0 0,0 M 3.251,-4.046 C 2.113,-4.837 1.008,-5.2 -0.18,-5.2 c -2.016,0 -3.206,1.057 -3.206,3.101 0,1.751 0.778,3.55 1.9,4.641 0.844,0.807 1.784,1.119 2.908,1.119 1.666,0 2.866,-0.659 2.866,-2.31 0,-1.6 -1.467,-2.904 -4.273,-2.904 -0.578,0 -1.006,0.117 -1.006,0.117 0,0 -0.082,-0.546 -0.082,-0.76 0,-0.958 0.495,-1.352 1.419,-1.352 0.761,0 1.554,0.329 2.345,0.889 l 0.56,-1.387 z"
               id="path4725"
               style="fill:#000000;fill-opacity:1;fill-rule:nonzero;stroke:none" />
          </g>
          <g
             transform="translate(176.5033,751.31531)"
             id="g4727">
            <path
               d="m 0,0 c 0.135,-0.28 0.266,-0.893 0.199,-1.37 0.743,0.758 1.534,1.286 2.361,1.286 0.313,0 0.462,-0.033 0.759,-0.181 L 2.363,-2.212 c -0.199,0.115 -0.398,0.165 -0.644,0.165 -0.428,0 -0.909,-0.248 -1.6,-1.155 l -1.173,-5.529 -2.213,0 1.188,5.579 c 0.229,1.055 0.199,1.797 0.033,2.343 L 0,0 z"
               id="path4729"
               style="fill:#000000;fill-opacity:1;fill-rule:nonzero;stroke:none" />
          </g>
        </g>
      </g>
    </g>
  </g>
</svg>
