<?xml version="1.0" encoding="utf-8" ?>
<svg xmlns="http://www.w3.org/2000/svg" xmlns:xlink="http://www.w3.org/1999/xlink" width="354" height="62">
	<path fill="rgb(60,190,177)" stroke="none" transform="matrix(2 0 0 2 82.7037 15.861)" d="M7.7241 7.07819L5.2029 6.52868C4.00749 6.27007 3.42571 5.59147 3.42571 4.65425C3.42571 3.58751 4.45975 2.58574 6.01103 2.58574C8.46767 2.58574 9.11357 4.36293 9.2431 5.17105L11.9252 4.16929C11.6021 2.77981 10.2776 0 6.01103 0C2.97303 0 0.484534 2.26258 0.484534 4.91244C0.484534 7.11047 1.93899 8.75856 4.36293 9.27537L7.01322 9.85757C8.30588 10.148 9.01675 10.8916 9.01675 11.8611C9.01675 12.9601 8.07953 13.9296 6.36689 13.9296C4.16886 13.9296 2.94118 12.6365 2.74711 11.0207L0 11.9906C0.258616 13.7678 2.06851 16.5149 6.33419 16.5149C10.1803 16.5149 12.0225 13.8973 12.0225 11.6993C12.0225 9.40489 10.5362 7.69225 7.7241 7.07819"/>
	<path fill="rgb(60,190,177)" stroke="none" transform="matrix(2 0 0 2 109.657 15.9264)" d="M17.484 0C15.5127 0 13.5088 0.710877 12.2807 2.94075C11.4407 0.937219 9.56626 0 7.62685 0C5.81738 0 3.87797 0.807699 2.90848 2.52077L2.90848 0.45226L0 0.45226L0 15.9977L3.0053 15.9977L3.0053 6.62508C3.0053 4.29838 4.45975 2.68214 6.62508 2.68214C8.9522 2.68214 9.9217 4.23341 9.9217 6.23737L9.9217 15.9977L12.9597 15.9977L12.9597 6.59281C12.9597 4.36293 14.4142 2.68214 16.5472 2.68214C18.8416 2.68214 19.8434 4.20114 19.8434 6.23737L19.8434 15.9977L22.8491 15.9977L22.8491 5.91421C22.8491 1.84174 20.1993 0 17.484 0"/>
	<path fill="rgb(60,190,177)" stroke="none" transform="matrix(2 0 0 2 157.291 15.9901)" d="M12.1197 0.420411L15.1255 0.420411L15.1255 13.0892C15.1255 14.4791 15.2545 15.6745 15.2872 15.9658L12.3461 15.9658C12.2811 15.61 12.1843 14.8023 12.1843 13.8651L12.1843 13.6065C11.4411 15.0932 9.7926 16.3858 7.36908 16.3858C2.81166 16.3858 0 12.7015 0 8.07996C0 3.68433 2.97345 0 7.36908 0C10.1162 0 11.6025 1.35763 12.1197 2.61801L12.1197 0.420411ZM3.10297 8.07996C3.10297 11.2793 4.75107 13.7033 7.65955 13.7033C10.4394 13.7033 12.152 11.2793 12.152 8.07996C12.152 4.88059 10.4716 2.68256 7.69225 2.68256C4.91286 2.68256 3.10297 4.88059 3.10297 8.07996Z" fill-rule="evenodd"/>
	<path fill="rgb(60,190,177)" stroke="none" transform="matrix(2 0 0 2 192.389 16.3136)" d="M2.97303 2.97345L2.97303 0.258616L0 0.258616L0 15.8041L3.038 15.8041L3.038 8.01499C3.038 4.58927 4.75064 3.23207 7.30368 3.23207C7.7241 3.23207 8.17636 3.26434 8.62904 3.32889L8.62904 0.0968219C8.46767 0.0649726 8.04726 0 7.62685 0C6.04373 0 4.10431 0.581781 2.97303 2.97345"/>
	<path fill="rgb(60,190,177)" stroke="none" transform="matrix(2 0 0 2 212.425 7.006)" d="M6.01145 0L3.23164 0L3.23164 2.52077C3.23164 3.87797 2.52077 4.91244 0.840397 4.91244L0 4.91244L0 7.65955L2.97345 7.65955L2.97345 16.1918C2.97345 19.0034 4.65382 20.6192 7.30411 20.6192C8.33815 20.6192 9.114 20.4252 9.37262 20.3288L9.37262 17.743C9.114 17.8076 8.56449 17.8721 8.17678 17.8721C6.59281 17.8721 6.01145 17.1613 6.01145 15.7395L6.01145 7.65955L9.37262 7.65955L9.37262 4.91244L6.01145 4.91244L6.01145 0"/>
	<path fill="rgb(60,190,177)" stroke="none" transform="matrix(2 0 0 2 235.37 1.12449)" d="M0 23.3986L3.038 23.3986L3.038 0L0 0L0 23.3986Z"/>
	<path fill="rgb(60,190,177)" stroke="none" transform="matrix(2 0 0 2 245.324 15.861)" d="M0 8.24133C0 3.52296 3.29662 0 7.95044 0C12.6047 0 15.9013 3.52296 15.9013 8.24133C15.9013 12.9924 12.6047 16.5149 7.95044 16.5149C3.29662 16.5149 0 12.9924 0 8.24133ZM3.10255 8.24133C3.10255 11.8611 5.36512 13.8001 7.95044 13.8001C10.5362 13.8001 12.7983 11.8611 12.7983 8.24133C12.7983 4.65425 10.5362 2.71484 7.95044 2.71484C5.36512 2.71484 3.10255 4.65425 3.10255 8.24133Z" fill-rule="evenodd"/>
	<path fill="rgb(60,190,177)" stroke="none" transform="matrix(2 0 0 2 278.739 16.2491)" d="M7.17501 0C9.56668 0 11.1825 0.904945 11.9579 2.45622L11.9579 0.29089L14.9641 0.29089L14.9641 14.6728C14.9641 18.6157 13.0247 22.4614 7.17501 22.4614C3.29662 22.4614 0.388137 20.0056 0 16.6763L2.94118 15.9977C3.16752 18.163 4.81562 19.8115 7.17501 19.8115C10.4389 19.8115 11.9261 18.1308 11.9261 14.7696L11.9261 12.5397C11.1825 13.9619 9.50214 15.0932 7.17501 15.0932C3.038 15.0932 0.0326986 11.9579 0.0326986 7.56273C0.0326986 3.36116 2.9089 0 7.17501 0ZM3.13525 7.56273C3.13525 10.6007 4.88016 12.5397 7.6277 12.5397C10.2453 12.5397 12.0552 10.568 12.0552 7.56273C12.0552 4.557 10.2453 2.58574 7.6277 2.58574C4.94514 2.58574 3.13525 4.557 3.13525 7.56273Z" fill-rule="evenodd"/>
	<path fill="rgb(60,190,177)" stroke="none" transform="matrix(2 0 0 2 313.19 16.8309)" d="M0 15.5454L3.00573 15.5454L3.00573 0L0 0L0 15.5454Z"/>
	<path fill="rgb(60,190,177)" stroke="none" transform="matrix(2 0 0 2 311.833 0.671808)" d="M2.16533 0C0.969493 0 0 0.969493 0 2.1976C0 3.39344 0.969493 4.36293 2.16533 4.36293C3.39344 4.36293 4.36293 3.39344 4.36293 2.1976C4.36293 0.969493 3.39344 0 2.16533 0"/>
	<path fill="rgb(60,190,177)" stroke="none" transform="matrix(2 0 0 2 323.079 15.861)" d="M12.1843 10.5039C11.8288 11.732 10.7621 13.7033 7.85362 13.7033C5.33242 13.7033 3.10255 11.7966 3.10255 8.24133C3.10255 4.62155 5.36512 2.81166 7.82092 2.81166C10.4712 2.81166 11.6021 4.5897 11.9902 6.10827L14.7373 4.94514C14.0906 2.58574 11.9579 0 7.82092 0C3.39344 0 0 3.39386 0 8.24133C0 12.9601 3.32847 16.5149 7.85362 16.5149C11.8934 16.5149 14.1233 13.8973 14.8668 11.6675L12.1843 10.5039"/>
	<path fill="rgb(60,190,177)" stroke="none" transform="matrix(2 0 0 2 0.503159 0.68285)" d="M27.2021 7.27438C27.4306 7.45231 27.6221 7.66889 27.7711 7.91859L30.903 13.1691C30.948 13.2442 30.9578 13.3351 30.9297 13.4183L26.5401 26.3801C26.405 26.7789 26.1587 27.1267 25.8275 27.3862L22.7016 29.836C22.6489 29.8776 22.584 29.9001 22.5169 29.9001L8.25303 29.9001C8.19613 29.8823 8.14262 29.8662 8.08572 29.8488L4.10838 27.1662L4.07695 27.0664L0.108953 14.384C-0.0252391 13.9542 -0.0358555 13.4969 0.0792267 13.062L1.21519 8.75856C1.25213 8.62012 1.33706 8.4991 1.45469 8.41799L13.1175 0.391534C13.4895 0.135466 13.9243 0.000424658 14.3757 0.000424658L17.66 0C17.793 0 17.9225 0.044589 18.0278 0.126548L27.2021 7.27438ZM1.9749 8.78659L13.4568 0.884986C13.7286 0.697712 14.0462 0.598767 14.3757 0.598767L16.3818 0.598767C16.5266 0.598767 16.5869 0.784342 16.4697 0.869274L4.40988 9.63038C4.35765 9.6686 4.33557 9.7357 4.35553 9.79727L5.24051 12.5465L5.24009 12.5469L8.71251 23.2339C8.80679 23.5243 8.59064 23.8216 8.28531 23.8216L6.65208 23.8216C6.58625 23.8216 6.5285 23.7791 6.50897 23.7167L1.91672 8.95433C1.89761 8.89148 1.92097 8.82353 1.9749 8.78659ZM17.6656 0.740178C17.7195 0.70111 17.793 0.702384 17.8456 0.743575L26.8343 7.74703C27.0042 7.8791 27.1465 8.04004 27.2569 8.22562L29.2464 11.5605C29.3305 11.701 29.1606 11.8547 29.0294 11.7579L17.8528 3.51149C17.8002 3.47285 17.7288 3.47285 17.6758 3.51107L6.25162 11.8119C6.00447 11.9915 5.65371 11.8772 5.56028 11.5864L5.05791 10.0266C5.03838 9.96501 5.06004 9.89792 5.11269 9.8597L17.6656 0.740178ZM30.2575 13.5372L25.8381 26.5865C25.8211 26.6103 25.8054 26.6324 25.7888 26.6562L23.4987 28.4512C23.3823 28.5425 23.218 28.427 23.2643 28.2864L27.8293 14.4099C27.8497 14.3483 27.8276 14.2804 27.775 14.2422L25.2644 12.4187L25.264 12.4187L16.3491 5.94181C16.1024 5.7626 16.1024 5.39485 16.3491 5.21522L17.6732 4.25294C17.7259 4.2143 17.7976 4.21473 17.8503 4.25337L30.2044 13.3686C30.2567 13.4073 30.2783 13.4752 30.2575 13.5372ZM24.6482 12.7117L15.428 6.01273C15.3758 5.97451 15.3045 5.97451 15.2522 6.01273L6.03165 12.7117C5.97942 12.7495 5.95734 12.817 5.97729 12.879L9.49898 23.7184C9.51936 23.78 9.57669 23.8216 9.64166 23.8216L21.0386 23.8216C21.1036 23.8216 21.1609 23.78 21.1809 23.7184L24.703 12.879C24.723 12.817 24.7009 12.7495 24.6482 12.7117ZM0.539131 13.7542L4.54705 26.564C4.56658 26.6264 4.62476 26.6689 4.69016 26.6689L20.1057 26.6689C20.1702 26.6689 20.2275 26.6273 20.2475 26.5657L20.7558 25.0085C20.8505 24.7185 20.6339 24.4204 20.329 24.4204L6.21128 24.4204C6.14546 24.4204 6.08771 24.3779 6.06817 24.315L1.71119 10.3081C1.6666 10.1646 1.46191 10.1693 1.42369 10.3145L0.537432 13.6714C0.537857 13.6995 0.538706 13.7262 0.539131 13.7542ZM22.3343 29.1986C22.3139 29.2598 22.2565 29.3014 22.192 29.3014L8.52779 29.3014C8.41356 29.2665 8.30697 29.2338 8.19316 29.199L5.73524 27.5416C5.61251 27.4588 5.67112 27.2677 5.8189 27.2677L20.5396 27.2677C20.6046 27.2677 20.662 27.2261 20.6819 27.1645L21.6446 24.214L21.3648 24.1227L21.3648 24.121L21.6497 24.2135L25.055 13.733C25.1489 13.443 25.4988 13.3292 25.7455 13.5084L27.07 14.4702C27.1227 14.5084 27.1448 14.5764 27.1244 14.6379L22.3343 29.1986Z" fill-rule="evenodd"/>

</svg>