<?xml version="1.0" encoding="utf-8"?>
<!-- Generator: Adobe Illustrator 16.0.0, SVG Export Plug-In . SVG Version: 6.00 Build 0)  -->
<!DOCTYPE svg PUBLIC "-//W3C//DTD SVG 1.1//EN" "http://www.w3.org/Graphics/SVG/1.1/DTD/svg11.dtd">
<svg version="1.1" id="Layer_1" xmlns="http://www.w3.org/2000/svg" xmlns:xlink="http://www.w3.org/1999/xlink" x="0px" y="0px"
	 width="140px" height="140px" viewBox="0 0 140 140" enable-background="new 0 0 140 140" xml:space="preserve">
<circle fill="#DA1036" cx="70" cy="70" r="70"/>
<g>
	<path fill="#323232" d="M57.179,125.367c-5.884,0-10.531,0-13.793-3.26c-2.917-2.915-2.611-10.223-2.453-12.361l-0.023-0.403
		V30.657c-0.089-0.874-0.822-9.528,2.417-12.768c3.259-3.257,7.902-3.257,13.781-3.257h25.731c5.877,0,10.52,0,13.781,3.257
		c2.66,2.66,2.639,8.979,2.494,11.689h0.039v80.512c0.158,2.486,0.299,9.242-2.477,12.017c-3.26,3.26-7.906,3.26-13.791,3.26H57.179
		L57.179,125.367z"/>
	<rect x="45.494" y="26.586" opacity="0.25" fill="#FFFFFF" width="49.016" height="86.83"/>
	<rect x="46.732" y="27.824" fill="#8CF064" width="46.539" height="84.354"/>
	<path opacity="0.25" fill="#FFFFFF" d="M76.154,118.913c0,0.989-0.811,1.802-1.799,1.802h-8.704c-0.989,0-1.801-0.812-1.801-1.802
		v-0.118c0-0.993,0.812-1.804,1.801-1.804h8.704c0.988,0,1.799,0.811,1.799,1.804V118.913z"/>
	<rect x="65.251" y="18.153" opacity="0.25" fill="#FFFFFF" width="9.503" height="1.3"/>
	<g opacity="0.25">
		<circle fill="#FFFFFF" cx="77.85" cy="19.703" r="0.9"/>
		<circle fill="#FFFFFF" cx="80.553" cy="19.703" r="0.9"/>
	</g>
	<g opacity="0.5">
		<path fill="#FFFFFF" d="M53.801,61.868c-1.48,0-2.681,1.265-2.681,1.986l-0.023,12.168c0,0.722,1.224,1.955,2.704,1.955
			c1.479,0,2.656-1.233,2.656-1.955l0.024-12.073C56.48,63.228,55.28,61.868,53.801,61.868z"/>
		<path fill="#FFFFFF" d="M86.223,61.868c-1.48,0-2.68,1.265-2.68,1.986L83.52,76.022c0,0.722,1.223,1.955,2.703,1.955
			s2.656-1.233,2.656-1.955l0.023-12.073C88.902,63.228,87.703,61.868,86.223,61.868z"/>
		<path fill="#FFFFFF" d="M57.993,79.238v0.447v1.508c0,1.15,1.008,2.206,2.068,2.206h2.393v6.532c0,1.094,1.2,1.981,2.68,1.981
			s2.68-0.888,2.68-1.981v-6.532h4.334v6.532c0,1.094,1.201,1.981,2.68,1.981c1.48,0,2.682-0.888,2.682-1.981v-6.532h2.369
			c1.061,0,1.918-0.931,1.918-2.081c0-0.833,0-1.332,0-1.633v-0.447v-17.37H57.993V79.238z"/>
		<path fill="#FFFFFF" d="M75.766,51.787l1.908-2.917c0.117-0.178,0.18-0.616-0.016-0.743c-0.197-0.129-0.562,0.077-0.68,0.254
			l-2.031,3.048c-1.344-0.524-2.941-0.845-4.847-0.847l0,0c-0.002,0-0.004,0-0.006,0s-0.004,0-0.006,0l0,0
			c-2,0.001-3.674,0.333-5.074,0.873c0.012-0.005,0.023-0.01,0.037-0.015l-2.111-3.065c-0.124-0.17-0.511-0.381-0.699-0.243
			c-0.188,0.137-0.122,0.548,0.003,0.719l2.045,2.913c0.002-0.002,0.004-0.003,0.006-0.003c-5.494,2.563-6.302,8.42-6.302,8.42
			h12.095H70.1h11.718C81.818,60.181,81.039,54.364,75.766,51.787z M64.878,56.744c-0.688,0-1.246-0.559-1.246-1.246
			c0-0.687,0.557-1.244,1.246-1.244c0.687,0,1.244,0.558,1.244,1.244C66.123,56.186,65.565,56.744,64.878,56.744z M75.109,56.744
			c-0.688,0-1.246-0.559-1.246-1.246c0-0.687,0.559-1.244,1.246-1.244s1.244,0.558,1.244,1.244
			C76.354,56.186,75.797,56.744,75.109,56.744z"/>
	</g>
</g>
</svg>
