<?xml version="1.0" encoding="utf-8"?>
<!-- Generator: Adobe Illustrator 16.0.0, SVG Export Plug-In . SVG Version: 6.00 Build 0)  -->
<!DOCTYPE svg PUBLIC "-//W3C//DTD SVG 1.1//EN" "http://www.w3.org/Graphics/SVG/1.1/DTD/svg11.dtd">
<svg version="1.1" id="Layer_1" xmlns="http://www.w3.org/2000/svg" xmlns:xlink="http://www.w3.org/1999/xlink" x="0px" y="0px"
	 width="140px" height="140px" viewBox="0 0 140 140" enable-background="new 0 0 140 140" xml:space="preserve">
<circle fill="#89D581" cx="70" cy="70" r="70"/>
<g>
	<path fill="#FFFFFF" d="M63.017,53.54c-2.996,0-5.425,2.561-5.425,4.021l-0.048,24.633c0,1.459,2.477,3.957,5.473,3.957
		c2.995,0,5.376-2.498,5.376-3.957l0.049-24.442C68.441,56.292,66.012,53.54,63.017,53.54z"/>
	<path fill="#FFFFFF" d="M128.648,53.54c-2.996,0-5.424,2.561-5.424,4.021l-0.049,24.633c0,1.459,2.477,3.957,5.473,3.957
		s5.377-2.498,5.377-3.957l0.048-24.442C134.073,56.292,131.645,53.54,128.648,53.54z"/>
	<path fill="#FFFFFF" d="M71.504,88.702v0.906v3.052c0,2.326,2.041,4.466,4.185,4.466h4.845v13.221c0,2.215,2.43,4.011,5.426,4.011
		c2.995,0,5.424-1.796,5.424-4.011V97.126h8.775v13.221c0,2.215,2.429,4.011,5.425,4.011c2.995,0,5.425-1.796,5.425-4.011V97.126
		h4.799c2.143,0,3.879-1.886,3.879-4.212c0-1.689,0-2.699,0-3.306v-0.906V53.54H71.504V88.702z"/>
	<path fill="#FFFFFF" d="M107.48,33.133l3.863-5.905c0.238-0.358,0.364-1.244-0.033-1.503c-0.398-0.26-1.139,0.157-1.376,0.515
		l-4.11,6.169c-2.719-1.06-5.955-1.711-9.812-1.714v0c-0.004,0-0.008,0-0.012,0s-0.008,0-0.012,0v0
		c-4.049,0.002-7.437,0.675-10.271,1.767c0.024-0.01,0.047-0.019,0.074-0.03l-4.271-6.204c-0.252-0.345-1.035-0.772-1.416-0.494
		c-0.381,0.278-0.247,1.11,0.005,1.455l4.139,5.897c0.005-0.002,0.009-0.004,0.014-0.006c-11.122,5.189-12.757,17.045-12.757,17.045
		h24.484h0.023h23.72C119.731,50.124,118.156,38.349,107.48,33.133z M85.441,43.167c-1.393,0-2.521-1.128-2.521-2.52
		s1.128-2.52,2.521-2.52c1.391,0,2.52,1.128,2.52,2.52S86.832,43.167,85.441,43.167z M106.152,43.167c-1.393,0-2.52-1.128-2.52-2.52
		s1.127-2.52,2.52-2.52c1.392,0,2.52,1.128,2.52,2.52S107.544,43.167,106.152,43.167z"/>
</g>
<g>
	<g>
		<path fill="#FFFFFF" d="M35.592,121.381c-5.46,0-9.773,0-12.8-3.025c-2.707-2.706-2.424-9.488-2.277-11.472l-0.021-0.374V33.49
			c-0.083-0.81-0.763-8.842,2.243-11.847c3.024-3.024,7.333-3.024,12.788-3.024h23.878c5.454,0,9.762,0,12.788,3.024
			c2.469,2.469,2.45,8.332,2.316,10.847h0.037v74.713c0.146,2.309,0.276,8.577-2.299,11.152c-3.025,3.025-7.338,3.025-12.798,3.025
			H35.592z"/>
		<path fill="#89D581" d="M59.403,19.619c5.41,0,9.373,0.025,12.081,2.731c2.758,2.758,1.949,11.14,1.949,11.14h0.111v73.02h-0.057
			c0,0,0.809,8.381-1.949,11.139c-2.708,2.708-6.676,2.732-12.091,2.732c-0.1,0-0.2,0-0.301,0H35.893c-0.101,0-0.201,0-0.301,0
			c-5.416,0-9.384-0.024-12.093-2.732c-2.759-2.758-1.949-11.139-1.949-11.139h-0.056V33.49c0,0-0.809-8.382,1.95-11.14
			c2.706-2.706,6.671-2.731,12.081-2.731c0.103,0,0.208,0,0.312,0h23.254C59.196,19.619,59.3,19.619,59.403,19.619 M59.403,17.619
			h-0.155h-0.157H35.837h-0.157h-0.155c-5.461,0-10.178,0-13.495,3.317c-3.197,3.196-2.698,10.882-2.536,12.647v72.926v0.615
			c-0.17,2.57-0.282,9.066,2.591,11.938c3.319,3.318,8.041,3.318,13.507,3.318h0.301h23.254h0.301c5.466,0,10.188,0,13.505-3.318
			c2.866-2.866,2.761-9.34,2.592-11.921v-0.632V33.49v-1.764c0.095-3.007-0.138-8.281-2.646-10.79
			C69.579,17.619,64.863,17.619,59.403,17.619L59.403,17.619z"/>
	</g>
	<rect x="24.749" y="29.712" fill="#89D581" width="45.486" height="80.577"/>
	<path fill="#FFFFFF" stroke="#89D581" stroke-miterlimit="10" d="M53.201,115.391c0,0.918-0.752,1.672-1.67,1.672h-8.077
		c-0.918,0-1.671-0.754-1.671-1.672v-0.111c0-0.92,0.753-1.672,1.671-1.672h8.077c0.918,0,1.67,0.752,1.67,1.672V115.391z"/>
	<rect x="43.083" y="21.887" fill="#89D581" width="8.819" height="1.207"/>
	<g>
		<circle fill="#89D581" cx="54.775" cy="23.325" r="0.835"/>
		<circle fill="#89D581" cx="57.282" cy="23.325" r="0.835"/>
	</g>
</g>
</svg>
