<?xml version="1.0" encoding="utf-8"?>
<!-- Generator: Adobe Illustrator 16.0.0, SVG Export Plug-In . SVG Version: 6.00 Build 0)  -->
<!DOCTYPE svg PUBLIC "-//W3C//DTD SVG 1.1//EN" "http://www.w3.org/Graphics/SVG/1.1/DTD/svg11.dtd">
<svg version="1.1" id="Layer_1" xmlns="http://www.w3.org/2000/svg" xmlns:xlink="http://www.w3.org/1999/xlink" x="0px" y="0px"
	 width="140px" height="140px" viewBox="0 0 140 140" enable-background="new 0 0 140 140" xml:space="preserve">
<g>
	<circle fill="#FEFA39" cx="70" cy="70" r="70"/>
	<g>
		<polyline fill="none" stroke="#000000" stroke-miterlimit="10" points="99.276,19.203 69.986,36.113 70,70.394 40.933,87.176 
			11.447,69.91 		"/>
		<line fill="none" stroke="#000000" stroke-miterlimit="10" x1="40.515" y1="19.323" x2="69.986" y2="36.113"/>
		<polyline fill="none" stroke="#000000" stroke-miterlimit="10" points="70,70.394 99.262,86.82 128.553,69.91 99.485,53.371 		"/>
		<polyline fill="none" stroke="#000000" stroke-miterlimit="10" points="99.262,86.82 99.066,120.738 70.123,103.645 
			40.723,120.618 		"/>
		<line fill="none" stroke="#000000" stroke-miterlimit="10" x1="40.933" y1="87.176" x2="40.847" y2="52.938"/>
		<circle fill="#3BBDB1" cx="70" cy="70.393" r="5.071"/>
		<circle fill="#3BBDB1" cx="40.515" cy="19.324" r="5.071"/>
		<circle fill="#3BBDB1" cx="99.067" cy="120.738" r="5.07"/>
		<circle fill="#3BBDB1" cx="99.485" cy="53.371" r="5.071"/>
		<circle fill="#3BBDB1" cx="99.276" cy="19.203" r="5.071"/>
		<circle fill="#3BBDB1" cx="40.933" cy="87.176" r="5.071"/>
		<circle fill="#3BBDB1" cx="11.447" cy="69.911" r="5.071"/>
		<circle fill="#3BBDB1" cx="69.986" cy="36.113" r="5.07"/>
		<circle fill="#3BBDB1" cx="40.847" cy="52.938" r="5.071"/>
		<circle fill="#3BBDB1" cx="99.262" cy="86.82" r="5.07"/>
		<circle fill="#3BBDB1" cx="128.552" cy="69.91" r="5.071"/>
		<circle fill="#3BBDB1" cx="70.122" cy="103.645" r="5.071"/>
		<circle fill="#3BBDB1" cx="40.724" cy="120.618" r="5.071"/>
	</g>
</g>
</svg>
