<?xml version="1.0" encoding="utf-8"?>
<!-- Generator: Adobe Illustrator 16.0.0, SVG Export Plug-In . SVG Version: 6.00 Build 0)  -->
<!DOCTYPE svg PUBLIC "-//W3C//DTD SVG 1.1//EN" "http://www.w3.org/Graphics/SVG/1.1/DTD/svg11.dtd">
<svg version="1.1" id="Layer_1" xmlns="http://www.w3.org/2000/svg" xmlns:xlink="http://www.w3.org/1999/xlink" x="0px" y="0px"
	 width="140px" height="140px" viewBox="0 0 140 140" enable-background="new 0 0 140 140" xml:space="preserve">
<circle fill="#FEFA39" cx="70" cy="70" r="70"/>
<g>
	<path fill="#9F462F" d="M73.299,88.091c0,0,10.236,13.532-4.18,19.876h6.303C75.423,107.965,86.185,97.605,73.299,88.091z"/>
	<path fill="#9F462F" d="M103.545,83.547c0,0-4.307,25.053-31.967,28.437c0,0-14.549,3.593-14.549,18.184H43.052
		c0,0,1.08-21.567,33.641-24.738c10.783-1.27,18.361-7.988,21.444-22.282"/>
	<path fill="#3BBDB1" d="M29.523,45.727c0,0,3.825,7.055-0.932,13.239l29.706-6.619l13.85-31.809c0,0-6.705,4.029-12.497-0.522
		L29.523,45.727z"/>
	<circle fill="#3BBDB1" cx="48.994" cy="38.034" r="20.932"/>
	<circle fill="#89D581" cx="83.587" cy="38.88" r="23.046"/>
	<circle fill="#89D581" cx="103.545" cy="74.348" r="16.281"/>
	<circle fill="#89D581" cx="38" cy="64.199" r="13.321"/>
	<circle fill="#89D581" cx="61.998" cy="83.146" r="18.947"/>
	<path fill="#89D581" d="M40.14,51.051c20.958,5.407,20.422-11.272,20.422-11.272l44.838,6.539
		C100.596,56.029,108.979,59,108.979,59L97.771,89.571c-14.812-2.854-21.952,6.526-21.952,6.526l-32.563-10.17
		c-0.504-8.243-9.076-8.967-9.076-8.967L40.14,51.051z"/>
	<circle fill="#ED462F" cx="102.736" cy="50.878" r="4.599"/>
	<circle fill="#ED462F" cx="51.465" cy="63.458" r="4.599"/>
	<circle fill="#ED462F" cx="69.12" cy="78.946" r="4.599"/>
	<path fill="#B0E269" d="M83.588,21.859c0,0,12.196,0.879,10.601,11.735c0,0,6.946-2.854,8.548,4.44c0,0-4.32-6.924-10.928-0.793
		C91.809,37.241,95.711,24.44,83.588,21.859z"/>
</g>
</svg>
