<?xml version="1.0" encoding="utf-8"?>
<!-- Generator: Adobe Illustrator 16.0.0, SVG Export Plug-In . SVG Version: 6.00 Build 0)  -->
<!DOCTYPE svg PUBLIC "-//W3C//DTD SVG 1.1//EN" "http://www.w3.org/Graphics/SVG/1.1/DTD/svg11.dtd">
<svg version="1.1" id="Layer_1" xmlns="http://www.w3.org/2000/svg" xmlns:xlink="http://www.w3.org/1999/xlink" x="0px" y="0px"
	 width="140px" height="140px" viewBox="0 0 140 140" enable-background="new 0 0 140 140" xml:space="preserve">
<circle fill="#3BBDB1" cx="70" cy="70" r="70"/>
<path fill="#74E17B" d="M71.276,90.407c-0.691-30.419-13.098-43.372-13.098-43.372l0.009,0.028
	C46.223,32.613,24.547,32.408,24.547,32.408c8.064,1.666,8.416,5.971,8.796,9.323c3.667,17.111,14.751,22.303,22.921,23.743
	l-0.001,0c0,0,0.037,0.006,0.057,0.01c0.03,0.005,0.061,0.011,0.091,0.016c1.175,0.212,9.525,2.021,11.092,10.873
	c1.115,7.847,0.931,14.035,0.931,14.035H71.276z"/>
<path fill="#9F462F" d="M73.342,101.688c-1.917-1.703-5.055-1.703-6.972,0l-5.027,4.465c-1.917,1.702-3.167,5.169-2.779,7.703
	l0.29,1.893c0.389,2.535,2.602,5.505,4.92,6.602l1.869,0.886c2.318,1.097,6.109,1.097,8.427,0l1.869-0.886
	c2.318-1.097,4.531-4.066,4.92-6.602l0.29-1.893c0.388-2.534-0.862-6.001-2.78-7.703L73.342,101.688z"/>
<circle opacity="0.25" fill="#FF8232" cx="72.741" cy="109.274" r="3.625"/>
<path opacity="0.15" fill="#323232" d="M67.844,121.983c-2.505,0-4.841-0.702-6.846-1.9c0.819,0.975,1.783,1.799,2.775,2.268
	l1.869,0.886c2.318,1.097,6.109,1.097,8.427,0l1.869-0.886c2.318-1.097,4.531-4.066,4.92-6.602l0.29-1.893
	c0.134-0.875,0.062-1.863-0.155-2.85C79.861,117.247,74.411,121.983,67.844,121.983z"/>
<path fill="#8CF064" d="M68.888,70.464h-0.027l-0.645,30.195l0.88,0.637l0.001,0.002l0.159,0.114
	c0.241,0.147,0.738,0.333,1.359-0.116l0.879-0.637l-0.378-17.748v-0.002l-0.015-0.654c0.008-2.193,0.59-9.375,7.777-11.129
	c0-0.003-0.002-0.004-0.002-0.006c9.01-2.592,22.557-7.117,25.675-27.253c0.827-6.461,2.982-14.42,13.087-16.41
	C117.64,27.457,68.981,16.297,68.888,70.464z"/>
<path fill="#74E17B" d="M98.168,47.17c-0.466,10.13-8.2,17.848-14.053,22.274c8.325-3.061,17.882-9.077,20.438-25.577
	c0.827-6.461,2.982-14.42,13.087-16.41C104.364,28.212,99.169,40.269,98.168,47.17z"/>
<path fill="#8CF064" d="M58.178,47.036l0.009,0.028c-11.343-13.7-31.402-14.595-33.457-14.651
	c2.73,0.083,36.126,1.987,45.473,45.127C67.045,56.295,58.178,47.036,58.178,47.036z"/>
<path opacity="0.6" fill="#FEFA39" d="M90.491,39.524c-17.67,9.043-19.215,32.875-19.215,32.875S75.991,51.024,90.491,39.524z"/>
<path opacity="0.15" fill="#323232" d="M75.707,103.789l-2.365-2.101c-1.381-1.227-3.39-1.555-5.125-1.015
	C68.225,100.932,68.476,104.935,75.707,103.789z"/>
<path fill="#8CF064" d="M47.912,47.899c0,0,8.579,4.5,17.079,18.75C64.991,66.649,53.083,52.024,47.912,47.899z"/>
<path fill="#74E17B" d="M69.098,101.298l0.159,0.114c0.241,0.147,0.738,0.333,1.359-0.116l0.879-0.637l-0.15-7.073
	c-0.93,1.427-1.993,2.579-3.052,3.502l-0.076,3.571l0.88,0.637L69.098,101.298z"/>
</svg>
