<?xml version="1.0" encoding="utf-8"?>
<!-- Generator: Adobe Illustrator 16.0.0, SVG Export Plug-In . SVG Version: 6.00 Build 0)  -->
<!DOCTYPE svg PUBLIC "-//W3C//DTD SVG 1.1//EN" "http://www.w3.org/Graphics/SVG/1.1/DTD/svg11.dtd">
<svg version="1.1" id="Layer_1" xmlns="http://www.w3.org/2000/svg" xmlns:xlink="http://www.w3.org/1999/xlink" x="0px" y="0px"
	 width="140px" height="140px" viewBox="0 0 140 140" enable-background="new 0 0 140 140" xml:space="preserve">
<g>
	<circle fill="#FEFA39" cx="70" cy="60.866" r="60.741"/>
	<path fill="#3BBDB1" d="M68.52,98.91c0,0-10.635,0.763-17.567-4.877c0,0,4.904,0.957,2.688-1.111"/>
	<path fill="#89D581" d="M118.54,66.661c0-6.223-2.921-11.76-7.463-15.327c-2.888-2.531-4.269-6.371-4.912-9.035
		c-0.133-1.001-0.308-1.988-0.522-2.961c-0.005-0.04-0.007-0.065-0.007-0.065l-0.005,0.018c-1.684-7.542-5.785-14.168-11.444-19.033
		c-4.584-3.747-6.308-0.637-6.308-0.637c-6.434-7.844-14.101-2.644-14.101-2.644c2.803-2.278,1.876-4.92,1.865-4.952
		c-1.445-0.18-2.916-0.277-4.409-0.277c-11.178,0-21.139,5.203-27.598,13.318c-1.526,2.121-3.452,5.912-2.238,10.506
		c0,0-3.074-1.159-4.427,3.127c-0.505,2.091-0.829,4.252-0.942,6.471l-0.048-0.08c-0.079,5.118-3.182,8.342-5.158,9.882
		c-0.544,0.315-1.063,0.666-1.558,1.05c-0.022,0.013-0.051,0.028-0.051,0.028l0.013,0.001c-3.236,2.534-5.323,6.467-5.323,10.896
		c0,6.365,4.301,11.712,10.15,13.33l-0.015,0.01c0,0,0.07,0.012,0.188,0.035c0.25,0.066,0.498,0.139,0.754,0.191
		c1.073,0.318,2.89,1.043,4.503,2.604v-2.446c1.705-0.215,3.314-0.729,4.768-1.506v0.003c0,0,0.004-0.004,0.006-0.005
		c0.573-0.307,1.114-0.659,1.637-1.04c1.715-0.778,4.793-1.435,9.309,0.271c0.922,0.471,1.865,0.903,2.831,1.294
		c0.019,0.011,0.035,0.019,0.054,0.028l-0.007-0.01c4.065,1.637,8.502,2.547,13.153,2.547c2.284,0,4.515-0.227,6.677-0.641
		l-0.006,0.006c0,0,0.023-0.007,0.035-0.012c0.638-0.122,1.27-0.259,1.894-0.416c1.886-0.264,4.913-0.271,8.007,1.396
		c0.528,0.373,1.077,0.722,1.644,1.041c0.011,0.008,0.022,0.015,0.032,0.022l-0.001-0.004c2.821,1.587,6.073,2.497,9.541,2.497
		c0.404,0,0.805-0.016,1.203-0.041l-1.046,1.744l6.872-3.016c0.544-0.211,1.078-0.444,1.598-0.701l0.056-0.024l-0.003-0.003
		C114.14,80.911,118.54,74.301,118.54,66.661z"/>
	<path fill="#3BBDB1" d="M108.953,72.748c0-5.838-3.023-10.968-7.587-13.919l0.004,0c-0.011-0.005-0.021-0.012-0.032-0.018
		c-0.391-0.252-0.791-0.489-1.204-0.707c-3.206-2.126-4.553-5.313-5.023-6.783c-0.064-0.243-0.135-0.483-0.207-0.724
		c-0.01-0.046-0.016-0.073-0.016-0.073l-0.002,0.008c-3.033-10.195-12.471-17.633-23.651-17.633
		c-12.105,0-22.167,8.718-24.268,20.216c-0.001-0.004-0.003-0.008-0.005-0.012c-0.005,0.062-0.018,0.118-0.024,0.178
		c-0.061,0.346-0.114,0.693-0.16,1.044c-0.769,3.711-3.303,5.61-4.601,6.356c-0.25,0.121-0.5,0.241-0.74,0.375
		c-0.018,0.007-0.038,0.016-0.038,0.016l0.007,0.003c-4.077,2.296-6.835,6.659-6.835,11.671c0,5.976,3.914,11.033,9.316,12.76
		l-0.005,0.002c0,0,0.016,0.003,0.024,0.004c0.207,0.066,0.421,0.116,0.632,0.172c1.059,0.336,3.246,1.256,5.423,3.51
		c0.376,0.464,0.767,0.916,1.172,1.353c0.012,0.016,0.024,0.03,0.037,0.046l-0.002-0.01c4.827,5.191,11.713,8.443,19.361,8.443
		c6.974,0,13.313-2.705,18.038-7.117l-0.002,0.01c0,0,1.717-1.874,6.116-2.766c0.399-0.055,0.796-0.123,1.186-0.207
		c0.015-0.002,0.028-0.004,0.044-0.008c-0.002,0-0.004,0-0.006,0C103.364,87.324,108.953,80.69,108.953,72.748z"/>
	<path fill="#89D581" d="M77.403,33.678c0,0-6.533-2.072-7.768,4.626c0,0-5.841-7.687-15.083,1.092
		c-1.045-5.322,11.426-12.373,11.426-12.373L77.403,33.678z"/>
	<path fill="#89D581" d="M24.446,63.115c0,0-1.873,5.419-3.459-1.543c0,0-3.707,10.339,9.342,17.048"/>
	<path fill="#3BBDB1" d="M35.786,67.175c0,0-5.986,9.644,0.359,18.867c0,0-0.538-5.077,4.607-2.01"/>
	<path fill="#89D581" d="M111.964,52.074c0,0,6.263,3.24,2.737-3.693c0,0,11.338,8.931,3.788,16.921"/>
	<path fill="#89D581" d="M120.118,63.077c0,0-1.148,1.561-2.049,7.856c-3.78-1.342-3.78-8.51-3.78-8.51"/>
	<path fill="#3BBDB1" d="M105.036,83.443c0,0-3.203,4.715,3.201,2.952c0,0-2.686,3.142-13.964,2.849"/>
	<path fill="#89D581" d="M51.766,17.609c-9.175,6.831-7.159-2.072-7.159-2.072c-9.577,11.046-3.208,20.035-3.208,20.035
		s-7.31-2.763-8.308,5.404c0,0,3.484-3.974,3.094,2.244l9.156-4.799"/>
	<path fill="#B0E269" d="M43.637,21.912c0,0,2.468,15.335,20.976-5.993C64.612,15.919,48.748,30.637,43.637,21.912z"/>
	<path fill="#9F462F" d="M105.151,70.03c0,0-0.095,0.052-0.274,0.149c-0.187,0.087-0.425,0.275-0.7,0.537
		c-0.268,0.271-0.565,0.629-0.829,1.084c-0.282,0.447-0.534,0.982-0.796,1.568c-0.511,1.178-0.996,2.587-1.592,4.045
		c-0.595,1.451-1.324,2.968-2.358,4.192c-0.521,0.604-1.118,1.12-1.767,1.515c-0.65,0.393-1.365,0.618-2.066,0.779
		c-0.717,0.109-1.421,0.164-2.099,0.109c-0.677-0.027-1.317-0.15-1.906-0.258c-0.208-0.053-0.401-0.1-0.597-0.146
		c-1.665-0.662-1.943-3.367-1.962-4.898c0.012-0.355,0.021-0.711,0.026-1.063v-0.003v0.001c0.007-0.413,0.012-0.823,0.016-1.231
		c0.001-1.562,0.002-3.1,0.004-4.588c0.016-1.479,0.071-2.901,0.213-4.239c0.115-1.344,0.363-2.59,0.625-3.736
		c0.158-0.563,0.312-1.106,0.479-1.616c0.195-0.497,0.362-0.98,0.554-1.419c0.209-0.432,0.404-0.836,0.586-1.209
		c0.201-0.362,0.408-0.684,0.584-0.982c0.336-0.609,0.71-1.01,0.918-1.32c0.222-0.299,0.34-0.459,0.34-0.459
		s-0.131,0.149-0.377,0.429c-0.23,0.291-0.641,0.667-1.028,1.249c-0.202,0.285-0.437,0.594-0.673,0.944
		c-0.215,0.364-0.447,0.758-0.695,1.179c-0.231,0.431-0.441,0.908-0.684,1.403c-0.213,0.507-0.416,1.049-0.628,1.617
		c-0.366,1.15-0.728,2.418-0.958,3.784c-0.259,1.361-0.436,2.811-0.572,4.304c-0.124,1.488-0.252,3.023-0.382,4.583
		c-0.14,1.546-0.288,3.107-0.579,4.609c-0.289,1.503-0.703,2.95-1.312,4.239c-0.611,1.286-1.395,2.426-2.377,3.303
		c-0.215,0.246-0.503,0.421-0.748,0.629c-0.25,0.203-0.496,0.405-0.781,0.562c-0.27,0.169-0.538,0.336-0.803,0.501
		c-0.28,0.146-0.568,0.275-0.844,0.413c-1.109,0.537-2.252,0.904-3.326,1.186c-0.238,0.076-0.481,0.133-0.722,0.186
		c-3.037,0.504-3.239-1.631-3.121-2.839c0.044-0.259,0.095-0.524,0.134-0.78c0.271-1.846,0.52-3.595,0.602-5.234
		c0.122-1.631,0.103-3.145,0.029-4.473c-0.068-0.668-0.122-1.289-0.2-1.859c-0.11-0.57-0.199-1.09-0.303-1.555
		c-0.132-0.461-0.249-0.873-0.351-1.231c-0.102-0.354-0.247-0.628-0.334-0.864c-0.192-0.466-0.295-0.713-0.295-0.713
		s0.046,0.264,0.13,0.76c0.033,0.249,0.116,0.553,0.134,0.916c0.027,0.354,0.058,0.764,0.092,1.221
		c0.01,0.46-0.004,0.973-0.007,1.521c-0.023,0.553-0.075,1.15-0.121,1.783c-0.167,1.269-0.363,2.688-0.716,4.224
		c-0.33,1.534-0.771,3.188-1.267,4.927c-0.526,1.735-1.071,3.566-1.694,5.457c-0.004,0.015-0.01,0.03-0.014,0.045
		c-0.188,0.571-2.441,7.069-6.92,5.514c-0.626-0.263-1.265-0.581-1.89-0.993c-1.003-0.661-1.978-1.534-2.784-2.673
		c-0.406-0.568-0.76-1.205-1.087-1.884c-0.307-0.69-0.589-1.423-0.809-2.202c-0.134-0.467-0.243-0.951-0.345-1.441
		c-0.871-4.951,1.484-5.607,2.105-5.693c0.05-0.005,0.097-0.008,0.146-0.014c0.358-0.045,0.724-0.047,1.123-0.135
		c0.789-0.146,1.664-0.337,2.568-0.799c0.902-0.408,1.825-1.207,2.375-2.225c0.564-1.018,0.754-2.15,0.776-3.199
		c0.032-1.062-0.14-2.061-0.319-3.037c-0.381-1.947-0.924-3.773-1.35-5.487c-0.201-0.854-0.382-1.684-0.49-2.467
		c-0.124-0.785-0.16-1.527-0.117-2.205c0.036-0.335,0.053-0.666,0.136-0.96c0.036-0.149,0.061-0.301,0.104-0.44
		c0.053-0.136,0.104-0.268,0.154-0.396c0.083-0.269,0.236-0.478,0.358-0.688c0.11-0.22,0.264-0.383,0.397-0.537
		c0.249-0.33,0.52-0.515,0.69-0.66c0.174-0.143,0.267-0.219,0.267-0.219s-0.105,0.057-0.303,0.163
		c-0.196,0.111-0.508,0.245-0.83,0.533c-0.168,0.134-0.367,0.275-0.526,0.486c-0.168,0.201-0.374,0.409-0.513,0.683
		c-0.078,0.133-0.16,0.27-0.243,0.412c-0.073,0.146-0.127,0.304-0.194,0.464c-0.148,0.319-0.227,0.671-0.315,1.041
		c-0.152,0.74-0.225,1.557-0.21,2.407c-0.008,0.856,0.101,1.736,0.201,2.645c0.218,1.808,0.6,3.694,0.794,5.523
		c0.085,0.909,0.148,1.818,0.075,2.637c-0.07,0.821-0.271,1.549-0.618,2.078c-0.341,0.534-0.817,0.899-1.416,1.144
		c-0.358,0.172-0.757,0.282-1.158,0.366c-0.158,0.038-0.3,0.058-0.447,0.083c-0.082,0.014-0.165,0.029-0.245,0.039
		c-0.11,0.023-0.225,0.029-0.338,0.037c-2.981,0.23-3.2-2.25-3.21-2.818c0.098-2.963,0.255-5.924,0.208-8.757
		c-0.038-1.767-0.147-3.486-0.449-5.1c-0.296-1.608-0.779-3.123-1.534-4.362c-0.729-1.257-1.74-2.178-2.728-2.78
		c-0.994-0.608-1.965-0.907-2.76-1.098c-0.398-0.098-0.758-0.164-1.074-0.202c-0.314-0.052-0.581-0.083-0.8-0.094
		c-0.436-0.035-0.667-0.054-0.667-0.054s0.23,0.035,0.661,0.1c0.217,0.027,0.482,0.077,0.788,0.149
		c0.31,0.059,0.659,0.149,1.045,0.273c0.768,0.242,1.692,0.601,2.596,1.246c0.899,0.641,1.775,1.561,2.369,2.774
		c0.62,1.196,0.975,2.643,1.148,4.19c0.18,1.551,0.171,3.215,0.087,4.935c-0.097,1.835-0.29,3.741-0.497,5.683
		c-0.304,2.906-2.666,3.529-3.161,3.629c-0.949,0.16-2.042,0.269-3.144,0.126c-0.579-0.092-1.149-0.266-1.653-0.577
		c-0.505-0.309-0.94-0.76-1.293-1.303c-0.704-1.097-1.113-2.453-1.497-3.703c-0.375-1.26-0.715-2.452-1.05-3.457
		c-0.332-1.007-0.653-1.831-0.889-2.4c-0.247-0.565-0.389-0.888-0.389-0.888s0.11,0.334,0.304,0.918
		c0.182,0.588,0.424,1.432,0.659,2.458c0.239,1.025,0.465,2.23,0.723,3.529c0.275,1.295,0.541,2.71,1.235,4.069
		c0.351,0.673,0.851,1.317,1.488,1.794c0.635,0.482,1.37,0.78,2.079,0.959C46.586,80.73,47.905,80.688,49,80.6
		c1.45-0.33,1.91,1.123,2.024,2.568c-0.044,0.848-0.066,1.699-0.067,2.549c-0.001,0.011-0.004,0.031-0.004,0.031l0.004,0.006
		c0,2.006,0.143,4.006,0.551,5.957c0.191,0.916,0.462,1.812,0.777,2.682c0.34,0.861,0.729,1.694,1.202,2.466
		c0.936,1.548,2.161,2.825,3.423,3.787c0.371,0.283,0.743,0.532,1.115,0.766l-0.002,0.004c0,0,0.021,0.01,0.053,0.026
		c0.479,0.296,0.952,0.555,1.416,0.782c1.854,1.122,4.34,3.073,0.246,3.59c-0.251,0.023-0.492,0.045-0.752,0.07
		c-0.531,0.051-1.071-0.003-1.635,0.005c-0.284,0.012-0.562-0.03-0.844-0.069c-0.284-0.036-0.571-0.072-0.861-0.108
		c-0.577-0.089-1.144-0.271-1.736-0.407c-1.131-0.417-2.309-0.889-3.356-1.654c-0.558-0.329-1.032-0.793-1.554-1.199
		c-0.243-0.225-0.474-0.468-0.714-0.701c-0.243-0.229-0.476-0.472-0.688-0.737c-0.916-0.995-1.657-2.162-2.374-3.313
		c-0.664-1.19-1.29-2.391-1.777-3.614c-0.512-1.212-0.929-2.423-1.289-3.584c-0.352-1.163-0.652-2.277-0.885-3.318
		c-0.481-2.078-0.749-3.844-0.906-5.08c-0.157-1.242-0.201-1.939-0.201-1.939l-1.062,0.039c0,0,0.001,0.744,0.085,2.014
		c0.084,1.274,0.248,3.093,0.612,5.258c0.174,1.084,0.413,2.25,0.705,3.479c0.3,1.228,0.657,2.516,1.12,3.825
		c0.435,1.32,1.021,2.643,1.663,3.973c0.7,1.3,1.438,2.629,2.405,3.826c0.222,0.312,0.47,0.605,0.733,0.889
		c0.259,0.286,0.509,0.58,0.776,0.858c0.575,0.519,1.106,1.087,1.746,1.529c1.201,0.985,2.598,1.672,3.968,2.259
		c0.709,0.222,1.405,0.48,2.104,0.634c0.353,0.068,0.7,0.135,1.044,0.201c0.262,0.051,0.521,0.095,0.778,0.121l-0.004,0.001
		c0,0,0.006,0,0.012,0c0.079,0.008,0.159,0.021,0.238,0.024c0.073,0.004,0.146,0.01,0.221,0.016
		c1.293,0.193,4.745,1.325,3.672,7.918c-0.034,0.182-0.071,0.364-0.104,0.546c-0.01,0.054-0.018,0.108-0.027,0.162
		c-0.013,0.062-0.021,0.12-0.034,0.183c0.001,0,0.002,0,0.003,0.001c-0.337,1.906-0.556,3.786-0.732,5.58
		c-0.071,0.956-0.127,1.889-0.156,2.794c0.001,0.91-0.04,1.785,0,2.634c0.037,1.693,0.206,3.251,0.393,4.63
		c0.118,0.687,0.229,1.33,0.331,1.925c0.143,0.589,0.272,1.131,0.391,1.62c0.213,0.982,0.528,1.723,0.68,2.239
		c0.172,0.513,0.263,0.785,0.263,0.785l4.601-1.585c0,0-0.063-0.237-0.184-0.682c-0.106-0.449-0.33-1.082-0.481-1.934
		c-0.087-0.421-0.184-0.888-0.289-1.396c-0.075-0.516-0.156-1.074-0.244-1.671c-0.151-1.2-0.251-2.566-0.301-4.072
		c-0.039-0.751-0.001-1.544-0.007-2.359c0.024-0.817,0.077-1.666,0.115-2.54c0.131-1.75,0.31-3.602,0.606-5.521
		c0.256-1.921,0.623-3.909,1.023-5.929c0.017-0.08,0.034-0.161,0.051-0.241c0.182-0.69,0.995-2.667,4.38-2.819
		c0.91,0.017,1.895,0.034,2.949-0.055c0.521-0.016,1.069-0.128,1.62-0.192c0.552-0.097,1.117-0.223,1.684-0.376
		c1.136-0.323,2.28-0.83,3.326-1.53c1.05-0.697,1.955-1.63,2.657-2.651c1.409-2.059,2.105-4.357,2.661-6.446
		c0.552-2.102,0.976-4.055,1.487-5.688c0.247-0.818,0.511-1.556,0.779-2.197c0.267-0.64,0.523-1.191,0.773-1.623
		c0.232-0.445,0.451-0.772,0.602-0.996c0.146-0.225,0.227-0.346,0.227-0.346s-0.091,0.113-0.259,0.322
		c-0.171,0.209-0.423,0.516-0.698,0.94c-0.293,0.411-0.604,0.943-0.937,1.565c-0.333,0.623-0.673,1.346-1.001,2.148
		c-0.676,1.604-1.291,3.535-2.028,5.54c-0.731,1.997-1.63,4.095-2.997,5.718c-0.678,0.81-1.475,1.481-2.363,1.952
		c-0.885,0.473-1.828,0.791-2.787,0.968c-0.482,0.079-0.962,0.141-1.436,0.178c-0.482,0.006-0.939,0.063-1.404,0.03
		c-0.405-0.004-0.799-0.03-1.186-0.062c-3.789-0.439-4.031-2.836-3.844-4.203c0.075-0.32,0.15-0.64,0.226-0.96
		c0.839-4.146,3.918-5.222,4.72-5.434c0.048-0.013,0.096-0.022,0.144-0.036c0.032-0.006,0.052-0.011,0.052-0.011l-0.004-0.001
		c0.285-0.08,0.576-0.168,0.879-0.25c0.553-0.158,1.134-0.311,1.731-0.55c1.198-0.423,2.489-0.957,3.78-1.717
		c0.321-0.192,0.65-0.378,0.975-0.585c0.312-0.232,0.629-0.466,0.947-0.703c0.326-0.223,0.621-0.502,0.919-0.783
		c0.29-0.289,0.616-0.539,0.874-0.873c0.449-0.477,0.845-1.013,1.211-1.572l-0.01,0.041c0,0,0.02-0.041,0.047-0.099
		c0.254-0.392,0.488-0.794,0.699-1.213c0.736-1.106,1.955-2.483,3.41-2.316l0,0c0.253,0.044,0.511,0.087,0.783,0.136
		c0.668,0.076,1.391,0.163,2.173,0.143c0.776,0.006,1.608-0.109,2.448-0.305c0.832-0.247,1.677-0.586,2.427-1.111
		c0.744-0.525,1.395-1.18,1.932-1.897c1.061-1.454,1.697-3.09,2.203-4.607c0.502-1.523,0.886-2.952,1.308-4.14
		c0.215-0.59,0.425-1.127,0.665-1.572c0.225-0.456,0.482-0.812,0.716-1.087c0.243-0.262,0.455-0.457,0.624-0.549
		c0.163-0.104,0.25-0.16,0.25-0.16L105.151,70.03z"/>
</g>
</svg>
