<?xml version="1.0" encoding="utf-8"?>
<!-- Generator: Adobe Illustrator 16.0.0, SVG Export Plug-In . SVG Version: 6.00 Build 0)  -->
<!DOCTYPE svg PUBLIC "-//W3C//DTD SVG 1.1//EN" "http://www.w3.org/Graphics/SVG/1.1/DTD/svg11.dtd">
<svg version="1.1" id="Layer_1" xmlns="http://www.w3.org/2000/svg" xmlns:xlink="http://www.w3.org/1999/xlink" x="0px" y="0px"
	 width="140px" height="140px" viewBox="0 0 140 140" enable-background="new 0 0 140 140" xml:space="preserve">
<g>
	<circle fill="#FEFA39" cx="68.414" cy="89.509" r="37.735"/>
	<path fill="#B0E269" d="M68.521,95.612h2.959c0-35.898,29.205-65.103,65.102-65.103v-2.959
		C99.053,27.551,68.521,58.083,68.521,95.612z"/>
	<path fill="#B0E269" d="M136.582,27.551c-7.132,23.438-31.902,36.663-55.343,29.556C93.187,39.284,113.513,27.551,136.582,27.551z"
		/>
	<rect x="68.521" y="95.612" fill="#B0E269" width="2.959" height="16.553"/>
	<path fill="#89D581" d="M65.328,55.101c0,0-1.431,18.872,5.967,62.15l2.404-1.109c0,0-6.658-41.799-6.843-64.917L65.328,55.101z"/>
	<path fill="#89D581" d="M95.332,0c6.918,23.503-6.514,48.162-30.004,55.101C65.519,33.645,76.057,12.674,95.332,0z"/>
	<path fill="#3BBDB1" d="M71.479,117.806H68.52c0-35.897-29.205-65.103-65.102-65.103v-2.959
		C40.947,49.745,71.479,80.277,71.479,117.806z"/>
	<path fill="#3BBDB1" d="M3.418,49.745C10.55,73.183,35.321,86.408,58.761,79.3C46.814,61.478,26.487,49.745,3.418,49.745z"/>
	<circle fill="#9F462F" cx="70" cy="125.204" r="14.796"/>
</g>
</svg>
