<?xml version="1.0" encoding="utf-8"?>
<!-- Generator: Adobe Illustrator 16.0.0, SVG Export Plug-In . SVG Version: 6.00 Build 0)  -->
<!DOCTYPE svg PUBLIC "-//W3C//DTD SVG 1.1//EN" "http://www.w3.org/Graphics/SVG/1.1/DTD/svg11.dtd">
<svg version="1.1" id="Layer_1" xmlns="http://www.w3.org/2000/svg" xmlns:xlink="http://www.w3.org/1999/xlink" x="0px" y="0px"
	 width="140px" height="140px" viewBox="0 0 140 140" enable-background="new 0 0 140 140" xml:space="preserve">
<circle fill="#FEFA39" cx="70" cy="70" r="70"/>
<g>
	<path fill="#8CF064" d="M90.006,34.455c1.505,0.678,3.87,0.501,5.257-0.392l6.457-4.157c1.387-0.894,3.744-1.051,5.237-0.35
		l7.818,3.67c1.493,0.701,2.532,2.612,2.308,4.247l-0.934,6.806c-0.225,1.635,0.848,3.469,2.381,4.076l6.422,2.542
		c1.533,0.607,2.698,2.451,2.588,4.097l-0.428,6.347c-0.111,1.646-0.043,4.334,0.152,5.972l0.123,1.042
		c0.194,1.638-0.158,4.228-0.784,5.755l-1.225,2.99c-0.626,1.526-1.967,3.277-2.979,3.892c-1.014,0.614-2.195,2.079-2.625,3.256
		c-0.432,1.177-2.108,2.396-3.729,2.709l-15.359,2.974c-1.62,0.313-4.291,0.455-5.935,0.314L65.73,87.756
		c-1.644-0.141-2.014-1.189-0.823-2.331l6.259-5.993c1.191-1.142,1.377-3.17,0.412-4.509L64.496,65.1
		c-0.965-1.338-1.11-3.62-0.322-5.07l2.932-5.395c0.788-1.45,1.432-3.986,1.432-5.636v-4c0-1.65,1.265-3.473,2.81-4.05l1.928-0.72
		c1.545-0.578,3.402-2.263,4.128-3.746l1.771-3.622c0.726-1.482,2.549-2.141,4.054-1.463L90.006,34.455z"/>
	<path fill="#74E17B" d="M68.262,82.213l4.092,6.111l22.397,1.92c1.644,0.141,4.314-0.001,5.935-0.314l15.359-2.974
		c1.62-0.313,3.297-1.532,3.729-2.709c0.43-1.177,1.611-2.642,2.625-3.256c1.013-0.614,2.354-2.365,2.979-3.892l1.225-2.99
		c0.496-1.211,0.815-3.084,0.832-4.626c-0.044-0.077-0.091-0.162-0.134-0.233l-4.287-7.275c-0.838-1.421-2.873-2.554-4.522-2.517
		l-8.169,0.183c-1.648,0.037-4.198-0.551-5.665-1.307l-8.001-4.124c-1.466-0.756-3.703-0.51-4.969,0.547l-6.227,5.196
		c-1.268,1.057-3.654,1.937-5.304,1.955l-5.5,0.061c-1.649,0.018-3.538,1.271-4.196,2.784l-2.339,5.377l3.457,4.793
		c0.965,1.339,0.779,3.367-0.412,4.509L68.262,82.213z"/>
</g>
<rect x="66.667" y="116" fill="#9F462F" width="6.666" height="14.5"/>
<path fill="#9F462F" d="M66.554,91.42l12.644,4.156c2.489,0.816,1.925-1.078,1.64-1.789l-0.109-0.252l-0.002-0.005v-0.001
	l-4.205-9.666c0.31,0.081,0.635,0.141,0.975,0.172l4.212,9.123c1.691,3.662,4.184,4.617,4.184,4.617H85.89l5.203,1.711
	c0.004,0,2.199,0.771,2.27-4.08l0.195-13.477c-0.111-1.457-0.9-4.508-5.157-7.762L74.618,63.632c0.313-0.298,0.522-0.636,0.646-1
	L90.44,73.34l0.002,0.001l0.397,0.28c0.821,0.512,2.642,1.25,2.868-2.013l0.162-11.186c1.031-0.195,1.957-0.562,2.787-1.032
	l0.118,8.106c0.117,0.766,0.586,1.528,2.247,0.194c0.439-0.368,0.887-0.741,1.35-1.104c0.999-0.786,1.979-1.576,2.86-2.266
	c0.796,0.038,1.527-0.058,2.192-0.238c-0.096,0.09-0.193,0.182-0.295,0.278c-0.992,0.966-2.373,2.185-3.731,3.432
	c-0.679,0.623-1.386,1.213-2.034,1.785c-0.32,0.278-0.629,0.548-0.924,0.804c-0.646,0.651-1.595,1.916-1.569,3.73l0.04,2.752
	l0.008,0.542c0.083,1.044,0.646,2.941,3.982-0.542l0,0L115.14,62c0.024,0.459,0.09,0.873,0.188,1.246l-6.673,7.319
	c-0.003,0.002-0.003,0.004-0.005,0.006c-1.834,2.012-1.211,2.705-0.404,2.937l1.184,0.102l0,0l0,0l10.346,0.89
	c-0.359,0.29-0.702,0.614-1.012,0.976l-11.494-0.537c-2.057-0.097-3.742,1.318-4.5,2.082l-0.432,0.475l0,0l0,0l-2.719,2.981
	c-0.838,1.017-2.601,3.696-2.535,8.205c0,0.001,0,0.003,0,0.005c-0.174,2.191,2.176,2.659,3.396,2.756l0.709,0.021h0.002l0,0
	l10.299,0.33c0.019,0.389-0.07,0.713-0.219,0.988l-10.082,0.324c-3.52,0.113-3.965,1.869-4.004,2.555l0.047,3.242
	c0,0.004,0,0.009,0,0.014c0.016,2.643,3.778,2.723,6.072,2.525l17.813-2.328c0.243,0.364,0.509,0.66,0.78,0.901l-19.757,3.696l0,0
	c-3.79,0.709-4.623,3.354-4.767,5.001l0.143,9.847h-4.49l0.109-7.594v0.002c0,0,0.041-8.695-5.843-10.838h0.001l-20.466-7.457
	C66.81,92.244,66.713,91.824,66.554,91.42z"/>
<g>
	<path fill="#FFFFFF" d="M42.085,61.166c-0.829,0-1.5-0.671-1.5-1.5V31.499c0-0.829,0.671-1.5,1.5-1.5s1.5,0.671,1.5,1.5v28.167
		C43.585,60.494,42.914,61.166,42.085,61.166z"/>
	<path opacity="0.15" fill="#323232" d="M42.085,61.166c-0.829,0-1.5-0.671-1.5-1.5V31.499c0-0.829,0.671-1.5,1.5-1.5
		s1.5,0.671,1.5,1.5v28.167C43.585,60.494,42.914,61.166,42.085,61.166z"/>
	<path fill="#FFFFFF" d="M49.085,120.166c-1.381,0-2.5-1.119-2.5-2.5V61.333c0-1.381,1.119-2.5,2.5-2.5s2.5,1.119,2.5,2.5v56.333
		C51.585,119.047,50.466,120.166,49.085,120.166z"/>
	<path fill="#FFFFFF" d="M41.335,78.081L29.336,66.082c-0.195-0.195-0.195-0.512,0-0.707s0.512-0.195,0.707,0l10.292,10.292v-9.251
		c0-0.276,0.224-0.5,0.5-0.5s0.5,0.224,0.5,0.5V78.081z"/>
	<path opacity="0.15" fill="#323232" d="M41.335,78.081L29.336,66.082c-0.195-0.195-0.195-0.512,0-0.707s0.512-0.195,0.707,0
		l10.292,10.292v-9.251c0-0.276,0.224-0.5,0.5-0.5s0.5,0.224,0.5,0.5V78.081z"/>
	<path fill="#DA1036" d="M42.251,39c-2.2,0-4,0.938-4,2.083c0,1.146-1.8,2.083-4,2.083h-3.333c-2.2,0-4,1.8-4,4v17.167
		c0,2.2,1.8,4,4,4h30.917c2.2,0,4-1.8,4-4V47.166c0-2.2,0-4.938,0-6.083c0-1.146-1.8-2.083-4-2.083H42.251z"/>
	<path fill="#FFFFFF" d="M47.022,50.499c-10.477,0-19-8.523-19-19c0-0.829,0.671-1.5,1.5-1.5s1.5,0.671,1.5,1.5
		c0,8.822,7.178,16,16,16c0.829,0,1.5,0.671,1.5,1.5S47.851,50.499,47.022,50.499z"/>
	<path fill="#FFFFFF" d="M52.085,102.385c-10.477,0-19-8.523-19-19c0-0.828,0.671-1.5,1.5-1.5s1.5,0.672,1.5,1.5
		c0,8.822,7.178,16,16,16c0.829,0,1.5,0.672,1.5,1.5S52.914,102.385,52.085,102.385z"/>
	<path fill="#FFFFFF" d="M52.085,102.385c-10.477,0-19-8.523-19-19c0-0.828,0.671-1.5,1.5-1.5s1.5,0.672,1.5,1.5
		c0,8.822,7.178,16,16,16c0.829,0,1.5,0.672,1.5,1.5S52.914,102.385,52.085,102.385z"/>
	<path opacity="0.15" fill="#323232" d="M39.451,93.166c-2.102-2.708-3.366-6.096-3.366-9.781c0-0.828-0.671-1.5-1.5-1.5
		s-1.5,0.672-1.5,1.5c0,3.58,1.014,6.92,2.742,9.781H39.451z"/>
	<path fill="#FFFFFF" d="M34.585,65.624c-10.477,0-19-8.523-19-19c0-0.829,0.671-1.5,1.5-1.5s1.5,0.671,1.5,1.5
		c0,8.822,7.178,16,16,16c0.829,0,1.5,0.671,1.5,1.5S35.414,65.624,34.585,65.624z"/>
	<path fill="#FFFFFF" d="M34.752,77.832c-0.128,0-0.256-0.049-0.354-0.146L19.565,62.852c-0.195-0.195-0.195-0.512,0-0.707
		s0.512-0.195,0.707,0l14.833,14.833c0.195,0.195,0.195,0.512,0,0.707C35.008,77.783,34.88,77.832,34.752,77.832z"/>
	<path opacity="0.15" fill="#323232" d="M34.752,77.832c-0.128,0-0.256-0.049-0.354-0.146L19.565,62.852
		c-0.195-0.195-0.195-0.512,0-0.707s0.512-0.195,0.707,0l14.833,14.833c0.195,0.195,0.195,0.512,0,0.707
		C35.008,77.783,34.88,77.832,34.752,77.832z"/>
	<path fill="#DA1036" d="M38.585,19.333c-2.2,0-4,1.612-4,3.583c0,1.971-1.8,3.583-4,3.583h-7.333c-2.2,0-4,1.8-4,4v0.5
		c0,2.2,1.8,4,4,4h7.333c2.2,0,5.8,0,8,0h7.333c2.2,0,4-1.8,4-4v-0.5c0-2.2,0-5.612,0-7.583c0-1.971-1.8-3.583-4-3.583H38.585z"/>
	<path fill="#DA1036" d="M39.752,73.499c-2.2,0-5.8,0-8,0h-0.833c-2.2,0-5.163,0-6.583,0c-1.42,0-2.583-1.8-2.583-4V47.166
		c0-2.2-1.8-4-4-4h-4.333c-2.2,0-4,1.8-4,4v22.333c0,2.2,0.788,4,1.75,4s1.75,1.8,1.75,4v3.667c0,2.201,1.8,4,4,4h6
		c2.2,0,4,1.014,4,2.25c0,1.238,1.8,2.25,4,2.25h9.667c2.2,0,4-1.799,4-4v-8.167c0-2.2-1.8-4-4-4H39.752z"/>
	<path fill="#FFFFFF" d="M17.085,51.999c-0.128,0-0.256-0.049-0.354-0.146L8.169,43.29c-0.195-0.195-0.195-0.512,0-0.707
		s0.512-0.195,0.707,0l8.562,8.562c0.195,0.195,0.195,0.512,0,0.707C17.341,51.95,17.213,51.999,17.085,51.999z"/>
	<path fill="#FFFFFF" d="M27.708,81.218h-1.207c-5.468,0-9.917-4.448-9.917-9.917c0-0.275,0.224-0.5,0.5-0.5s0.5,0.225,0.5,0.5
		c0,4.475,3.312,8.19,7.615,8.822l-3.515-3.516c-0.195-0.195-0.195-0.512,0-0.707s0.512-0.195,0.707,0L27.708,81.218z"/>
	<path fill="#FFFFFF" d="M50.585,58.298h-1.207l6.644-6.644c0.195-0.195,0.512-0.195,0.707,0s0.195,0.512,0,0.707l-4.868,4.868
		c5.862-0.638,10.44-5.618,10.44-11.647c0-0.276,0.224-0.5,0.5-0.5s0.5,0.224,0.5,0.5C63.301,52.594,57.597,58.298,50.585,58.298z"
		/>
	<path fill="#FFFFFF" d="M49.094,82.374c-0.128,0-0.256-0.049-0.354-0.146c-0.195-0.195-0.195-0.512,0-0.707l15.037-15.037
		c0.195-0.195,0.512-0.195,0.707,0s0.195,0.512,0,0.707L49.447,82.228C49.35,82.325,49.222,82.374,49.094,82.374z"/>
	<path fill="#FFFFFF" d="M42.085,29.999c-0.128,0-0.256-0.049-0.354-0.146c-0.195-0.195-0.195-0.512,0-0.707l8.438-8.438
		c0.195-0.195,0.512-0.195,0.707,0s0.195,0.512,0,0.707l-8.438,8.438C42.341,29.95,42.213,29.999,42.085,29.999z"/>
	<path fill="#FFFFFF" d="M50.585,44.749c-0.128,0-0.256-0.049-0.354-0.146c-0.195-0.195-0.195-0.512,0-0.707l11.562-11.562
		c0.195-0.195,0.512-0.195,0.707,0s0.195,0.512,0,0.707L50.938,44.603C50.841,44.7,50.713,44.749,50.585,44.749z"/>
	<rect x="46.585" y="89.666" fill="#9F462F" width="5" height="1.168"/>
	<rect x="46.585" y="88.25" fill="#9F462F" width="5" height="0.582"/>
	<rect x="46.585" y="76.5" fill="#9F462F" width="5" height="1"/>
	<rect x="46.585" y="73.416" fill="#9F462F" width="5" height="2"/>
	<rect x="46.585" y="68.333" opacity="0.15" fill="#323232" width="5" height="6.083"/>
	<rect x="46.585" y="106.354" fill="#9F462F" width="5" height="2.438"/>
	<rect x="46.585" y="104.229" fill="#9F462F" width="5" height="0.5"/>
	<rect x="46.585" y="109.604" fill="#9F462F" width="5" height="0.562"/>
	<g>
		<path fill="#9F462F" d="M43.32,96.755c-0.238-0.157-0.466-0.327-0.696-0.496l-1.704,2.466c0.228,0.166,0.45,0.338,0.685,0.494
			L43.32,96.755z"/>
		<path fill="#9F462F" d="M38.686,96.84c0.337,0.337,0.695,0.651,1.057,0.962l2.223-2.036c-0.373-0.305-0.729-0.629-1.072-0.966
			L38.686,96.84z"/>
	</g>
	<g>
		<path fill="#9F462F" d="M32.853,38.903l-2.978,0.724c0.127,0.267,0.246,0.538,0.385,0.798l2.95-0.89
			C33.087,39.326,32.965,39.118,32.853,38.903z"/>
		<path fill="#9F462F" d="M31.805,36.419l-3.084,0.112c0.079,0.287,0.155,0.575,0.247,0.856l3.089-0.281
			C31.971,36.879,31.88,36.652,31.805,36.419z"/>
	</g>
</g>
<rect x="66.667" y="116" opacity="0.15" fill="#323232" width="6.666" height="7.25"/>
<path opacity="0.15" fill="#323232" d="M92.855,79.368c1.851,0.608,4.102,1.073,6.729,1.153c0.011-0.014,0.024-0.033,0.034-0.046
	l2.719-2.981l0.432-0.475c0.758-0.764,2.443-2.179,4.5-2.082l11.494,0.537c0.31-0.361,0.652-0.686,1.012-0.976l-10.346-0.89
	l-1.184-0.102c-0.807-0.231-1.43-0.925,0.404-2.937c0.002-0.002,0.002-0.004,0.005-0.006l6.673-7.319
	c-0.098-0.373-0.163-0.787-0.188-1.246l-14.238,14.863l0,0c-3.337,3.483-3.899,1.586-3.982,0.542l-0.008-0.542l-0.04-2.752
	c-0.025-1.814,0.923-3.079,1.569-3.73c0.295-0.256,0.604-0.525,0.924-0.804c0.648-0.571,1.355-1.162,2.034-1.785
	c1.358-1.247,2.739-2.465,3.731-3.432c0.102-0.097,0.199-0.188,0.295-0.278c-0.665,0.181-1.396,0.276-2.192,0.238
	c-0.882,0.689-1.861,1.48-2.86,2.266c-0.463,0.364-0.91,0.737-1.35,1.104c-1.661,1.334-2.13,0.572-2.247-0.194l-0.118-8.106
	c-0.83,0.47-1.756,0.837-2.787,1.032l-0.162,11.186c-0.227,3.263-2.047,2.524-2.868,2.013l-0.397-0.28L90.44,73.34L75.265,62.632
	c-0.124,0.364-0.333,0.703-0.646,1L88.4,74.168C90.879,76.062,92.177,77.886,92.855,79.368z"/>
<path opacity="0.15" fill="#323232" d="M121.117,99.113l-17.813,2.328c-2.294,0.197-6.057,0.117-6.072-2.525c0-0.005,0-0.01,0-0.014
	l-0.047-3.242c0.024-0.423,0.206-1.252,1.166-1.854l-4.966,0.064l-0.022,1.535c-0.07,4.852-2.266,4.08-2.27,4.08l-5.203-1.711h0.001
	c0,0-2.492-0.955-4.184-4.617l-0.237-0.514l-1.602-1.086l0.857,1.971v0.001l0.002,0.005l0.109,0.252
	c0.285,0.711,0.85,2.605-1.64,1.789l-7.172-2.357l-0.661,1.105l15.93,5.805h-0.001c3.717,1.354,5.067,5.318,5.56,8.058l4.527,0.476
	c0.156-1.65,1.008-4.249,4.761-4.951l19.757-3.696C121.626,99.773,121.36,99.478,121.117,99.113z"/>
<g>
	<path fill="#8CF064" d="M125.665,86.424c1.465,0.758,2.077,2.595,1.359,4.08l-0.244,0.505c-0.717,1.485-0.134,3.374,1.297,4.196
		l1.276,0.733c1.431,0.822,2.022,2.714,1.314,4.204l-1.391,2.929c-0.708,1.49-2.636,2.75-4.285,2.799l-6.853,0.204
		c-1.649,0.049-4.139-0.637-5.53-1.521l-6.789-4.32c-1.392-0.886-3.813-1.189-5.382-0.674l-10.436,3.431
		c-1.568,0.515-4.196,0.829-5.841,0.697l-3.884-0.31c-1.645-0.133-4.074-1.044-5.4-2.026l-12.901-9.564
		c-1.326-0.982-2.067-3.093-1.647-4.688l0.974-3.703c0.419-1.596,2.087-3.164,3.706-3.486l12.538-2.487
		c1.618-0.321,4.026,0.221,5.352,1.204l5.69,4.224c1.326,0.983,3.756,1.696,5.402,1.585l6.391-0.436
		c1.646-0.112,4.322-0.439,5.947-0.728l6.91-1.225c1.625-0.288,4.153,0.097,5.619,0.855L125.665,86.424z"/>
	<path fill="#74E17B" d="M119.858,96.896l-7.234-3.956c-1.448-0.792-3.912-1.01-5.477-0.484l-8.714,2.925
		c-1.564,0.524-4.136,0.563-5.716,0.085l-6.355-1.927c-1.579-0.479-4.217-0.769-5.862-0.644l-5.018,0.381
		c-1.646,0.124-4.198-0.377-5.674-1.115l-9.529-4.765c-0.266,1.552,0.451,3.468,1.697,4.391l12.901,9.564
		c1.326,0.982,3.756,1.894,5.4,2.026l3.884,0.31c1.645,0.132,4.272-0.183,5.841-0.697l10.436-3.431
		c1.568-0.516,3.99-0.212,5.382,0.674l6.789,4.32c1.392,0.885,3.881,1.57,5.53,1.521l6.853-0.204
		c1.649-0.049,3.577-1.309,4.285-2.799l1.391-2.929c0.608-1.282,0.251-2.857-0.77-3.797l-4.51,1.211
		C123.795,97.984,121.307,97.688,119.858,96.896z"/>
</g>
<g>
	<path fill="#FF8232" d="M87.319,97.219c-0.209-1.08-1.277-2.025-2.375-2.101l-17.958-1.231c-1.097-0.075-1.095-0.137,0.005-0.137
		h17.657c1.1,0,1.829-0.884,1.62-1.964l-4.063-20.984c-0.209-1.08-1.267-2.118-2.351-2.307l-5.893-1.027
		c-1.084-0.189-1.07-0.343,0.029-0.343h5.503c1.1,0,1.829-0.884,1.62-1.963l-1.522-7.865c-0.209-1.08-1.277-2.035-2.374-2.122
		l-6.482-0.515c-1.097-0.087-1.094-0.159,0.006-0.159h6.309c1.1,0,1.829-0.884,1.62-1.963L70.38,9.713
		c-0.209-1.08-0.551-1.08-0.76,0l-4.419,22.823c-0.209,1.08,0.52,1.963,1.62,1.963H68c1.1,0,1.106,0.104,0.013,0.23l-1.323,0.153
		c-1.093,0.126-2.158,1.114-2.367,2.193l-0.186,0.96c-0.209,1.08,0.52,1.963,1.62,1.963h6.484c1.1,0,1.104,0.089,0.01,0.199
		L65.54,40.87c-1.095,0.11-2.161,1.083-2.37,2.163l-6.265,32.36c-0.209,1.08,0.52,1.964,1.62,1.964h6.216
		c1.1,0,1.112,0.149,0.028,0.332l-6.615,1.112c-1.084,0.183-2.143,1.216-2.352,2.296l-4.032,20.825
		c-0.209,1.08,0.52,1.964,1.62,1.964h4.352c1.1,0,1.12,0.186,0.043,0.413l-4.793,1.013c-1.077,0.228-2.128,1.297-2.337,2.377
		l-1.229,6.348c-0.209,1.08,0.52,1.964,1.62,1.964h37.912c1.1,0,1.829-0.884,1.62-1.964L87.319,97.219z"/>
</g>
<g opacity="0.15">
	<polygon fill="#323232" points="69.757,40 70.243,40 70,38.744 	"/>
	<path fill="#323232" d="M66.986,93.887c-1.097-0.075-1.095-0.137,0.005-0.137h13.657l-5.032-25.994l-1.654-0.289
		c-1.084-0.188-1.07-0.343,0.029-0.343h1.503l-2.376-12.276l-2.383-0.189c-1.097-0.087-1.094-0.159,0.006-0.159h2.309l-2.73-14.107
		l-0.651,0.065l-7.143,36.899h2.216c1.1,0,1.112,0.149,0.028,0.332l-2.386,0.401l-4.994,25.796h0.352c1.1,0,1.12,0.187,0.043,0.413
		l-0.495,0.104L55.044,116h29.912l-4.098-21.162L66.986,93.887z"/>
</g>
<polyline fill="#FF8232" points="57.659,84 74.618,84 56.339,88.541 "/>
<polyline fill="#FF8232" points="84.159,100.11 66.667,100.11 86.159,104.229 86.991,107.572 60.212,107.572 87.659,110.166 "/>
<polyline fill="#FF8232" points="62.647,60.5 76.992,60.5 61.826,63.167 "/>
<polyline fill="#FF8232" points="65.479,47.218 73.333,47.218 64.631,49.333 "/>
<polyline fill="#FF8232" points="79.992,73.416 70,73.416 79.992,75.416 "/>
</svg>
