<?xml version="1.0" encoding="utf-8"?>
<!-- Generator: Adobe Illustrator 16.0.0, SVG Export Plug-In . SVG Version: 6.00 Build 0)  -->
<!DOCTYPE svg PUBLIC "-//W3C//DTD SVG 1.1//EN" "http://www.w3.org/Graphics/SVG/1.1/DTD/svg11.dtd">
<svg version="1.1" id="Layer_1" xmlns="http://www.w3.org/2000/svg" xmlns:xlink="http://www.w3.org/1999/xlink" x="0px" y="0px"
	 width="140px" height="140px" viewBox="0 0 140 140" enable-background="new 0 0 140 140" xml:space="preserve">
<circle fill="#FEFA39" cx="70" cy="70" r="70"/>
<g>
	<path fill="#B0E269" d="M68.776,91.182h2.446c0-29.688,24.154-53.841,53.842-53.841v-2.447
		C94.027,34.894,68.776,60.144,68.776,91.182z"/>
	<path fill="#B0E269" d="M125.064,34.894c-5.898,19.384-26.385,30.321-45.77,24.443C89.176,44.597,105.986,34.894,125.064,34.894z"
		/>
	<rect x="68.776" y="91.182" fill="#B0E269" width="2.446" height="13.689"/>
	<path fill="#89D581" d="M66.136,57.678c0,0-1.184,15.607,4.934,51.4l1.988-0.918c0,0-5.506-34.568-5.659-53.688L66.136,57.678z"/>
	<path fill="#89D581" d="M90.951,12.108c5.721,19.438-5.389,39.832-24.815,45.57C66.294,39.933,75.01,22.59,90.951,12.108z"/>
	<path fill="#3BBDB1" d="M71.223,109.537h-2.446c0-29.689-24.153-53.841-53.841-53.841v-2.447
		C45.972,53.249,71.223,78.498,71.223,109.537z"/>
	<path fill="#3BBDB1" d="M14.935,53.249C20.833,72.633,41.32,83.57,60.706,77.691C50.825,62.952,34.014,53.249,14.935,53.249z"/>
	<circle fill="#9F462F" cx="70" cy="115.654" r="12.237"/>
</g>
</svg>
