<?xml version="1.0" encoding="utf-8"?>
<!-- Generator: Adobe Illustrator 16.0.0, SVG Export Plug-In . SVG Version: 6.00 Build 0)  -->
<!DOCTYPE svg PUBLIC "-//W3C//DTD SVG 1.1//EN" "http://www.w3.org/Graphics/SVG/1.1/DTD/svg11.dtd">
<svg version="1.1" id="Layer_1" xmlns="http://www.w3.org/2000/svg" xmlns:xlink="http://www.w3.org/1999/xlink" x="0px" y="0px"
	 width="140px" height="140px" viewBox="0 0 140 140" enable-background="new 0 0 140 140" xml:space="preserve">
<circle fill="#FEFA39" cx="70" cy="70" r="70"/>
<g>
	<path fill="#3BBDB1" d="M69.624,94.862c0,0-10.15,0.729-16.766-4.654c0,0,4.681,0.914,2.565-1.061"/>
	<path fill="#89D581" d="M117.363,64.084c0-5.939-2.788-11.224-7.123-14.628c-2.756-2.416-4.074-6.081-4.688-8.624
		c-0.126-0.955-0.293-1.897-0.498-2.826c-0.004-0.039-0.007-0.062-0.007-0.062l-0.005,0.017
		c-1.606-7.198-5.521-13.522-10.921-18.166c-4.375-3.576-6.021-0.607-6.021-0.607c-6.14-7.487-13.458-2.523-13.458-2.523
		c2.676-2.174,1.791-4.696,1.779-4.727c-1.378-0.171-2.782-0.264-4.207-0.264c-10.668,0-20.175,4.966-26.339,12.71
		c-1.457,2.024-3.295,5.643-2.136,10.027c0,0-2.934-1.106-4.225,2.984c-0.482,1.996-0.792,4.058-0.899,6.176l-0.046-0.076
		c-0.075,4.885-3.037,7.962-4.922,9.432c-0.52,0.3-1.015,0.636-1.487,1.002c-0.021,0.013-0.049,0.026-0.049,0.026l0.013,0.001
		c-3.088,2.418-5.081,6.172-5.081,10.4c0,6.075,4.105,11.178,9.688,12.722l-0.014,0.01c0,0,0.066,0.011,0.179,0.033
		c0.239,0.063,0.476,0.133,0.72,0.183c1.024,0.304,2.758,0.996,4.297,2.485v-2.335c1.627-0.205,3.163-0.696,4.551-1.438v0.003
		c0,0,0.004-0.004,0.006-0.005c0.547-0.293,1.063-0.629,1.562-0.992c1.637-0.742,4.574-1.37,8.884,0.259
		c0.88,0.449,1.78,0.861,2.702,1.234c0.018,0.011,0.033,0.019,0.051,0.027l-0.006-0.01c3.879,1.562,8.114,2.431,12.552,2.431
		c2.182,0,4.31-0.217,6.374-0.612l-0.006,0.007c0,0,0.022-0.007,0.033-0.013c0.608-0.115,1.212-0.246,1.808-0.396
		c1.8-0.252,4.688-0.259,7.642,1.333c0.504,0.355,1.028,0.689,1.569,0.993c0.011,0.008,0.021,0.015,0.03,0.021v-0.004
		c2.691,1.516,5.795,2.385,9.105,2.385c0.385,0,0.769-0.017,1.148-0.039l-0.999,1.664l6.559-2.879
		c0.52-0.201,1.029-0.424,1.525-0.669l0.054-0.023l-0.003-0.002C113.164,77.685,117.363,71.375,117.363,64.084z"/>
	<path fill="#3BBDB1" d="M108.213,69.894c0-5.572-2.886-10.468-7.24-13.284h0.003c-0.01-0.005-0.02-0.012-0.03-0.018
		c-0.373-0.24-0.755-0.467-1.149-0.675c-3.06-2.029-4.345-5.071-4.793-6.474c-0.062-0.232-0.129-0.461-0.198-0.691
		c-0.009-0.044-0.015-0.07-0.015-0.07l-0.002,0.008c-2.895-9.73-11.903-16.829-22.574-16.829c-11.552,0-21.156,8.321-23.161,19.294
		c-0.001-0.004-0.003-0.008-0.005-0.012c-0.004,0.06-0.017,0.113-0.023,0.17c-0.058,0.33-0.108,0.661-0.153,0.996
		c-0.734,3.542-3.152,5.354-4.391,6.066c-0.239,0.115-0.477,0.229-0.706,0.358c-0.017,0.006-0.036,0.015-0.036,0.015l0.007,0.003
		c-3.891,2.191-6.524,6.355-6.524,11.139c0,5.704,3.736,10.53,8.892,12.178l-0.005,0.002c0,0,0.015,0.003,0.023,0.004
		c0.197,0.063,0.402,0.111,0.603,0.164c1.011,0.32,3.098,1.198,5.176,3.35c0.359,0.443,0.732,0.874,1.119,1.292
		c0.011,0.015,0.023,0.029,0.035,0.044l-0.002-0.01c4.607,4.954,11.179,8.058,18.479,8.058c6.656,0,12.706-2.582,17.215-6.792
		l-0.002,0.01c0,0,1.64-1.789,5.839-2.641c0.38-0.052,0.758-0.117,1.131-0.197c0.015-0.002,0.026-0.004,0.042-0.008
		c-0.002,0-0.004,0-0.006,0C102.878,83.805,108.213,77.473,108.213,69.894z"/>
	<path fill="#89D581" d="M78.101,32.605c0,0-6.234-1.978-7.413,4.415c0,0-5.575-7.336-14.396,1.042
		c-0.997-5.079,10.905-11.809,10.905-11.809L78.101,32.605z"/>
	<path fill="#89D581" d="M27.559,60.7c0,0-1.788,5.172-3.301-1.473c0,0-3.538,9.868,8.916,16.271"/>
	<path fill="#3BBDB1" d="M38.382,64.574c0,0-5.713,9.204,0.342,18.007c0,0-0.514-4.846,4.397-1.918"/>
	<path fill="#89D581" d="M111.087,50.162c0,0,5.977,3.092,2.612-3.525c0,0,10.821,8.524,3.614,16.149"/>
	<path fill="#89D581" d="M118.869,60.664c0,0-1.095,1.49-1.956,7.499c-3.607-1.282-3.607-8.123-3.607-8.123"/>
	<path fill="#3BBDB1" d="M104.475,80.102c0,0-3.057,4.499,3.055,2.816c0,0-2.563,2.999-13.326,2.72"/>
	<path fill="#89D581" d="M53.633,17.269c-8.757,6.52-6.833-1.978-6.833-1.978c-9.141,10.542-3.062,19.121-3.062,19.121
		s-6.977-2.637-7.93,5.158c0,0,3.326-3.793,2.953,2.142l8.738-4.581"/>
	<path fill="#B0E269" d="M45.875,21.375c0,0,2.355,14.636,20.019-5.72C65.894,15.655,50.753,29.703,45.875,21.375z"/>
	<path fill="#9F462F" d="M104.584,67.299c0,0-0.09,0.05-0.261,0.143c-0.18,0.083-0.406,0.262-0.669,0.512
		c-0.255,0.258-0.539,0.601-0.791,1.034c-0.269,0.427-0.509,0.938-0.76,1.497c-0.487,1.124-0.949,2.469-1.52,3.86
		c-0.567,1.385-1.263,2.833-2.25,4.001c-0.497,0.576-1.066,1.068-1.687,1.446c-0.62,0.375-1.302,0.59-1.972,0.742
		c-0.685,0.104-1.356,0.157-2.003,0.104c-0.646-0.025-1.257-0.144-1.819-0.246c-0.198-0.05-0.383-0.095-0.57-0.14
		c-1.589-0.632-1.854-3.214-1.872-4.674c0.011-0.339,0.021-0.679,0.024-1.016v-0.001l0,0c0.007-0.394,0.012-0.785,0.016-1.175
		c0.001-1.491,0.002-2.958,0.004-4.379c0.016-1.412,0.068-2.769,0.203-4.046c0.11-1.283,0.347-2.472,0.597-3.565
		c0.15-0.537,0.297-1.056,0.457-1.542c0.187-0.475,0.345-0.936,0.528-1.354c0.2-0.412,0.386-0.797,0.56-1.154
		c0.192-0.345,0.39-0.653,0.558-0.937c0.32-0.581,0.678-0.964,0.876-1.26c0.212-0.285,0.324-0.438,0.324-0.438
		s-0.125,0.143-0.359,0.41c-0.22,0.278-0.611,0.637-0.981,1.192c-0.192,0.272-0.417,0.567-0.642,0.901
		c-0.206,0.348-0.427,0.724-0.663,1.125c-0.222,0.412-0.422,0.866-0.653,1.339c-0.204,0.484-0.397,1.001-0.6,1.543
		c-0.349,1.098-0.695,2.308-0.914,3.611c-0.247,1.299-0.417,2.683-0.546,4.108c-0.119,1.42-0.24,2.884-0.365,4.374
		c-0.133,1.475-0.273,2.965-0.552,4.398c-0.275,1.434-0.671,2.815-1.253,4.045c-0.583,1.228-1.331,2.315-2.269,3.152
		c-0.205,0.235-0.479,0.403-0.714,0.602c-0.238,0.192-0.474,0.387-0.745,0.536c-0.258,0.162-0.514,0.32-0.767,0.478
		c-0.268,0.14-0.542,0.263-0.805,0.395c-1.06,0.513-2.149,0.863-3.175,1.132c-0.228,0.072-0.46,0.127-0.689,0.178
		c-2.899,0.48-3.091-1.557-2.979-2.71c0.043-0.247,0.092-0.499,0.129-0.744c0.259-1.762,0.496-3.431,0.574-4.995
		c0.116-1.557,0.099-3.002,0.028-4.27c-0.065-0.638-0.117-1.229-0.191-1.773c-0.105-0.545-0.189-1.04-0.289-1.484
		c-0.126-0.44-0.237-0.833-0.335-1.175c-0.098-0.339-0.236-0.6-0.318-0.825c-0.184-0.444-0.281-0.68-0.281-0.68
		s0.043,0.251,0.123,0.725c0.031,0.237,0.11,0.527,0.129,0.874c0.025,0.338,0.055,0.729,0.087,1.165
		c0.01,0.44-0.004,0.93-0.007,1.452c-0.021,0.527-0.071,1.099-0.115,1.702c-0.159,1.211-0.347,2.565-0.683,4.031
		c-0.315,1.464-0.737,3.043-1.21,4.702c-0.502,1.656-1.022,3.403-1.617,5.208c-0.004,0.015-0.009,0.029-0.014,0.043
		c-0.179,0.545-2.33,6.747-6.604,5.263c-0.597-0.25-1.207-0.554-1.803-0.947c-0.958-0.631-1.888-1.465-2.657-2.551
		c-0.388-0.543-0.726-1.15-1.038-1.798c-0.293-0.659-0.562-1.359-0.772-2.104c-0.128-0.445-0.232-0.906-0.33-1.374
		c-0.831-4.725,1.417-5.352,2.009-5.434c0.048-0.005,0.093-0.007,0.14-0.014c0.342-0.043,0.691-0.045,1.072-0.129
		c0.753-0.139,1.588-0.321,2.451-0.762c0.861-0.39,1.742-1.152,2.267-2.124c0.539-0.972,0.72-2.052,0.741-3.054
		c0.03-1.013-0.134-1.967-0.304-2.898c-0.364-1.857-0.882-3.601-1.289-5.236c-0.192-0.815-0.365-1.607-0.468-2.354
		c-0.119-0.749-0.153-1.458-0.112-2.104c0.034-0.32,0.051-0.636,0.13-0.916c0.034-0.143,0.058-0.288,0.099-0.42
		c0.051-0.129,0.099-0.255,0.147-0.377c0.079-0.257,0.226-0.457,0.342-0.657c0.105-0.209,0.252-0.365,0.379-0.512
		c0.238-0.315,0.497-0.492,0.659-0.63c0.166-0.137,0.255-0.209,0.255-0.209s-0.1,0.055-0.29,0.156
		c-0.187,0.106-0.484,0.234-0.792,0.509c-0.161,0.128-0.35,0.263-0.502,0.464c-0.161,0.192-0.357,0.391-0.49,0.652
		c-0.074,0.127-0.152,0.258-0.232,0.394c-0.07,0.139-0.121,0.29-0.186,0.442c-0.141,0.305-0.216,0.641-0.3,0.994
		c-0.145,0.707-0.214,1.486-0.201,2.297c-0.007,0.817,0.097,1.657,0.192,2.524c0.208,1.726,0.573,3.526,0.758,5.272
		c0.081,0.866,0.141,1.735,0.072,2.517c-0.067,0.783-0.259,1.478-0.59,1.983c-0.325,0.51-0.779,0.857-1.352,1.092
		c-0.341,0.164-0.722,0.269-1.105,0.349c-0.151,0.036-0.286,0.056-0.427,0.079c-0.078,0.015-0.157,0.028-0.234,0.038
		c-0.105,0.021-0.215,0.027-0.322,0.035c-2.845,0.219-3.054-2.147-3.063-2.689c0.093-2.827,0.243-5.654,0.198-8.358
		c-0.036-1.686-0.14-3.327-0.429-4.867c-0.282-1.535-0.743-2.981-1.464-4.164c-0.696-1.2-1.661-2.079-2.604-2.653
		c-0.949-0.581-1.876-0.866-2.634-1.048c-0.38-0.094-0.724-0.157-1.025-0.193c-0.3-0.049-0.555-0.079-0.764-0.089
		c-0.417-0.034-0.637-0.052-0.637-0.052s0.22,0.033,0.631,0.095c0.207,0.026,0.46,0.074,0.752,0.143
		c0.296,0.056,0.628,0.142,0.997,0.26c0.733,0.231,1.615,0.574,2.478,1.189c0.858,0.612,1.694,1.49,2.26,2.647
		c0.592,1.142,0.931,2.522,1.096,3.999c0.172,1.481,0.164,3.069,0.083,4.71c-0.093,1.752-0.277,3.571-0.474,5.424
		c-0.291,2.773-2.545,3.368-3.017,3.464c-0.906,0.152-1.949,0.257-3.001,0.12c-0.553-0.088-1.096-0.254-1.577-0.551
		c-0.482-0.295-0.897-0.726-1.234-1.244c-0.672-1.047-1.062-2.341-1.429-3.534c-0.358-1.202-0.683-2.339-1.002-3.299
		c-0.317-0.961-0.623-1.748-0.848-2.29c-0.236-0.54-0.371-0.848-0.371-0.848s0.104,0.319,0.29,0.876
		c0.173,0.561,0.405,1.366,0.629,2.346c0.228,0.979,0.444,2.128,0.69,3.368c0.262,1.235,0.517,2.586,1.179,3.883
		c0.335,0.643,0.812,1.258,1.42,1.713c0.606,0.461,1.307,0.744,1.984,0.915c1.365,0.308,2.624,0.267,3.669,0.183
		c1.384-0.314,1.823,1.072,1.932,2.451c-0.042,0.81-0.063,1.622-0.064,2.433c-0.001,0.012-0.004,0.03-0.004,0.03l0.004,0.006
		c0,1.914,0.137,3.823,0.526,5.686c0.183,0.874,0.441,1.729,0.742,2.559c0.324,0.822,0.696,1.617,1.147,2.354
		c0.893,1.478,2.062,2.695,3.267,3.614c0.354,0.271,0.709,0.508,1.064,0.731l-0.002,0.003c0,0,0.02,0.01,0.051,0.024
		c0.458,0.283,0.908,0.53,1.352,0.748c1.77,1.069,4.142,2.932,0.234,3.426c-0.239,0.021-0.469,0.043-0.718,0.066
		c-0.506,0.049-1.022-0.003-1.56,0.005c-0.271,0.011-0.537-0.028-0.806-0.065c-0.271-0.034-0.545-0.069-0.822-0.104
		c-0.551-0.085-1.092-0.258-1.657-0.389c-1.08-0.397-2.204-0.849-3.203-1.579c-0.533-0.313-0.985-0.757-1.483-1.144
		c-0.232-0.215-0.453-0.446-0.682-0.669c-0.232-0.219-0.454-0.45-0.656-0.704c-0.875-0.948-1.582-2.063-2.266-3.161
		c-0.634-1.136-1.231-2.281-1.696-3.449c-0.488-1.157-0.886-2.312-1.229-3.421c-0.336-1.11-0.623-2.173-0.845-3.166
		c-0.459-1.983-0.715-3.67-0.864-4.849c-0.15-1.186-0.192-1.851-0.192-1.851l-1.014,0.037c0,0,0.001,0.71,0.081,1.922
		c0.08,1.216,0.237,2.952,0.584,5.018c0.166,1.035,0.394,2.147,0.673,3.321c0.287,1.172,0.627,2.401,1.069,3.65
		c0.416,1.261,0.975,2.522,1.587,3.792c0.668,1.241,1.373,2.509,2.295,3.651c0.212,0.299,0.449,0.578,0.699,0.849
		c0.248,0.272,0.486,0.554,0.741,0.819c0.548,0.494,1.055,1.037,1.667,1.458c1.146,0.94,2.479,1.596,3.787,2.157
		c0.677,0.211,1.341,0.458,2.008,0.604c0.337,0.064,0.668,0.129,0.996,0.192c0.25,0.048,0.497,0.09,0.742,0.114l-0.003,0.002
		c0,0,0.006,0,0.012,0c0.075,0.008,0.151,0.02,0.227,0.022c0.07,0.004,0.14,0.009,0.211,0.015c1.234,0.185,4.529,1.266,3.504,7.558
		c-0.032,0.174-0.067,0.348-0.099,0.521c-0.009,0.051-0.018,0.103-0.026,0.154c-0.013,0.06-0.02,0.114-0.033,0.175
		c0.001,0,0.002,0,0.003,0.001c-0.321,1.819-0.53,3.613-0.699,5.325c-0.067,0.913-0.121,1.803-0.148,2.667
		c0.001,0.868-0.038,1.704,0,2.514c0.035,1.616,0.197,3.104,0.375,4.42c0.112,0.655,0.219,1.27,0.316,1.836
		c0.136,0.562,0.26,1.08,0.373,1.547c0.203,0.937,0.504,1.645,0.649,2.137c0.164,0.49,0.251,0.749,0.251,0.749l4.391-1.513
		c0,0-0.06-0.227-0.175-0.651c-0.102-0.428-0.315-1.033-0.459-1.846c-0.083-0.401-0.175-0.847-0.275-1.332
		c-0.072-0.493-0.149-1.024-0.233-1.595c-0.144-1.146-0.24-2.449-0.288-3.887c-0.037-0.716-0.001-1.473-0.006-2.251
		c0.023-0.779,0.074-1.591,0.11-2.424c0.125-1.67,0.295-3.438,0.578-5.27c0.245-1.834,0.595-3.731,0.977-5.659
		c0.016-0.076,0.032-0.153,0.048-0.229c0.174-0.659,0.95-2.545,4.18-2.69c0.869,0.016,1.809,0.032,2.814-0.053
		c0.498-0.016,1.021-0.122,1.547-0.184c0.526-0.092,1.065-0.212,1.607-0.358c1.083-0.309,2.176-0.792,3.174-1.461
		c1.002-0.665,1.866-1.555,2.536-2.529c1.344-1.965,2.01-4.159,2.54-6.152c0.526-2.007,0.931-3.87,1.419-5.429
		c0.235-0.78,0.486-1.485,0.743-2.097c0.254-0.61,0.498-1.137,0.737-1.549c0.222-0.425,0.431-0.737,0.575-0.951
		c0.139-0.215,0.217-0.33,0.217-0.33s-0.088,0.107-0.248,0.307c-0.163,0.2-0.403,0.493-0.665,0.898
		c-0.28,0.392-0.577,0.899-0.896,1.493c-0.317,0.595-0.642,1.285-0.955,2.05c-0.645,1.531-1.232,3.374-1.936,5.288
		c-0.697,1.905-1.555,3.908-2.859,5.458c-0.648,0.771-1.408,1.412-2.256,1.861c-0.845,0.451-1.745,0.756-2.66,0.925
		c-0.46,0.075-0.918,0.135-1.37,0.17c-0.46,0.006-0.896,0.06-1.34,0.028c-0.387-0.004-0.763-0.028-1.132-0.06
		c-3.617-0.418-3.848-2.706-3.669-4.011c0.072-0.305,0.143-0.61,0.216-0.917c0.801-3.957,3.739-4.984,4.505-5.186
		c0.045-0.013,0.091-0.021,0.137-0.035c0.031-0.006,0.05-0.01,0.05-0.01l-0.004-0.002c0.271-0.076,0.55-0.16,0.839-0.238
		c0.527-0.15,1.083-0.296,1.652-0.524c1.144-0.403,2.376-0.914,3.607-1.639c0.306-0.184,0.621-0.36,0.931-0.559
		c0.298-0.222,0.601-0.444,0.904-0.671c0.311-0.213,0.593-0.479,0.877-0.747c0.276-0.276,0.588-0.515,0.834-0.834
		c0.429-0.454,0.807-0.966,1.155-1.5l-0.009,0.039c0,0,0.019-0.039,0.045-0.094c0.242-0.374,0.466-0.758,0.667-1.158
		c0.702-1.056,1.866-2.37,3.255-2.21l0,0c0.24,0.041,0.486,0.082,0.746,0.13c0.638,0.071,1.328,0.155,2.074,0.136
		c0.741,0.007,1.535-0.104,2.337-0.291c0.794-0.235,1.6-0.559,2.315-1.061c0.711-0.5,1.332-1.126,1.844-1.811
		c1.014-1.387,1.62-2.949,2.103-4.396c0.479-1.453,0.847-2.817,1.249-3.951c0.205-0.562,0.405-1.075,0.635-1.5
		c0.216-0.436,0.46-0.775,0.684-1.038c0.231-0.25,0.434-0.436,0.596-0.523c0.155-0.099,0.238-0.153,0.238-0.153L104.584,67.299z"/>
</g>
</svg>
