<?xml version="1.0" encoding="utf-8"?>
<!-- Generator: Adobe Illustrator 16.0.0, SVG Export Plug-In . SVG Version: 6.00 Build 0)  -->
<!DOCTYPE svg PUBLIC "-//W3C//DTD SVG 1.1//EN" "http://www.w3.org/Graphics/SVG/1.1/DTD/svg11.dtd">
<svg version="1.1" id="Layer_1" xmlns="http://www.w3.org/2000/svg" xmlns:xlink="http://www.w3.org/1999/xlink" x="0px" y="0px"
	 width="140px" height="140px" viewBox="0 0 140 140" enable-background="new 0 0 140 140" xml:space="preserve">
<circle fill="#FF8232" cx="70" cy="70" r="70"/>
<g>
	<path fill="#8CF064" d="M76.441,14.951c-2.915-3.231-7.978-3.737-11.25-1.125s-9.389,4.244-13.593,3.625s-7.972,1.744-8.375,5.25
		s-3.095,6.712-5.982,7.125s-3.944,5.7-2.349,11.75c1.595,6.05-1.667,10.247-7.25,9.326c-5.583-0.92-9.533,1.039-8.776,4.355
		s-0.65,7.989-3.125,10.386s-2.362,5.667,0.25,7.27s7.027,2.97,9.81,3.038c2.782,0.068,6.157,1.8,7.5,3.848
		c1.342,2.048-2.116,4.047-7.685,4.442s-8.325,3.796-6.125,7.556s4.655,8.623,5.457,10.808s4.296,4.293,7.766,4.687
		c3.471,0.394,8.821,1.519,11.891,2.5s10.039,0.491,15.488-1.09c5.449-1.581,15.271-2.246,21.825-1.478l6.979,0.818
		c6.555,0.769,12.857-1.034,14.006-4.006s6.476-6.147,11.838-7.057s10.481-5.469,11.375-10.132
		c0.894-4.664,1.175-10.362,0.625-12.664c-0.55-2.301-2.969-4.184-5.375-4.184s-3.588-2.751-2.625-6.114
		c0.963-3.362-0.725-6.945-3.75-7.962c-3.025-1.016-2.463-5.812,1.25-10.656c3.713-4.845,1.969-9.964-3.875-11.375
		c-5.844-1.412-11.521-5.636-12.614-9.387c-1.095-3.751-5.595-6.114-10-5.25C85.346,20.119,79.356,18.183,76.441,14.951z"/>
</g>
<path fill="#74E17B" d="M81.919,107.224l6.979,0.817c6.555,0.77,12.857-1.033,14.006-4.005s6.476-6.147,11.838-7.057
	s10.481-5.469,11.375-10.132c0.894-4.664,1.175-10.362,0.625-12.664c-0.55-2.301-2.969-4.184-5.375-4.184s-3.588-2.751-2.625-6.114
	c0.29-1.014,0.336-2.046,0.18-3.023l-11.68,6.714l-2.75,15.945l-19.75,7.108l-7.5-5.669l-32,5.669l-12-20.63l-16.39-5.714
	c-0.342,0.497-0.706,0.965-1.11,1.357c-2.475,2.396-2.362,5.667,0.25,7.27s7.027,2.97,9.81,3.038c2.782,0.068,6.157,1.801,7.5,3.848
	c1.342,2.048-2.116,4.047-7.685,4.443c-5.569,0.396-8.325,3.795-6.125,7.555s4.655,8.623,5.457,10.808s4.296,4.294,7.766,4.687
	c3.471,0.393,8.821,1.518,11.891,2.5s10.039,0.491,15.488-1.09C65.542,107.12,75.363,106.455,81.919,107.224z"/>
<path fill="#9F462F" d="M111.165,83.73l-18.013,5.92c-3.546,1.164-2.742-1.535-2.337-2.548l0.156-0.359l0.004-0.007v-0.001
	l5.99-13.77c-0.441,0.114-0.904,0.198-1.389,0.244l-6,12.997c-2.41,5.216-5.961,6.578-5.961,6.578l0.002-0.001l-7.412,2.437
	c-0.005,0.002-3.133,1.1-3.233-5.811l-0.279-19.199c0.159-2.077,1.284-6.422,7.349-11.058l19.635-15.009
	c-0.447-0.425-0.746-0.907-0.922-1.426l-21.62,15.255l-0.002,0.001l-0.567,0.4c-1.169,0.727-3.762,1.78-4.086-2.868l-0.231-15.935
	c-1.468-0.278-2.787-0.802-3.97-1.471L68.11,49.649c-0.167,1.091-0.835,2.177-3.201,0.276c-0.627-0.524-1.264-1.055-1.924-1.574
	c-1.422-1.119-2.818-2.245-4.074-3.228c-1.133,0.055-2.176-0.082-3.122-0.339c0.136,0.128,0.273,0.259,0.42,0.396
	c1.413,1.376,3.381,3.113,5.315,4.889c0.967,0.887,1.974,1.729,2.897,2.542c0.457,0.397,0.897,0.78,1.316,1.145
	c0.922,0.929,2.272,2.73,2.236,5.316l-0.057,3.919l-0.011,0.772c-0.118,1.488-0.919,4.19-5.674-0.773v0L41.948,41.818
	c-0.035,0.654-0.128,1.244-0.268,1.775l9.507,10.427c0.003,0.003,0.004,0.005,0.007,0.008c2.613,2.866,1.725,3.854,0.576,4.184
	l-1.686,0.145h-0.001h0l-14.739,1.267c0.512,0.413,1,0.875,1.441,1.389l16.375-0.765c2.93-0.137,5.332,1.879,6.41,2.968l0.615,0.675
	l0,0l0,0l3.873,4.248c1.194,1.449,3.706,5.266,3.612,11.689c0,0.002,0,0.004,0,0.006c0.247,3.123-3.1,3.789-4.838,3.926
	l-1.011,0.032h-0.002l0,0l-14.672,0.47c-0.026,0.553,0.101,1.016,0.312,1.408l14.363,0.461c5.013,0.161,5.647,2.664,5.704,3.641
	l-0.067,4.617c0,0.008,0,0.014,0,0.021c-0.021,3.764-5.382,3.877-8.65,3.596L33.433,94.69c-0.347,0.519-0.725,0.939-1.112,1.284
	l28.146,5.266l0,0c5.399,1.01,6.586,4.779,6.79,7.125l-0.204,14.027h6.399l-0.157-10.817v0.001c0,0-0.058-12.386,8.324-15.439
	h-0.001l29.155-10.623C110.8,84.904,110.937,84.307,111.165,83.73z"/>
<g opacity="0.25">
	<path fill="#FF8232" d="M101.619,88.85l9.154-3.336c0.026-0.609,0.163-1.207,0.392-1.783l-9.94,3.267L101.619,88.85z"/>
	<path fill="#FF8232" d="M47.148,84.262c-0.026,0.553,0.101,1.016,0.312,1.408l5.312,0.171l1.324-1.802L47.148,84.262z"/>
	<path fill="#FF8232" d="M36.787,61.013l16.375-0.765c2.93-0.137,5.332,1.879,6.41,2.968l0.615,0.675l3.873,4.248
		c0.82,0.995,2.261,3.107,3.054,6.413l5.642-0.099l-0.062-4.242c0.159-2.077,1.284-6.422,7.349-11.058l19.635-15.009
		c-0.447-0.425-0.746-0.907-0.922-1.426l-21.62,15.255l-0.002,0.001l-0.567,0.4c-1.169,0.727-3.762,1.78-4.086-2.868l-0.231-15.935
		c-1.468-0.278-2.787-0.802-3.97-1.471L68.11,49.649c-0.167,1.091-0.835,2.177-3.201,0.276c-0.627-0.524-1.264-1.055-1.924-1.574
		c-1.422-1.119-2.818-2.245-4.074-3.228c-1.133,0.055-2.176-0.082-3.122-0.339c0.136,0.128,0.273,0.259,0.42,0.396
		c1.413,1.376,3.381,3.113,5.315,4.889c0.967,0.887,1.974,1.729,2.897,2.542c0.457,0.397,0.897,0.78,1.316,1.145
		c0.922,0.929,2.272,2.73,2.236,5.316l-0.057,3.919l-0.011,0.772c-0.118,1.488-0.919,4.19-5.674-0.773v0L41.948,41.818
		c-0.035,0.654-0.128,1.244-0.268,1.775l9.507,10.427c0.003,0.003,0.004,0.005,0.007,0.008c2.613,2.866,1.725,3.854,0.576,4.184
		l-1.686,0.145h0l-14.739,1.267C35.858,60.037,36.346,60.5,36.787,61.013z"/>
	<path fill="#FF8232" d="M92.073,80.799l1.395,0.207l3.498-8.04c-0.441,0.114-0.904,0.198-1.389,0.244L92.073,80.799z"/>
</g>
<path opacity="0.15" fill="#323232" d="M83.681,92.758c-0.038,0.016-0.064,0.027-0.064,0.027l-7.41,2.436
	c-0.004,0.002-2.217,0.762-2.979-3.122l-5.757,1.594l-0.01,0.696c0,0.008,0,0.014,0,0.021c-0.021,3.764-5.382,3.877-8.65,3.596
	L33.433,94.69c-0.347,0.519-0.725,0.939-1.112,1.284l28.146,5.266c5.399,1.01,6.586,4.779,6.79,7.125l-0.204,14.027h6.399
	l-0.157-10.817c0-0.019-0.052-12.388,8.324-15.438h-0.001l7.293-2.658L83.681,92.758z"/>
</svg>
