<?xml version="1.0" encoding="utf-8"?>
<!-- Generator: Adobe Illustrator 16.0.0, SVG Export Plug-In . SVG Version: 6.00 Build 0)  -->
<!DOCTYPE svg PUBLIC "-//W3C//DTD SVG 1.1//EN" "http://www.w3.org/Graphics/SVG/1.1/DTD/svg11.dtd">
<svg version="1.1" id="Layer_1" xmlns="http://www.w3.org/2000/svg" xmlns:xlink="http://www.w3.org/1999/xlink" x="0px" y="0px"
	 width="140px" height="140px" viewBox="0 0 140 140" enable-background="new 0 0 140 140" xml:space="preserve">
<g>
	<path fill="#DA1036" d="M109.841,10.245V0C70.234,0,38.126,32.107,38.126,71.715h10.245
		C48.372,37.766,75.893,10.245,109.841,10.245z"/>
	<path fill="#FF8232" d="M48.372,71.715h10.245c0-28.291,22.935-51.225,51.225-51.225V10.245
		C75.893,10.245,48.372,37.766,48.372,71.715z"/>
	<path fill="#8CF064" d="M109.841,20.49c-28.29,0-51.225,22.935-51.225,51.225h51.225V20.49z"/>
	<path fill="#3BBDB1" d="M109.841,30.735c-22.632,0-40.979,18.347-40.979,40.979h40.979V30.735z"/>
	<path fill="#6464C8" d="M109.841,40.98c-16.975,0-30.734,13.76-30.734,30.734h30.734V40.98z"/>
	<rect x="30.158" y="71.715" fill="#323232" width="79.683" height="7.968"/>
	<path fill="#323232" d="M37.583,133.444C40.074,137.05,45.699,140,50.081,140h39.837c4.382,0,10.007-2.95,12.498-6.556
		c0,0,7.425-10.745,7.425-21.889c0-22.005-17.838-39.841-39.841-39.841c-22.003,0-39.841,17.836-39.841,39.841
		C30.158,122.699,37.583,133.444,37.583,133.444z"/>
	<path fill="#323232" d="M30.158,79.683c0,0,14.061-0.728,7.694,8.335c5.585-1.163,13.687-10.459,13.687-10.459"/>
	<path fill="#323232" d="M109.842,79.683c0,0-14.062-0.728-7.694,8.335c-5.586-1.163-13.687-10.459-13.687-10.459"/>
	<path fill="#FEFA39" d="M96.844,67.937l-1.847-0.007l-0.844-3.183c-0.007-0.006-0.015-0.012-0.021-0.019l-3.751-2.528
		c-0.004-0.002-0.009-0.004-0.014-0.007l-3.603-0.506l-3.106-2.13c-0.003-0.001-0.005-0.001-0.008-0.002l-3.261,0.804l-1.594-0.531
		l-4.118,0.797l0.532-1.461l-1.747-1.283c-0.004,0-0.008,0-0.011-0.001l-4.218,2.479l-2.661-2.481c-0.012,0-0.025,0.001-0.038,0.002
		l-4.898,0.528c-0.003,0-0.007,0.001-0.01,0.001l-5.01,2.243h-3.591c-0.004,0.001-0.007,0.003-0.011,0.004l-5.164,4.085h-2.001
		c-0.931,0.804-1.705,1.659-2.303,2.555l2.312,2.359h-3.444c-0.199,0.672-0.305,1.358-0.305,2.059h55.778L96.844,67.937
		C96.844,67.937,96.844,67.937,96.844,67.937z"/>
	<circle opacity="0.05" fill="#FFFFFF" cx="88.554" cy="110.759" r="15.937"/>
</g>
</svg>
