<?xml version="1.0" encoding="utf-8"?>
<!-- Generator: Adobe Illustrator 16.0.0, SVG Export Plug-In . SVG Version: 6.00 Build 0)  -->
<!DOCTYPE svg PUBLIC "-//W3C//DTD SVG 1.1//EN" "http://www.w3.org/Graphics/SVG/1.1/DTD/svg11.dtd">
<svg version="1.1" id="Layer_1" xmlns="http://www.w3.org/2000/svg" xmlns:xlink="http://www.w3.org/1999/xlink" x="0px" y="0px"
	 width="140px" height="140px" viewBox="0 0 140 140" enable-background="new 0 0 140 140" xml:space="preserve">
<g>
	<defs>
		<circle id="SVGID_1_" cx="70" cy="70" r="70"/>
	</defs>
	<clipPath id="SVGID_2_">
		<use xlink:href="#SVGID_1_"  overflow="visible"/>
	</clipPath>
	<circle clip-path="url(#SVGID_2_)" fill="#3E1D23" cx="70" cy="70" r="70"/>
	<rect x="42.75" y="-1.416" clip-path="url(#SVGID_2_)" fill="#3BBDB1" width="13.625" height="69.46"/>
	<rect x="56.375" y="-1.416" clip-path="url(#SVGID_2_)" fill="#8CF064" width="13.625" height="69.46"/>
	<rect x="70" y="-1.416" clip-path="url(#SVGID_2_)" fill="#FF8232" width="13.625" height="69.46"/>
	<rect x="83.625" y="-1.416" clip-path="url(#SVGID_2_)" fill="#DA1036" width="13.625" height="69.46"/>
	<g clip-path="url(#SVGID_2_)">
		<rect x="34.333" y="63.378" fill="#141414" width="71.333" height="7.134"/>
		<path fill="#141414" d="M40.98,118.639c2.23,3.228,7.265,5.869,11.188,5.869H87.83c3.924,0,8.959-2.642,11.188-5.869
			c0,0,6.647-9.619,6.647-19.595c0-19.698-15.969-35.666-35.666-35.666S34.333,79.346,34.333,99.044
			C34.333,109.02,40.98,118.639,40.98,118.639z"/>
		<path fill="#141414" d="M34.333,70.512c0,0,12.587-0.652,6.888,7.46c5-1.04,12.252-9.362,12.252-9.362"/>
		<path fill="#141414" d="M105.666,70.512c0,0-12.587-0.652-6.888,7.46c-5-1.04-12.253-9.362-12.253-9.362"/>
		<path fill="#FEFA39" d="M94.031,59.996l-1.653-0.006l-0.755-2.85c-0.007-0.006-0.014-0.012-0.02-0.017l-3.358-2.263
			c-0.004-0.002-0.009-0.004-0.013-0.006l-3.225-0.453l-2.781-1.906c-0.002-0.001-0.004-0.002-0.006-0.002l-2.92,0.719l-1.427-0.475
			l-3.686,0.713l0.476-1.309l-1.563-1.148c-0.004,0-0.007,0-0.01,0l-3.776,2.219l-2.382-2.221c-0.011,0-0.023,0.002-0.034,0.002
			l-4.385,0.473c-0.003,0-0.006,0-0.009,0.002l-4.484,2.007h-3.214c-0.004,0.001-0.007,0.002-0.01,0.004l-4.623,3.657h-1.791
			c-0.833,0.72-1.526,1.484-2.062,2.287l2.069,2.111h-3.083c-0.179,0.602-0.273,1.217-0.273,1.843h49.933L94.031,59.996
			L94.031,59.996z"/>
		<circle fill="#191919" cx="86.61" cy="98.331" r="14.267"/>
	</g>
</g>
</svg>
