<?xml version="1.0" encoding="utf-8"?>
<!-- Generator: Adobe Illustrator 16.0.0, SVG Export Plug-In . SVG Version: 6.00 Build 0)  -->
<!DOCTYPE svg PUBLIC "-//W3C//DTD SVG 1.1//EN" "http://www.w3.org/Graphics/SVG/1.1/DTD/svg11.dtd">
<svg version="1.1" id="Layer_1" xmlns="http://www.w3.org/2000/svg" xmlns:xlink="http://www.w3.org/1999/xlink" x="0px" y="0px"
	 width="140px" height="140px" viewBox="0 0 140 140" enable-background="new 0 0 140 140" xml:space="preserve">
<g>
	<defs>
		<circle id="SVGID_1_" cx="70" cy="70" r="70"/>
	</defs>
	<clipPath id="SVGID_2_">
		<use xlink:href="#SVGID_1_"  overflow="visible"/>
	</clipPath>
	<circle clip-path="url(#SVGID_2_)" fill="#FEFA39" cx="70" cy="70" r="70"/>
	<g clip-path="url(#SVGID_2_)">
		<g>
			<g>
				<path fill="#DA1036" d="M121.104,112.558c0,4.779-3.911,8.689-8.69,8.689h-28.77c-4.779,0-8.689-3.91-8.689-8.689V92.179
					c0-4.779,3.91-8.691,8.689-8.691h28.77c4.779,0,8.69,3.912,8.69,8.691V112.558L121.104,112.558z"/>
			</g>
			<path fill="#DA1036" d="M104.322,121.247c0,0,4.195,8.392,16.781,8.392c0,0-8.39-4.196-8.39-8.392H104.322z"/>
		</g>
		<g>
			<g>
				<path fill="#3BBDB1" d="M125.3,66.407c0,4.78-3.911,8.69-8.691,8.69H87.84c-4.779,0-8.69-3.91-8.69-8.69V54.42
					c0-4.78,3.911-8.69,8.69-8.69h28.769c4.78,0,8.691,3.91,8.691,8.69V66.407z"/>
			</g>
			<path fill="#3BBDB1" d="M108.518,75.098c0,0,4.195,8.39,16.782,8.39c0,0-8.391-4.194-8.391-8.39H108.518z"/>
		</g>
		<g>
			<g>
				<path fill="#DA1036" d="M74.954,66.407c0,4.78-3.911,8.69-8.691,8.69H54.276c-4.78,0-8.69-3.91-8.69-8.69v-3.596
					c0-4.78,3.911-8.69,8.69-8.69h11.987c4.78,0,8.691,3.911,8.691,8.69V66.407z"/>
			</g>
			<path fill="#DA1036" d="M58.172,75.098c0,0,4.196,8.39,16.782,8.39c0,0-8.391-4.194-8.391-8.39H58.172z"/>
		</g>
		<g>
			<g>
				<path fill="#DA1036" d="M112.713,32.844c0,4.78-3.911,8.69-8.691,8.69H71.059c-4.78,0-8.69-3.911-8.69-8.69V20.857
					c0-4.78,3.911-8.69,8.69-8.69h32.964c4.78,0,8.691,3.911,8.691,8.69L112.713,32.844L112.713,32.844z"/>
			</g>
			<path fill="#DA1036" d="M79.149,41.534c0,0-4.195,8.391-16.782,8.391c0,0,8.391-4.196,8.391-8.391H79.149z"/>
		</g>
		<g>
			<g>
				<path fill="#DA1036" d="M41.39,95.775c0,4.779-3.911,8.69-8.691,8.69h-7.791c-4.78,0-8.69-3.911-8.69-8.69V67.007
					c0-4.78,3.911-8.69,8.69-8.69h7.791c4.78,0,8.691,3.911,8.691,8.69V95.775z"/>
			</g>
			<path fill="#DA1036" d="M33,104.466c0,0-4.196,8.39-16.782,8.39c0,0,8.391-4.195,8.391-8.39H33z"/>
		</g>
		<g>
			<g>
				<path fill="#3BBDB1" d="M70.759,116.752c0,4.78-3.911,8.69-8.69,8.69h-7.792c-4.78,0-8.69-3.91-8.69-8.69V92.179
					c0-4.779,3.911-8.691,8.69-8.691h7.792c4.78,0,8.69,3.912,8.69,8.691V116.752z"/>
			</g>
			<path fill="#3BBDB1" d="M62.368,125.442c0,0-4.196,8.391-16.782,8.391c0,0,8.391-4.194,8.391-8.391H62.368z"/>
		</g>
		<g>
			<g>
				<path fill="#3BBDB1" d="M58.172,37.04c0,4.78-3.911,8.69-8.69,8.69H29.105c-4.78,0-8.691-3.911-8.691-8.69v-7.791
					c0-4.78,3.911-8.691,8.691-8.691h20.377c4.78,0,8.69,3.911,8.69,8.691V37.04z"/>
			</g>
			<path fill="#3BBDB1" d="M37.196,45.73c0,0-4.195,8.39-16.782,8.39c0,0,8.391-4.196,8.391-8.39H37.196z"/>
		</g>
		<g>
			<g>
				<path fill="#DA1036" d="M121.104,112.558c0,4.779-3.911,8.689-8.69,8.689h-28.77c-4.779,0-8.689-3.91-8.689-8.689V92.179
					c0-4.779,3.91-8.691,8.689-8.691h28.77c4.779,0,8.69,3.912,8.69,8.691V112.558L121.104,112.558z"/>
			</g>
			<path fill="#DA1036" d="M104.322,121.247c0,0,4.195,8.392,16.781,8.392c0,0-8.39-4.196-8.39-8.392H104.322z"/>
		</g>
	</g>
</g>
</svg>
