<?xml version="1.0" encoding="utf-8"?>
<!-- Generator: Adobe Illustrator 16.0.0, SVG Export Plug-In . SVG Version: 6.00 Build 0)  -->
<!DOCTYPE svg PUBLIC "-//W3C//DTD SVG 1.1//EN" "http://www.w3.org/Graphics/SVG/1.1/DTD/svg11.dtd">
<svg version="1.1" id="Layer_1" xmlns="http://www.w3.org/2000/svg" xmlns:xlink="http://www.w3.org/1999/xlink" x="0px" y="0px"
	 width="140px" height="140px" viewBox="0 0 140 140" enable-background="new 0 0 140 140" xml:space="preserve">
<g>
	<g>
		<g>
			<path fill="#DA1036" d="M127.689,115.518c0,5.5-4.5,10-10,10H84.586c-5.5,0-10-4.5-10-10V92.069c0-5.5,4.5-10,10-10h33.104
				c5.5,0,10,4.5,10,10V115.518z"/>
		</g>
		<path fill="#DA1036" d="M108.379,125.518c0,0,4.828,9.655,19.311,9.655c0,0-9.655-4.828-9.655-9.655H108.379z"/>
	</g>
	<g>
		<g>
			<path fill="#3BBDB1" d="M132.518,62.414c0,5.5-4.5,10-10,10H89.414c-5.5,0-10-4.5-10-10V48.621c0-5.5,4.5-10,10-10h33.104
				c5.5,0,10,4.5,10,10V62.414z"/>
		</g>
		<path fill="#3BBDB1" d="M113.207,72.414c0,0,4.827,9.655,19.311,9.655c0,0-9.655-4.828-9.655-9.655H113.207z"/>
	</g>
	<g>
		<g>
			<path fill="#DA1036" d="M74.586,62.414c0,5.5-4.5,10-10,10H50.793c-5.5,0-10-4.5-10-10v-4.138c0-5.5,4.5-10,10-10h13.793
				c5.5,0,10,4.5,10,10V62.414z"/>
		</g>
		<path fill="#DA1036" d="M55.276,72.414c0,0,4.828,9.655,19.31,9.655c0,0-9.655-4.828-9.655-9.655H55.276z"/>
	</g>
	<g>
		<g>
			<path fill="#DA1036" d="M118.034,23.793c0,5.5-4.5,10-10,10H70.104c-5.5,0-10-4.5-10-10V10c0-5.5,4.5-10,10-10h37.931
				c5.5,0,10,4.5,10,10V23.793z"/>
		</g>
		<path fill="#DA1036" d="M79.414,33.793c0,0-4.828,9.655-19.311,9.655c0,0,9.655-4.828,9.655-9.655H79.414z"/>
	</g>
	<g>
		<g>
			<path fill="#DA1036" d="M35.965,96.207c0,5.5-4.5,10-10,10H17c-5.5,0-10-4.5-10-10V63.104c0-5.5,4.5-10,10-10h8.965
				c5.5,0,10,4.5,10,10V96.207z"/>
		</g>
		<path fill="#DA1036" d="M26.311,106.207c0,0-4.828,9.655-19.311,9.655c0,0,9.655-4.828,9.655-9.655H26.311z"/>
	</g>
	<g>
		<g>
			<path fill="#3BBDB1" d="M69.759,120.345c0,5.5-4.5,10-10,10h-8.966c-5.5,0-10-4.5-10-10V92.069c0-5.5,4.5-10,10-10h8.966
				c5.5,0,10,4.5,10,10V120.345z"/>
		</g>
		<path fill="#3BBDB1" d="M60.104,130.345c0,0-4.828,9.655-19.311,9.655c0,0,9.655-4.827,9.655-9.655H60.104z"/>
	</g>
	<g>
		<g>
			<path fill="#3BBDB1" d="M55.276,28.621c0,5.5-4.5,10-10,10H21.828c-5.5,0-10-4.5-10-10v-8.965c0-5.5,4.5-10,10-10h23.448
				c5.5,0,10,4.5,10,10V28.621z"/>
		</g>
		<path fill="#3BBDB1" d="M31.138,38.621c0,0-4.827,9.655-19.31,9.655c0,0,9.655-4.828,9.655-9.655H31.138z"/>
	</g>
	<g>
		<g>
			<path fill="#DA1036" d="M127.689,115.518c0,5.5-4.5,10-10,10H84.586c-5.5,0-10-4.5-10-10V92.069c0-5.5,4.5-10,10-10h33.104
				c5.5,0,10,4.5,10,10V115.518z"/>
		</g>
		<path fill="#DA1036" d="M108.379,125.518c0,0,4.828,9.655,19.311,9.655c0,0-9.655-4.828-9.655-9.655H108.379z"/>
	</g>
</g>
</svg>
