<?xml version="1.0" encoding="utf-8"?>
<!-- Generator: Adobe Illustrator 16.0.0, SVG Export Plug-In . SVG Version: 6.00 Build 0)  -->
<!DOCTYPE svg PUBLIC "-//W3C//DTD SVG 1.1//EN" "http://www.w3.org/Graphics/SVG/1.1/DTD/svg11.dtd">
<svg version="1.1" id="Layer_1" xmlns="http://www.w3.org/2000/svg" xmlns:xlink="http://www.w3.org/1999/xlink" x="0px" y="0px"
	 width="140px" height="140px" viewBox="0 0 140 140" enable-background="new 0 0 140 140" xml:space="preserve">
<circle fill="#DA1036" cx="70" cy="70" r="70"/>
<g>
	<path fill="#E0E0E0" d="M121.75,88.455v-15c0-5.5-4.5-10-10-10h-35c-5.5,0-10,4.5-10,10v15c0,5.5,4.5,10,10,10h25c0,0,5,10,20,10
		c0,0-10-5-10-10C117.25,98.455,121.75,93.955,121.75,88.455z"/>
	<path fill="#FFFFFF" d="M111.75,63.455h-35c-5.5,0-10,4.5-10,10v12c0,5.5,4.5,10,10,10h35c5.5,0,10-4.5,10-10v-12
		C121.75,67.955,117.25,63.455,111.75,63.455z"/>
</g>
<g>
	<path fill="#E0799C" d="M51.75,72.232h-15c-5.5,0-10,4.5-10,10v15.312c0,5.5,4.5,10,10,10c0,5-10,10-10,10c15,0,20-10,20-10h5
		c5.5,0,10-4.5,10-10V82.232C61.75,76.732,57.25,72.232,51.75,72.232z"/>
	<path fill="#FF85AF" d="M51.75,72.232h-15c-5.5,0-10,4.5-10,10v12.312c0,5.5,4.5,10,10,10h15c5.5,0,10-4.5,10-10V82.232
		C61.75,76.732,57.25,72.232,51.75,72.232z"/>
</g>
<g>
	<path fill="#F9D739" d="M86.75,23.455h-40c-5.5,0-10,4.5-10,10v15c0,5.5,4.5,10,10,10c0,5-10,10-10,10c15,0,20-10,20-10h30
		c5.5,0,10-4.5,10-10v-15C96.75,27.955,92.25,23.455,86.75,23.455z"/>
	<path fill="#FEFA39" d="M86.75,23.455h-40c-5.5,0-10,4.5-10,10v12c0,5.5,4.5,10,10,10h40c5.5,0,10-4.5,10-10v-12
		C96.75,27.955,92.25,23.455,86.75,23.455z"/>
</g>
<g>
	<circle fill="#F9D739" cx="56.75" cy="40.92" r="3"/>
	<circle fill="#F9D739" cx="66.75" cy="40.92" r="3"/>
	<circle fill="#F9D739" cx="76.75" cy="40.92" r="3"/>
</g>
<g>
	<circle fill="#E0E0E0" cx="84.25" cy="80.875" r="3"/>
	<circle fill="#E0E0E0" cx="94.25" cy="80.875" r="3"/>
	<circle fill="#E0E0E0" cx="104.25" cy="80.875" r="3"/>
</g>
<g>
	<circle fill="#E0799C" cx="34.25" cy="89.889" r="3"/>
	<circle fill="#E0799C" cx="44.25" cy="89.889" r="3"/>
	<circle fill="#E0799C" cx="54.25" cy="89.889" r="3"/>
</g>
</svg>
