<?xml version="1.0" encoding="utf-8"?>
<!-- Generator: Adobe Illustrator 16.0.0, SVG Export Plug-In . SVG Version: 6.00 Build 0)  -->
<!DOCTYPE svg PUBLIC "-//W3C//DTD SVG 1.1//EN" "http://www.w3.org/Graphics/SVG/1.1/DTD/svg11.dtd">
<svg version="1.1" id="Layer_1" xmlns="http://www.w3.org/2000/svg" xmlns:xlink="http://www.w3.org/1999/xlink" x="0px" y="0px"
	 width="140px" height="140px" viewBox="0 0 140 140" enable-background="new 0 0 140 140" xml:space="preserve">
<g>
	<circle fill="#FFFFFF" cx="70" cy="70" r="70"/>
	<g>
		<circle fill="#DA1036" cx="49.827" cy="57.768" r="20.173"/>
		<path fill="#DA1036" d="M29.654,57.768c0,0-3.736,28.392,40.346,52.674V57.768"/>
		<circle fill="#DA1036" cx="90.173" cy="57.768" r="20.173"/>
		<path fill="#DA1036" d="M110.346,57.768c0,0,3.736,28.392-40.346,52.674V57.768"/>
		<path fill="#DA1036" d="M49.827,37.595c0,0,13.729-1.308,20.173,11.581v13.542L49.827,37.595z"/>
		<path fill="#DA1036" d="M90.173,37.595c0,0-13.729-1.308-20.173,11.581v13.542L90.173,37.595z"/>
	</g>
	<path opacity="0.1" fill="#3BBDB1" d="M49.827,37.595c-11.142,0-20.173,9.031-20.173,20.173c0,0-3.736,28.392,40.346,52.674V49.176
		C63.556,36.287,49.827,37.595,49.827,37.595z"/>
</g>
</svg>
