<?xml version="1.0" encoding="utf-8"?>
<!-- Generator: Adobe Illustrator 16.0.0, SVG Export Plug-In . SVG Version: 6.00 Build 0)  -->
<!DOCTYPE svg PUBLIC "-//W3C//DTD SVG 1.1//EN" "http://www.w3.org/Graphics/SVG/1.1/DTD/svg11.dtd">
<svg version="1.1" id="Layer_1" xmlns="http://www.w3.org/2000/svg" xmlns:xlink="http://www.w3.org/1999/xlink" x="0px" y="0px"
	 width="140px" height="140px" viewBox="0 0 140 140" enable-background="new 0 0 140 140" xml:space="preserve">
<circle fill="#8CF064" cx="70" cy="70" r="70"/>
<path fill="#FEFA39" d="M38.583,90.22v19.549c0,5.397,14.065,9.773,31.417,9.773c17.352,0,31.416-4.376,31.416-9.773V90.22H38.583z"
	/>
<ellipse fill="#F7CB38" cx="70" cy="90.22" rx="31.416" ry="9.774"/>
<path fill="#FEFA39" d="M38.583,60.226v19.549c0,5.397,14.065,9.773,31.417,9.773c17.352,0,31.416-4.376,31.416-9.773V60.226H38.583
	z"/>
<ellipse fill="#F7CB38" cx="70" cy="60.226" rx="31.416" ry="9.774"/>
<path fill="#FEFA39" d="M38.583,30.231V49.78c0,5.397,14.065,9.773,31.417,9.773c17.352,0,31.416-4.376,31.416-9.773V30.231H38.583z
	"/>
<ellipse fill="#F7CB38" cx="70" cy="30.231" rx="31.416" ry="9.774"/>
</svg>
