<?xml version="1.0" encoding="utf-8"?>
<!-- Generator: Adobe Illustrator 16.0.0, SVG Export Plug-In . SVG Version: 6.00 Build 0)  -->
<!DOCTYPE svg PUBLIC "-//W3C//DTD SVG 1.1//EN" "http://www.w3.org/Graphics/SVG/1.1/DTD/svg11.dtd">
<svg version="1.1" id="Layer_1" xmlns="http://www.w3.org/2000/svg" xmlns:xlink="http://www.w3.org/1999/xlink" x="0px" y="0px"
	 width="140px" height="140px" viewBox="0 0 140 140" enable-background="new 0 0 140 140" xml:space="preserve">
<circle fill="#3BBDB1" cx="70" cy="70" r="70"/>
<g>
	<rect x="54.412" y="32.463" fill="#FFFFFF" width="31.429" height="85.042"/>
	<rect x="26.697" y="60.194" fill="#FEFA39" width="27.714" height="53.614"/>
	<rect x="85.841" y="48.793" fill="#FF8232" width="27.714" height="65.015"/>
	<rect x="29.625" y="54.802" fill="#FEFA39" width="24.787" height="5.392"/>
	<rect x="34.708" y="45.25" fill="#FEFA39" width="16.76" height="9.553"/>
	<rect x="29.625" y="58.191" opacity="0.2" fill="#323232" width="24.787" height="2.003"/>
	<rect x="34.708" y="51.258" opacity="0.2" fill="#323232" width="16.76" height="3.544"/>
	<rect x="28.7" y="70.362" opacity="0.2" fill="#323232" width="2.311" height="4.621"/>
	<rect x="32.86" y="70.362" opacity="0.2" fill="#323232" width="2.311" height="4.621"/>
	<rect x="37.02" y="70.362" opacity="0.2" fill="#323232" width="2.311" height="4.621"/>
	<rect x="41.093" y="70.362" opacity="0.2" fill="#323232" width="2.311" height="4.621"/>
	<rect x="45.253" y="70.362" opacity="0.2" fill="#323232" width="2.311" height="4.621"/>
	<rect x="49.413" y="70.362" opacity="0.2" fill="#323232" width="2.311" height="4.621"/>
	<rect x="53.572" y="70.362" opacity="0.2" fill="#323232" width="0.839" height="4.621"/>
	<rect x="27.544" y="75.908" opacity="0.2" fill="#323232" width="26.867" height="0.924"/>
	<rect x="28.7" y="78.682" opacity="0.2" fill="#323232" width="2.311" height="4.621"/>
	<rect x="32.86" y="78.682" opacity="0.2" fill="#323232" width="2.311" height="4.621"/>
	<rect x="37.02" y="78.682" opacity="0.2" fill="#323232" width="2.311" height="4.621"/>
	<rect x="41.093" y="78.682" opacity="0.2" fill="#323232" width="2.311" height="4.621"/>
	<rect x="45.253" y="78.682" opacity="0.2" fill="#323232" width="2.311" height="4.621"/>
	<rect x="49.413" y="78.682" opacity="0.2" fill="#323232" width="2.311" height="4.621"/>
	<rect x="53.572" y="78.682" opacity="0.2" fill="#323232" width="0.839" height="4.621"/>
	<rect x="27.544" y="84.228" opacity="0.2" fill="#323232" width="26.867" height="0.925"/>
	<rect x="28.7" y="87.001" opacity="0.2" fill="#323232" width="2.311" height="4.622"/>
	<rect x="32.86" y="87.001" opacity="0.2" fill="#323232" width="2.311" height="4.622"/>
	<rect x="37.02" y="87.001" opacity="0.2" fill="#323232" width="2.311" height="4.622"/>
	<rect x="41.093" y="87.001" opacity="0.2" fill="#323232" width="2.311" height="4.622"/>
	<rect x="45.253" y="87.001" opacity="0.2" fill="#323232" width="2.311" height="4.622"/>
	<rect x="49.413" y="87.001" opacity="0.2" fill="#323232" width="2.311" height="4.622"/>
	<rect x="53.572" y="87.001" opacity="0.2" fill="#323232" width="0.839" height="4.622"/>
	<rect x="27.544" y="92.547" opacity="0.2" fill="#323232" width="26.867" height="0.925"/>
	<rect x="28.7" y="95.32" opacity="0.2" fill="#323232" width="2.311" height="4.621"/>
	<rect x="32.86" y="95.32" opacity="0.2" fill="#323232" width="2.311" height="4.621"/>
	<rect x="37.02" y="95.32" opacity="0.2" fill="#323232" width="2.311" height="4.621"/>
	<rect x="41.093" y="95.32" opacity="0.2" fill="#323232" width="2.311" height="4.621"/>
	<rect x="45.253" y="95.32" opacity="0.2" fill="#323232" width="2.311" height="4.621"/>
	<rect x="49.413" y="95.32" opacity="0.2" fill="#323232" width="2.311" height="4.621"/>
	<rect x="53.572" y="95.32" opacity="0.2" fill="#323232" width="0.839" height="4.621"/>
	<rect x="27.544" y="100.866" opacity="0.2" fill="#323232" width="26.867" height="0.925"/>
	<rect x="28.7" y="103.639" opacity="0.2" fill="#323232" width="2.311" height="4.623"/>
	<rect x="32.86" y="103.639" opacity="0.2" fill="#323232" width="2.311" height="4.623"/>
	<rect x="37.02" y="103.639" opacity="0.2" fill="#323232" width="2.311" height="4.623"/>
	<rect x="41.093" y="103.639" opacity="0.2" fill="#323232" width="2.311" height="4.623"/>
	<rect x="45.253" y="103.639" opacity="0.2" fill="#323232" width="2.311" height="4.623"/>
	<rect x="49.413" y="103.639" opacity="0.2" fill="#323232" width="2.311" height="4.623"/>
	<rect x="53.572" y="103.639" opacity="0.2" fill="#323232" width="0.839" height="4.623"/>
	<rect x="27.544" y="109.186" opacity="0.2" fill="#323232" width="26.867" height="0.924"/>
	<rect x="28.7" y="62.042" opacity="0.2" fill="#323232" width="2.311" height="4.622"/>
	<rect x="32.86" y="62.042" opacity="0.2" fill="#323232" width="2.311" height="4.622"/>
	<rect x="37.02" y="62.042" opacity="0.2" fill="#323232" width="2.311" height="4.622"/>
	<rect x="41.093" y="62.042" opacity="0.2" fill="#323232" width="2.311" height="4.622"/>
	<rect x="45.253" y="62.042" opacity="0.2" fill="#323232" width="2.311" height="4.622"/>
	<rect x="49.413" y="62.042" opacity="0.2" fill="#323232" width="2.311" height="4.622"/>
	<rect x="53.572" y="62.042" opacity="0.2" fill="#323232" width="0.839" height="4.622"/>
	<rect x="27.544" y="67.588" opacity="0.2" fill="#323232" width="26.867" height="0.925"/>
	<polygon opacity="0.15" fill="#323232" points="54.412,113.808 54.412,60.194 51.887,60.194 40.255,113.808 	"/>
	<polygon opacity="0.15" fill="#323232" points="51.468,54.802 51.468,45.288 51.021,45.288 48.956,54.802 	"/>
	<polygon opacity="0.15" fill="#323232" points="54.412,60.194 54.412,54.744 54.155,54.744 52.973,60.194 	"/>
	<rect x="95.942" y="87.342" opacity="0.2" fill="#323232" width="5.662" height="0.926"/>
	<path opacity="0.2" fill="#323232" d="M98.773,76.693c-1.117,0-2.022,0.904-2.022,2.021v7.511h4.044v-7.511
		C100.795,77.598,99.89,76.693,98.773,76.693z"/>
	<rect x="86.835" y="87.342" opacity="0.2" fill="#323232" width="5.662" height="0.926"/>
	<path opacity="0.2" fill="#323232" d="M89.666,76.693c-1.117,0-2.021,0.904-2.021,2.021v7.511h4.044v-7.511
		C91.688,77.598,90.782,76.693,89.666,76.693z"/>
	<rect x="105.05" y="87.342" opacity="0.2" fill="#323232" width="5.662" height="0.926"/>
	<path opacity="0.2" fill="#323232" d="M107.881,76.693c-1.116,0-2.021,0.904-2.021,2.021v7.511h4.044v-7.511
		C109.903,77.598,108.997,76.693,107.881,76.693z"/>
	<rect x="95.942" y="103.061" opacity="0.2" fill="#323232" width="5.662" height="0.926"/>
	<path opacity="0.2" fill="#323232" d="M98.773,92.412c-1.117,0-2.022,0.905-2.022,2.021v7.512h4.044v-7.512
		C100.795,93.317,99.89,92.412,98.773,92.412z"/>
	<rect x="86.835" y="103.061" opacity="0.2" fill="#323232" width="5.662" height="0.926"/>
	<path opacity="0.2" fill="#323232" d="M89.666,92.412c-1.117,0-2.021,0.905-2.021,2.021v7.512h4.044v-7.512
		C91.688,93.317,90.782,92.412,89.666,92.412z"/>
	<rect x="105.05" y="103.061" opacity="0.2" fill="#323232" width="5.662" height="0.926"/>
	<path opacity="0.2" fill="#323232" d="M107.881,92.412c-1.116,0-2.021,0.905-2.021,2.021v7.512h4.044v-7.512
		C109.903,93.317,108.997,92.412,107.881,92.412z"/>
	<rect x="95.942" y="71.623" opacity="0.2" fill="#323232" width="5.662" height="0.926"/>
	<path opacity="0.2" fill="#323232" d="M98.773,60.974c-1.117,0-2.022,0.906-2.022,2.022v7.51h4.044v-7.51
		C100.795,61.88,99.89,60.974,98.773,60.974z"/>
	<rect x="86.835" y="71.623" opacity="0.2" fill="#323232" width="5.662" height="0.926"/>
	<path opacity="0.2" fill="#323232" d="M89.666,60.974c-1.117,0-2.021,0.906-2.021,2.022v7.51h4.044v-7.51
		C91.688,61.88,90.782,60.974,89.666,60.974z"/>
	<rect x="105.05" y="71.623" opacity="0.2" fill="#323232" width="5.662" height="0.926"/>
	<path opacity="0.2" fill="#323232" d="M107.881,60.974c-1.116,0-2.021,0.906-2.021,2.022v7.51h4.044v-7.51
		C109.903,61.88,108.997,60.974,107.881,60.974z"/>
	<polygon opacity="0.15" fill="#323232" points="85.841,53.139 85.841,113.808 99.002,113.808 	"/>
	<g>
		<rect x="54.412" y="100.867" opacity="0.1" fill="#323232" width="31.429" height="1.617"/>
		<rect x="51.468" y="97.631" fill="#FFFFFF" width="37.315" height="3.236"/>
	</g>
	<rect x="85.841" y="48.793" fill="#FF8232" width="30.79" height="2.465"/>
	<rect x="85.841" y="51.258" opacity="0.2" fill="#323232" width="27.714" height="2.465"/>
	<rect x="85.841" y="56.266" opacity="0.2" fill="#323232" width="27.714" height="2.465"/>
	<rect x="85.841" y="53.723" fill="#FF8232" width="30.79" height="2.466"/>
	<g>
		<rect x="56.26" y="37.431" opacity="0.1" fill="#323232" width="1.849" height="9.243"/>
		<rect x="59.033" y="37.431" opacity="0.1" fill="#323232" width="1.849" height="9.243"/>
		<rect x="63.655" y="37.431" opacity="0.1" fill="#323232" width="1.849" height="9.243"/>
		<rect x="66.428" y="37.431" opacity="0.1" fill="#323232" width="1.849" height="9.243"/>
		<rect x="71.975" y="37.431" opacity="0.1" fill="#323232" width="1.849" height="9.243"/>
		<rect x="74.747" y="37.431" opacity="0.1" fill="#323232" width="1.85" height="9.243"/>
		<rect x="56.26" y="48.524" opacity="0.1" fill="#323232" width="27.731" height="0.924"/>
		<rect x="56.26" y="51.297" opacity="0.1" fill="#323232" width="27.731" height="0.925"/>
		<rect x="56.26" y="54.07" opacity="0.1" fill="#323232" width="27.731" height="0.925"/>
		<rect x="79.37" y="37.431" opacity="0.1" fill="#323232" width="1.849" height="9.243"/>
		<rect x="82.143" y="37.431" opacity="0.1" fill="#323232" width="1.849" height="9.243"/>
	</g>
	<g>
		<rect x="56.26" y="58.692" opacity="0.1" fill="#323232" width="1.849" height="9.243"/>
		<rect x="59.033" y="58.692" opacity="0.1" fill="#323232" width="1.849" height="9.243"/>
		<rect x="63.655" y="58.692" opacity="0.1" fill="#323232" width="1.849" height="9.243"/>
		<rect x="66.428" y="58.692" opacity="0.1" fill="#323232" width="1.849" height="9.243"/>
		<rect x="71.975" y="58.692" opacity="0.1" fill="#323232" width="1.849" height="9.243"/>
		<rect x="74.747" y="58.692" opacity="0.1" fill="#323232" width="1.85" height="9.243"/>
		<rect x="56.26" y="69.785" opacity="0.1" fill="#323232" width="27.731" height="0.926"/>
		<rect x="56.26" y="72.559" opacity="0.1" fill="#323232" width="27.731" height="0.925"/>
		<rect x="56.26" y="75.332" opacity="0.1" fill="#323232" width="27.731" height="0.925"/>
		<rect x="79.37" y="58.692" opacity="0.1" fill="#323232" width="1.849" height="9.243"/>
		<rect x="82.143" y="58.692" opacity="0.1" fill="#323232" width="1.849" height="9.243"/>
	</g>
	<g>
		<rect x="56.26" y="80.067" opacity="0.1" fill="#323232" width="1.849" height="9.244"/>
		<rect x="59.033" y="80.067" opacity="0.1" fill="#323232" width="1.849" height="9.244"/>
		<rect x="63.655" y="80.067" opacity="0.1" fill="#323232" width="1.849" height="9.244"/>
		<rect x="66.428" y="80.067" opacity="0.1" fill="#323232" width="1.849" height="9.244"/>
		<rect x="71.975" y="80.067" opacity="0.1" fill="#323232" width="1.849" height="9.244"/>
		<rect x="74.747" y="80.067" opacity="0.1" fill="#323232" width="1.85" height="9.244"/>
		<rect x="56.26" y="91.16" opacity="0.1" fill="#323232" width="27.731" height="0.925"/>
		<rect x="56.26" y="93.934" opacity="0.1" fill="#323232" width="27.731" height="0.924"/>
		<rect x="56.26" y="96.707" opacity="0.1" fill="#323232" width="27.731" height="0.924"/>
		<rect x="79.37" y="80.067" opacity="0.1" fill="#323232" width="1.849" height="9.244"/>
		<rect x="82.143" y="80.067" opacity="0.1" fill="#323232" width="1.849" height="9.244"/>
	</g>
	<rect x="56.26" y="104.563" opacity="0.1" fill="#323232" width="1.849" height="10.92"/>
	<rect x="59.033" y="104.563" opacity="0.1" fill="#323232" width="1.849" height="10.92"/>
	<rect x="79.37" y="104.563" opacity="0.1" fill="#323232" width="1.849" height="10.92"/>
	<rect x="82.143" y="104.563" opacity="0.1" fill="#323232" width="1.849" height="10.92"/>
	<path opacity="0.1" fill="#323232" d="M70.126,104.563c-2.553,0-4.622,2.069-4.622,4.622v8.319h9.243v-8.319
		C74.747,106.633,72.679,104.563,70.126,104.563z"/>
	<rect x="56.26" y="27.841" fill="#FFFFFF" width="27.731" height="4.622"/>
	<rect x="58.109" y="25.067" fill="#FFFFFF" width="24.034" height="2.773"/>
	<rect x="62.646" y="17.502" fill="#FFFFFF" width="14.961" height="7.565"/>
	<rect x="68.277" y="12.011" fill="#FFFFFF" width="3.697" height="5.491"/>
	<rect x="56.26" y="30.845" opacity="0.1" fill="#323232" width="27.731" height="1.618"/>
	<rect x="58.109" y="25.992" opacity="0.1" fill="#323232" width="24.034" height="1.849"/>
	<rect x="62.646" y="23.219" opacity="0.1" fill="#323232" width="14.961" height="1.848"/>
	<rect x="68.277" y="15.654" opacity="0.1" fill="#323232" width="3.697" height="1.848"/>
</g>
</svg>
