<?xml version="1.0" encoding="utf-8"?>
<!-- Generator: Adobe Illustrator 16.0.0, SVG Export Plug-In . SVG Version: 6.00 Build 0)  -->
<!DOCTYPE svg PUBLIC "-//W3C//DTD SVG 1.1//EN" "http://www.w3.org/Graphics/SVG/1.1/DTD/svg11.dtd">
<svg version="1.1" id="Layer_1" xmlns="http://www.w3.org/2000/svg" xmlns:xlink="http://www.w3.org/1999/xlink" x="0px" y="0px"
	 width="140px" height="140px" viewBox="0 0 140 140" enable-background="new 0 0 140 140" xml:space="preserve">
<g>
	<defs>
		<circle id="SVGID_1_" cx="70" cy="70" r="70"/>
	</defs>
	<clipPath id="SVGID_2_">
		<use xlink:href="#SVGID_1_"  overflow="visible"/>
	</clipPath>
	<circle clip-path="url(#SVGID_2_)" fill="#3BBDB1" cx="70" cy="70" r="70"/>
	<g clip-path="url(#SVGID_2_)">
		<rect x="42" y="14" fill="#B0E269" width="18.667" height="51.333"/>
		<polygon fill="#B0E269" points="93.332,28 84,28 84,37.333 70,37.333 70,65.333 84,65.333 93.332,65.333 93.332,70 107.332,70 
			107.332,32.667 93.332,32.667 		"/>
		<polygon fill="#B0E269" points="126,65.333 126,60.667 112,60.667 112,84 126,84 130.666,84 130.666,65.333 		"/>
	</g>
	<g clip-path="url(#SVGID_2_)">
		<polygon fill="#89D581" points="130.666,84 130.666,74.666 126,74.666 126,65.333 121.332,65.333 121.332,74.666 116.666,74.666 
			116.666,84 112,84 112,51.333 98,51.333 98,60.667 79.333,60.667 79.332,60.667 79.332,46.667 74.667,46.667 74.667,32.667 
			60.667,32.667 60.667,46.667 51.333,46.667 51.333,60.667 46.667,60.667 46.667,32.667 32.667,32.667 32.667,49.636 
			18.667,49.636 18.667,126 32.667,126 46.667,126 79.332,126 79.333,126 98,126 112,126 135.332,126 135.332,84 		"/>
		<rect x="65.333" y="23.333" fill="#89D581" width="4.667" height="9.333"/>
	</g>
	<g clip-path="url(#SVGID_2_)">
		<g>
			<rect x="35.467" y="35.467" fill="#B0E269" width="2.8" height="2.8"/>
			<rect x="41.067" y="35.467" fill="#B0E269" width="2.8" height="2.8"/>
		</g>
		<g>
			<rect x="35.467" y="41.067" fill="#B0E269" width="2.8" height="2.8"/>
			<rect x="41.067" y="41.067" fill="#B0E269" width="2.8" height="2.8"/>
		</g>
		<g>
			<rect x="35.467" y="46.667" fill="#B0E269" width="2.8" height="2.8"/>
			<rect x="41.067" y="46.667" fill="#B0E269" width="2.8" height="2.8"/>
		</g>
		<g>
			<rect x="35.467" y="52.267" fill="#B0E269" width="2.8" height="2.8"/>
			<rect x="41.067" y="52.267" fill="#B0E269" width="2.8" height="2.8"/>
		</g>
		<g>
			<rect x="35.467" y="57.867" fill="#B0E269" width="2.8" height="2.8"/>
			<rect x="41.067" y="57.867" fill="#B0E269" width="2.8" height="2.8"/>
		</g>
		<g>
			<rect x="35.467" y="63.467" fill="#B0E269" width="2.8" height="2.8"/>
			<rect x="41.067" y="63.467" fill="#B0E269" width="2.8" height="2.8"/>
		</g>
		<g>
			<rect x="35.467" y="69.067" fill="#B0E269" width="2.8" height="2.8"/>
			<rect x="41.067" y="69.067" fill="#B0E269" width="2.8" height="2.8"/>
		</g>
		<g>
			<rect x="35.467" y="75.6" fill="#B0E269" width="2.8" height="2.801"/>
			<rect x="41.067" y="75.6" fill="#B0E269" width="2.8" height="2.801"/>
		</g>
		<g>
			<rect x="35.467" y="81.2" fill="#B0E269" width="2.8" height="2.8"/>
			<rect x="41.067" y="81.2" fill="#B0E269" width="2.8" height="2.8"/>
		</g>
		<g>
			<rect x="35.467" y="86.8" fill="#B0E269" width="2.8" height="2.8"/>
			<rect x="41.067" y="86.8" fill="#B0E269" width="2.8" height="2.8"/>
		</g>
		<g>
			<rect x="35.467" y="92.4" fill="#B0E269" width="2.8" height="2.8"/>
			<rect x="41.067" y="92.4" fill="#B0E269" width="2.8" height="2.8"/>
		</g>
		<g>
			<rect x="35.467" y="98" fill="#B0E269" width="2.8" height="2.8"/>
			<rect x="41.067" y="98" fill="#B0E269" width="2.8" height="2.8"/>
		</g>
	</g>
	<g clip-path="url(#SVGID_2_)">
		<polygon fill="#28968C" points="51.333,102.667 42,102.667 42,84 32.667,84 32.667,70 14,70 14,84 0,84 0,126 14,126 32.667,126 
			42,126 51.333,126 60.666,126 60.666,70 51.333,70 		"/>
		<polygon fill="#28968C" points="126,88.667 126,93.333 116.666,93.333 116.666,98 93.332,98 93.332,88.667 70,88.667 70,74.666 
			60.667,74.666 60.667,126 70,126 93.332,126 116.666,126 126,126 140,126 140,88.667 		"/>
	</g>
	<rect x="18.25" y="120.5" clip-path="url(#SVGID_2_)" fill="#28968C" width="105" height="23.5"/>
	<g clip-path="url(#SVGID_2_)">
		<rect x="16.8" y="73.732" fill="#89D581" width="13.067" height="1.867"/>
		<rect x="16.8" y="83.066" fill="#89D581" width="13.067" height="1.867"/>
		<rect x="16.8" y="92.4" fill="#89D581" width="13.067" height="1.865"/>
		<rect x="16.8" y="101.732" fill="#89D581" width="13.067" height="1.867"/>
		<rect x="16.8" y="111.066" fill="#89D581" width="13.067" height="1.867"/>
		<rect x="16.8" y="120.4" fill="#89D581" width="13.067" height="1.865"/>
		<rect x="16.8" y="115.732" fill="#89D581" width="13.067" height="1.867"/>
		<rect x="16.8" y="106.4" fill="#89D581" width="13.067" height="1.865"/>
		<rect x="16.8" y="97.066" fill="#89D581" width="13.067" height="1.867"/>
		<rect x="16.8" y="87.732" fill="#89D581" width="13.067" height="1.867"/>
		<rect x="16.8" y="78.4" fill="#89D581" width="13.067" height="1.865"/>
	</g>
</g>
</svg>
