<?xml version="1.0" encoding="utf-8"?>
<!-- Generator: Adobe Illustrator 16.0.0, SVG Export Plug-In . SVG Version: 6.00 Build 0)  -->
<!DOCTYPE svg PUBLIC "-//W3C//DTD SVG 1.1//EN" "http://www.w3.org/Graphics/SVG/1.1/DTD/svg11.dtd">
<svg version="1.1" id="Layer_1" xmlns="http://www.w3.org/2000/svg" xmlns:xlink="http://www.w3.org/1999/xlink" x="0px" y="0px"
	 width="140px" height="140px" viewBox="0 0 140 140" enable-background="new 0 0 140 140" xml:space="preserve">
<g>
	<g>
		<rect x="42" y="14" fill="#B0E269" width="18.667" height="51.333"/>
		<rect x="84" y="28" fill="#B0E269" width="9.332" height="37.333"/>
		<rect x="93.332" y="32.667" fill="#B0E269" width="14" height="37.333"/>
		<rect x="112" y="60.667" fill="#B0E269" width="14" height="23.333"/>
		<rect x="126" y="65.333" fill="#B0E269" width="4.666" height="18.667"/>
		<rect x="70" y="37.333" fill="#B0E269" width="14" height="28"/>
	</g>
	<g>
		<rect x="46.667" y="60.667" fill="#89D581" width="32.666" height="65.333"/>
		<rect x="79.332" y="60.667" fill="#89D581" width="18.668" height="65.333"/>
		<rect x="98" y="51.333" fill="#89D581" width="14" height="74.667"/>
		<rect x="112" y="84" fill="#89D581" width="23.332" height="42"/>
		<rect x="116.666" y="74.666" fill="#89D581" width="14" height="9.334"/>
		<rect x="121.332" y="65.333" fill="#89D581" width="4.668" height="9.333"/>
		<rect x="32.667" y="32.667" fill="#89D581" width="14" height="93.333"/>
		<rect x="18.667" y="49.636" fill="#89D581" width="14" height="76.364"/>
		<rect x="51.333" y="46.667" fill="#89D581" width="27.999" height="14"/>
		<rect x="60.667" y="32.667" fill="#89D581" width="14" height="14"/>
		<rect x="65.333" y="23.333" fill="#89D581" width="4.667" height="9.333"/>
	</g>
	<g>
		<g>
			<rect x="35.467" y="35.467" fill="#B0E269" width="2.8" height="2.8"/>
			<rect x="41.067" y="35.467" fill="#B0E269" width="2.8" height="2.8"/>
		</g>
		<g>
			<rect x="35.467" y="41.067" fill="#B0E269" width="2.8" height="2.8"/>
			<rect x="41.067" y="41.067" fill="#B0E269" width="2.8" height="2.8"/>
		</g>
		<g>
			<rect x="35.467" y="46.667" fill="#B0E269" width="2.8" height="2.8"/>
			<rect x="41.067" y="46.667" fill="#B0E269" width="2.8" height="2.8"/>
		</g>
		<g>
			<rect x="35.467" y="52.267" fill="#B0E269" width="2.8" height="2.8"/>
			<rect x="41.067" y="52.267" fill="#B0E269" width="2.8" height="2.8"/>
		</g>
		<g>
			<rect x="35.467" y="57.867" fill="#B0E269" width="2.8" height="2.8"/>
			<rect x="41.067" y="57.867" fill="#B0E269" width="2.8" height="2.8"/>
		</g>
		<g>
			<rect x="35.467" y="63.467" fill="#B0E269" width="2.8" height="2.8"/>
			<rect x="41.067" y="63.467" fill="#B0E269" width="2.8" height="2.8"/>
		</g>
		<g>
			<rect x="35.467" y="69.067" fill="#B0E269" width="2.8" height="2.8"/>
			<rect x="41.067" y="69.067" fill="#B0E269" width="2.8" height="2.8"/>
		</g>
		<g>
			<rect x="35.467" y="75.6" fill="#B0E269" width="2.8" height="2.801"/>
			<rect x="41.067" y="75.6" fill="#B0E269" width="2.8" height="2.801"/>
		</g>
		<g>
			<rect x="35.467" y="81.2" fill="#B0E269" width="2.8" height="2.8"/>
			<rect x="41.067" y="81.2" fill="#B0E269" width="2.8" height="2.8"/>
		</g>
		<g>
			<rect x="35.467" y="86.8" fill="#B0E269" width="2.8" height="2.8"/>
			<rect x="41.067" y="86.8" fill="#B0E269" width="2.8" height="2.8"/>
		</g>
		<g>
			<rect x="35.467" y="92.4" fill="#B0E269" width="2.8" height="2.8"/>
			<rect x="41.067" y="92.4" fill="#B0E269" width="2.8" height="2.8"/>
		</g>
		<g>
			<rect x="35.467" y="98" fill="#B0E269" width="2.8" height="2.8"/>
			<rect x="41.067" y="98" fill="#B0E269" width="2.8" height="2.8"/>
		</g>
	</g>
	<g>
		<rect x="14" y="70" fill="#3BBDB1" width="18.667" height="56"/>
		<rect x="32.667" y="84" fill="#3BBDB1" width="9.333" height="42"/>
		<rect y="84" fill="#3BBDB1" width="14" height="42"/>
		<rect x="42" y="102.667" fill="#3BBDB1" width="9.333" height="23.333"/>
		<rect x="51.333" y="70" fill="#3BBDB1" width="9.333" height="56"/>
		<rect x="60.667" y="74.666" fill="#3BBDB1" width="9.333" height="51.334"/>
		<rect x="70" y="88.667" fill="#3BBDB1" width="23.332" height="37.333"/>
		<rect x="93.332" y="98" fill="#3BBDB1" width="23.334" height="28"/>
		<rect x="116.666" y="93.333" fill="#3BBDB1" width="9.334" height="32.667"/>
		<rect x="126" y="88.667" fill="#3BBDB1" width="14" height="37.333"/>
	</g>
	<g>
		<rect x="16.8" y="73.733" fill="#89D581" width="13.067" height="1.866"/>
		<rect x="16.8" y="83.066" fill="#89D581" width="13.067" height="1.867"/>
		<rect x="16.8" y="92.4" fill="#89D581" width="13.067" height="1.866"/>
		<rect x="16.8" y="101.733" fill="#89D581" width="13.067" height="1.866"/>
		<rect x="16.8" y="111.066" fill="#89D581" width="13.067" height="1.867"/>
		<rect x="16.8" y="120.4" fill="#89D581" width="13.067" height="1.866"/>
		<rect x="16.8" y="115.733" fill="#89D581" width="13.067" height="1.866"/>
		<rect x="16.8" y="106.4" fill="#89D581" width="13.067" height="1.866"/>
		<rect x="16.8" y="97.066" fill="#89D581" width="13.067" height="1.867"/>
		<rect x="16.8" y="87.733" fill="#89D581" width="13.067" height="1.866"/>
		<rect x="16.8" y="78.4" fill="#89D581" width="13.067" height="1.866"/>
	</g>
</g>
</svg>
