<?xml version="1.0" encoding="utf-8"?>
<!-- Generator: Adobe Illustrator 16.0.0, SVG Export Plug-In . SVG Version: 6.00 Build 0)  -->
<!DOCTYPE svg PUBLIC "-//W3C//DTD SVG 1.1//EN" "http://www.w3.org/Graphics/SVG/1.1/DTD/svg11.dtd">
<svg version="1.1" id="Layer_1" xmlns="http://www.w3.org/2000/svg" xmlns:xlink="http://www.w3.org/1999/xlink" x="0px" y="0px"
	 width="140px" height="140px" viewBox="0 0 140 140" enable-background="new 0 0 140 140" xml:space="preserve">
<g>
	<circle fill="#DA1036" cx="70" cy="70" r="70"/>
	<linearGradient id="SVGID_1_" gradientUnits="userSpaceOnUse" x1="70" y1="9.5" x2="70" y2="130.5005">
		<stop  offset="0" style="stop-color:#000000;stop-opacity:0"/>
		<stop  offset="1" style="stop-color:#000000;stop-opacity:0.15"/>
	</linearGradient>
	<circle fill="url(#SVGID_1_)" cx="70" cy="70" r="60.5"/>
	<circle fill="#FEFA39" cx="70" cy="70" r="52.26"/>
	<circle opacity="0.15" fill="#231F20" cx="70" cy="70" r="45"/>
	<circle fill="#FFFFFF" cx="70" cy="70" r="42"/>
	<g>
		<path fill="#DA1036" d="M91.754,93.496c-0.512,0-1.023-0.195-1.414-0.586L69.865,72.438L47.909,83.535
			c-0.987,0.498-2.19,0.103-2.688-0.883c-0.498-0.986-0.103-2.189,0.883-2.688l24.542-12.403l22.522,22.521
			c0.781,0.781,0.781,2.047,0,2.828C92.777,93.301,92.266,93.496,91.754,93.496z"/>
	</g>
	<path opacity="0.15" fill="#231F20" d="M47.909,83.535l21.957-11.097L90.34,92.91c0.391,0.391,0.902,0.586,1.414,0.586
		s1.023-0.195,1.414-0.586l-1.416-1.414h0.002l-10.75-10.748l-1.705-1.705L70.255,70l-10.019,5.063l-15.016,7.588
		c0,0,0,0.001,0,0.001C45.719,83.638,46.921,84.033,47.909,83.535z"/>
	<circle fill="#FEFA39" cx="70" cy="70" r="5"/>
	<circle opacity="0.15" fill="#231F20" cx="70" cy="70.129" r="2.621"/>
	<g>
		<circle opacity="0.15" fill="#231F20" cx="70" cy="34.5" r="1.5"/>
		<circle opacity="0.15" fill="#231F20" cx="70" cy="105.5" r="1.5"/>
	</g>
	<g>
		<circle opacity="0.15" fill="#231F20" cx="52.25" cy="39.256" r="1.5"/>
		<circle opacity="0.15" fill="#231F20" cx="87.75" cy="100.744" r="1.5"/>
	</g>
	<g>
		<circle opacity="0.15" fill="#231F20" cx="39.256" cy="52.25" r="1.5"/>
		<circle opacity="0.15" fill="#231F20" cx="100.744" cy="87.75" r="1.5"/>
	</g>
	<g>
		<circle opacity="0.15" fill="#231F20" cx="87.75" cy="39.256" r="1.5"/>
		<circle opacity="0.15" fill="#231F20" cx="52.25" cy="100.744" r="1.5"/>
	</g>
	<g>
		<circle opacity="0.15" fill="#231F20" cx="100.744" cy="52.25" r="1.5"/>
		<circle opacity="0.15" fill="#231F20" cx="39.256" cy="87.75" r="1.5"/>
	</g>
	<g>
		<circle opacity="0.15" fill="#231F20" cx="105.5" cy="70" r="1.5"/>
		<circle opacity="0.15" fill="#231F20" cx="34.5" cy="70" r="1.5"/>
	</g>
</g>
</svg>
