<?xml version="1.0" encoding="utf-8"?>
<!-- Generator: Adobe Illustrator 16.0.0, SVG Export Plug-In . SVG Version: 6.00 Build 0)  -->
<!DOCTYPE svg PUBLIC "-//W3C//DTD SVG 1.1//EN" "http://www.w3.org/Graphics/SVG/1.1/DTD/svg11.dtd">
<svg version="1.1" id="Layer_1" xmlns="http://www.w3.org/2000/svg" xmlns:xlink="http://www.w3.org/1999/xlink" x="0px" y="0px"
	 width="140px" height="140px" viewBox="0 0 140 140" enable-background="new 0 0 140 140" xml:space="preserve">
<circle fill="#DA1036" cx="70" cy="70" r="70"/>
<g opacity="0.5">
	
		<linearGradient id="SVGID_1_" gradientUnits="userSpaceOnUse" x1="-2649.6152" y1="1704.1855" x2="-2649.6152" y2="1719.9902" gradientTransform="matrix(1 0 0.979 0.4132 999.3247 -598.9834)">
		<stop  offset="0" style="stop-color:#000000;stop-opacity:0"/>
		<stop  offset="1" style="stop-color:#000000"/>
	</linearGradient>
	<polygon fill="url(#SVGID_1_)" points="38.014,111.754 29.014,111.754 13.541,105.223 22.541,105.223 	"/>
	
		<linearGradient id="SVGID_2_" gradientUnits="userSpaceOnUse" x1="-2576.6411" y1="1636.4824" x2="-2576.6411" y2="1719.9902" gradientTransform="matrix(1 0 0.979 0.4132 999.3247 -598.9834)">
		<stop  offset="0" style="stop-color:#000000;stop-opacity:0"/>
		<stop  offset="1" style="stop-color:#000000"/>
	</linearGradient>
	<polygon fill="url(#SVGID_2_)" points="110.986,111.754 101.986,111.754 20.236,77.246 29.236,77.246 	"/>
	
		<linearGradient id="SVGID_3_" gradientUnits="userSpaceOnUse" x1="-2605.832" y1="1688.3789" x2="-2605.832" y2="1719.9902" gradientTransform="matrix(1 0 0.979 0.4132 999.3247 -598.9834)">
		<stop  offset="0" style="stop-color:#000000;stop-opacity:0"/>
		<stop  offset="1" style="stop-color:#000000"/>
	</linearGradient>
	<polygon fill="url(#SVGID_3_)" points="81.797,111.754 72.797,111.754 41.85,98.691 50.85,98.691 	"/>
	
		<linearGradient id="SVGID_4_" gradientUnits="userSpaceOnUse" x1="-2620.4258" y1="1695.0449" x2="-2620.4258" y2="1719.9902" gradientTransform="matrix(1 0 0.979 0.4132 999.3247 -598.9834)">
		<stop  offset="0" style="stop-color:#000000;stop-opacity:0"/>
		<stop  offset="1" style="stop-color:#000000"/>
	</linearGradient>
	<polygon fill="url(#SVGID_4_)" points="67.202,111.754 58.202,111.754 33.781,101.445 42.781,101.445 	"/>
	
		<linearGradient id="SVGID_5_" gradientUnits="userSpaceOnUse" x1="-2635.0195" y1="1699.3555" x2="-2635.0195" y2="1719.9902" gradientTransform="matrix(1 0 0.979 0.4132 999.3247 -598.9834)">
		<stop  offset="0" style="stop-color:#000000;stop-opacity:0"/>
		<stop  offset="1" style="stop-color:#000000"/>
	</linearGradient>
	<polygon fill="url(#SVGID_5_)" points="52.608,111.754 43.608,111.754 23.408,103.227 32.408,103.227 	"/>
	
		<linearGradient id="SVGID_6_" gradientUnits="userSpaceOnUse" x1="-2591.2373" y1="1667.9844" x2="-2591.2373" y2="1719.9902" gradientTransform="matrix(1 0 0.979 0.4132 999.3247 -598.9834)">
		<stop  offset="0" style="stop-color:#000000;stop-opacity:0"/>
		<stop  offset="1" style="stop-color:#000000"/>
	</linearGradient>
	<polygon fill="url(#SVGID_6_)" points="96.392,111.754 87.392,111.754 36.479,90.264 45.479,90.264 	"/>
</g>
<g>
	<rect x="29.014" y="95.947" fill="#FFFFFF" width="9" height="15.807"/>
	<rect x="101.986" y="28.247" fill="#FFFFFF" width="9" height="83.507"/>
	<rect x="72.797" y="77.246" fill="#FFFFFF" width="9" height="34.508"/>
	<rect x="58.202" y="86.809" fill="#FFFFFF" width="9" height="24.945"/>
	<rect x="43.608" y="91.119" fill="#FFFFFF" width="9" height="20.635"/>
	<rect x="87.392" y="59.747" fill="#FFFFFF" width="9" height="52.007"/>
</g>
</svg>
