<?xml version="1.0" encoding="utf-8"?>
<!-- Generator: Adobe Illustrator 16.0.0, SVG Export Plug-In . SVG Version: 6.00 Build 0)  -->
<!DOCTYPE svg PUBLIC "-//W3C//DTD SVG 1.1//EN" "http://www.w3.org/Graphics/SVG/1.1/DTD/svg11.dtd">
<svg version="1.1" id="Layer_1" xmlns="http://www.w3.org/2000/svg" xmlns:xlink="http://www.w3.org/1999/xlink" x="0px" y="0px"
	 width="140px" height="140px" viewBox="0 0 140 140" enable-background="new 0 0 140 140" xml:space="preserve">
<g>
	<circle fill="#FEFA39" cx="70" cy="70" r="70"/>
	<g>
		<path fill="#FFFFFF" d="M62.962,112.223c-1.985,0-3.61-1.625-3.61-3.611V31.388c0-1.985,1.625-3.61,3.61-3.61h49.644
			c1.985,0,3.61,1.625,3.61,3.61v77.223c0,1.986-1.625,3.611-3.61,3.611H62.962z"/>
	</g>
	<rect x="62.21" y="36.101" opacity="0.5" fill="#323232" width="51.148" height="67.797"/>
	<linearGradient id="SVGID_1_" gradientUnits="userSpaceOnUse" x1="87.7842" y1="102.8984" x2="87.7842" y2="37.1016">
		<stop  offset="0" style="stop-color:#3BBDB1"/>
		<stop  offset="1" style="stop-color:#DA1036"/>
	</linearGradient>
	<rect x="63.21" y="37.101" fill="url(#SVGID_1_)" width="49.148" height="65.797"/>
	<circle opacity="0.15" fill="#323232" cx="87.784" cy="31.94" r="0.702"/>
	<g opacity="0.15">
		<path fill="#323232" d="M87.784,106.904c0.638,0,1.156,0.519,1.156,1.156s-0.519,1.156-1.156,1.156s-1.156-0.519-1.156-1.156
			S87.146,106.904,87.784,106.904 M87.784,105.904c-1.191,0-2.156,0.965-2.156,2.156c0,1.189,0.965,2.156,2.156,2.156
			s2.156-0.967,2.156-2.156C89.94,106.869,88.976,105.904,87.784,105.904L87.784,105.904z"/>
	</g>
	<path fill="#FFFFFF" d="M54.352,107.52c0,2.586-2.116,4.703-4.703,4.703H28.486c-2.586,0-4.703-2.117-4.703-4.703V54.426
		c0-2.586,2.116-4.703,4.703-4.703h21.164c2.586,0,4.703,2.116,4.703,4.703V107.52z"/>
	<rect x="26.197" y="57.459" opacity="0.5" fill="#323232" width="25.742" height="47.029"/>
	<linearGradient id="SVGID_2_" gradientUnits="userSpaceOnUse" x1="39.0679" y1="103.4883" x2="39.0679" y2="58.4595">
		<stop  offset="0" style="stop-color:#3BBDB1"/>
		<stop  offset="1" style="stop-color:#DA1036"/>
	</linearGradient>
	<rect x="27.197" y="58.459" fill="url(#SVGID_2_)" width="23.742" height="45.029"/>
	<g opacity="0.15">
		<path fill="#323232" d="M39.067,107.189c0.643,0,1.166,0.523,1.166,1.166s-0.523,1.166-1.166,1.166
			c-0.643,0-1.166-0.523-1.166-1.166S38.425,107.189,39.067,107.189 M39.067,106.189c-1.196,0-2.166,0.969-2.166,2.166
			c0,1.195,0.97,2.166,2.166,2.166c1.197,0,2.166-0.971,2.166-2.166C41.233,107.158,40.264,106.189,39.067,106.189L39.067,106.189z"
			/>
	</g>
	<circle opacity="0.15" fill="#323232" cx="39.068" cy="51.704" r="0.619"/>
	<rect x="36.902" y="53.251" opacity="0.15" fill="#323232" width="4.332" height="0.557"/>
	<linearGradient id="SVGID_3_" gradientUnits="userSpaceOnUse" x1="87.7842" y1="77.4951" x2="87.7842" y2="37.1016">
		<stop  offset="0" style="stop-color:#FFFFFF"/>
		<stop  offset="1" style="stop-color:#FFFFFF;stop-opacity:0"/>
	</linearGradient>
	<polygon opacity="0.3" fill="url(#SVGID_3_)" points="63.21,37.101 63.21,77.495 112.358,63.5 112.358,37.101 	"/>
	<linearGradient id="SVGID_4_" gradientUnits="userSpaceOnUse" x1="39.0679" y1="87.75" x2="39.0679" y2="58.4595">
		<stop  offset="0" style="stop-color:#FFFFFF"/>
		<stop  offset="1" style="stop-color:#FFFFFF;stop-opacity:0"/>
	</linearGradient>
	<polygon opacity="0.3" fill="url(#SVGID_4_)" points="50.939,58.459 27.197,58.459 27.197,87.75 50.939,80.989 	"/>
</g>
</svg>
