<?xml version="1.0" encoding="utf-8"?>
<!-- Generator: Adobe Illustrator 16.0.0, SVG Export Plug-In . SVG Version: 6.00 Build 0)  -->
<!DOCTYPE svg PUBLIC "-//W3C//DTD SVG 1.1//EN" "http://www.w3.org/Graphics/SVG/1.1/DTD/svg11.dtd">
<svg version="1.1" id="Layer_1" xmlns="http://www.w3.org/2000/svg" xmlns:xlink="http://www.w3.org/1999/xlink" x="0px" y="0px"
	 width="140px" height="140px" viewBox="0 0 140 140" enable-background="new 0 0 140 140" xml:space="preserve">
<circle fill="#FEFA39" cx="70" cy="70" r="70"/>
<path opacity="0.15" fill="#DA1036" d="M0,70c0,38.66,31.34,70,70,70V0C31.34,0,0,31.34,0,70z"/>
<polygon fill="#FFFFFF" points="120,40 120,30 90,30 80,30 80,40 80,65 80,70 80,75 110,75 110,100 80,100 80,110 110,110 120,110 
	120,100 120,75 120,70 120,65 90,65 90,40 "/>
<polygon fill="#FFFFFF" points="50,30 50,100 30,100 30,90 20,90 20,100 20,110 30,110 50,110 60,110 60,100 60,30 "/>
</svg>
