<?xml version="1.0" encoding="utf-8"?>
<!-- Generator: Adobe Illustrator 16.0.0, SVG Export Plug-In . SVG Version: 6.00 Build 0)  -->
<!DOCTYPE svg PUBLIC "-//W3C//DTD SVG 1.1//EN" "http://www.w3.org/Graphics/SVG/1.1/DTD/svg11.dtd">
<svg version="1.1" id="Layer_1" xmlns="http://www.w3.org/2000/svg" xmlns:xlink="http://www.w3.org/1999/xlink" x="0px" y="0px"
	 width="140px" height="140px" viewBox="0 0 140 140" enable-background="new 0 0 140 140" xml:space="preserve">
<g>
	<circle fill="#3BBDB1" cx="70" cy="70" r="70"/>
	<radialGradient id="SVGID_1_" cx="70.5938" cy="83.2373" r="31.5484" gradientUnits="userSpaceOnUse">
		<stop  offset="0.4013" style="stop-color:#E97086"/>
		<stop  offset="0.9085" style="stop-color:#FFFFFF;stop-opacity:0.5"/>
	</radialGradient>
	<path fill="url(#SVGID_1_)" d="M72.896,90.257c0.051-0.015,0.101-0.032,0.15-0.049c0.041-0.013,0.082-0.026,0.122-0.04
		c0.021-0.007,0.04-0.014,0.061-0.021c27.811-8.709,34.87-20.2,34.87-20.2s-3.263-1.257-9.916-1.496
		c3.607-5.078,4.349-8.223,4.349-8.223s-3.618-0.342-10.224,1.283c1.828-5.984,1.472-9.27,1.472-9.27s-3.708,0.699-9.661,4.236
		c-0.303-6.453-1.836-9.596-1.836-9.596s-3.214,1.688-7.574,6.636c-2.462-5.929-4.943-8.436-4.943-8.436l-0.004,0.005
		c-0.001-0.001-0.004-0.005-0.004-0.005s-2.482,2.507-4.943,8.436c-4.36-4.948-7.574-6.636-7.574-6.636s-1.533,3.143-1.836,9.595
		c-5.953-3.536-9.661-4.235-9.661-4.235s-0.356,3.285,1.472,9.27c-6.605-1.625-10.224-1.283-10.224-1.283s0.741,3.145,4.349,8.223
		c-6.653,0.239-9.916,1.496-9.916,1.496s7.061,11.492,34.873,20.201c0.019,0.007,0.037,0.013,0.055,0.019
		c0.041,0.014,0.08,0.027,0.121,0.04c0.075,0.024,0.15,0.047,0.226,0.069c0.014,0.004,0.026,0.01,0.04,0.014
		c0.007,0.002,0.014,0.003,0.021,0.005c0.084,0.025,0.168,0.046,0.253,0.068c0.038,0.01,0.075,0.021,0.112,0.03
		c0.046,0.012,0.09,0.024,0.136,0.035c0.038,0.009,0.076,0.018,0.114,0.026c0.054,0.012,0.106,0.026,0.16,0.037
		c0.034,0.008,0.069,0.012,0.104,0.019c0.028,0.006,0.058,0.014,0.087,0.02c0.061,0.012,0.123,0.021,0.184,0.031
		c0.047,0.009,0.094,0.017,0.141,0.024s0.094,0.016,0.142,0.023c0.033,0.004,0.066,0.009,0.099,0.014
		c0.008,0,0.015,0.001,0.021,0.002c0.047,0.006,0.095,0.015,0.142,0.021c0.021,0.003,0.04,0.005,0.062,0.007
		c0.025,0.003,0.051,0.004,0.076,0.007c0.043,0.005,0.086,0.011,0.13,0.015c0.038,0.004,0.075,0.006,0.113,0.009
		c0.055,0.005,0.108,0.01,0.162,0.014c0.046,0.003,0.091,0.007,0.136,0.01c0.027,0.001,0.054,0.003,0.081,0.004
		c0.021,0.001,0.041,0.001,0.062,0.001c0.035,0.002,0.07,0.006,0.105,0.007c0.023,0.001,0.047,0.002,0.069,0.003
		c0.038,0,0.076,0,0.114,0.001c0.053,0.001,0.104,0.001,0.157,0.001c0.012,0,0.023,0.002,0.036,0.002c0.001,0,0.002,0,0.004,0
		c0.001,0,0.002,0,0.004,0c0.012,0,0.023-0.002,0.036-0.002c0.052,0,0.104,0,0.157-0.001c0.038-0.001,0.076-0.001,0.113-0.001
		c0.023-0.001,0.047-0.002,0.069-0.003c0.035-0.001,0.07-0.005,0.105-0.007c0.021,0,0.041,0,0.062-0.001
		c0.027-0.001,0.055-0.003,0.082-0.004c0.045-0.003,0.09-0.007,0.135-0.01c0.055-0.004,0.108-0.009,0.162-0.014
		c0.038-0.003,0.076-0.005,0.113-0.009c0.044-0.004,0.088-0.01,0.131-0.015c0.025-0.003,0.051-0.004,0.076-0.007
		c0.021-0.002,0.041-0.004,0.061-0.007c0.047-0.006,0.094-0.015,0.141-0.021c0.008-0.001,0.015-0.002,0.021-0.002
		c0.033-0.005,0.066-0.009,0.1-0.014c0.047-0.008,0.095-0.016,0.143-0.023c0.047-0.008,0.094-0.017,0.14-0.024
		c0.062-0.011,0.123-0.02,0.184-0.031c0.029-0.006,0.06-0.014,0.089-0.02c0.035-0.007,0.07-0.011,0.104-0.019
		c0.053-0.011,0.104-0.024,0.157-0.037c0.037-0.008,0.076-0.017,0.114-0.025c0.046-0.012,0.092-0.024,0.138-0.036
		c0.037-0.01,0.074-0.021,0.112-0.03c0.083-0.021,0.168-0.043,0.251-0.067c0.008-0.002,0.016-0.003,0.023-0.006
		c0.016-0.005,0.029-0.011,0.044-0.015c0.017-0.006,0.034-0.009,0.051-0.014C72.884,90.26,72.89,90.259,72.896,90.257z"/>
	<g>
		<g>
			<path fill="#CCCCCC" d="M26.523,50.584c0,0,4.157,29.166,42.997,38.833V79.084C69.521,79.084,38.758,75.417,26.523,50.584z"/>
			<path fill="#DDDDDD" d="M69.88,91.394c0,0-32.072,3.405-50.958-19.994c0,0,29.433,17.567,49.369,9.209L69.88,91.394z"/>
			<path fill="#EEEEEE" d="M45.646,46.083c0,0-2.312,33.704,24.233,45.311L69.875,80.25C69.875,80.25,54.911,69.416,45.646,46.083z"
				/>
		</g>
		<g>
			<path fill="#CCCCCC" d="M112.997,50.584c0,0-4.157,29.166-42.997,38.833V79.084C70,79.084,100.763,75.417,112.997,50.584z"/>
			<path fill="#DDDDDD" d="M69.641,91.394c0,0,32.073,3.405,50.958-19.994c0,0-29.432,17.567-49.369,9.209L69.641,91.394z"/>
			<path fill="#EEEEEE" d="M93.874,46.083c0,0,2.312,33.704-24.233,45.311l0.005-11.144C69.646,80.25,84.609,69.416,93.874,46.083z"
				/>
		</g>
	</g>
	<g>
		<ellipse fill="#FFFFFF" cx="69.761" cy="81.27" rx="7.215" ry="10.124"/>
		<path fill="#FFFFFF" d="M69.761,39.274c0,0-7.215,11.249-7.215,41.995h7.215V39.274z"/>
		<path fill="#FFFFFF" d="M69.761,39.274c0,0,7.215,11.249,7.215,41.995h-7.215V39.274z"/>
	</g>
</g>
</svg>
