<?xml version="1.0" encoding="utf-8"?>
<!-- Generator: Adobe Illustrator 16.0.0, SVG Export Plug-In . SVG Version: 6.00 Build 0)  -->
<!DOCTYPE svg PUBLIC "-//W3C//DTD SVG 1.1//EN" "http://www.w3.org/Graphics/SVG/1.1/DTD/svg11.dtd">
<svg version="1.1" id="Layer_1" xmlns="http://www.w3.org/2000/svg" xmlns:xlink="http://www.w3.org/1999/xlink" x="0px" y="0px"
	 width="140px" height="140px" viewBox="0 0 140 140" enable-background="new 0 0 140 140" xml:space="preserve">
<g>
	<circle fill="#FEFA39" cx="70" cy="70" r="70"/>
	
		<radialGradient id="SVGID_1_" cx="34.7715" cy="77.7461" r="75.2726" gradientTransform="matrix(0.999 0.0444 -0.0444 0.999 37.7412 10.1307)" gradientUnits="userSpaceOnUse">
		<stop  offset="0" style="stop-color:#3BBDB1"/>
		<stop  offset="1" style="stop-color:#9CDB75"/>
	</radialGradient>
	<path fill="url(#SVGID_1_)" d="M71.717,43.835c0,0-6.666,4.533-8.705,12.038c-0.328-0.912-0.66-1.804-1.002-2.68
		c0.021-3.011,0.811-12.413,9.297-19.771c0,0-9.728,6.542-10.598,16.588c-0.449-1.045-0.904-2.061-1.369-3.047
		c0.264-5.054,1.313-16.686,5.468-24.411c0,0-5.975,8.2-6.702,21.877c-0.224-0.442-0.445-0.894-0.67-1.322
		c-0.997-5.288-2.957-16.314-3.453-23.778c0,0-0.974,10.314,1.513,20.281c-7.54-12.996-15.313-19.23-15.313-19.23
		c5.419,6.016,9.721,12.279,13.149,18.502c-9.381-8.505-20.05-8.131-20.05-8.131c13.805,1.699,21.75,11.702,22.24,12.334
		c0.473,0.963,0.926,1.924,1.359,2.882c-11.125-9.436-27.377-5.911-27.377-5.911c19.246-1.495,28.733,9.199,28.871,9.356
		c0.158,0.382,0.307,0.762,0.457,1.143c-10.46-6.412-23.086-5.11-23.086-5.11c17.568,0.78,24.252,8.445,24.416,8.636
		c0.252,0.708,0.492,1.41,0.725,2.109c-8.783-5.149-20.824-4.072-20.824-4.072c13.162-0.096,20.376,5.413,21.572,6.407
		c0.1,0.324,0.201,0.648,0.297,0.971c-4.045-2.263-11.695-0.693-11.695-0.693c6.72-0.403,10.422,1.301,12.254,2.636
		c5.105,18.407,3.842,32.565,3.842,32.565l3.15,0.141c-0.068-13.928-2.33-25.77-5.563-35.634
		C64.35,55.534,65.926,49.5,71.717,43.835z"/>
	<g>
		
			<radialGradient id="SVGID_2_" cx="34.8384" cy="78.4189" r="77.0572" gradientTransform="matrix(0.999 0.0444 -0.0444 0.999 37.7412 10.1307)" gradientUnits="userSpaceOnUse">
			<stop  offset="0" style="stop-color:#3BBDB1"/>
			<stop  offset="1" style="stop-color:#9CDB75"/>
		</radialGradient>
		<path fill="url(#SVGID_2_)" d="M43.076,68.456c-0.834,0.061-2.25,0.412-3.99,1.118c-7.352,0.038-13.133,2.733-13.133,2.733
			c4.396-1.317,7.615-1.331,9.687-1.051c-0.647,0.367-1.312,0.777-1.985,1.229C28.078,73.778,16,77.528,11.066,86.437
			c1.055-1.6,5.023-5.976,18.777-10.969c-5.615,5.08-10.917,13.325-11.545,26.042c0,0,2.814-18.448,17.518-26.771
			c0,0-9.648,9.545-7.814,27.201c0,0-0.258-19.457,14.729-28.514c0,0-5.004,6.01-2.406,23.326c0,0-1.873-16.785,6.76-23.133
			c0,0-2.119,11.249,3.117,22.45c0,0-4.117-16.762,0.496-22.415c0,0,10.768,7.377,16.297,20.377l3.033-0.945
			C70.027,93.087,54.295,68.456,43.076,68.456z"/>
		
			<radialGradient id="SVGID_3_" cx="34.5762" cy="78.4189" r="76.7101" gradientTransform="matrix(0.999 0.0444 -0.0444 0.999 37.7412 10.1307)" gradientUnits="userSpaceOnUse">
			<stop  offset="0" style="stop-color:#3BBDB1"/>
			<stop  offset="1" style="stop-color:#9CDB75"/>
		</radialGradient>
		<path fill="url(#SVGID_3_)" d="M11.066,86.437c-0.275,0.419-0.354,0.649-0.354,0.649C10.822,86.864,10.947,86.652,11.066,86.437z"
			/>
	</g>
	
		<radialGradient id="SVGID_4_" cx="35.3374" cy="80.167" r="90.0259" gradientTransform="matrix(0.999 0.0444 -0.0444 0.999 37.7412 10.1307)" gradientUnits="userSpaceOnUse">
		<stop  offset="0" style="stop-color:#3BBDB1"/>
		<stop  offset="1" style="stop-color:#9CDB75"/>
	</radialGradient>
	<path fill="url(#SVGID_4_)" d="M95.32,34.377c0,0-12.92,4.78-19.709,13.661c0.35-1.322,0.719-2.652,1.111-3.988
		c0.092-0.158,6.02-10.359,19.857-21.166c0,0-14.144,9.639-17.869,14.937c3.221-9.324,7.609-18.725,13.596-27.259
		c0,0-8.789,10.525-15.969,28.959c-1.441-11.659,3.335-23.289,3.335-23.289c-6.468,9.666-5.589,25.605-5.341,28.781
		c-0.117,0.346-0.23,0.702-0.346,1.051c-4.686-11.222-4.252-18.058-4.252-18.058c-0.811,7.511,2.27,17.997,3.269,21.146
		c-0.271,0.893-0.539,1.795-0.798,2.714c-5.453-5.89-6.263-15.552-6.263-15.552c-0.333,9.744,3.853,16.057,5.554,18.206
		c-0.199,0.766-0.393,1.539-0.582,2.322c-5.418-3.682-8.227-11.778-8.227-11.778c2.016,7.81,6.028,12.652,7.627,14.346
		c-2.252,10.238-3.547,21.858-2.988,34.639l2.654,0.117c0,0-0.52-12.847,2.241-30.034c1.933-1.966,6.743-5.479,16.813-6.099
		c0,0-9.985-0.974-16.307,3.109c0.068-0.385,0.139-0.773,0.211-1.162c2.467-2.74,8.125-7.403,19.848-10.632
		c0,0-12.066,0.847-18.172,6.565c2.725-3.254,8.826-9.524,18.504-14.044c0,0-12.244,3.792-18.893,11.829
		c0.119-0.526,0.239-1.055,0.365-1.586C76.58,49.345,84.062,39.707,95.32,34.377z M76.742,43.98
		c0.596-2.021,1.242-4.055,1.945-6.092L76.742,43.98z"/>
	<g>
		
			<radialGradient id="SVGID_5_" cx="33.3394" cy="78.667" r="75.5587" gradientTransform="matrix(0.999 0.0444 -0.0444 0.999 37.7412 10.1307)" gradientUnits="userSpaceOnUse">
			<stop  offset="0" style="stop-color:#3BBDB1"/>
			<stop  offset="1" style="stop-color:#9CDB75"/>
		</radialGradient>
		<path fill="url(#SVGID_5_)" d="M70.076,92.008C67.402,78.356,62.816,68.8,57.439,62.14l0.003,0.003
			C53.807,51.386,42.68,46.499,42.68,46.499c6.061,3.641,8.9,8.229,10.073,10.704c-1.841-1.647-3.73-3.03-5.634-4.188l-0.008-0.01
			L47.096,53c-14.219-8.631-29.094-4.701-29.094-4.701c8.426-0.921,15.409,0.131,21.199,2.435
			c-0.66-0.184-21.262-5.775-27.945,10.969c0.562-1.256,7.072-14.521,29.361-8.063c0,0-16.797-3.489-20.857,12.161
			c0,0,5.482-17.568,28.494-7.745c-5.652-0.58-14.761,0.349-17.198,11.612c0,0,4.044-14.421,21.711-8.078
			c-3.021,0.517-7.749,2.339-7.777,8.697c0,0,1.001-8.495,10.988-6.152c9.44,13.042,10.882,29.227,10.882,29.227L70.076,92.008z"/>
		
			<radialGradient id="SVGID_6_" cx="32.644" cy="78.5488" r="74.7435" gradientTransform="matrix(0.999 0.0444 -0.0444 0.999 37.7412 10.1307)" gradientUnits="userSpaceOnUse">
			<stop  offset="0" style="stop-color:#3BBDB1"/>
			<stop  offset="1" style="stop-color:#9CDB75"/>
		</radialGradient>
		<path fill="url(#SVGID_6_)" d="M11.256,61.702c-0.026,0.062-0.045,0.104-0.045,0.104C11.227,61.77,11.242,61.738,11.256,61.702z"
			/>
	</g>
	<g>
		
			<radialGradient id="SVGID_7_" cx="35.3403" cy="79.1621" r="81.3537" gradientTransform="matrix(0.999 0.0444 -0.0444 0.999 37.7412 10.1307)" gradientUnits="userSpaceOnUse">
			<stop  offset="0" style="stop-color:#3BBDB1"/>
			<stop  offset="1" style="stop-color:#9CDB75"/>
		</radialGradient>
		<path fill="url(#SVGID_7_)" d="M133.779,91.01c0.288,0.319,0.576,0.628,0.867,0.957C134.646,91.967,134.346,91.611,133.779,91.01z
			"/>
		
			<radialGradient id="SVGID_8_" cx="35.3389" cy="79.1641" r="81.355" gradientTransform="matrix(0.999 0.0444 -0.0444 0.999 37.7412 10.1307)" gradientUnits="userSpaceOnUse">
			<stop  offset="0" style="stop-color:#3BBDB1"/>
			<stop  offset="1" style="stop-color:#9CDB75"/>
		</radialGradient>
		<path fill="url(#SVGID_8_)" d="M131.504,103.794c-3.144-12.13-11.564-20.945-15.468-24.513c-0.229-0.425-0.466-0.832-0.704-1.225
			c9.311,3.843,16.127,10.488,18.447,12.953c-6.844-7.546-13.457-12.198-19.685-14.775c-0.003-0.005-0.007-0.009-0.011-0.015
			l-0.072-0.02C87.371,65.252,67.825,92.179,67.825,92.179l1.481,3.119l1.754-2.975c9.466-11.514,18.985-16.131,27.673-16.967
			c2.282,0.805,4.673,3.521,6.87,6.836c0.947,3.858,1.578,9.278,0.828,16.375c0,0,0.945-7.153,0.838-13.695
			c3.85,6.566,6.75,14.031,6.75,14.031c-1.572-7.448-4.383-13.163-6.895-17.124c-0.191-2.356-0.588-4.435-1.299-5.803
			c8.15,5.866,14.283,24.941,14.283,24.941c-3.799-19.018-12.115-25.046-12.199-25.106c0.601,0.114,1.193,0.244,1.781,0.389
			c0.91,0.465,1.812,1.037,2.701,1.679c3.008,4.215,8.506,13.013,10.854,23.802c0,0-2.051-10.744-5.604-19.043
			C125.58,91.248,131.504,103.794,131.504,103.794z M101.99,75.215c0.299,0.003,0.598,0.01,0.895,0.021
			c0.252,0.408,0.667,1.151,1.135,2.217C102.814,75.986,102.008,75.231,101.99,75.215z"/>
	</g>
	<g>
		
			<radialGradient id="SVGID_9_" cx="36.2285" cy="77.1201" r="64.8307" gradientTransform="matrix(0.999 0.0444 -0.0444 0.999 37.7412 10.1307)" gradientUnits="userSpaceOnUse">
			<stop  offset="0" style="stop-color:#3BBDB1"/>
			<stop  offset="1" style="stop-color:#9CDB75"/>
		</radialGradient>
		<path fill="url(#SVGID_9_)" d="M113.213,40.948c0.062-0.014,0.121-0.029,0.184-0.045
			C113.396,40.903,113.322,40.922,113.213,40.948z"/>
		
			<radialGradient id="SVGID_10_" cx="36.3394" cy="76.667" r="64.4028" gradientTransform="matrix(0.999 0.0444 -0.0444 0.999 37.7412 10.1307)" gradientUnits="userSpaceOnUse">
			<stop  offset="0" style="stop-color:#3BBDB1"/>
			<stop  offset="1" style="stop-color:#9CDB75"/>
		</radialGradient>
		<path fill="url(#SVGID_10_)" d="M87.447,55.962c0.392-0.383,0.783-0.758,1.176-1.122c11.572-7.054,25.846-8.145,25.846-8.145
			c-9.146-0.233-17.166,2.551-21.23,4.283c9.596-7.251,18.653-9.7,19.975-10.03c-11.359,2.647-19.961,7.658-26.463,13.521
			c4.975-10.612,11.551-14.236,11.551-14.236C87.965,45.29,84.412,54.677,83.527,57.617c-0.668,0.704-1.31,1.417-1.926,2.136
			c0.012-1.754,0.234-6.351,2.098-10.689c0,0-3.594,5.098-3.701,12.648C69.061,75.644,67.138,90.81,67.138,90.81l2.595,1.454
			c1.732-12.251,6.049-21.686,11.326-28.927c4.459-0.801,12.086,0.391,12.086,0.391c-3.047-1.573-7.89-2.005-9.865-2.117
			c9.824-4.846,20.112-1.258,20.112-1.258c-7.493-3.479-16.047-1.607-19.497-0.599c0.322-0.376,0.646-0.744,0.971-1.106
			c11.774-6.648,26.99-3.606,26.99-3.606C98.535,50.938,88.119,55.647,87.447,55.962z"/>
	</g>
	<g opacity="0.2">
		<path fill="#231F20" d="M43.076,68.456c-0.834,0.061-2.25,0.412-3.99,1.118c-7.352,0.038-13.133,2.733-13.133,2.733
			c4.396-1.317,7.615-1.331,9.687-1.051c-0.647,0.367-1.312,0.777-1.985,1.229C28.078,73.778,16,77.528,11.066,86.437
			c1.055-1.6,5.023-5.976,18.777-10.969c-5.615,5.08-10.917,13.325-11.545,26.042c0,0,2.814-18.448,17.518-26.771
			c0,0-9.648,9.545-7.814,27.201c0,0-0.258-19.457,14.729-28.514c0,0-5.004,6.01-2.406,23.326c0,0-1.873-16.785,6.76-23.133
			c0,0-2.119,11.249,3.117,22.45c0,0-4.117-16.762,0.496-22.415c0,0,10.768,7.377,16.297,20.377l3.033-0.945
			C70.027,93.087,54.295,68.456,43.076,68.456z"/>
		<path fill="#231F20" d="M11.066,86.437c-0.275,0.419-0.354,0.649-0.354,0.649C10.822,86.864,10.947,86.652,11.066,86.437z"/>
	</g>
	<g opacity="0.1">
		<path fill="#231F20" d="M70.076,92.008C67.402,78.356,62.816,68.8,57.439,62.14l0.003,0.003
			C53.807,51.386,42.68,46.499,42.68,46.499c6.061,3.641,8.9,8.229,10.073,10.704c-1.841-1.647-3.73-3.03-5.634-4.188l-0.008-0.01
			L47.096,53c-14.219-8.631-29.094-4.701-29.094-4.701c8.426-0.921,15.409,0.131,21.199,2.435
			c-0.66-0.184-21.262-5.775-27.945,10.969c0.562-1.256,7.072-14.521,29.361-8.063c0,0-16.797-3.489-20.857,12.161
			c0,0,5.482-17.568,28.494-7.745c-5.652-0.58-14.761,0.349-17.198,11.612c0,0,4.044-14.421,21.711-8.078
			c-3.021,0.517-7.749,2.339-7.777,8.697c0,0,1.001-8.495,10.988-6.152c9.44,13.042,10.882,29.227,10.882,29.227L70.076,92.008z"/>
		<path fill="#231F20" d="M11.256,61.702c-0.026,0.062-0.045,0.104-0.045,0.104C11.227,61.77,11.242,61.738,11.256,61.702z"/>
	</g>
	<g opacity="0.2">
		<path fill="#231F20" d="M133.779,91.01c0.288,0.319,0.576,0.628,0.867,0.957C134.646,91.967,134.346,91.611,133.779,91.01z"/>
		<path fill="#231F20" d="M131.504,103.794c-3.144-12.13-11.564-20.945-15.468-24.513c-0.229-0.425-0.466-0.832-0.704-1.225
			c9.311,3.843,16.127,10.488,18.447,12.953c-6.844-7.546-13.457-12.198-19.685-14.775c-0.003-0.005-0.007-0.009-0.011-0.015
			l-0.072-0.02C87.371,65.252,67.825,92.179,67.825,92.179l1.481,3.119l1.754-2.975c9.466-11.514,18.985-16.131,27.673-16.967
			c2.282,0.805,4.673,3.521,6.87,6.836c0.947,3.858,1.578,9.278,0.828,16.375c0,0,0.945-7.153,0.838-13.695
			c3.85,6.566,6.75,14.031,6.75,14.031c-1.572-7.448-4.383-13.163-6.895-17.124c-0.191-2.356-0.588-4.435-1.299-5.803
			c8.15,5.866,14.283,24.941,14.283,24.941c-3.799-19.018-12.115-25.046-12.199-25.106c0.601,0.114,1.193,0.244,1.781,0.389
			c0.91,0.465,1.812,1.037,2.701,1.679c3.008,4.215,8.506,13.013,10.854,23.802c0,0-2.051-10.744-5.604-19.043
			C125.58,91.248,131.504,103.794,131.504,103.794z M101.99,75.215c0.299,0.003,0.598,0.01,0.895,0.021
			c0.252,0.408,0.667,1.151,1.135,2.217C102.814,75.986,102.008,75.231,101.99,75.215z"/>
	</g>
	<g opacity="0.1">
		<path fill="#231F20" d="M113.213,40.948c0.062-0.014,0.121-0.029,0.184-0.045C113.396,40.903,113.322,40.922,113.213,40.948z"/>
		<path fill="#231F20" d="M87.447,55.962c0.392-0.383,0.783-0.758,1.176-1.122c11.572-7.054,25.846-8.145,25.846-8.145
			c-9.146-0.233-17.166,2.551-21.23,4.283c9.596-7.251,18.653-9.7,19.975-10.03c-11.359,2.647-19.961,7.658-26.463,13.521
			c4.975-10.612,11.551-14.236,11.551-14.236C87.965,45.29,84.412,54.677,83.527,57.617c-0.668,0.704-1.31,1.417-1.926,2.136
			c0.012-1.754,0.234-6.351,2.098-10.689c0,0-3.594,5.098-3.701,12.648C69.061,75.644,67.138,90.81,67.138,90.81l2.595,1.454
			c1.732-12.251,6.049-21.686,11.326-28.927c4.459-0.801,12.086,0.391,12.086,0.391c-3.047-1.573-7.89-2.005-9.865-2.117
			c9.824-4.846,20.112-1.258,20.112-1.258c-7.493-3.479-16.047-1.607-19.497-0.599c0.322-0.376,0.646-0.744,0.971-1.106
			c11.774-6.648,26.99-3.606,26.99-3.606C98.535,50.938,88.119,55.647,87.447,55.962z"/>
	</g>
	<path fill="#DA1036" d="M99.264,94.093H70.5h-1H40.736c0,0,0.311,2.564,4.664,3.334l-0.004,0.002c0,0,2.252,0.442,2.998,1.47
		c0.529,0.651,1.164,1.615,1.903,3.042l11.616,22.418c0,0,1.162,2.275,4.162,2.275H69.5h1h3.424c3,0,4.164-2.275,4.164-2.275
		l11.615-22.418c0.739-1.427,1.373-2.391,1.903-3.042c0.747-1.027,2.999-1.47,2.999-1.47l-0.004-0.002
		C98.953,96.657,99.264,94.093,99.264,94.093z"/>
	<path opacity="0.2" fill="#231F20" d="M45.646,97.486c0.594,0.144,2.148,0.587,2.748,1.412c0.529,0.651,1.164,1.615,1.903,3.042
		l6.179,11.924l30.773-7.189l2.453-4.734c0.739-1.427,1.373-2.391,1.903-3.042c0.601-0.825,2.155-1.269,2.749-1.412H45.646z"/>
	<g>
		<defs>
			<path id="SVGID_11_" d="M99.264,94.093H70.5h-1H40.736c0,0,0.311,2.564,4.664,3.334l-0.004,0.002c0,0,2.252,0.442,2.998,1.47
				c0.529,0.651,1.164,1.615,1.903,3.042l11.616,22.418c0,0,1.162,2.275,4.162,2.275H69.5h1h3.424c3,0,4.164-2.275,4.164-2.275
				l11.615-22.418c0.739-1.427,1.373-2.391,1.903-3.042c0.747-1.027,2.999-1.47,2.999-1.47l-0.004-0.002
				C98.953,96.657,99.264,94.093,99.264,94.093z"/>
		</defs>
		<clipPath id="SVGID_12_">
			<use xlink:href="#SVGID_11_"  overflow="visible"/>
		</clipPath>
		<g opacity="0.2" clip-path="url(#SVGID_12_)">
			<path fill="#231F20" d="M79.611,137.186c-0.424-16.176-3.25-27.56-6.573-35.466c6.911,5.648,15.376,21.566,15.376,21.566
				c-6.053-17.738-15.652-26.105-18.9-28.535c-0.152-0.252-0.306-0.512-0.459-0.75v-0.005h-0.002
				c-0.568-0.896-1.131-1.706-1.678-2.443c10.533,3.169,19.775,16.644,19.775,16.644c-4.557-7.072-8.629-11.617-12.01-14.533
				l0.002,0.001c-0.033-0.028-0.068-0.054-0.102-0.082c-0.336-0.289-0.664-0.56-0.986-0.817c-6.494-5.219-12.979-7.454-12.979-7.454
				c-10.765,11.136-4.247,31.958-4.247,31.958c-2.783-16.031,2.223-25.08,4.229-27.944c-0.002,0.004-2.006,14.798,1.629,30.14
				c0,0-1.715-18.383,1.141-25.699c0,0,5.258,20.855,5.465,35.947c-0.034-6.355-0.383-27.821-3.453-36.292
				C75.113,108.203,79.611,137.186,79.611,137.186z M65.037,92.184c0.025,0.036,0.047,0.073,0.072,0.111L65.037,92.184z"/>
			<path fill="#231F20" d="M69.295,131.179c0,0.112,0.002,0.228,0,0.338C69.295,131.517,69.295,131.398,69.295,131.179z"/>
			<path fill="#231F20" d="M69.295,131.179c0.004-0.482,0.003-0.971-0.004-1.467C69.295,130.376,69.296,130.876,69.295,131.179z"/>
		</g>
	</g>
	<g>
		
			<radialGradient id="SVGID_13_" cx="28.3389" cy="63.4165" r="60.5004" gradientTransform="matrix(0.999 0.0444 -0.0444 0.999 37.7412 10.1307)" gradientUnits="userSpaceOnUse">
			<stop  offset="0" style="stop-color:#3BBDB1"/>
			<stop  offset="1" style="stop-color:#9CDB75"/>
		</radialGradient>
		<path fill="url(#SVGID_13_)" d="M77.328,113.979c-0.355-13.546-2.723-23.079-5.505-29.7c5.788,4.73,12.876,18.061,12.876,18.061
			c-5.068-14.854-13.107-21.861-15.828-23.896c-0.127-0.211-0.256-0.428-0.383-0.628l-0.002-0.004h-0.001
			c-0.476-0.751-0.946-1.429-1.404-2.046c8.819,2.653,16.56,13.938,16.56,13.938c-3.816-5.923-7.227-9.729-10.057-12.171
			l0.002,0.001c-0.029-0.023-0.057-0.045-0.085-0.068c-0.282-0.242-0.558-0.469-0.827-0.685c-5.438-4.37-10.869-6.242-10.869-6.242
			C52.791,79.862,58.249,97.3,58.249,97.3c-2.331-13.426,1.86-21.003,3.54-23.401c0,0.003-1.68,12.392,1.364,25.239
			c0,0-1.436-15.395,0.956-21.521c0,0,4.402,17.465,4.576,30.104c-0.029-5.322-0.32-23.298-2.892-30.392
			C73.562,89.708,77.328,113.979,77.328,113.979z M65.123,76.293c0.021,0.03,0.039,0.062,0.061,0.093L65.123,76.293z"/>
		
			<radialGradient id="SVGID_14_" cx="28.9214" cy="63.417" r="60.3073" gradientTransform="matrix(0.999 0.0444 -0.0444 0.999 37.7412 10.1307)" gradientUnits="userSpaceOnUse">
			<stop  offset="0" style="stop-color:#3BBDB1"/>
			<stop  offset="1" style="stop-color:#9CDB75"/>
		</radialGradient>
		<path fill="url(#SVGID_14_)" d="M68.689,108.948c-0.002,0.094,0,0.19-0.002,0.283C68.688,109.231,68.688,109.132,68.689,108.948z"
			/>
		
			<radialGradient id="SVGID_15_" cx="28.2227" cy="63.3906" r="60.5874" gradientTransform="matrix(0.999 0.0444 -0.0444 0.999 37.7412 10.1307)" gradientUnits="userSpaceOnUse">
			<stop  offset="0" style="stop-color:#3BBDB1"/>
			<stop  offset="1" style="stop-color:#9CDB75"/>
		</radialGradient>
		<path fill="url(#SVGID_15_)" d="M68.689,108.948c0.003-0.404,0.002-0.813-0.004-1.229
			C68.689,108.275,68.689,108.694,68.689,108.948z"/>
	</g>
	<g opacity="0.2">
		<path fill="#231F20" d="M77.328,113.979c-0.355-13.546-2.723-23.079-5.505-29.7c5.788,4.73,12.876,18.061,12.876,18.061
			c-5.068-14.854-13.107-21.861-15.828-23.896c-0.127-0.211-0.256-0.428-0.383-0.628l-0.002-0.004h-0.001
			c-0.476-0.751-0.946-1.429-1.404-2.046c8.819,2.653,16.56,13.938,16.56,13.938c-3.816-5.923-7.227-9.729-10.057-12.171
			l0.002,0.001c-0.029-0.023-0.057-0.045-0.085-0.068c-0.282-0.242-0.558-0.469-0.827-0.685c-5.438-4.37-10.869-6.242-10.869-6.242
			C52.791,79.862,58.249,97.3,58.249,97.3c-2.331-13.426,1.86-21.003,3.54-23.401c0,0.003-1.68,12.392,1.364,25.239
			c0,0-1.436-15.395,0.956-21.521c0,0,4.402,17.465,4.576,30.104c-0.029-5.322-0.32-23.298-2.892-30.392
			C73.562,89.708,77.328,113.979,77.328,113.979z M65.123,76.293c0.021,0.03,0.039,0.062,0.061,0.093L65.123,76.293z"/>
		<path fill="#231F20" d="M68.689,108.948c-0.002,0.094,0,0.19-0.002,0.283C68.688,109.231,68.688,109.132,68.689,108.948z"/>
		<path fill="#231F20" d="M68.689,108.948c0.003-0.404,0.002-0.813-0.004-1.229C68.689,108.275,68.689,108.694,68.689,108.948z"/>
	</g>
</g>
</svg>
