<?xml version="1.0" encoding="utf-8"?>
<!-- Generator: Adobe Illustrator 16.0.0, SVG Export Plug-In . SVG Version: 6.00 Build 0)  -->
<!DOCTYPE svg PUBLIC "-//W3C//DTD SVG 1.1//EN" "http://www.w3.org/Graphics/SVG/1.1/DTD/svg11.dtd">
<svg version="1.1" id="Layer_1" xmlns="http://www.w3.org/2000/svg" xmlns:xlink="http://www.w3.org/1999/xlink" x="0px" y="0px"
	 width="140px" height="140px" viewBox="0 0 140 140" enable-background="new 0 0 140 140" xml:space="preserve">
<g>
	<circle fill="#3BBDB1" cx="70" cy="70" r="70"/>
	<g>
		<g>
			<g>
				<path fill="#C11535" d="M23.745,40.285c0-2.2,1.8-4,4-4H82.33c2.2,0,4,1.8,4,4v30.987c0,2.2-1.8,4-4,4H27.745c-2.2,0-4-1.8-4-4
					V40.285z"/>
			</g>
			<g>
				<path fill="#DA1036" d="M73.801,31.953c-2.2,0-5.273,1.273-6.829,2.829l-3.007,3.007c-1.555,1.556-4.628,2.829-6.828,2.829
					H27.745c-2.2,0-4,1.8-4,4v29.506c0,2.2,1.8,4,4,4H82.33c2.2,0,4-1.8,4-4v-38.17c0-2.2-1.8-4-4-4H73.801z"/>
			</g>
		</g>
		<g>
			<g>
				<path fill="#8F3974" d="M38.708,55.247c0-2.2,1.8-4,4-4h54.585c2.2,0,4,1.8,4,4v30.987c0,2.2-1.8,4-4,4H42.708c-2.2,0-4-1.8-4-4
					V55.247z"/>
			</g>
			<g>
				<path fill="#9F3A7F" d="M88.764,46.916c-2.2,0-5.272,1.273-6.828,2.828l-3.008,3.007c-1.556,1.555-4.628,2.828-6.828,2.828
					H42.708c-2.2,0-4,1.8-4,4v29.505c0,2.2,1.8,4,4,4h54.585c2.2,0,4-1.8,4-4V50.916c0-2.2-1.8-4-4-4H88.764z"/>
			</g>
		</g>
		<g>
			<path fill="#F9D739" d="M53.67,70.209c0-2.2,1.8-4,4-4h54.586c2.2,0,4,1.8,4,4v30.988c0,2.2-1.8,4-4,4H57.67c-2.2,0-4-1.8-4-4
				V70.209z"/>
		</g>
		<g>
			<path fill="#FEFA39" d="M103.725,61.877c-2.2,0-5.272,1.273-6.828,2.829l-3.006,3.007c-1.556,1.556-4.628,2.829-6.828,2.829
				H57.67c-2.2,0-4,1.8-4,4v29.506c0,2.2,1.8,4,4,4h54.586c2.2,0,4-1.8,4-4v-38.17c0-2.2-1.8-4-4-4H103.725z"/>
		</g>
	</g>
</g>
</svg>
