<?xml version="1.0" encoding="utf-8"?>
<!-- Generator: Adobe Illustrator 16.0.0, SVG Export Plug-In . SVG Version: 6.00 Build 0)  -->
<!DOCTYPE svg PUBLIC "-//W3C//DTD SVG 1.1//EN" "http://www.w3.org/Graphics/SVG/1.1/DTD/svg11.dtd">
<svg version="1.1" id="Layer_1" xmlns="http://www.w3.org/2000/svg" xmlns:xlink="http://www.w3.org/1999/xlink" x="0px" y="0px"
	 width="140px" height="140px" viewBox="0 0 140 140" enable-background="new 0 0 140 140" xml:space="preserve">
<g>
	<rect fill="#FEFA39" width="140" height="140"/>
	<g opacity="0.6">
		<path fill="#DA1036" d="M0,0v140h140V0H0z M128.333,128.333H11.667V11.667h116.667V128.333z"/>
		<rect x="11.667" y="81.667" fill="#DA1036" width="116.667" height="5.833"/>
		<rect x="11.667" y="40.833" fill="#DA1036" width="116.667" height="5.833"/>
		<rect x="81.667" y="87.5" fill="#DA1036" width="5.833" height="40.833"/>
		<rect x="87.5" y="105" fill="#DA1036" width="40.833" height="5.833"/>
		<rect x="46.667" y="46.667" fill="#DA1036" width="5.833" height="35"/>
	</g>
	<rect x="11.667" y="93.333" opacity="0.6" fill="#3BBDB1" width="5.833" height="35"/>
	<rect x="17.5" y="93.333" fill="#3BBDB1" width="5.833" height="35"/>
	<rect x="23.333" y="99.167" fill="#DA1036" width="5.833" height="29.166"/>
	<rect x="29.167" y="93.333" opacity="0.4" fill="#DA1036" width="5.833" height="35"/>
	<rect x="35" y="93.333" opacity="0.4" fill="#DA1036" width="5.833" height="35"/>
	<rect x="40.833" y="99.167" opacity="0.6" fill="#3BBDB1" width="5.833" height="29.166"/>
	<rect x="46.667" y="99.167" opacity="0.6" fill="#3BBDB1" width="5.833" height="29.166"/>
	<rect x="52.5" y="93.333" fill="#3BBDB1" width="5.833" height="35"/>
	<polygon opacity="0.4" fill="#DA1036" points="58.333,128.333 58.333,110.833 75.833,128.333 	"/>
</g>
</svg>
