<svg xmlns="http://www.w3.org/2000/svg" xmlns:xlink="http://www.w3.org/1999/xlink" viewBox="0 0 140 140"><defs><style>.cls-1{fill:#e1233a;}.cls-2{opacity:0.25;isolation:isolate;fill:url(#linear-gradient);}.cls-3{fill:#fff;}</style><linearGradient id="linear-gradient" x1="18" y1="75.79" x2="132.48" y2="75.79" gradientUnits="userSpaceOnUse"><stop offset="0" stop-color="#323232"/><stop offset="1" stop-color="#323232" stop-opacity="0"/></linearGradient></defs><title>phoenix-icon</title><g id="Layer_2" data-name="Layer 2"><g id="Layer_1-2" data-name="Layer 1"><circle class="cls-1" cx="70" cy="70" r="70"/><path class="cls-2" d="M31.35,41.51a30.14,30.14,0,0,1,6.35-.86C37.27,43.7,33.41,44.06,31.35,41.51ZM71.82,94c-5.25-3.43-7.68.81-14.36.88-4,0-9.45-1.32-16.12-5.56,5.39,7.73,11.73,12.18,18.46,14.11,12.92,3.72,15.44-2.82,27.9,1.45-1.87-3-5.62-4.4-9.4-5.16s-6.46.16-9.56-1.22C66.08,97.31,66.25,94.61,71.82,94Zm-.26-39.44A25.94,25.94,0,0,0,83,63.78a29.9,29.9,0,0,0,21.67.83c5.72-2,9.83,0,12,5.51.35-6.72-3.4-9.66-6.55-11.19-6.75-3.27-14.1,2.51-22.3,1.8A27.88,27.88,0,0,1,71.57,54.58ZM94.66,90.23a10.08,10.08,0,0,1-4.51,2.34c.07.13.09.19.11.19,6.35,0,13.56-.94,19.1-6.9,3.63-3.91,4.11-6.19,11.06-5-4.72-3.78-12.68-3.09-18.34,2C99.77,85,97.94,87.47,94.66,90.23ZM77.37,79.32A23,23,0,0,0,100.29,78c6.85-4.64,13.44-1.17,14-2-5.19-3.65-10.31-3.69-15.17-2.43C89.61,75.81,89.22,82.55,77.37,79.32ZM93.61,55.68c-1.18,0-3.87.93-7.29-.22-5.56-2.12-8.07-8.54-20.36-8.36C69.17,51.73,83.14,61.42,93.61,55.68Zm38.87,34.63c-6.26-1.68-8.08-11-18.22-4.87C122.28,85.12,122.28,95.49,132.48,90.31ZM91.74,68.2c-12.17.34-21.41-10.48-28.37-19.72C54.45,36.64,36.19,31.27,18,43.56c0,0,12.27-2.42,13.86,15.46.89,10.05,0,13.22,3.58,19.51C45.17,95.6,61,91.37,61,91.37h0c-8.9-1.27-12.43-7.44-13.48-12.32-.52-2.76,1.3-5.88,5.87-5.71s8.18,5.72,14.12,12.52c8.19,10.26,20.41,5.93,29.12-1.76-.44-1.31-4.62.78-8.81.73-6.64-.08-12.81-1.6-17.46-4.89-9.24-7.19-10-16.61-2.21-16,3.47.21,6.46,4.65,9.58,6.06C82.21,72,86.73,71.44,91.74,68.2Zm3.14,46.75c-4.06-1.87-3.39-9.78-16.6-9C86.2,107.89,87.16,115.7,94.88,114.95Z"/><path class="cls-3" d="M32,38.43a29.35,29.35,0,0,1,6.19-.84C37.77,40.57,34,40.92,32,38.43ZM71.41,89.57c-5.11-3.34-7.48.79-14,.86-3.91,0-9.2-1.28-15.7-5.41,5.25,7.53,11.43,11.86,18,13.74,12.59,3.62,15-2.75,27.16,1.41-1.82-2.92-5.48-4.29-9.15-5s-6.29.15-9.31-1.19C65.82,92.77,66,90.14,71.41,89.57Zm-.25-38.4a25.26,25.26,0,0,0,11.14,9,29.11,29.11,0,0,0,21.1.81c5.57-1.92,9.58,0,11.66,5.36.34-6.55-3.32-9.41-6.38-10.89C102.12,52.22,95,57.85,87,57.16A27.15,27.15,0,0,1,71.16,51.16ZM93.65,85.88a9.81,9.81,0,0,1-4.39,2.28c.07.12.09.19.11.19,6.18,0,13.2-.91,18.6-6.72,3.53-3.81,4-6,10.77-4.85-4.6-3.68-12.35-3-17.86,2C98.63,80.75,96.84,83.19,93.65,85.88ZM76.81,75.25A22.42,22.42,0,0,0,99.13,74c6.67-4.52,13.08-1.14,13.6-1.95-5.05-3.55-10-3.59-14.78-2.37C88.73,71.84,88.36,78.4,76.81,75.25Zm15.82-23c-1.15,0-3.77.9-7.1-.22C80.12,50,77.67,43.7,65.7,43.87,68.83,48.39,82.44,57.83,92.63,52.23ZM130.48,86c-6.1-1.64-7.87-10.72-17.75-4.75C120.55,80.9,120.55,91,130.48,86ZM90.81,64.42C79,64.76,70,54.21,63.18,45.22,54.49,33.69,36.71,28.47,19,40.43c0,0,12-2.36,13.5,15.05.87,9.79,0,12.88,3.48,19C45.46,91.11,60.87,87,60.87,87h0c-8.66-1.24-12.11-7.24-13.12-12-.51-2.69,1.26-5.72,5.72-5.56s8,5.57,13.75,12.19c8,10,19.88,5.77,28.36-1.71-.43-1.27-4.49.76-8.58.71-6.46-.08-12.47-1.56-17-4.76-9-7-9.78-16.18-2.15-15.54,3.38.2,6.29,4.53,9.33,5.9C81.53,68.17,85.93,67.58,90.81,64.42ZM93.86,110c-4-1.83-3.3-9.52-16.16-8.76C85.42,103.08,86.35,110.68,93.86,110Z"/></g></g></svg>