<?xml version="1.0" encoding="utf-8"?>
<!-- Generator: Adobe Illustrator 16.0.0, SVG Export Plug-In . SVG Version: 6.00 Build 0)  -->
<!DOCTYPE svg PUBLIC "-//W3C//DTD SVG 1.1//EN" "http://www.w3.org/Graphics/SVG/1.1/DTD/svg11.dtd">
<svg version="1.1" id="Layer_1" xmlns="http://www.w3.org/2000/svg" xmlns:xlink="http://www.w3.org/1999/xlink" x="0px" y="0px"
	 width="140px" height="140px" viewBox="0 0 140 140" enable-background="new 0 0 140 140" xml:space="preserve">
<g>
	<circle fill="#FF8232" cx="70" cy="70" r="70"/>
	<rect x="26" y="26" fill="#FEFA39" width="88" height="88"/>
	<polygon fill="#F9D739" points="114,26 26,114 114,114 	"/>
	<rect x="27.913" y="27.913" fill="#8CF064" width="84.173" height="84.174"/>
	<path opacity="0.15" fill="#DA1036" d="M27.913,27.913v84.174h84.173V27.913H27.913z M110.174,110.174H29.826V29.826h80.348
		V110.174z"/>
	<path fill="#FFFFFF" d="M70,65.695c-1.846,0-3.348-1.502-3.348-3.348S68.154,59,70,59s3.348,1.502,3.348,3.348
		S71.846,65.695,70,65.695z M70,59.957c-1.318,0-2.391,1.072-2.391,2.391s1.073,2.392,2.391,2.392s2.391-1.073,2.391-2.392
		S71.318,59.957,70,59.957z"/>
	<path fill="#FFFFFF" d="M70,53.261c-1.846,0-3.348-1.502-3.348-3.348s1.502-3.348,3.348-3.348s3.348,1.502,3.348,3.348
		S71.846,53.261,70,53.261z M70,47.521c-1.318,0-2.391,1.073-2.391,2.392s1.073,2.392,2.391,2.392s2.391-1.073,2.391-2.392
		S71.318,47.521,70,47.521z"/>
	<path fill="#FFFFFF" d="M70,40.826c-1.846,0-3.348-1.502-3.348-3.348s1.502-3.348,3.348-3.348s3.348,1.502,3.348,3.348
		S71.846,40.826,70,40.826z M70,35.087c-1.318,0-2.391,1.073-2.391,2.392s1.073,2.391,2.391,2.391s2.391-1.072,2.391-2.391
		S71.318,35.087,70,35.087z"/>
	<path fill="#FFFFFF" d="M84.348,55.174c-1.846,0-3.348-1.502-3.348-3.348s1.502-3.348,3.348-3.348s3.348,1.502,3.348,3.348
		S86.193,55.174,84.348,55.174z M84.348,49.435c-1.318,0-2.391,1.073-2.391,2.392s1.072,2.391,2.391,2.391s2.391-1.072,2.391-2.391
		S85.666,49.435,84.348,49.435z"/>
	<path fill="#FFFFFF" d="M103.479,55.174c-1.846,0-3.348-1.502-3.348-3.348s1.502-3.348,3.348-3.348s3.348,1.502,3.348,3.348
		S105.324,55.174,103.479,55.174z M103.479,49.435c-1.318,0-2.393,1.073-2.393,2.392s1.074,2.391,2.393,2.391
		s2.391-1.072,2.391-2.391S104.797,49.435,103.479,49.435z"/>
	<path fill="#FFFFFF" d="M55.652,55.174c-1.846,0-3.348-1.502-3.348-3.348s1.502-3.348,3.348-3.348S59,49.98,59,51.826
		S57.498,55.174,55.652,55.174z M55.652,49.435c-1.318,0-2.392,1.073-2.392,2.392s1.073,2.391,2.392,2.391s2.391-1.072,2.391-2.391
		S56.971,49.435,55.652,49.435z"/>
	<path fill="#FFFFFF" d="M36.522,55.174c-1.846,0-3.348-1.502-3.348-3.348s1.502-3.348,3.348-3.348c1.846,0,3.348,1.502,3.348,3.348
		S38.368,55.174,36.522,55.174z M36.522,49.435c-1.319,0-2.392,1.073-2.392,2.392s1.073,2.391,2.392,2.391
		c1.318,0,2.391-1.072,2.391-2.391S37.84,49.435,36.522,49.435z"/>
	<path fill="#FFFFFF" d="M80.521,65.695c-1.846,0-3.348-1.502-3.348-3.348S78.676,59,80.521,59s3.348,1.502,3.348,3.348
		S82.367,65.695,80.521,65.695z M80.521,59.957c-1.318,0-2.391,1.072-2.391,2.391s1.072,2.392,2.391,2.392s2.391-1.073,2.391-2.392
		S81.84,59.957,80.521,59.957z"/>
	<path fill="#FFFFFF" d="M91.043,65.695c-1.846,0-3.348-1.502-3.348-3.348S89.197,59,91.043,59s3.348,1.502,3.348,3.348
		S92.889,65.695,91.043,65.695z M91.043,59.957c-1.318,0-2.391,1.072-2.391,2.391s1.072,2.392,2.391,2.392s2.391-1.073,2.391-2.392
		S92.361,59.957,91.043,59.957z"/>
	<path fill="#FFFFFF" d="M48.957,65.695c-1.846,0-3.348-1.502-3.348-3.348S47.111,59,48.957,59s3.348,1.502,3.348,3.348
		S50.802,65.695,48.957,65.695z M48.957,59.957c-1.318,0-2.391,1.072-2.391,2.391s1.073,2.392,2.391,2.392s2.391-1.073,2.391-2.392
		S50.275,59.957,48.957,59.957z"/>
	<path fill="#FFFFFF" d="M59.479,65.695c-1.846,0-3.348-1.502-3.348-3.348S57.632,59,59.479,59c1.846,0,3.348,1.502,3.348,3.348
		S61.324,65.695,59.479,65.695z M59.479,59.957c-1.319,0-2.392,1.072-2.392,2.391s1.073,2.392,2.392,2.392
		c1.318,0,2.391-1.073,2.391-2.392S60.797,59.957,59.479,59.957z"/>
	<g>
		<path fill="#FFFFFF" d="M60.435,84.826c-0.122,0-0.245-0.047-0.338-0.141l-5.739-5.738c-0.187-0.188-0.187-0.49,0-0.677
			c0.187-0.187,0.49-0.187,0.676,0l5.739,5.739c0.187,0.187,0.187,0.489,0,0.676C60.68,84.779,60.557,84.826,60.435,84.826z"/>
		<path fill="#FFFFFF" d="M54.696,84.826c-0.123,0-0.245-0.047-0.338-0.141c-0.187-0.187-0.187-0.489,0-0.676l5.739-5.739
			c0.187-0.187,0.489-0.187,0.676,0s0.187,0.489,0,0.677l-5.739,5.738C54.94,84.779,54.818,84.826,54.696,84.826z"/>
	</g>
	<g>
		<path fill="#FFFFFF" d="M50.87,81c-0.123,0-0.245-0.047-0.338-0.141l-5.739-5.738c-0.187-0.188-0.187-0.49,0-0.677
			c0.187-0.187,0.489-0.187,0.676,0l5.739,5.739c0.187,0.187,0.187,0.489,0,0.676C51.114,80.953,50.992,81,50.87,81z"/>
		<path fill="#FFFFFF" d="M45.13,81c-0.123,0-0.245-0.047-0.338-0.141c-0.187-0.187-0.187-0.489,0-0.676l5.739-5.739
			c0.187-0.187,0.49-0.187,0.677,0c0.187,0.187,0.187,0.489,0,0.677l-5.739,5.738C45.375,80.953,45.253,81,45.13,81z"/>
	</g>
	<g>
		<path fill="#FFFFFF" d="M41.304,81c-0.122,0-0.245-0.047-0.338-0.141l-5.739-5.738c-0.187-0.188-0.187-0.49,0-0.677
			s0.49-0.187,0.676,0l5.739,5.739c0.187,0.187,0.187,0.489,0,0.676C41.549,80.953,41.427,81,41.304,81z"/>
		<path fill="#FFFFFF" d="M35.565,81c-0.123,0-0.245-0.047-0.338-0.141c-0.187-0.187-0.187-0.489,0-0.676l5.739-5.739
			c0.187-0.187,0.489-0.187,0.676,0c0.187,0.187,0.187,0.489,0,0.677l-5.739,5.738C35.81,80.953,35.688,81,35.565,81z"/>
	</g>
	<g>
		<path fill="#FFFFFF" d="M104.434,81c-0.121,0-0.244-0.047-0.338-0.141l-5.738-5.738c-0.188-0.188-0.188-0.49,0-0.677
			s0.49-0.187,0.676,0l5.74,5.739c0.186,0.187,0.186,0.489,0,0.676C104.68,80.953,104.557,81,104.434,81z"/>
		<path fill="#FFFFFF" d="M98.695,81c-0.123,0-0.244-0.047-0.338-0.141c-0.188-0.187-0.188-0.489,0-0.676l5.738-5.739
			c0.188-0.187,0.49-0.187,0.678,0c0.186,0.187,0.186,0.489,0,0.677l-5.74,5.738C98.939,80.953,98.818,81,98.695,81z"/>
	</g>
	<g>
		<path fill="#FFFFFF" d="M94.869,81c-0.123,0-0.244-0.047-0.338-0.141l-5.738-5.738c-0.188-0.188-0.188-0.49,0-0.677
			c0.186-0.187,0.488-0.187,0.676,0l5.738,5.739c0.188,0.187,0.188,0.489,0,0.676C95.113,80.953,94.992,81,94.869,81z"/>
		<path fill="#FFFFFF" d="M89.131,81c-0.123,0-0.246-0.047-0.338-0.141c-0.188-0.187-0.188-0.489,0-0.676l5.738-5.739
			c0.188-0.187,0.49-0.187,0.676,0c0.188,0.187,0.188,0.489,0,0.677l-5.738,5.738C89.375,80.953,89.252,81,89.131,81z"/>
	</g>
	<g>
		<path fill="#FFFFFF" d="M85.305,84.826c-0.123,0-0.246-0.047-0.338-0.141l-5.74-5.738c-0.188-0.188-0.188-0.49,0-0.677
			s0.49-0.187,0.676,0l5.74,5.739c0.186,0.187,0.186,0.489,0,0.676C85.549,84.779,85.426,84.826,85.305,84.826z"/>
		<path fill="#FFFFFF" d="M79.564,84.826c-0.121,0-0.244-0.047-0.338-0.141c-0.188-0.187-0.188-0.489,0-0.676l5.74-5.739
			c0.186-0.187,0.488-0.187,0.676,0c0.186,0.187,0.186,0.489,0,0.677l-5.74,5.738C79.811,84.779,79.688,84.826,79.564,84.826z"/>
	</g>
	<g>
		<path fill="#FFFFFF" d="M72.869,81c-0.123,0-0.244-0.047-0.338-0.141l-5.739-5.738c-0.187-0.188-0.187-0.49,0-0.677
			c0.187-0.187,0.489-0.187,0.676,0l5.738,5.739c0.188,0.187,0.188,0.489,0,0.676C73.113,80.953,72.992,81,72.869,81z"/>
		<path fill="#FFFFFF" d="M67.13,81c-0.123,0-0.245-0.047-0.338-0.141c-0.187-0.187-0.187-0.489,0-0.676l5.739-5.739
			c0.188-0.187,0.49-0.187,0.676,0c0.188,0.187,0.188,0.489,0,0.677l-5.738,5.738C67.375,80.953,67.253,81,67.13,81z"/>
	</g>
	<g>
		<path fill="#FFFFFF" d="M72.869,95.348c-0.123,0-0.244-0.047-0.338-0.141l-5.739-5.738c-0.187-0.188-0.187-0.49,0-0.677
			c0.187-0.187,0.489-0.187,0.676,0l5.738,5.739c0.188,0.188,0.188,0.49,0,0.676C73.113,95.301,72.992,95.348,72.869,95.348z"/>
		<path fill="#FFFFFF" d="M67.13,95.348c-0.123,0-0.245-0.047-0.338-0.141c-0.187-0.186-0.187-0.488,0-0.676l5.739-5.739
			c0.188-0.187,0.49-0.187,0.676,0c0.188,0.187,0.188,0.489,0,0.677l-5.738,5.738C67.375,95.301,67.253,95.348,67.13,95.348z"/>
	</g>
	<g>
		<path fill="#FFFFFF" d="M48.957,95.348c-0.123,0-0.245-0.047-0.338-0.141l-5.739-5.738c-0.187-0.188-0.187-0.49,0-0.677
			c0.187-0.187,0.489-0.187,0.676,0l5.739,5.739c0.187,0.188,0.187,0.49,0,0.676C49.201,95.301,49.079,95.348,48.957,95.348z"/>
		<path fill="#FFFFFF" d="M43.217,95.348c-0.122,0-0.245-0.047-0.338-0.141c-0.187-0.186-0.187-0.488,0-0.676l5.739-5.739
			c0.187-0.187,0.49-0.187,0.677,0c0.187,0.187,0.187,0.489,0,0.677l-5.739,5.738C43.462,95.301,43.34,95.348,43.217,95.348z"/>
	</g>
	<g>
		<path fill="#FFFFFF" d="M96.783,95.348c-0.123,0-0.246-0.047-0.34-0.141l-5.738-5.738c-0.188-0.188-0.188-0.49,0-0.677
			s0.49-0.187,0.676,0l5.74,5.739c0.186,0.188,0.186,0.49,0,0.676C97.027,95.301,96.904,95.348,96.783,95.348z"/>
		<path fill="#FFFFFF" d="M91.043,95.348c-0.123,0-0.244-0.047-0.338-0.141c-0.188-0.186-0.188-0.488,0-0.676l5.738-5.739
			c0.188-0.187,0.49-0.187,0.678,0c0.186,0.187,0.186,0.489,0,0.677l-5.74,5.738C91.287,95.301,91.166,95.348,91.043,95.348z"/>
	</g>
	<g>
		<path fill="#FFFFFF" d="M72.869,105.869c-0.123,0-0.244-0.047-0.338-0.14l-5.739-5.739c-0.187-0.187-0.187-0.489,0-0.676
			c0.187-0.188,0.489-0.188,0.676,0l5.738,5.738c0.188,0.188,0.188,0.49,0,0.677C73.113,105.822,72.992,105.869,72.869,105.869z"/>
		<path fill="#FFFFFF" d="M67.13,105.869c-0.123,0-0.245-0.047-0.338-0.14c-0.187-0.187-0.187-0.489,0-0.677l5.739-5.738
			c0.188-0.188,0.49-0.188,0.676,0c0.188,0.187,0.188,0.489,0,0.676l-5.738,5.739C67.375,105.822,67.253,105.869,67.13,105.869z"/>
	</g>
	<linearGradient id="SVGID_1_" gradientUnits="userSpaceOnUse" x1="70" y1="123.0371" x2="70" y2="114">
		<stop  offset="0" style="stop-color:#323232;stop-opacity:0"/>
		<stop  offset="1" style="stop-color:#323232"/>
	</linearGradient>
	<polygon opacity="0.25" fill="url(#SVGID_1_)" points="104.391,114 35.609,114 26.056,114 35.609,123.037 104.391,123.037 
		113.943,114 	"/>
	<g>
		<path fill="#FFFFFF" d="M38.435,72.711c-0.264,0-0.478-0.214-0.478-0.479V58.363c0-0.265,0.214-0.479,0.478-0.479
			c0.265,0,0.479,0.214,0.479,0.479v13.869C38.913,72.497,38.699,72.711,38.435,72.711z"/>
		<polygon fill="#FFFFFF" points="38.435,57.119 38.435,57.117 38.435,57.117 38.435,57.117 38.435,57.119 35.944,60.953 
			38.435,60.953 38.435,60.953 40.926,60.953 		"/>
	</g>
	<g>
		<path fill="#FFFFFF" d="M101.564,72.711c-0.264,0-0.479-0.214-0.479-0.479V58.363c0-0.265,0.215-0.479,0.479-0.479
			c0.266,0,0.479,0.214,0.479,0.479v13.869C102.043,72.497,101.83,72.711,101.564,72.711z"/>
		<polygon fill="#FFFFFF" points="101.564,57.119 101.564,57.117 101.564,57.117 101.564,57.117 101.564,57.119 99.074,60.953 
			101.564,60.953 101.564,60.953 104.057,60.953 		"/>
	</g>
	<g>
		<polygon fill="#FFFFFF" points="57.565,88.166 57.565,88.164 57.565,88.164 57.565,88.164 57.565,88.166 55.074,92 57.565,92 
			57.565,92 60.056,92 		"/>
		<path fill="#FFFFFF" d="M65.058,103c-1.993,0-3.659-0.691-4.953-2.053c-3.348-3.529-3.033-10.319-3.018-10.606
			c0.014-0.263,0.237-0.465,0.502-0.452c0.264,0.014,0.467,0.238,0.453,0.502c-0.004,0.066-0.308,6.671,2.758,9.899
			c1.105,1.163,2.538,1.753,4.257,1.753c0.264,0,0.478,0.215,0.478,0.479C65.536,102.786,65.322,103,65.058,103z"/>
	</g>
	<g>
		<polygon fill="#FFFFFF" points="107.363,78.122 107.363,78.121 107.363,78.121 107.365,78.121 107.365,78.122 109.855,81.957 
			107.365,81.957 107.363,81.957 104.873,81.957 		"/>
		<path fill="#FFFFFF" d="M99.871,92.957c-0.264,0-0.479-0.215-0.479-0.479c0-0.265,0.215-0.479,0.479-0.479
			c1.719,0,3.152-0.59,4.258-1.754c3.064-3.229,2.762-9.832,2.758-9.898c-0.014-0.264,0.189-0.488,0.453-0.502
			c0.256-0.022,0.488,0.188,0.502,0.451c0.016,0.288,0.33,7.077-3.018,10.606C103.531,92.266,101.865,92.957,99.871,92.957z"/>
	</g>
	<g>
		<polygon fill="#FFFFFF" points="85.467,92 85.469,92 85.469,92 85.469,92 85.467,92 81.633,89.51 81.633,92 81.633,92 
			81.633,94.49 		"/>
		<path fill="#FFFFFF" d="M82.992,92.479H75.5c-0.264,0-0.479-0.215-0.479-0.479c0-0.265,0.215-0.479,0.479-0.479h7.492
			c0.266,0,0.479,0.214,0.479,0.479C83.471,92.264,83.258,92.479,82.992,92.479z"/>
	</g>
	<g>
		<polygon fill="#FFFFFF" points="57.565,68.153 57.565,68.152 57.565,68.152 57.565,68.152 57.565,68.153 55.074,71.988 
			57.565,71.988 57.565,71.988 60.056,71.988 		"/>
		<path fill="#FFFFFF" d="M57.565,76.855c-0.264,0-0.479-0.214-0.479-0.479l0-5.749c0-0.265,0.214-0.479,0.479-0.479
			c0.264,0,0.478,0.214,0.478,0.479l0,5.749C58.043,76.641,57.83,76.855,57.565,76.855z"/>
	</g>
</g>
</svg>
