<?xml version="1.0" encoding="utf-8"?>
<!-- Generator: Adobe Illustrator 16.0.0, SVG Export Plug-In . SVG Version: 6.00 Build 0)  -->
<!DOCTYPE svg PUBLIC "-//W3C//DTD SVG 1.1//EN" "http://www.w3.org/Graphics/SVG/1.1/DTD/svg11.dtd">
<svg version="1.1" id="Layer_1" xmlns="http://www.w3.org/2000/svg" xmlns:xlink="http://www.w3.org/1999/xlink" x="0px" y="0px"
	 width="140px" height="140px" viewBox="0 0 140 140" enable-background="new 0 0 140 140" xml:space="preserve">
<g>
	<rect x="11" fill="#DA1036" width="96.923" height="118.462"/>
	<rect x="32.539" y="21.539" fill="#DA1036" width="96.923" height="118.461"/>
	<rect x="21.769" y="10.769" fill="#3BBDB1" width="96.923" height="118.461"/>
	<rect x="27.154" y="16.154" fill="#FFFFFF" width="86.154" height="107.692"/>
	<rect x="37.923" y="26.923" opacity="0.4" fill="#3BBDB1" width="16.154" height="16.154"/>
	<rect x="37.923" y="48.461" opacity="0.4" fill="#3BBDB1" width="16.154" height="16.154"/>
	<rect x="37.923" y="70" opacity="0.4" fill="#3BBDB1" width="16.154" height="16.154"/>
	<rect x="37.923" y="91.538" opacity="0.4" fill="#3BBDB1" width="16.154" height="16.154"/>
	<rect x="43.308" y="32.308" fill="#3BBDB1" width="5.385" height="5.385"/>
	<rect x="43.308" y="53.846" fill="#3BBDB1" width="5.385" height="5.385"/>
	<rect x="43.308" y="75.385" fill="#3BBDB1" width="5.385" height="5.385"/>
	<rect x="59.461" y="26.923" opacity="0.2" fill="#3BBDB1" width="43.077" height="5.385"/>
	<rect x="59.461" y="37.692" opacity="0.2" fill="#3BBDB1" width="43.077" height="5.385"/>
	<rect x="59.461" y="48.461" opacity="0.2" fill="#3BBDB1" width="43.077" height="5.385"/>
	<rect x="59.461" y="59.231" opacity="0.2" fill="#3BBDB1" width="43.077" height="5.384"/>
	<rect x="59.461" y="70" opacity="0.2" fill="#3BBDB1" width="43.077" height="5.385"/>
	<rect x="59.461" y="80.77" opacity="0.2" fill="#3BBDB1" width="43.077" height="5.385"/>
	<rect x="59.461" y="91.538" opacity="0.2" fill="#3BBDB1" width="43.077" height="5.385"/>
	<rect x="59.461" y="102.308" opacity="0.2" fill="#3BBDB1" width="43.077" height="5.385"/>
</g>
</svg>
