<?xml version="1.0" encoding="utf-8"?>
<!-- Generator: Adobe Illustrator 16.0.0, SVG Export Plug-In . SVG Version: 6.00 Build 0)  -->
<!DOCTYPE svg PUBLIC "-//W3C//DTD SVG 1.1//EN" "http://www.w3.org/Graphics/SVG/1.1/DTD/svg11.dtd">
<svg version="1.1" id="Layer_1" xmlns="http://www.w3.org/2000/svg" xmlns:xlink="http://www.w3.org/1999/xlink" x="0px" y="0px"
	 width="140px" height="140px" viewBox="0 0 140 140" enable-background="new 0 0 140 140" xml:space="preserve">
<circle fill="#8CF064" cx="70" cy="70" r="70"/>
<linearGradient id="SVGID_1_" gradientUnits="userSpaceOnUse" x1="70.0005" y1="125" x2="70.0005" y2="15">
	<stop  offset="0" style="stop-color:#323232"/>
	<stop  offset="1" style="stop-color:#323232;stop-opacity:0"/>
</linearGradient>
<circle opacity="0.25" fill="url(#SVGID_1_)" cx="70" cy="70" r="55"/>
<circle fill="#DA1036" cx="70" cy="70" r="50"/>
<circle fill="#FFFFFF" cx="70" cy="70" r="40"/>
<circle fill="#DA1036" cx="70" cy="70" r="30"/>
<circle fill="#FFFFFF" cx="70" cy="70" r="20"/>
<circle fill="#DA1036" cx="70" cy="70" r="10"/>
<g>
	<path fill="#FEFA39" d="M125.152,43.136c0,0-9.191-2.658-13.863,11.291l-16.611,5.967l-0.195-0.544l-14.904,5.354l0.256,0.712
		l-2.926,1.051L69.645,70l56.921-20.447C126.566,49.552,130.547,45.142,125.152,43.136z"/>
	<path fill="#F7CB38" d="M80.104,66.666l0.256,0.712l14.904-5.354l-0.195-0.544l16.611-5.967c12.48,7.786,17.879-0.112,17.879-0.112
		c2.885-4.98-2.992-5.849-2.992-5.849L69.645,70l7.533-2.282L80.104,66.666z"/>
</g>
<path opacity="0.25" fill="#323232" d="M118.826,80.762c-4,1.303-9.312,4.207-16.375,9.639l-14.908-9.926l0.789-1.156l-10.887-7.096
	l-0.938,1.379l-1.893-1.27l-4.971-2.331l3.999,3.762l1.877,1.291l-0.936,1.381l10.6,7.514l0.787-1.16l14.711,10.215
	c-2.42,8.449-3.178,14.41-2.947,18.6C108.297,104.547,116.014,93.574,118.826,80.762z"/>
</svg>
