<?xml version="1.0" encoding="utf-8"?>
<!-- Generator: Adobe Illustrator 16.0.0, SVG Export Plug-In . SVG Version: 6.00 Build 0)  -->
<!DOCTYPE svg PUBLIC "-//W3C//DTD SVG 1.1//EN" "http://www.w3.org/Graphics/SVG/1.1/DTD/svg11.dtd">
<svg version="1.1" id="Layer_1" xmlns="http://www.w3.org/2000/svg" xmlns:xlink="http://www.w3.org/1999/xlink" x="0px" y="0px"
	 width="140px" height="140px" viewBox="0 0 140 140" enable-background="new 0 0 140 140" xml:space="preserve">
<circle fill="#FF8232" cx="70" cy="70" r="70"/>
<path fill="#FFD26E" d="M73.299,83.952c0.515-0.688,0.83-1.534,0.83-2.46c0-1.634-0.957-3.033-2.334-3.702
	c-0.211-1.324-0.378-2.771-0.5-4.325c0.983-0.48,1.666-1.481,1.666-2.65c0-1.252-0.78-2.317-1.88-2.75
	c0-0.103-0.004-0.198-0.004-0.301l-0.095,0.27c-0.31-0.109-0.637-0.18-0.982-0.18s-0.673,0.07-0.98,0.18l-0.096-0.27
	c0,0.103-0.004,0.198-0.004,0.3c-1.1,0.433-1.881,1.498-1.881,2.75c0,1.169,0.684,2.17,1.667,2.651
	c-0.122,1.554-0.289,3-0.501,4.324c-1.376,0.669-2.333,2.068-2.333,3.702c0,0.926,0.315,1.771,0.83,2.459
	c-3.152,9.103-8.547,9.653-8.547,9.653v2.153h23.689v-2.153C81.845,93.604,76.451,93.054,73.299,83.952z"/>
<g>
	<path fill="#FFD26E" d="M77.842,66.179h-1.615v-3.229h1.615c11.399,0,19.743-4.056,24.797-12.054
		c3.818-6.044,4.27-12.216,4.271-12.278c0.026-0.405-0.104-0.785-0.369-1.066c-0.265-0.283-0.635-0.438-1.045-0.438h-12.48v-3.23
		h12.48c1.311,0,2.517,0.518,3.399,1.457c0.882,0.939,1.322,2.177,1.239,3.484c-0.019,0.28-0.482,6.945-4.688,13.675
		C101.544,58.739,93.588,66.179,77.842,66.179z"/>
	<path fill="#FFD26E" d="M63.775,66.179h-1.616c-15.746,0-23.703-7.439-27.604-13.68c-4.208-6.729-4.672-13.395-4.689-13.675
		c-0.083-1.307,0.357-2.545,1.238-3.484c0.883-0.939,2.09-1.457,3.399-1.457h12.481v3.23H34.504c-0.408,0-0.779,0.155-1.043,0.438
		c-0.266,0.282-0.397,0.662-0.371,1.07c0.004,0.058,0.454,6.23,4.271,12.274c5.056,7.998,13.398,12.054,24.798,12.054h1.616V66.179z
		"/>
</g>
<g>
	<rect x="53.312" y="95.758" fill="#9F462F" width="33.376" height="20.188"/>
	<rect x="50.889" y="115.946" fill="#9F462F" width="38.223" height="3.769"/>
</g>
<linearGradient id="SVGID_1_" gradientUnits="userSpaceOnUse" x1="70.0005" y1="95.7578" x2="70.0005" y2="115.9463">
	<stop  offset="0" style="stop-color:#DA1036;stop-opacity:0"/>
	<stop  offset="1" style="stop-color:#DA1036;stop-opacity:0.25"/>
</linearGradient>
<rect x="53.312" y="95.758" opacity="0.5" fill="url(#SVGID_1_)" width="33.376" height="20.188"/>
<linearGradient id="SVGID_2_" gradientUnits="userSpaceOnUse" x1="70.0005" y1="93.6045" x2="70.0005" y2="67.7646">
	<stop  offset="0" style="stop-color:#DA1036;stop-opacity:0"/>
	<stop  offset="0.5812" style="stop-color:#DA1036;stop-opacity:0.25"/>
</linearGradient>
<path fill="url(#SVGID_2_)" d="M73.299,83.952c0.515-0.688,0.83-1.534,0.83-2.46c0-1.634-0.957-3.033-2.334-3.702
	c-0.211-1.324-0.378-2.771-0.5-4.325c0.983-0.48,1.666-1.481,1.666-2.65c0-1.252-0.78-2.317-1.88-2.75
	c0-0.103-0.004-0.198-0.004-0.301l-0.095,0.27c-0.31-0.109-0.637-0.18-0.982-0.18s-0.673,0.07-0.98,0.18l-0.096-0.27
	c0,0.103-0.004,0.198-0.004,0.3c-1.1,0.433-1.881,1.498-1.881,2.75c0,1.169,0.684,2.17,1.667,2.651
	c-0.122,1.554-0.289,3-0.501,4.324c-1.376,0.669-2.333,2.068-2.333,3.702c0,0.926,0.315,1.771,0.83,2.459
	c-3.152,9.103-8.547,9.653-8.547,9.653H70h11.845C81.845,93.604,76.451,93.054,73.299,83.952z"/>
<linearGradient id="SVGID_3_" gradientUnits="userSpaceOnUse" x1="110.1445" y1="50.0308" x2="76.2266" y2="50.0308">
	<stop  offset="0" style="stop-color:#DA1036;stop-opacity:0"/>
	<stop  offset="0.6489" style="stop-color:#DA1036;stop-opacity:0.25"/>
</linearGradient>
<path fill="url(#SVGID_3_)" d="M77.842,66.179h-1.615v-3.229h1.615c11.399,0,19.743-4.056,24.797-12.054
	c3.818-6.044,4.27-12.216,4.271-12.278c0.026-0.405-0.104-0.785-0.369-1.066c-0.265-0.283-0.635-0.438-1.045-0.438h-12.48v-3.23
	h12.48c1.311,0,2.517,0.518,3.399,1.457c0.882,0.939,1.322,2.177,1.239,3.484c-0.019,0.28-0.482,6.945-4.688,13.675
	C101.544,58.739,93.588,66.179,77.842,66.179z"/>
<linearGradient id="SVGID_4_" gradientUnits="userSpaceOnUse" x1="29.8564" y1="50.0312" x2="63.7754" y2="50.0312">
	<stop  offset="0" style="stop-color:#DA1036;stop-opacity:0"/>
	<stop  offset="0.6489" style="stop-color:#DA1036;stop-opacity:0.25"/>
</linearGradient>
<path fill="url(#SVGID_4_)" d="M63.775,66.179h-1.616c-15.746,0-23.703-7.439-27.604-13.68c-4.208-6.729-4.672-13.395-4.689-13.675
	c-0.083-1.307,0.357-2.545,1.238-3.484c0.883-0.939,2.09-1.457,3.399-1.457h12.481v3.23H34.504c-0.408,0-0.779,0.155-1.043,0.438
	c-0.266,0.282-0.397,0.662-0.371,1.07c0.004,0.058,0.454,6.23,4.271,12.274c5.056,7.998,13.398,12.054,24.798,12.054h1.616V66.179z"
	/>
<path opacity="0.1" fill="#323232" d="M74.129,81.492c0-1.634-0.957-3.033-2.334-3.702c-0.211-1.324-0.378-2.771-0.5-4.325
	c0.983-0.48,1.666-1.481,1.666-2.65c0-1.252-0.78-2.317-1.88-2.75c0-0.103-0.004-0.198-0.004-0.301l-0.095,0.27
	c-0.31-0.109-0.637-0.18-0.982-0.18s-0.673,0.07-0.98,0.18l-0.096-0.27c0,0.103-0.004,0.198-0.004,0.3
	c-1.1,0.433-1.881,1.498-1.881,2.75c0,1.169,0.684,2.17,1.667,2.651c-0.122,1.554-0.289,3-0.501,4.324
	c-0.899,0.438-1.613,1.189-2.004,2.112c1.504,1.42,3.903,2.688,7.694,2.936C74.045,82.417,74.129,81.965,74.129,81.492z"/>
<g opacity="0.1">
	<g>
		<path fill="#323232" d="M95.479,58.286c-4.666,3.098-10.562,4.663-17.637,4.663h-1.615v3.229h1.615
			c5.439,0,9.93-0.901,13.664-2.32C92.885,62.206,94.223,60.359,95.479,58.286z"/>
		<path fill="#323232" d="M93.016,37.114h9.938c0.174-1.048,0.33-2.127,0.469-3.23H93.016V37.114z"/>
	</g>
	<g>
		<path fill="#323232" d="M44.521,58.285c1.256,2.073,2.594,3.921,3.971,5.573c3.736,1.419,8.227,2.32,13.666,2.32h1.617v-3.229
			h-1.617C55.082,62.949,49.188,61.384,44.521,58.285z"/>
		<path fill="#323232" d="M36.578,33.883c0.139,1.103,0.295,2.182,0.469,3.23h9.938v-3.23H36.578z"/>
	</g>
</g>
<path fill="#FFD26E" d="M70,28.286H43.801C43.801,66.929,70,70.814,70,70.814s26.199-3.886,26.199-42.529H70z"/>
<polygon opacity="0.1" fill="#323232" points="53.312,100.816 86.688,107.108 86.688,95.758 53.312,95.758 "/>
</svg>
