<?xml version="1.0" encoding="utf-8"?>
<!-- Generator: Adobe Illustrator 16.0.0, SVG Export Plug-In . SVG Version: 6.00 Build 0)  -->
<!DOCTYPE svg PUBLIC "-//W3C//DTD SVG 1.1//EN" "http://www.w3.org/Graphics/SVG/1.1/DTD/svg11.dtd">
<svg version="1.1" id="Layer_1" xmlns="http://www.w3.org/2000/svg" xmlns:xlink="http://www.w3.org/1999/xlink" x="0px" y="0px"
	 width="140px" height="140px" viewBox="0 0 140 140" enable-background="new 0 0 140 140" xml:space="preserve">
<g>
	<g>
		<g>
			
				<rect x="21.202" y="58.94" transform="matrix(0.9962 -0.087 0.087 0.9962 -7.1104 2.793)" fill="#148C78" width="14.54" height="47.977"/>
			<polygon fill="#148C78" points="30.562,106.826 39.071,120.676 37.805,106.193 			"/>
			<polygon fill="#148C78" points="24.588,121.943 30.562,106.826 23.32,107.459 			"/>
		</g>
		<g>
			
				<rect x="7.202" y="58.94" transform="matrix(-0.9962 -0.087 0.087 -0.9962 21.6714 166.8024)" fill="#28A08C" width="14.54" height="47.978"/>
			<polygon fill="#28A08C" points="12.382,106.826 3.873,120.676 5.139,106.193 			"/>
			<polygon fill="#28A08C" points="18.356,121.943 12.382,106.826 19.624,107.459 			"/>
		</g>
	</g>
	<polygon fill="#3BBDB1" points="21.473,29.133 22.728,30.989 24.206,29.305 25.218,31.304 26.895,29.818 27.65,31.929 29.5,30.664 
		29.984,32.853 31.978,31.83 32.184,34.062 34.291,33.298 34.215,35.538 36.4,35.043 36.044,37.256 38.276,37.04 37.646,39.19 
		39.885,39.255 38.99,41.31 41.205,41.655 40.06,43.582 42.213,44.202 40.834,45.969 42.895,46.854 41.306,48.435 43.237,49.571 
		41.464,50.941 43.237,52.31 41.306,53.446 42.895,55.027 40.834,55.913 42.213,57.68 40.06,58.3 41.205,60.227 38.99,60.572 
		39.885,62.626 37.646,62.691 38.276,64.842 36.044,64.625 36.4,66.838 34.215,66.344 34.291,68.584 32.184,67.82 31.978,70.052 
		29.984,69.029 29.5,71.218 27.65,69.953 26.895,72.064 25.218,70.578 24.206,72.577 22.728,70.893 21.473,72.75 20.218,70.893 
		18.738,72.577 17.726,70.578 16.049,72.064 15.295,69.953 13.444,71.218 12.961,69.029 10.966,70.052 10.76,67.82 8.653,68.584 
		8.73,66.344 6.543,66.838 6.9,64.625 4.669,64.842 5.3,62.691 3.059,62.626 3.954,60.572 1.739,60.227 2.885,58.3 0.731,57.68 
		2.109,55.913 0.051,55.027 1.639,53.446 -0.293,52.31 1.482,50.941 -0.293,49.571 1.639,48.435 0.051,46.854 2.109,45.969 
		0.731,44.202 2.885,43.582 1.739,41.655 3.954,41.31 3.059,39.255 5.3,39.19 4.669,37.04 6.9,37.256 6.543,35.043 8.73,35.538 
		8.653,33.298 10.76,34.062 10.966,31.83 12.961,32.853 13.444,30.664 15.295,31.929 16.049,29.818 17.726,31.304 18.738,29.305 
		20.218,30.989 	"/>
	<circle fill="#FEFA39" cx="21.472" cy="50.941" r="18.174"/>
	<circle fill="#FFFFFF" cx="21.472" cy="50.941" r="16.356"/>
	<circle fill="#3BBDB1" cx="21.472" cy="50.941" r="14.539"/>
	<circle fill="#FEFA39" cx="21.472" cy="50.941" r="5.452"/>
	<g>
		<g>
			<path fill="#FFD26E" d="M95.021,61.934v25.369H81.838c0,0,11.984-1.199,11.984-28.764"/>
			<path fill="#FFD26E" d="M95.021,61.934v25.369h13.185c0,0-11.985-1.199-11.985-28.764"/>
			<circle fill="#FFD26E" cx="95.021" cy="61.934" r="3.296"/>
			<circle fill="#FFD26E" cx="95.021" cy="73.819" r="4.596"/>
			<rect x="81.838" y="87.303" fill="#FFD26E" width="26.368" height="2.396"/>
		</g>
		<g>
			<path fill="#FFD26E" d="M103.749,56.773h-1.797v-3.595h1.797c12.689,0,21.977-4.514,27.603-13.417
				c4.251-6.727,4.752-13.597,4.757-13.666c0.028-0.451-0.118-0.874-0.413-1.188s-0.707-0.487-1.162-0.487h-13.893v-3.596h13.893
				c1.459,0,2.802,0.576,3.783,1.622c0.982,1.046,1.472,2.423,1.38,3.878c-0.021,0.312-0.537,7.731-5.22,15.222
				C130.133,48.493,121.276,56.773,103.749,56.773z"/>
			<path fill="#FFD26E" d="M88.092,56.773h-1.798c-17.527,0-26.383-8.281-30.727-15.227c-4.683-7.491-5.201-14.91-5.221-15.222
				c-0.092-1.456,0.398-2.833,1.38-3.878c0.981-1.045,2.326-1.622,3.783-1.622h13.894v3.596H55.51c-0.454,0-0.868,0.173-1.162,0.487
				s-0.441,0.737-0.413,1.191c0.004,0.065,0.506,6.936,4.756,13.663c5.626,8.903,14.913,13.417,27.603,13.417h1.798V56.773z"/>
		</g>
		<g>
			<rect x="76.445" y="89.699" fill="#9F462F" width="37.153" height="22.471"/>
			<rect x="73.748" y="112.17" fill="#9F462F" width="42.547" height="4.195"/>
		</g>
		<g>
			<path fill="#FFD26E" d="M95.021,61.934c0,0-29.164-4.325-29.164-47.34h29.164V61.934z"/>
			<path fill="#FFD26E" d="M95.021,61.934c0,0,29.164-4.325,29.164-47.34H95.021V61.934z"/>
		</g>
	</g>
</g>
</svg>
