<svg width="48" height="26" viewBox="0 0 48 26" fill="none" xmlns="http://www.w3.org/2000/svg">
<g clip-path="url(#clip0_34_6157)">
<path fill-rule="evenodd" clip-rule="evenodd" d="M39.8597 4.06074C35.0878 6.31671 32.7019 8.96745 32.7019 12.013C34.7358 12.2386 36.4177 13.0376 37.7475 14.41C39.0774 15.7824 39.7423 17.3709 39.7423 19.1757C39.7423 21.0933 39.097 22.71 37.8062 24.026C36.5155 25.342 34.8923 26 32.9366 26C30.7462 26 28.8492 25.1446 27.2456 23.4338C25.6419 21.7231 24.8401 19.6457 24.8401 17.2017C24.8401 9.86981 29.1034 4.13596 37.6302 0L39.8597 4.06074ZM23.0196 4.06074C18.2086 6.31671 15.8031 8.96745 15.8031 12.013C17.8762 12.2386 19.5776 13.0376 20.9074 14.41C22.2373 15.7824 22.9022 17.3709 22.9022 19.1757C22.9022 21.0933 22.2471 22.71 20.9368 24.026C19.6265 25.342 17.9935 26 16.0378 26C13.8474 26 11.9602 25.1446 10.3761 23.4338C8.79204 21.7231 8 19.6457 8 17.2017C8 9.86981 12.2438 4.13596 20.7314 0L23.0196 4.06074Z" fill="#1DB5BE"/>
</g>
<defs>
<clipPath id="clip0_34_6157">
<rect width="32" height="26" fill="white" transform="translate(8)"/>
</clipPath>
</defs>
</svg>
