<?xml version="1.0" encoding="utf-8"?>
<!-- Generator: Adobe Illustrator 16.0.0, SVG Export Plug-In . SVG Version: 6.00 Build 0)  -->
<!DOCTYPE svg PUBLIC "-//W3C//DTD SVG 1.1//EN" "http://www.w3.org/Graphics/SVG/1.1/DTD/svg11.dtd">
<svg version="1.1" id="Layer_1" xmlns="http://www.w3.org/2000/svg" xmlns:xlink="http://www.w3.org/1999/xlink" x="0px" y="0px"
	 width="140px" height="140px" viewBox="0 0 140 140" enable-background="new 0 0 140 140" xml:space="preserve">
<circle fill="#FEFA39" cx="70" cy="70" r="70"/>
<g>
	<rect x="35.891" y="60.724" fill="#148C78" width="68.216" height="2.818"/>
	<rect x="61.544" y="67.728" fill="#C8C8C8" width="16.912" height="16.913"/>
	<rect x="55.905" y="84.641" fill="#C8C8C8" width="28.188" height="22.55"/>
	<rect x="61.544" y="82.949" opacity="0.15" fill="#323232" enable-background="new    " width="16.912" height="1.691"/>
	<g>
		<circle fill="#323232" cx="64.187" cy="75.126" r="1.409"/>
		<circle fill="#323232" cx="75.814" cy="75.126" r="1.409"/>
	</g>
	<path fill="#FF8232" d="M50.269,81.865V59.314h-5.638v22.595h0.001c0.024,6.197,5.071,11.231,11.273,11.231v-5.638
		C52.797,87.503,50.269,84.973,50.269,81.865z"/>
	<rect x="89.732" y="59.314" fill="#FF8232" width="5.637" height="22.595"/>
	<g>
		<path fill="#FF8232" d="M84.094,93.141c6.217,0,11.275-5.058,11.275-11.275h-5.637c0,3.107-2.528,5.638-5.639,5.638V93.141z"/>
	</g>
	<circle fill="#FF8232" cx="47.449" cy="59.314" r="2.818"/>
	<circle fill="#FF8232" cx="92.551" cy="59.314" r="2.818"/>
	<circle fill="#28A08C" cx="117.919" cy="62.134" r="16.913"/>
	<circle fill="#28A08C" cx="22.08" cy="62.134" r="16.913"/>
	<circle fill="#3BBDB1" cx="22.08" cy="59.314" r="14.094"/>
	<circle fill="#3BBDB1" cx="117.919" cy="59.314" r="14.094"/>
	<path opacity="0.3" fill="#DA1036" enable-background="new    " d="M44.917,84.353c1.137,5.023,5.627,8.788,10.988,8.788v-5.638
		c-3.108,0-5.638-2.53-5.638-5.638v-2.863L44.917,84.353z"/>
	<path opacity="0.3" fill="#DA1036" enable-background="new    " d="M95.083,84.353c-1.138,5.023-5.628,8.788-10.989,8.788v-5.638
		c3.109,0,5.639-2.53,5.639-5.638v-2.863L95.083,84.353z"/>
	<path opacity="0.6" fill="#DA1036" enable-background="new    " d="M70,80.046c1.558,0,2.818-1.262,2.818-2.819h-5.637
		C67.182,78.784,68.443,80.046,70,80.046z"/>
</g>
</svg>
