<?xml version="1.0" encoding="utf-8"?>
<!-- Generator: Adobe Illustrator 16.0.0, SVG Export Plug-In . SVG Version: 6.00 Build 0)  -->
<!DOCTYPE svg PUBLIC "-//W3C//DTD SVG 1.1//EN" "http://www.w3.org/Graphics/SVG/1.1/DTD/svg11.dtd">
<svg version="1.1" id="Layer_1" xmlns="http://www.w3.org/2000/svg" xmlns:xlink="http://www.w3.org/1999/xlink" x="0px" y="0px"
	 width="140px" height="140px" viewBox="0 0 140 140" enable-background="new 0 0 140 140" xml:space="preserve">
<g>
	<rect x="33.173" y="52.746" fill="#148C78" width="73.653" height="3.043"/>
	<rect x="60.87" y="60.308" fill="#C8C8C8" width="18.26" height="18.261"/>
	<rect x="54.782" y="78.568" fill="#C8C8C8" width="30.435" height="24.348"/>
	<rect x="60.87" y="76.742" opacity="0.15" fill="#323232" width="18.26" height="1.826"/>
	<g>
		<circle fill="#323232" cx="63.723" cy="68.296" r="1.522"/>
		<circle fill="#323232" cx="76.277" cy="68.296" r="1.522"/>
	</g>
	<path fill="#FF8232" d="M48.696,75.572V51.224h-6.087v24.395h0.002c0.026,6.691,5.475,12.127,12.171,12.127v-6.087
		C51.426,81.659,48.696,78.928,48.696,75.572z"/>
	<rect x="91.304" y="51.224" fill="#FF8232" width="6.087" height="24.395"/>
	<g>
		<path fill="#FF8232" d="M85.217,87.746c6.713,0,12.174-5.461,12.174-12.174h-6.087c0,3.355-2.729,6.087-6.087,6.087V87.746z"/>
	</g>
	<circle fill="#FF8232" cx="45.652" cy="51.224" r="3.043"/>
	<circle fill="#FF8232" cx="94.347" cy="51.224" r="3.043"/>
	<circle fill="#28A08C" cx="121.739" cy="54.268" r="18.261"/>
	<circle fill="#28A08C" cx="18.261" cy="54.268" r="18.261"/>
	<circle fill="#3BBDB1" cx="18.261" cy="51.224" r="15.218"/>
	<circle fill="#3BBDB1" cx="121.739" cy="51.224" r="15.217"/>
	<path opacity="0.3" fill="#DA1036" d="M42.918,78.258c1.227,5.424,6.076,9.488,11.864,9.488v-6.087
		c-3.356,0-6.087-2.731-6.087-6.087V72.48L42.918,78.258z"/>
	<path opacity="0.3" fill="#DA1036" d="M97.082,78.258c-1.228,5.424-6.076,9.488-11.865,9.488v-6.087
		c3.357,0,6.087-2.731,6.087-6.087V72.48L97.082,78.258z"/>
	<path opacity="0.6" fill="#DA1036" d="M70,73.607c1.681,0,3.043-1.361,3.043-3.043h-6.086C66.957,72.246,68.319,73.607,70,73.607z"
		/>
</g>
</svg>
