<?xml version="1.0" encoding="utf-8"?>
<!-- Generator: Adobe Illustrator 16.0.0, SVG Export Plug-In . SVG Version: 6.00 Build 0)  -->
<!DOCTYPE svg PUBLIC "-//W3C//DTD SVG 1.1//EN" "http://www.w3.org/Graphics/SVG/1.1/DTD/svg11.dtd">
<svg version="1.1" id="Layer_1" xmlns="http://www.w3.org/2000/svg" xmlns:xlink="http://www.w3.org/1999/xlink" x="0px" y="0px"
	 width="140px" height="140px" viewBox="0 0 140 140" enable-background="new 0 0 140 140" xml:space="preserve">
<circle fill="#DA1036" cx="70" cy="70" r="70"/>
<polygon fill="#E86E37" points="44.286,30.715 95.715,30.715 130,65 70,125 10,65 "/>
<path fill="#DA1036" d="M96.648,62.5L83.026,30.715h-4.694l-0.63,0.27L91.209,62.5H48.791l13.507-31.515l-0.63-0.27h-4.694
	L43.352,62.5H12.5L10,65l2.5,2.5h30.833l22.024,52.857L70,125l4.643-4.643L96.666,67.5H127.5L130,65l-2.5-2.5H96.648z M70,118.5
	l-21.25-51h42.5L70,118.5z"/>
</svg>
