<?xml version="1.0" encoding="utf-8"?>
<!-- Generator: Adobe Illustrator 16.0.0, SVG Export Plug-In . SVG Version: 6.00 Build 0)  -->
<!DOCTYPE svg PUBLIC "-//W3C//DTD SVG 1.1//EN" "http://www.w3.org/Graphics/SVG/1.1/DTD/svg11.dtd">
<svg version="1.1" id="Layer_1" xmlns="http://www.w3.org/2000/svg" xmlns:xlink="http://www.w3.org/1999/xlink" x="0px" y="0px"
	 width="140px" height="140px" viewBox="0 0 140 140" enable-background="new 0 0 140 140" xml:space="preserve">
<circle fill="#FF8232" cx="70" cy="70" r="70"/>
<polygon fill="#DA1036" points="46.439,31.663 93.561,31.663 124.975,63.077 70,118.051 15.025,63.077 "/>
<g>
	<linearGradient id="SVGID_1_" gradientUnits="userSpaceOnUse" x1="117.3369" y1="55.4399" x2="62.3621" y2="110.4147">
		<stop  offset="0" style="stop-color:#B31331"/>
		<stop  offset="0.5015" style="stop-color:#DA1036"/>
		<stop  offset="1" style="stop-color:#B31331"/>
	</linearGradient>
	<polygon fill="url(#SVGID_1_)" points="70,118.051 70,118.052 124.975,63.077 94.42,63.077 	"/>
</g>
<g>
	<linearGradient id="SVGID_2_" gradientUnits="userSpaceOnUse" x1="81.0859" y1="47.3701" x2="124.9746" y2="47.3701">
		<stop  offset="0" style="stop-color:#B31331"/>
		<stop  offset="0.5015" style="stop-color:#DA1036"/>
	</linearGradient>
	<polygon fill="url(#SVGID_2_)" points="124.975,63.077 93.561,31.663 81.086,31.663 94.42,63.077 	"/>
</g>
<g>
	<linearGradient id="SVGID_3_" gradientUnits="userSpaceOnUse" x1="22.6641" y1="55.4385" x2="77.6382" y2="110.4126">
		<stop  offset="0" style="stop-color:#B31331"/>
		<stop  offset="0.5015" style="stop-color:#DA1036"/>
		<stop  offset="1" style="stop-color:#B31331"/>
	</linearGradient>
	<polygon fill="url(#SVGID_3_)" points="45.581,63.077 15.025,63.077 70,118.051 70,118.051 	"/>
</g>
<polygon fill="#DA1036" points="70,118.051 70,118.051 70,118.052 "/>
<g>
	<linearGradient id="SVGID_4_" gradientUnits="userSpaceOnUse" x1="58.9141" y1="47.3701" x2="15.0249" y2="47.3701">
		<stop  offset="0" style="stop-color:#B31331"/>
		<stop  offset="0.5015" style="stop-color:#DA1036"/>
	</linearGradient>
	<polygon fill="url(#SVGID_4_)" points="58.914,31.663 46.439,31.663 15.025,63.077 45.581,63.077 	"/>
</g>
<g>
	<linearGradient id="SVGID_5_" gradientUnits="userSpaceOnUse" x1="70" y1="63.0771" x2="70" y2="118.0513">
		<stop  offset="0" style="stop-color:#B31331"/>
		<stop  offset="0.5015" style="stop-color:#DA1036"/>
	</linearGradient>
	<polygon fill="url(#SVGID_5_)" points="45.581,63.077 70,118.051 94.42,63.077 	"/>
</g>
<g>
	<linearGradient id="SVGID_6_" gradientUnits="userSpaceOnUse" x1="70" y1="31.6631" x2="70" y2="63.0771">
		<stop  offset="0" style="stop-color:#B31331"/>
		<stop  offset="0.5015" style="stop-color:#DA1036"/>
	</linearGradient>
	<polygon fill="url(#SVGID_6_)" points="94.42,63.077 81.086,31.663 58.914,31.663 45.581,63.077 	"/>
</g>
</svg>
