<?xml version="1.0" encoding="utf-8"?>
<!-- Generator: Adobe Illustrator 16.0.0, SVG Export Plug-In . SVG Version: 6.00 Build 0)  -->
<!DOCTYPE svg PUBLIC "-//W3C//DTD SVG 1.1//EN" "http://www.w3.org/Graphics/SVG/1.1/DTD/svg11.dtd">
<svg version="1.1" id="Layer_1" xmlns="http://www.w3.org/2000/svg" xmlns:xlink="http://www.w3.org/1999/xlink" x="0px" y="0px"
	 width="140px" height="140px" viewBox="0 0 140 140" enable-background="new 0 0 140 140" xml:space="preserve">
<g>
	<path opacity="0.5" fill="#FF8232" d="M29.304,55.75c-0.289-1.188-0.286-2.279,0.076-3.25c3.75-6.25,2.75-17.5,70-20l-1.25-3.368
		c0,0-83.42,1.351-77.456,26.618H29.304z"/>
	<g>
		<path fill="#C8C8C8" d="M86.674,49.396C87.086,12.969,70.809,0.006,70.801,0c-0.008,0.006-16.285,12.969-15.873,49.396h-0.011
			v39.673h5.848h10.036h10.037h5.848V49.396H86.674z"/>
		<polygon fill="#148C78" points="86.227,101.379 55.299,101.379 57.748,89.068 83.775,89.068 		"/>
		<circle fill="#323232" cx="70.801" cy="40.222" r="12.466"/>
		<circle opacity="0.3" fill="#3BBDB1" cx="70.801" cy="40.222" r="9.173"/>
		<rect x="54.049" y="84.254" fill="#28A08C" width="33.503" height="9.408"/>
		<path fill="#28A08C" d="M38.453,101.379c0,0-2.823-23.208,4.547-29.48c7.371-6.273,11.917-3.607,11.917-13.643v23.993
			C54.918,82.248,38.453,81.777,38.453,101.379z"/>
		<path fill="#28A08C" d="M103.15,101.379c0,0,2.822-23.208-4.547-29.48c-7.371-6.273-11.918-3.607-11.918-13.643v23.993
			C86.686,82.248,103.15,81.777,103.15,101.379z"/>
		<path fill="#ED462F" d="M57.563,101.379c0,0-8.203,5.69-3.514,14.746c0,0-0.838-7.174,5.866-6.351c0,0-5.88,10.468,3.646,19.405
			c4.47,4.352,4.821,9.409-1.176,10.82c0,0,33.377-1.268,20.883-38.621"/>
	</g>
	<polygon fill="#FEFA39" points="100.184,35.613 92.775,37.053 96.137,30.297 92.479,23.698 99.943,24.808 105.088,19.288 
		106.34,26.73 113.18,29.918 106.488,33.408 105.568,40.897 	"/>
	<path opacity="0.5" fill="#FF8232" d="M29.304,55.75h-8.629c1.938,8.214,13.317,18.955,40.088,33c52.868,30,58.868,32,58.868,32
		S34.005,75.051,29.304,55.75z"/>
</g>
</svg>
