<?xml version="1.0" encoding="utf-8"?>
<!-- Generator: Adobe Illustrator 16.0.0, SVG Export Plug-In . SVG Version: 6.00 Build 0)  -->
<!DOCTYPE svg PUBLIC "-//W3C//DTD SVG 1.1//EN" "http://www.w3.org/Graphics/SVG/1.1/DTD/svg11.dtd">
<svg version="1.1" id="Layer_1" xmlns="http://www.w3.org/2000/svg" xmlns:xlink="http://www.w3.org/1999/xlink" x="0px" y="0px"
	 width="140px" height="140px" viewBox="0 0 140 140" enable-background="new 0 0 140 140" xml:space="preserve">
<circle fill="#FEFA39" cx="70.017" cy="70.017" r="70"/>
<g>
	<path fill="#FFFFFF" d="M87.468,57.445c8.424-30.068-2.177-44.412-2.182-44.418c-0.008,0.003-16.359,7.125-24.1,37.376
		l-0.008-0.002l-8.801,32.847l4.842,1.297l8.308,2.227l8.31,2.227l4.842,1.297l8.802-32.846L87.468,57.445z"/>
	<polygon fill="#DA1036" points="75.567,100.386 49.96,93.524 54.72,83.875 76.269,89.649 	"/>
	
		<rect x="51.192" y="82.647" transform="matrix(-0.9659 -0.2588 0.2588 -0.9659 106.4331 187.3719)" fill="#DA1036" width="28.717" height="8.065"/>
	<path opacity="0.1" fill="#323232" enable-background="new    " d="M66.041,43.564c-1.814,6.77,1.337,13.495,7.037,15.022
		s11.793-2.722,13.606-9.491l0,0L66.041,43.564L66.041,43.564z"/>
	<path fill="#FF8232" d="M51.835,94.026c0,0-8.054,2.892-6.181,11.43c0,0,0.898-6.126,6.266-3.958c0,0-7.191,7.365-1.287,16.877
		c2.735,4.594,1.904,8.858-3.374,8.697c0,0,27.915,6.354,25.857-27.344"/>
	<polygon opacity="0.2" fill="#323232" enable-background="new    " points="52.019,89.353 75.87,95.743 76.007,93.656 
		52.943,87.477 	"/>
	<circle fill="#DA1036" cx="76.363" cy="46.329" r="10.685"/>
	<circle opacity="0.2" fill="#323232" enable-background="new    " cx="76.363" cy="46.329" r="8.738"/>
	<circle opacity="0.2" fill="#323232" enable-background="new    " cx="76.363" cy="46.328" r="7.87"/>
	<g>
		<path fill="#DA1036" d="M90.415,97.52l0.002-0.002c0,0,0.35,3.801,2.142-2.803c1.389-5.658,2.255-12.428-0.203-15.992
			c-4.711-6.828-9.067-5.63-6.841-13.939L80.192,84.65C80.191,84.648,90.014,86.983,90.415,97.52z"/>
		<path opacity="0.2" fill="#323232" enable-background="new    " d="M88.162,74.076c-2.626-2.381-4.165-3.63-2.648-9.292
			L80.19,84.649c0.001-0.001,5.984,1.424,8.802,7.06L88.162,74.076z"/>
	</g>
	<g>
		<path fill="#DA1036" d="M38.601,83.635v-0.002c0,0-2.203,3.117-0.454-3.498c1.626-5.594,4.26-11.89,8.172-13.749
			c7.494-3.558,10.667-0.342,12.893-8.651l-5.323,19.866C53.891,77.602,44.217,74.712,38.601,83.635z"/>
		<path opacity="0.2" fill="#323232" enable-background="new    " d="M42.739,79.315c5.257-3.472,11.152-1.714,11.151-1.713
			l5.323-19.866c-1.517,5.662-3.475,5.973-6.939,6.722L42.739,79.315z"/>
	</g>
	<path opacity="0.1" fill="#323232" enable-background="new    " d="M59.681,55.991l-6.236,23.271l7.655,2.051
		C61.1,81.312,54.666,74.707,59.681,55.991z"/>
	<path opacity="0.1" fill="#323232" enable-background="new    " d="M85.981,63.038l-6.234,23.271l-7.655-2.051
		C72.092,84.258,80.966,81.754,85.981,63.038z"/>
	<path fill="#DA1036" d="M73.941,22.974l16.196,4.34c-1.398-9.601-4.849-14.282-4.852-14.286
		C85.282,13.029,79.953,15.359,73.941,22.974z"/>
	<path opacity="0.2" enable-background="new    " d="M70.059,98.91c0,0,1.79,15.211-8.619,19.928c0,0,4.186-3.709,2.588-9.658
		c0,0-9.352,0.772-7.22,13.422c0,0-11.447-13.174-1.055-22.305c0,0-2.296-2.297-5.869-0.795c0,0,1.79-3.943,6.933-4.141
		L70.059,98.91z"/>
	<path opacity="0.2" enable-background="new    " d="M68.939,98.609c0,0,1.131,5.438-2.567,10.681c0,0-0.043-4.347-2.186-6.495
		c0,0-4.509,0.948-7.056,7.577c0,0-2.161-7.632,3.662-11.054c0,0-3.012-2.079-6.051-1.039c0,0,0.784-2.123,3.444-2.551
		L68.939,98.609z"/>
</g>
<polygon opacity="0.8" fill="#FFFFFF" points="42.117,23.591 38.418,24.753 39.746,21.11 37.499,17.951 41.374,18.089 
	43.684,14.975 44.75,18.703 48.425,19.938 45.209,22.104 45.17,25.98 "/>
<polygon fill="#FFFFFF" points="120.044,65.215 115.835,68.967 115.417,63.344 110.548,60.5 115.767,58.365 116.968,52.856 
	120.61,57.16 126.221,56.599 123.253,61.394 125.52,66.556 "/>
<polygon fill="#FFFFFF" points="20.133,58.786 14.276,62.973 14.517,55.778 8.725,51.501 15.642,49.506 17.92,42.677 21.954,48.639 
	29.153,48.695 24.73,54.375 26.9,61.238 "/>
<polygon opacity="0.8" fill="#FFFFFF" points="17.812,74.894 15.518,72.497 18.816,72.135 20.388,69.211 21.751,72.236 
	25.016,72.828 22.561,75.059 23.008,78.348 20.126,76.701 17.138,78.143 "/>
<polygon fill="#FFFFFF" points="85.409,112.963 80.819,112.539 83.947,109.154 82.932,104.66 87.117,106.588 91.079,104.234 
	90.538,108.811 94.001,111.85 89.481,112.75 87.66,116.982 "/>
<polygon opacity="0.8" fill="#FFFFFF" points="79.702,124.746 80.482,121.152 82.86,123.957 86.52,123.589 84.586,126.718 
	86.067,130.084 82.494,129.212 79.751,131.66 79.476,127.992 76.3,126.141 "/>
<polygon opacity="0.8" fill="#FFFFFF" points="127.661,79.746 125.221,78.926 127.356,77.488 127.383,74.914 129.41,76.5 
	131.867,75.729 130.984,78.148 132.476,80.246 129.903,80.154 128.368,82.222 "/>
<polygon opacity="0.8" fill="#FFFFFF" points="120.329,104.082 118.944,102.081 121.375,102.199 122.851,100.266 123.488,102.611 
	125.784,103.418 123.749,104.75 123.691,107.182 121.796,105.658 119.465,106.355 "/>
</svg>
