<?xml version="1.0" encoding="utf-8"?>
<!-- Generator: Adobe Illustrator 16.0.0, SVG Export Plug-In . SVG Version: 6.00 Build 0)  -->
<!DOCTYPE svg PUBLIC "-//W3C//DTD SVG 1.1//EN" "http://www.w3.org/Graphics/SVG/1.1/DTD/svg11.dtd">
<svg version="1.1" id="Layer_1" xmlns="http://www.w3.org/2000/svg" xmlns:xlink="http://www.w3.org/1999/xlink" x="0px" y="0px"
	 width="140px" height="140px" viewBox="0 0 140 140" enable-background="new 0 0 140 140" xml:space="preserve">
<path fill="#3BBDB1" d="M70,0C31.34,0,0,31.34,0,70c0,19.33,7.835,36.83,20.502,49.498l98.996-98.996C106.83,7.835,89.33,0,70,0z"/>
<path fill="#28968C" d="M20.502,119.498C33.17,132.165,50.67,140,70,140c38.66,0,70-31.34,70-70c0-19.33-7.835-36.83-20.502-49.498
	L20.502,119.498z"/>
<path fill="#FFFFFF" d="M83.604,52.34C83.958,21.116,70.006,10.005,70,10c-0.007,0.005-13.958,11.116-13.605,42.34h-0.009v34.005
	h5.013H70h8.603h5.013V52.34H83.604z"/>
<polygon fill="#DA1036" points="83.222,96.896 56.712,96.896 58.812,86.345 81.12,86.345 "/>
<rect x="55.641" y="82.218" fill="#DA1036" width="28.717" height="8.064"/>
<path fill="#DA1036" d="M42.273,96.896c0,0-2.42-19.892,3.897-25.27c6.318-5.376,10.215-3.091,10.215-11.693V80.5
	C56.385,80.498,42.273,80.095,42.273,96.896z"/>
<path fill="#DA1036" d="M97.728,96.896c0,0,2.419-19.892-3.897-25.27c-6.317-5.376-10.215-3.091-10.215-11.693V80.5
	C83.615,80.498,97.728,80.095,97.728,96.896z"/>
<path opacity="0.25" fill="#28A08C" d="M59.314,44.477c0,7.009,4.784,12.689,10.685,12.689c5.901,0,10.686-5.681,10.686-12.689v0
	L59.314,44.477L59.314,44.477z"/>
<path fill="#DA1036" d="M42.273,96.896c0,0-2.42-19.892,3.897-25.27c6.318-5.376,10.215-3.091,10.215-11.693V80.5
	C56.385,80.498,42.273,80.095,42.273,96.896z"/>
<path fill="#FEFA39" d="M58.653,96.896c0,0-7.031,4.877-3.012,12.64c0,0-0.718-6.149,5.028-5.444c0,0-5.04,8.974,3.125,16.634
	c3.831,3.73,4.132,8.064-1.008,9.274c0,0,28.609-1.088,17.9-33.104"/>
<polygon fill="#FEFA39" points="100.184,35.613 92.775,37.053 96.137,30.297 92.479,23.698 99.943,24.808 105.088,19.288 
	106.34,26.73 113.18,29.918 106.488,33.408 105.568,40.897 "/>
<rect x="56.385" y="76.5" fill="#862134" width="27.23" height="5.718"/>
<polygon opacity="0.5" fill="#862134" points="57.62,92.334 82.312,92.334 81.904,90.282 58.028,90.282 "/>
<path opacity="0.5" fill="#862134" d="M88.578,68.223c-3.152-1.62-4.963-2.427-4.963-8.289V80.5c0-0.001,6.149-0.174,10.329,4.541
	L88.578,68.223z"/>
<path opacity="0.5" fill="#862134" d="M51.422,68.223c3.152-1.62,4.963-2.427,4.963-8.289V80.5c0-0.001-6.149-0.174-10.329,4.541
	L51.422,68.223z"/>
<circle fill="#DA1036" cx="70" cy="44.476" r="10.685"/>
<circle fill="#862134" cx="70" cy="44.476" r="7.863"/>
</svg>
