<?xml version="1.0" encoding="utf-8"?>
<!-- Generator: Adobe Illustrator 16.0.0, SVG Export Plug-In . SVG Version: 6.00 Build 0)  -->
<!DOCTYPE svg PUBLIC "-//W3C//DTD SVG 1.1//EN" "http://www.w3.org/Graphics/SVG/1.1/DTD/svg11.dtd">
<svg version="1.1" id="Layer_1" xmlns="http://www.w3.org/2000/svg" xmlns:xlink="http://www.w3.org/1999/xlink" x="0px" y="0px"
	 width="140px" height="140px" viewBox="0 0 140 140" enable-background="new 0 0 140 140" xml:space="preserve">
<circle fill="#FEFA39" cx="70" cy="70" r="70"/>
<linearGradient id="SVGID_1_" gradientUnits="userSpaceOnUse" x1="69.9995" y1="26" x2="69.9995" y2="114.0005">
	<stop  offset="0" style="stop-color:#DA1036;stop-opacity:0"/>
	<stop  offset="0.5812" style="stop-color:#DA1036;stop-opacity:0.25"/>
</linearGradient>
<rect x="26" y="26" opacity="0.75" fill="url(#SVGID_1_)" width="88" height="88"/>
<rect x="56.667" y="56.667" fill="#DA1036" width="26.666" height="26.667"/>
<rect x="64.667" y="64.666" opacity="0.5" fill="#9F3A7F" width="10.666" height="10.668"/>
<g opacity="0.5">
	<polygon fill="#9F3A7F" points="62,62 62,56.667 70,62 	"/>
	<polygon fill="#9F3A7F" points="62,78 62,83.334 70,78 	"/>
	<polygon fill="#9F3A7F" points="78,78 78,83.334 70,78 	"/>
	<polygon fill="#9F3A7F" points="78,62 78,56.667 70,62 	"/>
</g>
<g opacity="0.5">
	<polygon fill="#9F3A7F" points="62,78 56.667,78 62,70 	"/>
	<polygon fill="#9F3A7F" points="78,78 83.333,78 78,70 	"/>
	<polygon fill="#9F3A7F" points="78,62 83.333,62 78,70 	"/>
	<polygon fill="#9F3A7F" points="62,62 56.667,62 62,70 	"/>
</g>
<rect x="67.333" y="67.333" fill="#DA1036" width="5.334" height="5.333"/>
<rect x="30" y="30" fill="#DA1036" width="26.667" height="26.667"/>
<rect x="38" y="37.999" opacity="0.5" fill="#9F3A7F" width="10.667" height="10.668"/>
<g opacity="0.5">
	<polygon fill="#9F3A7F" points="35.333,35.333 35.333,30 43.333,35.333 	"/>
	<polygon fill="#9F3A7F" points="35.333,51.333 35.333,56.667 43.333,51.333 	"/>
	<polygon fill="#9F3A7F" points="51.333,51.333 51.333,56.667 43.333,51.333 	"/>
	<polygon fill="#9F3A7F" points="51.333,35.333 51.333,30 43.333,35.333 	"/>
</g>
<g opacity="0.5">
	<polygon fill="#9F3A7F" points="35.333,51.333 30,51.333 35.333,43.333 	"/>
	<polygon fill="#9F3A7F" points="51.333,51.333 56.667,51.333 51.333,43.333 	"/>
	<polygon fill="#9F3A7F" points="51.333,35.333 56.667,35.333 51.333,43.333 	"/>
	<polygon fill="#9F3A7F" points="35.333,35.333 30,35.333 35.333,43.333 	"/>
</g>
<rect x="40.667" y="40.667" fill="#DA1036" width="5.333" height="5.333"/>
<polygon fill="#DA1036" points="88.667,43.333 88.667,51.333 110,51.333 110,56.667 83.333,56.667 83.333,35.333 "/>
<polygon opacity="0.5" fill="#9F3A7F" points="88.667,51.333 88.667,56.667 96.667,51.333 "/>
<polygon opacity="0.5" fill="#9F3A7F" points="96.667,51.333 104.667,56.667 104.667,51.333 "/>
<polygon opacity="0.5" fill="#9F3A7F" points="83.333,51.333 88.667,51.333 88.667,43.333 "/>
<g>
	<rect x="83.333" y="56.667" fill="#FF8232" width="26.667" height="26.667"/>
	<rect x="91.333" y="64.666" opacity="0.65" fill="#3BBDB1" width="10.667" height="10.668"/>
	<polygon opacity="0.65" fill="#3BBDB1" points="88.667,62 88.667,56.667 96.667,62 	"/>
	<polygon opacity="0.65" fill="#3BBDB1" points="88.667,78 88.667,83.334 96.667,78 	"/>
	<polygon opacity="0.65" fill="#3BBDB1" points="104.667,78 104.667,83.334 96.667,78 	"/>
	<polygon opacity="0.65" fill="#3BBDB1" points="104.667,62 104.667,56.667 96.667,62 	"/>
	<polygon opacity="0.65" fill="#3BBDB1" points="88.667,78 83.333,78 88.667,70 	"/>
	<polygon opacity="0.65" fill="#3BBDB1" points="104.667,78 110,78 104.667,70 	"/>
	<polygon opacity="0.8" fill="#3BBDB1" points="104.667,62 110,62 104.667,70 	"/>
	<polygon opacity="0.65" fill="#3BBDB1" points="88.667,62 83.333,62 88.667,70 	"/>
	<rect x="94" y="67.333" fill="#FF8232" width="5.333" height="5.333"/>
</g>
<g>
	<rect x="29.999" y="56.667" fill="#FF8232" width="26.667" height="26.667"/>
	<rect x="37.999" y="64.666" opacity="0.65" fill="#3BBDB1" width="10.667" height="10.668"/>
	<polygon opacity="0.65" fill="#3BBDB1" points="35.333,62 35.333,56.667 43.333,62 	"/>
	<polygon opacity="0.65" fill="#3BBDB1" points="35.333,78 35.333,83.334 43.333,78 	"/>
	<polygon opacity="0.65" fill="#3BBDB1" points="51.333,78 51.333,83.334 43.333,78 	"/>
	<polygon opacity="0.65" fill="#3BBDB1" points="51.333,62 51.333,56.667 43.333,62 	"/>
	<polygon opacity="0.65" fill="#3BBDB1" points="35.333,78 29.999,78 35.333,70 	"/>
	<polygon opacity="0.65" fill="#3BBDB1" points="51.333,78 56.666,78 51.333,70 	"/>
	<polygon opacity="0.8" fill="#3BBDB1" points="51.333,62 56.666,62 51.333,70 	"/>
	<polygon opacity="0.65" fill="#3BBDB1" points="35.333,62 29.999,62 35.333,70 	"/>
	<rect x="40.666" y="67.333" fill="#FF8232" width="5.333" height="5.333"/>
</g>
<polygon fill="#FF8232" points="56.667,35.333 56.667,51.333 62.001,43.333 "/>
<rect x="56.667" y="51.333" fill="#FF8232" width="5.334" height="5.333"/>
<path fill="#FF8232" d="M62.001,35.333v8v8h8h8v-8v-8h-8H62.001z M75.334,48.667H64.667V38h10.667V48.667z"/>
<polygon fill="#FF8232" points="62.001,56.667 78.001,56.667 70.001,51.333 "/>
<rect x="56.667" y="30" fill="#FF8232" width="5.334" height="5.333"/>
<polygon fill="#FF8232" points="83.334,51.333 83.334,35.333 78.001,43.333 "/>
<rect x="78.001" y="51.333" fill="#FF8232" width="5.333" height="5.333"/>
<path fill="#FF8232" d="M64.667,48.667h10.667V38H64.667V48.667z M67.334,40.667h5.333V46h-5.333V40.667z"/>
<path opacity="0.65" fill="#3BBDB1" d="M64.667,48.667h10.667V38H64.667V48.667z M67.334,40.667h5.333V46h-5.333V40.667z"/>
<polygon fill="#FF8232" points="70.001,35.333 62.001,30 62.001,35.333 "/>
<polygon opacity="0.65" fill="#3BBDB1" points="70.001,35.333 62.001,30 62.001,35.333 "/>
<polygon fill="#FF8232" points="62.001,51.333 62.001,56.667 70.001,51.333 "/>
<polygon opacity="0.65" fill="#3BBDB1" points="62.001,51.333 62.001,56.667 70.001,51.333 "/>
<polygon fill="#FF8232" points="70.001,51.333 78.001,56.667 78.001,51.333 "/>
<polygon opacity="0.65" fill="#3BBDB1" points="70.001,51.333 78.001,56.667 78.001,51.333 "/>
<polygon fill="#FF8232" points="62.001,43.333 56.667,51.333 62.001,51.333 "/>
<polygon opacity="0.65" fill="#3BBDB1" points="62.001,43.333 56.667,51.333 62.001,51.333 "/>
<polygon fill="#FF8232" points="78.001,51.333 83.334,51.333 78.001,43.333 "/>
<polygon opacity="0.65" fill="#3BBDB1" points="78.001,51.333 83.334,51.333 78.001,43.333 "/>
<polygon fill="#FF8232" points="78.001,43.333 83.334,35.333 78.001,35.333 "/>
<polygon opacity="0.8" fill="#3BBDB1" points="78.001,43.333 83.334,35.333 78.001,35.333 "/>
<polygon fill="#FF8232" points="62.001,35.333 56.667,35.333 62.001,43.333 "/>
<polygon opacity="0.65" fill="#3BBDB1" points="62.001,35.333 56.667,35.333 62.001,43.333 "/>
<rect x="67.334" y="40.667" fill="#FF8232" width="5.333" height="5.333"/>
<g>
	<rect x="56.667" y="83.334" fill="#FF8232" width="26.667" height="26.666"/>
	<rect x="64.667" y="91.333" opacity="0.65" fill="#3BBDB1" width="10.667" height="10.667"/>
	<polygon opacity="0.65" fill="#3BBDB1" points="62.001,88.667 62.001,83.334 70.001,88.667 	"/>
	<polygon opacity="0.65" fill="#3BBDB1" points="62.001,104.667 62.001,110 70.001,104.667 	"/>
	<polygon opacity="0.65" fill="#3BBDB1" points="78.001,104.667 78.001,110 70.001,104.667 	"/>
	<polygon opacity="0.65" fill="#3BBDB1" points="78.001,88.667 78.001,83.334 70.001,88.667 	"/>
	<polygon opacity="0.65" fill="#3BBDB1" points="62.001,104.667 56.667,104.667 62.001,96.667 	"/>
	<polygon opacity="0.65" fill="#3BBDB1" points="78.001,104.667 83.334,104.667 78.001,96.667 	"/>
	<polygon opacity="0.8" fill="#3BBDB1" points="78.001,88.667 83.334,88.667 78.001,96.667 	"/>
	<polygon opacity="0.65" fill="#3BBDB1" points="62.001,88.667 56.667,88.667 62.001,96.667 	"/>
	<rect x="67.334" y="94" fill="#FF8232" width="5.333" height="5.334"/>
</g>
<rect x="30" y="83.334" fill="#DA1036" width="26.667" height="26.666"/>
<rect x="38" y="91.334" opacity="0.5" fill="#9F3A7F" width="10.667" height="10.667"/>
<g opacity="0.5">
	<polygon fill="#9F3A7F" points="35.333,88.667 35.333,83.334 43.333,88.667 	"/>
	<polygon fill="#9F3A7F" points="35.333,104.667 35.333,110 43.333,104.667 	"/>
	<polygon fill="#9F3A7F" points="51.333,104.667 51.333,110 43.333,104.667 	"/>
	<polygon fill="#9F3A7F" points="51.333,88.667 51.333,83.334 43.333,88.667 	"/>
</g>
<g opacity="0.5">
	<polygon fill="#9F3A7F" points="35.333,104.667 30,104.667 35.333,96.667 	"/>
	<polygon fill="#9F3A7F" points="51.333,104.667 56.667,104.667 51.333,96.667 	"/>
	<polygon fill="#9F3A7F" points="51.333,88.667 56.667,88.667 51.333,96.667 	"/>
	<polygon fill="#9F3A7F" points="35.333,88.667 30,88.667 35.333,96.667 	"/>
</g>
<rect x="40.667" y="94" fill="#DA1036" width="5.333" height="5.334"/>
<rect x="83.333" y="83.334" fill="#DA1036" width="26.667" height="26.666"/>
<rect x="91.333" y="91.334" opacity="0.5" fill="#9F3A7F" width="10.667" height="10.667"/>
<g opacity="0.5">
	<polygon fill="#9F3A7F" points="88.667,88.667 88.667,83.334 96.667,88.667 	"/>
	<polygon fill="#9F3A7F" points="88.667,104.667 88.667,110 96.667,104.667 	"/>
	<polygon fill="#9F3A7F" points="104.667,104.667 104.667,110 96.667,104.667 	"/>
	<polygon fill="#9F3A7F" points="104.667,88.667 104.667,83.334 96.667,88.667 	"/>
</g>
<g opacity="0.5">
	<polygon fill="#9F3A7F" points="88.667,104.667 83.333,104.667 88.667,96.667 	"/>
	<polygon fill="#9F3A7F" points="104.667,104.667 110,104.667 104.667,96.667 	"/>
	<polygon fill="#9F3A7F" points="104.667,88.667 110,88.667 104.667,96.667 	"/>
	<polygon fill="#9F3A7F" points="88.667,88.667 83.333,88.667 88.667,96.667 	"/>
</g>
<rect x="94" y="94" fill="#DA1036" width="5.333" height="5.334"/>
<g>
	<path fill="#DA1036" d="M115.473,57.325c-0.621,0-1.245-0.09-1.871-0.27c-5.653-1.626-9.516-10.006-9.677-10.362
		c-2.857-5.534-5.781-8.35-8.682-8.35c-0.011,0-0.021,0-0.032,0c-3.913,0.028-6.57,5.273-6.597,5.326
		c-0.122,0.248-0.425,0.347-0.67,0.225c-0.247-0.123-0.348-0.423-0.225-0.67c0.118-0.239,2.964-5.848,7.483-5.881
		c0.014,0,0.026,0,0.04,0c3.305,0,6.527,2.999,9.581,8.914c0.049,0.105,3.846,8.34,9.056,9.837c1.715,0.495,3.422,0.188,5.074-0.905
		c0.604-0.477,1.747-2.023,1.514-4.289c-0.265-2.554-2.368-6.486-10.896-10.713c-0.248-0.123-0.349-0.422-0.227-0.67
		c0.124-0.248,0.424-0.348,0.67-0.226c8.936,4.429,11.157,8.701,11.446,11.505c0.279,2.7-1.136,4.583-1.924,5.202
		C118.202,56.884,116.845,57.325,115.473,57.325z"/>
</g>
<g opacity="0.3">
	<path fill="#323232" d="M115.473,57.325c-0.621,0-1.245-0.09-1.871-0.27c-5.653-1.626-9.516-10.006-9.677-10.362
		c-2.857-5.534-5.781-8.35-8.682-8.35c-0.011,0-0.021,0-0.032,0c-3.913,0.028-6.57,5.273-6.597,5.326
		c-0.122,0.248-0.425,0.347-0.67,0.225c-0.247-0.123-0.348-0.423-0.225-0.67c0.118-0.239,2.964-5.848,7.483-5.881
		c0.014,0,0.026,0,0.04,0c3.305,0,6.527,2.999,9.581,8.914c0.049,0.105,3.846,8.34,9.056,9.837c1.715,0.495,3.422,0.188,5.074-0.905
		c0.604-0.477,1.747-2.023,1.514-4.289c-0.265-2.554-2.368-6.486-10.896-10.713c-0.248-0.123-0.349-0.422-0.227-0.67
		c0.124-0.248,0.424-0.348,0.67-0.226c8.936,4.429,11.157,8.701,11.446,11.505c0.279,2.7-1.136,4.583-1.924,5.202
		C118.202,56.884,116.845,57.325,115.473,57.325z"/>
</g>
<path fill="#989635" d="M110.807,41.741c0.697,0.696,1.554,0.968,1.915,0.607c0.36-0.361,0.09-1.218-0.607-1.915L84.325,13.952
	l24.08,24.081c0.128-0.127,0.825,0.363,1.558,1.096c0.733,0.733,1.225,1.431,1.097,1.558s-0.825-0.364-1.559-1.096
	c-0.731-0.732-1.222-1.429-1.096-1.558l-24.08-24.081L110.807,41.741L110.807,41.741z"/>
<g>
	<path fill="#DA1036" d="M119.994,52.991c-0.639,0-1.27-0.103-1.89-0.309c-5.851-1.939-8.643-12.374-8.758-12.817
		c-0.07-0.267,0.09-0.54,0.356-0.61c0.271-0.068,0.54,0.09,0.61,0.357c0.027,0.103,2.77,10.353,8.106,12.121
		c1.919,0.635,3.988,0.074,6.157-1.661c0.785-0.643,1.175-1.362,1.187-2.194c0.027-2.048-2.242-4.035-2.266-4.054
		c-0.209-0.181-0.231-0.497-0.051-0.706c0.182-0.209,0.496-0.231,0.705-0.051c0.107,0.094,2.645,2.316,2.611,4.825
		c-0.016,1.13-0.539,2.125-1.558,2.958C123.425,52.276,121.68,52.991,119.994,52.991z"/>
</g>
<polyline fill="#DA1036" points="87.274,41.245 88.667,43.333 87.467,45.133 "/>
</svg>
