<?xml version="1.0" encoding="utf-8"?>
<!-- Generator: Adobe Illustrator 16.0.0, SVG Export Plug-In . SVG Version: 6.00 Build 0)  -->
<!DOCTYPE svg PUBLIC "-//W3C//DTD SVG 1.1//EN" "http://www.w3.org/Graphics/SVG/1.1/DTD/svg11.dtd">
<svg version="1.1" id="Layer_1" xmlns="http://www.w3.org/2000/svg" xmlns:xlink="http://www.w3.org/1999/xlink" x="0px" y="0px"
	 width="140px" height="140px" viewBox="0 0 140 140" enable-background="new 0 0 140 140" xml:space="preserve">
<circle fill="#8CF064" cx="70" cy="70" r="70"/>
<g opacity="0.75">
	
		<image overflow="visible" opacity="0.5" width="126" height="127" xlink:href="B101628FA3616B89.png"  transform="matrix(1 0 0 1 7.5 6.5)">
	</image>
	<g>
		<g>
			<polygon fill="#8CF064" points="117.684,54.55 84.825,49.775 70.131,20 55.437,49.775 22.578,54.549 46.354,77.726 
				40.741,110.451 70.131,95 70.131,70 93.907,77.727 			"/>
			<polygon fill="#8CF064" points="74.245,75.663 74.245,100.663 103.635,116.114 98.021,83.389 			"/>
		</g>
	</g>
</g>
<polygon fill="#FFFFFF" points="70,70 84.694,49.775 117.553,54.55 70,70 "/>
<polygon opacity="0.7" fill="#FFFFFF" points="70,70 117.553,54.55 93.776,77.727 70,70 "/>
<polygon fill="#FFFFFF" points="74.114,75.663 97.891,83.389 103.504,116.114 74.114,75.663 "/>
<polygon fill="#8CF064" points="70,70 70,70 70,70 "/>
<polygon fill="#8CF064" points="70,70 70,70 70,70 "/>
<polygon opacity="0.7" fill="#FFFFFF" points="103.504,116.114 74.114,100.663 74.114,75.663 "/>
<polygon fill="#8CF064" points="70,70 70,70 70,70 "/>
<polygon fill="#FFFFFF" points="70,70 55.306,49.775 70,20 70,70 "/>
<polygon fill="#FFFFFF" points="22.447,54.549 55.306,49.775 70,70 "/>
<polygon opacity="0.7" fill="#FFFFFF" points="70,70 70,95 40.61,110.451 70,70 "/>
<polygon opacity="0.7" fill="#FFFFFF" points="70,70 70,20 84.694,49.775 "/>
<polygon opacity="0.7" fill="#FFFFFF" points="46.224,77.726 22.447,54.549 70,70 "/>
<g opacity="0.7">
	<g>
		<defs>
			<polygon id="SVGID_1_" points="70,70 117.553,54.55 93.776,77.727 70,70 			"/>
		</defs>
		<clipPath id="SVGID_2_">
			<use xlink:href="#SVGID_1_"  overflow="visible"/>
		</clipPath>
		<linearGradient id="SVGID_3_" gradientUnits="userSpaceOnUse" x1="69.9995" y1="0" x2="69.9995" y2="140.0005">
			<stop  offset="0.4861" style="stop-color:#323232;stop-opacity:0"/>
			<stop  offset="1" style="stop-color:#323232;stop-opacity:0.25"/>
		</linearGradient>
		<circle clip-path="url(#SVGID_2_)" fill="url(#SVGID_3_)" cx="70" cy="70" r="70"/>
	</g>
	<g>
		<defs>
			<polygon id="SVGID_4_" points="103.504,116.114 74.114,100.663 74.114,75.663 			"/>
		</defs>
		<clipPath id="SVGID_5_">
			<use xlink:href="#SVGID_4_"  overflow="visible"/>
		</clipPath>
		<linearGradient id="SVGID_6_" gradientUnits="userSpaceOnUse" x1="69.9995" y1="0" x2="69.9995" y2="140.0005">
			<stop  offset="0.4861" style="stop-color:#323232;stop-opacity:0"/>
			<stop  offset="1" style="stop-color:#323232;stop-opacity:0.25"/>
		</linearGradient>
		<circle clip-path="url(#SVGID_5_)" fill="url(#SVGID_6_)" cx="70" cy="70" r="70"/>
	</g>
	<g>
		<defs>
			<polygon id="SVGID_7_" points="70,70 70,95 40.61,110.451 70,70 			"/>
		</defs>
		<clipPath id="SVGID_8_">
			<use xlink:href="#SVGID_7_"  overflow="visible"/>
		</clipPath>
		<linearGradient id="SVGID_9_" gradientUnits="userSpaceOnUse" x1="69.9995" y1="0" x2="69.9995" y2="140.0005">
			<stop  offset="0.4861" style="stop-color:#323232;stop-opacity:0"/>
			<stop  offset="1" style="stop-color:#323232;stop-opacity:0.25"/>
		</linearGradient>
		<circle clip-path="url(#SVGID_8_)" fill="url(#SVGID_9_)" cx="70" cy="70" r="70"/>
	</g>
	<g>
		<defs>
			<polygon id="SVGID_10_" points="70,70 70,20 84.694,49.775 			"/>
		</defs>
		<clipPath id="SVGID_11_">
			<use xlink:href="#SVGID_10_"  overflow="visible"/>
		</clipPath>
		<linearGradient id="SVGID_12_" gradientUnits="userSpaceOnUse" x1="69.9995" y1="0" x2="69.9995" y2="140.0005">
			<stop  offset="0.4861" style="stop-color:#323232;stop-opacity:0"/>
			<stop  offset="1" style="stop-color:#323232;stop-opacity:0.25"/>
		</linearGradient>
		<circle clip-path="url(#SVGID_11_)" fill="url(#SVGID_12_)" cx="70" cy="70" r="70"/>
	</g>
	<g>
		<defs>
			<polygon id="SVGID_13_" points="46.224,77.726 22.447,54.549 70,70 			"/>
		</defs>
		<clipPath id="SVGID_14_">
			<use xlink:href="#SVGID_13_"  overflow="visible"/>
		</clipPath>
		<linearGradient id="SVGID_15_" gradientUnits="userSpaceOnUse" x1="69.9995" y1="0" x2="69.9995" y2="140.0005">
			<stop  offset="0.4861" style="stop-color:#323232;stop-opacity:0"/>
			<stop  offset="1" style="stop-color:#323232;stop-opacity:0.25"/>
		</linearGradient>
		<circle clip-path="url(#SVGID_14_)" fill="url(#SVGID_15_)" cx="70" cy="70" r="70"/>
	</g>
</g>
<polygon fill="#FFFFFF" points="40.61,110.451 46.224,77.726 70,70 "/>
</svg>
