<?xml version="1.0" encoding="utf-8"?>
<!-- Generator: Adobe Illustrator 16.0.0, SVG Export Plug-In . SVG Version: 6.00 Build 0)  -->
<!DOCTYPE svg PUBLIC "-//W3C//DTD SVG 1.1//EN" "http://www.w3.org/Graphics/SVG/1.1/DTD/svg11.dtd">
<svg version="1.1" id="Layer_1" xmlns="http://www.w3.org/2000/svg" xmlns:xlink="http://www.w3.org/1999/xlink" x="0px" y="0px"
	 width="140px" height="140px" viewBox="0 0 140 140" enable-background="new 0 0 140 140" xml:space="preserve">
<circle fill="#FF8232" cx="70" cy="70" r="70"/>
<g>
	<rect x="36.262" y="49.686" fill="#148C78" width="67.476" height="2.789"/>
	<rect x="61.635" y="56.614" fill="#C8C8C8" width="16.728" height="16.73"/>
	<rect x="56.059" y="73.344" fill="#C8C8C8" width="27.883" height="30.715"/>
	<rect x="61.635" y="71.67" opacity="0.15" fill="#323232" width="16.728" height="1.674"/>
	<g>
		<circle fill="#323232" cx="64.249" cy="63.933" r="1.394"/>
		<circle fill="#323232" cx="75.75" cy="63.933" r="1.395"/>
	</g>
	<path fill="#FEFA39" d="M50.483,70.598V48.292h-5.577v22.35h0.002c0.023,6.129,5.015,11.109,11.15,11.109v-5.578
		C52.984,76.174,50.483,73.674,50.483,70.598z"/>
	<rect x="89.518" y="48.292" fill="#FEFA39" width="5.576" height="22.35"/>
	<g>
		<path fill="#FEFA39" d="M83.941,81.752c6.148,0,11.152-5.004,11.152-11.154h-5.576c0,3.076-2.502,5.576-5.576,5.576V81.752z"/>
	</g>
	<circle fill="#FEFA39" cx="47.695" cy="48.292" r="2.788"/>
	<circle fill="#FEFA39" cx="92.306" cy="48.292" r="2.788"/>
	<g>
		<rect x="74.363" y="104.059" fill="#FEFA39" width="5.576" height="18.35"/>
		<circle fill="#FEFA39" cx="77.152" cy="122.408" r="2.789"/>
	</g>
	<g>
		<rect x="60.059" y="104.059" fill="#FEFA39" width="5.577" height="18.35"/>
		<circle fill="#FEFA39" cx="62.847" cy="122.408" r="2.788"/>
	</g>
	<circle fill="#28A08C" cx="117.399" cy="51.081" r="16.729"/>
	<circle fill="#28A08C" cx="22.6" cy="51.081" r="16.729"/>
	<circle fill="#3BBDB1" cx="22.601" cy="48.292" r="13.941"/>
	<circle fill="#3BBDB1" cx="117.399" cy="48.292" r="13.94"/>
	<path fill="#F7CB38" d="M45.19,73.059c1.124,4.969,5.566,8.693,10.869,8.693v-5.578c-3.075,0-5.576-2.5-5.576-5.576v-2.832
		L45.19,73.059z"/>
	<path fill="#F7CB38" d="M94.811,73.059c-1.125,4.969-5.566,8.693-10.869,8.693v-5.578c3.074,0,5.576-2.5,5.576-5.576v-2.832
		L94.811,73.059z"/>
	<path opacity="0.6" fill="#DA1036" d="M70,68.799c1.54,0,2.788-1.249,2.788-2.789h-5.576C67.211,67.55,68.46,68.799,70,68.799z"/>
	<rect x="60.059" y="104.059" fill="#F7CB38" width="5.584" height="8.334"/>
	<rect x="74.357" y="104.059" fill="#F7CB38" width="5.584" height="8.334"/>
	<path opacity="0.15" fill="#323232" d="M77.135,81.621c-0.086-0.145-0.197-0.27-0.33-0.373l-5.322-4.146
		c-0.061-0.049-0.137-0.074-0.213-0.074h-1.906c-0.262,0-0.514,0.078-0.73,0.229l-6.766,4.656c-0.068,0.047-0.118,0.117-0.139,0.197
		l-0.659,2.496c-0.067,0.254-0.061,0.518,0.017,0.768l2.302,7.357l0.019,0.059l2.308,1.557c0.033,0.01,0.064,0.02,0.097,0.029h8.274
		c0.039,0,0.078-0.014,0.107-0.037l1.814-1.422c0.191-0.15,0.334-0.352,0.412-0.584l2.547-7.52c0.018-0.049,0.012-0.102-0.016-0.145
		L77.135,81.621z M71.271,77.457c0.031-0.021,0.074-0.021,0.105,0.002l5.215,4.062c0.098,0.078,0.18,0.17,0.244,0.277l1.154,1.936
		c0.049,0.082-0.049,0.172-0.125,0.115l-6.484-4.785c-0.031-0.021-0.072-0.021-0.104,0l-6.627,4.816
		c-0.144,0.104-0.347,0.037-0.401-0.131l-0.292-0.906c-0.011-0.035,0.001-0.074,0.032-0.096L71.271,77.457z M69.974,80.516
		l5.348,3.887c0.031,0.021,0.045,0.061,0.033,0.098l-2.043,6.289c-0.012,0.035-0.045,0.059-0.084,0.059h-6.611
		c-0.038,0-0.071-0.023-0.083-0.059L64.491,84.5c-0.012-0.037,0.001-0.076,0.031-0.098l5.349-3.887
		C69.903,80.494,69.944,80.494,69.974,80.516z M62.169,82.125l6.662-4.584c0.157-0.109,0.342-0.166,0.533-0.166h1.164
		c0.084,0,0.119,0.107,0.051,0.158l-6.997,5.082c-0.03,0.021-0.043,0.061-0.031,0.096l0.514,1.596h0l2.014,6.201
		c0.055,0.168-0.071,0.34-0.248,0.34h-0.948c-0.038,0-0.072-0.023-0.083-0.061l-2.664-8.564
		C62.124,82.186,62.138,82.146,62.169,82.125z M63.661,92.439l-2.325-7.432c0-0.016,0-0.031-0.001-0.049l0.514-1.947
		c0.023-0.084,0.141-0.086,0.167-0.004l2.527,8.127c0.011,0.035,0.045,0.061,0.083,0.061h8.19c0.178,0,0.303,0.174,0.248,0.342
		l-0.295,0.902c-0.012,0.037-0.045,0.061-0.082,0.061h-8.943C63.706,92.5,63.672,92.475,63.661,92.439z M73.98,93.967
		c-0.012,0.037-0.045,0.061-0.082,0.061h-7.928c-0.066-0.02-0.128-0.039-0.194-0.059l-1.426-0.963
		c-0.071-0.047-0.037-0.158,0.048-0.158h8.541c0.037,0,0.07-0.025,0.082-0.061l0.559-1.711l-0.162-0.053v-0.002l0.166,0.055
		l1.975-6.082c0.055-0.168,0.258-0.234,0.4-0.129l0.77,0.557c0.029,0.023,0.043,0.062,0.031,0.098L73.98,93.967z M78.578,84.881
		l-2.564,7.572c-0.01,0.014-0.02,0.025-0.029,0.039l-1.328,1.041c-0.068,0.055-0.164-0.014-0.137-0.096l2.648-8.049
		c0.012-0.037,0-0.076-0.031-0.098l-1.457-1.059l0,0l-5.172-3.758c-0.142-0.104-0.142-0.316,0-0.422l0.768-0.557
		c0.031-0.023,0.072-0.023,0.104,0l7.168,5.287C78.576,84.807,78.59,84.846,78.578,84.881z"/>
</g>
</svg>
