<?xml version="1.0" encoding="utf-8"?>

<!-- License Agreement at http://iconmonstr.com/license/ -->

<!DOCTYPE svg PUBLIC "-//W3C//DTD SVG 1.1//EN" "http://www.w3.org/Graphics/SVG/1.1/DTD/svg11.dtd">
<svg version="1.1" xmlns="http://www.w3.org/2000/svg" xmlns:xlink="http://www.w3.org/1999/xlink" x="0px" y="0px"
	 width="512px" height="512px" viewBox="0 0 512 512" enable-background="new 0 0 512 512" xml:space="preserve">
<path id="wrench-20-icon" d="M297.466,232.36l23.508-35.26c6.012-9.013,18.193-11.451,27.207-5.439
	c9.016,6.009,11.451,18.192,5.443,27.205l-23.508,35.26c-6.01,9.016-18.193,11.453-27.207,5.444
	C293.894,253.558,291.454,241.376,297.466,232.36z M265.165,220.628c9.029,6.021,21.232,3.58,27.252-5.45l23.74-35.605
	c6.02-9.032,3.578-21.234-5.455-27.258c-9.027-6.02-21.232-3.579-27.25,5.452l-23.738,35.607
	C253.692,202.403,256.132,214.605,265.165,220.628z M385.464,288.406l-20.795,31.189c-5.531,8.296-3.289,19.504,5.006,25.034
	c8.295,5.532,19.502,3.29,25.035-5.005l20.793-31.193c5.533-8.295,3.291-19.505-5.008-25.033
	C402.2,277.867,390.993,280.109,385.464,288.406z M332.743,273.993c-5.99,8.987-3.564,21.131,5.426,27.12
	c8.988,5.993,21.129,3.563,27.121-5.426l22.527-33.791c5.994-8.986,3.564-21.13-5.426-27.123c-8.986-5.99-21.129-3.563-27.119,5.426
	L332.743,273.993z M441.091,432.165c-15.982,15.983-41.896,15.983-57.879,0L280.513,327.372c18.676-20.651,9.6-56.29-20.289-61.598
	l-52.777-9.375l-18.157-18.158c-10.297-10.298-24.485-15.73-39.026-14.955c-23.71,1.263-47.836-7.156-65.945-25.266
	c-24.266-24.265-31.137-59.329-20.629-89.719l55.172,55.172c21.523,1.267,54.805-32.013,53.539-53.535l-55.172-55.174
	c30.389-10.508,65.453-3.637,89.717,20.628c18.111,18.11,26.53,42.236,25.267,65.945c-0.774,14.53,4.664,28.737,14.953,39.026
	l0.47,0.47c-21.34,35.758,7.426,60.254,31.002,59.349c-4.242,20.265,17.449,41.38,36.068,41.38
	c-4.605,17.852,9.215,36.471,30.713,40.694c-8.662,31.284,38.766,64.66,66.229,22.586l29.445,29.444
	C457.071,390.271,457.071,416.181,441.091,432.165z M427.022,400.728c0-9.314-7.551-16.866-16.867-16.866
	c-9.314,0-16.867,7.552-16.867,16.866c0,9.318,7.553,16.87,16.867,16.87C419.472,417.598,427.022,410.046,427.022,400.728z
	 M279.858,351.467c-11.455-11.805-29.215-12.69-61.525-14.83c-4.91-0.325-7.928,2.824-8.342,7.596
	c-0.092,1.071-7.859,72.236-7.859,72.236s47.959,32.404,67.65,45.531c18.264-32.976,46.336-34.965,67.311-51.544L279.858,351.467z
	 M252.011,322.409c25.016-0.002,28.795-35.432,5.193-39.624c-88.76-15.769-84.098-15.259-87.025-15.259
	c-10.898,0-20.342,7.778-22.453,18.498l-7.668,67.748c-1.037,10.822,2.477,20.188,10.865,26.288
	c8.367,6.086,34.787,24.88,34.787,24.88s5.629-48.67,7.213-62.669c1.586-13.998,9.449-23.653,24.434-22.921
	C218.944,319.428,249.284,322.409,252.011,322.409z" fill="#fff"/>
</svg>
