<?xml version="1.0" encoding="utf-8"?>

<!-- The icon can be used freely in both personal and commercial projects with no attribution required, but always appreciated. 
You may NOT sub-license, resell, rent, redistribute or otherwise transfer the icon without express written permission from iconmonstr.com -->

<!DOCTYPE svg PUBLIC "-//W3C//DTD SVG 1.1//EN" "http://www.w3.org/Graphics/SVG/1.1/DTD/svg11.dtd">
<svg version="1.1" xmlns="http://www.w3.org/2000/svg" xmlns:xlink="http://www.w3.org/1999/xlink" x="0px" y="0px"
	 width="512px" height="512px" viewBox="0 0 512 512" enable-background="new 0 0 512 512" xml:space="preserve">
<path id="debug-4-icon" d="M152.956,161.654c0-4.154,3.368-7.521,7.522-7.521c4.958,0,8.556,4.719,7.262,9.491
	c-0.487,1.797-0.226,3.714,0.726,5.314c2.108,3.548,5.7,5.732,10.396,5.758c4.631-0.024,8.27-2.181,10.396-5.758
	c0.951-1.601,1.213-3.518,0.726-5.314c-1.292-4.767,2.297-9.491,7.262-9.491c4.154,0,7.522,3.367,7.522,7.521
	c0,3.607-2.531,6.596-5.876,7.343c-1.693,0.378-3.154,1.438-4.041,2.93c-3.417,5.75,1.543,10.806,5.576,15.939
	c-12.323,6.446-30.806,6.446-43.129,0c4.096-5.213,9.019-10.146,5.576-15.939c-0.887-1.491-2.348-2.552-4.041-2.93
	C155.487,168.25,152.956,165.262,152.956,161.654z M223.877,236.695h12.557c3.061,0,5.543-2.481,5.543-5.543
	c0-3.061-2.482-5.542-5.543-5.542h-12.635c-3.027,0-5.98-2.099-6.455-5.622c-0.482-3.617,1.505-6.127,4.021-7.119l11.736-4.629
	c2.849-1.123,4.246-4.342,3.123-7.19c-1.123-2.847-4.342-4.245-7.188-3.122l-12.069,4.76c-1.727,0.681-3.861,0.193-4.869-2.146
	c-1.178-2.736-2.514-5.292-3.993-7.611c-10.776,4.852-20.009,7.279-29.243,7.279c-9.231,0-18.465-2.426-29.243-7.279
	c-1.444,2.265-2.752,4.755-3.91,7.419c-1.194,2.747-3.401,2.949-4.952,2.338l-12.068-4.76c-2.848-1.123-6.066,0.275-7.189,3.122
	c-1.123,2.849,0.274,6.067,3.123,7.19l11.736,4.629c2.609,1.028,4.493,3.709,4.064,6.807c-0.559,4.05-3.591,5.935-6.498,5.935
	h-12.635c-3.061,0-5.543,2.481-5.543,5.542c0,3.062,2.482,5.543,5.543,5.543h12.557c3.012,0,6.095,1.986,6.65,5.645
	c0.594,3.889-1.197,6.564-3.949,7.81l-12.729,5.759c-2.789,1.262-4.027,4.545-2.766,7.334c1.263,2.792,4.549,4.025,7.334,2.766
	l13.467-6.092c1.614-0.731,3.619-0.568,4.737,1.383c5.494,9.598,16.54,19.286,32.271,21.066
	c15.423-1.745,26.342-11.093,31.941-20.503c1.372-2.306,3.301-2.746,5.066-1.946l13.467,6.092c2.781,1.259,6.07,0.029,7.334-2.766
	c1.262-2.789,0.023-6.072-2.766-7.334l-12.729-5.759c-2.605-1.179-4.561-3.941-4.016-7.388
	C217.842,238.468,220.941,236.695,223.877,236.695z M408.492,344.438c7.824-12.331,12.361-26.944,12.361-42.597
	c0-43.967-35.769-79.736-79.735-79.736c-43.965,0-79.734,35.77-79.734,79.736c0,43.964,35.77,79.734,79.734,79.734
	c14.878,0,28.812-4.101,40.745-11.222l53.863,53.864L462,397.944L408.492,344.438z M341.118,351.851
	c-27.575,0-50.009-22.436-50.009-50.01c0-27.577,22.434-50.012,50.009-50.012c27.576,0,50.013,22.435,50.013,50.012
	C391.131,329.415,368.694,351.851,341.118,351.851z M240.872,346.456H50V87.782h334.583v113.307
	c-10.639-4.607-22.143-7.576-34.197-8.59v-70.521l-266.189,0.002v190.28h147.686C233.023,324.33,236.127,335.836,240.872,346.456z
	 M293.86,400.866H135.677l34.194-34.195h82.769C263.312,381.195,277.464,393.009,293.86,400.866z" fill="#fff"/>
</svg>
