<?xml version="1.0" encoding="utf-8"?>
<!-- Generator: Adobe Illustrator 16.0.0, SVG Export Plug-In . SVG Version: 6.00 Build 0)  -->
<!DOCTYPE svg PUBLIC "-//W3C//DTD SVG 1.1//EN" "http://www.w3.org/Graphics/SVG/1.1/DTD/svg11.dtd">
<svg version="1.1" id="Layer_1" xmlns="http://www.w3.org/2000/svg" xmlns:xlink="http://www.w3.org/1999/xlink" x="0px" y="0px"
	 width="140px" height="140px" viewBox="0 0 140 140" enable-background="new 0 0 140 140" xml:space="preserve">
<g>
	<path fill="#3BBDB1" d="M70.218,51.196c7.055-4.999,15.665-7.947,24.969-7.947c6.461,0,12.586,1.427,18.092,3.966
		c0.119-1.307,0.188-2.628,0.188-3.966C113.467,19.363,94.105,0,70.218,0C46.333,0,26.97,19.363,26.97,43.249
		c0,1.338,0.069,2.659,0.189,3.966c5.505-2.539,11.629-3.966,18.09-3.966C54.554,43.249,63.165,46.197,70.218,51.196z"/>
	<path fill="#FEFA39" d="M51.939,86.498c0-1.339,0.069-2.658,0.189-3.966c-13.709-6.324-23.54-19.603-24.97-35.317
		C12.31,54.065,2,69.073,2,86.498c0,23.886,19.363,43.249,43.249,43.249c9.305,0,17.916-2.948,24.969-7.946
		C59.163,113.966,51.939,101.08,51.939,86.498z"/>
	<path fill="#8CF064" d="M52.128,82.532c1.177-12.938,8.049-24.22,18.09-31.336c-7.054-4.999-15.665-7.947-24.969-7.947
		c-6.461,0-12.585,1.427-18.09,3.966C28.588,62.93,38.419,76.208,52.128,82.532z"/>
	<path fill="#DA1036" d="M113.279,47.215c-1.43,15.714-11.262,28.993-24.971,35.317c0.119,1.308,0.189,2.627,0.189,3.966
		c0,14.582-7.223,27.468-18.28,35.303c7.055,4.998,15.665,7.946,24.969,7.946c23.887,0,43.25-19.363,43.25-43.249
		C138.438,69.073,128.127,54.065,113.279,47.215z"/>
	<path fill="#6464C8" d="M70.218,51.196c10.042,7.116,16.915,18.398,18.09,31.336c13.709-6.324,23.541-19.603,24.971-35.317
		c-5.506-2.539-11.631-3.966-18.092-3.966C85.883,43.249,77.273,46.197,70.218,51.196z"/>
	<path fill="#FF8232" d="M88.498,86.498c0-1.339-0.07-2.658-0.189-3.966c-5.506,2.538-11.629,3.966-18.09,3.966
		c-6.46,0-12.584-1.428-18.09-3.966c-0.12,1.308-0.189,2.627-0.189,3.966c0,14.582,7.223,27.468,18.279,35.303
		C81.275,113.966,88.498,101.08,88.498,86.498z"/>
	<path fill="#FFFFFF" d="M70.218,51.196c-10.041,7.116-16.913,18.398-18.09,31.336c5.505,2.538,11.629,3.966,18.09,3.966
		c6.461,0,12.584-1.428,18.09-3.966C87.133,69.595,80.26,58.312,70.218,51.196z"/>
	<path fill="#DA1036" d="M102.037,121.801c0,0,9.1,18.199,36.4,18.199c0,0-18.201-9.1-18.201-18.199H102.037z"/>
	<g>
		<path fill="#6464C8" d="M88.498,86.498c0,0.952-0.033,1.897-0.096,2.834c5.705,3.622,13.844,6.697,25.064,6.697
			c0,0-17.363-8.687-18.162-17.571c-2.191,1.563-4.527,2.935-6.996,4.074C88.428,83.84,88.498,85.159,88.498,86.498z"/>
		<path fill="#6464C8" d="M87.617,77.829c0.314,1.54,0.547,3.108,0.691,4.703c2.469-1.14,4.805-2.511,6.996-4.074
			c-0.018-0.209-0.037-0.419-0.037-0.629H87.617z"/>
		<path fill="#FFFFFF" d="M88.309,82.532c-1.865,0.86-3.809,1.582-5.805,2.174c1.572,1.517,3.521,3.118,5.898,4.626
			c0.062-0.937,0.096-1.882,0.096-2.834C88.498,85.159,88.428,83.84,88.309,82.532z"/>
		<path fill="#FFFFFF" d="M87.617,77.829H77.066c0,0,1.598,3.179,5.438,6.877c1.996-0.592,3.939-1.313,5.805-2.174
			C88.164,80.938,87.932,79.369,87.617,77.829z"/>
	</g>
	<path fill="#FEFA39" d="M38.4,121.801c0,0-9.1,18.199-36.4,18.199c0,0,18.2-9.1,18.2-18.199H38.4z"/>
</g>
</svg>
