<?xml version="1.0" encoding="utf-8"?>
<!-- Generator: Adobe Illustrator 16.0.0, SVG Export Plug-In . SVG Version: 6.00 Build 0)  -->
<!DOCTYPE svg PUBLIC "-//W3C//DTD SVG 1.1//EN" "http://www.w3.org/Graphics/SVG/1.1/DTD/svg11.dtd">
<svg version="1.1" id="Layer_1" xmlns="http://www.w3.org/2000/svg" xmlns:xlink="http://www.w3.org/1999/xlink" x="0px" y="0px"
	 width="140px" height="140px" viewBox="0 0 140 140" enable-background="new 0 0 140 140" xml:space="preserve">
<circle fill="#3BBDB1" cx="70" cy="70" r="70"/>
<g>
	<path fill="#DA1036" d="M104.186,104.82h-0.054c7.557-5.355,12.493-14.162,12.493-24.129c0-11.909-7.046-22.166-17.195-26.848
		c-0.039-0.018-0.08-0.033-0.119-0.051c-1.08,8.378-5.668,15.656-12.244,20.316h0.054c0,6.219,12.438,12.438,12.438,12.438
		c-7.655,0-13.21-2.095-17.105-4.563C82.046,91.415,77.228,99.698,70,104.82c4.821,3.416,10.707,5.432,17.066,5.432
		c2.777,0,5.463-0.393,8.013-1.109c3.567,3.592,10.291,8.116,21.546,8.116C116.625,117.259,104.186,111.039,104.186,104.82z"/>
	<path fill="#FFFFFF" d="M70,56.564c4.821-3.416,10.707-5.432,17.066-5.432c4.369,0,8.512,0.958,12.244,2.66
		c0.161-1.248,0.248-2.52,0.248-3.812c0-11.909-7.046-22.167-17.195-26.848c-3.762-1.736-7.948-2.711-12.363-2.711
		c-6.359,0-12.245,2.015-17.066,5.431c-6.863,4.864-11.56,12.575-12.364,21.417c-0.081,0.894-0.128,1.796-0.128,2.711
		c0,1.292,0.087,2.563,0.248,3.812c3.732-1.702,7.875-2.66,12.244-2.66C59.293,51.133,65.179,53.148,70,56.564z"/>
	<path fill="#FF85AF" d="M70,56.564c6.863,4.863,11.56,12.575,12.365,21.417c0.081,0.894,0.128,1.796,0.128,2.71
		c0,0.435-0.021,0.863-0.04,1.293c3.896,2.469,9.45,4.563,17.105,4.563c0,0-12.438-6.22-12.438-12.438h-0.054
		c6.576-4.661,11.164-11.938,12.244-20.316c-3.732-1.702-7.875-2.66-12.244-2.66C80.707,51.133,74.821,53.148,70,56.564z"/>
	<path fill="#FEFA39" d="M57.507,80.691c0-0.914,0.047-1.816,0.128-2.71c0.034-0.374,0.085-0.743,0.133-1.113
		c-1.7-0.776-3.324-1.689-4.834-2.759c-6.576-4.661-11.164-11.938-12.244-20.316c-0.039,0.018-0.08,0.033-0.119,0.051
		c-10.149,4.682-17.195,14.939-17.195,26.848c0,9.967,4.937,18.773,12.493,24.129h-0.054c0,6.219-12.439,12.438-12.439,12.438
		c11.255,0,17.979-4.524,21.545-8.116c2.55,0.717,5.236,1.109,8.014,1.109c6.359,0,12.245-2.016,17.066-5.432
		C62.443,99.465,57.507,90.658,57.507,80.691z"/>
	<path fill="#EA7C27" d="M82.453,81.984c-1.831-1.161-3.299-2.403-4.439-3.553c-2.55,0.718-5.235,1.109-8.014,1.109
		c-4.368,0-8.503-0.97-12.232-2.673c-0.048,0.37-0.099,0.739-0.133,1.113c-0.081,0.894-0.128,1.796-0.128,2.71
		c0,9.967,4.937,18.773,12.493,24.129C77.228,99.698,82.046,91.415,82.453,81.984z"/>
	<path fill="#CA966D" d="M52.934,74.109c1.51,1.069,3.134,1.982,4.834,2.759C58.851,68.495,63.427,61.222,70,56.564
		c-4.821-3.416-10.707-5.432-17.066-5.432c-4.369,0-8.512,0.958-12.244,2.66C41.77,62.171,46.357,69.449,52.934,74.109z"/>
	<path fill="#9F3A7F" d="M82.365,77.981C81.56,69.14,76.863,61.428,70,56.564c-6.573,4.657-11.149,11.931-12.232,20.304
		c3.729,1.703,7.864,2.673,12.232,2.673c2.778,0,5.464-0.392,8.014-1.109c1.141,1.149,2.608,2.392,4.439,3.553
		c0.019-0.43,0.04-0.858,0.04-1.293C82.493,79.777,82.446,78.875,82.365,77.981z"/>
	<path opacity="0.15" fill="#DA1036" d="M23.425,79.334c-0.021,0.452-0.05,0.901-0.05,1.357c0,9.967,4.937,18.773,12.493,24.129
		h-0.054c0,6.219-12.439,12.438-12.439,12.438c11.255,0,17.979-4.524,21.545-8.116c2.55,0.717,5.236,1.109,8.014,1.109
		c6.359,0,12.245-2.016,17.066-5.432C70,104.82,37.084,113.065,23.425,79.334z"/>
	<path opacity="0.15" fill="#323232" d="M116.575,79.334c0.021,0.452,0.05,0.901,0.05,1.357c0,9.967-4.937,18.773-12.493,24.129
		h0.054c0,6.219,12.439,12.438,12.439,12.438c-11.255,0-17.979-4.524-21.545-8.116c-2.55,0.717-5.236,1.109-8.014,1.109
		c-6.359,0-12.245-2.016-17.066-5.432C70,104.82,102.916,113.065,116.575,79.334z"/>
	<path opacity="0.15" fill="#323232" d="M99.509,48.624c0.021,0.452,0.05,0.901,0.05,1.357c0,9.966-4.937,18.773-12.493,24.128
		h0.054c0,6.219,12.439,12.438,12.439,12.438c-11.255,0-17.979-4.524-21.545-8.116c-2.55,0.717-5.236,1.109-8.014,1.109
		c-6.359,0-12.245-2.016-17.066-5.432C52.934,74.109,85.85,82.354,99.509,48.624z"/>
</g>
</svg>
