<?xml version="1.0" encoding="utf-8"?>
<!-- Generator: Adobe Illustrator 16.0.0, SVG Export Plug-In . SVG Version: 6.00 Build 0)  -->
<!DOCTYPE svg PUBLIC "-//W3C//DTD SVG 1.1//EN" "http://www.w3.org/Graphics/SVG/1.1/DTD/svg11.dtd">
<svg version="1.1" id="Layer_1" xmlns="http://www.w3.org/2000/svg" xmlns:xlink="http://www.w3.org/1999/xlink" x="0px" y="0px"
	 width="140px" height="140px" viewBox="0 0 140 140" enable-background="new 0 0 140 140" xml:space="preserve">
<circle fill="#3BBDB1" cx="70" cy="70" r="70"/>
<g>
	<g>
		<path fill="#C8C8C8" d="M85.197,113.987c-4.324-3.578-4.398-5.072-4.398-5.072l-0.672-6.185h-6.686h-6.883h-6.686l-0.671,6.185
			c0,0-0.075,1.494-4.399,5.072c-0.373,0.598-1.267,1.566,3.43,1.566c2.579,0,5.876,0,8.326,0c1.867,0,3.241,0,3.43,0
			c0.016,0,0.023,0,0.023,0h3.43c2.45,0,5.748,0,8.326,0C86.465,115.554,85.57,114.585,85.197,113.987z"/>
		<path opacity="0.15" fill="#323232" d="M70,110.093c4.01,0,7.793-0.136,11.129-0.375c-0.316-0.55-0.33-0.803-0.33-0.803
			l-0.672-6.185h-6.686h-6.883h-6.686l-0.671,6.185c0,0-0.014,0.253-0.331,0.803C62.207,109.957,65.99,110.093,70,110.093z"/>
	</g>
	<g>
		<path fill="#C8C8C8" d="M119.654,101.762c0,1.476-1.209,2.684-2.684,2.684H23.03c-1.476,0-2.685-1.208-2.685-2.684V38.24
			c0-1.476,1.208-2.685,2.685-2.685h93.94c1.475,0,2.684,1.209,2.684,2.685V101.762z"/>
	</g>
	<path fill="#323232" d="M116.971,35.556H23.03c-1.476,0-2.685,1.209-2.685,2.685v56.811h99.309V38.24
		C119.654,36.765,118.445,35.556,116.971,35.556z"/>
	<rect x="23.924" y="39.135" fill="#FEFA39" width="92.151" height="52.338"/>
	<rect x="29.924" y="76.722" opacity="0.75" fill="#DA1036" width="6" height="14.751"/>
	<rect x="40.517" y="67.555" opacity="0.75" fill="#DA1036" width="6" height="23.918"/>
	<rect x="51.11" y="59.222" opacity="0.75" fill="#DA1036" width="6" height="32.251"/>
	<rect x="61.703" y="54.388" opacity="0.75" fill="#DA1036" width="6" height="37.085"/>
	<rect x="72.296" y="71.555" opacity="0.75" fill="#DA1036" width="6" height="19.918"/>
	<rect x="82.889" y="67.555" opacity="0.75" fill="#DA1036" width="6" height="23.918"/>
	<rect x="93.482" y="57.222" opacity="0.75" fill="#DA1036" width="6" height="34.251"/>
	<rect x="104.075" y="45.055" opacity="0.75" fill="#DA1036" width="6" height="46.418"/>
</g>
</svg>
