<?xml version="1.0" encoding="utf-8"?>
<!-- Generator: Adobe Illustrator 16.0.0, SVG Export Plug-In . SVG Version: 6.00 Build 0)  -->
<!DOCTYPE svg PUBLIC "-//W3C//DTD SVG 1.1//EN" "http://www.w3.org/Graphics/SVG/1.1/DTD/svg11.dtd">
<svg version="1.1" id="Layer_1" xmlns="http://www.w3.org/2000/svg" xmlns:xlink="http://www.w3.org/1999/xlink" x="0px" y="0px"
	 width="140px" height="140px" viewBox="0 0 140 140" enable-background="new 0 0 140 140" xml:space="preserve">
<circle fill="#FF8232" cx="70" cy="70" r="70"/>
<g>
	<g>
		<g>
			<g>
				<path fill="#C8C8C8" d="M90.396,102.914c-3.786-3.133-3.852-4.441-3.852-4.441l-0.588-5.416h-5.854h-6.026H68.22l-0.587,5.416
					c0,0-0.066,1.309-3.852,4.441c-0.327,0.521-1.11,1.371,3.003,1.371c2.258,0,5.146,0,7.291,0c1.634,0,2.837,0,3.003,0
					c0.014,0,0.02,0,0.02,0h3.004c2.146,0,5.032,0,7.291,0C91.506,104.285,90.723,103.436,90.396,102.914z"/>
				<path opacity="0.15" fill="#323232" d="M77.089,99.504c3.51,0,6.823-0.119,9.744-0.328c-0.277-0.48-0.289-0.703-0.289-0.703
					l-0.588-5.416h-5.854h-6.026H68.22l-0.587,5.416c0,0-0.013,0.223-0.29,0.703C70.265,99.385,73.578,99.504,77.089,99.504z"/>
			</g>
			<g>
				<path fill="#C8C8C8" d="M120.565,92.209c0,1.291-1.058,2.35-2.349,2.35H35.961c-1.292,0-2.351-1.059-2.351-2.35v-55.62
					c0-1.292,1.058-2.35,2.351-2.35h82.255c1.291,0,2.349,1.058,2.349,2.35V92.209z"/>
			</g>
			<path fill="#323232" d="M118.217,34.239H35.961c-1.292,0-2.351,1.058-2.351,2.35v49.743h86.955V36.589
				C120.565,35.297,119.508,34.239,118.217,34.239z"/>
			<rect x="36.745" y="37.372" fill="#3BBDB1" width="80.687" height="45.827"/>
		</g>
		<rect x="36.745" y="37.372" fill="#DA1036" width="26.895" height="45.827"/>
		<rect x="90.537" y="37.372" fill="#FEFA39" width="26.895" height="45.827"/>
	</g>
	<g>
		<g>
			<path fill="#FFFFFF" d="M47.788,105.398c0,2.398-1.963,4.361-4.362,4.361H23.796c-2.399,0-4.362-1.963-4.362-4.361V56.153
				c0-2.399,1.963-4.362,4.362-4.362h19.629c2.399,0,4.362,1.963,4.362,4.362V105.398z"/>
			<rect x="21.673" y="58.966" fill="#323232" width="23.876" height="43.62"/>
			<circle fill="none" stroke="#C8C8C8" stroke-miterlimit="10" cx="33.611" cy="106.174" r="2.009"/>
			<circle fill="#C8C8C8" cx="33.611" cy="53.628" r="0.574"/>
			<rect x="31.602" y="55.063" fill="#C8C8C8" width="4.018" height="0.517"/>
		</g>
		<rect x="22.398" y="59.69" fill="#3BBDB1" width="22.427" height="42.171"/>
		<rect x="22.398" y="59.69" fill="#DA1036" width="22.427" height="14.058"/>
		<rect x="22.398" y="87.805" fill="#FEFA39" width="22.427" height="14.057"/>
	</g>
</g>
</svg>
