<?xml version="1.0" encoding="utf-8"?>
<!-- Generator: Adobe Illustrator 16.0.0, SVG Export Plug-In . SVG Version: 6.00 Build 0)  -->
<!DOCTYPE svg PUBLIC "-//W3C//DTD SVG 1.1//EN" "http://www.w3.org/Graphics/SVG/1.1/DTD/svg11.dtd">
<svg version="1.1" id="Layer_1" xmlns="http://www.w3.org/2000/svg" xmlns:xlink="http://www.w3.org/1999/xlink" x="0px" y="0px"
	 width="140px" height="140px" viewBox="0 0 140 140" enable-background="new 0 0 140 140" xml:space="preserve">
<g>
	<g>
		<g>
			<path fill="#C8C8C8" d="M98.443,112.705c-5.226-4.324-5.316-6.131-5.316-6.131l-0.811-7.473h-8.079H75.92h-8.079l-0.811,7.473
				c0,0-0.09,1.807-5.315,6.131c-0.451,0.721-1.532,1.892,4.145,1.892c3.116,0,7.1,0,10.061,0c2.256,0,3.916,0,4.145,0
				c0.019,0,0.028,0,0.028,0h4.145c2.96,0,6.944,0,10.062,0C99.975,114.597,98.895,113.426,98.443,112.705z"/>
			<path opacity="0.15" fill="#323232" d="M80.078,107.998c4.846,0,9.418-0.164,13.449-0.453c-0.383-0.664-0.4-0.971-0.4-0.971
				l-0.811-7.473h-8.079H75.92h-8.079l-0.811,7.473c0,0-0.017,0.307-0.399,0.971C70.662,107.834,75.234,107.998,80.078,107.998z"/>
		</g>
		<g>
			<path fill="#C8C8C8" d="M140.078,97.931c0,1.783-1.459,3.243-3.242,3.243H23.322c-1.784,0-3.244-1.46-3.244-3.243V21.174
				c0-1.784,1.46-3.243,3.244-3.243h113.514c1.783,0,3.242,1.459,3.242,3.243V97.931z"/>
		</g>
		<path fill="#323232" d="M136.836,17.931H23.322c-1.784,0-3.244,1.459-3.244,3.243v68.648h120V21.174
			C140.078,19.39,138.619,17.931,136.836,17.931z"/>
		<rect x="24.403" y="22.255" fill="#3BBDB1" width="111.351" height="63.243"/>
	</g>
	<rect x="24.403" y="22.255" fill="#DA1036" width="37.117" height="63.243"/>
	<rect x="98.637" y="22.255" fill="#FEFA39" width="37.117" height="63.243"/>
</g>
<g>
	<g>
		<path fill="#FFFFFF" stroke="#C89664" stroke-miterlimit="10" d="M39.643,116.133c0,3.312-2.709,6.021-6.02,6.021H6.534
			c-3.311,0-6.02-2.709-6.02-6.021V48.173c0-3.311,2.709-6.02,6.02-6.02h27.089c3.311,0,6.02,2.709,6.02,6.02V116.133z"/>
		<rect x="3.604" y="52.054" fill="#323232" width="32.95" height="60.198"/>
		<circle fill="#FFFFFF" stroke="#C89664" stroke-miterlimit="10" cx="20.078" cy="117.203" r="2.772"/>
		<circle fill="#C89664" cx="20.079" cy="44.688" r="0.792"/>
		<rect x="17.306" y="46.668" fill="#C89664" width="5.544" height="0.713"/>
	</g>
	<rect x="4.604" y="53.055" fill="#3BBDB1" width="30.95" height="58.197"/>
	<rect x="4.604" y="53.055" fill="#DA1036" width="30.95" height="19.398"/>
	<rect x="4.604" y="91.854" fill="#FEFA39" width="30.95" height="19.398"/>
</g>
</svg>
