<?xml version="1.0" encoding="utf-8"?>
<!-- Generator: Adobe Illustrator 16.0.0, SVG Export Plug-In . SVG Version: 6.00 Build 0)  -->
<!DOCTYPE svg PUBLIC "-//W3C//DTD SVG 1.1//EN" "http://www.w3.org/Graphics/SVG/1.1/DTD/svg11.dtd">
<svg version="1.1" id="Layer_1" xmlns="http://www.w3.org/2000/svg" xmlns:xlink="http://www.w3.org/1999/xlink" x="0px" y="0px"
	 width="140px" height="140px" viewBox="0 0 140 140" enable-background="new 0 0 140 140" xml:space="preserve">
<circle fill="#3BBDB1" cx="70" cy="70" r="70"/>
<g>
	<g>
		<g>
			<g>
				<path fill="#C8C8C8" d="M91.972,105.896c-4.024-3.33-4.094-4.722-4.094-4.722l-0.624-5.754h-6.223h-6.404h-6.222l-0.625,5.754
					c0,0-0.069,1.392-4.093,4.722c-0.347,0.555-1.18,1.457,3.192,1.457c2.4,0,5.468,0,7.748,0c1.737,0,3.016,0,3.192,0
					c0.014,0,0.021,0,0.021,0h3.192c2.279,0,5.348,0,7.749,0C93.151,107.354,92.319,106.451,91.972,105.896z"/>
				<path opacity="0.15" fill="#323232" enable-background="new    " d="M77.829,102.271c3.731,0,7.253-0.126,10.357-0.349
					c-0.295-0.512-0.309-0.748-0.309-0.748l-0.624-5.754h-6.223h-6.404h-6.222l-0.625,5.754c0,0-0.013,0.236-0.307,0.748
					C70.578,102.146,74.099,102.271,77.829,102.271z"/>
			</g>
			<g>
				<path fill="#C8C8C8" d="M124.034,94.52c0,1.372-1.123,2.497-2.497,2.497H34.122c-1.374,0-2.498-1.125-2.498-2.497V35.41
					c0-1.374,1.124-2.498,2.498-2.498h87.415c1.374,0,2.497,1.124,2.497,2.498V94.52z"/>
			</g>
			<path fill="#323232" d="M121.537,32.912H34.122c-1.374,0-2.498,1.124-2.498,2.498v52.865h92.41V35.41
				C124.034,34.036,122.911,32.912,121.537,32.912z"/>
			<rect x="34.955" y="36.242" fill="#3BBDB1" width="85.75" height="48.702"/>
		</g>
		<rect x="34.955" y="36.242" fill="#DA1036" width="28.583" height="48.702"/>
		<rect x="92.121" y="36.242" fill="#FEFA39" width="28.583" height="48.702"/>
	</g>
	<g>
		<g>
			<path fill="#FFFFFF" stroke="#C89664" stroke-miterlimit="10" d="M46.69,108.536c0,2.551-2.086,4.637-4.636,4.637H21.194
				c-2.55,0-4.636-2.086-4.636-4.637V56.201c0-2.55,2.086-4.636,4.636-4.636h20.861c2.55,0,4.636,2.086,4.636,4.636V108.536z"/>
			<rect x="18.938" y="59.19" fill="#323232" width="25.375" height="46.358"/>
			<circle fill="#FFFFFF" stroke="#C89664" stroke-miterlimit="10" cx="31.624" cy="109.36" r="2.134"/>
			<circle fill="#C89664" cx="31.625" cy="53.518" r="0.61"/>
			<rect x="29.489" y="55.042" fill="#C89664" width="4.27" height="0.549"/>
		</g>
		<rect x="19.708" y="59.961" fill="#3BBDB1" width="23.834" height="44.816"/>
		<rect x="19.708" y="59.961" fill="#DA1036" width="23.834" height="14.938"/>
		<rect x="19.708" y="89.839" fill="#FEFA39" width="23.834" height="14.938"/>
	</g>
</g>
</svg>
