<?xml version="1.0" encoding="utf-8"?>
<!-- Generator: Adobe Illustrator 16.0.0, SVG Export Plug-In . SVG Version: 6.00 Build 0)  -->
<!DOCTYPE svg PUBLIC "-//W3C//DTD SVG 1.1//EN" "http://www.w3.org/Graphics/SVG/1.1/DTD/svg11.dtd">
<svg version="1.1" id="Layer_1" xmlns="http://www.w3.org/2000/svg" xmlns:xlink="http://www.w3.org/1999/xlink" x="0px" y="0px"
	 width="1600px" height="506px" viewBox="0 0 1600 506" enable-background="new 0 0 1600 506" xml:space="preserve">
<g>
	<g>
		<path fill="#002F60" d="M2.208,504.739v-65.983h41.851v8.984H12.143v19.278h27.23v8.9h-27.23v19.835h31.916v8.989H2.208V504.739z"
			/>
		<path fill="#002F60" d="M73.524,505.299c-10.486,0-20.789-6.496-20.789-24.102c0-17.609,10.303-24.004,20.789-24.004
			c6.439,0,10.946,1.855,15.362,6.594l-6.44,6.293c-2.94-3.24-5.252-4.445-8.922-4.445c-3.583,0-6.614,1.481-8.652,4.17
			c-2.021,2.59-2.757,5.928-2.757,11.396c0,5.47,0.736,8.904,2.757,11.499c2.038,2.684,5.069,4.162,8.652,4.162
			c3.677,0,5.982-1.202,8.922-4.442l6.44,6.213C84.471,503.342,79.964,505.299,73.524,505.299z"/>
		<path fill="#002F60" d="M127.908,499.736c-3.031,3.151-7.629,5.562-13.978,5.562c-6.346,0-10.849-2.411-13.892-5.562
			c-4.416-4.637-5.518-10.564-5.518-18.539c0-7.877,1.102-13.805,5.518-18.441c3.039-3.159,7.542-5.566,13.892-5.566
			c6.348,0,10.947,2.407,13.978,5.566c4.416,4.633,5.526,10.564,5.526,18.441C133.434,489.172,132.323,495.1,127.908,499.736z
			 M120.831,468.318c-1.754-1.763-4.15-2.688-6.907-2.688c-2.759,0-5.059,0.934-6.809,2.688c-2.849,2.862-3.218,7.787-3.218,12.879
			c0,5.1,0.373,10.013,3.218,12.879c1.75,1.771,4.05,2.781,6.809,2.781c2.757,0,5.153-1.011,6.907-2.781
			c2.844-2.866,3.214-7.779,3.214-12.879C124.048,476.105,123.675,471.181,120.831,468.318z"/>
		<path fill="#002F60" d="M173.099,504.739v-28.634c0-7.328-4.138-10.479-9.381-10.479c-5.246,0-9.653,3.236-9.653,10.479v28.634
			h-9.389v-46.985h9.202v4.722c3.218-3.521,7.725-5.286,12.415-5.286c4.777,0,8.744,1.579,11.5,4.259
			c3.588,3.524,4.69,7.975,4.69,13.253v30.029h-9.383V504.739z"/>
		<path fill="#002F60" d="M226.662,499.736c-3.031,3.151-7.634,5.562-13.982,5.562c-6.342,0-10.857-2.411-13.888-5.562
			c-4.416-4.637-5.516-10.564-5.516-18.539c0-7.877,1.1-13.805,5.516-18.441c3.031-3.159,7.542-5.566,13.888-5.566
			c6.348,0,10.951,2.407,13.982,5.566c4.415,4.633,5.518,10.564,5.518,18.441C232.184,489.172,231.082,495.1,226.662,499.736z
			 M219.572,468.318c-1.746-1.763-4.133-2.688-6.892-2.688c-2.757,0-5.057,0.934-6.807,2.688c-2.853,2.862-3.218,7.787-3.218,12.879
			c0,5.1,0.37,10.013,3.218,12.879c1.75,1.771,4.05,2.781,6.807,2.781c2.759,0,5.146-1.011,6.892-2.781
			c2.861-2.866,3.222-7.779,3.222-12.879C222.799,476.105,222.433,471.181,219.572,468.318z"/>
		<path fill="#002F60" d="M300.279,504.739v-28.634c0-7.328-4.146-10.479-9.379-10.479c-5.065,0-9.667,3.236-9.667,10.009v29.096
			h-9.379v-28.633c0-7.324-4.133-10.476-9.381-10.476c-5.242,0-9.653,3.24-9.653,10.476v28.633h-9.384v-46.977h9.201v4.718
			c3.122-3.427,7.716-5.287,12.41-5.287c5.796,0,10.303,2.323,13.242,6.858c3.776-4.629,8.466-6.858,14.631-6.858
			c4.789,0,9.014,1.576,11.775,4.26c3.587,3.524,4.968,7.975,4.968,13.257v30.029h-9.383V504.739z"/>
		<path fill="#002F60" d="M322.397,448.488v-10.018h9.941v10.018H322.397z M322.682,504.739v-46.985h9.379v46.985H322.682z"/>
		<path fill="#002F60" d="M363.903,505.299c-10.49,0-20.797-6.496-20.797-24.102c0-17.609,10.307-24.004,20.797-24.004
			c6.438,0,10.937,1.855,15.352,6.594l-6.434,6.293c-2.948-3.24-5.246-4.445-8.922-4.445c-3.591,0-6.626,1.481-8.646,4.17
			c-2.026,2.59-2.765,5.928-2.765,11.396c0,5.47,0.739,8.904,2.765,11.499c2.02,2.684,5.055,4.162,8.646,4.162
			c3.677,0,5.975-1.202,8.922-4.442l6.434,6.213C374.84,503.342,370.341,505.299,363.903,505.299z"/>
		<path fill="#002F60" d="M448.014,504.739l-4.507-13.257h-25.852l-4.511,13.257h-10.573l23.999-65.983h8.002l24.017,65.983H448.014
			z M430.811,453.673l-10.211,29.291h20.145L430.811,453.673z"/>
		<path fill="#002F60" d="M477.843,504.739c-8.918,0-12.777-6.025-12.777-12.973v-53.011h9.381v52.454
			c0,3.605,1.287,5.457,5.06,5.457h4.142v8.063h-5.805V504.739z"/>
		<path fill="#002F60" d="M504.996,504.739c-8.922,0-12.784-6.025-12.784-12.973v-53.011h9.379v52.454
			c0,3.605,1.293,5.457,5.055,5.457h4.149v8.063h-5.8V504.739z"/>
		<path fill="#002F60" d="M519.354,448.488v-10.018h9.945v10.018H519.354z M519.636,504.739v-46.985h9.389v46.985H519.636z"/>
		<path fill="#002F60" d="M567.579,504.739v-4.268c-3.404,3.435-6.628,4.827-12.42,4.827c-5.79,0-9.658-1.393-12.502-4.263
			c-2.404-2.51-3.693-6.127-3.693-10.11c0-7.877,5.431-13.533,16.103-13.533h12.325v-3.333c0-5.937-2.944-8.807-10.212-8.807
			c-5.145,0-7.629,1.21-10.211,4.547l-6.162-5.834c4.412-5.197,9.022-6.772,16.747-6.772c12.785,0,19.221,5.469,19.221,16.127
			v31.419H567.579L567.579,504.739z M567.393,483.979h-10.949c-5.516,0-8.373,2.506-8.373,6.765s2.668,6.671,8.56,6.671
			c3.589,0,6.251-0.276,8.739-2.691c1.377-1.381,2.022-3.61,2.022-6.951V483.979z"/>
		<path fill="#002F60" d="M618.187,504.739v-28.634c0-7.328-4.138-10.479-9.379-10.479c-5.244,0-9.656,3.236-9.656,10.479v28.634
			h-9.387v-46.985h9.2v4.722c3.214-3.521,7.729-5.286,12.421-5.286c4.781,0,8.733,1.579,11.494,4.259
			c3.59,3.524,4.696,7.975,4.696,13.253v30.029h-9.39V504.739z"/>
		<path fill="#002F60" d="M658.97,505.299c-10.489,0-20.792-6.496-20.792-24.102c0-17.609,10.303-24.004,20.792-24.004
			c6.444,0,10.951,1.855,15.358,6.594l-6.432,6.293c-2.948-3.24-5.248-4.445-8.927-4.445c-3.585,0-6.62,1.481-8.64,4.17
			c-2.024,2.59-2.761,5.928-2.761,11.396c0,5.47,0.737,8.904,2.761,11.499c2.02,2.684,5.055,4.162,8.64,4.162
			c3.683,0,5.979-1.202,8.927-4.442l6.432,6.213C669.921,503.342,665.414,505.299,658.97,505.299z"/>
		<path fill="#002F60" d="M689.067,483.979c0,8.068,4.229,13.159,11.866,13.159c5.244,0,8.005-1.485,11.314-4.819l5.979,5.656
			c-4.785,4.815-9.288,7.324-17.479,7.324c-11.679,0-20.971-6.208-20.971-24.102c0-15.201,7.816-24.004,19.77-24.004
			c12.524,0,19.784,9.27,19.784,22.611v4.174H689.067z M708.751,470.998c-1.476-3.517-4.783-5.928-9.207-5.928
			c-4.416,0-7.812,2.411-9.284,5.928c-0.914,2.136-1.103,3.524-1.189,6.395h20.967C709.943,474.522,709.669,473.134,708.751,470.998
			z"/>
		<path fill="#002F60" d="M782.096,499.736c-3.031,3.151-7.625,5.562-13.978,5.562c-6.348,0-10.847-2.411-13.89-5.562
			c-4.416-4.637-5.514-10.564-5.514-18.539c0-7.877,1.103-13.805,5.514-18.441c3.039-3.159,7.538-5.566,13.89-5.566
			c6.353,0,10.951,2.407,13.978,5.566c4.42,4.633,5.522,10.564,5.522,18.441C787.618,489.172,786.52,495.1,782.096,499.736z
			 M775.017,468.318c-1.741-1.763-4.137-2.688-6.898-2.688c-2.757,0-5.055,0.934-6.807,2.688c-2.853,2.862-3.218,7.787-3.218,12.879
			c0,5.1,0.371,10.013,3.218,12.879c1.752,1.771,4.05,2.781,6.807,2.781c2.761,0,5.157-1.011,6.898-2.781
			c2.856-2.866,3.218-7.779,3.218-12.879C778.239,476.105,777.873,471.181,775.017,468.318z"/>
		<path fill="#002F60" d="M809.725,465.809v38.931h-9.384v-38.931h-5.339v-7.219h5.339v-7.228c0-6.765,4.04-13.069,12.786-13.069
			h5.887v8.059h-4.137c-3.504,0-5.152,2.047-5.152,5.462v6.776h9.289v7.219H809.725z"/>
		<path fill="#002F60" d="M888.489,497.779c-4.962,5.287-11.137,7.52-18.027,7.52c-6.81,0-12.696-2.509-17.195-7.053
			c-6.439-6.479-6.354-13.801-6.354-26.501c0-12.696-0.085-20.025,6.354-26.497c4.499-4.548,10.199-7.049,17.195-7.049
			c13.895,0,21.986,9.176,23.83,20.476h-10.029c-1.656-7.215-6.436-11.479-13.805-11.479c-3.865,0-7.357,1.567-9.651,4.068
			c-3.229,3.533-3.955,7.228-3.955,20.48c0,13.257,0.727,17.053,3.955,20.573c2.302,2.506,5.794,3.991,9.651,3.991
			c4.328,0,8.104-1.665,10.679-4.637c2.387-2.781,3.305-6.119,3.305-10.378v-3.715h-13.983v-8.522h23.923v10.102
			C894.381,487.686,892.818,493.155,888.489,497.779z"/>
		<path fill="#002F60" d="M932.125,468.781c-2.119-2.132-3.771-3.15-6.991-3.15c-5.063,0-9.29,4.076-9.29,10.564v28.544h-9.388
			v-46.985h9.201v5.1c2.396-3.338,7.175-5.66,12.416-5.66c4.499,0,7.905,1.201,11.125,4.449L932.125,468.781z"/>
		<path fill="#002F60" d="M949.32,483.979c0,8.068,4.235,13.159,11.869,13.159c5.237,0,7.998-1.485,11.315-4.819l5.98,5.656
			c-4.791,4.815-9.29,7.324-17.476,7.324c-11.689,0-20.983-6.208-20.983-24.102c0-15.201,7.82-24.004,19.782-24.004
			c12.514,0,19.773,9.27,19.773,22.611v4.174H949.32z M969.009,470.998c-1.474-3.517-4.782-5.928-9.2-5.928
			c-4.422,0-7.82,2.411-9.29,5.928c-0.918,2.136-1.104,3.524-1.198,6.395h20.976C970.203,474.522,969.931,473.134,969.009,470.998z"
			/>
		<path fill="#002F60" d="M1015.674,504.739v-4.268c-3.406,3.435-6.639,4.827-12.42,4.827c-5.803,0-9.656-1.393-12.51-4.263
			c-2.396-2.51-3.688-6.127-3.688-10.11c0-7.877,5.433-13.533,16.1-13.533h12.331v-3.333c0-5.937-2.952-8.807-10.216-8.807
			c-5.156,0-7.638,1.21-10.208,4.547l-6.167-5.834c4.422-5.197,9.021-6.772,16.744-6.772c12.786,0,19.222,5.469,19.222,16.127
			v31.419H1015.674L1015.674,504.739z M1015.487,483.979h-10.959c-5.514,0-8.372,2.506-8.372,6.765s2.672,6.671,8.559,6.671
			c3.59,0,6.262-0.276,8.746-2.691c1.381-1.381,2.026-3.61,2.026-6.951V483.979L1015.487,483.979z"/>
		<path fill="#002F60" d="M1051.758,504.739c-8.738,0-12.79-6.302-12.79-13.074v-25.86h-5.335v-7.215h5.335v-14.276h9.388v14.276
			h9.014v7.215h-9.014v25.397c0,3.435,1.656,5.461,5.148,5.461h3.865v8.067h-5.611V504.739z"/>
		<path fill="#002F60" d="M1074.301,483.979c0,8.068,4.234,13.159,11.871,13.159c5.242,0,7.995-1.485,11.305-4.819l5.988,5.656
			c-4.783,4.815-9.298,7.324-17.479,7.324c-11.685,0-20.976-6.208-20.976-24.102c0-15.201,7.816-24.004,19.778-24.004
			c12.51,0,19.777,9.27,19.777,22.611v4.174H1074.301z M1093.992,470.998c-1.478-3.517-4.791-5.928-9.204-5.928
			c-4.414,0-7.824,2.411-9.286,5.928c-0.926,2.136-1.112,3.524-1.201,6.395h20.975
			C1095.178,474.522,1094.91,473.134,1093.992,470.998z"/>
		<path fill="#002F60" d="M1141.197,468.781c-2.111-2.132-3.768-3.15-6.992-3.15c-5.059,0-9.289,4.076-9.289,10.564v28.544h-9.38
			v-46.985h9.192v5.1c2.404-3.338,7.188-5.66,12.421-5.66c4.507,0,7.913,1.201,11.129,4.449L1141.197,468.781z"/>
		<path fill="#002F60" d="M1202.67,504.739h-26.489v-65.983h25.486c12.141,0,19.778,6.946,19.778,18.072
			c0,7.138-4.418,12.229-8.836,13.995c5.06,2.026,9.847,6.947,9.847,15.291C1222.451,498.246,1214.262,504.739,1202.67,504.739z
			 M1200.831,447.74h-14.711v18.909h14.711c6.346,0,10.67-3.342,10.67-9.456C1211.505,451.078,1207.181,447.74,1200.831,447.74z
			 M1201.752,475.635h-15.632v20.115h15.632c6.902,0,10.764-4.264,10.764-10.11C1212.516,479.805,1208.654,475.635,1201.752,475.635
			z"/>
		<path fill="#002F60" d="M1259.745,504.739v-4.268c-3.406,3.435-6.626,4.827-12.42,4.827c-5.802,0-9.655-1.393-12.51-4.263
			c-2.396-2.51-3.675-6.127-3.675-10.11c0-7.877,5.421-13.533,16.087-13.533h12.327v-3.333c0-5.937-2.932-8.807-10.212-8.807
			c-5.148,0-7.633,1.21-10.207,4.547l-6.164-5.834c4.418-5.197,9.015-6.772,16.741-6.772c12.785,0,19.233,5.469,19.233,16.127
			v31.419H1259.745L1259.745,504.739z M1259.555,483.979h-10.942c-5.519,0-8.372,2.506-8.372,6.765s2.667,6.671,8.559,6.671
			c3.581,0,6.249-0.276,8.729-2.691c1.393-1.381,2.026-3.61,2.026-6.951V483.979L1259.555,483.979z"/>
		<path fill="#002F60" d="M1294.453,504.739c-8.917,0-12.79-6.025-12.79-12.973v-53.011h9.387v52.454
			c0,3.605,1.287,5.457,5.06,5.457h4.142v8.063h-5.798V504.739z"/>
		<path fill="#002F60" d="M1322.977,504.739c-8.742,0-12.786-6.302-12.786-13.074v-25.86h-5.339v-7.215h5.339v-14.276h9.379v14.276
			h9.015v7.215h-9.015v25.397c0,3.435,1.657,5.461,5.148,5.461h3.866v8.067h-5.607V504.739z"/>
		<path fill="#002F60" d="M1338.815,448.488v-10.018h9.939v10.018H1338.815z M1339.096,504.739v-46.985h9.375v46.985H1339.096z"/>
		<path fill="#002F60" d="M1418.767,504.739v-28.634c0-7.328-4.142-10.479-9.384-10.479c-5.067,0-9.655,3.236-9.655,10.009v29.096
			h-9.379v-28.633c0-7.324-4.142-10.476-9.392-10.476s-9.655,3.24-9.655,10.476v28.633h-9.38v-46.977h9.193v4.718
			c3.13-3.427,7.73-5.287,12.416-5.287c5.798,0,10.305,2.323,13.253,6.858c3.768-4.629,8.462-6.858,14.621-6.858
			c4.791,0,9.021,1.576,11.778,4.26c3.582,3.524,4.97,7.975,4.97,13.257v30.029h-9.387V504.739z"/>
		<path fill="#002F60" d="M1472.342,499.736c-3.029,3.151-7.638,5.562-13.988,5.562c-6.334,0-10.849-2.411-13.886-5.562
			c-4.413-4.637-5.518-10.564-5.518-18.539c0-7.877,1.108-13.805,5.518-18.441c3.033-3.159,7.548-5.566,13.886-5.566
			c6.351,0,10.959,2.407,13.988,5.566c4.418,4.633,5.514,10.564,5.514,18.441C1477.855,489.172,1476.755,495.1,1472.342,499.736z
			 M1465.261,468.318c-1.754-1.763-4.142-2.688-6.907-2.688c-2.744,0-5.059,0.934-6.805,2.688c-2.85,2.862-3.22,7.787-3.22,12.879
			c0,5.1,0.374,10.013,3.22,12.879c1.746,1.771,4.061,2.781,6.805,2.781c2.766,0,5.153-1.011,6.907-2.781
			c2.854-2.866,3.216-7.779,3.216-12.879C1468.477,476.105,1468.111,471.181,1465.261,468.318z"/>
		<path fill="#002F60" d="M1514.783,468.781c-2.123-2.132-3.783-3.15-7.004-3.15c-5.062,0-9.281,4.076-9.281,10.564v28.544h-9.379
			v-46.985h9.192v5.1c2.396-3.338,7.179-5.66,12.42-5.66c4.503,0,7.901,1.201,11.13,4.449L1514.783,468.781z"/>
		<path fill="#002F60" d="M1531.983,483.979c0,8.068,4.234,13.159,11.864,13.159c5.246,0,8.011-1.485,11.319-4.819l5.978,5.656
			c-4.779,4.815-9.282,7.324-17.472,7.324c-11.686,0-20.972-6.208-20.972-24.102c0-15.201,7.816-24.004,19.773-24.004
			c12.514,0,19.777,9.27,19.777,22.611v4.174H1531.983z M1551.668,470.998c-1.471-3.517-4.783-5.928-9.201-5.928
			c-4.422,0-7.816,2.411-9.294,5.928c-0.909,2.136-1.097,3.524-1.189,6.395h20.972
			C1552.861,474.522,1552.589,473.134,1551.668,470.998z"/>
	</g>
	<g>
		<g>
			<g>
				<path fill="#002F60" d="M79.911,256.16h183.925v-61.759H79.911v-79.023h249.75V53.634H96.613H24.31
					C12.269,53.869,2.597,64.28,2.208,77.265v17.829v265.693v17.808c0.386,12.924,9.97,23.278,21.912,23.615H96.8h236.091v-68.07
					H79.907V256.16H79.911z"/>
				<path fill="#002F60" d="M1492.915,224.174c38.771-4.765,60.522-25.17,60.522-59.169v-42.815
					c0-48.969-25.157-68.008-78.899-68.008h-267.219v347.194h245.48c68.667,0,103.342-21.751,103.342-68.671v-44.891
					C1556.146,250.421,1533.721,229.604,1492.915,224.174z M1287.559,115.378h152.995c25.165,0,37.403,5.796,37.403,26.211v28.176
					c0,20.403-12.238,25.168-37.403,25.168h-152.995V115.378z M1479.995,306.354c0,25.86-11.571,27.281-39.441,27.281h-152.995
					v-80.909h152.995c27.87,0,39.441,5.433,39.441,31.28V306.354z"/>
				<polygon fill="none" points="614.315,100.766 578.942,42.736 440.689,287.652 509.066,287.652 				"/>
				<g>
					<polygon fill="none" points="614.315,100.766 578.942,42.736 440.689,287.652 509.066,287.652 					"/>
					<polygon fill="none" points="579.72,215.917 538.869,288.115 620.556,288.115 					"/>
					<g>
						<polygon fill="none" points="579.72,215.917 538.869,288.115 620.556,288.115 						"/>
						<polygon fill="none" points="634.151,314.035 422.457,314.035 389.262,374.168 668.171,374.168 668.134,374.104 
							668.171,374.104 						"/>
						<polygon fill="none" points="614.315,100.766 578.942,42.736 440.689,287.652 509.066,287.652 						"/>
						<polygon fill="none" points="595.157,188.4 698.905,374.258 767.183,374.201 628.418,129.565 						"/>
						<g>
							<polygon fill="none" points="579.72,215.917 538.869,288.115 620.556,288.115 							"/>
							<polygon fill="none" points="614.315,100.766 578.942,42.736 440.689,287.652 509.066,287.652 							"/>
							<polygon fill="none" points="634.151,314.035 422.457,314.035 389.262,374.168 668.171,374.168 668.134,374.104 
								668.171,374.104 							"/>
							<polygon fill="none" points="595.157,188.4 698.905,374.258 767.183,374.201 628.418,129.565 							"/>
							<polygon fill="#F7901E" points="579.72,215.917 538.869,288.115 620.556,288.115 							"/>
							<path fill="#002F60" d="M804.771,374.217L597.834,7.586c0,0-6.598-7.505-18.822-7.581
								c-11.604-0.231-18.427,7.414-18.427,7.414L353.239,374.217l-0.52,4.174c-0.37,4.426-0.079,8.99,2.288,12.993
								c2.702,4.649,7.022,8.722,11.538,10.833h424.933c4.507-2.119,8.827-6.184,11.531-10.833
								C806.127,386.094,805.668,379.857,804.771,374.217z M578.942,42.736l35.374,58.03L509.066,287.652h-68.377L578.942,42.736z
								 M579.72,215.917l40.836,72.189h-81.683L579.72,215.917z M668.171,374.168H389.262l33.195-60.133h211.694l34.02,60.068
								h-0.037L668.171,374.168z M698.905,374.258L595.161,188.4l33.262-58.835l138.764,244.636L698.905,374.258z"/>
						</g>
					</g>
				</g>
			</g>
			<g>
				<path fill="#002F60" d="M1164.102,152.559c0.109-5.672,0.442-17.48,0.442-19.717c0-63.231-23.123-79.549-87.053-79.549H902.047
					c-65.963,0-87.02,16.992-87.02,82.946v182.256c0,65.963,21.057,82.951,87.02,82.951h175.444
					c65.972,0,87.053-16.988,87.053-82.951V200.167H951.717v59.847h133.27v73.621H896.605V115.171h188.381v37.387H1164.102z"/>
			</g>
		</g>
		<g>
			<path fill="#002F60" d="M1570.535,57.008v17.313h-3.674V57.008h-5.514v-3.333h14.746v3.333H1570.535z M1595.385,74.321V60.834
				l-4.353,8.661h-3.436l-4.345-8.661v13.486h-3.723V53.674h3.723l6.042,11.754l6.091-11.754h3.727v20.646H1595.385z"/>
		</g>
	</g>
</g>
</svg>
