<?xml version="1.0" encoding="utf-8"?>
<!-- Generator: Adobe Illustrator 16.0.0, SVG Export Plug-In . SVG Version: 6.00 Build 0)  -->
<!DOCTYPE svg PUBLIC "-//W3C//DTD SVG 1.1//EN" "http://www.w3.org/Graphics/SVG/1.1/DTD/svg11.dtd">
<svg version="1.1" id="Layer_1" xmlns="http://www.w3.org/2000/svg" xmlns:xlink="http://www.w3.org/1999/xlink" x="0px" y="0px"
	 width="252px" height="92.764px" viewBox="0 0 252 92.764" enable-background="new 0 0 252 92.764" xml:space="preserve">
<g>
	<path fill="#EFAA37" d="M205.646,62.376c-20.407-3.908-33.994-18.445-30.352-32.471c1.047-4.015,3.395-7.557,6.684-10.469
		c-2.717,2.62-4.671,5.72-5.576,9.206c-3.444,13.253,11.06,23.597,30.343,27.29c19.282,3.689,32.173-6.233,35.068-16.17
		c3.769-12.947-4.595-24.314-23.384-28.251c0.138,0.029,0.273,0.052,0.407,0.076c20.409,3.904,33.993,18.442,30.351,32.471
		C245.543,58.08,226.047,66.283,205.646,62.376z"/>
	<path fill="#EB3F34" d="M217.07,15.251C199.795,3.625,179.618,5.013,172,18.356c-2.176,3.823-3.09,8.207-2.879,12.795
		c-0.021-3.953,0.852-7.724,2.746-11.035c7.194-12.604,24.589-12.254,40.914-1.265c16.326,10.984,21.05,27.25,13.855,39.856
		c-7.085,12.41-21.334,15.051-37.488,4.609c0.115,0.074,0.23,0.155,0.347,0.238c17.276,11.618,37.452,10.229,45.066-3.109
		C242.174,47.106,234.344,26.87,217.07,15.251z"/>
	<path d="M197.783,3.306c3.343,0.653,5.644,3.737,5.14,6.892c-0.502,3.149-3.624,5.171-6.967,4.521
		c-3.343-0.651-5.646-3.739-5.142-6.892C191.318,4.674,194.437,2.648,197.783,3.306z"/>
</g>
<path d="M13.903,31.414H2.113v-7.05h31.01v7.05H21.335v33.184h-7.433V31.414z"/>
<path d="M40.039,47.491h-4.804v-7.045h4.804V24.363h30.69v13.006h-7.431v-5.956H47.473v9.032h16.336v7.045H47.473v10.06h15.824
	v-6.021h7.431v13.067H40.039V47.491z"/>
<path d="M86.425,31.414h9.543c8.648,0,14.157,5.956,14.157,13.068c0,7.112-5.508,13.068-14.157,13.068h-9.543V31.414z
	 M78.994,64.596h16.974c13.263,0,21.587-9.482,21.587-20.116c0-10.636-8.005-20.119-21.587-20.119H78.994V64.596z"/>
<path d="M160.546,57.167c-4.484,5.639-10.766,8.263-17.17,8.263c-12.044,0-21.592-9.161-21.592-20.947
	c0-11.79,9.548-20.951,21.592-20.951c6.404,0,12.686,2.625,17.17,8.263l-6.151,4.614c-2.563-3.716-6.47-5.83-11.019-5.83
	c-7.239,0-13.775,6.089-13.775,13.904c0,7.814,6.536,13.9,13.775,13.9c4.549,0,8.582-2.115,11.146-5.571L160.546,57.167z"/>
<path d="M172.331,44.482c0-7.815,6.533-13.904,13.775-13.904c7.238,0,13.776,6.089,13.776,13.904c0,7.814-6.538,13.9-13.776,13.9
	C178.864,58.383,172.331,52.297,172.331,44.482z M164.516,44.482c0,11.785,9.544,20.947,21.591,20.947
	c12.045,0,21.592-9.161,21.592-20.947c0-11.79-9.547-20.951-21.592-20.951C174.061,23.531,164.516,32.691,164.516,44.482z"/>
<g>
	<path d="M11.229,78.191h1.746v6.273h3.08v1.47h-4.825V78.191z"/>
	<path d="M23.644,82.66h-2.85v1.839h3.182v1.436h-4.93V78.19h4.769v1.437h-3.022v1.608h2.849v1.425H23.644z"/>
	<path d="M28.924,83.946l-0.552,1.988h-1.804l2.355-7.744h2.298l2.414,7.744H31.74l-0.598-1.988H28.924z M30.889,82.637
		l-0.482-1.645c-0.139-0.459-0.276-1.032-0.391-1.493h-0.022c-0.115,0.461-0.229,1.045-0.356,1.493l-0.46,1.645H30.889z"/>
	<path d="M36.605,78.305c0.644-0.104,1.482-0.172,2.355-0.172c1.482,0,2.447,0.275,3.183,0.827c0.804,0.597,1.31,1.551,1.31,2.918
		c0,1.482-0.54,2.505-1.275,3.138c-0.815,0.678-2.067,1-3.584,1c-0.908,0-1.562-0.059-1.987-0.115V78.305z M38.353,84.613
		c0.15,0.034,0.402,0.034,0.609,0.034c1.598,0.013,2.642-0.86,2.642-2.711c0-1.608-0.942-2.46-2.458-2.46
		c-0.379,0-0.643,0.035-0.793,0.069V84.613z"/>
	<path d="M48.308,78.191v7.745h-1.746v-7.745H48.308z"/>
	<path d="M51.774,85.934V78.19h2.045l1.608,2.838c0.46,0.814,0.908,1.779,1.264,2.653h0.023c-0.104-1.022-0.138-2.068-0.138-3.239
		V78.19h1.609v7.744h-1.839l-1.654-2.987c-0.46-0.827-0.977-1.826-1.344-2.735h-0.046c0.058,1.034,0.082,2.127,0.082,3.39v2.333
		H51.774z"/>
	<path d="M68.119,85.579c-0.541,0.184-1.563,0.436-2.586,0.436c-1.413,0-2.436-0.356-3.148-1.033
		c-0.701-0.679-1.091-1.689-1.091-2.828c0.011-2.572,1.883-4.044,4.422-4.044c1,0,1.77,0.196,2.149,0.368l-0.368,1.414
		c-0.425-0.196-0.942-0.333-1.792-0.333c-1.459,0-2.574,0.815-2.574,2.505c0,1.608,1.011,2.539,2.448,2.539
		c0.391,0,0.713-0.047,0.851-0.104v-1.632h-1.195V81.5h2.884V85.579L68.119,85.579z"/>
	<path d="M77.463,78.191v7.745h-1.747v-7.745H77.463z"/>
	<path d="M80.93,85.934V78.19h2.045l1.608,2.838c0.46,0.814,0.908,1.779,1.264,2.653h0.022c-0.104-1.022-0.139-2.068-0.139-3.239
		V78.19h1.609v7.744h-1.838l-1.654-2.987c-0.46-0.827-0.977-1.826-1.344-2.735h-0.046c0.058,1.034,0.082,2.127,0.082,3.39v2.333
		H80.93z"/>
	<path d="M90.805,85.934V78.19h2.045l1.608,2.838c0.46,0.814,0.908,1.779,1.264,2.653h0.022c-0.104-1.022-0.138-2.068-0.138-3.239
		V78.19h1.607v7.744h-1.837l-1.654-2.987c-0.46-0.827-0.977-1.826-1.344-2.735h-0.046c0.058,1.034,0.082,2.127,0.082,3.39v2.333
		H90.805z"/>
	<path d="M107.77,81.982c0,2.551-1.528,4.079-3.803,4.079c-2.287,0-3.642-1.735-3.642-3.953c0-2.32,1.493-4.057,3.769-4.057
		C106.471,78.052,107.77,79.834,107.77,81.982z M102.174,82.074c0,1.527,0.712,2.597,1.885,2.597c1.184,0,1.861-1.126,1.861-2.631
		c0-1.401-0.655-2.597-1.861-2.597C102.863,79.443,102.174,80.568,102.174,82.074z"/>
	<path d="M112.613,85.934l-2.481-7.744h1.918l0.942,3.274c0.264,0.931,0.505,1.804,0.688,2.77h0.035
		c0.196-0.931,0.437-1.851,0.701-2.735l0.988-3.311h1.862l-2.609,7.745L112.613,85.934L112.613,85.934z"/>
	<path d="M121.225,83.946l-0.551,1.988h-1.804l2.354-7.744h2.298l2.413,7.744h-1.896l-0.597-1.988H121.225z M123.189,82.637
		l-0.482-1.645c-0.138-0.459-0.276-1.032-0.391-1.493h-0.022c-0.115,0.461-0.23,1.045-0.357,1.493l-0.459,1.645H123.189z"/>
	<path d="M129.458,79.661h-2.092v-1.47h5.951v1.47h-2.112v6.273h-1.747V79.661z"/>
	<path d="M137.955,78.191v7.745h-1.746v-7.745H137.955z"/>
	<path d="M148.511,81.982c0,2.551-1.528,4.079-3.803,4.079c-2.287,0-3.643-1.735-3.643-3.953c0-2.32,1.493-4.057,3.768-4.057
		C147.213,78.052,148.511,79.834,148.511,81.982z M142.916,82.074c0,1.527,0.712,2.597,1.885,2.597c1.183,0,1.862-1.126,1.862-2.631
		c0-1.401-0.656-2.597-1.862-2.597C143.605,79.443,142.916,80.568,142.916,82.074z"/>
	<path d="M151.606,85.934V78.19h2.046l1.608,2.838c0.459,0.814,0.906,1.779,1.262,2.653h0.022c-0.103-1.022-0.138-2.068-0.138-3.239
		V78.19h1.608v7.744h-1.837l-1.655-2.987c-0.459-0.827-0.978-1.826-1.344-2.735h-0.047c0.058,1.034,0.08,2.127,0.08,3.39v2.333
		H151.606z"/>
	<path d="M166.811,79.661h-2.09v-1.47h5.951v1.47h-2.115v6.273h-1.746V79.661z"/>
	<path d="M180.306,81.982c0,2.551-1.526,4.079-3.803,4.079c-2.285,0-3.641-1.735-3.641-3.953c0-2.32,1.493-4.057,3.768-4.057
		C179.008,78.052,180.306,79.834,180.306,81.982z M174.711,82.074c0,1.527,0.712,2.597,1.885,2.597c1.185,0,1.861-1.126,1.861-2.631
		c0-1.401-0.654-2.597-1.861-2.597C175.4,79.443,174.711,80.568,174.711,82.074z"/>
	<path d="M194.225,82.97c-0.035-0.931-0.07-2.057-0.07-3.182h-0.022c-0.252,0.987-0.573,2.09-0.871,2.999l-0.942,3.021h-1.368
		l-0.827-2.987c-0.253-0.919-0.505-2.022-0.701-3.033H189.4c-0.035,1.045-0.08,2.241-0.128,3.206l-0.148,2.941h-1.621l0.494-7.745
		h2.333l0.759,2.585c0.253,0.896,0.484,1.862,0.654,2.769h0.047c0.206-0.896,0.472-1.918,0.734-2.78l0.815-2.573h2.299l0.414,7.745
		h-1.703L194.225,82.97z"/>
	<path d="M201.111,83.946l-0.552,1.988h-1.804l2.355-7.744h2.299l2.413,7.744h-1.896l-0.599-1.988H201.111z M203.077,82.637
		l-0.483-1.645c-0.138-0.459-0.275-1.032-0.391-1.493h-0.021c-0.114,0.461-0.23,1.045-0.355,1.493l-0.462,1.645H203.077z"/>
	<path d="M208.791,78.295c0.563-0.094,1.391-0.161,2.333-0.161c1.149,0,1.954,0.172,2.505,0.608
		c0.471,0.368,0.724,0.919,0.724,1.632c0,0.977-0.701,1.655-1.367,1.896v0.035c0.541,0.218,0.839,0.724,1.034,1.436
		c0.241,0.885,0.472,1.896,0.621,2.194h-1.793c-0.115-0.229-0.311-0.852-0.529-1.804c-0.218-0.978-0.551-1.229-1.274-1.242h-0.517
		v3.046h-1.735L208.791,78.295L208.791,78.295z M210.527,81.626h0.689c0.874,0,1.39-0.437,1.39-1.115
		c0-0.701-0.483-1.068-1.287-1.068c-0.424,0-0.668,0.021-0.793,0.058L210.527,81.626L210.527,81.626z"/>
	<path d="M217.554,78.191h1.735v3.423h0.023c0.172-0.298,0.355-0.573,0.541-0.85l1.746-2.573h2.159l-2.562,3.297l2.688,4.448h-2.032
		l-1.909-3.345l-0.654,0.815v2.527h-1.735V78.191z"/>
	<path d="M231.164,82.66h-2.85v1.839h3.182v1.436h-4.929V78.19h4.767v1.437h-3.021v1.608h2.85v1.425H231.164z"/>
	<path d="M236.203,79.661h-2.089v-1.47h5.949v1.47h-2.114v6.273h-1.746V79.661z"/>
</g>
</svg>
