<?xml version="1.0" encoding="utf-8"?>
<!-- Generator: Adobe Illustrator 24.0.1, SVG Export Plug-In . SVG Version: 6.00 Build 0)  -->
<svg version="1.1" id="Layer_1" xmlns="http://www.w3.org/2000/svg" xmlns:xlink="http://www.w3.org/1999/xlink" x="0px" y="0px"
	 viewBox="0 0 300 300" style="enable-background:new 0 0 300 300;" xml:space="preserve">
<style type="text/css">
	.st0{fill:#3CBEB1;}
</style>
<g>
	<path class="st0" d="M86.94,151.44l39.13-19.75v11.19L99.13,155.9l26.94,13.01v11.38l-39.13-19.66V151.44z"/>
	<path class="st0" d="M126.07,181.29c-0.15,0-0.31-0.04-0.45-0.11l-39.13-19.66c-0.34-0.17-0.55-0.52-0.55-0.89v-9.19
		c0-0.38,0.21-0.72,0.55-0.89l39.13-19.75c0.31-0.16,0.68-0.14,0.97,0.04c0.3,0.18,0.48,0.5,0.48,0.85v11.19
		c0,0.38-0.22,0.73-0.56,0.9l-25.07,12.11l25.07,12.11c0.35,0.17,0.56,0.52,0.56,0.9v11.38c0,0.35-0.18,0.67-0.48,0.85
		C126.43,181.24,126.25,181.29,126.07,181.29z M87.94,160.02l37.13,18.65v-9.13L98.7,156.8c-0.35-0.17-0.56-0.52-0.56-0.9
		s0.22-0.73,0.56-0.9l26.37-12.74v-8.94l-37.13,18.74V160.02z"/>
</g>
<g>
	<path class="st0" d="M139.9,189.07h-10.92l32.22-66.16h11.01L139.9,189.07z"/>
	<path class="st0" d="M139.9,190.07h-10.92c-0.34,0-0.67-0.18-0.85-0.47c-0.18-0.29-0.2-0.66-0.05-0.97l32.21-66.16
		c0.17-0.34,0.52-0.56,0.9-0.56h11.01c0.34,0,0.67,0.18,0.85,0.47c0.18,0.29,0.2,0.66,0.05,0.97l-32.31,66.16
		C140.63,189.86,140.28,190.07,139.9,190.07z M130.58,188.07h8.7l31.33-64.16h-8.78L130.58,188.07z"/>
</g>
<g>
	<path class="st0" d="M214.24,160.54l-39.13,19.75V169.1l26.94-13.01l-26.94-13.01V131.7l39.13,19.75V160.54z"/>
	<path class="st0" d="M175.11,181.29c-0.18,0-0.36-0.05-0.52-0.15c-0.3-0.18-0.48-0.5-0.48-0.85V169.1c0-0.38,0.22-0.73,0.57-0.9
		l25.07-12.11l-25.07-12.11c-0.35-0.17-0.57-0.52-0.57-0.9V131.7c0-0.35,0.18-0.67,0.48-0.85c0.3-0.18,0.67-0.2,0.97-0.04
		l39.13,19.75c0.34,0.17,0.55,0.52,0.55,0.89v9.1c0,0.38-0.21,0.72-0.55,0.89l-39.13,19.75
		C175.42,181.26,175.27,181.29,175.11,181.29z M176.11,169.73v8.94l37.13-18.74v-7.87l-37.13-18.74v9.12l26.37,12.74
		c0.35,0.17,0.57,0.52,0.57,0.9s-0.22,0.73-0.57,0.9L176.11,169.73z"/>
</g>
<path class="st0" d="M53.15,161.85H27.01c-8.07,0-14.64-6.57-14.64-14.64V31.72c0-8.07,6.57-14.64,14.64-14.64h177.06
	c8.07,0,14.64,6.57,14.64,14.64v78.39c0,3.87-3.13,7-7,7s-7-3.13-7-7V31.72c0-0.35-0.29-0.64-0.64-0.64H27.01
	c-0.35,0-0.64,0.29-0.64,0.64V147.2c0,0.35,0.29,0.64,0.64,0.64h26.14c3.87,0,7,3.13,7,7S57.01,161.85,53.15,161.85z"/>
<path class="st0" d="M272.99,292.62H95.94c-8.07,0-14.64-6.57-14.64-14.64v-78.39c0-3.87,3.13-7,7-7s7,3.13,7,7v78.39
	c0,0.35,0.29,0.64,0.64,0.64h177.05c0.35,0,0.64-0.29,0.64-0.64V162.49c0-0.35-0.29-0.64-0.64-0.64h-26.14c-3.87,0-7-3.13-7-7
	s3.13-7,7-7h26.14c8.07,0,14.64,6.57,14.64,14.64v115.48C287.64,286.05,281.07,292.62,272.99,292.62z"/>
<path class="st0" d="M49.24,89.92c-3.87,0-7-3.13-7-7v-31.6c0-3.87,3.13-7,7-7h31.6c3.87,0,7,3.13,7,7s-3.13,7-7,7h-24.6v24.6
	C56.24,86.79,53.11,89.92,49.24,89.92z"/>
<path class="st0" d="M103.97,113.05c-1.79,0-3.58-0.68-4.95-2.05L46.75,58.72c-2.73-2.73-2.73-7.17,0-9.9c2.73-2.73,7.17-2.73,9.9,0
	l52.28,52.28c2.73,2.73,2.73,7.17,0,9.9C107.56,112.37,105.76,113.05,103.97,113.05z"/>
<path class="st0" d="M258.59,267.67h-31.6c-3.87,0-7-3.13-7-7s3.13-7,7-7h24.6v-24.6c0-3.87,3.13-7,7-7s7,3.13,7,7v31.6
	C265.59,264.54,262.46,267.67,258.59,267.67z"/>
<path class="st0" d="M256.14,265.22c-1.79,0-3.58-0.68-4.95-2.05l-52.28-52.28c-2.73-2.73-2.73-7.17,0-9.9
	c2.73-2.73,7.17-2.73,9.9,0l52.28,52.28c2.73,2.73,2.73,7.17,0,9.9C259.72,264.53,257.93,265.22,256.14,265.22z"/>
</svg>
