<?xml version="1.0" encoding="utf-8"?>
<!-- Generator: Adobe Illustrator 24.0.1, SVG Export Plug-In . SVG Version: 6.00 Build 0)  -->
<svg version="1.1" id="Layer_1" xmlns="http://www.w3.org/2000/svg" xmlns:xlink="http://www.w3.org/1999/xlink" x="0px" y="0px"
	 viewBox="0 0 300 300" style="enable-background:new 0 0 300 300;" xml:space="preserve">
<style type="text/css">
	.st0{fill:#3CBEB1;}
</style>
<path class="st0" d="M266.35,205.06c-1.82,0-3.61-0.71-4.95-2.05l-49.33-49.34H75.64c-3.87,0-7-3.13-7-7V22.99c0-3.87,3.13-7,7-7
	h190.71c3.87,0,7,3.13,7,7v175.07c0,2.83-1.71,5.38-4.32,6.47C268.16,204.89,267.25,205.06,266.35,205.06z M82.64,139.68h132.32
	c1.86,0,3.64,0.74,4.95,2.05l39.43,39.44V29.99H82.64V139.68z"/>
<path class="st0" d="M22.86,284.01c-0.9,0-1.81-0.17-2.68-0.53c-2.62-1.08-4.32-3.64-4.32-6.47V101.94c0-3.87,3.13-7,7-7h29.9
	c3.87,0,7,3.13,7,7s-3.13,7-7,7h-22.9v151.17l39.44-39.44c1.31-1.31,3.09-2.05,4.95-2.05h132.32V180.9c0-3.87,3.13-7,7-7s7,3.13,7,7
	v44.72c0,3.87-3.13,7-7,7H77.15l-49.33,49.33C26.47,283.3,24.68,284.01,22.86,284.01z"/>
<g>
	<g>
		<path class="st0" d="M164.63,97.56c-0.2-1.27-0.39-2.55-0.39-4.02c0-5.19,2.16-10,7.74-14.21l4.7-3.53
			c2.95-2.16,4.22-4.81,4.22-7.75c0-4.51-3.24-8.82-9.81-8.82c-6.96,0-10,5.59-10,11.08c0,1.18,0.1,2.26,0.39,3.14l-12.36-0.49
			c-0.39-1.37-0.49-2.94-0.49-4.41c0-10.59,7.94-20.79,22.45-20.79c15.2,0,23.14,9.61,23.14,19.51c0,7.74-3.92,13.24-9.71,17.35
			l-4.02,2.85c-3.42,2.45-5.29,5.49-5.29,9.51v0.59H164.63z M170.12,103.94c4.31,0,7.84,3.53,7.84,7.84s-3.53,7.74-7.84,7.74
			c-4.32,0-7.75-3.43-7.75-7.74S165.8,103.94,170.12,103.94z"/>
		<path class="st0" d="M170.12,120.53c-4.91,0-8.75-3.84-8.75-8.74c0-4.88,3.93-8.84,8.75-8.84c4.87,0,8.84,3.97,8.84,8.84
			C178.96,116.6,175,120.53,170.12,120.53z M170.12,104.94c-3.72,0-6.75,3.07-6.75,6.84c0,3.78,2.97,6.74,6.75,6.74
			c3.77,0,6.84-3.03,6.84-6.74C176.96,108.01,173.9,104.94,170.12,104.94z M175.22,98.56h-10.59c-0.49,0-0.91-0.36-0.99-0.85
			c-0.19-1.21-0.4-2.57-0.4-4.17c0-5.97,2.66-10.88,8.14-15.01l4.7-3.53c2.58-1.89,3.82-4.16,3.82-6.95c0-3.89-2.72-7.82-8.81-7.82
			c-6.64,0-9,5.43-9,10.08c0,1.22,0.11,2.14,0.34,2.82c0.1,0.31,0.05,0.65-0.15,0.92c-0.2,0.26-0.49,0.41-0.84,0.4l-12.36-0.49
			c-0.43-0.02-0.8-0.31-0.92-0.73c-0.36-1.26-0.52-2.75-0.52-4.69c0-10.83,8.06-21.79,23.45-21.79c7.34,0,13.55,2.18,17.96,6.31
			c3.99,3.74,6.19,8.78,6.19,14.2c0,7.38-3.31,13.32-10.13,18.17l-4.03,2.85c-3.32,2.38-4.87,5.14-4.87,8.69v0.59
			C176.22,98.12,175.77,98.56,175.22,98.56z M165.49,96.56h8.73c0.12-4,1.99-7.25,5.71-9.91l4.03-2.85
			c6.25-4.44,9.29-9.85,9.29-16.54c0-8.92-6.93-18.51-22.14-18.51c-14.08,0-21.45,9.95-21.45,19.79c0,1.39,0.09,2.5,0.28,3.44
			l10.3,0.41c-0.09-0.61-0.13-1.29-0.13-2.09c0-6.01,3.4-12.08,11-12.08c7.43,0,10.81,5.09,10.81,9.82c0,3.42-1.56,6.3-4.63,8.56
			l-4.69,3.52c-4.94,3.73-7.34,8.12-7.34,13.42C165.24,94.64,165.36,95.65,165.49,96.56z"/>
	</g>
</g>
<path class="st0" d="M141.26,204.47H56.03c-3.87,0-7-3.13-7-7s3.13-7,7-7h85.23c3.87,0,7,3.13,7,7S145.12,204.47,141.26,204.47z"/>
<path class="st0" d="M183.53,179.12H56.03c-3.87,0-7-3.13-7-7s3.13-7,7-7h127.5c3.87,0,7,3.13,7,7S187.4,179.12,183.53,179.12z"/>
</svg>
