<?xml version="1.0" encoding="utf-8"?>
<!-- Generator: Adobe Illustrator 24.0.1, SVG Export Plug-In . SVG Version: 6.00 Build 0)  -->
<svg version="1.1" id="Layer_1" xmlns="http://www.w3.org/2000/svg" xmlns:xlink="http://www.w3.org/1999/xlink" x="0px" y="0px"
	 viewBox="0 0 300 300" style="enable-background:new 0 0 300 300;" xml:space="preserve">
<style type="text/css">
	.st0{fill:#3CBEB1;}
</style>
<path class="st0" d="M188.7,133.89c-29.81,0-54.05-24.25-54.05-54.05c0-29.81,24.25-54.05,54.05-54.05
	c29.81,0,54.05,24.25,54.05,54.05C242.75,109.64,218.5,133.89,188.7,133.89z M188.7,39.78c-22.09,0-40.05,17.97-40.05,40.05
	c0,22.09,17.97,40.05,40.05,40.05c22.09,0,40.05-17.97,40.05-40.05C228.75,57.75,210.78,39.78,188.7,39.78z"/>
<path class="st0" d="M264.87,162.45c-1.79,0-3.58-0.68-4.95-2.05l-42.62-42.62c-2.73-2.73-2.73-7.17,0-9.9
	c2.73-2.73,7.17-2.73,9.9,0l42.62,42.62c2.73,2.73,2.73,7.17,0,9.9C268.45,161.76,266.66,162.45,264.87,162.45z"/>
<path class="st0" d="M254.28,254.92H53.92c-3.87,0-7-3.13-7-7V95.39c0-3.87,3.13-7,7-7h90.36c3.87,0,7,3.13,7,7s-3.13,7-7,7H60.92
	v138.53h186.36V102.39h-14.18c-3.87,0-7-3.13-7-7s3.13-7,7-7h21.18c3.87,0,7,3.13,7,7v152.53
	C261.28,251.79,258.15,254.92,254.28,254.92z"/>
<path class="st0" d="M233.11,81.68h-88.82c-3.87,0-7-3.13-7-7s3.13-7,7-7h88.82c3.87,0,7,3.13,7,7S236.97,81.68,233.11,81.68z"/>
<path class="st0" d="M279.05,254.92H29.16c-3.87,0-7-3.13-7-7s3.13-7,7-7h249.89c3.87,0,7,3.13,7,7S282.91,254.92,279.05,254.92z"/>
<g>
	
		<rect x="112.43" y="143.33" transform="matrix(-0.7071 0.7071 -0.7071 -0.7071 336.3375 223.3941)" class="st0" width="18.95" height="76.04"/>
	<path class="st0" d="M142.09,215.94c-0.26,0-0.51-0.1-0.71-0.29l-53.77-53.77c-0.19-0.19-0.29-0.44-0.29-0.71s0.11-0.52,0.29-0.71
		l13.4-13.4c0.39-0.39,1.02-0.39,1.41,0l53.77,53.77c0.19,0.19,0.29,0.44,0.29,0.71s-0.11,0.52-0.29,0.71l-13.4,13.4
		C142.6,215.84,142.34,215.94,142.09,215.94z M89.73,161.17l52.35,52.35l11.99-11.99l-52.35-52.35L89.73,161.17z"/>
</g>
<g>
	
		<rect x="136.32" y="138.5" transform="matrix(-0.7071 -0.7071 0.7071 -0.7071 137.5484 371.896)" class="st0" width="18.95" height="37.93"/>
	<path class="st0" d="M139.09,178.57c-0.26,0-0.51-0.1-0.71-0.29l-13.4-13.4c-0.39-0.39-0.39-1.02,0-1.41l26.82-26.82
		c0.39-0.39,1.02-0.39,1.41,0l13.4,13.4c0.39,0.39,0.39,1.02,0,1.41l-26.82,26.82C139.6,178.47,139.34,178.57,139.09,178.57z
		 M127.1,164.17l11.99,11.99l25.41-25.41l-11.99-11.99L127.1,164.17z"/>
</g>
<g>
	
		<rect x="88.74" y="186.77" transform="matrix(-0.7071 -0.7071 0.7071 -0.7071 22.6715 419.4795)" class="st0" width="18.95" height="36.55"/>
	<path class="st0" d="M91.99,225.67c-0.27,0-0.52-0.11-0.71-0.29l-13.4-13.4c-0.39-0.39-0.39-1.02,0-1.41l25.85-25.85
		c0.19-0.19,0.44-0.29,0.71-0.29l0,0c0.27,0,0.52,0.11,0.71,0.29l13.4,13.4c0.39,0.39,0.39,1.02,0,1.41L92.7,225.38
		C92.51,225.56,92.26,225.67,91.99,225.67z M80,211.27l11.99,11.99l24.43-24.43l-11.99-11.99L80,211.27z"/>
</g>
<g>
	<polygon class="st0" points="146.55,219.4 159.95,206 165.38,224.83 	"/>
	<path class="st0" d="M165.38,225.83c-0.09,0-0.19-0.01-0.28-0.04l-18.84-5.43c-0.34-0.1-0.6-0.37-0.69-0.71
		c-0.09-0.34,0.01-0.71,0.26-0.96l13.4-13.4c0.25-0.25,0.61-0.35,0.96-0.26c0.34,0.09,0.61,0.35,0.71,0.69l5.43,18.84
		c0.1,0.35,0,0.73-0.25,0.98C165.9,225.73,165.64,225.83,165.38,225.83z M148.45,218.91l15.47,4.46l-4.46-15.47L148.45,218.91z"/>
</g>
<g>
	
		<rect x="78.4" y="143.54" transform="matrix(-0.7071 0.7071 -0.7071 -0.7071 254.1966 189.3702)" class="st0" width="18.95" height="7.58"/>
	<path class="st0" d="M83.86,157.71c-0.26,0-0.51-0.1-0.71-0.29l-5.36-5.36c-0.39-0.39-0.39-1.02,0-1.41l13.4-13.4
		c0.39-0.39,1.02-0.39,1.41,0l5.36,5.36c0.39,0.39,0.39,1.02,0,1.41l-13.4,13.4C84.37,157.61,84.11,157.71,83.86,157.71z
		 M79.91,151.35l3.95,3.95l11.99-11.99l-3.95-3.95L79.91,151.35z"/>
</g>
</svg>
