<?xml version="1.0" encoding="utf-8"?>
<!-- Generator: Adobe Illustrator 24.0.1, SVG Export Plug-In . SVG Version: 6.00 Build 0)  -->
<svg version="1.1" id="Layer_1" xmlns="http://www.w3.org/2000/svg" xmlns:xlink="http://www.w3.org/1999/xlink" x="0px" y="0px"
	 viewBox="0 0 500 500" style="enable-background:new 0 0 500 500;" xml:space="preserve">
<style type="text/css">
	.st0{fill:none;stroke:#71B1D9;stroke-width:10;stroke-miterlimit:10;}
	.st1{fill:#B6E3FF;}
	.st2{fill:#224C81;}
	.st3{fill:#3B84C2;}
	.st4{fill:#0F1653;}
	.st5{opacity:0.3;fill:#0F1653;}
	.st6{fill:#F8BFBE;}
	.st7{fill:#609FC7;}
	.st8{fill:#1C3375;}
	.st9{fill:#71B1D9;}
	.st10{fill:#FFFFFF;}
	.st11{fill:#82B8DA;}
	.st12{fill:#E45E53;}
	.st13{fill:#EF9D5A;}
	.st14{fill:#66C6CF;}
	.st15{fill:#77B800;}
	.st16{fill:#203554;}
	.st17{fill:#E18F00;}
	.st18{fill:#64A5D4;}
	.st19{fill:#F4904B;}
	.st20{fill:#E5724C;}
	.st21{fill:#EC5955;}
</style>
<path class="st0" d="M101.44,207.37"/>
<path class="st1" d="M255.03,460.04c-2.67-0.05-5.36-0.16-8-0.33l0.06-1c2.63,0.16,5.31,0.27,7.96,0.32L255.03,460.04z
	 M263.04,460.04l-0.02-1c2.65-0.06,5.33-0.17,7.96-0.33l0.06,1C268.4,459.87,265.71,459.98,263.04,460.04z M239.05,459.06
	c-2.66-0.27-5.33-0.61-7.95-0.99l0.14-0.99c2.6,0.38,5.27,0.71,7.91,0.99L239.05,459.06z M279.03,459.04l-0.1-0.99
	c2.63-0.27,5.29-0.61,7.91-0.99l0.14,0.99C284.35,458.43,281.68,458.76,279.03,459.04z M223.2,456.75
	c-2.62-0.49-5.25-1.05-7.84-1.65l0.23-0.97c2.57,0.6,5.19,1.15,7.8,1.64L223.2,456.75z M294.87,456.71l-0.19-0.98
	c2.59-0.49,5.21-1.05,7.79-1.65l0.23,0.97C300.12,455.66,297.48,456.21,294.87,456.71z M207.6,453.11
	c-2.56-0.71-5.15-1.49-7.67-2.31l0.31-0.95c2.51,0.81,5.08,1.59,7.63,2.3L207.6,453.11z M310.47,453.06l-0.27-0.96
	c2.54-0.71,5.11-1.48,7.63-2.3l0.31,0.95C315.61,451.57,313.03,452.35,310.47,453.06z M192.34,448.17c-2.5-0.93-5.01-1.92-7.47-2.95
	l0.39-0.92c2.44,1.03,4.94,2.01,7.43,2.94L192.34,448.17z M325.7,448.11l-0.35-0.94c2.47-0.92,4.95-1.9,7.39-2.93l0.39,0.92
	C330.68,446.19,328.18,447.18,325.7,448.11z M177.54,441.94c-2.41-1.14-4.83-2.34-7.19-3.57l0.46-0.89
	c2.34,1.23,4.75,2.42,7.15,3.55L177.54,441.94z M340.43,441.91L340,441c2.38-1.12,4.77-2.31,7.12-3.54l0.46,0.89
	C345.23,439.58,342.82,440.78,340.43,441.91z M163.32,434.5c-2.3-1.33-4.61-2.73-6.86-4.16l0.54-0.84c2.24,1.42,4.54,2.82,6.82,4.14
	L163.32,434.5z M354.59,434.49l-0.5-0.87c2.29-1.32,4.58-2.71,6.8-4.13l0.54,0.84C359.19,431.76,356.89,433.16,354.59,434.49z
	 M368.09,425.9l-0.57-0.82c2.17-1.51,4.34-3.09,6.44-4.68l0.61,0.8C372.45,422.8,370.28,424.38,368.09,425.9z M149.79,425.9
	c-2.18-1.52-4.36-3.11-6.48-4.72l0.61-0.8c2.11,1.6,4.28,3.18,6.45,4.69L149.79,425.9z M380.83,416.22l-0.64-0.77
	c2.04-1.69,4.06-3.44,6.03-5.21l0.67,0.74C384.92,412.77,382.88,414.53,380.83,416.22z M137.03,416.21
	c-2.04-1.69-4.08-3.45-6.06-5.24l0.67-0.74c1.97,1.77,4,3.53,6.03,5.21L137.03,416.21z M392.74,405.51l-0.7-0.71
	c1.89-1.85,3.77-3.77,5.58-5.69l0.73,0.69C396.52,401.72,394.64,403.65,392.74,405.51z M125.12,405.48
	c-1.91-1.87-3.79-3.79-5.61-5.72l0.73-0.69c1.8,1.92,3.68,3.83,5.58,5.69L125.12,405.48z M403.71,393.84l-0.76-0.65
	c1.74-2.01,3.45-4.08,5.09-6.14l0.78,0.62C407.18,389.73,405.46,391.81,403.71,393.84z M114.16,393.81
	c-1.74-2.01-3.46-4.09-5.11-6.17l0.78-0.62c1.64,2.07,3.35,4.13,5.08,6.13L114.16,393.81z M413.68,381.28l-0.81-0.59
	c1.56-2.14,3.09-4.34,4.56-6.54l0.83,0.55C416.79,376.92,415.24,379.13,413.68,381.28z M104.2,381.28c-1.56-2.15-3.1-4.35-4.57-6.57
	l0.83-0.55c1.47,2.2,3,4.4,4.55,6.53L104.2,381.28z M95.33,367.96c-1.38-2.27-2.73-4.59-4.01-6.92l0.88-0.48
	c1.28,2.32,2.62,4.63,3.99,6.88L95.33,367.96z M422.57,367.94l-0.86-0.52c1.38-2.27,2.72-4.59,4-6.91l0.88,0.48
	C425.3,363.33,423.95,365.66,422.57,367.94z M87.61,353.96c-1.19-2.38-2.33-4.81-3.41-7.23l0.91-0.41c1.07,2.4,2.22,4.82,3.4,7.19
	L87.61,353.96z M430.31,353.89l-0.89-0.45c1.18-2.37,2.33-4.8,3.41-7.22l0.91,0.41C432.65,349.07,431.49,351.51,430.31,353.89z
	 M81.09,339.37c-0.98-2.47-1.92-5-2.8-7.51l0.94-0.33c0.87,2.5,1.81,5.01,2.78,7.47L81.09,339.37z M436.85,339.23l-0.93-0.37
	c0.98-2.46,1.92-4.98,2.79-7.49l0.95,0.33C438.77,334.22,437.83,336.76,436.85,339.23z M75.81,324.25
	c-0.77-2.54-1.49-5.13-2.16-7.72l0.97-0.25c0.66,2.57,1.38,5.15,2.15,7.67L75.81,324.25z M442.13,324.06l-0.96-0.29
	c0.76-2.53,1.48-5.11,2.14-7.68l0.97,0.25C443.62,318.93,442.9,321.52,442.13,324.06z M71.82,308.73c-0.55-2.6-1.06-5.25-1.5-7.87
	l0.99-0.17c0.44,2.61,0.94,5.24,1.49,7.83L71.82,308.73z M446.1,308.55l-0.98-0.21c0.54-2.58,1.04-5.21,1.48-7.83l0.99,0.17
	C447.15,303.31,446.65,305.96,446.1,308.55z M69.16,292.94c-0.33-2.63-0.61-5.31-0.84-7.97l1-0.08c0.22,2.65,0.5,5.31,0.83,7.92
	L69.16,292.94z M448.75,292.75l-0.99-0.12c0.33-2.62,0.6-5.29,0.82-7.92l1,0.08C449.36,287.44,449.08,290.12,448.75,292.75z
	 M67.82,276.98c-0.11-2.65-0.17-5.35-0.17-8.01h1c0,2.65,0.06,5.33,0.17,7.97L67.82,276.98z M450.08,276.79l-1-0.04
	c0.11-2.63,0.16-5.31,0.16-7.97v-0.37h1v0.37C450.24,271.45,450.18,274.15,450.08,276.79z M68.8,261l-1-0.04
	c0.11-2.66,0.27-5.34,0.49-8l1,0.08C69.07,255.68,68.91,258.36,68.8,261z M449.06,260.44c-0.12-2.65-0.29-5.33-0.51-7.95l1-0.08
	c0.22,2.64,0.4,5.33,0.51,7.99L449.06,260.44z M70.1,245.12L69.11,245c0.33-2.64,0.72-5.31,1.15-7.93l0.99,0.17
	C70.81,239.84,70.43,242.49,70.1,245.12z M447.71,244.57c-0.33-2.61-0.72-5.26-1.17-7.88l0.99-0.17c0.45,2.63,0.84,5.3,1.17,7.92
	L447.71,244.57z M72.72,229.41l-0.98-0.21c0.55-2.6,1.16-5.23,1.81-7.8l0.97,0.25C73.88,224.21,73.27,226.82,72.72,229.41z
	 M445.04,228.86c-0.55-2.58-1.17-5.19-1.83-7.76l0.97-0.25c0.66,2.58,1.28,5.2,1.84,7.8L445.04,228.86z M76.66,213.97l-0.96-0.29
	c0.77-2.55,1.6-5.12,2.47-7.64l0.94,0.33C78.25,208.87,77.42,211.43,76.66,213.97z M441.07,213.43c-0.77-2.55-1.61-5.09-2.48-7.57
	l0.94-0.33c0.87,2.49,1.71,5.06,2.49,7.61L441.07,213.43z M81.9,198.87l-0.93-0.37c0.98-2.48,2.02-4.97,3.11-7.4l0.91,0.41
	C83.91,193.93,82.87,196.41,81.9,198.87z M435.8,198.39c-0.98-2.45-2.02-4.92-3.1-7.32l0.91-0.41c1.08,2.42,2.13,4.89,3.11,7.36
	L435.8,198.39z M88.39,184.28l-0.9-0.44c1.18-2.39,2.44-4.78,3.72-7.11l0.88,0.48C90.81,179.53,89.56,181.91,88.39,184.28z
	 M429.3,183.89c-1.18-2.36-2.43-4.73-3.7-7.04l0.88-0.48c1.28,2.32,2.53,4.7,3.72,7.08L429.3,183.89z M96.08,170.3l-0.86-0.52
	c1.38-2.28,2.83-4.55,4.3-6.77l0.83,0.55C98.89,165.77,97.45,168.04,96.08,170.3z M421.6,169.96c-1.38-2.27-2.82-4.52-4.28-6.71
	l0.83-0.56c1.47,2.2,2.92,4.47,4.3,6.75L421.6,169.96z M104.91,157.02l-0.81-0.59c1.56-2.15,3.2-4.3,4.85-6.38l0.78,0.62
	C108.08,152.74,106.46,154.88,104.91,157.02z M412.77,156.73c-1.56-2.14-3.19-4.27-4.83-6.33l0.78-0.62
	c1.65,2.07,3.28,4.21,4.85,6.37L412.77,156.73z M114.81,144.52l-0.76-0.65c1.74-2.01,3.54-4.02,5.36-5.96l0.73,0.68
	C118.33,140.53,116.54,142.52,114.81,144.52z M402.85,144.27c-1.73-2-3.53-3.99-5.34-5.91l0.73-0.69c1.82,1.93,3.63,3.93,5.37,5.94
	L402.85,144.27z M125.71,132.9l-0.7-0.71c1.9-1.86,3.86-3.71,5.83-5.49l0.67,0.74C129.56,129.21,127.6,131.05,125.71,132.9z
	 M391.93,132.67c-1.89-1.84-3.84-3.68-5.82-5.45l0.67-0.74c1.98,1.78,3.95,3.62,5.85,5.48L391.93,132.67z M137.54,122.23l-0.64-0.77
	c2.04-1.7,4.15-3.37,6.27-4.98l0.61,0.8C141.67,118.88,139.58,120.54,137.54,122.23z M380.08,122.01c-2.04-1.69-4.14-3.35-6.25-4.95
	l0.6-0.8c2.12,1.61,4.23,3.28,6.28,4.98L380.08,122.01z M150.21,112.59l-0.57-0.82c2.18-1.52,4.42-3.02,6.66-4.44l0.54,0.84
	C154.61,109.59,152.38,111.07,150.21,112.59z M367.37,112.38c-2.17-1.51-4.41-2.99-6.65-4.41l0.54-0.84
	c2.25,1.43,4.5,2.92,6.68,4.44L367.37,112.38z M163.63,104.04l-0.5-0.87c2.3-1.33,4.65-2.63,7-3.87l0.46,0.89
	C168.26,101.42,165.92,102.71,163.63,104.04z M353.9,103.83c-2.3-1.33-4.66-2.62-7-3.84l0.46-0.89c2.35,1.23,4.72,2.53,7.03,3.86
	L353.9,103.83z M177.71,96.64l-0.43-0.9c2.39-1.13,4.85-2.23,7.29-3.26l0.39,0.92C182.54,94.42,180.09,95.52,177.71,96.64z
	 M339.75,96.44c-2.4-1.13-4.86-2.22-7.3-3.24l0.39-0.92c2.45,1.03,4.92,2.12,7.34,3.26L339.75,96.44z M192.35,90.46l-0.35-0.94
	c2.49-0.93,5.03-1.82,7.56-2.64l0.31,0.95C197.36,88.65,194.83,89.53,192.35,90.46z M325.02,90.27c-2.49-0.92-5.03-1.8-7.55-2.62
	l0.31-0.95c2.54,0.82,5.09,1.7,7.59,2.63L325.02,90.27z M207.5,85.52l-0.27-0.96c2.56-0.72,5.17-1.39,7.76-2l0.23,0.97
	C212.64,84.14,210.05,84.81,207.5,85.52z M309.84,85.37c-2.55-0.71-5.15-1.37-7.72-1.96l0.23-0.97c2.59,0.6,5.2,1.27,7.76,1.97
	L309.84,85.37z M223.01,81.87l-0.19-0.98c2.61-0.5,5.27-0.95,7.9-1.34l0.15,0.99C228.26,80.93,225.61,81.37,223.01,81.87z
	 M294.32,81.77c-2.6-0.49-5.25-0.93-7.86-1.31l0.14-0.99c2.63,0.38,5.29,0.82,7.9,1.31L294.32,81.77z M238.77,79.54l-0.1-0.99
	c2.64-0.28,5.32-0.5,7.98-0.67l0.06,1C244.07,79.04,241.4,79.26,238.77,79.54z M278.55,79.48c-2.63-0.27-5.3-0.49-7.94-0.65l0.06-1
	c2.66,0.16,5.34,0.38,7.98,0.65L278.55,79.48z M254.68,78.53l-0.02-1c2.66-0.06,5.35-0.06,8.01-0.01l-0.02,1
	C260,78.47,257.32,78.47,254.68,78.53z"/>
<path class="st1" d="M257.73,49.17c-5.98-22.54-26.51-39.15-50.93-39.15c-22.59,0-41.86,14.22-49.35,34.2
	c-4.47-4.53-10.68-7.35-17.55-7.35c-13.62,0-24.65,11.04-24.65,24.65c0,1.24,0.09,2.45,0.27,3.64
	c-15.1,5.59-25.86,20.12-25.86,37.16c0,21.88,17.74,39.62,39.62,39.62s101.13,0,119.72,0c25.85,0,46.8-20.95,46.8-46.8
	C295.81,72.28,279.41,53.26,257.73,49.17z"/>
<path class="st2" d="M318.12,86.18H199.76c-10.98,0-19.88,8.9-19.88,19.88v278.03c0,10.98,8.9,19.88,19.88,19.88h118.36
	c10.98,0,19.88-8.9,19.88-19.88V106.06C338,95.08,329.1,86.18,318.12,86.18z M325.15,350.36H192.74V126.87h132.41V350.36z"/>
<circle class="st3" cx="258.94" cy="99.42" r="4.2"/>
<path class="st4" d="M274.12,113.7h-30.36c-1.1,0-2-0.9-2-2s0.9-2,2-2h30.36c1.1,0,2,0.9,2,2S275.23,113.7,274.12,113.7z"/>
<g>
	<path class="st4" d="M318.12,392.99H199.76c-10.98,0-19.88-8.9-19.88-19.88v10.98c0,10.98,8.9,19.88,19.88,19.88h118.36
		c10.98,0,19.88-8.9,19.88-19.88v-10.98C338,384.09,329.1,392.99,318.12,392.99z"/>
</g>
<circle class="st3" cx="258.94" cy="369.59" r="10.13"/>
<path class="st5" d="M318.12,86.18h-59.18v40.69h66.21v223.48h-66.21v53.61h59.18c10.98,0,19.88-8.9,19.88-19.88V106.06
	C338,95.08,329.1,86.18,318.12,86.18z"/>
<g>
	<circle class="st6" cx="79.64" cy="222.15" r="37.14"/>
	<path class="st7" d="M79.64,260.29c-21.03,0-38.14-17.11-38.14-38.14c0-21.03,17.11-38.14,38.14-38.14s38.14,17.11,38.14,38.14
		C117.78,243.18,100.67,260.29,79.64,260.29z M79.64,186.01c-19.93,0-36.14,16.21-36.14,36.14s16.21,36.14,36.14,36.14
		s36.14-16.21,36.14-36.14S99.57,186.01,79.64,186.01z"/>
</g>
<circle class="st8" cx="79.64" cy="221.33" r="25.67"/>
<path class="st9" d="M79.64,242.38v-3c9.5,0,17.23-7.73,17.23-17.23h3C99.87,233.3,90.8,242.38,79.64,242.38z"/>
<path class="st1" d="M67.04,222.15h-10c0-12.46,10.14-22.6,22.6-22.6v10C72.69,209.54,67.04,215.2,67.04,222.15z"/>
<path class="st10" d="M83.17,210.04c-1.14-0.33-2.33-0.5-3.53-0.5v-10c2.14,0,4.27,0.3,6.32,0.9L83.17,210.04z"/>
<path class="st1" d="M157.43,182.58c-0.28,0-0.5-0.22-0.5-0.5v-18.07h-18.07c-0.28,0-0.5-0.22-0.5-0.5s0.22-0.5,0.5-0.5h18.57
	c0.28,0,0.5,0.22,0.5,0.5v18.57C157.93,182.36,157.71,182.58,157.43,182.58z"/>
<path class="st1" d="M132.71,188.74c-0.13,0-0.26-0.05-0.35-0.15c-0.2-0.2-0.2-0.51,0-0.71l24.72-24.72c0.2-0.2,0.51-0.2,0.71,0
	s0.2,0.51,0,0.71l-24.72,24.72C132.97,188.69,132.84,188.74,132.71,188.74z"/>
<path class="st11" d="M43.5,311.07c-0.28,0-0.5-0.22-0.5-0.5v-10.44H32.57c-0.28,0-0.5-0.22-0.5-0.5s0.22-0.5,0.5-0.5H43.5
	c0.28,0,0.5,0.22,0.5,0.5v10.94C44,310.85,43.78,311.07,43.5,311.07z"/>
<path class="st11" d="M21.63,322.01c-0.13,0-0.26-0.05-0.35-0.15c-0.2-0.2-0.2-0.51,0-0.71l21.87-21.87c0.2-0.2,0.51-0.2,0.71,0
	s0.2,0.51,0,0.71l-21.87,21.87C21.89,321.96,21.76,322.01,21.63,322.01z"/>
<path class="st1" d="M233.92,188.74h-18.57c-0.28,0-0.5-0.22-0.5-0.5s0.22-0.5,0.5-0.5h18.07v-18.07c0-0.28,0.22-0.5,0.5-0.5
	s0.5,0.22,0.5,0.5v18.57C234.42,188.51,234.19,188.74,233.92,188.74z"/>
<path class="st1" d="M233.92,188.74c-0.13,0-0.26-0.05-0.35-0.15l-24.72-24.72c-0.2-0.2-0.2-0.51,0-0.71s0.51-0.2,0.71,0
	l24.72,24.72c0.2,0.2,0.2,0.51,0,0.71C234.17,188.69,234.05,188.74,233.92,188.74z"/>
<circle class="st12" cx="99.87" cy="389.46" r="30.01"/>
<path class="st10" d="M99.87,378.44c4.01-4.01,10.51-4.01,14.52,0s4.01,10.51,0,14.52l-14.52,14.52l-14.52-14.52
	c-4.01-4.01-4.01-10.51,0-14.52S95.86,374.43,99.87,378.44z"/>
<path class="st11" d="M38.03,332.77H11.59c-0.28,0-0.5-0.22-0.5-0.5v-26.45c0-0.28,0.22-0.5,0.5-0.5h19.16c0.28,0,0.5,0.22,0.5,0.5
	s-0.22,0.5-0.5,0.5H12.09v25.45h25.45V312.9c0-0.28,0.22-0.5,0.5-0.5s0.5,0.22,0.5,0.5v19.38
	C38.53,332.55,38.31,332.77,38.03,332.77z"/>
<rect x="109.74" y="302.73" class="st13" width="149.2" height="29.54"/>
<rect x="258.94" y="302.73" class="st12" width="29.54" height="29.54"/>
<path class="st10" d="M207.65,319.5H128.2c-1.1,0-2-0.9-2-2s0.9-2,2-2h79.45c1.1,0,2,0.9,2,2S208.76,319.5,207.65,319.5z"/>
<g>
	<path class="st10" d="M271.56,322.32c-3.93,0-7.14-3.2-7.14-7.14c0-3.94,3.2-7.14,7.14-7.14c3.94,0,7.14,3.2,7.14,7.14
		C278.7,319.12,275.49,322.32,271.56,322.32z M271.56,310.05c-2.83,0-5.14,2.3-5.14,5.14s2.3,5.14,5.14,5.14s5.14-2.3,5.14-5.14
		S274.39,310.05,271.56,310.05z"/>
	<path class="st10" d="M282,326.95c-0.26,0-0.51-0.1-0.71-0.29l-6.21-6.21c-0.39-0.39-0.39-1.02,0-1.41s1.02-0.39,1.41,0l6.21,6.21
		c0.39,0.39,0.39,1.02,0,1.41C282.51,326.86,282.26,326.95,282,326.95z"/>
</g>
<path class="st14" d="M409.7,171.46h-87.1c-8.99,0-11.78-9.81-11.89-10.2c-0.54-2.05-2.44-3.45-4.56-3.33
	c-2.12,0.1-3.89,1.68-4.24,3.78c-0.17,1-1.94,9.76-12.8,9.76H266.3c-2.49,0-4.5,2.01-4.5,4.5v95.33c0,2.49,2.01,4.5,4.5,4.5H409.7
	c2.49,0,4.5-2.01,4.5-4.5v-95.33C414.2,173.48,412.18,171.46,409.7,171.46z"/>
<path class="st1" d="M392.37,464.02h-13.48c-8.99,0-11.78-9.81-11.89-10.2c-0.54-2.05-2.44-3.45-4.56-3.33
	c-2.12,0.1-3.89,1.68-4.24,3.78c-0.17,1-1.94,9.76-12.8,9.76h-9.95c-2.49,0-4.5,2.01-4.5,4.5v18.56c0,2.49,2.01,4.5,4.5,4.5h56.91
	c2.49,0,4.5-2.01,4.5-4.5v-18.56C396.87,466.03,394.86,464.02,392.37,464.02z"/>
<path class="st10" d="M391.99,232.37c-3.81,0-16,0-19.81,0c-8.2,0-14.86,6.65-14.86,14.86s6.65,14.86,14.86,14.86
	c3.81,0,16,0,19.81,0c8.2,0,14.86-6.65,14.86-14.86S400.19,232.37,391.99,232.37z"/>
<circle class="st15" cx="391.99" cy="247.23" r="13.08"/>
<path class="st10" d="M344.14,206.41h-69.11c-1.66,0-3-1.34-3-3s1.34-3,3-3h69.11c1.66,0,3,1.34,3,3S345.79,206.41,344.14,206.41z"
	/>
<path class="st10" d="M377.21,213.31c-0.77,0-1.54-0.29-2.12-0.88l-9.13-9.13c-1.17-1.17-1.17-3.07,0-4.24
	c1.17-1.17,3.07-1.17,4.24,0l7.01,7.01l16.77-16.77c1.17-1.17,3.07-1.17,4.24,0c1.17,1.17,1.17,3.07,0,4.24l-18.89,18.89
	C378.74,213.02,377.97,213.31,377.21,213.31z"/>
<circle class="st12" cx="317.33" cy="273.08" r="30.01"/>
<path class="st10" d="M327.37,263.19c-1.11,0-2.08,0.59-2.63,1.48c-0.54-0.88-1.51-1.48-2.63-1.48s-2.08,0.59-2.63,1.48
	c-0.54-0.88-1.51-1.48-2.63-1.48c-0.84,0-1.6,0.34-2.16,0.88v-8.07c0-1.71-1.38-3.09-3.09-3.09s-3.09,1.39-3.09,3.09v18.25
	l-3.51-6.53c-0.81-1.51-2.68-2.07-4.19-1.26c-1.51,0.81-2.07,2.68-1.26,4.19l9.32,17.37c0.03,0.06,0.08,0.12,0.12,0.18
	c0.03,0.04,0.05,0.08,0.08,0.12c0.1,0.15,0.22,0.29,0.34,0.41c0.01,0.01,0.03,0.02,0.04,0.03c0.12,0.11,0.24,0.22,0.37,0.31
	c0.04,0.03,0.07,0.05,0.11,0.07c0.14,0.09,0.29,0.17,0.44,0.24c0.01,0,0.02,0.01,0.03,0.01c0.16,0.07,0.34,0.12,0.51,0.16
	c0.05,0.01,0.09,0.02,0.14,0.03c0.18,0.03,0.37,0.06,0.55,0.06c0.02,0,4.14,0,5.25,0s4.14,0,5.25,0s4.14,0,5.25,0
	c1.71,0,3.09-1.39,3.09-3.09v-20.28C330.46,264.58,329.08,263.19,327.37,263.19z"/>
<path class="st1" d="M429.48,430.22h-229.3c-1.66,0-3-1.34-3-3s1.34-3,3-3h229.3c1.66,0,3,1.34,3,3S431.13,430.22,429.48,430.22z"/>
<path class="st16" d="M361.66,430.22H200.18c-1.66,0-3-1.34-3-3s1.34-3,3-3h161.48c1.66,0,3,1.34,3,3S363.31,430.22,361.66,430.22z"
	/>
<circle class="st17" cx="363.92" cy="427.22" r="14.53"/>
<path class="st18" d="M370.4,479.15h-27.77c-1.1,0-2-0.9-2-2s0.9-2,2-2h27.77c1.1,0,2,0.9,2,2S371.51,479.15,370.4,479.15z"/>
<path class="st18" d="M386.76,479.15h-6.77c-1.1,0-2-0.9-2-2s0.9-2,2-2h6.77c1.1,0,2,0.9,2,2S387.86,479.15,386.76,479.15z"/>
<path class="st18" d="M397.03,346.83c-1.33,0-2.66-0.51-3.68-1.52c-2.03-2.03-2.03-5.33,0-7.35c2.03-2.03,5.32-2.03,7.35,0
	c2.03,2.03,2.03,5.33,0,7.35C399.69,346.33,398.36,346.83,397.03,346.83z M397.03,338.44c-0.82,0-1.64,0.31-2.26,0.94
	c-1.25,1.25-1.25,3.28,0,4.52c1.25,1.25,3.28,1.25,4.52,0c1.25-1.25,1.25-3.28,0-4.52C398.66,338.75,397.85,338.44,397.03,338.44z"
	/>
<path class="st18" d="M385.11,354.55c-0.26,0-0.51-0.1-0.71-0.29c-6.96-6.96-6.96-18.29,0-25.25c0.39-0.39,1.02-0.39,1.41,0
	s0.39,1.02,0,1.41c-6.18,6.18-6.18,16.24,0,22.42c0.39,0.39,0.39,1.02,0,1.41C385.62,354.46,385.37,354.55,385.11,354.55z"/>
<path class="st18" d="M376.96,362.7c-0.26,0-0.51-0.1-0.71-0.29c-11.45-11.45-11.45-30.09,0-41.54c0.39-0.39,1.02-0.39,1.41,0
	s0.39,1.02,0,1.41c-10.67,10.67-10.67,28.04,0,38.72c0.39,0.39,0.39,1.02,0,1.41C377.47,362.61,377.22,362.7,376.96,362.7z"/>
<path class="st18" d="M369.96,369.71c-0.26,0-0.51-0.1-0.71-0.29c-7.42-7.42-11.51-17.28-11.51-27.78s4.09-20.36,11.51-27.78
	c0.39-0.39,1.02-0.39,1.41,0s0.39,1.02,0,1.41c-7.04,7.04-10.92,16.4-10.92,26.36s3.88,19.32,10.92,26.36
	c0.39,0.39,0.39,1.02,0,1.41C370.47,369.61,370.21,369.71,369.96,369.71z"/>
<path class="st19" d="M441.39,361.3H416.2c-4.01,0-7.26-3.25-7.26-7.26v-25.19c0-4.01,3.25-7.26,7.26-7.26h25.19
	c4.01,0,7.26,3.25,7.26,7.26v25.19C448.66,358.04,445.4,361.3,441.39,361.3z"/>
<path class="st20" d="M434.32,332.84c-2.36-1.68-4.81-3.41-6.83-5.42c-0.07-0.07-0.18-0.09-0.27-0.05
	c-0.09,0.04-0.15,0.13-0.15,0.23v20.68c-1.14-0.49-2.44-0.75-3.79-0.75c-4.11,0-7.46,2.43-7.46,5.42s3.35,5.42,7.46,5.42
	c4.12,0,7.46-2.43,7.46-5.42v-17.61c1.61,1.4,3.64,2.44,5.15,3.22c0.68,0.35,1.28,0.66,1.71,0.93c2.44,1.52,2.55,6.69,2.55,6.74
	c0,0.12,0.09,0.22,0.2,0.24c0.11,0.02,0.23-0.04,0.28-0.15c0.05-0.11,1.15-2.71,1.15-5.32
	C441.77,338.13,438.32,335.68,434.32,332.84z"/>
<path class="st10" d="M434.32,331.55c-2.36-1.68-4.81-3.41-6.83-5.42c-0.07-0.07-0.18-0.09-0.27-0.05
	c-0.09,0.04-0.15,0.13-0.15,0.23v20.68c-1.14-0.49-2.44-0.75-3.79-0.75c-4.11,0-7.46,2.43-7.46,5.42s3.35,5.42,7.46,5.42
	c4.12,0,7.46-2.43,7.46-5.42v-17.61c1.61,1.4,3.64,2.44,5.15,3.22c0.68,0.35,1.28,0.66,1.71,0.93c2.44,1.52,2.55,6.69,2.55,6.74
	c0,0.12,0.09,0.22,0.2,0.24c0.11,0.02,0.23-0.04,0.28-0.15c0.05-0.11,1.15-2.71,1.15-5.32
	C441.77,336.84,438.32,334.39,434.32,331.55z"/>
<path class="st18" d="M449.5,107.28h-40.05c-0.83,0-1.5-0.67-1.5-1.5s0.67-1.5,1.5-1.5h40.05c0.83,0,1.5,0.67,1.5,1.5
	S450.33,107.28,449.5,107.28z"/>
<path class="st18" d="M414.51,107.28c-0.21,0-0.43-0.05-0.63-0.14c-0.75-0.35-1.08-1.24-0.73-1.99l6.67-14.32
	c0.35-0.75,1.24-1.08,1.99-0.73c0.75,0.35,1.08,1.24,0.73,1.99l-6.67,14.32C415.62,106.96,415.08,107.28,414.51,107.28z"/>
<path class="st18" d="M443.46,107.28c-0.57,0-1.11-0.32-1.36-0.87l-6.67-14.32c-0.35-0.75-0.03-1.64,0.73-1.99
	c0.75-0.35,1.64-0.02,1.99,0.73l6.67,14.32c0.35,0.75,0.03,1.64-0.73,1.99C443.89,107.23,443.67,107.28,443.46,107.28z"/>
<g>
	<polygon class="st21" points="445.96,110.51 412.02,110.51 416.02,131.83 441.96,131.83 	"/>
	<path class="st21" d="M441.96,133.33h-25.94c-0.72,0-1.34-0.51-1.47-1.22l-4-21.31c-0.08-0.44,0.04-0.89,0.32-1.23
		c0.29-0.34,0.71-0.54,1.15-0.54h33.94c0.45,0,0.87,0.2,1.15,0.54c0.29,0.34,0.4,0.8,0.32,1.23l-4,21.31
		C443.3,132.81,442.68,133.33,441.96,133.33z M417.26,130.33h23.45l3.44-18.31h-30.33L417.26,130.33z"/>
</g>
<path class="st10" d="M418.6,119.59c-0.55,0-1-0.45-1-1v-4.95c0-0.55,0.45-1,1-1s1,0.45,1,1v4.95
	C419.6,119.14,419.16,119.59,418.6,119.59z"/>
<path class="st10" d="M423.76,119.59c-0.55,0-1-0.45-1-1v-4.95c0-0.55,0.45-1,1-1s1,0.45,1,1v4.95
	C424.76,119.14,424.32,119.59,423.76,119.59z"/>
<path class="st10" d="M428.92,119.59c-0.55,0-1-0.45-1-1v-4.95c0-0.55,0.45-1,1-1s1,0.45,1,1v4.95
	C429.92,119.14,429.48,119.59,428.92,119.59z"/>
<path class="st10" d="M434.08,119.59c-0.55,0-1-0.45-1-1v-4.95c0-0.55,0.45-1,1-1s1,0.45,1,1v4.95
	C435.08,119.14,434.64,119.59,434.08,119.59z"/>
<path class="st10" d="M439.24,119.59c-0.55,0-1-0.45-1-1v-4.95c0-0.55,0.45-1,1-1s1,0.45,1,1v4.95
	C440.24,119.14,439.8,119.59,439.24,119.59z"/>
<path class="st10" d="M418.6,128.55c-0.55,0-1-0.45-1-1v-4.95c0-0.55,0.45-1,1-1s1,0.45,1,1v4.95
	C419.6,128.1,419.16,128.55,418.6,128.55z"/>
<path class="st10" d="M423.76,128.55c-0.55,0-1-0.45-1-1v-4.95c0-0.55,0.45-1,1-1s1,0.45,1,1v4.95
	C424.76,128.1,424.32,128.55,423.76,128.55z"/>
<path class="st10" d="M428.92,128.55c-0.55,0-1-0.45-1-1v-4.95c0-0.55,0.45-1,1-1s1,0.45,1,1v4.95
	C429.92,128.1,429.48,128.55,428.92,128.55z"/>
<path class="st10" d="M434.08,128.55c-0.55,0-1-0.45-1-1v-4.95c0-0.55,0.45-1,1-1s1,0.45,1,1v4.95
	C435.08,128.1,434.64,128.55,434.08,128.55z"/>
<path class="st10" d="M439.24,128.55c-0.55,0-1-0.45-1-1v-4.95c0-0.55,0.45-1,1-1s1,0.45,1,1v4.95
	C440.24,128.1,439.8,128.55,439.24,128.55z"/>
</svg>
