<?xml version="1.0" encoding="UTF-8"?><svg id="Layer_2" xmlns="http://www.w3.org/2000/svg" xmlns:xlink="http://www.w3.org/1999/xlink" viewBox="0 0 1265.71 368.83"><defs><style>.cls-1{fill:url(#linear-gradient);}.cls-2{fill:#18a038;}.cls-3{fill:url(#linear-gradient-8);}.cls-4{fill:url(#linear-gradient-9);}.cls-5{fill:url(#linear-gradient-3);}.cls-6{fill:url(#linear-gradient-4);}.cls-7{fill:url(#linear-gradient-2);}.cls-8{fill:url(#linear-gradient-6);}.cls-9{fill:url(#linear-gradient-7);}.cls-10{fill:url(#linear-gradient-5);}.cls-11{fill:url(#linear-gradient-14);}.cls-12{fill:url(#linear-gradient-18);}.cls-13{fill:url(#linear-gradient-22);}.cls-14{fill:url(#linear-gradient-20);}.cls-15{fill:url(#linear-gradient-21);}.cls-16{fill:url(#linear-gradient-23);}.cls-17{fill:url(#linear-gradient-15);}.cls-18{fill:url(#linear-gradient-19);}.cls-19{fill:url(#linear-gradient-16);}.cls-20{fill:url(#linear-gradient-17);}.cls-21{fill:url(#linear-gradient-13);}.cls-22{fill:url(#linear-gradient-12);}.cls-23{fill:url(#linear-gradient-10);}.cls-24{fill:url(#linear-gradient-11);}.cls-25{fill:url(#linear-gradient-27);}.cls-26{fill:url(#linear-gradient-24);}.cls-27{fill:url(#linear-gradient-26);}.cls-28{fill:url(#linear-gradient-25);}</style><linearGradient id="linear-gradient" x1="190.74" y1="-26.63" x2="355.29" y2="298.11" gradientUnits="userSpaceOnUse"><stop offset="0" stop-color="#fff166"/><stop offset=".2" stop-color="#a3d75a"/><stop offset=".41" stop-color="#48bd4f"/><stop offset=".51" stop-color="#24b34b"/><stop offset="1" stop-color="#22477c"/></linearGradient><linearGradient id="linear-gradient-2" x1="237.98" y1="-50.57" x2="402.53" y2="274.18" xlink:href="#linear-gradient"/><linearGradient id="linear-gradient-3" x1="237.64" y1="-50.4" x2="402.2" y2="274.35" xlink:href="#linear-gradient"/><linearGradient id="linear-gradient-4" x1="221.3" y1="-42.12" x2="385.85" y2="282.63" xlink:href="#linear-gradient"/><linearGradient id="linear-gradient-5" x1="219.54" y1="-41.23" x2="384.1" y2="283.52" xlink:href="#linear-gradient"/><linearGradient id="linear-gradient-6" x1="15.54" y1="62.14" x2="180.1" y2="386.89" xlink:href="#linear-gradient"/><linearGradient id="linear-gradient-7" x1="88.72" y1="25.06" x2="253.27" y2="349.81" gradientUnits="userSpaceOnUse"><stop offset=".51" stop-color="#24b34b"/><stop offset=".57" stop-color="#fff166"/><stop offset=".74" stop-color="#a1a96f"/><stop offset=".92" stop-color="#466278"/><stop offset="1" stop-color="#22477c"/></linearGradient><linearGradient id="linear-gradient-8" x1="185.61" y1="-24.03" x2="350.16" y2="300.72" xlink:href="#linear-gradient"/><linearGradient id="linear-gradient-9" x1="140.02" y1="-.93" x2="304.57" y2="323.82" xlink:href="#linear-gradient"/><linearGradient id="linear-gradient-10" x1="24.61" y1="57.55" x2="189.17" y2="382.29" xlink:href="#linear-gradient"/><linearGradient id="linear-gradient-11" x1="33.38" y1="53.1" x2="197.93" y2="377.85" xlink:href="#linear-gradient"/><linearGradient id="linear-gradient-12" x1="122.56" y1="7.92" x2="287.11" y2="332.66" xlink:href="#linear-gradient"/><linearGradient id="linear-gradient-13" x1="110.9" y1="13.82" x2="275.46" y2="338.57" xlink:href="#linear-gradient"/><linearGradient id="linear-gradient-14" x1="25.59" y1="57.05" x2="190.14" y2="381.8" xlink:href="#linear-gradient"/><linearGradient id="linear-gradient-15" x1="10.44" y1="64.73" x2="175" y2="389.47" xlink:href="#linear-gradient"/><linearGradient id="linear-gradient-16" x1="178.21" y1="-20.28" x2="342.77" y2="304.46" xlink:href="#linear-gradient"/><linearGradient id="linear-gradient-17" x1="-52.07" y1="96.4" x2="112.49" y2="421.15" xlink:href="#linear-gradient"/><linearGradient id="linear-gradient-18" x1="-41.22" y1="90.9" x2="123.34" y2="415.65" xlink:href="#linear-gradient"/><linearGradient id="linear-gradient-19" x1="165.49" y1="-13.84" x2="330.04" y2="310.91" xlink:href="#linear-gradient"/><linearGradient id="linear-gradient-20" x1="114.4" y1="12.05" x2="278.95" y2="336.8" xlink:href="#linear-gradient"/><linearGradient id="linear-gradient-21" x1="150.02" y1="-6" x2="314.57" y2="318.75" xlink:href="#linear-gradient"/><linearGradient id="linear-gradient-22" x1="-58.35" y1="99.59" x2="106.2" y2="424.33" xlink:href="#linear-gradient"/><linearGradient id="linear-gradient-23" x1="46.96" y1="46.22" x2="211.51" y2="370.97" xlink:href="#linear-gradient"/><linearGradient id="linear-gradient-24" x1="180.66" y1="-21.52" x2="345.22" y2="303.22" xlink:href="#linear-gradient"/><linearGradient id="linear-gradient-25" x1="165.12" y1="-13.65" x2="329.67" y2="311.1" xlink:href="#linear-gradient"/><linearGradient id="linear-gradient-26" x1="100.76" y1="18.96" x2="265.32" y2="343.71" xlink:href="#linear-gradient"/><linearGradient id="linear-gradient-27" x1="127.44" y1="5.44" x2="291.99" y2="330.19" xlink:href="#linear-gradient"/></defs><g id="Layer_1-2"><g><g><path class="cls-1" d="m213.46,1.92c-3.79.81-7.57,1.72-11.31,2.72-2.01-1.55-4.07-3.1-6.17-4.64,5.85.36,11.68,1,17.48,1.92Z"/><path class="cls-7" d="m361.71,132.2c3.32,11.33,5.54,23.01,6.63,34.87-8.34,15.14-18.27,29.45-29.58,42.66-2.16-8.72-4.7-17.44-7.58-26.04,13.16-15.81,23.39-33.08,30.52-51.5Z"/><path class="cls-5" d="m256.12,55.11c11.03-2.44,21.88-3.68,32.35-3.68,9.33,0,18.5.99,27.29,2.93,15.53,15.68,28,33.82,37.1,53.97-5.22,20.58-14.83,40.62-27.9,58.2-15.74-39.86-39.37-78.11-68.83-111.42Z"/><path class="cls-6" d="m252.81,12.72c14.95,5.95,28.96,13.78,41.82,23.35-2.09-.09-4.19-.13-6.29-.13-14.52,0-29.43,2.04-44.37,6.05-8.38-8.64-17.19-16.93-26.3-24.74,11.64-2.46,23.42-3.98,35.14-4.53Z"/><path class="cls-10" d="m342.89,228.74c9.43-10.14,18.11-21.02,25.91-32.48-1.4,21.76-6.6,42.87-15.52,62.91-2.32,2.3-4.67,4.55-7.03,6.73.2-11.18-.8-22.99-3-35.27-.11-.63-.24-1.26-.36-1.9Z"/><path class="cls-8" d="m221.8,346.37c-1.72,7.58-4.55,14.34-8.45,20.18-9.62,1.51-19.29,2.28-28.76,2.28-30.22,0-60.16-7.45-86.66-21.57-.7-1.23-1.38-2.48-2.04-3.74,7.17,1.83,14.39,3.38,21.57,4.62,15.56,2.69,31.5,4.05,47.36,4.05,19.06,0,38.2-1.96,56.98-5.82Z"/><path class="cls-9" d="m270.4,331.77c-3.08,8.03-7.33,15.39-12.68,21.96-7.91,3.42-16.08,6.28-24.39,8.55,2.44-6.11,4.18-12.76,5.18-19.87,10.78-2.9,21.46-6.47,31.89-10.64Z"/><path class="cls-3" d="m337.69,295.47h0c3.97-5.45,7.64-11.12,11.01-16.99-3.38,5.87-7.05,11.54-11.01,16.99Z"/><path class="cls-4" d="m323.38,303.82c-.54,1.36-1.12,2.7-1.72,4.01-11.19,12.4-23.88,23.14-37.88,32.06,2.09-5.17,3.79-10.61,5.09-16.28,11.94-5.78,23.49-12.41,34.51-19.8Z"/><path class="cls-23" d="m101.76,310.57c14.92,2.5,30.15,3.77,45.25,3.77,25.49,0,50.64-3.55,74.84-10.55,1.52,9.53,2.16,18.1,1.94,25.99-19.14,4.23-38.77,6.38-58.41,6.38-26.5,0-52.69-3.87-77.89-11.5-2.2-5.94-4.05-12.02-5.55-18.18,6.58,1.61,13.22,2.99,19.82,4.09Z"/><path class="cls-24" d="m147.79,298.67c-23.31,0-46.53-3.16-69.09-9.41-.95-7.03-1.48-14.14-1.57-21.18-.07-5.14.1-10.38.51-15.65.4.09.79.18,1.19.28,24.32,5.63,48.72,8.48,72.5,8.48,20.23,0,39.96-2.08,58.7-6.19,3.41,10.98,6.36,22.16,8.8,33.33-11.64,3.5-23.51,6.13-35.33,7.82-11.73,1.68-23.74,2.53-35.7,2.53Z"/><path class="cls-22" d="m265.96,235.26c3.25,10.35,5.71,19.97,7.46,29.18-12.69,7.45-25.96,13.77-39.54,18.84-2.39-10.78-5.24-21.56-8.49-32.16,14.14-4.06,27.74-9.38,40.57-15.86Z"/><path class="cls-21" d="m275.89,281.35c1.08,11.27.9,21.78-.54,31.37-11.57,5.18-23.57,9.56-35.79,13.05-.05-8.32-.89-17.2-2.53-26.88,13.45-4.79,26.48-10.67,38.86-17.54Z"/><path class="cls-11" d="m29.33,219.62c1.29-7.05,2.85-14.05,4.64-20.85,12.31-46.82,36-88.21,68.63-119.98,5.47,5.38,10.67,10.76,15.48,16.04,4.18,4.58,8.44,9.48,12.71,14.62-22.52,22.32-39.97,47.32-51.91,74.35-6.86,15.53-11.76,31.92-14.59,48.79-13.21-3.83-24.72-8.1-34.95-12.97Z"/><path class="cls-17" d="m.15,178.33c3.59-13.75,8.27-27.06,13.9-39.55,14.5-32.16,35.31-60.44,61.88-84.13,5.24,4.34,10.37,8.8,15.32,13.33-16.21,15.77-30.26,33.55-41.8,52.94-16.48,27.67-28.12,58.2-34.67,90.86-4.95-3.03-9.61-6.29-13.91-9.75C.29,196.05,0,190.08,0,184.24c0-1.82.07-3.63.13-5.44l.02-.47Z"/><path class="cls-19" d="m287.42,255.59c-1.92-9.03-4.4-18.27-7.49-28.01,14.24-8.56,27.33-18.78,39.01-30.48,2.99,9.12,5.43,17.91,7.28,26.25-11.87,12-24.89,22.82-38.79,32.24Z"/><path class="cls-20" d="m49.36,309.81c-5.99-6.45-11.52-13.32-16.53-20.55,10.36,4.8,21.05,8.94,31.94,12.39,1.06,5.61,2.37,11.14,3.93,16.53-6.56-2.54-13.03-5.34-19.33-8.37Z"/><path class="cls-12" d="m62.25,248.49c-1.06,11.99-1.04,23.92.04,35.63-13.02-4.56-25.65-10.15-37.68-16.69.17-10.53.91-21.09,2.21-31.51,10.61,4.76,22.29,8.9,35.43,12.58Z"/><path class="cls-18" d="m188.13,65.8c-8.67-9.83-17.84-19.36-27.36-28.43,12.28-6.21,25.06-11.34,38.1-15.28,9.73,7.82,19.08,16.16,27.82,24.81.15.15.3.3.46.45-2.09.77-4.16,1.57-6.19,2.39-11.1,4.52-22.13,9.91-32.83,16.05Z"/><path class="cls-14" d="m125.32,59.35c6.67-4.99,13.72-9.69,20.99-14.02,7.13,6.63,14.05,13.52,20.62,20.52,2.46,2.62,4.96,5.36,7.57,8.3-11.35,7.41-22.17,15.65-32.26,24.57-8.85-10.57-18.25-20.8-28.03-30.5,3.67-3.12,7.38-6.09,11.1-8.87Z"/><path class="cls-15" d="m148.43,26.02c-4.23-3.74-8.56-7.43-12.96-11.03,11.26-5.4,22.93-9.98,34.82-13.66,4.45,2.92,8.87,5.96,13.21,9.09,0,0-.02,0-.03.01-11.95,4.25-23.73,9.49-35.05,15.59Z"/><path class="cls-13" d="m10.05,244.41c-2.33-6.74-4.26-13.61-5.78-20.57,2.49,1.58,5.04,3.11,7.65,4.58-.76,5.3-1.38,10.64-1.87,16Z"/><path class="cls-16" d="m151.93,245.56c-23.49,0-47.82-3-72.39-8.92,6.84-41.17,28.45-81.54,61.33-114.59,23.93,31.06,43.36,65.02,57.81,101.03,2.17,5.4,4.3,11.07,6.35,16.92-11.87,2.58-23.97,4.26-36.06,5.03-5.61.35-11.34.53-17.05.53Z"/><path class="cls-26" d="m274.69,212.23c-2.87-7.88-6.1-16.03-9.8-24.75-10.95-25.79-24.43-50.7-40.05-74.05-8.09-12.09-16.93-23.98-26.31-35.42,13.48-7.68,27.09-13.79,40.55-18.2,28.44,31.03,51.13,66.21,67.48,104.62,2.36,5.56,4.58,11.03,6.59,16.32-11.06,11.94-23.96,22.5-38.44,31.49Z"/><path class="cls-28" d="m291.66,304.72c.72-10.03.36-20.51-1.1-31.25-.04-.28-.08-.55-.12-.83,13.85-8.9,26.95-19.12,39.07-30.48,1.71,13.61,1.76,26.3.12,37.87-4.05,3.16-8.14,6.18-12.19,8.98-8.21,5.68-16.86,10.95-25.8,15.72Z"/><path class="cls-27" d="m120.22,22.94c4.69,3.72,9.32,7.55,13.83,11.43-10.92,6.84-21.37,14.55-31.18,22.98-4.78-4.4-9.69-8.74-14.69-12.95,10.11-7.94,20.86-15.14,32.04-21.46Z"/><path class="cls-25" d="m184.94,86.3c27.74,33.49,50.15,70.51,66.62,110.09,3.57,8.57,6.61,16.36,9.26,23.68-12.71,6.58-26.25,11.95-40.35,16.03-15.62-44.82-38.51-86.79-68.13-124.89.06-.06.13-.11.19-.17,10.25-9.07,21.14-17.38,32.41-24.74Z"/></g><g><path class="cls-2" d="m444.67,284.8V75.5h39.47v181.49l-2.09,27.81h-37.38Zm84.62,3.59c-12.56,0-23.17-3.19-31.84-9.57s-15.3-15.45-19.88-27.21c-4.59-11.76-6.88-25.61-6.88-41.56s2.29-30.05,6.88-41.71c4.58-11.66,11.21-20.68,19.88-27.06,8.67-6.38,19.29-9.57,31.84-9.57,13.75,0,25.66,3.19,35.73,9.57,10.06,6.38,17.89,15.4,23.47,27.06,5.58,11.66,8.37,25.56,8.37,41.71s-2.79,29.8-8.37,41.56c-5.58,11.76-13.41,20.83-23.47,27.21-10.07,6.38-21.98,9.57-35.73,9.57Zm-10.17-36.18c7.18,0,13.5-1.79,18.99-5.38,5.48-3.59,9.82-8.57,13.01-14.95,3.19-6.38,4.78-13.65,4.78-21.83s-1.55-15.4-4.63-21.68c-3.09-6.28-7.38-11.21-12.86-14.8-5.48-3.59-11.81-5.38-18.99-5.38-6.78,0-12.86,1.79-18.24,5.38-5.38,3.59-9.57,8.52-12.56,14.8-2.99,6.28-4.49,13.51-4.49,21.68s1.5,15.45,4.49,21.83c2.99,6.38,7.12,11.36,12.41,14.95,5.28,3.59,11.31,5.38,18.09,5.38Z"/><path class="cls-2" d="m693.14,288.39c-15.35,0-28.91-3.34-40.66-10.02-11.76-6.68-20.98-15.89-27.66-27.66-6.68-11.76-10.02-25.31-10.02-40.66s3.29-28.9,9.87-40.66c6.58-11.76,15.74-20.98,27.51-27.66,11.76-6.68,25.21-10.02,40.36-10.02s28.9,3.34,40.66,10.02c11.76,6.68,20.93,15.9,27.51,27.66,6.58,11.76,9.87,25.32,9.87,40.66s-3.29,28.9-9.87,40.66c-6.58,11.76-15.7,20.98-27.36,27.66-11.66,6.68-25.07,10.02-40.21,10.02Zm0-36.48c7.37,0,13.8-1.79,19.29-5.38,5.48-3.59,9.82-8.52,13.01-14.8,3.19-6.28,4.78-13.5,4.78-21.68s-1.6-15.4-4.78-21.68c-3.19-6.28-7.62-11.21-13.3-14.8-5.68-3.59-12.11-5.38-19.29-5.38s-13.9,1.79-19.58,5.38c-5.68,3.59-10.12,8.52-13.3,14.8-3.19,6.28-4.78,13.51-4.78,21.68s1.59,15.4,4.78,21.68c3.19,6.28,7.67,11.21,13.46,14.8,5.78,3.59,12.36,5.38,19.73,5.38Z"/><path class="cls-2" d="m868.65,288.39c-15.55,0-29.4-3.34-41.56-10.02-12.16-6.68-21.63-15.94-28.4-27.81-6.78-11.86-10.17-25.36-10.17-40.51s3.39-28.9,10.17-40.66c6.77-11.76,16.15-20.98,28.11-27.66,11.96-6.68,25.71-10.02,41.26-10.02s28.6,3.69,40.96,11.06c12.36,7.38,21.33,18.04,26.91,31.99l-37.08,13.16c-2.79-5.78-7.13-10.41-13.01-13.9-5.88-3.49-12.41-5.23-19.58-5.23s-13.86,1.75-19.43,5.23c-5.58,3.49-9.97,8.33-13.16,14.5-3.19,6.18-4.78,13.36-4.78,21.53s1.59,15.3,4.78,21.38c3.19,6.08,7.67,10.91,13.46,14.5,5.78,3.59,12.36,5.38,19.73,5.38s13.7-1.89,19.58-5.68c5.88-3.78,10.21-8.77,13.01-14.95l37.38,13.16c-5.78,14.16-14.8,25.12-27.06,32.89-12.26,7.77-25.97,11.66-41.11,11.66Z"/><path class="cls-2" d="m1031.9,288.39c-15.55,0-29.41-3.34-41.56-10.02-12.16-6.68-21.63-15.94-28.41-27.81-6.78-11.86-10.17-25.36-10.17-40.51s3.39-28.9,10.17-40.66c6.77-11.76,16.15-20.98,28.11-27.66,11.96-6.68,25.71-10.02,41.26-10.02s28.6,3.69,40.96,11.06c12.36,7.38,21.33,18.04,26.91,31.99l-37.08,13.16c-2.79-5.78-7.13-10.41-13.01-13.9-5.88-3.49-12.41-5.23-19.58-5.23s-13.86,1.75-19.44,5.23c-5.58,3.49-9.97,8.33-13.16,14.5-3.19,6.18-4.78,13.36-4.78,21.53s1.59,15.3,4.78,21.38c3.19,6.08,7.67,10.91,13.46,14.5,5.78,3.59,12.36,5.38,19.73,5.38s13.7-1.89,19.58-5.68c5.88-3.78,10.21-8.77,13.01-14.95l37.38,13.16c-5.78,14.16-14.8,25.12-27.06,32.89-12.26,7.77-25.97,11.66-41.11,11.66Z"/><path class="cls-2" d="m1190.66,288.39c-14.75,0-27.81-3.34-39.17-10.02-11.36-6.68-20.29-15.89-26.76-27.66-6.48-11.76-9.72-25.31-9.72-40.66s3.33-28.9,10.02-40.66c6.68-11.76,15.85-20.98,27.51-27.66,11.66-6.68,25.06-10.02,40.22-10.02,12.96,0,24.97,3.44,36.03,10.32s19.98,16.94,26.76,30.2c6.77,13.26,10.17,29.35,10.17,48.29h-40.07c.2-13.16-1.15-23.67-4.04-31.54-2.89-7.87-6.93-13.55-12.11-17.04-5.19-3.49-11.26-5.23-18.24-5.23-7.77,0-14.35,1.6-19.73,4.78-5.38,3.19-9.42,8.03-12.11,14.5-2.69,6.48-4.04,14.9-4.04,25.27,0,8.97,1.79,16.45,5.38,22.43s8.37,10.52,14.35,13.6c5.98,3.09,12.56,4.63,19.73,4.63,7.77,0,14.1-1.69,18.99-5.08,4.88-3.39,8.62-7.77,11.21-13.16l37.08,14.35c-4.19,8.37-9.62,15.6-16.29,21.68-6.68,6.08-14.61,10.72-23.77,13.9-9.17,3.19-19.64,4.78-31.39,4.78Zm-49.93-67.87l.3-30.8h105.25v30.8h-105.55Z"/></g></g></g></svg>