<svg id="Layer_1" data-name="Layer 1" xmlns="http://www.w3.org/2000/svg" viewBox="0 0 363.84 59.41"><defs><style>.cls-1,.cls-3{fill:#5c3978;}.cls-1,.cls-2{fill-rule:evenodd;}.cls-2{fill:#786490;}</style></defs><path class="cls-1" d="M23.8,14.37a28.42,28.42,0,0,1-5.91-4.54,28.53,28.53,0,0,1-4.55-5.92L5.08,8.67a38,38,0,0,0,6.07,7.9A38.4,38.4,0,0,0,19,22.62,37.94,37.94,0,0,0,38.1,27.73V18.2a28.38,28.38,0,0,1-14.3-3.83Z" transform="translate(-5.08 -3.91)"/><path class="cls-2" d="M54.29,51.89v1.9a9.53,9.53,0,0,1-9.53,9.53v-29a44.45,44.45,0,0,0,22.33-6l4.76,8.25A53.63,53.63,0,0,1,54.29,43v8.93Z" transform="translate(-5.08 -3.91)"/><path class="cls-2" d="M38.1,51.89V63.32a9.53,9.53,0,0,1-9.54-9.53V43A53.49,53.49,0,0,1,11,36.54l4.76-8.25a44.48,44.48,0,0,0,22.34,6V51.89Z" transform="translate(-5.08 -3.91)"/><path class="cls-1" d="M59.06,14.37A28.42,28.42,0,0,0,65,9.83a28.53,28.53,0,0,0,4.55-5.92l8.25,4.76a38,38,0,0,1-6.06,7.9,38.87,38.87,0,0,1-7.89,6.06,38,38,0,0,1-19.06,5.1V18.2A28.41,28.41,0,0,0,59.06,14.37Z" transform="translate(-5.08 -3.91)"/><path class="cls-3" d="M109.82,28.86c-1.81,1.54-2.72,3.84-2.72,6.92v2.71h18.2v8.22H107.1V62.82H96.87v-27q0-8.54,5.34-13.27t14.94-4.74a31.43,31.43,0,0,1,7.14.79,19.71,19.71,0,0,1,5.81,2.31L126.94,29a16.26,16.26,0,0,0-9.1-2.47C114.31,26.55,111.63,27.32,109.82,28.86Z" transform="translate(-5.08 -3.91)"/><path class="cls-3" d="M168.51,48.6H142.8a8,8,0,0,0,3.28,5,10.85,10.85,0,0,0,6.45,1.84,13.11,13.11,0,0,0,4.7-.79,11.45,11.45,0,0,0,3.83-2.5l5.24,5.69q-4.8,5.49-14,5.49a22.14,22.14,0,0,1-10.18-2.24,16.4,16.4,0,0,1-6.82-6.22,17.19,17.19,0,0,1-2.4-9,17.39,17.39,0,0,1,2.37-9,16.68,16.68,0,0,1,6.51-6.26,20.15,20.15,0,0,1,18.29-.09,15.75,15.75,0,0,1,6.35,6.16A18.45,18.45,0,0,1,168.7,46C168.7,46.08,168.64,47,168.51,48.6ZM145.45,37.67a8.13,8.13,0,0,0-2.78,5.18h16.75a8.23,8.23,0,0,0-2.78-5.15,8.34,8.34,0,0,0-5.57-1.92A8.51,8.51,0,0,0,145.45,37.67Z" transform="translate(-5.08 -3.91)"/><path class="cls-3" d="M209.77,28.83v34h-9.41V58.9c-2.45,3-6,4.42-10.62,4.42a17.71,17.71,0,0,1-8.69-2.14A15.42,15.42,0,0,1,175,55.05a18.62,18.62,0,0,1-2.21-9.23A18.61,18.61,0,0,1,175,36.6a15.35,15.35,0,0,1,6.09-6.13,17.71,17.71,0,0,1,8.69-2.15q6.51,0,10.17,4.11v-3.6ZM197.64,52.68a9.48,9.48,0,0,0,2.46-6.86A9.46,9.46,0,0,0,197.64,39a8.22,8.22,0,0,0-6.19-2.56A8.32,8.32,0,0,0,185.19,39a9.46,9.46,0,0,0-2.46,6.85,9.48,9.48,0,0,0,2.46,6.86,8.35,8.35,0,0,0,6.26,2.56A8.26,8.26,0,0,0,197.64,52.68Z" transform="translate(-5.08 -3.91)"/><path class="cls-3" d="M233.05,29.58A17.76,17.76,0,0,1,240,28.32v9.1c-1.1-.09-1.83-.13-2.21-.13a9,9,0,0,0-6.64,2.37q-2.4,2.37-2.4,7.11v16h-9.85v-34h9.41v4.48A11,11,0,0,1,233.05,29.58Z" transform="translate(-5.08 -3.91)"/><path class="cls-3" d="M249.07,60.26q-3.23-3.06-3.22-8.69V15.94h9.85V51a4.64,4.64,0,0,0,1.11,3.32,4.08,4.08,0,0,0,3.12,1.17,6.44,6.44,0,0,0,1.55-.19,4.75,4.75,0,0,0,1.23-.44l.45,7.64a16.05,16.05,0,0,1-5.12.82Q252.3,63.32,249.07,60.26Z" transform="translate(-5.08 -3.91)"/><path class="cls-3" d="M301.13,48.6H275.41a8,8,0,0,0,3.29,5,10.82,10.82,0,0,0,6.44,1.84,13.21,13.21,0,0,0,4.71-.79,11.41,11.41,0,0,0,3.82-2.5l5.25,5.69q-4.82,5.49-14,5.49a22.13,22.13,0,0,1-10.17-2.24,16.49,16.49,0,0,1-6.83-6.22,17.19,17.19,0,0,1-2.4-9,17.48,17.48,0,0,1,2.37-9,16.68,16.68,0,0,1,6.51-6.26,19.19,19.19,0,0,1,9.26-2.24,19,19,0,0,1,9,2.15A15.69,15.69,0,0,1,299,36.63,18.36,18.36,0,0,1,301.32,46C301.32,46.08,301.25,47,301.13,48.6ZM278.07,37.67a8,8,0,0,0-2.78,5.18H292a8.23,8.23,0,0,0-2.78-5.15,8.34,8.34,0,0,0-5.56-1.92A8.49,8.49,0,0,0,278.07,37.67Z" transform="translate(-5.08 -3.91)"/><path class="cls-3" d="M311.05,62.28a21.56,21.56,0,0,1-6.45-2.62l3.29-7.08A20.59,20.59,0,0,0,313.38,55a23.12,23.12,0,0,0,6.32.92q6.26,0,6.26-3.1a2.18,2.18,0,0,0-1.71-2.08A25.44,25.44,0,0,0,319,49.61a50.11,50.11,0,0,1-6.89-1.45,10.75,10.75,0,0,1-4.71-2.91,8.27,8.27,0,0,1-2-5.93,9.32,9.32,0,0,1,1.87-5.72,12,12,0,0,1,5.43-3.89,23.14,23.14,0,0,1,8.44-1.39,32.89,32.89,0,0,1,7.17.79,20.19,20.19,0,0,1,5.9,2.18l-3.28,7a19.57,19.57,0,0,0-9.79-2.53,10,10,0,0,0-4.74.88,2.59,2.59,0,0,0-1.58,2.28,2.26,2.26,0,0,0,1.7,2.21,30.45,30.45,0,0,0,5.44,1.2,58.9,58.9,0,0,1,6.82,1.48,10.25,10.25,0,0,1,4.61,2.88,8.12,8.12,0,0,1,2,5.81,9,9,0,0,1-1.89,5.62A12.14,12.14,0,0,1,328,62a24.79,24.79,0,0,1-8.63,1.35A32.72,32.72,0,0,1,311.05,62.28Z" transform="translate(-5.08 -3.91)"/><path class="cls-3" d="M344.6,62.28a21.56,21.56,0,0,1-6.45-2.62l3.29-7.08A20.59,20.59,0,0,0,346.93,55a23.12,23.12,0,0,0,6.32.92q6.25,0,6.26-3.1a2.18,2.18,0,0,0-1.71-2.08,25.75,25.75,0,0,0-5.24-1.08,50.11,50.11,0,0,1-6.89-1.45A10.75,10.75,0,0,1,341,45.25a8.27,8.27,0,0,1-2-5.93,9.26,9.26,0,0,1,1.87-5.72,12,12,0,0,1,5.43-3.89,23.14,23.14,0,0,1,8.44-1.39,32.89,32.89,0,0,1,7.17.79,20.41,20.41,0,0,1,5.9,2.18l-3.28,7a19.57,19.57,0,0,0-9.79-2.53,10,10,0,0,0-4.74.88,2.59,2.59,0,0,0-1.58,2.28,2.26,2.26,0,0,0,1.7,2.21,30.45,30.45,0,0,0,5.44,1.2,58.9,58.9,0,0,1,6.82,1.48A10.25,10.25,0,0,1,367,46.71a8.12,8.12,0,0,1,2,5.81,8.92,8.92,0,0,1-1.9,5.62A12.05,12.05,0,0,1,361.5,62a24.83,24.83,0,0,1-8.63,1.35A32.72,32.72,0,0,1,344.6,62.28Z" transform="translate(-5.08 -3.91)"/></svg>