<svg id="Layer_1" data-name="Layer 1" xmlns="http://www.w3.org/2000/svg" viewBox="0 0 685.67 278"><defs><style>.cls-1{fill:#007d6c;}</style></defs><title>logo-leafly-core-leafly-green-logo-r</title><path class="cls-1" d="M601.45,199c-7.89,0-13.49-5.79-13.49-14s5.51-14,13.49-14,13.21,5.7,13.21,14S609.34,199,601.45,199Z"/><path class="cls-1" d="M358,77.76,356.2,94.27c-6.23-12.44-19.83-18.88-36-18.88-30.9,0-55.38,24.48-55.38,61.79,0,37.07,23.77,61.79,54.19,61.79,18.77,0,30.76-8.81,36.84-19.44L358,196.6h21.87V77.76Zm-35.94,99.1c-20.19,0-34.54-16.6-34.54-40.17,0-23.82,14.11-40.17,34.54-40.17,20.18,0,33.8,16.36,33.8,40.17C355.87,160.27,342.25,176.86,322.07,176.86Z"/><path class="cls-1" d="M468.57,30.54V170s0,26.72,29.85,26.72h12.69V175.54H500.24c-5,0-8-3.73-8-13.44V30.54Z"/><path class="cls-1" d="M614.66,77.76,569.94,210c-6.9,21.17-18.74,37.64-44,37.64-14.82,0-25.21-7.91-28.54-11.47l10-17.37c3.81,3.09,10,6.9,17.6,6.9,10,0,17.6-8.56,21.17-19l3.33-10H542L500.34,77.76h26.4l30.94,95.43H558L589.2,77.76Z"/><path class="cls-1" d="M145.31,175.54v21.15H60.73V30.54H84.48v145Z"/><path class="cls-1" d="M256.74,143.17H167.67c1.9,21.17,13.32,35.2,35.92,35.2,11.17,0,22.83-5.71,27.82-17.36H255c-6,25-29.21,38.06-51.61,38.06-36.63,0-59.22-24.74-59.22-62.32,0-36.15,24.74-61.36,57.32-61.36,29.65,0,55.27,18.24,55.42,60.14C256.88,138,256.87,140.4,256.74,143.17Zm-23-18.32c-.48-15.7-12.13-29.73-31.63-29.73-17.6,0-30,11.66-33.54,29.73Z"/><path class="cls-1" d="M442.65,51.7h17.94V30.54h-26c-17.44,0-28.76,13.24-28.76,29.79V77.77h-18v20h18v99h23.75l.11-99h29.6v-20h-29.6l-.11-12.88C429.63,54.8,434.36,51.7,442.65,51.7Z"/><path class="cls-1" d="M608.06,31.79a10.9,10.9,0,0,1,4.3,4.14,12.06,12.06,0,0,1,1.6,6.25,11.91,11.91,0,0,1-1.6,6.21,10.8,10.8,0,0,1-4.3,4.13,12.62,12.62,0,0,1-11.82,0,11,11,0,0,1-4.3-4.13,12,12,0,0,1-1.6-6.21,12.11,12.11,0,0,1,1.6-6.25,10.9,10.9,0,0,1,4.3-4.14,12.22,12.22,0,0,1,5.91-1.44A12,12,0,0,1,608.06,31.79Zm-.69,19.61a9.71,9.71,0,0,0,3.78-3.69,10.89,10.89,0,0,0,1.39-5.55,11,11,0,0,0-1.39-5.58,9.58,9.58,0,0,0-3.78-3.69,11.28,11.28,0,0,0-10.44,0,9.58,9.58,0,0,0-3.78,3.69,11,11,0,0,0-1.39,5.58,10.84,10.84,0,0,0,1.39,5.55,9.71,9.71,0,0,0,3.78,3.69,11.13,11.13,0,0,0,10.44,0Zm-1.15-10a3.82,3.82,0,0,1-2,1.32l3.21,5.72h-2l-3-5.56h-2.54v5.56H598.1V35.57h4.52a4.75,4.75,0,0,1,3.22,1,3.45,3.45,0,0,1,1.1,2.73A3.68,3.68,0,0,1,606.22,41.44Zm-6.39,0h2.68a3,3,0,0,0,2-.57,2,2,0,0,0,.68-1.59c0-1.47-.86-2.19-2.54-2.19h-2.79v4.35Z"/></svg>