<?xml version="1.0" encoding="utf-8"?>
<!-- Generator: Adobe Illustrator 23.0.6, SVG Export Plug-In . SVG Version: 6.00 Build 0)  -->
<svg version="1.1" xmlns="http://www.w3.org/2000/svg" xmlns:xlink="http://www.w3.org/1999/xlink" x="0px" y="0px"
	 viewBox="0 0 296.1 82" style="enable-background:new 0 0 296.1 82;" xml:space="preserve">
<style type="text/css">
	.st0{fill:#28C856;}
	.st1{fill:#2E2E30;}
	.st2{fill:#FFFFFF;}
</style>
<g id="SimpleOps">
</g>
<g id="SImpleBook">
</g>
<g id="SimplePlatform">
</g>
<g id="SimpleAccounts">
</g>
<g id="SimplePricing">
</g>
<g id="SimpleFeeds">
</g>
<g id="SimpleBet_1_">
	<path class="st0" d="M18,41.5C7.5,40.1,1.2,36.3,1.2,26.8c0-9.2,6.4-15.1,16.7-16.1V0.9l7,0v9.8c4.9,0,9.7,0.9,14.2,2.3v12.6h-8.8
		v-5.8c-1.5-0.6-3.7-1.1-5.4-1.1v13.4c10,1.5,17.2,4.7,17.2,15.4c0,11.8-10.4,16.6-17.2,16.7V74l-7,0v-9.8c-6.4,0-12.9-1-16.4-2.3
		l0-13.8h10.3l0,6.7c1.9,0.5,3.8,1,6.2,1.1V41.5z M18,18.7c-4.3,0.7-6.5,3.4-6.5,6.7c0,3.7,3.2,5.1,6.5,5.7V18.7z M25,55.9
		c4-0.3,7.5-3.2,7.5-7.2c0-2.9-1.9-5.4-7.5-6V55.9z"/>
	<g>
		<path class="st1" d="M50.9,38.9h-4.1v-6.2h12.6v25.5H63v6.2H47.5v-6.2h3.4V38.9z M54.9,16.9c3.5,0,5.7,2.1,5.7,5.3
			s-2.2,5.3-5.7,5.3c-3.5,0-5.7-2.1-5.7-5.3S51.4,16.9,54.9,16.9z"/>
		<path class="st1" d="M106.4,58.2h3.1v-13c0-4.4-2.3-5.9-5.5-5.9c-4.1,0-6.7,3.3-6.7,8.4v10.5h3.6v6.2H85.7v-6.2h3.1v-13
			c0-4.4-2.3-5.9-5.5-5.9c-4.5,0-6.7,3.6-6.7,8.4v10.5h3.6v6.2H64.6v-6.2h3.4V38.9H64v-6.2h12.4c0,2.2,0,4.2-0.5,6.4H76
			c1.8-4.6,5.7-7.1,11-7.1c5.2,0,8.5,2.4,9.3,7.1h0.1c1.5-4.4,5-7.1,10.6-7.1c7.5,0,11,4.8,11,12.3v13.9h3.6v6.2h-15.2V58.2z"/>
		<path class="st1" d="M126.1,38.9h-4.8v-6.2h13.2c0.1,2-0.2,4-0.5,6h0.1c1.9-4.3,5.4-6.7,10.8-6.7c7,0,12.2,5,12.2,14.5
			c0,8.7-4.2,18.6-17.7,18.6c-1.4,0-3.4-0.2-4.8-0.5v8.8h3.6v6.2h-15.5v-6.2h3.4V38.9z M134.4,57.4c1.2,0.4,3.5,0.8,5.4,0.8
			c6.1,0,8.8-5.1,8.8-10.8c0-4.4-1.6-8.5-6.8-8.5c-5.6,0-7.3,4.1-7.3,8V57.4z"/>
		<path class="st1" d="M162.2,24h-4.8v-6.2h13.3v40.4h3.6v6.2h-15.5v-6.2h3.4V24z"/>
		<path class="st1" d="M184,50.5c0.2,5,4.1,8.1,10,8.1c4.1,0,6.7-0.7,10.2-2.2l-0.4,6.7c-3.9,1.5-7.4,2-11.7,2
			c-12.2,0-17.4-7.6-17.4-16.4c0-9.9,6-16.7,15.9-16.7c10.9,0,15.3,8.2,15.3,18.5H184z M196.8,44.6c0-4.4-2.5-6.8-6.4-6.8
			c-3.9,0-6.1,2.5-6.5,6.8H196.8z"/>
		<path class="st1" d="M210.8,28.2h-4.5V22h16.3c6,0,9.1,0.2,11.9,2c2.2,1.5,4.4,4.1,4.4,8.5c0,6.8-5.6,9.6-8.7,9.6v0.1
			c5.9,0,11.2,3.6,11.2,10.5c0,5.6-4.2,11.7-15.9,11.7h-18.8v-6.2h4.2V28.2z M219.7,39.3h4.1c3.6,0,6.6-2,6.6-5.8
			c0-3.6-2.3-5.3-6.5-5.3h-4.2V39.3z M219.7,58.2h4.8c5.1,0,7.4-2.8,7.4-6.2c0-3.3-2.5-5.8-7-5.8h-5.1V58.2z"/>
		<path class="st1" d="M251.9,50.5c0.2,5,4.1,8.1,10,8.1c4.1,0,6.7-0.7,10.2-2.2l-0.4,6.7c-3.9,1.5-7.4,2-11.7,2
			c-12.2,0-17.4-7.6-17.4-16.4c0-9.9,6-16.7,15.9-16.7c10.9,0,15.3,8.2,15.3,18.5H251.9z M264.7,44.6c0-4.4-2.5-6.8-6.4-6.8
			c-3.9,0-6.1,2.5-6.5,6.8H264.7z"/>
		<path class="st1" d="M278.3,26.2l8.5-0.5v7h8.5v6.2h-8.5V53c0,4.5,1.1,5.6,4.7,5.6c1.1,0,2.5-0.4,4.1-1l-0.3,6
			c-3.1,1.1-5.3,1.5-7.4,1.5c-6.2,0-9.6-2.9-9.6-8.5V38.9H274v-6.2h4.3V26.2z"/>
	</g>
</g>
<g id="Logo_Mark">
</g>
</svg>
