<svg xmlns="http://www.w3.org/2000/svg" viewBox="0 0 491.52 104.28"><defs><style>.cls-1{fill:#655dc6;}</style></defs><g id="Layer_2" data-name="Layer 2"><g id="Layer_1-2" data-name="Layer 1"><path class="cls-1" d="M1.65,39.93c.77-7.48,8.69-13.09,17.82-13.09,8.69,0,16.94,4.07,17.82,14.52H27.72c-.55-3.85-4.07-5.83-8-5.83-3.74,0-6.93,1.87-7.7,4.62a5.68,5.68,0,0,0,.11,4.07c1,2.09,3.41,3.19,6,4l7.59,1.87c10.67,2.64,13.31,9.13,13.31,15,0,9.57-9.24,15.4-19.91,15.4C9.9,80.41.33,74.47,0,63.91H9.13a8,8,0,0,0,4.18,5.83,13.57,13.57,0,0,0,8.14,1.76c4.62-.33,7.7-3,7.81-6.71s-3.08-5.61-6.82-6.49l-7-1.65C6.05,54.12.77,49.39,1.65,39.93Z"/><path class="cls-1" d="M63,27.94h-9.9V79.31H63Z"/><path class="cls-1" d="M125.83,51.59V79.31h-10V50.16c0-8.47-4.4-13.53-11.11-13.53-7.15,0-14.3,4.18-14.3,15V79.31h-10V27.94h10v7.7c2.75-5.72,10-8.25,14.19-8.58a23.35,23.35,0,0,1,5.61.33c6.49,1,11,4.4,13.42,10,4.73-9.13,12.76-10.56,17.82-10.56,12.87,0,19.8,8.36,19.8,22.77v29.7h-10v-29c0-8.47-4.4-13.64-11.77-13.64C131,36.52,125.83,43,125.83,51.59Z"/><path class="cls-1" d="M188.34,36c3.41-5.83,10.78-9.13,17.93-9.13,14.08,0,25.74,10.67,25.74,27s-11.66,26.62-25.74,26.62c-7.15,0-14.52-2.86-17.93-8.8v32.67h-10V27.94h10Zm16.94,34.65c9.24,0,16.61-6.49,16.61-16.72s-7.37-17.27-16.61-17.27c-9,0-16.83,6.38-16.83,17.27S197,70.62,205.28,70.62Z"/><path class="cls-1" d="M256.47,0V79.31h-10V0Z"/><path class="cls-1" d="M322.51,57.42H280.82c1.21,8.58,7.92,14,16.61,14,6.16,0,11.88-2.86,14.74-7.92,2.64,1.1,5.83,2.2,8.58,3.3-4.4,9-13.75,13.64-23.65,13.64-14.63,0-26.29-10.67-26.29-26.95s11.66-26.62,26.29-26.62,25.52,10.34,25.52,26.62C322.62,54.67,322.62,56.32,322.51,57.42Zm-9.79-7.81c-1.21-8.58-7.37-13.75-15.62-13.75-8.47,0-15.07,5.17-16.28,13.75Z"/><path class="cls-1" d="M346.71,79.31h-10V0h10V35.64c3.41-5.83,10.56-8.8,18-8.8,14.19,0,26,10.34,26,26.73s-12,26.84-26.07,26.84c-7.15,0-14.52-3.19-17.93-9Zm17.16-8.69c9.24,0,16.61-7,16.61-17.16s-7.37-16.83-16.61-16.83c-8.25,0-17.05,5.83-17.05,16.83S354.74,70.62,363.87,70.62Z"/><path class="cls-1" d="M453.61,57.42H411.92c1.21,8.58,7.92,14,16.61,14,6.16,0,11.88-2.86,14.74-7.92,2.64,1.1,5.83,2.2,8.58,3.3-4.4,9-13.75,13.64-23.65,13.64-14.63,0-26.29-10.67-26.29-26.95s11.66-26.62,26.29-26.62,25.52,10.34,25.52,26.62C453.72,54.67,453.72,56.32,453.61,57.42Zm-9.79-7.81c-1.21-8.58-7.37-13.75-15.62-13.75-8.47,0-15.07,5.17-16.28,13.75Z"/><path class="cls-1" d="M491.52,27.94v8.47H480.63v42.9h-10V36.41h-9.24V27.94h9.24V8.58h10V27.94Z"/><path class="cls-1" d="M58.09,17a8,8,0,1,1,8-8A8,8,0,0,1,58.09,17Zm0-13a5,5,0,1,0,5,5A5,5,0,0,0,58.09,4Z"/></g></g></svg>