<?xml version="1.0" encoding="utf-8" ?>
<svg xmlns="http://www.w3.org/2000/svg" xmlns:xlink="http://www.w3.org/1999/xlink" width="152" height="24">
	<path fill="rgb(123,134,140)" stroke="none" d="M0 0L0 24L138.153 24L152 0L0 0Z"/>
	<path fill="rgb(255,255,255)" stroke="none" transform="translate(19.0294 7.44733)" d="M7.04716 2.03462C6.47682 1.61731 5.85287 1.43462 5.0917 1.43462C4.29129 1.43462 3.61781 1.92393 3.61781 2.51214C3.61781 2.85517 3.83352 3.13676 4.43216 3.33352L5.44806 3.66538C6.59003 4.03159 7.18567 4.62041 7.18567 5.58724C7.18567 7.44 5.54797 8.95862 2.90617 8.95862C1.66171 8.95862 0.735013 8.64083 0 8.18648L0.938277 6.87497C1.67629 7.2931 2.33497 7.53662 3.22308 7.53662C4.34361 7.53662 5.06618 6.97303 5.06618 6.12724C5.06618 5.69731 4.76064 5.4149 4.12662 5.20862L3.19928 4.90179C2.19732 4.57221 1.5871 4.10503 1.5871 3.11214C1.5871 1.39614 3.26232 0 5.35714 0C6.43779 0 7.46805 0.317793 8.11537 0.856966L7.04716 2.03462Z"/>
	<path fill="rgb(255,255,255)" stroke="none" transform="translate(27.1702 8.047)" d="M3.65791 3.02752L2.52752 3.02752L1.84161 6.1769C1.79079 6.384 1.77707 6.58303 1.77707 6.72931C1.77707 7.07172 1.9679 7.18303 2.35041 7.18303C2.50114 7.18303 2.79446 7.13255 2.98379 7.05993L2.98379 8.05345C2.48978 8.23531 1.98012 8.32303 1.53778 8.32303C0.559622 8.32303 0 7.85731 0 7.24386C0 7.02352 0.0255153 6.72931 0.0900541 6.43448L0.838146 3.02752L0.191043 3.02752L0.443409 1.89952L1.09287 1.89952C1.2198 1.28607 1.30836 0.882828 1.48611 0.416483L3.2769 0C3.08542 0.576207 2.89674 1.2631 2.75523 1.89952L4.26813 1.89952L3.65791 3.02752Z"/>
	<path fill="rgb(255,255,255)" stroke="none" transform="translate(31.2229 9.82507)" d="M5.70342 1.97379L5.1824 4.35021C5.06704 4.89 5.117 5.25538 5.42168 5.5771L4.01341 6.59276C3.70787 6.39662 3.5685 6.06786 3.51854 5.82041C3.03439 6.312 2.50114 6.56835 1.79015 6.56835C0.608723 6.56835 0 5.86966 0 4.56993C0 3.06393 0.594786 1.72738 1.37054 0.979448C2.08089 0.293172 2.88044 0 3.96174 0C4.72462 0 5.57413 0.121034 6.12217 0.427655C5.98195 0.807103 5.80334 1.49628 5.70342 1.97379M3.73338 1.27428C3.31227 1.27428 2.99666 1.29869 2.53974 1.81428C2.00628 2.42607 1.73847 3.66393 1.73847 4.49731C1.73847 5.06235 1.89156 5.30586 2.26014 5.30586C2.79361 5.30586 3.33929 4.77931 3.51854 4.32724L4.19116 1.37152C4.11504 1.32331 3.88648 1.27428 3.73338 1.27428"/>
	<path fill="rgb(255,255,255)" stroke="none" transform="translate(37.7762 9.73834)" d="M2.5035 0C2.61736 0.207931 2.69433 0.747724 2.66882 1.01731C3.213 0.454552 3.91178 0.0748966 4.86378 0.0748966C5.69034 0.0748966 6.17299 0.552414 6.17299 1.31214C6.17299 1.58234 6.1329 1.92476 6.07222 2.19517L5.13244 6.48352L3.4555 6.48352L4.35905 2.40228C4.4075 2.15731 4.44524 1.97379 4.44524 1.83952C4.44524 1.53207 4.30673 1.44662 4.00033 1.44662C3.59466 1.44662 3.11308 1.69159 2.57962 2.38966L1.67629 6.48352L0 6.48352L0.927342 2.256C1.07979 1.56972 1.06671 1.02993 0.927342 0.600828L2.5035 0Z"/>
	<path fill="rgb(255,255,255)" stroke="none" transform="translate(44.6865 7.07922)" d="M3.04833 1.94855L2.0185 6.59276C1.85383 7.32786 1.80387 7.63614 1.80387 7.80765C1.80387 8.03938 1.9055 8.16352 2.13407 8.16352C2.19796 8.16352 2.26186 8.16352 2.32339 8.13828L2.40101 9.11917C2.09569 9.22903 1.71532 9.29069 1.34609 9.29069C0.432474 9.29069 0 8.81317 0 8.16352C0 7.94131 0.0891964 7.47434 0.190829 7.02352L1.21745 2.34062C1.39755 1.52007 1.49768 0.943862 1.37225 0.527172L3.17526 0C3.22694 0.282207 3.22694 1.15241 3.04833 1.94855"/>
	<path fill="rgb(255,255,255)" stroke="none" transform="translate(48.105 9.81342)" d="M2.46191 6.58034C3.37681 6.58034 4.22718 6.31055 5.10306 5.72317L4.67209 4.69303C4.06187 5.1091 3.45229 5.35345 2.86972 5.35345C2.15787 5.35345 1.77599 5.0609 1.77599 4.34938C1.77599 4.19048 1.83925 3.78497 1.83925 3.78497C1.83925 3.78497 2.17095 3.87186 2.61564 3.87186C4.77286 3.87186 5.90326 2.90359 5.90326 1.71538C5.90326 0.48931 4.97677 0 3.69608 0C2.82963 0 2.10469 0.231724 1.46059 0.830897C0.595643 1.6411 0 2.97703 0 4.27738C0 5.79538 0.912762 6.58034 2.46191 6.58034ZM4.18944 1.84986C4.18944 2.47428 3.33993 2.71862 2.60192 2.71862C2.37185 2.71862 2.11863 2.65779 2.11863 2.65779C2.37185 1.56766 2.85579 1.20083 3.5046 1.20083C4.01255 1.20083 4.18944 1.46897 4.18944 1.84986Z" fill-rule="evenodd"/>
	<path fill="rgb(255,255,255)" stroke="none" transform="translate(53.7943 9.84906)" d="M2.80668 0L3.1253 3.66538C3.1491 4.04297 3.17526 4.96365 3.17526 4.96365C3.17526 4.96365 3.62017 3.87269 4.05115 3.08855L5.68949 0.0972414L7.51737 0.0972414L3.74711 6.47193C3.03589 7.68517 2.59034 8.21028 2.04315 8.54152C1.54764 8.84814 0.953501 9.04345 0.341562 9.11628L0 8.01435C0.393236 7.9289 0.851225 7.79297 1.14283 7.6229C1.66386 7.31897 1.86626 7.03531 2.27258 6.37303L1.80387 6.37303C1.77771 5.90669 1.71553 5.14697 1.6377 4.60779L1.05363 0.196138L2.80668 0Z"/>
	<path fill="rgb(255,255,255)" stroke="none" transform="translate(60.9774 7.70416)" d="M5.01773 0C6.3531 0 7.31496 0.613448 7.31496 1.83869C7.31496 2.67248 6.77078 3.62752 5.46328 3.99662C6.27441 4.16669 6.78386 4.85359 6.78386 5.64972C6.78386 6.18807 6.55379 7.02352 5.9575 7.61234C5.30869 8.24959 4.57367 8.51752 3.20142 8.51752L0 8.51752L1.88084 0L5.01773 0ZM3.93643 3.40862L2.89524 3.40862L3.31699 1.45841L4.42208 1.45841C5.15624 1.45841 5.39938 1.67897 5.39938 2.20697C5.39938 2.62283 5.14402 2.96586 4.86614 3.162C4.64915 3.31055 4.42208 3.40862 3.93643 3.40862ZM2.08475 7.12138L3.24002 7.12138C3.60859 7.12138 3.92421 7.02352 4.15342 6.87434C4.54837 6.61821 4.82604 6.09 4.82604 5.61186C4.82604 5.01269 4.48448 4.81655 3.69715 4.81655L2.5912 4.81655L2.08475 7.12138Z" fill-rule="evenodd"/>
	<path fill="rgb(255,255,255)" stroke="none" transform="translate(68.7516 7.07922)" d="M3.04833 1.94855L2.01936 6.59276C1.85404 7.32786 1.80301 7.63614 1.80301 7.80765C1.80301 8.03938 1.9055 8.16352 2.13407 8.16352C2.19646 8.16352 2.26036 8.16352 2.3249 8.13828L2.40101 9.11917C2.09569 9.22903 1.71467 9.29069 1.34438 9.29069C0.431616 9.29069 0 8.81317 0 8.16352C0 7.94131 0.0885532 7.47434 0.189328 7.02352L1.2198 2.34062C1.39755 1.52007 1.50154 0.943862 1.37139 0.527172L3.17462 0C3.22544 0.282207 3.22544 1.15241 3.04833 1.94855"/>
	<path fill="rgb(255,255,255)" stroke="none" transform="translate(72.3589 9.82507)" d="M5.70428 1.97379L5.18111 4.35021C5.06618 4.89 5.11872 5.25538 5.4249 5.5771L4.01341 6.59276C3.70937 6.39662 3.57021 6.06786 3.51875 5.82041C3.03611 6.312 2.5035 6.56835 1.7925 6.56835C0.611081 6.56835 0 5.86966 0 4.56993C0 3.06393 0.598645 1.72738 1.37461 0.979448C2.08325 0.293172 2.88302 0 3.96345 0C4.72612 0 5.57563 0.121034 6.12368 0.427655C5.98216 0.807103 5.80506 1.49628 5.70428 1.97379M3.73553 1.27428C3.31549 1.27428 2.99751 1.29869 2.53974 1.81428C2.00799 2.42607 1.74169 3.66393 1.74169 4.49731C1.74169 5.06235 1.89328 5.30586 2.26186 5.30586C2.79532 5.30586 3.34015 4.77931 3.51875 4.32724L4.19202 1.37152C4.11504 1.32331 3.88712 1.27428 3.73553 1.27428"/>
	<path fill="rgb(255,255,255)" stroke="none" transform="translate(78.9787 9.763)" d="M4.51986 1.77786C4.24047 1.47124 3.8734 1.31152 3.55563 1.31152C3.24838 1.31152 2.98379 1.43317 2.75458 1.67979C2.28501 2.19434 1.85318 3.49097 1.85318 4.46152C1.85318 5.11138 2.1703 5.39193 2.62743 5.39193C3.09679 5.39193 3.56807 5.13579 4.04965 4.7669L4.62063 5.78566C3.91028 6.31283 3.1862 6.618 2.23184 6.618C0.786686 6.618 0 5.80945 0 4.46152C0 2.90503 0.749593 1.48303 1.64928 0.747724C2.23184 0.269586 2.88044 0 3.78399 0C4.3807 0 5.03938 0.234 5.50959 0.747724L4.51986 1.77786Z"/>
	<path fill="rgb(255,255,255)" stroke="none" transform="translate(84.452 7.07922)" d="M3.19992 2.36607C3.4911 1.05372 3.50332 0.306 3.41562 0L1.65228 0.527172C1.74083 0.883034 1.71381 1.38414 1.52599 2.25455L0 9.14297L1.70159 9.14297L3.19992 2.36607ZM4.17829 5.5889L6.83189 2.86717L4.72441 2.86717L2.52666 5.5889L3.92421 9.14297L5.93113 9.14297L4.17829 5.5889Z" fill-rule="evenodd"/>
	<path fill="rgb(255,255,255)" stroke="none" transform="translate(91.1082 8.05975)" d="M7.53109 3.99517C7.38186 4.82917 7.02314 5.78359 6.56773 6.39745L8.02682 8.16207L5.7804 8.16207L5.34685 7.62207C4.72527 8.04103 3.97481 8.33359 2.74193 8.33359C0.978802 8.33359 0 7.48924 0 6.37138C0 5.34434 0.736514 4.43545 2.13643 3.87352C1.6124 3.40634 1.47303 3.00165 1.47303 2.46331C1.47303 1.10276 2.78138 0 4.4952 0C5.8042 0 6.62991 0.624414 6.62991 1.52007C6.62991 2.46331 6.27377 3.17462 4.67123 3.88614L4.50592 3.95959L5.67662 5.31993C5.90583 4.97462 6.08272 4.22834 6.10888 3.99517L7.53109 3.99517ZM4.2542 1.13917C4.63435 1.13917 4.88843 1.38497 4.88843 1.74083C4.88843 2.29179 4.4566 2.84276 3.73231 3.12476C3.33908 2.68448 3.22608 2.40166 3.22608 2.14552C3.22608 1.5929 3.69393 1.13917 4.2542 1.13917ZM1.86862 6.23876C1.86862 6.80152 2.29959 7.13276 3.06055 7.13276C3.66842 7.13276 4.165 6.97324 4.50592 6.6931L2.85514 4.77952C2.22412 5.10993 1.86862 5.61248 1.86862 6.23876Z" fill-rule="evenodd"/>
	<path fill="rgb(255,255,255)" stroke="none" transform="translate(99.9717 7.70392)" d="M6.84711 0.834C6.29156 0.158897 5.38716 0 3.91585 0L1.87934 0L0 8.51834L2.14886 8.51834C4.09274 8.51834 4.9802 8.18876 5.9099 7.24324C6.99806 6.12724 7.51973 4.30262 7.51973 2.90503C7.51973 1.8989 7.25407 1.33738 6.84711 0.834ZM2.99923 7.12138L2.12356 7.12138L3.39182 1.34855L4.19523 1.34855C5.37408 1.34855 5.60415 2.09628 5.60415 2.88041C5.60415 3.33352 5.43819 5.04972 4.65086 6.2371C4.33353 6.71669 3.76019 7.12138 2.99923 7.12138Z" fill-rule="evenodd"/>
	<path fill="rgb(255,255,255)" stroke="none" transform="translate(107.937 9.81342)" d="M2.46491 6.58034C3.38003 6.58034 4.2304 6.31055 5.10456 5.72317L4.67359 4.69303C4.06637 5.1091 3.45679 5.35345 2.87208 5.35345C2.15958 5.35345 1.78007 5.0609 1.78007 4.34938C1.78007 4.19048 1.84311 3.78497 1.84311 3.78497C1.84311 3.78497 2.17245 3.87186 2.6165 3.87186C4.77758 3.87186 5.90562 2.90359 5.90562 1.71538C5.90562 0.48931 4.97849 0 3.69715 0C2.83434 0 2.10855 0.231724 1.46295 0.830897C0.598645 1.6411 0 2.97703 0 4.27738C0 5.79538 0.916622 6.58034 2.46491 6.58034ZM4.1918 1.84986C4.1918 2.47428 3.34143 2.71862 2.60428 2.71862C2.37786 2.71862 2.12099 2.65779 2.12099 2.65779C2.37786 1.56766 2.85814 1.20083 3.50868 1.20083C4.01491 1.20083 4.1918 1.46897 4.1918 1.84986Z" fill-rule="evenodd"/>
	<path fill="rgb(255,255,255)" stroke="none" transform="translate(114.414 9.763)" d="M4.52372 1.77786C4.24433 1.47124 3.87575 1.31152 3.55949 1.31152C3.2546 1.31152 2.98593 1.43317 2.76059 1.67979C2.28887 2.19434 1.85704 3.49097 1.85704 4.46152C1.85704 5.11138 2.17266 5.39193 2.63044 5.39193C3.10301 5.39193 3.57107 5.13579 4.05565 4.7669L4.62621 5.78566C3.91413 6.31283 3.19306 6.618 2.23892 6.618C0.788187 6.618 0 5.80945 0 4.46152C0 2.90503 0.751951 1.48303 1.65378 0.747724C2.23892 0.269586 2.8843 0 3.7872 0C4.3837 0 5.04238 0.234 5.5141 0.747724L4.52372 1.77786Z"/>
	<path fill="rgb(255,255,255)" stroke="none" transform="translate(119.89 7.07922)" d="M3.19992 2.36607C3.49238 1.05372 3.50632 0.306 3.41627 0L1.65163 0.527172C1.74105 0.883034 1.71467 1.38414 1.52384 2.25455L0 9.14297L1.70095 9.14297L3.19992 2.36607ZM4.18044 5.5889L6.83189 2.86717L4.72612 2.86717L2.52666 5.5889L3.92571 9.14297L5.93349 9.14297L4.18044 5.5889Z" fill-rule="evenodd"/>
	<path fill="rgb(255,255,255)" stroke="none" transform="translate(126.532 9.81342)" d="M2.46727 6.58034C3.38132 6.58034 4.2319 6.31055 5.10757 5.72317L4.67659 4.69303C4.06787 5.1091 3.45765 5.35345 2.87187 5.35345C2.16087 5.35345 1.77985 5.0609 1.77985 4.34938C1.77985 4.19048 1.84289 3.78497 1.84289 3.78497C1.84289 3.78497 2.17245 3.87186 2.61736 3.87186C4.77672 3.87186 5.90583 2.90359 5.90583 1.71538C5.90583 0.48931 4.98213 0 3.70015 0C2.83499 0 2.11155 0.231724 1.46209 0.830897C0.598645 1.6411 0 2.97703 0 4.27738C0 5.79538 0.91555 6.58034 2.46727 6.58034ZM4.19395 1.84986C4.19395 2.47428 3.34229 2.71862 2.60556 2.71862C2.37807 2.71862 2.12227 2.65779 2.12227 2.65779C2.37807 1.56766 2.85965 1.20083 3.5061 1.20083C4.0162 1.20083 4.19395 1.46897 4.19395 1.84986Z" fill-rule="evenodd"/>
	<path fill="rgb(255,255,255)" stroke="none" transform="translate(132.809 9.73834)" d="M2.51444 0C2.61821 0.207931 2.71899 0.663103 2.66753 1.01731C3.23937 0.454552 3.8481 0.0622759 4.48448 0.0622759C4.72548 0.0622759 4.84019 0.0868965 5.06854 0.196759L4.33289 1.64255C4.17979 1.5571 4.0267 1.52007 3.83737 1.52007C3.50803 1.52007 3.13774 1.70421 2.60599 2.37786L1.70331 6.48352L0 6.48352L0.914478 2.34062C1.09051 1.5571 1.06757 1.00614 0.939778 0.600828L2.51444 0Z"/>

</svg>