<svg width="297" height="445" viewBox="0 0 297 445" fill="none" xmlns="http://www.w3.org/2000/svg">
<g opacity="0.3">
<path d="M24.8047 305.499L161.696 226.495C173.215 219.847 187.411 219.847 198.93 226.495L276.17 271.073C286.59 277.084 286.59 292.119 276.17 298.13L209.326 336.707L250.28 360.344C253.056 361.945 253.056 365.952 250.28 367.553L204.058 394.233C197.93 397.768 190.38 397.768 184.252 394.233L146.953 372.709L139.283 377.139C127.764 383.787 113.569 383.787 102.049 377.139L24.8097 332.561C14.3894 326.55 14.3894 311.515 24.8097 305.504L24.8047 305.499Z" fill="#B1C4E4"/>
</g>
<path d="M246.485 292.246L204.821 277.833C194.666 274.322 184.239 282.38 185.044 293.123L189.534 343.36C189.687 345.415 191.396 347 193.446 347H204.767C206.841 347 208.555 345.385 208.684 343.31L210.343 315.208C210.408 314.108 211.608 313.469 212.551 314.034L244.307 332.993C252.007 337.822 262 332.27 262 323.167V296.139L246.49 292.251L246.485 292.246Z" fill="#36760A"/>
<path d="M246.485 292.246L204.821 277.833C194.666 274.322 184.239 282.38 185.044 293.123L189.534 343.36C189.687 345.415 191.396 347 193.446 347H204.767C206.841 347 208.555 345.385 208.684 343.31L210.487 312.796L244.307 332.988C252.007 337.817 262 332.265 262 323.162V296.134L246.49 292.246H246.485Z" fill="#3DC2B5"/>
<path d="M188.619 355.24C188.619 355.24 176.869 349.843 173.318 352.98C169.766 356.116 168.538 364.771 182.862 371.17L203.36 378.57C205.354 379.29 207.55 379.099 209.396 378.047L210.418 377.463C211.396 376.909 212 375.852 212 374.709V364.997C212 363.447 211.008 362.082 209.559 361.639L188.619 355.235V355.24Z" fill="#3DC2B5"/>
<path d="M197.528 346V356.594L195.031 356.85C194.014 356.952 193.631 358.22 194.427 358.853L201.523 364.489C203.67 366.192 206.639 366.482 209.081 365.224L212 363.937C212 362.655 211.076 361.557 209.803 361.315L207.798 360.933L208.005 346.005H197.528V346Z" fill="#112050"/>
<path d="M210.418 373.428L209.396 374.023C207.549 375.095 205.353 375.29 203.358 374.556L182.858 367.017C175.336 363.596 172.109 359.544 171.249 356C170.183 360.134 172.266 366.207 182.858 371.023L203.358 378.562C205.348 379.296 207.549 379.101 209.396 378.029L210.418 377.434C211.396 376.87 212 375.793 212 374.628V370.623C212 371.787 211.396 372.864 210.418 373.428Z" fill="#3DC2B5"/>
<path d="M288.603 413C287.067 413 285.674 411.943 285.307 410.373L268.998 304.412C268.517 302.349 267.209 300.534 265.404 299.437L254.806 292.972C252.749 291.716 250.27 291.472 248.015 292.299C245.754 293.127 244.014 294.911 243.236 297.199L220.592 369.388C219.987 371.168 218.064 372.12 216.294 371.512C214.525 370.904 213.578 368.97 214.182 367.19L236.827 295.001C238.269 290.749 241.506 287.429 245.705 285.894C249.903 284.359 254.504 284.817 258.325 287.145L268.924 293.61C272.27 295.654 274.704 299.024 275.601 302.857L291.91 408.818C292.336 410.647 291.206 412.482 289.387 412.91C289.129 412.97 288.866 413 288.608 413H288.603Z" fill="#112050"/>
<path d="M160.619 371.24C160.619 371.24 148.869 365.843 145.318 368.98C141.766 372.116 140.538 380.771 154.862 387.169L175.36 394.57C177.354 395.29 179.55 395.099 181.397 394.047L182.418 393.463C183.396 392.909 184 391.852 184 390.709V380.997C184 379.447 183.008 378.082 181.559 377.639L160.619 371.235V371.24Z" fill="#3DC2B5"/>
<path d="M182.418 389.428L181.396 390.023C179.549 391.095 177.353 391.29 175.359 390.556L154.858 383.017C147.336 379.596 144.109 375.544 143.249 372C142.183 376.134 144.266 382.207 154.858 387.023L175.359 394.562C177.348 395.296 179.549 395.101 181.396 394.029L182.418 393.434C183.396 392.87 184 391.793 184 390.628V386.623C184 387.787 183.396 388.864 182.418 389.428Z" fill="#3DC2B5"/>
<path d="M169.528 362V372.594L167.031 372.85C166.014 372.952 165.631 374.22 166.427 374.853L173.523 380.489C175.67 382.192 178.638 382.482 181.081 381.224L184 379.937C184 378.655 183.076 377.557 181.803 377.315L179.798 376.933L180.005 362.005H169.528V362Z" fill="#112050"/>
<path d="M281.921 336.19L282 330.436H274.834L233.867 306.657C227.761 303.114 220.238 303.114 214.133 306.657L170.232 332.135H166V337.002C166 338.407 166.694 339.812 168.076 340.614L214.133 367.343C220.238 370.886 227.761 370.886 233.867 367.343L279.923 340.61C281.574 339.653 282.233 337.834 281.911 336.185H281.921V336.19Z" fill="#112050"/>
<path d="M168.074 328.388L214.132 301.656C220.238 298.115 227.762 298.115 233.868 301.656L279.926 328.388C282.691 329.992 282.691 334.008 279.926 335.612L233.868 362.344C227.762 365.885 220.238 365.885 214.132 362.344L168.074 335.617C165.308 334.013 165.308 329.997 168.074 328.393V328.388Z" fill="#E3EDFE"/>
<path d="M222.284 306.464L180.079 291.845C169.791 288.284 159.229 296.457 160.044 307.353L164.593 358.308C164.748 360.392 166.479 362 168.555 362H180.024C182.125 362 183.861 360.362 183.992 358.257L185.673 329.753C185.738 328.638 186.954 327.99 187.909 328.563L220.077 347.793C227.878 352.691 238 347.06 238 337.826V310.413L222.289 306.469L222.284 306.464Z" fill="#36760A"/>
<path d="M222.284 306.464L180.079 291.845C169.791 288.284 159.229 296.457 160.044 307.353L164.593 358.308C164.748 360.392 166.479 362 168.555 362H180.024C182.125 362 183.861 360.362 183.992 358.257L185.818 327.307L220.077 347.788C227.878 352.686 238 347.055 238 337.821V310.408L222.289 306.464H222.284Z" fill="#3DC2B5"/>
<path d="M232.117 346.995L258.744 331.746C263.854 328.821 267 323.426 267 317.599V300L226 313.139L232.112 347L232.117 346.995Z" fill="#3DC2B5"/>
<mask id="mask0_5_18765" style="mask-type:luminance" maskUnits="userSpaceOnUse" x="161" y="307" width="27" height="56">
<path d="M161.019 307.949L165.541 358.38C165.695 360.443 167.416 362.034 169.48 362.034H180.88C182.969 362.034 184.063 359.16 184.193 357.077L187.321 328.031L177.169 322.93C171.096 319.743 161.054 308.352 161.019 307.944V307.949Z" fill="white"/>
</mask>
<g mask="url(#mask0_5_18765)">
<path d="M168.445 329.215L214.668 302.535C220.795 299 228.346 299 234.474 302.535L280.696 329.21C283.471 330.811 283.471 334.818 280.696 336.419L234.474 363.098C228.346 366.633 220.795 366.633 214.668 363.098L168.445 336.424C165.67 334.823 165.67 330.816 168.445 329.215Z" fill="#F3C500"/>
<path d="M282.7 336.732L282.78 330.989H275.588L234.473 307.258C228.346 303.723 220.795 303.723 214.667 307.258L170.609 332.685H166.361V337.543C166.361 338.945 167.058 340.347 168.445 341.147L214.667 367.822C220.795 371.357 228.346 371.357 234.473 367.822L280.696 341.142C282.352 340.188 283.013 338.373 282.69 336.727H282.7V336.732Z" fill="#112050"/>
<path d="M168.445 329.08L214.667 302.401C220.795 298.866 228.346 298.866 234.473 302.401L280.696 329.08C283.471 330.681 283.471 334.689 280.696 336.29L234.473 362.969C228.346 366.504 220.795 366.504 214.667 362.969L168.445 336.294C165.67 334.694 165.67 330.686 168.445 329.085V329.08Z" fill="#E3EDFE"/>
</g>
<path d="M230.604 445C229.067 445 227.674 443.943 227.307 442.373L210.998 336.412C210.517 334.349 209.209 332.534 207.404 331.437L196.806 324.972C194.749 323.716 192.27 323.472 190.015 324.299C187.754 325.127 186.014 326.911 185.236 329.199L162.592 401.388C161.987 403.168 160.064 404.12 158.294 403.512C156.525 402.904 155.578 400.97 156.183 399.19L178.827 327.001C180.269 322.749 183.506 319.429 187.705 317.894C191.903 316.359 196.504 316.817 200.326 319.145L210.924 325.61C214.27 327.654 216.704 331.024 217.601 334.857L233.91 440.818C234.336 442.647 233.206 444.482 231.387 444.91C231.129 444.97 230.866 445 230.609 445H230.604Z" fill="#112050"/>
<path d="M12.7004 118.972L150.761 39.5687C150.931 39.4695 151.105 39.3753 151.274 39.286C154.092 37.823 157.403 37.6346 160.435 38.5868L171.637 42.1178L172 47.092L170.113 50.6974V145.941C170.113 154.982 165.269 163.338 157.408 167.861L20.8055 246.421L21.9854 248.985L13.9301 249H12.8697C6.15357 248.97 0 243.619 0 236.136V140.892C0 131.851 4.84417 123.495 12.7053 118.972H12.7004Z" fill="#B3CDFA"/>
<path d="M29.4062 261.306L168.822 181.364C174.318 178.212 181.085 178.212 186.581 181.364L271.502 230.058L281 231.231V240.743C281.029 243.9 279.485 247.072 276.335 248.879L130.268 332.636C124.771 335.788 118.005 335.788 112.508 332.636L22.6641 281.448C19.5547 279.666 18 276.544 18 273.426L18.1495 263.513L29.4062 261.316V261.306Z" fill="#B3CDFA"/>
<path d="M277.333 222.178L187.546 170.378C182.049 167.207 175.28 167.207 169.782 170.378L23.6671 254.673C17.4443 258.261 17.4443 267.234 23.6671 270.822L113.454 322.622C118.951 325.793 125.72 325.793 131.218 322.622L277.333 238.327C283.556 234.739 283.556 225.766 277.333 222.178Z" fill="white"/>
<path d="M226.16 222.774C231.299 219.78 231.274 212.282 226.12 209.319L185.474 185.945C181.024 183.352 175.538 183.352 171.088 185.945L52.7762 254.938C47.7413 257.876 47.7413 265.219 52.7762 268.157L91.8466 290.595C97.4664 293.824 104.36 293.799 109.96 290.535L226.16 222.774Z" fill="#E3EDFE"/>
<path d="M215.833 260.738C217.396 259.832 217.386 257.563 215.823 256.666L203.471 249.59C202.117 248.803 200.45 248.803 199.101 249.59L163.149 270.479C161.617 271.371 161.617 273.589 163.149 274.481L175.019 281.272C176.726 282.249 178.821 282.244 180.523 281.252L215.833 260.738Z" fill="#E3EDFE"/>
<path d="M180 53.9192V149.534C180 158.61 175.159 166.999 167.303 171.54L29.3339 251.253C20.7416 256.217 10 250.013 10 240.081V144.466C10 135.39 14.8409 127.001 22.6968 122.46L160.666 42.7471C169.258 37.7834 180 43.9868 180 53.9192Z" fill="#112050"/>
<path d="M22.4705 242C22.8781 242 23.2758 241.886 23.6784 241.652L161.524 161.989C166.132 159.327 169 154.361 169 149.033V53.4778C169 51.7861 167.524 51 166.525 51C166.117 51 165.724 51.1144 165.317 51.3483L27.4711 131.011C22.8632 133.673 20 138.639 20 143.967V239.522C20 240.234 20.2336 240.806 20.7158 241.269C21.193 241.726 21.8491 242 22.4755 242H22.4705Z" fill="white"/>
<path d="M144 209.514L152.498 205L161 209.514L152.552 214L144 209.514Z" fill="#B3CDFA"/>
<path d="M157 202.015L165.498 197L174 202.015L165.552 207L157 202.015Z" fill="#B3CDFA"/>
<path d="M132 217.013L140.502 212L149 217.013L140.552 222L132 217.013Z" fill="#B3CDFA"/>
<path d="M119 224.015L127.503 219L136 224.015L127.552 229L119 224.015Z" fill="#B3CDFA"/>
<path d="M106 232.015L114.502 227L123 232.015L114.552 237L106 232.015Z" fill="#B3CDFA"/>
<path d="M93 239.015L101.997 234L111 239.015L102.055 244L93 239.015Z" fill="#B3CDFA"/>
<path d="M81 246.015L89.4976 241L98 246.015L89.5469 251L81 246.015Z" fill="#B3CDFA"/>
<path d="M68 253.514L76.5 249L85 253.514L76.5493 258L68 253.514Z" fill="#B3CDFA"/>
<path d="M56 261.015L64.4975 256L73 261.015L64.5519 266L56 261.015Z" fill="#B3CDFA"/>
<path d="M169 195.015L177.497 190L186 195.015L177.552 200L169 195.015Z" fill="#B3CDFA"/>
<path d="M157 217.015L165.5 212L174 217.015L165.549 222L157 217.015Z" fill="#B3CDFA"/>
<path d="M169 209.511L178.002 205L187 209.511L178.055 214L169 209.511Z" fill="#B3CDFA"/>
<path d="M144 224.015L152.5 219L161 224.015L152.549 229L144 224.015Z" fill="#B3CDFA"/>
<path d="M131 231.015L139.497 226L148 231.015L139.552 236L131 231.015Z" fill="#B3CDFA"/>
<path d="M119 239.015L127.5 234L136 239.015L127.549 244L119 239.015Z" fill="#B3CDFA"/>
<path d="M106 246.015L114.5 241L123 246.015L114.549 251L106 246.015Z" fill="#B3CDFA"/>
<path d="M93 253.514L101.502 249L110 253.514L101.552 258L93 253.514Z" fill="#B3CDFA"/>
<path d="M81 261.015L89.5025 256L98 261.015L89.5518 266L81 261.015Z" fill="#B3CDFA"/>
<path d="M68 268.015L76.5 263L85 268.015L76.5493 273L68 268.015Z" fill="#B3CDFA"/>
<path d="M181 202.015L190 197L199 202.015L190.052 207L181 202.015Z" fill="#B3CDFA"/>
<path d="M169 224.015L177.502 219L186 224.015L177.552 229L169 224.015Z" fill="#B3CDFA"/>
<path d="M182 217.015L190.497 212L199 217.015L190.552 222L182 217.015Z" fill="#B3CDFA"/>
<path d="M156 231.015L164.502 226L173 231.015L164.552 236L156 231.015Z" fill="#B3CDFA"/>
<path d="M144 238.015L152.5 233L161 238.015L152.549 243L144 238.015Z" fill="#B3CDFA"/>
<path d="M131 246.013L139.502 241L148 246.013L139.552 251L131 246.013Z" fill="#B3CDFA"/>
<path d="M118 253.015L126.503 248L135 253.015L126.552 258L118 253.015Z" fill="#B3CDFA"/>
<path d="M105 261.015L113.498 256L122 261.015L113.552 266L105 261.015Z" fill="#B3CDFA"/>
<path d="M93 268.015L101.5 263L110 268.015L101.549 273L93 268.015Z" fill="#B3CDFA"/>
<path d="M80 275.015L88.5025 270L97 275.015L88.5518 280L80 275.015Z" fill="#B3CDFA"/>
<path d="M194 209.511L202.502 205L211 209.511L202.552 214L194 209.511Z" fill="#B3CDFA"/>
<path d="M181 231.015L189.5 226L198 231.015L189.549 236L181 231.015Z" fill="#B3CDFA"/>
<path d="M194 224.015L202.5 219L211 224.015L202.549 229L194 224.015Z" fill="#B3CDFA"/>
<path d="M169 238.015L177.497 233L186 238.015L177.552 243L169 238.015Z" fill="#B3CDFA"/>
<path d="M156 245.514L164.502 241L173 245.514L164.552 250L156 245.514Z" fill="#B3CDFA"/>
<path d="M143 253.015L151.498 248L160 253.015L151.552 258L143 253.015Z" fill="#B3CDFA"/>
<path d="M130 260.015L139 255L148 260.015L139.052 265L130 260.015Z" fill="#B3CDFA"/>
<path d="M118 268.015L126.5 263L135 268.015L126.549 273L118 268.015Z" fill="#B3CDFA"/>
<path d="M105 275.013L113.502 270L122 275.013L113.552 280L105 275.013Z" fill="#B3CDFA"/>
<path d="M93 282.015L101.498 277L110 282.015L101.547 287L93 282.015Z" fill="#B3CDFA"/>
<path d="M206 217.015L214.5 212L223 217.015L214.549 222L206 217.015Z" fill="#B3CDFA"/>
<path d="M186.143 228.151L217.154 248.856C220.452 251.057 224.917 249.977 226.856 246.514L235 231.94L221.765 225.231L218.081 233.76L189.2 220.502L186.739 214.12L173.449 202.38C172.787 201.777 171.74 201.908 171.244 202.657C170.848 203.255 170.943 204.049 171.464 204.541L177.689 210.667L176.355 214.11C175.524 216.256 175.674 218.658 176.761 220.683L178.861 224.588C179.538 225.844 180.705 226.759 182.079 227.111L186.143 228.156V228.151Z" fill="#112050"/>
<path d="M204.404 300.433L200.089 246.117C199.286 236.716 203.948 227.687 212.082 222.91L228.663 213.171C238.241 207.549 250.457 213.395 252.109 224.385L265 300.423C265 300.423 240.503 324.221 204.409 300.423L204.404 300.433Z" fill="#E3EDFE"/>
<path d="M202.043 261.164C202.005 261.354 201.991 261.558 202.005 261.787C202.034 262.181 202.067 262.575 202.095 262.969C202.469 268.377 202.847 273.79 203.221 279.199C203.627 285.046 204.034 290.893 204.436 296.74C204.512 297.827 204.587 298.913 204.663 300C204.587 298.878 205.448 297.209 205.859 296.212C206.64 294.302 207.013 292.234 207.226 290.18C207.666 285.928 207.411 281.582 208.413 277.409C209.576 272.569 212.343 268.432 214.556 264.09C215.696 261.857 216.438 259.27 217.096 256.822C217.786 254.245 218.202 251.549 217.9 248.867C217.829 248.239 217.715 247.596 217.413 247.052C217.11 246.504 216.59 246.056 215.989 246.006C215.322 245.946 214.708 246.37 214.173 246.793C212.073 248.453 210.205 250.442 208.64 252.665C207.855 253.782 207.24 254.868 206.356 255.905C205.42 256.997 204.479 258.079 203.514 259.14C202.866 259.858 202.218 260.332 202.043 261.159V261.164Z" fill="#AAB2BF"/>
<path d="M193.576 259.34L190.117 267.144L163.006 255.014L161.574 249.72L159.812 246.564C159.312 245.673 158.16 245.355 157.259 245.859C156.343 246.373 156.053 247.528 156.618 248.399L155.792 249.348C155.537 249.647 155.072 249.661 154.796 249.382L150.872 245.463C149.39 244.509 147.653 244 145.876 244H144.7C143.669 244 142.692 244.475 142.072 245.282L139.659 248.423C139.033 249.236 138.838 250.292 139.138 251.266C139.814 253.488 141.356 255.362 143.423 256.487L151.412 260.832C152.384 261.36 153.465 261.664 154.571 261.723L160.142 262.011L189.251 280.952C192.344 282.968 196.539 281.98 198.356 278.809L206 265.475L193.576 259.34Z" fill="#112050"/>
<path d="M214 221.516C214 221.516 224.134 224.835 227 214.087L222.386 204H214V221.511V221.516Z" fill="#112050"/>
<path d="M202.839 186.991C202.888 187.81 202.953 188.633 202.938 189.451C202.898 191.237 202.46 192.989 202.027 194.72C201.649 196.232 201.151 197.729 201.101 199.27C201.076 200.069 200.957 200.847 201.016 201.65C201.071 202.399 201.509 203.227 201.509 203.935C202.191 205.771 203.521 207.358 205.174 208.396C207.589 209.912 210.611 210.297 213.414 209.788C216.217 209.274 218.821 207.917 221.086 206.185C223.352 204.449 225.304 202.344 227.171 200.183C228.256 198.926 229.595 197.404 229.869 195.703C230.148 194.002 229.909 191.991 229.809 190.254C229.685 188.069 229.471 185.859 229.053 183.704C229.053 183.704 222.729 176 214.016 176C211.527 176 209.132 176.679 207.001 177.961C204.775 179.303 203.103 182.117 202.844 184.716C202.769 185.475 202.794 186.233 202.839 186.996V186.991Z" fill="#112050"/>
<path d="M203.65 183.086C206.047 185.435 208.807 187.6 210.148 190.687C210.86 192.331 211.12 194.135 211.395 195.913C212.461 202.795 213.964 209.791 217.677 215.662C221.39 221.533 227.736 226.136 234.641 225.997C236.321 225.962 238.045 225.635 239.454 224.714C242.293 222.861 243.236 219.041 242.951 215.642C242.662 212.243 241.399 209.013 240.82 205.654C239.744 199.436 241.031 192.99 239.985 186.768C239.307 182.725 237.632 178.86 235.157 175.61C234.317 174.51 233.374 173.465 232.2 172.741C230.604 171.756 228.708 171.434 226.866 171.131C221.527 170.249 216.184 169.367 210.845 168.486C209.367 168.243 207.883 167.995 206.385 168C202.859 168 199.509 170.175 199.043 173.96C198.62 177.384 201.405 180.887 203.659 183.091L203.65 183.086Z" fill="#3DC2B5"/>
<path d="M240.497 159.822C241.466 160.354 242.286 161.099 243.056 161.877C245.247 164.087 247.165 166.699 247.826 169.703C247.975 170.38 248.06 171.081 247.95 171.768C246.961 178.075 237.501 179.56 232.88 176.382C228.473 173.349 227.673 165.451 231.24 161.563C233.471 159.125 237.506 158.177 240.497 159.822Z" fill="#3DC2B5"/>
<path d="M202.788 234L193.009 256.368C192.601 263.315 206.266 266.346 208.86 264.441L224 242.743L202.783 234H202.788Z" fill="#E3EDFE"/>
<path d="M207.623 264.868C212.56 258.5 217.331 252.021 221.946 245.445C222.175 245.115 221.613 244.815 221.384 245.139C216.774 251.715 211.998 258.19 207.06 264.563C206.815 264.877 207.378 265.182 207.623 264.868Z" fill="#112050"/>
<path d="M292.99 245.802L288.78 243.556C286.395 241.801 283.072 241.38 280.152 243.075L237.754 267.681C229.864 272.258 225 280.751 225 289.951V326.254C225 329.783 227.162 332.556 230.003 333.704L234.05 336L235.403 333.879C235.889 333.719 236.365 333.508 236.837 333.238L279.115 309.143C287.099 304.59 292.043 296.042 292.043 286.777V250.028C292.043 249.547 291.998 249.081 291.924 248.63L293 245.797L292.99 245.802Z" fill="#112050"/>
<path d="M230 292.802V328.992C230 335.109 236.537 338.962 241.825 335.959L284.08 311.939C292.059 307.401 297 298.88 297 289.644V253.009C297 246.862 290.408 243.014 285.12 246.072L242.747 270.602C234.862 275.165 230 283.631 230 292.802Z" fill="#E3EDFE"/>
<path d="M248.815 367C246.994 367 245.169 366.565 243.489 365.685L240.725 364.245C239.128 363.41 238.531 361.484 239.397 359.939C240.263 358.399 242.26 357.824 243.862 358.659L246.626 360.099C248.088 360.859 249.743 360.829 251.169 360.009C252.595 359.189 253.414 357.804 253.414 356.204V293.175C253.414 291.42 254.887 290 256.707 290C258.527 290 260 291.42 260 293.175V356.204C260 360.039 257.962 363.505 254.539 365.465C252.761 366.485 250.795 367 248.82 367H248.815Z" fill="#112050"/>
<path d="M270.349 355C268.616 355 266.877 354.565 265.276 353.685L262.643 352.245C261.122 351.41 260.554 349.484 261.379 347.939C262.204 346.394 264.11 345.824 265.632 346.659L268.265 348.099C269.653 348.859 271.229 348.829 272.587 348.009C273.946 347.189 274.726 345.804 274.726 344.204V281.175C274.726 279.42 276.129 278 277.863 278C279.597 278 281 279.42 281 281.175V344.204C281 348.039 279.058 351.505 275.798 353.465C274.104 354.485 272.227 355 270.349 355Z" fill="#112050"/>
<g style="mix-blend-mode:multiply">
<mask id="mask1_5_18765" style="mask-type:luminance" maskUnits="userSpaceOnUse" x="183" y="121" width="56" height="106">
<path d="M229.181 121.054L238.641 226.638L183.511 220.428L189.808 123.878L229.181 121.054Z" fill="white"/>
</mask>
<g mask="url(#mask1_5_18765)">
<path d="M238.641 131.55L188.555 126.265L189.102 121.054H238.641V131.55Z" fill="#CDDEFF"/>
<path d="M238.641 133.206L188.38 127.906L188.554 126.265L238.641 131.55V133.206Z" fill="#CDDEFF"/>
<path d="M238.641 134.867L188.206 129.547L188.38 127.906L238.641 133.206V134.867Z" fill="#CFDFFF"/>
<path d="M238.641 136.527L188.032 131.187L188.206 129.547L238.641 134.867V136.527Z" fill="#D1E1FF"/>
<path d="M238.641 138.183L187.863 132.828L188.032 131.187L238.641 136.527V138.183Z" fill="#D4E2FF"/>
<path d="M238.641 139.843L187.689 134.469L187.863 132.828L238.641 138.183V139.843Z" fill="#D6E4FF"/>
<path d="M238.641 141.504L187.515 136.11L187.689 134.469L238.641 139.844V141.504Z" fill="#D8E5FF"/>
<path d="M238.642 143.16L187.341 137.75L187.515 136.11L238.642 141.504V143.16Z" fill="#DAE6FF"/>
<path d="M238.641 144.82L187.167 139.391L187.341 137.75L238.641 143.16V144.82Z" fill="#DCE8FF"/>
<path d="M238.641 146.481L186.993 141.032L187.167 139.391L238.641 144.82V146.481Z" fill="#DDE9FF"/>
<path d="M238.641 148.137L186.824 142.673L186.993 141.032L238.641 146.481V148.137Z" fill="#DFEAFF"/>
<path d="M238.641 149.797L186.649 144.313L186.824 142.673L238.641 148.137V149.797Z" fill="#E1EBFF"/>
<path d="M238.641 151.458L186.475 145.954L186.649 144.313L238.641 149.797V151.458Z" fill="#E3ECFF"/>
<path d="M238.641 153.113L186.301 147.595L186.475 145.954L238.641 151.458V153.113Z" fill="#E4EDFF"/>
<path d="M238.641 154.774L186.127 149.235L186.301 147.595L238.641 153.114V154.774Z" fill="#E6EEFF"/>
<path d="M238.641 156.435L185.953 150.876L186.127 149.235L238.641 154.774V156.435Z" fill="#E7EFFF"/>
<path d="M238.641 158.095L185.784 152.517L185.953 150.876L238.641 156.435V158.095Z" fill="#E9F0FF"/>
<path d="M238.641 159.751L185.61 154.157L185.784 152.517L238.641 158.095V159.751Z" fill="#EAF1FF"/>
<path d="M238.641 161.412L185.436 155.798L185.61 154.158L238.641 159.751V161.412Z" fill="#ECF2FF"/>
<path d="M238.641 163.072L185.261 157.439L185.436 155.798L238.641 161.412V163.072Z" fill="#EDF3FF"/>
<path d="M238.642 164.728L185.088 159.08L185.262 157.439L238.642 163.072V164.728Z" fill="#EEF4FF"/>
<path d="M238.641 166.389L184.918 160.721L185.087 159.08L238.641 164.728V166.389Z" fill="#EFF5FF"/>
<path d="M238.642 168.049L184.745 162.361L184.919 160.721L238.642 166.389V168.049Z" fill="#F1F5FF"/>
<path d="M238.641 169.705L184.57 164.002L184.745 162.361L238.641 168.049V169.705Z" fill="#F2F6FF"/>
<path d="M238.641 171.365L184.396 165.643L184.57 164.002L238.641 169.705V171.365Z" fill="#F3F7FF"/>
<path d="M238.641 173.026L184.222 167.283L184.396 165.643L238.641 171.365V173.026Z" fill="#F4F8FF"/>
<path d="M238.641 174.682L184.048 168.924L184.222 167.284L238.641 173.026V174.682Z" fill="#F5F8FF"/>
<path d="M238.641 176.342L183.879 170.565L184.048 168.924L238.641 174.682V176.342Z" fill="#F6F9FF"/>
<path d="M238.641 178.003L183.705 172.206L183.879 170.565L238.641 176.342V178.003Z" fill="#F7F9FF"/>
<path d="M238.642 179.659L183.531 173.847L183.705 172.206L238.642 178.003V179.659Z" fill="#F7FAFF"/>
<path d="M238.641 181.32L183.511 175.507V174.011L183.531 173.847L238.641 179.659V181.32Z" fill="#F8FBFF"/>
<path d="M238.641 182.98L183.511 177.163V175.507L238.641 181.32V182.98Z" fill="#F9FBFF"/>
<path d="M238.641 184.641L183.511 178.823V177.163L238.641 182.98V184.641Z" fill="#FAFBFF"/>
<path d="M238.641 186.296L183.511 180.484V178.823L238.641 184.641V186.296Z" fill="#FAFCFF"/>
<path d="M238.641 187.957L183.511 182.14V180.484L238.641 186.296V187.957Z" fill="#FBFCFF"/>
<path d="M238.641 189.617L183.511 183.8V182.14L238.641 187.957V189.617Z" fill="#FBFDFF"/>
<path d="M238.641 191.273L183.511 185.461V183.8L238.641 189.617V191.273Z" fill="#FCFDFF"/>
<path d="M238.641 192.934L183.511 187.122V185.461L238.641 191.273V192.934Z" fill="#FCFDFF"/>
<path d="M238.641 194.595L183.511 188.777V187.122L238.641 192.934V194.595Z" fill="#FDFEFF"/>
<path d="M238.641 196.25L183.511 190.438V188.777L238.641 194.595V196.25Z" fill="#FDFEFF"/>
<path d="M238.641 197.911L183.511 192.099V190.438L238.641 196.25V197.911Z" fill="#FEFEFF"/>
<path d="M238.641 199.571L183.511 193.754V192.099L238.641 197.911V199.571Z" fill="#FEFEFF"/>
<path d="M238.641 201.227L183.511 195.415V193.754L238.641 199.571V201.227Z" fill="#FEFEFF"/>
<path d="M238.641 202.888L183.511 197.075V195.415L238.641 201.227V202.888Z" fill="#FEFFFF"/>
<path d="M238.641 204.548L183.511 198.731V197.075L238.641 202.888V204.548Z" fill="white"/>
<path d="M238.641 206.209L183.511 200.392V198.731L238.641 204.548V206.209Z" fill="white"/>
<path d="M238.641 207.864L183.511 202.052V200.392L238.641 206.209V207.864Z" fill="white"/>
<path d="M238.641 209.525L183.511 203.708V202.052L238.641 207.865V209.525Z" fill="white"/>
<path d="M238.641 211.186L183.511 205.369V203.708L238.641 209.525V211.186Z" fill="white"/>
<path d="M238.641 212.841L183.511 207.029V205.369L238.641 211.186V212.841Z" fill="white"/>
<path d="M238.641 214.502L183.511 208.685V207.029L238.641 212.841V214.502Z" fill="white"/>
<path d="M183.511 208.685L238.641 214.502V226.638H183.511V208.685Z" fill="white"/>
</g>
</g>
<mask id="mask2_5_18765" style="mask-type:luminance" maskUnits="userSpaceOnUse" x="219" y="118" width="15" height="14">
<path d="M227.57 118.629C231.225 119.305 233.643 122.815 232.961 126.469C232.285 130.124 228.773 132.54 225.117 131.859C221.462 131.183 219.044 127.673 219.726 124.018C220.402 120.364 223.914 117.947 227.57 118.629Z" fill="white"/>
</mask>
<g mask="url(#mask2_5_18765)">
<path d="M233.643 120.856L232.31 117.952H233.643V120.856Z" fill="#7EA7DF"/>
<path d="M233.643 121.129L232.18 117.952H232.31L233.643 120.856V121.129Z" fill="#7EA7DF"/>
<path d="M233.643 121.408L232.056 117.952H232.18L233.643 121.129V121.408Z" fill="#80A8DF"/>
<path d="M233.643 121.686L231.927 117.952H232.056L233.643 121.408V121.686Z" fill="#82A9E0"/>
<path d="M233.643 121.96L231.802 117.952H231.927L233.643 121.686V121.96Z" fill="#83ABE0"/>
<path d="M233.643 122.238L231.673 117.952H231.802L233.643 121.96V122.238Z" fill="#85ACE1"/>
<path d="M233.643 122.516L231.549 117.952H231.673L233.643 122.238V122.516Z" fill="#87ADE1"/>
<path d="M233.643 122.79L231.419 117.952H231.549L233.643 122.516V122.79Z" fill="#88AEE2"/>
<path d="M233.643 123.068L231.295 117.952H231.419L233.643 122.79V123.068Z" fill="#8AAFE2"/>
<path d="M233.643 123.347L231.166 117.952H231.295L233.643 123.068V123.347Z" fill="#8CB1E3"/>
<path d="M233.643 123.62L231.041 117.952H231.166L233.643 123.347V123.62Z" fill="#8EB2E3"/>
<path d="M233.643 123.899L230.912 117.952H231.041L233.643 123.62V123.899Z" fill="#8FB3E4"/>
<path d="M233.643 124.172L230.788 117.952H230.912L233.643 123.899V124.172Z" fill="#91B4E4"/>
<path d="M233.643 124.45L230.658 117.952H230.788L233.643 124.172V124.45Z" fill="#93B5E4"/>
<path d="M233.643 124.729L230.534 117.952H230.658L233.643 124.45V124.729Z" fill="#94B6E5"/>
<path d="M233.643 125.002L230.405 117.952H230.534L233.643 124.729V125.002Z" fill="#96B7E5"/>
<path d="M233.643 125.281L230.28 117.952H230.405L233.643 125.002V125.281Z" fill="#97B9E6"/>
<path d="M233.643 125.559L230.151 117.952H230.28L233.643 125.281V125.559Z" fill="#99BAE6"/>
<path d="M233.643 125.833L230.027 117.952H230.151L233.643 125.559V125.833Z" fill="#9BBBE7"/>
<path d="M233.642 126.111L229.897 117.952H230.026L233.642 125.833V126.111Z" fill="#9CBCE7"/>
<path d="M233.643 126.39L229.773 117.952H229.897L233.643 126.111V126.39Z" fill="#9EBDE7"/>
<path d="M233.642 126.663L229.643 117.952H229.773L233.642 126.39V126.663Z" fill="#9FBEE8"/>
<path d="M233.643 126.941L229.519 117.952H229.644L233.643 126.663V126.941Z" fill="#A1BFE8"/>
<path d="M233.642 127.22L229.39 117.952H229.519L233.642 126.941V127.22Z" fill="#A2C0E9"/>
<path d="M233.643 127.493L229.26 117.952H229.39L233.643 127.22V127.493Z" fill="#A4C1E9"/>
<path d="M233.642 127.772L229.136 117.952H229.26L233.642 127.493V127.772Z" fill="#A5C2E9"/>
<path d="M233.643 128.05L229.007 117.952H229.136L233.643 127.772V128.05Z" fill="#A7C3EA"/>
<path d="M233.642 128.324L228.882 117.952H229.007L233.642 128.05V128.324Z" fill="#A8C4EA"/>
<path d="M233.643 128.602L228.753 117.952H228.883L233.643 128.324V128.602Z" fill="#AAC5EB"/>
<path d="M233.642 128.875L228.629 117.952H228.753L233.642 128.602V128.875Z" fill="#ABC6EB"/>
<path d="M233.643 129.154L228.5 117.952H228.629L233.643 128.875V129.154Z" fill="#ADC7EB"/>
<path d="M233.643 129.432L228.375 117.952H228.5L233.643 129.154V129.432Z" fill="#AEC8EC"/>
<path d="M233.643 129.706L228.246 117.952H228.375L233.643 129.432V129.706Z" fill="#AFC9EC"/>
<path d="M233.643 129.984L228.122 117.952H228.246L233.643 129.706V129.984Z" fill="#B1CAEC"/>
<path d="M233.643 130.263L227.992 117.952H228.122L233.643 129.984V130.263Z" fill="#B2CBED"/>
<path d="M233.643 130.536L227.868 117.952H227.992L233.643 130.263V130.536Z" fill="#B4CCED"/>
<path d="M233.643 130.815L227.739 117.952H227.868L233.643 130.536V130.815Z" fill="#B5CDEE"/>
<path d="M233.643 131.093L227.614 117.952H227.739L233.643 130.815V131.093Z" fill="#B6CEEE"/>
<path d="M233.643 131.366L227.485 117.952H227.614L233.643 131.093V131.366Z" fill="#B8CFEE"/>
<path d="M233.643 131.401L233.548 131.446L227.361 117.952H227.485L233.643 131.366V131.401Z" fill="#B9D0EF"/>
<path d="M233.548 131.446L233.444 131.491L227.231 117.952H227.361L233.548 131.446Z" fill="#BAD1EF"/>
<path d="M233.444 131.491L233.339 131.54L227.107 117.952H227.231L233.444 131.491Z" fill="#BCD2EF"/>
<path d="M233.339 131.54L233.235 131.59L226.978 117.952H227.107L233.339 131.54Z" fill="#BDD3F0"/>
<path d="M233.235 131.59L233.13 131.635L226.853 117.952H226.978L233.235 131.59Z" fill="#BED3F0"/>
<path d="M233.13 131.635L233.026 131.685L226.724 117.952H226.853L233.13 131.635Z" fill="#BFD4F0"/>
<path d="M233.026 131.685L232.922 131.734L226.6 117.952H226.724L233.026 131.685Z" fill="#C1D5F1"/>
<path d="M232.922 131.734L232.817 131.779L226.47 117.952H226.6L232.922 131.734Z" fill="#C2D6F1"/>
<path d="M232.817 131.779L232.712 131.829L226.341 117.952H226.47L232.817 131.779Z" fill="#C3D7F1"/>
<path d="M232.713 131.829L232.608 131.879L226.217 117.952H226.341L232.713 131.829Z" fill="#C4D8F2"/>
<path d="M232.608 131.879L232.498 131.923L226.087 117.952H226.216L232.608 131.879Z" fill="#C6D9F2"/>
<path d="M232.498 131.923L232.394 131.973L225.963 117.952H226.087L232.498 131.923Z" fill="#C7D9F2"/>
<path d="M232.394 131.973L232.29 132.023L225.833 117.952H225.963L232.394 131.973Z" fill="#C8DAF3"/>
<path d="M232.29 132.023L232.185 132.067L225.709 117.952H225.833L232.29 132.023Z" fill="#C9DBF3"/>
<path d="M232.185 132.067L232.081 132.117L225.58 117.952H225.709L232.185 132.067Z" fill="#CADCF3"/>
<path d="M232.081 132.117L231.976 132.167L225.455 117.952H225.58L232.081 132.117Z" fill="#CBDCF3"/>
<path d="M231.976 132.167L231.872 132.212L225.326 117.952H225.455L231.976 132.167Z" fill="#CCDDF4"/>
<path d="M231.872 132.212L231.767 132.261L225.202 117.952H225.326L231.872 132.212Z" fill="#CDDEF4"/>
<path d="M231.767 132.261L231.663 132.311L225.073 117.952H225.202L231.767 132.261Z" fill="#CFDFF4"/>
<path d="M231.663 132.311L231.558 132.356L224.948 117.952H225.072L231.663 132.311Z" fill="#D0E0F5"/>
<path d="M231.558 132.356L231.454 132.406L224.819 117.952H224.948L231.558 132.356Z" fill="#D1E0F5"/>
<path d="M231.454 132.406L231.345 132.455L224.694 117.952H224.819L231.454 132.406Z" fill="#D2E1F5"/>
<path d="M231.345 132.455L231.24 132.5L224.565 117.952H224.695L231.345 132.455Z" fill="#D3E2F5"/>
<path d="M231.24 132.5L231.16 132.54H231.131L224.441 117.952H224.565L231.24 132.5Z" fill="#D4E2F6"/>
<path d="M231.006 132.54L224.312 117.952H224.441L231.131 132.54H231.006Z" fill="#D5E3F6"/>
<path d="M230.877 132.54L224.187 117.952H224.311L231.006 132.54H230.877Z" fill="#D6E4F6"/>
<path d="M230.753 132.54L224.058 117.952H224.187L230.877 132.54H230.753Z" fill="#D7E4F7"/>
<path d="M230.623 132.54L223.934 117.952H224.058L230.753 132.54H230.623Z" fill="#D8E5F7"/>
<path d="M230.499 132.54L223.804 117.952H223.934L230.623 132.54H230.499Z" fill="#D9E6F7"/>
<path d="M230.37 132.54L223.68 117.952H223.804L230.499 132.54H230.37Z" fill="#DAE6F7"/>
<path d="M230.245 132.54L223.551 117.952H223.68L230.37 132.54H230.245Z" fill="#DAE7F7"/>
<path d="M230.116 132.54L223.422 117.952H223.551L230.246 132.54H230.116Z" fill="#DBE8F8"/>
<path d="M229.992 132.54L223.297 117.952H223.421L230.116 132.54H229.992Z" fill="#DCE8F8"/>
<path d="M229.863 132.54L223.168 117.952H223.297L229.992 132.54H229.863Z" fill="#DDE9F8"/>
<path d="M229.738 132.54L223.043 117.952H223.168L229.862 132.54H229.738Z" fill="#DEE9F8"/>
<path d="M229.609 132.54L222.914 117.952H223.043L229.738 132.54H229.609Z" fill="#DFEAF9"/>
<path d="M229.485 132.54L222.79 117.952H222.914L229.609 132.54H229.485Z" fill="#E0EBF9"/>
<path d="M229.355 132.54L222.66 117.952H222.789L229.484 132.54H229.355Z" fill="#E0EBF9"/>
<path d="M229.226 132.54L222.536 117.952H222.66L229.355 132.54H229.226Z" fill="#E1ECF9"/>
<path d="M229.101 132.54L222.406 117.952H222.536L229.226 132.54H229.101Z" fill="#E2ECF9"/>
<path d="M228.972 132.54L222.282 117.952H222.407L229.102 132.54H228.972Z" fill="#E3EDFA"/>
<path d="M228.848 132.54L222.153 117.952H222.282L228.972 132.54H228.848Z" fill="#E3EDFA"/>
<path d="M228.718 132.54L222.028 117.952H222.153L228.848 132.54H228.718Z" fill="#E4EEFA"/>
<path d="M228.594 132.54L221.899 117.952H222.028L228.718 132.54H228.594Z" fill="#E5EEFA"/>
<path d="M228.465 132.54L221.775 117.952H221.899L228.594 132.54H228.465Z" fill="#E6EFFA"/>
<path d="M228.34 132.54L221.646 117.952H221.775L228.465 132.54H228.34Z" fill="#E6EFFB"/>
<path d="M228.211 132.54L221.521 117.957L221.526 117.952H221.645L228.34 132.54H228.211Z" fill="#E7F0FB"/>
<path d="M228.087 132.54L221.417 118.002L221.521 117.957L228.211 132.54H228.087Z" fill="#E8F0FB"/>
<path d="M227.957 132.54L221.312 118.052L221.417 118.002L228.087 132.54H227.957Z" fill="#E8F1FB"/>
<path d="M227.833 132.54L221.208 118.101L221.312 118.052L227.958 132.54H227.833Z" fill="#E9F1FB"/>
<path d="M227.704 132.54L221.103 118.146L221.208 118.102L227.833 132.54H227.704Z" fill="#EAF1FB"/>
<path d="M227.579 132.54L220.999 118.196L221.103 118.146L227.704 132.54H227.579Z" fill="#EAF2FC"/>
<path d="M227.45 132.54L220.89 118.246L220.999 118.196L227.58 132.54H227.45Z" fill="#EBF2FC"/>
<path d="M227.326 132.54L220.785 118.29L220.89 118.246L227.45 132.54H227.326Z" fill="#EBF3FC"/>
<path d="M227.196 132.54L220.681 118.34L220.785 118.29L227.326 132.54H227.196Z" fill="#ECF3FC"/>
<path d="M227.072 132.54L220.576 118.39L220.681 118.34L227.196 132.54H227.072Z" fill="#ECF3FC"/>
<path d="M226.943 132.54L220.472 118.434L220.576 118.39L227.072 132.54H226.943Z" fill="#EDF4FC"/>
<path d="M226.818 132.54L220.367 118.484L220.472 118.435L226.943 132.54H226.818Z" fill="#EDF4FC"/>
<path d="M226.689 132.54L220.263 118.534L220.367 118.484L226.818 132.54H226.689Z" fill="#EEF4FD"/>
<path d="M226.565 132.54L220.159 118.578L220.263 118.534L226.689 132.54H226.565Z" fill="#EEF5FD"/>
<path d="M226.435 132.54L220.054 118.628L220.158 118.579L226.564 132.54H226.435Z" fill="#EFF5FD"/>
<path d="M226.306 132.54L219.949 118.678L220.054 118.628L226.435 132.54H226.306Z" fill="#EFF5FD"/>
<path d="M226.182 132.54L219.845 118.723L219.95 118.678L226.306 132.54H226.182Z" fill="#EFF6FD"/>
<path d="M226.052 132.54L219.735 118.773L219.845 118.723L226.182 132.54H226.052Z" fill="#F0F6FD"/>
<path d="M225.928 132.54L219.631 118.822L219.736 118.772L226.052 132.54H225.928Z" fill="#F0F6FD"/>
<path d="M225.799 132.54L219.527 118.867L219.631 118.822L225.928 132.54H225.799Z" fill="#F1F6FD"/>
<path d="M225.674 132.54L219.422 118.917L219.526 118.867L225.799 132.54H225.674Z" fill="#F1F7FD"/>
<path d="M225.545 132.54L219.318 118.966L219.422 118.917L225.674 132.54H225.545Z" fill="#F1F7FE"/>
<path d="M225.421 132.54L219.213 119.011L219.318 118.966L225.545 132.54H225.421Z" fill="#F1F7FE"/>
<path d="M225.292 132.54L219.109 119.061L219.214 119.011L225.421 132.54H225.292Z" fill="#F2F7FE"/>
<path d="M225.167 132.54L219.049 119.205V119.091L219.109 119.061L225.291 132.54H225.167Z" fill="#F2F7FE"/>
<path d="M225.038 132.54L219.049 119.479V119.205L225.167 132.54H225.038Z" fill="#F2F7FE"/>
<path d="M224.913 132.54L219.049 119.757V119.479L225.038 132.54H224.913Z" fill="#F2F8FE"/>
<path d="M224.784 132.54L219.049 120.036V119.757L224.913 132.54H224.784Z" fill="#F3F8FE"/>
<path d="M224.66 132.54L219.049 120.309V120.036L224.784 132.54H224.66Z" fill="#F3F8FE"/>
<path d="M224.53 132.54L219.049 120.587V120.309L224.66 132.54H224.53Z" fill="#F3F8FE"/>
<path d="M224.406 132.54L219.049 120.866V120.587L224.53 132.54H224.406Z" fill="#F3F8FE"/>
<path d="M224.277 132.54L219.049 121.139V120.866L224.406 132.54H224.277Z" fill="#F3F8FE"/>
<path d="M224.152 132.54L219.049 121.418V121.139L224.277 132.54H224.152Z" fill="#F3F8FE"/>
<path d="M219.049 121.418L224.152 132.54H219.049V121.418Z" fill="#F3F8FE"/>
</g>
<mask id="mask3_5_18765" style="mask-type:luminance" maskUnits="userSpaceOnUse" x="189" y="103" width="42" height="54">
<path d="M230.211 123.576C230.066 134.698 220.765 156.321 209.639 156.182C198.512 156.037 189.768 134.186 189.912 123.059C190.057 111.936 199.194 103.032 210.32 103.176C221.447 103.32 230.355 112.453 230.211 123.576Z" fill="white"/>
</mask>
<g mask="url(#mask3_5_18765)">
<path d="M199.233 103.032L198.547 156.326H189.768V103.032H199.233Z" fill="#B7D1F4"/>
<path d="M199.756 103.032L199.07 156.326H198.547L199.234 103.032H199.756Z" fill="#B7D1F4"/>
<path d="M200.278 103.032L199.587 156.326H199.069L199.756 103.032H200.278Z" fill="#B8D2F4"/>
<path d="M200.795 103.032L200.109 156.326H199.587L200.278 103.032H200.795Z" fill="#B9D3F4"/>
<path d="M201.317 103.032L200.631 156.326H200.109L200.795 103.032H201.317Z" fill="#BBD3F5"/>
<path d="M201.84 103.032L201.149 156.326H200.631L201.318 103.032H201.84Z" fill="#BCD4F5"/>
<path d="M202.357 103.032L201.671 156.326H201.148L201.84 103.032H202.357Z" fill="#BDD5F5"/>
<path d="M202.88 103.032L202.193 156.326H201.671L202.357 103.032H202.88Z" fill="#BED6F5"/>
<path d="M203.402 103.032L202.71 156.326H202.193L202.879 103.032H203.402Z" fill="#BFD6F5"/>
<path d="M203.919 103.032L203.233 156.326H202.71L203.402 103.032H203.919Z" fill="#C1D7F6"/>
<path d="M204.441 103.032L203.755 156.326H203.232L203.919 103.032H204.441Z" fill="#C2D8F6"/>
<path d="M204.963 103.032L204.272 156.326H203.755L204.441 103.032H204.963Z" fill="#C3D9F6"/>
<path d="M205.481 103.032L204.794 156.326H204.272L204.963 103.032H205.481Z" fill="#C4DAF6"/>
<path d="M206.003 103.032L205.317 156.326H204.794L205.481 103.032H206.003Z" fill="#C5DAF6"/>
<path d="M206.525 103.032L205.839 156.326H205.317L206.003 103.032H206.525Z" fill="#C6DBF7"/>
<path d="M207.047 103.032L206.356 156.326H205.839L206.525 103.032H207.047Z" fill="#C8DCF7"/>
<path d="M207.565 103.032L206.878 156.326H206.356L207.047 103.032H207.565Z" fill="#C9DDF7"/>
<path d="M208.087 103.032L207.401 156.326H206.878L207.565 103.032H208.087Z" fill="#CADDF7"/>
<path d="M208.609 103.032L207.918 156.326H207.401L208.087 103.032H208.609Z" fill="#CBDEF7"/>
<path d="M209.126 103.032L208.44 156.326H207.918L208.609 103.032H209.126Z" fill="#CCDFF8"/>
<path d="M209.649 103.032L208.963 156.326H208.44L209.127 103.032H209.649Z" fill="#CDE0F8"/>
<path d="M210.171 103.032L209.48 156.326H208.962L209.649 103.032H210.171Z" fill="#CEE0F8"/>
<path d="M210.688 103.032L210.002 156.326H209.48L210.171 103.032H210.688Z" fill="#D0E1F8"/>
<path d="M211.21 103.032L210.524 156.326H210.002L210.688 103.032H211.21Z" fill="#D1E2F8"/>
<path d="M211.733 103.032L211.041 156.326H210.524L211.21 103.032H211.733Z" fill="#D2E2F8"/>
<path d="M212.25 103.032L211.564 156.326H211.041L211.733 103.032H212.25Z" fill="#D3E3F9"/>
<path d="M212.773 103.032L212.086 156.326H211.564L212.25 103.032H212.773Z" fill="#D4E4F9"/>
<path d="M213.295 103.032L212.603 156.326H212.086L212.772 103.032H213.295Z" fill="#D5E5F9"/>
<path d="M213.812 103.032L213.126 156.326H212.603L213.295 103.032H213.812Z" fill="#D6E5F9"/>
<path d="M214.334 103.032L213.648 156.326H213.125L213.812 103.032H214.334Z" fill="#D7E6F9"/>
<path d="M214.856 103.032L214.165 156.326H213.648L214.334 103.032H214.856Z" fill="#D8E7FA"/>
<path d="M215.374 103.032L214.687 156.326H214.165L214.856 103.032H215.374Z" fill="#D9E7FA"/>
<path d="M215.896 103.032L215.209 156.326H214.687L215.374 103.032H215.896Z" fill="#DAE8FA"/>
<path d="M216.418 103.032L215.732 156.326H215.21L215.896 103.032H216.418Z" fill="#DCE9FA"/>
<path d="M216.935 103.032L216.249 156.326H215.732L216.418 103.032H216.935Z" fill="#DDE9FA"/>
<path d="M217.458 103.032L216.771 156.326H216.249L216.936 103.032H217.458Z" fill="#DEEAFA"/>
<path d="M217.98 103.032L217.294 156.326H216.771L217.458 103.032H217.98Z" fill="#DFEBFB"/>
<path d="M218.502 103.032L217.811 156.326H217.293L217.98 103.032H218.502Z" fill="#E0EBFB"/>
<path d="M219.019 103.032L218.333 156.326H217.811L218.502 103.032H219.019Z" fill="#E1ECFB"/>
<path d="M219.542 103.032L218.856 156.326H218.333L219.02 103.032H219.542Z" fill="#E2EDFB"/>
<path d="M220.064 103.032L219.373 156.326H218.855L219.542 103.032H220.064Z" fill="#E3EDFB"/>
<path d="M220.581 103.032L219.895 156.326H219.373L220.064 103.032H220.581Z" fill="#E4EEFB"/>
<path d="M221.104 103.032L220.417 156.326H219.895L220.581 103.032H221.104Z" fill="#E5EFFC"/>
<path d="M221.626 103.032L220.934 156.326H220.417L221.104 103.032H221.626Z" fill="#E6EFFC"/>
<path d="M222.143 103.032L221.457 156.326H220.934L221.626 103.032H222.143Z" fill="#E6F0FC"/>
<path d="M222.666 103.032L221.979 156.326H221.457L222.143 103.032H222.666Z" fill="#E7F0FC"/>
<path d="M223.188 103.032L222.496 156.326H221.979L222.666 103.032H223.188Z" fill="#E8F1FC"/>
<path d="M223.705 103.032L223.019 156.326H222.496L223.188 103.032H223.705Z" fill="#E9F2FC"/>
<path d="M224.227 103.032L223.541 156.326H223.019L223.705 103.032H224.227Z" fill="#EAF2FD"/>
<path d="M224.749 103.032L224.058 156.326H223.541L224.227 103.032H224.749Z" fill="#EBF3FD"/>
<path d="M225.267 103.032L224.58 156.326H224.058L224.749 103.032H225.267Z" fill="#ECF3FD"/>
<path d="M225.789 103.032L225.102 156.326H224.58L225.267 103.032H225.789Z" fill="#EDF4FD"/>
<path d="M226.311 103.032L225.625 156.326H225.103L225.789 103.032H226.311Z" fill="#EEF4FD"/>
<path d="M226.829 103.032L226.142 156.326H225.625L226.311 103.032H226.829Z" fill="#EEF5FD"/>
<path d="M227.351 103.032L226.664 156.326H226.142L226.829 103.032H227.351Z" fill="#EFF5FD"/>
<path d="M227.873 103.032L227.187 156.326H226.664L227.351 103.032H227.873Z" fill="#F0F6FD"/>
<path d="M228.395 103.032L227.704 156.326H227.187L227.873 103.032H228.395Z" fill="#F1F6FE"/>
<path d="M228.913 103.032L228.226 156.326H227.704L228.395 103.032H228.913Z" fill="#F1F7FE"/>
<path d="M229.435 103.032L228.749 156.326H228.226L228.913 103.032H229.435Z" fill="#F2F7FE"/>
<path d="M229.957 103.032L229.266 156.326H228.749L229.435 103.032H229.957Z" fill="#F3F8FE"/>
<path d="M230.355 112.488L229.788 156.326H229.266L229.957 103.032H230.355V112.488Z" fill="#F3F8FE"/>
<path d="M229.788 156.326L230.355 112.488V156.326H229.788Z" fill="#F3F8FE"/>
</g>
<mask id="mask4_5_18765" style="mask-type:luminance" maskUnits="userSpaceOnUse" x="194" y="88" width="33" height="33">
<path d="M226.058 104.891C225.943 113.592 218.801 120.552 210.096 120.438C201.392 120.328 194.429 113.184 194.543 104.483C194.652 95.7821 201.8 88.8214 210.504 88.9357C219.209 89.0451 226.172 96.1897 226.058 104.891Z" fill="white"/>
</mask>
<g mask="url(#mask4_5_18765)">
<path d="M194.434 118.032L208.45 120.552H194.434V118.032Z" fill="#B7D1F4"/>
<path d="M194.434 117.39L212.006 120.553H208.45L194.434 118.032V117.39Z" fill="#B7D1F4"/>
<path d="M194.434 116.754L215.568 120.552H212.006L194.434 117.39V116.754Z" fill="#B9D2F4"/>
<path d="M194.434 116.113L219.124 120.552H215.568L194.434 116.754V116.113Z" fill="#BBD3F5"/>
<path d="M194.434 115.471L222.685 120.552H219.124L194.434 116.113V115.471Z" fill="#BCD4F5"/>
<path d="M194.434 114.83L225.719 120.458L225.704 120.553H222.685L194.434 115.471V114.83Z" fill="#BED6F5"/>
<path d="M194.434 114.193L225.829 119.841L225.719 120.458L194.434 114.83V114.193Z" fill="#C0D7F5"/>
<path d="M194.434 113.552L225.943 119.22L225.829 119.841L194.434 114.193V113.552Z" fill="#C1D8F6"/>
<path d="M194.434 112.911L226.053 118.599L225.943 119.22L194.434 113.552V112.911Z" fill="#C3D9F6"/>
<path d="M194.434 112.274L226.167 117.982L226.053 118.598L194.434 112.911V112.274Z" fill="#C4DAF6"/>
<path d="M194.434 111.633L226.167 117.341V117.962V117.982L194.434 112.274V111.633Z" fill="#C6DBF6"/>
<path d="M194.434 110.992L226.167 116.699V117.341L194.434 111.633V110.992Z" fill="#C8DCF6"/>
<path d="M194.434 110.35L226.167 116.058V116.699L194.434 110.992V110.35Z" fill="#C9DDF7"/>
<path d="M194.434 109.714L226.167 115.422V116.058L194.434 110.35V109.714Z" fill="#CBDEF7"/>
<path d="M194.434 109.073L226.167 114.78V115.422L194.434 109.714V109.073Z" fill="#CCDFF7"/>
<path d="M194.434 108.431L226.167 114.138V114.78L194.434 109.072V108.431Z" fill="#CDDFF7"/>
<path d="M194.434 107.795L226.167 113.502V114.139L194.434 108.431V107.795Z" fill="#CFE0F7"/>
<path d="M194.434 107.153L226.167 112.861V113.502L194.434 107.795V107.153Z" fill="#D0E1F8"/>
<path d="M194.434 106.511L226.167 112.219V112.861L194.434 107.153V106.511Z" fill="#D1E2F8"/>
<path d="M194.434 105.875L226.167 111.583V112.22L194.434 106.512V105.875Z" fill="#D3E3F8"/>
<path d="M194.434 105.234L226.167 110.942V111.583L194.434 105.876V105.234Z" fill="#D4E4F8"/>
<path d="M194.434 104.592L226.167 110.3V110.941L194.434 105.234V104.592Z" fill="#D5E4F8"/>
<path d="M194.434 103.951L226.167 109.659V110.3L194.434 104.593V103.951Z" fill="#D6E5F9"/>
<path d="M194.434 103.315L226.167 109.023V109.659L194.434 103.951V103.315Z" fill="#D7E6F9"/>
<path d="M194.434 102.673L226.167 108.381V109.022L194.434 103.315V102.673Z" fill="#D8E7F9"/>
<path d="M194.434 102.032L226.167 107.74V108.381L194.434 102.673V102.032Z" fill="#D9E7F9"/>
<path d="M194.434 101.396L226.167 107.104V107.74L194.434 102.032V101.396Z" fill="#DAE8F9"/>
<path d="M194.434 100.754L226.167 106.462V107.103L194.434 101.396V100.754Z" fill="#DBE9F9"/>
<path d="M194.434 100.113L226.167 105.821V106.462L194.434 100.754V100.113Z" fill="#DCE9F9"/>
<path d="M194.434 99.4714L226.167 105.179V105.821L194.434 100.113V99.4714Z" fill="#DDEAFA"/>
<path d="M194.434 98.835L226.167 104.543V105.179L194.434 99.4714V98.835Z" fill="#DEEAFA"/>
<path d="M194.434 98.1936L226.167 103.901V104.543L194.434 98.835V98.1936Z" fill="#DFEBFA"/>
<path d="M194.434 97.5522L226.167 103.26V103.901L194.434 98.1936V97.5522Z" fill="#E0EBFA"/>
<path d="M194.434 96.9158L226.167 102.624V103.26L194.434 97.5522V96.9158Z" fill="#E1ECFA"/>
<path d="M194.434 96.2744L226.167 101.982V102.624L194.434 96.9158V96.2744Z" fill="#E1ECFA"/>
<path d="M194.434 95.6331L226.167 101.341V101.982L194.434 96.2745V95.6331Z" fill="#E2EDFA"/>
<path d="M194.434 94.9966L226.167 100.704V101.341L194.434 95.633V94.9966Z" fill="#E3EDFA"/>
<path d="M194.434 94.3552L226.167 100.063V100.704L194.434 94.9966V94.3552Z" fill="#E3EEFA"/>
<path d="M194.434 93.7139L226.167 99.4216V100.063L194.434 94.3552V93.7139Z" fill="#E4EEFB"/>
<path d="M194.434 93.0728L226.167 98.7805V99.4219L194.434 93.7141V93.0728Z" fill="#E4EEFB"/>
<path d="M194.434 92.436L226.167 98.1438V98.7802L194.434 93.0725V92.436Z" fill="#E5EFFB"/>
<path d="M194.434 91.7947L226.167 97.5024V98.1438L194.434 92.436V91.7947Z" fill="#E5EFFB"/>
<path d="M194.434 91.4171L194.478 91.1636L226.167 96.8614V97.5028L194.434 91.795V91.4171Z" fill="#E6EFFB"/>
<path d="M194.478 91.1632L194.588 90.5417L226.167 96.2247V96.8611L194.478 91.1632Z" fill="#E6EFFB"/>
<path d="M194.588 90.5418L194.702 89.9253L226.167 95.5834V96.2247L194.588 90.5418Z" fill="#E6F0FB"/>
<path d="M194.702 89.9252L194.812 89.3037L226.167 94.9419V95.5833L194.702 89.9252Z" fill="#E7F0FB"/>
<path d="M194.812 89.304L194.896 88.8267H195.732L226.167 94.3008V94.9422L194.812 89.304Z" fill="#E7F0FB"/>
<path d="M199.288 88.8267L226.167 93.6644V94.3008L195.732 88.8267H199.288Z" fill="#E7F0FB"/>
<path d="M202.845 88.8267L226.167 93.023V93.6644L199.288 88.8267H202.845Z" fill="#E7F0FB"/>
<path d="M226.167 93.023L202.845 88.8267H226.167V93.023Z" fill="#E7F0FB"/>
</g>
<path d="M195.146 107C196.12 106.531 196.86 105.327 196.983 103.825C197.113 102.197 196.479 100.694 195.475 100C195.182 101.363 195.015 102.806 195.001 104.299C194.993 105.218 195.044 106.121 195.146 107Z" fill="#112050"/>
<path d="M172.004 124.233C172.024 124.003 172.103 123.773 172.242 123.569C172.664 122.964 173.498 122.819 174.098 123.244L177.979 126.003C181.914 128.802 187.185 129.097 191.403 126.753L195.026 124.743C195.671 124.388 196.48 124.623 196.832 125.268C197.19 125.918 196.956 126.733 196.311 127.088L192.689 129.097C187.582 131.931 181.21 131.576 176.445 128.187L172.565 125.428C172.168 125.143 171.969 124.678 172.004 124.223V124.233Z" fill="#112050"/>
<mask id="mask5_5_18765" style="mask-type:luminance" maskUnits="userSpaceOnUse" x="191" y="120" width="14" height="15">
<path d="M204.352 125.559C205.366 129.134 203.292 132.858 199.716 133.872C196.14 134.886 192.414 132.813 191.4 129.238C190.385 125.663 192.459 121.939 196.035 120.925C199.611 119.911 203.337 121.984 204.352 125.559Z" fill="white"/>
</mask>
<g mask="url(#mask5_5_18765)">
<path d="M202.7 134.886L205.371 131.595V134.886H202.7Z" fill="#7EA7DF"/>
<path d="M202.551 134.886L205.372 131.411V131.595L202.701 134.886H202.551Z" fill="#7EA7DF"/>
<path d="M202.402 134.886L205.371 131.227V131.411L202.551 134.886H202.402Z" fill="#80A8DF"/>
<path d="M202.253 134.887L205.371 131.043V131.227L202.402 134.887H202.253Z" fill="#82A9E0"/>
<path d="M202.109 134.886L205.372 130.859V131.043L202.253 134.886H202.109Z" fill="#83ABE0"/>
<path d="M201.959 134.887L205.372 130.675V130.859L202.109 134.887H201.959Z" fill="#85ACE1"/>
<path d="M201.81 134.886L205.371 130.491V130.675L201.959 134.886H201.81Z" fill="#87ADE1"/>
<path d="M201.661 134.886L205.371 130.312V130.491L201.81 134.886H201.661Z" fill="#88AEE2"/>
<path d="M201.511 134.886L205.371 130.128V130.312L201.661 134.886H201.511Z" fill="#8AAFE2"/>
<path d="M201.363 134.886L205.372 129.944V130.128L201.512 134.886H201.363Z" fill="#8CB1E3"/>
<path d="M201.213 134.886L205.372 129.76V129.944L201.363 134.886H201.213Z" fill="#8EB2E3"/>
<path d="M201.069 134.886L205.371 129.576V129.76L201.213 134.886H201.069Z" fill="#8FB3E4"/>
<path d="M200.92 134.887L205.372 129.393V129.577L201.069 134.887H200.92Z" fill="#91B4E4"/>
<path d="M200.771 134.886L205.371 129.208V129.392L200.92 134.886H200.771Z" fill="#93B5E4"/>
<path d="M200.621 134.886L205.371 129.029V129.208L200.771 134.886H200.621Z" fill="#94B6E5"/>
<path d="M200.472 134.886L205.371 128.845V129.029L200.621 134.886H200.472Z" fill="#96B7E5"/>
<path d="M200.323 134.886L205.371 128.661V128.845L200.472 134.886H200.323Z" fill="#97B9E6"/>
<path d="M200.179 134.886L205.371 128.478V128.661L200.323 134.886H200.179Z" fill="#99BAE6"/>
<path d="M200.029 134.886L205.371 128.294V128.478L200.179 134.886H200.029Z" fill="#9BBBE7"/>
<path d="M199.88 134.886L205.372 128.109V128.293L200.03 134.886H199.88Z" fill="#9CBCE7"/>
<path d="M199.731 134.886L205.372 127.926V128.11L199.88 134.886H199.731Z" fill="#9EBDE7"/>
<path d="M199.582 134.886L205.372 127.747V127.926L199.731 134.886H199.582Z" fill="#9FBEE8"/>
<path d="M199.433 134.887L205.371 127.563V127.747L199.582 134.887H199.433Z" fill="#A1BFE8"/>
<path d="M199.283 134.886L205.371 127.379V127.563L199.432 134.886H199.283Z" fill="#A2C0E9"/>
<path d="M199.139 134.886L205.371 127.195V127.379L199.283 134.886H199.139Z" fill="#A4C1E9"/>
<path d="M198.99 134.886L205.371 127.01V127.194L199.139 134.886H198.99Z" fill="#A5C2E9"/>
<path d="M198.841 134.886L205.371 126.827V127.011L198.99 134.886H198.841Z" fill="#A7C3EA"/>
<path d="M198.692 134.887L205.372 126.643V126.827L198.841 134.887H198.692Z" fill="#A8C4EA"/>
<path d="M198.542 134.887L205.371 126.464V126.643L198.692 134.887H198.542Z" fill="#AAC5EB"/>
<path d="M198.393 134.886L205.371 126.28V126.464L198.542 134.886H198.393Z" fill="#ABC6EB"/>
<path d="M198.244 134.886L205.371 126.096V126.28L198.393 134.886H198.244Z" fill="#ADC7EB"/>
<path d="M198.1 134.886L205.372 125.912V126.096L198.244 134.886H198.1Z" fill="#AEC8EC"/>
<path d="M197.95 134.886L205.371 125.728V125.912L198.1 134.886H197.95Z" fill="#AFC9EC"/>
<path d="M197.801 134.886L205.371 125.544V125.728L197.95 134.886H197.801Z" fill="#B1CAEC"/>
<path d="M197.652 134.886L205.371 125.36V125.544L197.801 134.886H197.652Z" fill="#B2CBED"/>
<path d="M197.503 134.886L205.372 125.181V125.36L197.652 134.886H197.503Z" fill="#B4CCED"/>
<path d="M197.354 134.886L205.372 124.997V125.181L197.503 134.886H197.354Z" fill="#B5CDEE"/>
<path d="M197.204 134.887L205.371 124.813V124.997L197.354 134.887H197.204Z" fill="#B6CEEE"/>
<path d="M197.06 134.886L205.372 124.629V124.813L197.205 134.886H197.06Z" fill="#B8CFEE"/>
<path d="M196.911 134.886L205.371 124.445V124.629L197.06 134.886H196.911Z" fill="#B9D0EF"/>
<path d="M196.762 134.886L205.371 124.261V124.445L196.911 134.886H196.762Z" fill="#BAD1EF"/>
<path d="M196.612 134.886L205.371 124.077V124.261L196.762 134.886H196.612Z" fill="#BCD2EF"/>
<path d="M196.463 134.886L205.371 123.898V124.077L196.612 134.886H196.463Z" fill="#BDD3F0"/>
<path d="M196.314 134.887L205.371 123.715V123.899L196.463 134.887H196.314Z" fill="#BED3F0"/>
<path d="M196.165 134.886L205.371 123.53V123.714L196.314 134.886H196.165Z" fill="#BFD4F0"/>
<path d="M196.02 134.886L205.371 123.346V123.53L196.165 134.886H196.02Z" fill="#C1D5F1"/>
<path d="M195.871 134.886L205.372 123.163V123.347L196.021 134.886H195.871Z" fill="#C2D6F1"/>
<path d="M195.722 134.886L205.371 122.979V123.162L195.871 134.886H195.722Z" fill="#C3D7F1"/>
<path d="M195.573 134.886L205.371 122.795V122.979L195.722 134.886H195.573Z" fill="#C4D8F2"/>
<path d="M195.424 134.886L205.371 122.616V122.795L195.573 134.886H195.424Z" fill="#C6D9F2"/>
<path d="M195.275 134.886L205.372 122.431V122.615L195.424 134.886H195.275Z" fill="#C7D9F2"/>
<path d="M195.125 134.886L205.322 122.307L205.372 122.347V122.432L195.275 134.886H195.125Z" fill="#C8DAF3"/>
<path d="M194.981 134.886L205.232 122.238L205.322 122.307L195.125 134.886H194.981Z" fill="#C9DBF3"/>
<path d="M194.832 134.886L205.138 122.163L205.232 122.237L194.981 134.886H194.832Z" fill="#CADCF3"/>
<path d="M194.683 134.886L205.048 122.089L205.138 122.163L194.832 134.886H194.683Z" fill="#CBDCF3"/>
<path d="M194.533 134.886L204.959 122.019L205.048 122.088L194.683 134.886H194.533Z" fill="#CCDDF4"/>
<path d="M194.384 134.886L204.869 121.944L204.958 122.019L194.533 134.886H194.384Z" fill="#CDDEF4"/>
<path d="M194.235 134.886L204.779 121.875L204.869 121.944L194.384 134.886H194.235Z" fill="#CFDFF4"/>
<path d="M194.091 134.886L204.69 121.8L204.78 121.875L194.235 134.886H194.091Z" fill="#D0E0F5"/>
<path d="M193.941 134.886L204.6 121.726L204.69 121.8L194.091 134.886H193.941Z" fill="#D1E0F5"/>
<path d="M193.792 134.886L204.511 121.656L204.6 121.726L193.941 134.886H193.792Z" fill="#D2E1F5"/>
<path d="M193.643 134.886L204.422 121.582L204.511 121.656L193.792 134.886H193.643Z" fill="#D3E2F5"/>
<path d="M193.494 134.886L204.332 121.512L204.422 121.582L193.643 134.886H193.494Z" fill="#D4E2F6"/>
<path d="M193.399 134.887L193.364 134.862L204.242 121.438L204.332 121.512L193.494 134.887H193.399Z" fill="#D5E3F6"/>
<path d="M204.192 121.424L193.316 134.845L193.405 134.917L204.281 121.496L204.192 121.424Z" fill="#D6E4F6"/>
<path d="M204.103 121.347L193.226 134.769L193.315 134.841L204.192 121.419L204.103 121.347Z" fill="#D7E4F7"/>
<path d="M204.017 121.279L193.141 134.7L193.23 134.772L204.106 121.351L204.017 121.279Z" fill="#D8E5F7"/>
<path d="M203.923 121.207L193.046 134.628L193.135 134.7L204.012 121.279L203.923 121.207Z" fill="#D9E6F7"/>
<path d="M203.837 121.133L192.96 134.554L193.049 134.626L203.926 121.205L203.837 121.133Z" fill="#DAE6F7"/>
<path d="M203.743 121.061L192.866 134.482L192.955 134.554L203.831 121.133L203.743 121.061Z" fill="#DAE7F7"/>
<path d="M203.653 120.984L192.777 134.406L192.865 134.478L203.742 121.056L203.653 120.984Z" fill="#DBE8F8"/>
<path d="M203.565 120.919L192.688 134.341L192.777 134.413L203.653 120.991L203.565 120.919Z" fill="#DCE8F8"/>
<path d="M203.47 120.842L192.594 134.264L192.683 134.336L203.559 120.914L203.47 120.842Z" fill="#DDE9F8"/>
<path d="M203.385 120.773L192.508 134.195L192.597 134.267L203.474 120.845L203.385 120.773Z" fill="#DEE9F8"/>
<path d="M203.295 120.702L192.419 134.123L192.508 134.195L203.384 120.774L203.295 120.702Z" fill="#DFEAF9"/>
<path d="M203.206 120.63L192.329 134.051L192.418 134.123L203.295 120.702L203.206 120.63Z" fill="#E0EBF9"/>
<path d="M203.115 120.556L192.238 133.977L192.327 134.049L203.204 120.628L203.115 120.556Z" fill="#E0EBF9"/>
<path d="M203.025 120.484L192.149 133.906L192.238 133.978L203.114 120.556L203.025 120.484Z" fill="#E1ECF9"/>
<path d="M202.935 120.411L192.058 133.832L192.147 133.904L203.024 120.483L202.935 120.411Z" fill="#E2ECF9"/>
<path d="M202.846 120.339L191.969 133.76L192.058 133.832L202.934 120.411L202.846 120.339Z" fill="#E3EDFA"/>
<path d="M202.756 120.262L191.88 133.683L191.968 133.755L202.845 120.334L202.756 120.262Z" fill="#E3EDFA"/>
<path d="M202.67 120.193L191.794 133.615L191.883 133.686L202.759 120.265L202.67 120.193Z" fill="#E4EEFA"/>
<path d="M202.576 120.116L191.7 133.538L191.788 133.61L202.665 120.188L202.576 120.116Z" fill="#E5EEFA"/>
<path d="M202.491 120.047L191.614 133.469L191.703 133.541L202.579 120.119L202.491 120.047Z" fill="#E6EFFA"/>
<path d="M202.401 119.976L191.525 133.397L191.613 133.469L202.49 120.048L202.401 119.976Z" fill="#E6EFFB"/>
<path d="M191.484 133.335L191.395 133.266L202.218 119.906H202.352L202.362 119.911L191.484 133.335Z" fill="#E7F0FB"/>
<path d="M191.395 133.266L191.305 133.191L202.069 119.906H202.218L191.395 133.266Z" fill="#E8F0FB"/>
<path d="M191.305 133.191L191.216 133.116L201.92 119.906H202.069L191.305 133.191Z" fill="#E8F1FB"/>
<path d="M191.216 133.116L191.126 133.047L201.77 119.906H201.92L191.216 133.116Z" fill="#E9F1FB"/>
<path d="M191.126 133.047L191.037 132.972L201.621 119.906H201.77L191.126 133.047Z" fill="#EAF1FB"/>
<path d="M191.037 132.972L190.947 132.903L201.472 119.906H201.621L191.037 132.972Z" fill="#EAF2FC"/>
<path d="M190.947 132.903L190.857 132.828L201.322 119.906H201.472L190.947 132.903Z" fill="#EBF2FC"/>
<path d="M190.858 132.828L190.768 132.753L201.178 119.906H201.322L190.858 132.828Z" fill="#EBF3FC"/>
<path d="M190.768 132.753L190.678 132.684L201.029 119.906H201.178L190.768 132.753Z" fill="#ECF3FC"/>
<path d="M190.679 132.684L190.589 132.609L200.88 119.906H201.029L190.679 132.684Z" fill="#ECF3FC"/>
<path d="M190.589 132.609L190.5 132.54L200.731 119.906H200.88L190.589 132.609Z" fill="#EDF4FC"/>
<path d="M190.499 132.54L190.41 132.465L200.581 119.906H200.73L190.499 132.54Z" fill="#EDF4FC"/>
<path d="M190.41 132.465L190.385 132.445V132.311L200.432 119.906H200.582L190.41 132.465Z" fill="#EEF4FD"/>
<path d="M190.385 132.127L200.283 119.906H200.432L190.385 132.311V132.127Z" fill="#EEF5FD"/>
<path d="M190.385 131.943L200.139 119.906H200.283L190.385 132.127V131.943Z" fill="#EFF5FD"/>
<path d="M190.385 131.759L199.99 119.906H200.139L190.385 131.943V131.759Z" fill="#EFF5FD"/>
<path d="M190.385 131.58L199.84 119.906H199.99L190.385 131.759V131.58Z" fill="#EFF6FD"/>
<path d="M190.385 131.396L199.691 119.906H199.84L190.385 131.58V131.396Z" fill="#F0F6FD"/>
<path d="M190.385 131.212L199.542 119.906H199.691L190.385 131.396V131.212Z" fill="#F0F6FD"/>
<path d="M190.385 131.028L199.393 119.906H199.542L190.385 131.212V131.028Z" fill="#F1F6FD"/>
<path d="M190.385 130.844L199.244 119.906H199.393L190.385 131.028V130.844Z" fill="#F1F7FD"/>
<path d="M190.385 130.66L199.099 119.906H199.244L190.385 130.844V130.66Z" fill="#F1F7FE"/>
<path d="M190.385 130.476L198.95 119.906H199.099L190.385 130.66V130.476Z" fill="#F1F7FE"/>
<path d="M190.385 130.292L198.801 119.906H198.95L190.385 130.476V130.292Z" fill="#F2F7FE"/>
<path d="M190.385 130.113L198.652 119.906H198.801L190.385 130.292V130.113Z" fill="#F2F7FE"/>
<path d="M190.385 129.929L198.503 119.906H198.652L190.385 130.113V129.929Z" fill="#F2F7FE"/>
<path d="M190.385 129.745L198.353 119.906H198.503L190.385 129.929V129.745Z" fill="#F2F8FE"/>
<path d="M190.385 129.561L198.209 119.906H198.353L190.385 129.745V129.561Z" fill="#F3F8FE"/>
<path d="M190.385 129.378L198.06 119.906H198.209L190.385 129.561V129.378Z" fill="#F3F8FE"/>
<path d="M190.385 129.194L197.911 119.906H198.06L190.385 129.378V129.194Z" fill="#F3F8FE"/>
<path d="M190.385 129.01L197.761 119.906H197.911L190.385 129.194V129.01Z" fill="#F3F8FE"/>
<path d="M190.385 128.831L197.612 119.906H197.761L190.385 129.01V128.831Z" fill="#F3F8FE"/>
<path d="M190.385 128.647L197.463 119.906H197.612L190.385 128.831V128.647Z" fill="#F3F8FE"/>
<path d="M197.463 119.906L190.385 128.647V119.906H197.463Z" fill="#F3F8FE"/>
</g>
<mask id="mask6_5_18765" style="mask-type:luminance" maskUnits="userSpaceOnUse" x="168" y="121" width="13" height="9">
<path d="M174.861 121.07C172.141 120.955 168.505 121.492 168.39 124.207C168.276 126.927 172.554 129.094 175.274 129.209C177.995 129.323 180.402 129.482 180.512 126.762C180.626 124.043 177.582 121.184 174.861 121.07Z" fill="white"/>
</mask>
<g mask="url(#mask6_5_18765)">
<path d="M168.434 120.955L168.276 121.162V120.99L168.306 120.955H168.434Z" fill="#7EA7DF"/>
<path d="M168.569 120.955L168.276 121.333V121.164L168.435 120.955H168.569Z" fill="#80A8DF"/>
<path d="M168.699 120.955L168.276 121.507V121.333L168.569 120.955H168.699Z" fill="#82A9E0"/>
<path d="M168.833 120.955L168.276 121.676V121.507L168.699 120.955H168.833Z" fill="#83ABE0"/>
<path d="M168.962 120.955L168.276 121.85V121.676L168.833 120.955H168.962Z" fill="#85ACE1"/>
<path d="M169.097 120.955L168.276 122.019V121.85L168.962 120.955H169.097Z" fill="#87ADE1"/>
<path d="M169.226 120.955L168.276 122.193V122.019L169.097 120.955H169.226Z" fill="#88AEE2"/>
<path d="M169.36 120.955L168.276 122.362V122.193L169.226 120.955H169.36Z" fill="#8AAFE2"/>
<path d="M169.49 120.955L168.276 122.536V122.362L169.36 120.955H169.49Z" fill="#8CB1E3"/>
<path d="M169.624 120.955L168.276 122.705V122.536L169.49 120.955H169.624Z" fill="#8EB2E3"/>
<path d="M169.753 120.955L168.276 122.879V122.705L169.624 120.955H169.753Z" fill="#8FB3E4"/>
<path d="M169.888 120.955L168.276 123.048V122.879L169.753 120.955H169.888Z" fill="#91B4E4"/>
<path d="M170.017 120.955L168.276 123.222V123.048L169.888 120.955H170.017Z" fill="#93B5E4"/>
<path d="M170.151 120.955L168.276 123.391V123.222L170.017 120.955H170.151Z" fill="#94B6E5"/>
<path d="M170.285 120.955L168.276 123.565V123.391L170.151 120.955H170.285Z" fill="#96B7E5"/>
<path d="M170.415 120.955L168.276 123.734V123.565L170.285 120.955H170.415Z" fill="#97B9E6"/>
<path d="M170.549 120.955L168.276 123.908V123.734L170.415 120.955H170.549Z" fill="#99BAE6"/>
<path d="M170.678 120.955L168.276 124.077V123.908L170.549 120.955H170.678Z" fill="#9BBBE7"/>
<path d="M170.813 120.955L168.276 124.251V124.077L170.678 120.955H170.813Z" fill="#9CBCE7"/>
<path d="M170.942 120.955L168.276 124.426V124.251L170.813 120.955H170.942Z" fill="#9EBDE7"/>
<path d="M171.076 120.955L168.276 124.595V124.426L170.942 120.955H171.076Z" fill="#9FBEE8"/>
<path d="M171.206 120.955L168.276 124.769V124.595L171.076 120.955H171.206Z" fill="#A1BFE8"/>
<path d="M171.34 120.955L168.276 124.938V124.769L171.206 120.955H171.34Z" fill="#A2C0E9"/>
<path d="M171.469 120.955L168.276 125.112V124.938L171.34 120.955H171.469Z" fill="#A4C1E9"/>
<path d="M171.603 120.955L168.276 125.281V125.112L171.469 120.955H171.603Z" fill="#A5C2E9"/>
<path d="M171.733 120.955L168.276 125.455V125.281L171.603 120.955H171.733Z" fill="#A7C3EA"/>
<path d="M171.867 120.955L168.276 125.624V125.455L171.733 120.955H171.867Z" fill="#A8C4EA"/>
<path d="M171.996 120.955L168.276 125.798V125.624L171.867 120.955H171.996Z" fill="#AAC5EB"/>
<path d="M172.131 120.955L168.276 125.967V125.798L171.996 120.955H172.131Z" fill="#ABC6EB"/>
<path d="M172.26 120.955L168.276 126.141V125.967L172.131 120.955H172.26Z" fill="#ADC7EB"/>
<path d="M172.394 120.955L168.276 126.31V126.141L172.26 120.955H172.394Z" fill="#AEC8EC"/>
<path d="M172.524 120.955L168.276 126.484V126.31L172.394 120.955H172.524Z" fill="#AFC9EC"/>
<path d="M172.658 120.955L168.276 126.653V126.484L172.524 120.955H172.658Z" fill="#B1CAEC"/>
<path d="M172.792 120.955L168.276 126.827V126.653L172.658 120.955H172.792Z" fill="#B2CBED"/>
<path d="M172.922 120.955L168.276 126.996V126.827L172.792 120.955H172.922Z" fill="#B4CCED"/>
<path d="M173.056 120.955L168.276 127.17V126.996L172.922 120.955H173.056Z" fill="#B5CDEE"/>
<path d="M173.185 120.955L168.276 127.344V127.17L173.056 120.955H173.185Z" fill="#B6CEEE"/>
<path d="M173.32 120.955L168.276 127.513V127.344L173.185 120.955H173.32Z" fill="#B8CFEE"/>
<path d="M173.449 120.955L168.276 127.687V127.513L173.32 120.955H173.449Z" fill="#B9D0EF"/>
<path d="M173.583 120.955L168.276 127.856V127.687L173.449 120.955H173.583Z" fill="#BAD1EF"/>
<path d="M173.712 120.955L168.276 128.03V127.856L173.583 120.955H173.712Z" fill="#BCD2EF"/>
<path d="M173.847 120.955L168.286 128.189L168.276 128.179V128.03L173.712 120.955H173.847Z" fill="#BDD3F0"/>
<path d="M173.976 120.955L168.371 128.254L168.286 128.189L173.847 120.955H173.976Z" fill="#BED3F0"/>
<path d="M174.11 120.955L168.455 128.314L168.37 128.254L173.976 120.955H174.11Z" fill="#BFD4F0"/>
<path d="M174.24 120.955L168.535 128.378L168.455 128.314L174.11 120.955H174.24Z" fill="#C1D5F1"/>
<path d="M174.374 120.955L168.619 128.443L168.534 128.378L174.239 120.955H174.374Z" fill="#C2D6F1"/>
<path d="M174.503 120.955L168.704 128.507L168.619 128.443L174.374 120.955H174.503Z" fill="#C3D7F1"/>
<path d="M174.638 120.955L168.783 128.572L168.704 128.507L174.503 120.955H174.638Z" fill="#C4D8F2"/>
<path d="M174.767 120.955L168.868 128.632L168.783 128.572L174.637 120.955H174.767Z" fill="#C6D9F2"/>
<path d="M174.901 120.955L168.952 128.696L168.868 128.632L174.767 120.955H174.901Z" fill="#C7D9F2"/>
<path d="M175.03 120.955L169.032 128.761L168.952 128.696L174.901 120.955H175.03Z" fill="#C8DAF3"/>
<path d="M175.165 120.955L169.117 128.826L169.032 128.761L175.031 120.955H175.165Z" fill="#C9DBF3"/>
<path d="M175.299 120.955L169.201 128.89L169.116 128.826L175.165 120.955H175.299Z" fill="#CADCF3"/>
<path d="M175.428 120.955L169.281 128.955L169.201 128.89L175.299 120.955H175.428Z" fill="#CBDCF3"/>
<path d="M175.563 120.955L169.365 129.015L169.281 128.955L175.428 120.955H175.563Z" fill="#CCDDF4"/>
<path d="M175.692 120.955L169.45 129.079L169.365 129.015L175.563 120.955H175.692Z" fill="#CDDEF4"/>
<path d="M175.826 120.955L169.529 129.144L169.45 129.079L175.692 120.955H175.826Z" fill="#CFDFF4"/>
<path d="M175.956 120.955L169.614 129.209L169.529 129.144L175.826 120.955H175.956Z" fill="#D0E0F5"/>
<path d="M176.09 120.955L169.699 129.273L169.614 129.209L175.956 120.955H176.09Z" fill="#D1E0F5"/>
<path d="M176.219 120.955L169.778 129.333L169.698 129.273L176.09 120.955H176.219Z" fill="#D2E1F5"/>
<path d="M176.354 120.955L169.863 129.397L169.778 129.333L176.219 120.955H176.354Z" fill="#D3E2F5"/>
<path d="M176.483 120.955L169.947 129.462L169.862 129.397L176.353 120.955H176.483Z" fill="#D4E2F6"/>
<path d="M176.617 120.955L170.062 129.482H169.972L169.947 129.462L176.483 120.955H176.617Z" fill="#D5E3F6"/>
<path d="M176.746 120.955L170.196 129.482H170.062L176.617 120.955H176.746Z" fill="#D6E4F6"/>
<path d="M176.881 120.955L170.325 129.482H170.196L176.747 120.955H176.881Z" fill="#D7E4F7"/>
<path d="M177.01 120.955L170.459 129.482H170.325L176.881 120.955H177.01Z" fill="#D8E5F7"/>
<path d="M177.145 120.955L170.589 129.482H170.46L177.01 120.955H177.145Z" fill="#D9E6F7"/>
<path d="M177.274 120.955L170.723 129.482H170.589L177.144 120.955H177.274Z" fill="#DAE6F7"/>
<path d="M177.408 120.955L170.852 129.482H170.723L177.273 120.955H177.408Z" fill="#DAE7F7"/>
<path d="M177.537 120.955L170.987 129.482H170.853L177.408 120.955H177.537Z" fill="#DBE8F8"/>
<path d="M177.671 120.955L171.121 129.482H170.987L177.537 120.955H177.671Z" fill="#DCE8F8"/>
<path d="M177.806 120.955L171.25 129.482H171.121L177.672 120.955H177.806Z" fill="#DDE9F8"/>
<path d="M177.935 120.955L171.385 129.482H171.25L177.806 120.955H177.935Z" fill="#DEE9F8"/>
<path d="M178.07 120.955L171.514 129.482H171.385L177.935 120.955H178.07Z" fill="#DFEAF9"/>
<path d="M178.199 120.955L171.648 129.482H171.514L178.07 120.955H178.199Z" fill="#E0EBF9"/>
<path d="M178.333 120.955L171.778 129.482H171.648L178.199 120.955H178.333Z" fill="#E0EBF9"/>
<path d="M178.463 120.955L171.912 129.482H171.778L178.333 120.955H178.463Z" fill="#E1ECF9"/>
<path d="M178.597 120.955L172.041 129.482H171.912L178.462 120.955H178.597Z" fill="#E2ECF9"/>
<path d="M178.726 120.955L172.176 129.482H172.041L178.597 120.955H178.726Z" fill="#E3EDFA"/>
<path d="M178.86 120.955L172.305 129.482H172.175L178.726 120.955H178.86Z" fill="#E3EDFA"/>
<path d="M178.92 120.955L178.965 120.99L172.439 129.482H172.305L178.86 120.955H178.92Z" fill="#E4EEFA"/>
<path d="M178.965 120.99L179.049 121.055L172.568 129.482H172.439L178.965 120.99Z" fill="#E5EEFA"/>
<path d="M179.049 121.054L179.129 121.119L172.703 129.482H172.568L179.049 121.054Z" fill="#E6EFFA"/>
<path d="M179.129 121.119L179.214 121.184L172.832 129.482H172.703L179.129 121.119Z" fill="#E6EFFB"/>
<path d="M179.213 121.184L179.298 121.243L172.966 129.482H172.832L179.213 121.184Z" fill="#E7F0FB"/>
<path d="M179.298 121.244L179.378 121.308L173.096 129.482H172.966L179.298 121.244Z" fill="#E8F0FB"/>
<path d="M179.378 121.308L179.462 121.373L173.23 129.482H173.096L179.378 121.308Z" fill="#E8F1FB"/>
<path d="M179.462 121.373L179.547 121.437L173.359 129.482H173.23L179.462 121.373Z" fill="#E9F1FB"/>
<path d="M179.547 121.438L179.626 121.502L173.494 129.482H173.359L179.547 121.438Z" fill="#EAF1FB"/>
<path d="M179.626 121.502L179.711 121.567L173.628 129.482H173.493L179.626 121.502Z" fill="#EAF2FC"/>
<path d="M179.711 121.567L179.795 121.626L173.757 129.482H173.628L179.711 121.567Z" fill="#EBF2FC"/>
<path d="M179.795 121.626L179.875 121.691L173.891 129.482H173.757L179.795 121.626Z" fill="#EBF3FC"/>
<path d="M179.875 121.691L179.96 121.756L174.021 129.482H173.891L179.875 121.691Z" fill="#ECF3FC"/>
<path d="M179.96 121.756L180.044 121.82L174.155 129.482H174.021L179.96 121.756Z" fill="#ECF3FC"/>
<path d="M180.044 121.82L180.124 121.885L174.285 129.482H174.155L180.044 121.82Z" fill="#EDF4FC"/>
<path d="M180.124 121.885L180.208 121.944L174.419 129.482H174.284L180.124 121.885Z" fill="#EDF4FC"/>
<path d="M180.208 121.944L180.293 122.009L174.548 129.482H174.418L180.208 121.944Z" fill="#EEF4FD"/>
<path d="M180.293 122.009L180.372 122.073L174.682 129.482H174.548L180.293 122.009Z" fill="#EEF5FD"/>
<path d="M180.372 122.073L180.457 122.138L174.811 129.482H174.682L180.372 122.073Z" fill="#EFF5FD"/>
<path d="M180.457 122.138L180.542 122.203L174.946 129.482H174.812L180.457 122.138Z" fill="#EFF5FD"/>
<path d="M180.541 122.203L180.621 122.268L175.075 129.482H174.946L180.541 122.203Z" fill="#EFF6FD"/>
<path d="M180.621 122.268H180.626V122.432L175.209 129.482H175.075L180.621 122.268Z" fill="#F0F6FD"/>
<path d="M180.626 122.6L175.339 129.482H175.21L180.626 122.431V122.6Z" fill="#F0F6FD"/>
<path d="M180.626 122.775L175.473 129.482H175.339L180.626 122.601V122.775Z" fill="#F1F6FD"/>
<path d="M180.626 122.944L175.603 129.482H175.473L180.626 122.775V122.944Z" fill="#F1F7FD"/>
<path d="M180.626 123.118L175.737 129.482H175.602L180.626 122.944V123.118Z" fill="#F1F7FE"/>
<path d="M180.626 123.287L175.866 129.482H175.737L180.626 123.118V123.287Z" fill="#F1F7FE"/>
<path d="M180.626 123.461L176 129.482H175.866L180.626 123.287V123.461Z" fill="#F2F7FE"/>
<path d="M180.626 123.63L176.135 129.482H176.001L180.626 123.461V123.63Z" fill="#F2F7FE"/>
<path d="M180.626 123.804L176.264 129.482H176.135L180.626 123.63V123.804Z" fill="#F2F7FE"/>
<path d="M180.626 123.973L176.398 129.482H176.264L180.626 123.804V123.973Z" fill="#F2F8FE"/>
<path d="M180.626 124.147L176.528 129.482H176.398L180.626 123.973V124.147Z" fill="#F3F8FE"/>
<path d="M180.626 124.321L176.662 129.482H176.528L180.626 124.147V124.321Z" fill="#F3F8FE"/>
<path d="M180.626 124.49L176.791 129.482H176.662L180.626 124.321V124.49Z" fill="#F3F8FE"/>
<path d="M180.626 124.664L176.926 129.482H176.791L180.626 124.49V124.664Z" fill="#F3F8FE"/>
<path d="M180.626 124.833L177.055 129.482H176.926L180.626 124.664V124.833Z" fill="#F3F8FE"/>
<path d="M180.626 125.007L177.189 129.482H177.055L180.626 124.833V125.007Z" fill="#F3F8FE"/>
<path d="M177.189 129.482L180.626 125.007V129.482H177.189Z" fill="#F3F8FE"/>
</g>
<mask id="mask7_5_18765" style="mask-type:luminance" maskUnits="userSpaceOnUse" x="198" y="102" width="8" height="10">
<path d="M205.197 108.386C205.197 106.512 203.869 104.214 202.248 103.28C201.392 102.788 200.616 102.768 200.079 103.131L198.851 104.006L203.019 111.22L204.287 110.32C204.849 110.022 205.202 109.355 205.202 108.391L205.197 108.386Z" fill="white"/>
</mask>
<g mask="url(#mask7_5_18765)">
<path d="M198.95 102.763H198.846V111.215H198.95V102.763Z" fill="#F3F8FE"/>
<path d="M199.06 102.763H198.955V111.215H199.06V102.763Z" fill="#F3F8FE"/>
<path d="M199.164 102.763H199.06V111.215H199.164V102.763Z" fill="#F2F7FE"/>
<path d="M199.268 102.763H199.164V111.215H199.268V102.763Z" fill="#F1F7FE"/>
<path d="M199.373 102.763H199.268V111.215H199.373V102.763Z" fill="#F1F6FE"/>
<path d="M199.482 102.763H199.378V111.215H199.482V102.763Z" fill="#F0F6FD"/>
<path d="M199.587 102.763H199.482V111.215H199.587V102.763Z" fill="#EFF5FD"/>
<path d="M199.692 102.763H199.587V111.215H199.692V102.763Z" fill="#EEF5FD"/>
<path d="M199.796 102.763H199.691V111.215H199.796V102.763Z" fill="#EEF4FD"/>
<path d="M199.905 102.763H199.801V111.215H199.905V102.763Z" fill="#EDF4FD"/>
<path d="M200.01 102.763H199.905V111.215H200.01V102.763Z" fill="#ECF3FD"/>
<path d="M200.114 102.763H200.01V111.215H200.114V102.763Z" fill="#EBF3FD"/>
<path d="M200.224 102.763H200.119V111.215H200.224V102.763Z" fill="#EAF2FD"/>
<path d="M200.328 102.763H200.224V111.215H200.328V102.763Z" fill="#E9F2FC"/>
<path d="M200.432 102.763H200.328V111.215H200.432V102.763Z" fill="#E8F1FC"/>
<path d="M200.537 102.763H200.432V111.215H200.537V102.763Z" fill="#E7F0FC"/>
<path d="M200.646 102.763H200.542V111.215H200.646V102.763Z" fill="#E6F0FC"/>
<path d="M200.751 102.763H200.646V111.215H200.751V102.763Z" fill="#E6EFFC"/>
<path d="M200.855 102.763H200.751V111.215H200.855V102.763Z" fill="#E5EFFC"/>
<path d="M200.96 102.763H200.855V111.215H200.96V102.763Z" fill="#E4EEFB"/>
<path d="M201.069 102.763H200.964V111.215H201.069V102.763Z" fill="#E3EDFB"/>
<path d="M201.174 102.763H201.069V111.215H201.174V102.763Z" fill="#E2EDFB"/>
<path d="M201.278 102.763H201.174V111.215H201.278V102.763Z" fill="#E1ECFB"/>
<path d="M201.388 102.763H201.283V111.215H201.388V102.763Z" fill="#E0EBFB"/>
<path d="M201.492 102.763H201.387V111.215H201.492V102.763Z" fill="#DFEBFB"/>
<path d="M201.596 102.763H201.492V111.215H201.596V102.763Z" fill="#DEEAFA"/>
<path d="M201.701 102.763H201.596V111.215H201.701V102.763Z" fill="#DDE9FA"/>
<path d="M201.81 102.763H201.706V111.215H201.81V102.763Z" fill="#DCE9FA"/>
<path d="M201.914 102.763H201.81V111.215H201.914V102.763Z" fill="#DAE8FA"/>
<path d="M202.019 102.763H201.915V111.215H202.019V102.763Z" fill="#D9E7FA"/>
<path d="M202.124 102.763H202.019V111.215H202.124V102.763Z" fill="#D8E7FA"/>
<path d="M202.233 102.763H202.128V111.215H202.233V102.763Z" fill="#D7E6F9"/>
<path d="M202.338 102.763H202.233V111.215H202.338V102.763Z" fill="#D6E5F9"/>
<path d="M202.442 102.763H202.338V111.215H202.442V102.763Z" fill="#D5E5F9"/>
<path d="M202.552 102.763H202.447V111.215H202.552V102.763Z" fill="#D4E4F9"/>
<path d="M202.656 102.763H202.551V111.215H202.656V102.763Z" fill="#D3E3F9"/>
<path d="M202.76 102.763H202.656V111.215H202.76V102.763Z" fill="#D2E2F8"/>
<path d="M202.865 102.763H202.76V111.215H202.865V102.763Z" fill="#D1E2F8"/>
<path d="M202.974 102.763H202.87V111.215H202.974V102.763Z" fill="#D0E1F8"/>
<path d="M203.078 102.763H202.974V111.215H203.078V102.763Z" fill="#CEE0F8"/>
<path d="M203.183 102.763H203.079V111.215H203.183V102.763Z" fill="#CDE0F8"/>
<path d="M203.288 102.763H203.183V111.215H203.288V102.763Z" fill="#CCDFF8"/>
<path d="M203.397 102.763H203.293V111.215H203.397V102.763Z" fill="#CBDEF7"/>
<path d="M203.502 102.763H203.397V111.215H203.502V102.763Z" fill="#CADDF7"/>
<path d="M203.606 102.763H203.501V111.215H203.606V102.763Z" fill="#C9DDF7"/>
<path d="M203.715 102.763H203.611V111.215H203.715V102.763Z" fill="#C8DCF7"/>
<path d="M203.82 102.763H203.715V111.215H203.82V102.763Z" fill="#C6DBF7"/>
<path d="M203.924 102.763H203.82V111.215H203.924V102.763Z" fill="#C5DAF6"/>
<path d="M204.028 102.763H203.924V111.215H204.028V102.763Z" fill="#C4DAF6"/>
<path d="M204.138 102.763H204.034V111.215H204.138V102.763Z" fill="#C3D9F6"/>
<path d="M204.242 102.763H204.138V111.215H204.242V102.763Z" fill="#C2D8F6"/>
<path d="M204.347 102.763H204.242V111.215H204.347V102.763Z" fill="#C1D7F6"/>
<path d="M204.451 102.763H204.347V111.215H204.451V102.763Z" fill="#BFD6F5"/>
<path d="M204.561 102.763H204.456V111.215H204.561V102.763Z" fill="#BED6F5"/>
<path d="M204.665 102.763H204.561V111.215H204.665V102.763Z" fill="#BDD5F5"/>
<path d="M204.77 102.763H204.665V111.215H204.77V102.763Z" fill="#BCD4F5"/>
<path d="M204.879 102.763H204.775V111.215H204.879V102.763Z" fill="#BBD3F5"/>
<path d="M204.984 102.763H204.879V111.215H204.984V102.763Z" fill="#B9D3F4"/>
<path d="M205.088 102.763H204.984V111.215H205.088V102.763Z" fill="#B8D2F4"/>
<path d="M205.192 102.763H205.088V111.215H205.192V102.763Z" fill="#B7D1F4"/>
</g>
<path d="M201 104.367C199.351 103.507 198 104.211 198 105.932C198 107.653 199.351 109.772 201 110.633C202.649 111.493 204 110.789 204 109.068C204 107.347 202.649 105.228 201 104.367Z" fill="#112050"/>
<path d="M201 106.158C200.448 105.788 200 106.091 200 106.83C200 107.569 200.448 108.473 201 108.842C201.552 109.212 202 108.909 202 108.17C202 107.431 201.548 106.527 201 106.158Z" fill="white"/>
<path d="M203.56 24.2388L244.641 0.534974C245.785 -0.119882 247.048 -0.139721 248.117 0.291888H248.127C248.485 0.435758 248.818 0.639156 249.121 0.877286L253 3.26354L250.613 10.9531V38.0255C250.613 41.2749 248.873 44.2764 246.053 45.9036L209.084 69.2452L204.3 82L199.671 79.1325C199.303 79.0135 199 78.691 199 78.2147V32.1119C199 28.8624 200.74 25.861 203.56 24.2338V24.2388Z" fill="#112050"/>
<path d="M249.099 3.53575L208.505 27.1818C205.715 28.8001 204 31.7992 204 35.0408V81.0314C204 82.0558 205.376 82.3775 205.823 81.457L211.05 73.1279C211.645 71.9006 212.593 70.8761 213.772 70.1932L250.494 48.7989C253.285 47.1806 255 44.1815 255 40.9399V6.97031C255 3.92175 251.723 2.01147 249.099 3.53575Z" fill="#3DC2B5"/>
<path d="M231.5 24.4709C237.823 21.0249 243 23.8435 243 30.7355C243 37.6274 237.823 46.0831 231.5 49.5291C225.177 52.9751 220 50.1565 220 43.2645C220 36.3726 225.177 27.9169 231.5 24.4709Z" fill="white"/>
<path d="M228.981 48C229.901 48 230.898 47.6834 231.915 47.0611C235.268 45.0062 238 39.9897 238 35.8799C238 35.3917 237.631 35 237.17 35C236.71 35 236.341 35.3917 236.341 35.8799C236.341 39.3673 233.933 43.7936 231.085 45.5374C229.846 46.2992 228.718 46.4441 227.908 45.9505C227.104 45.4569 226.659 44.3463 226.659 42.8279C226.659 42.3397 226.285 41.948 225.829 41.948C225.374 41.948 225 42.3397 225 42.8279C225 45.0008 225.738 46.6533 227.079 47.4742C227.651 47.8229 228.293 48 228.981 48Z" fill="#231F20"/>
<path d="M228 34.2633C228.552 33.6472 229 34.1494 229 35.3817C229 36.6139 228.548 38.1205 228 38.7367C227.448 39.3528 227 38.8506 227 37.6183C227 36.3861 227.452 34.8795 228 34.2633Z" fill="#231F20"/>
<path d="M237 29.2633C237.552 28.6472 238 29.1494 238 30.3817C238 31.6139 237.548 33.1205 237 33.7367C236.448 34.3528 236 33.8506 236 32.6183C236 31.3861 236.452 29.8795 237 29.2633Z" fill="#231F20"/>
<path d="M131.725 83.1639L109.167 96.1829L109.913 97.4746L132.471 84.4556L131.725 83.1639Z" fill="#191C3C"/>
<path d="M105.487 98.3274L82.9282 111.346L83.6743 112.638L106.233 99.6192L105.487 98.3274Z" fill="#191C3C"/>
<path d="M80.1486 112.547L71.4259 117.581L72.172 118.873L80.8947 113.839L80.1486 112.547Z" fill="#191C3C"/>
<path d="M80.146 124.087L71.4233 129.121L72.1694 130.413L80.8921 125.379L80.146 124.087Z" fill="#191C3C"/>
<path d="M159.969 77.8503L136.532 91.3765L137.278 92.6682L160.715 79.1421L159.969 77.8503Z" fill="#191C3C"/>
<path d="M123.962 98.5542L83.9363 121.654L84.6824 122.946L124.708 99.8459L123.962 98.5542Z" fill="#191C3C"/>
<path d="M134.05 92.8543L126.43 97.252L127.176 98.5437L134.796 94.146L134.05 92.8543Z" fill="#191C3C"/>
<path d="M80.1433 135.627L71.4207 140.661L72.1667 141.953L80.8894 136.919L80.1433 135.627Z" fill="#191C3C"/>
<path d="M80.146 147.167L71.4233 152.201L72.1694 153.493L80.8921 148.459L80.146 147.167Z" fill="#191C3C"/>
<path d="M80.1433 158.707L71.4207 163.741L72.1667 165.033L80.8894 159.999L80.1433 158.707Z" fill="#191C3C"/>
<path d="M80.1411 170.247L71.4185 175.281L72.1645 176.573L80.8872 171.539L80.1411 170.247Z" fill="#191C3C"/>
<path d="M80.1433 181.787L71.4207 186.821L72.1667 188.113L80.8894 183.079L80.1433 181.787Z" fill="#191C3C"/>
<path d="M80.1433 193.331L71.4207 198.365L72.1667 199.657L80.8894 194.623L80.1433 193.331Z" fill="#191C3C"/>
<path d="M119.181 113.194L107.464 119.956L108.21 121.248L119.927 114.486L119.181 113.194Z" fill="#191C3C"/>
<path d="M110.195 142.089L98.4788 148.851L99.2248 150.143L110.941 143.381L110.195 142.089Z" fill="#191C3C"/>
<path d="M96.5184 184.638L84.802 191.4L85.5481 192.692L97.2645 185.93L96.5184 184.638Z" fill="#191C3C"/>
<path d="M95.65 150.52L83.9336 157.282L84.6797 158.573L96.3961 151.812L95.65 150.52Z" fill="#191C3C"/>
<path d="M144.865 110.327L120.739 124.251L121.485 125.543L145.611 111.619L144.865 110.327Z" fill="#191C3C"/>
<path d="M158.986 124.544L134.86 138.468L135.606 139.76L159.732 125.836L158.986 124.544Z" fill="#191C3C"/>
<path d="M149.584 153.908L125.462 167.829L126.208 169.121L150.33 155.2L149.584 153.908Z" fill="#191C3C"/>
<path d="M122.589 169.589L98.4626 183.513L99.2087 184.804L123.335 170.881L122.589 169.589Z" fill="#191C3C"/>
<path d="M103.652 122.215L83.9366 133.593L84.6827 134.885L104.398 123.506L103.652 122.215Z" fill="#191C3C"/>
<path d="M117.195 126.29L110.273 130.285L111.019 131.577L117.941 127.582L117.195 126.29Z" fill="#191C3C"/>
<path d="M107.336 131.981L83.9332 145.488L84.6793 146.779L108.082 133.273L107.336 131.981Z" fill="#191C3C"/>
<path d="M118.715 147.831L85.1638 167.195L85.9099 168.486L119.461 149.123L118.715 147.831Z" fill="#191C3C"/>
<path d="M130.708 140.843L123.083 145.243L123.829 146.535L131.454 142.134L130.708 140.843Z" fill="#191C3C"/>
<path d="M117.968 160.549L94.5309 174.075L95.277 175.367L118.714 161.841L117.968 160.549Z" fill="#191C3C"/>
<path d="M92.0625 175.553L84.4382 179.953L85.1843 181.245L92.8086 176.844L92.0625 175.553Z" fill="#191C3C"/>
<path d="M60.8595 123.614L63 124.78L61.7912 156.357C61.7912 159.722 59.3738 163.85 56.4174 165.532L29.6738 182L26.3397 180.447C25.5188 180.05 25 179.226 25 178.328V147.659C25 144.295 27.4276 140.187 30.3991 138.525L57.2484 123.436C58.3867 122.796 59.7968 122.865 60.8645 123.614H60.8595Z" fill="#112050"/>
<path d="M58.7178 125.692C61.625 124.052 64 125.428 64 128.746V157.627C64 160.946 61.6348 165.018 58.7424 166.677L33.2576 181.292C30.3651 182.951 28 181.595 28 178.277V149.048C28 145.729 30.375 141.677 33.2822 140.037L58.7227 125.692H58.7178Z" fill="#3DC2B5"/>
<g opacity="0.32">
<path d="M51.0917 142.056L52.1859 141.409C54.1755 140.241 55.1702 140.634 55.1702 142.598V146.734C55.1702 147.311 55.3244 147.51 55.6278 147.331L56.543 146.794V149.305L55.6278 149.842C55.3244 150.021 55.1702 150.394 55.1702 150.956V155.177C55.1702 157.141 54.1804 158.707 52.1909 159.875L51.0967 160.522V158.011C51.9571 157.504 52.3898 157.026 52.3898 156.569V152.079C52.3898 151.353 52.6336 150.677 53.121 150.061C52.6286 150.006 52.3849 149.618 52.3849 148.887V144.582C52.3849 144.045 52.0914 143.95 51.5095 144.293L51.0917 144.557V142.046V142.056Z" fill="#7D004A"/>
<path d="M42.6162 165.543L41.522 166.185C39.5325 167.353 38.5377 166.96 38.5377 164.997V160.86C38.5377 160.283 38.3835 160.084 38.0751 160.263L37.1599 160.8V158.289L38.0751 157.752C38.3835 157.573 38.5327 157.201 38.5327 156.639V152.418C38.5327 150.454 39.5225 148.888 41.5121 147.719L42.6063 147.073V149.584C41.7458 150.091 41.3131 150.573 41.3131 151.025V155.515C41.3131 156.241 41.0694 156.917 40.5819 157.534C41.0744 157.588 41.3181 157.981 41.3181 158.707V163.008C41.3181 163.545 41.6115 163.639 42.1985 163.296L42.6162 163.028V165.539V165.543Z" fill="#7D004A"/>
</g>
<path d="M54 141.334L55.0037 140.672C56.8285 139.474 57.7409 139.877 57.7409 141.89V146.13C57.7409 146.721 57.8823 146.925 58.1606 146.741L59 146.191V148.764L58.1606 149.315C57.8823 149.498 57.7409 149.88 57.7409 150.456V154.783C57.7409 156.796 57.1478 159.797 55.323 161L54.0046 160.261V157.688C54.7938 157.168 55.1907 156.679 55.1907 156.21V151.608C55.1907 150.864 55.4143 150.171 55.8613 149.539C55.4097 149.483 55.1862 149.085 55.1862 148.336L55.3184 144.642L54 143.903V141.329V141.334Z" fill="#DDE2FF"/>
<path d="M45.5434 164.931L44.0766 167C44.0766 167 41.3959 166.383 41.3959 164.371C41.3959 164.371 41.7702 160.625 41.4617 160.809L40 160.07V157.496L40.9307 156.946C41.2443 156.762 41.3959 156.38 41.3959 155.804V151.478C41.3959 149.465 42.4024 147.86 44.4255 146.662L45.5383 146L47 146.739L45.5383 148.578C44.6633 149.098 44.2233 149.593 44.2233 150.056V154.658C44.2233 155.402 43.9754 156.095 43.4797 156.727C43.9805 156.783 44.2284 157.185 44.2284 157.929V162.337C44.2284 162.888 44.5267 162.984 45.1235 162.633L45.5484 162.358V164.931H45.5434Z" fill="#DDE2FF"/>
<path d="M61 147H59V148L60.6405 147.753L61 147Z" fill="#EBE9EC"/>
<path d="M55 142.317L56.2044 141.663C58.3942 140.481 59.4891 140.878 59.4891 142.865V147.051C59.4891 147.634 59.6587 147.835 59.9927 147.654L61 147.111V149.651L59.9927 150.195C59.6587 150.376 59.4891 150.753 59.4891 151.321V155.592C59.4891 157.579 58.3997 159.164 56.2099 160.346L55.0055 161V158.46C55.9526 157.947 56.4288 157.464 56.4288 157.001V152.458C56.4288 151.724 56.6971 151.04 57.2336 150.416C56.6916 150.361 56.4233 149.968 56.4233 149.229V144.872C56.4233 144.329 56.1004 144.234 55.4599 144.581L55 144.847V142.307V142.317Z" fill="white"/>
<path d="M47 165.688L45.7967 166.337C43.6089 167.519 42.515 167.122 42.515 165.135V160.949C42.515 160.366 42.3455 160.165 42.0064 160.346L41 160.889V158.349L42.0064 157.805C42.3455 157.624 42.5096 157.247 42.5096 156.679V152.408C42.5096 150.421 43.598 148.836 45.7857 147.654L46.9891 147V149.54C46.0428 150.053 45.567 150.541 45.567 150.999V155.542C45.567 156.276 45.299 156.96 44.763 157.584C45.3044 157.639 45.5725 158.037 45.5725 158.771V163.123C45.5725 163.666 45.8951 163.761 46.5405 163.414L47 163.143V165.683V165.688Z" fill="white"/>
</svg>
