<svg width="448" height="349" viewBox="0 0 448 349" fill="none" xmlns="http://www.w3.org/2000/svg">
<path d="M153.754 155.81C153.152 155.81 152.548 155.649 151.999 155.324C150.892 154.674 150.23 153.505 150.23 152.197V69.9325C150.23 67.9667 151.262 66.1335 152.923 65.1449L248.982 9.20217C250.083 8.5497 251.399 8.54688 252.503 9.1937C253.607 9.84052 254.269 11.0071 254.272 12.3092L254.536 94.1445C254.542 96.1132 253.515 97.9519 251.854 98.9433L155.531 155.313C154.976 155.643 154.366 155.81 153.759 155.81H153.754ZM250.748 8.99316C250.188 8.99316 249.627 9.14568 249.117 9.44791L153.061 65.3935C151.486 66.3284 150.506 68.0683 150.506 69.9354V152.2C150.506 153.403 151.116 154.482 152.134 155.081C153.155 155.68 154.369 155.677 155.387 155.07L251.711 98.7004C253.286 97.7599 254.263 96.0143 254.258 94.1473L253.993 12.312C253.99 11.1116 253.38 10.0382 252.362 9.43943C251.857 9.14286 251.3 8.99316 250.748 8.99316Z" fill="#112050"/>
<path d="M259.181 102.545L162.857 158.914C160.6 160.261 157.769 158.595 157.769 155.92V73.6553C157.769 71.7318 158.768 69.9552 160.393 68.992L256.446 13.0464C258.698 11.7076 261.521 13.3656 261.529 16.0319L261.794 97.8672C261.799 99.7907 260.803 101.573 259.178 102.545H259.181Z" fill="#3DC2B5"/>
<path d="M268.505 107.409L172.181 163.778C169.924 165.125 167.093 163.459 167.093 160.784V78.5193C167.093 76.5958 168.092 74.8192 169.717 73.856L265.77 17.9104C268.022 16.5716 270.845 18.2296 270.853 20.896L271.118 102.731C271.123 104.655 270.127 106.437 268.502 107.409H268.505Z" fill="#112050"/>
<path d="M181.122 79.2L180.658 94.7518L177.996 96.2828L178.357 84.1316L176.608 85.1371L176.71 81.7392L181.119 79.2028L181.122 79.2Z" fill="white"/>
<path d="M186.569 76.0676L186.106 91.6195L183.443 93.1504L183.804 80.9993L182.055 82.0048L182.157 78.6069L186.566 76.0705L186.569 76.0676Z" fill="white"/>
<path d="M187.493 88.5493C187.538 87.0382 188.239 85.674 189.099 85.1797C189.974 84.6769 190.603 85.2757 190.559 86.7868C190.515 88.2528 189.825 89.6763 188.95 90.1791C188.09 90.6734 187.449 90.0153 187.493 88.5493ZM187.714 81.1095C187.758 79.5984 188.459 78.2341 189.32 77.7398C190.195 77.2371 190.824 77.8359 190.78 79.347C190.736 80.8129 190.046 82.2365 189.171 82.7393C188.31 83.2336 187.67 82.5755 187.714 81.1095Z" fill="white"/>
<path d="M198.702 80.9484L198.597 84.4367L191.268 88.6509L191.351 85.897L195.035 78.4289C195.821 76.8415 195.951 76.0676 195.97 75.4236C196.001 74.4237 195.614 74.0565 194.809 74.5197C194.122 74.9152 193.49 75.7795 193.084 76.9969L191.161 76.3105C191.931 73.9464 193.302 71.8901 195.156 70.8252C197.32 69.5796 198.757 70.5654 198.672 73.4549C198.628 74.966 198.33 76.4913 196.925 79.3073L195.068 83.0385L198.7 80.9512L198.702 80.9484Z" fill="white"/>
<path d="M206.771 74.9547C206.691 77.5985 205.352 80.858 202.516 82.4878C201.211 83.2391 199.842 83.5018 198.904 83.0583L199.972 79.1915C200.7 79.6039 201.655 79.4909 202.541 78.9797C203.443 78.4628 204.05 77.5448 204.08 76.4998C204.108 75.5677 203.708 75.2287 202.687 75.8162L201.572 76.4574L201.655 73.6809L203.424 69.7152L199.712 71.8477L199.814 68.4498L206.619 64.5378L206.536 67.2918L204.483 71.8788C206.053 71.5229 206.837 72.7318 206.771 74.9519V74.9547Z" fill="white"/>
<path d="M224.39 118.551V84.7217L224.528 84.6398L253.75 67.3706V101.2L253.612 101.282L224.39 118.551ZM224.942 85.0466V117.574L253.198 100.875V68.3479L224.942 85.0466Z" fill="white"/>
<path d="M236.548 68.9754L265.356 51.9519V85.1289L236.548 102.155V68.9754Z" fill="#3DC2B5"/>
<path d="M176.61 145.43C176.459 145.43 176.334 145.303 176.334 145.147V136.914C176.334 136.758 176.459 136.631 176.61 136.631C176.762 136.631 176.886 136.758 176.886 136.914V145.147C176.886 145.303 176.762 145.43 176.61 145.43Z" fill="white"/>
<path d="M182.375 142.436C182.223 142.436 182.099 142.309 182.099 142.153V124.811C182.099 124.655 182.223 124.528 182.375 124.528C182.526 124.528 182.651 124.655 182.651 124.811V142.153C182.651 142.309 182.526 142.436 182.375 142.436Z" fill="white"/>
<path d="M188.139 139.066C187.987 139.066 187.863 138.939 187.863 138.783V114.642C187.863 114.487 187.987 114.36 188.139 114.36C188.291 114.36 188.415 114.487 188.415 114.642V138.783C188.415 138.939 188.291 139.066 188.139 139.066Z" fill="white"/>
<path d="M193.904 135.572C193.752 135.572 193.628 135.445 193.628 135.29V117.571C193.628 117.416 193.752 117.289 193.904 117.289C194.055 117.289 194.18 117.416 194.18 117.571V135.29C194.18 135.445 194.055 135.572 193.904 135.572Z" fill="white"/>
<path d="M199.668 132.081C199.516 132.081 199.392 131.954 199.392 131.798V125.997C199.392 125.841 199.516 125.714 199.668 125.714C199.82 125.714 199.944 125.841 199.944 125.997V131.798C199.944 131.954 199.82 132.081 199.668 132.081Z" fill="white"/>
<path d="M205.435 128.587C205.284 128.587 205.159 128.46 205.159 128.304V118.012C205.159 117.856 205.284 117.729 205.435 117.729C205.587 117.729 205.711 117.856 205.711 118.012V128.304C205.711 128.46 205.587 128.587 205.435 128.587Z" fill="white"/>
<path d="M211.2 125.093C211.048 125.093 210.924 124.966 210.924 124.811V102.155C210.924 102 211.048 101.873 211.2 101.873C211.351 101.873 211.476 102 211.476 102.155V124.811C211.476 124.966 211.351 125.093 211.2 125.093Z" fill="white"/>
<path d="M216.964 121.599C216.812 121.599 216.688 121.472 216.688 121.317V91.8086C216.688 91.6532 216.812 91.5261 216.964 91.5261C217.116 91.5261 217.24 91.6532 217.24 91.8086V121.317C217.24 121.472 217.116 121.599 216.964 121.599Z" fill="white"/>
<g opacity="0.3">
<path d="M384.931 89.4924L322.181 126.576C322.14 126.598 322.14 126.661 322.181 126.683L385.082 163.857L447.909 126.728C447.95 126.706 447.95 126.644 447.909 126.621L384.931 89.4924Z" fill="#B1C4E4"/>
</g>
<path d="M366.176 122.284L104.83 276.732L105.52 277.955L366.866 123.507L366.176 122.284Z" fill="#112050"/>
<path d="M384.931 73.4861L322.09 107.087V110.623L385.085 147.85L448 110.668V107.03L384.931 73.4861Z" fill="#B1C4E4"/>
<path d="M384.931 69.8479L322.181 106.931C322.14 106.954 322.14 107.016 322.181 107.039L385.082 144.212L447.909 107.084C447.95 107.061 447.95 106.999 447.909 106.976L384.931 69.8479Z" fill="#E3EDFE"/>
<g opacity="0.3">
<path d="M339.422 105.993C340.021 106.347 341.001 106.347 341.599 105.993C342.198 105.64 342.198 105.061 341.599 104.705C341.001 104.352 340.021 104.352 339.422 104.705C338.823 105.059 338.823 105.638 339.422 105.993Z" fill="#B3CDFA"/>
<path d="M346.511 101.743C347.11 102.096 348.09 102.096 348.688 101.743C349.287 101.39 349.287 100.81 348.688 100.455C348.09 100.099 347.11 100.102 346.511 100.455C345.912 100.808 345.912 101.387 346.511 101.743Z" fill="#B3CDFA"/>
<path d="M353.661 97.4944C354.26 97.8475 355.239 97.8475 355.838 97.4944C356.437 97.1414 356.437 96.5623 355.838 96.2065C355.239 95.8534 354.26 95.8534 353.661 96.2065C353.062 96.5595 353.062 97.1386 353.661 97.4944Z" fill="#B3CDFA"/>
<path d="M360.874 93.2435C361.473 93.5965 362.452 93.5965 363.051 93.2435C363.65 92.8904 363.65 92.3114 363.051 91.9555C362.452 91.6024 361.473 91.6024 360.874 91.9555C360.275 92.3085 360.275 92.8876 360.874 93.2435Z" fill="#B3CDFA"/>
<path d="M367.971 89.0491C368.57 89.4022 369.549 89.4022 370.148 89.0491C370.747 88.6961 370.747 88.117 370.148 87.7611C369.549 87.4081 368.57 87.4081 367.971 87.7611C367.372 88.1142 367.372 88.6932 367.971 89.0491Z" fill="#B3CDFA"/>
<path d="M375.082 84.8179C375.681 85.171 376.661 85.171 377.259 84.8179C377.858 84.4649 377.858 83.8858 377.259 83.5299C376.661 83.1769 375.681 83.1769 375.082 83.5299C374.483 83.883 374.483 84.462 375.082 84.8179Z" fill="#B3CDFA"/>
<path d="M382.287 80.5614C382.886 80.9145 383.865 80.9145 384.464 80.5614C385.063 80.2083 385.063 79.6293 384.464 79.2734C383.865 78.9175 382.886 78.9204 382.287 79.2734C381.688 79.6265 381.688 80.2055 382.287 80.5614Z" fill="#B3CDFA"/>
<path d="M348.669 111.371C349.268 111.724 350.247 111.724 350.846 111.371C351.445 111.018 351.445 110.439 350.846 110.083C350.247 109.73 349.268 109.73 348.669 110.083C348.07 110.436 348.07 111.016 348.669 111.371Z" fill="#B3CDFA"/>
<path d="M355.758 107.12C356.357 107.473 357.336 107.473 357.935 107.12C358.534 106.767 358.534 106.188 357.935 105.832C357.336 105.479 356.357 105.479 355.758 105.832C355.159 106.185 355.159 106.765 355.758 107.12Z" fill="#B3CDFA"/>
<path d="M362.91 102.869C363.509 103.223 364.489 103.223 365.087 102.869C365.686 102.516 365.686 101.937 365.087 101.581C364.489 101.228 363.509 101.228 362.91 101.581C362.311 101.935 362.311 102.514 362.91 102.869Z" fill="#B3CDFA"/>
<path d="M370.124 98.6215C370.722 98.9745 371.702 98.9745 372.301 98.6215C372.899 98.2684 372.899 97.6894 372.301 97.3335C371.702 96.9776 370.722 96.9804 370.124 97.3335C369.525 97.6866 369.525 98.2656 370.124 98.6215Z" fill="#B3CDFA"/>
<path d="M377.218 94.4271C377.817 94.7801 378.796 94.7801 379.395 94.4271C379.994 94.074 379.994 93.495 379.395 93.1391C378.796 92.786 377.817 92.786 377.218 93.1391C376.619 93.4921 376.619 94.0712 377.218 94.4271Z" fill="#B3CDFA"/>
<path d="M384.332 90.1959C384.931 90.5489 385.91 90.5489 386.509 90.1959C387.108 89.8428 387.108 89.2638 386.509 88.9079C385.91 88.5548 384.931 88.5548 384.332 88.9079C383.733 89.2609 383.733 89.84 384.332 90.1959Z" fill="#B3CDFA"/>
<path d="M391.534 85.9393C392.133 86.2923 393.112 86.2923 393.711 85.9393C394.31 85.5862 394.31 85.0072 393.711 84.6513C393.112 84.2982 392.133 84.2982 391.534 84.6513C390.935 85.0043 390.935 85.5834 391.534 85.9393Z" fill="#B3CDFA"/>
<path d="M357.918 116.749C358.517 117.102 359.497 117.102 360.096 116.749C360.694 116.396 360.694 115.817 360.096 115.461C359.497 115.108 358.517 115.108 357.918 115.461C357.32 115.814 357.32 116.393 357.918 116.749Z" fill="#B3CDFA"/>
<path d="M365.007 112.498C365.606 112.851 366.586 112.851 367.185 112.498C367.783 112.145 367.783 111.566 367.185 111.21C366.586 110.857 365.606 110.857 365.007 111.21C364.409 111.563 364.409 112.142 365.007 112.498Z" fill="#B3CDFA"/>
<path d="M372.157 108.247C372.756 108.6 373.736 108.6 374.334 108.247C374.933 107.894 374.933 107.315 374.334 106.959C373.736 106.606 372.756 106.606 372.157 106.959C371.558 107.312 371.558 107.891 372.157 108.247Z" fill="#B3CDFA"/>
<path d="M379.37 103.997C379.969 104.35 380.949 104.35 381.547 103.997C382.146 103.644 382.146 103.065 381.547 102.709C380.949 102.356 379.969 102.356 379.37 102.709C378.771 103.062 378.771 103.641 379.37 103.997Z" fill="#B3CDFA"/>
<path d="M386.468 99.8023C387.066 100.155 388.046 100.155 388.645 99.8023C389.244 99.4492 389.244 98.8702 388.645 98.5143C388.046 98.1612 387.066 98.1612 386.468 98.5143C385.869 98.8674 385.869 99.4464 386.468 99.8023Z" fill="#B3CDFA"/>
<path d="M393.578 95.5711C394.177 95.9242 395.157 95.9242 395.756 95.5711C396.354 95.218 396.354 94.639 395.756 94.2831C395.157 93.93 394.177 93.93 393.578 94.2831C392.98 94.6362 392.98 95.2152 393.578 95.5711Z" fill="#B3CDFA"/>
<path d="M400.783 91.3173C401.382 91.6703 402.362 91.6703 402.961 91.3173C403.559 90.9642 403.559 90.3852 402.961 90.0293C402.362 89.6734 401.382 89.6762 400.783 90.0293C400.185 90.3824 400.185 90.9614 400.783 91.3173Z" fill="#B3CDFA"/>
<path d="M367.165 122.124C367.764 122.477 368.744 122.477 369.343 122.124C369.941 121.771 369.941 121.192 369.343 120.836C368.744 120.483 367.764 120.483 367.165 120.836C366.567 121.189 366.567 121.768 367.165 122.124Z" fill="#B3CDFA"/>
<path d="M374.254 117.873C374.853 118.226 375.833 118.226 376.431 117.873C377.03 117.52 377.03 116.941 376.431 116.585C375.833 116.232 374.853 116.232 374.254 116.585C373.655 116.938 373.655 117.517 374.254 117.873Z" fill="#B3CDFA"/>
<path d="M381.404 113.625C382.003 113.978 382.982 113.978 383.581 113.625C384.18 113.272 384.18 112.693 383.581 112.337C382.982 111.984 382.003 111.984 381.404 112.337C380.805 112.69 380.805 113.269 381.404 113.625Z" fill="#B3CDFA"/>
<path d="M388.62 109.374C389.219 109.727 390.198 109.727 390.797 109.374C391.396 109.021 391.396 108.442 390.797 108.086C390.198 107.731 389.219 107.733 388.62 108.086C388.021 108.439 388.021 109.019 388.62 109.374Z" fill="#B3CDFA"/>
<path d="M395.714 105.18C396.313 105.533 397.293 105.533 397.892 105.18C398.49 104.827 398.49 104.248 397.892 103.892C397.293 103.539 396.313 103.539 395.714 103.892C395.116 104.245 395.116 104.824 395.714 105.18Z" fill="#B3CDFA"/>
<path d="M402.828 100.949C403.427 101.302 404.407 101.302 405.005 100.949C405.604 100.596 405.604 100.017 405.005 99.6609C404.407 99.305 403.427 99.3078 402.828 99.6609C402.229 100.014 402.229 100.593 402.828 100.949Z" fill="#B3CDFA"/>
<path d="M410.03 96.6951C410.629 97.0482 411.609 97.0482 412.207 96.6951C412.806 96.3421 412.806 95.763 412.207 95.4071C411.609 95.0541 410.629 95.0541 410.03 95.4071C409.431 95.7602 409.431 96.3392 410.03 96.6951Z" fill="#B3CDFA"/>
<path d="M376.415 127.502C377.014 127.855 377.993 127.855 378.592 127.502C379.191 127.149 379.191 126.57 378.592 126.214C377.993 125.858 377.014 125.861 376.415 126.214C375.816 126.567 375.816 127.146 376.415 127.502Z" fill="#B3CDFA"/>
<path d="M383.501 123.251C384.1 123.604 385.079 123.604 385.678 123.251C386.277 122.898 386.277 122.319 385.678 121.963C385.079 121.61 384.1 121.61 383.501 121.963C382.902 122.316 382.902 122.895 383.501 123.251Z" fill="#B3CDFA"/>
<path d="M390.654 119.001C391.252 119.354 392.232 119.354 392.831 119.001C393.43 118.647 393.43 118.068 392.831 117.713C392.232 117.359 391.252 117.359 390.654 117.713C390.055 118.066 390.055 118.645 390.654 119.001Z" fill="#B3CDFA"/>
<path d="M397.867 114.752C398.465 115.105 399.445 115.105 400.044 114.752C400.643 114.399 400.643 113.82 400.044 113.464C399.445 113.111 398.465 113.111 397.867 113.464C397.268 113.817 397.268 114.396 397.867 114.752Z" fill="#B3CDFA"/>
<path d="M404.964 110.558C405.563 110.911 406.542 110.911 407.141 110.558C407.74 110.205 407.74 109.626 407.141 109.27C406.542 108.917 405.563 108.917 404.964 109.27C404.365 109.623 404.365 110.202 404.964 110.558Z" fill="#B3CDFA"/>
<path d="M412.075 106.327C412.674 106.68 413.653 106.68 414.252 106.327C414.851 105.974 414.851 105.395 414.252 105.039C413.653 104.683 412.674 104.686 412.075 105.039C411.476 105.392 411.476 105.971 412.075 106.327Z" fill="#B3CDFA"/>
<path d="M419.28 102.07C419.879 102.424 420.858 102.424 421.457 102.07C422.056 101.717 422.056 101.138 421.457 100.782C420.858 100.427 419.879 100.429 419.28 100.782C418.681 101.136 418.681 101.715 419.28 102.07Z" fill="#B3CDFA"/>
<path d="M385.662 132.88C386.261 133.233 387.24 133.233 387.839 132.88C388.438 132.527 388.438 131.948 387.839 131.592C387.24 131.236 386.261 131.239 385.662 131.592C385.063 131.945 385.063 132.524 385.662 132.88Z" fill="#B3CDFA"/>
<path d="M392.751 128.629C393.35 128.982 394.329 128.982 394.928 128.629C395.527 128.276 395.527 127.697 394.928 127.341C394.329 126.988 393.35 126.988 392.751 127.341C392.152 127.694 392.152 128.273 392.751 128.629Z" fill="#B3CDFA"/>
<path d="M399.9 124.378C400.499 124.731 401.479 124.731 402.078 124.378C402.676 124.025 402.676 123.446 402.078 123.09C401.479 122.734 400.499 122.737 399.9 123.09C399.302 123.443 399.302 124.022 399.9 124.378Z" fill="#B3CDFA"/>
<path d="M407.116 120.127C407.715 120.481 408.695 120.481 409.294 120.127C409.892 119.774 409.892 119.195 409.294 118.84C408.695 118.486 407.715 118.486 407.116 118.84C406.518 119.193 406.518 119.772 407.116 120.127Z" fill="#B3CDFA"/>
<path d="M414.211 115.936C414.81 116.289 415.789 116.289 416.388 115.936C416.987 115.583 416.987 115.004 416.388 114.648C415.789 114.292 414.81 114.295 414.211 114.648C413.612 115.001 413.612 115.58 414.211 115.936Z" fill="#B3CDFA"/>
<path d="M421.325 111.705C421.924 112.058 422.903 112.058 423.502 111.705C424.101 111.352 424.101 110.773 423.502 110.417C422.903 110.064 421.924 110.064 421.325 110.417C420.726 110.77 420.726 111.349 421.325 111.705Z" fill="#B3CDFA"/>
<path d="M428.527 107.448C429.126 107.801 430.105 107.801 430.704 107.448C431.303 107.095 431.303 106.516 430.704 106.16C430.105 105.807 429.126 105.807 428.527 106.16C427.928 106.513 427.928 107.092 428.527 107.448Z" fill="#B3CDFA"/>
</g>
<path d="M126.212 284.165C123.836 281.411 120.71 278.833 116.825 276.536C96.816 264.713 64.0726 264.713 44.064 276.536C40.1787 278.833 37.0523 281.411 34.6764 284.165H29.0803V297.181C28.6995 305.259 33.6941 313.408 44.064 319.537C64.0726 331.363 96.816 331.363 116.825 319.537C126.83 313.625 131.83 305.832 131.83 298.037V284.165H126.209H126.212Z" fill="#B3CDFA"/>
<path d="M116.825 313.673C96.816 325.499 64.0726 325.499 44.064 313.673C34.4032 307.965 29.4114 300.502 29.0803 292.978V294.766C28.6995 302.844 33.6941 310.992 44.064 317.122C64.0726 328.948 96.816 328.948 116.825 317.122C126.83 311.21 131.83 303.417 131.83 295.621V292.173C131.83 299.966 126.827 307.761 116.825 313.673Z" fill="#3DC2B5"/>
<path d="M116.825 306.866C96.816 318.692 64.0726 318.692 44.064 306.866C34.4032 301.158 29.4114 293.695 29.0803 286.171V287.959C28.6995 296.037 33.6941 304.186 44.064 310.315C64.0726 322.141 96.816 322.141 116.825 310.315C126.83 304.403 131.83 296.61 131.83 288.814V285.366C131.83 293.159 126.827 300.954 116.825 306.866Z" fill="#3DC2B5"/>
<path d="M44.064 304.782C64.0726 316.608 96.8159 316.608 116.825 304.782C136.833 292.958 136.833 273.607 116.825 261.784C96.8159 249.96 64.0726 249.96 44.064 261.784C24.0553 273.61 24.0553 292.958 44.064 304.782Z" fill="#E3EDFE"/>
<path d="M159.176 290.944H150.777C152.338 294.142 153.147 297.441 153.147 300.774C153.147 309.572 147.526 318.139 137.222 325.209L144.562 329.581C158.978 318.373 163.848 304.174 159.176 290.941V290.944Z" fill="#B3CDFA"/>
<path d="M7.74707 300.773C7.74707 297.441 8.55559 294.141 10.1174 290.944H1.71497C-2.96226 304.194 1.92744 318.413 16.3868 329.629L23.7352 325.257C13.3873 318.178 7.74432 309.592 7.74156 300.776L7.74707 300.773Z" fill="#E3EDFE"/>
<path d="M27.3639 327.561C26.0973 326.813 24.8887 326.042 23.738 325.254L16.3896 329.626C18.5448 331.298 20.9096 332.905 23.4924 334.431C39.1549 343.687 59.801 348.316 80.4498 348.316V340.385C60.2121 340.385 41.3597 335.832 27.3694 327.561H27.3639Z" fill="#B3CDFA"/>
<path d="M133.527 327.561C119.537 335.829 100.685 340.385 80.447 340.385V348.316C101.093 348.316 121.739 343.687 137.404 334.431C140.009 332.891 142.393 331.27 144.565 329.581L137.225 325.208C136.052 326.013 134.824 326.799 133.533 327.561H133.527Z" fill="#E3EDFE"/>
<path d="M80.447 261.162V253.231C63.4406 253.231 46.4371 256.375 32.215 262.654L40.7388 267.732C52.4554 263.456 66.1007 261.165 80.447 261.165V261.162Z" fill="#E3EDFE"/>
<path d="M120.323 267.792L128.839 262.724C114.584 256.397 97.5168 253.228 80.447 253.228V261.16C94.8622 261.16 108.571 263.47 120.323 267.789V267.792Z" fill="#B3CDFA"/>
<path d="M27.3639 273.983C31.4368 271.576 35.9236 269.486 40.736 267.729L32.2122 262.651C29.1685 263.995 26.249 265.481 23.4869 267.111C12.0546 273.867 4.80002 282.191 1.71222 290.941H10.1119C13.1418 284.736 19.0138 278.915 27.3611 273.98L27.3639 273.983Z" fill="#B3CDFA"/>
<path d="M133.527 273.983C141.877 278.917 147.747 284.739 150.777 290.944H159.176C156.088 282.197 148.834 273.87 137.402 267.114C134.689 265.509 131.825 264.049 128.839 262.724L120.323 267.792C125.072 269.534 129.501 271.605 133.527 273.983Z" fill="#E3EDFE"/>
<g opacity="0.3">
<path d="M267.177 90.4388L297.374 72.3109C301.499 69.8338 306.687 72.8956 306.662 77.7905L306.48 113.462C306.452 118.659 303.732 123.446 299.333 126.039L269.374 143.693C265.262 146.116 260.13 143.077 260.13 138.221V103.033C260.13 97.8532 262.812 93.0599 267.177 90.4388Z" fill="white"/>
</g>
<path d="M266.297 144.687C265.213 144.687 264.128 144.393 263.14 143.811C261.167 142.645 259.992 140.554 259.992 138.224V103.036C259.992 97.8277 262.718 92.9554 267.109 90.3201L297.305 72.1922C299.283 71.0031 301.654 70.9946 303.643 72.1668C305.633 73.339 306.814 75.4432 306.8 77.7933L306.618 113.464C306.59 118.69 303.825 123.556 299.402 126.163L269.443 143.817C268.458 144.399 267.376 144.687 266.297 144.687ZM267.177 90.4387L267.246 90.5602C262.942 93.1446 260.268 97.9237 260.268 103.033V138.221C260.268 140.45 261.394 142.45 263.278 143.565C265.163 144.681 267.418 144.684 269.305 143.571L299.264 125.918C303.605 123.361 306.317 118.588 306.342 113.461L306.524 77.7904C306.535 75.5421 305.407 73.531 303.505 72.4097C301.604 71.2883 299.339 71.2968 297.446 72.4323L267.249 90.5602L267.18 90.4387H267.177Z" fill="#112050"/>
<path d="M276.543 130.084C274.796 130.084 273.165 129.658 271.714 128.802C268.278 126.771 266.388 122.644 266.388 117.179C266.388 106.553 273.703 93.5854 282.694 88.2724C283.419 87.8431 284.347 88.0973 284.766 88.8402C285.185 89.583 284.937 90.5321 284.211 90.9614C280.304 93.2719 276.601 97.2912 273.786 102.279C270.972 107.267 269.424 112.558 269.424 117.179C269.424 121.489 270.776 124.661 273.232 126.113C275.687 127.565 279.048 127.178 282.694 125.022C286.601 122.712 290.304 118.693 293.119 113.705C295.933 108.716 297.481 103.426 297.481 98.8051C297.481 97.9465 298.16 97.2517 298.999 97.2517C299.838 97.2517 300.517 97.9465 300.517 98.8051C300.517 109.431 293.202 122.398 284.211 127.711C281.54 129.29 278.933 130.087 276.543 130.087V130.084Z" fill="#3DC2B5"/>
<path d="M282.238 99.9491L281.838 113.371L279.542 114.73L279.854 104.242L278.345 105.135L278.433 102.2L282.238 99.9463V99.9491Z" fill="#191C3C"/>
<path d="M289.565 104.559C289.493 106.954 288.337 109.787 285.889 111.236C284.763 111.903 283.582 112.148 282.785 111.773L283.693 108.428C284.333 108.765 285.133 108.669 285.911 108.208C286.689 107.748 287.225 106.92 287.252 106.019C287.277 105.194 286.957 104.858 285.715 105.593L283.511 106.898L284.151 98.8166L289.325 95.752L289.236 98.6867L285.964 100.624L285.801 102.641L286.347 102.319C288.748 100.898 289.634 102.181 289.562 104.559H289.565Z" fill="#191C3C"/>
<path d="M284.556 116.673L284.504 118.433L283.85 118.82L283.897 117.235C283.911 116.792 283.806 116.671 283.635 116.772C283.447 116.885 283.304 117.176 283.287 117.653L283.24 119.182L282.589 119.568L282.636 117.984C282.65 117.54 282.547 117.416 282.374 117.521C282.18 117.634 282.037 117.925 282.023 118.402L281.976 119.93L281.325 120.317L281.416 117.241L282.037 116.874L282.026 117.196C282.175 116.863 282.374 116.622 282.594 116.493C282.848 116.343 283.061 116.368 283.182 116.62C283.339 116.227 283.574 115.914 283.842 115.755C284.275 115.498 284.581 115.724 284.554 116.679L284.556 116.673Z" fill="#191C3C"/>
<path d="M285.009 115.114L285.66 114.727L285.569 117.803L284.918 118.19L285.009 115.114ZM284.962 114.241C284.973 113.916 285.136 113.574 285.379 113.433C285.619 113.292 285.77 113.43 285.759 113.752C285.748 114.094 285.583 114.436 285.343 114.58C285.103 114.721 284.951 114.566 284.962 114.244V114.241Z" fill="#191C3C"/>
<path d="M288.025 114.62L287.972 116.38L287.321 116.767L287.368 115.182C287.382 114.739 287.269 114.62 287.081 114.733C286.871 114.857 286.703 115.168 286.689 115.679L286.645 117.165L285.994 117.552L286.085 114.476L286.706 114.109L286.695 114.442C286.849 114.1 287.065 113.846 287.296 113.708C287.732 113.451 288.052 113.665 288.025 114.62Z" fill="#191C3C"/>
<path d="M288.282 115.617C288.293 115.23 288.472 114.879 288.693 114.75C288.916 114.617 289.076 114.766 289.065 115.153C289.054 115.529 288.878 115.893 288.654 116.026C288.433 116.156 288.27 115.99 288.282 115.617Z" fill="#191C3C"/>
<path d="M241.313 59.6344C240.944 59.6344 240.574 59.5356 240.24 59.335C239.575 58.9396 239.177 58.2306 239.177 57.4426V49.8813C239.177 48.8588 239.716 47.9041 240.582 47.3929L320.274 0.296576C320.945 -0.0988588 321.742 -0.0988588 322.413 0.296576C323.083 0.692011 323.481 1.40097 323.481 2.19184V10.4621C323.481 11.493 322.937 12.4506 322.06 12.9618L242.37 59.3463C242.039 59.5384 241.675 59.6344 241.313 59.6344ZM240.651 47.5144L240.72 47.6358C239.939 48.0962 239.453 48.9577 239.453 49.8813V57.4426C239.453 58.129 239.798 58.7447 240.381 59.0893C240.96 59.4339 241.655 59.4367 242.238 59.0978L321.927 12.7132C322.716 12.2528 323.208 11.3885 323.208 10.4593V2.19184C323.208 1.50265 322.86 0.886904 322.278 0.542311C321.695 0.197718 320.997 0.197718 320.415 0.542311L240.723 47.6386L240.654 47.5172L240.651 47.5144Z" fill="#112050"/>
<path d="M241.319 58.3632C240.886 58.3632 240.419 58.0101 240.419 57.4424V49.8811C240.419 49.3105 240.72 48.7767 241.203 48.4914L306.521 9.99014C306.662 9.90541 306.814 9.86304 306.966 9.86304C307.399 9.86304 307.865 10.2161 307.865 10.7838V19.0541C307.865 19.6303 307.562 20.1641 307.073 20.4494L241.758 58.2389C241.617 58.3208 241.471 58.3632 241.319 58.3632Z" fill="#3DC2B5"/>
<path d="M279.051 33.0274C279.018 34.1233 278.406 35.1514 277.512 35.6655C276.623 36.1767 276.055 35.8265 276.088 34.7306C276.107 34.1092 276.317 33.533 276.662 33.0556C276.408 32.9398 276.275 32.6178 276.292 32.0953C276.322 31.0756 276.894 30.1181 277.691 29.6605C278.5 29.1945 279.032 29.5165 279.002 30.5361C278.985 31.0587 278.822 31.553 278.555 31.9682C278.889 32.0529 279.071 32.406 279.051 33.0274ZM278.229 33.4595C278.246 32.9455 277.997 32.776 277.592 33.0104C277.189 33.242 276.929 33.7024 276.916 34.2165C276.899 34.7306 277.142 34.9085 277.542 34.6797C277.948 34.4453 278.215 33.9736 278.229 33.4595ZM277.098 31.6914C277.084 32.132 277.288 32.2845 277.619 32.0925C277.956 31.8976 278.179 31.5021 278.193 31.0615C278.207 30.6039 277.995 30.4599 277.663 30.6491C277.338 30.8355 277.114 31.2338 277.101 31.6914H277.098Z" fill="white"/>
<path d="M282.296 27.1099L282.272 27.9798L280.82 33.6656L279.937 34.174L281.339 28.7396L280.174 29.409L280.147 30.3553L279.424 30.7705L279.485 28.7311L282.302 27.1127L282.296 27.1099Z" fill="white"/>
<path d="M282.581 28.4542C282.611 27.4769 282.989 26.6465 283.502 26.3528C284.015 26.059 284.352 26.4657 284.325 27.4543C284.294 28.4401 283.922 29.2592 283.408 29.5558C282.895 29.8495 282.553 29.4371 282.583 28.457L282.581 28.4542ZM285.594 25.2145L286.19 24.8699L283.615 32.0555L283.017 32.4001L285.591 25.2145H285.594ZM283.822 27.7424C283.842 27.121 283.704 26.9064 283.483 27.0335C283.268 27.1577 283.108 27.5504 283.088 28.1633C283.069 28.7762 283.212 28.9965 283.428 28.8722C283.648 28.7451 283.803 28.3638 283.822 27.7396V27.7424ZM284.89 29.8185C284.921 28.8383 285.299 28.0108 285.806 27.717C286.32 27.4233 286.662 27.8356 286.631 28.8157C286.601 29.793 286.223 30.6235 285.71 30.92C285.202 31.211 284.86 30.7986 284.887 29.8185H284.89ZM286.126 29.1067C286.146 28.4938 286.008 28.2706 285.787 28.3977C285.572 28.522 285.412 28.9061 285.392 29.5304C285.373 30.1518 285.517 30.3636 285.732 30.2393C285.953 30.1122 286.107 29.7224 286.126 29.1095V29.1067Z" fill="white"/>
<path d="M344.199 82.2958L381.688 60.1401L419.327 82.1998C419.434 82.2619 419.434 82.4229 419.327 82.485L381.843 104.454L344.196 82.3918C344.16 82.3692 344.16 82.3184 344.196 82.2958H344.199Z" fill="#112050"/>
<path d="M344.116 82.4395V107.849L381.49 129.937C381.647 130.03 381.843 129.914 381.843 129.728V104.457L344.196 82.3943C344.16 82.3745 344.116 82.3999 344.116 82.4423V82.4395Z" fill="#B3CDFA"/>
<path d="M419.517 82.6287V107.849L382.143 129.937C381.986 130.03 381.79 129.914 381.79 129.728V104.457L419.277 82.4874C419.385 82.4253 419.517 82.5044 419.517 82.6315V82.6287Z" fill="#112050"/>
<path d="M353.628 85.3149C350.893 83.6965 350.421 82.1006 351.975 81.1742C353.528 80.2477 356.216 80.5189 358.951 82.1373C361.685 83.7558 362.157 85.3488 360.603 86.2781C359.05 87.2046 356.362 86.9334 353.628 85.3178V85.3149ZM356.961 83.3236C355.369 82.3831 354.591 82.2588 354.204 82.4904C353.818 82.722 354.028 83.1852 355.617 84.1258C357.209 85.0664 357.99 85.1878 358.377 84.9591C358.763 84.7274 358.553 84.2642 356.961 83.3236Z" fill="#414D73"/>
<path d="M358.448 77.5361L366.699 82.4169L364.718 83.6004L358.564 79.9624L357.557 80.564L355.46 79.3241L358.448 77.539V77.5361Z" fill="#414D73"/>
<path d="M363.724 79.2876C360.99 77.6691 360.518 76.0733 362.071 75.1468C363.625 74.2204 366.313 74.4915 369.047 76.11C371.782 77.7285 372.254 79.3243 370.697 80.2508C369.144 81.1772 366.456 80.9061 363.721 79.2876H363.724ZM367.058 77.2963C365.465 76.3557 364.684 76.2343 364.298 76.4631C363.912 76.6947 364.122 77.1579 365.714 78.0985C367.306 79.039 368.087 79.1605 368.473 78.9317C368.859 78.7001 368.65 78.2369 367.058 77.2963Z" fill="#414D73"/>
<path d="M368.545 71.5061L376.796 76.3869L374.814 77.5704L368.661 73.9324L367.654 74.534L365.557 73.294L368.548 71.5089L368.545 71.5061Z" fill="#414D73"/>
<path d="M373.821 73.2598C371.086 71.6413 370.615 70.0454 372.168 69.119C373.722 68.1925 376.409 68.4637 379.144 70.0822C381.879 71.7006 382.35 73.2965 380.797 74.2229C379.243 75.1494 376.556 74.8782 373.821 73.2626V73.2598ZM377.154 71.2685C375.562 70.3279 374.781 70.2036 374.395 70.4352C374.009 70.6668 374.218 71.1301 375.811 72.0706C377.403 73.0112 378.181 73.1327 378.57 72.9039C378.956 72.6723 378.747 72.209 377.154 71.2685Z" fill="#414D73"/>
<path d="M378.639 65.4783L386.89 70.3591L384.908 71.5425L378.755 67.9045L377.748 68.5062L375.651 67.2662L378.639 65.4811V65.4783Z" fill="#414D73"/>
<path d="M382.58 63.1282L390.83 68.009L388.849 69.1925L382.695 65.5544L381.688 66.1561L379.591 64.9161L382.58 63.131V63.1282Z" fill="#414D73"/>
<path d="M363.012 87.5039L371.263 92.3847L369.282 93.5682L363.128 89.9302L362.121 90.5318L360.024 89.2918L363.012 87.5067V87.5039Z" fill="#414D73"/>
<path d="M366.953 85.1543L375.203 90.0351L373.222 91.2186L367.069 87.5806L366.062 88.1822L363.964 86.9422L366.953 85.1571V85.1543Z" fill="#414D73"/>
<path d="M372.229 86.9053C369.494 85.2868 369.023 83.691 370.576 82.7645C372.13 81.8381 374.817 82.1092 377.552 83.7277C380.286 85.3461 380.758 86.942 379.205 87.8684C377.651 88.7949 374.964 88.5237 372.229 86.9053ZM375.562 84.914C373.97 83.9734 373.192 83.8491 372.803 84.0807C372.417 84.3123 372.626 84.7756 374.219 85.7161C375.811 86.6567 376.589 86.781 376.978 86.5494C377.364 86.3178 377.155 85.8545 375.562 84.914Z" fill="#414D73"/>
<path d="M378.468 83.1797C375.733 81.5612 375.261 79.9654 376.815 79.0389C378.369 78.1125 381.056 78.3836 383.791 80.0021C386.525 81.6205 386.997 83.2164 385.444 84.1429C383.89 85.0693 381.202 84.7981 378.468 83.1797ZM381.804 81.1884C380.212 80.2478 379.434 80.1235 379.047 80.3552C378.661 80.5868 378.871 81.05 380.463 81.9906C382.055 82.9311 382.833 83.0526 383.222 82.8238C383.609 82.5922 383.399 82.129 381.807 81.1884H381.804Z" fill="#414D73"/>
<path d="M383.289 75.3982L391.539 80.279L389.558 81.4625L383.405 77.8245L382.397 78.4261L380.3 77.1861L383.289 75.401V75.3982Z" fill="#414D73"/>
<path d="M388.565 77.1523C385.83 75.5339 385.358 73.938 386.912 73.0116C388.465 72.0851 391.153 72.3563 393.888 73.9747C396.622 75.5932 397.094 77.1891 395.541 78.1155C393.987 79.042 391.299 78.7708 388.565 77.1523ZM391.898 75.161C390.306 74.2205 389.525 74.099 389.141 74.3278C388.755 74.5594 388.965 75.0226 390.554 75.9632C392.146 76.9038 392.927 77.0281 393.314 76.7965C393.7 76.5648 393.49 76.1016 391.898 75.161Z" fill="#414D73"/>
<path d="M393.385 69.3708L401.636 74.2516L399.655 75.4351L393.504 71.7971L392.497 72.3988L390.4 71.1588L393.391 69.3737L393.385 69.3708Z" fill="#414D73"/>
<path d="M375.308 98.147C372.574 96.5285 372.102 94.9326 373.655 94.0062C375.209 93.0798 377.897 93.3509 380.631 94.9694C383.366 96.5878 383.838 98.1837 382.284 99.1101C380.731 100.037 378.043 99.7654 375.308 98.147ZM378.642 96.1557C377.05 95.2151 376.271 95.0936 375.885 95.3224C375.499 95.554 375.708 96.0173 377.301 96.9578C378.893 97.8984 379.671 98.0227 380.057 97.7911C380.444 97.5595 380.234 97.0962 378.642 96.1557Z" fill="#414D73"/>
<path d="M381.547 94.4214C378.813 92.8029 378.341 91.2071 379.894 90.2806C381.448 89.3542 384.136 89.6253 386.87 91.2438C389.605 92.8622 390.077 94.4581 388.523 95.3846C386.97 96.311 384.282 96.0398 381.547 94.4214ZM384.884 92.4301C383.291 91.4895 382.51 91.3681 382.124 91.5969C381.738 91.8285 381.947 92.2917 383.537 93.2323C385.129 94.1728 385.91 94.2971 386.296 94.0655C386.683 93.8339 386.473 93.3707 384.884 92.4301Z" fill="#414D73"/>
<path d="M386.368 86.6399L394.619 91.5207L392.638 92.7042L386.484 89.0662L385.477 89.6678L383.38 88.4278L386.368 86.6427V86.6399Z" fill="#414D73"/>
<path d="M390.309 84.2871L398.559 89.1679L396.578 90.3514L390.424 86.7134L389.417 87.315L387.32 86.075L390.309 84.2899V84.2871Z" fill="#414D73"/>
<path d="M394.246 81.937L402.497 86.8178L400.516 88.0013L394.362 84.3633L393.355 84.9649L391.258 83.7249L394.246 81.9398V81.937Z" fill="#414D73"/>
<path d="M399.522 83.688C396.788 82.0695 396.316 80.4737 397.869 79.5472C399.423 78.6208 402.111 78.8919 404.845 80.5104C407.58 82.1288 408.052 83.7247 406.498 84.6512C404.945 85.5776 402.257 85.3064 399.522 83.688ZM402.858 81.6967C401.266 80.7561 400.485 80.6347 400.099 80.8635C399.713 81.0951 399.922 81.5583 401.515 82.4989C403.107 83.4394 403.888 83.5637 404.271 83.3321C404.658 83.1005 404.448 82.6373 402.858 81.6967Z" fill="#414D73"/>
<path d="M404.343 75.9067L412.594 80.7875L410.613 81.971L404.459 78.333L403.452 78.9346L401.355 77.6947L404.343 75.9096V75.9067Z" fill="#414D73"/>
<path d="M383.264 117.142C383.366 113.563 384.649 110.775 386.365 109.764C388.079 108.753 389.246 110.097 389.141 113.676C389.039 117.255 387.756 120.042 386.04 121.054C384.323 122.065 383.159 120.72 383.264 117.142ZM386.945 114.97C387.006 112.888 386.708 112.425 386.28 112.676C385.852 112.927 385.521 113.761 385.46 115.842C385.4 117.924 385.698 118.387 386.123 118.136C386.548 117.885 386.884 117.051 386.942 114.97H386.945Z" fill="#414D73"/>
<path d="M393.363 105.88L393.054 116.676L390.866 117.967L391.098 109.917L389.986 110.572L390.063 107.826L393.363 105.88Z" fill="#414D73"/>
<path d="M397.784 103.273L397.475 114.069L395.287 115.357L395.518 107.307L394.406 107.962L394.484 105.217L397.784 103.271V103.273Z" fill="#414D73"/>
<path d="M402.207 100.669L401.898 111.465L399.71 112.753L399.942 104.703L398.83 105.358L398.907 102.613L402.207 100.667V100.669Z" fill="#414D73"/>
<path d="M403.397 105.273C403.499 101.695 404.782 98.9068 406.498 97.8956C408.212 96.8844 409.379 98.2289 409.274 101.808C409.172 105.386 407.889 108.174 406.173 109.185C404.456 110.196 403.292 108.852 403.397 105.273ZM407.075 103.104C407.136 101.022 406.838 100.559 406.41 100.811C405.982 101.062 405.651 101.895 405.59 103.977C405.53 106.059 405.828 106.522 406.253 106.27C406.678 106.019 407.014 105.186 407.072 103.104H407.075Z" fill="#414D73"/>
<path d="M413.496 94.0149L413.187 104.81L410.999 106.101L411.231 98.0512L410.119 98.7064L410.196 95.961L413.496 94.0149Z" fill="#414D73"/>
<path d="M417.917 91.4075L417.608 102.203L415.419 103.494L415.651 95.4437L414.539 96.099L414.619 93.3536L417.919 91.4075H417.917Z" fill="#414D73"/>
<path d="M345.473 98.0707C345.349 94.4863 346.522 93.1616 348.266 94.201C350.007 95.2433 351.323 98.0537 351.445 101.638C351.566 105.222 350.396 106.547 348.652 105.508C346.911 104.465 345.595 101.655 345.473 98.0707ZM349.213 100.308C349.141 98.2232 348.799 97.3815 348.365 97.1244C347.932 96.8674 347.634 97.3222 347.706 99.4067C347.778 101.491 348.12 102.333 348.553 102.59C348.986 102.85 349.284 102.392 349.213 100.308Z" fill="#E1EBFD"/>
<path d="M352.549 102.299C352.424 98.7148 353.597 97.3901 355.341 98.4296C357.082 99.4718 358.399 102.285 358.52 105.867C358.641 109.451 357.471 110.776 355.728 109.736C353.986 108.694 352.67 105.884 352.549 102.299ZM356.288 104.533C356.216 102.449 355.874 101.607 355.441 101.35C355.007 101.09 354.709 101.548 354.781 103.632C354.853 105.717 355.195 106.559 355.628 106.816C356.061 107.075 356.359 106.618 356.288 104.533Z" fill="#E1EBFD"/>
<path d="M362.469 102.935L362.839 113.747L360.614 112.419L360.338 104.358L359.207 103.683L359.113 100.935L362.466 102.937L362.469 102.935Z" fill="#E1EBFD"/>
<path d="M366.964 105.618L367.334 116.43L365.11 115.103L364.834 107.042L363.702 106.366L363.608 103.618L366.961 105.621L366.964 105.618Z" fill="#E1EBFD"/>
<path d="M368.515 111.84C368.39 108.256 369.563 106.931 371.307 107.971C373.048 109.013 374.365 111.823 374.486 115.408C374.607 118.992 373.437 120.317 371.693 119.277C369.952 118.235 368.636 115.422 368.515 111.84ZM372.254 114.077C372.182 111.993 371.84 111.151 371.406 110.894C370.973 110.634 370.675 111.092 370.747 113.176C370.819 115.261 371.161 116.103 371.594 116.36C372.027 116.62 372.325 116.162 372.254 114.077Z" fill="#E1EBFD"/>
<path d="M378.435 112.476L378.804 123.288L376.58 121.96L376.304 113.899L375.176 113.224L375.082 110.476L378.435 112.478V112.476Z" fill="#E1EBFD"/>
<path d="M344.199 56.6432L381.688 34.4875L419.327 56.5472C419.434 56.6093 419.434 56.7703 419.327 56.8325L381.843 78.8017L344.196 56.7392C344.16 56.7167 344.16 56.663 344.196 56.6432H344.199Z" fill="#57DBD6"/>
<path d="M344.116 56.7871V82.1966L381.49 104.284C381.647 104.378 381.843 104.262 381.843 104.075V78.8043L344.196 56.7419C344.16 56.7193 344.116 56.7475 344.116 56.7899V56.7871Z" fill="#3DC2B5"/>
<path d="M419.517 56.9766V82.1969L382.143 104.285C381.986 104.378 381.79 104.262 381.79 104.076V78.8046L419.277 56.8353C419.385 56.7732 419.517 56.8523 419.517 56.9794V56.9766Z" fill="#112050"/>
<path d="M353.628 59.6628C350.893 58.0444 350.421 56.4485 351.975 55.5221C353.528 54.5956 356.216 54.8668 358.951 56.4852C361.685 58.1037 362.157 59.6967 360.603 60.626C359.05 61.5525 356.362 61.2813 353.628 59.6657V59.6628ZM356.961 57.6715C355.369 56.731 354.591 56.6067 354.204 56.8383C353.818 57.0699 354.028 57.5331 355.617 58.4737C357.209 59.4143 357.99 59.5357 358.377 59.3069C358.763 59.0753 358.553 58.6121 356.961 57.6715Z" fill="#64CEC3"/>
<path d="M358.448 51.8811L366.699 56.7619L364.718 57.9454L358.564 54.3074L357.557 54.909L355.46 53.669L358.448 51.8839V51.8811Z" fill="#64CEC3"/>
<path d="M363.724 53.6321C360.99 52.0136 360.518 50.4178 362.071 49.4913C363.625 48.5649 366.313 48.836 369.047 50.4545C371.782 52.0729 372.254 53.6688 370.697 54.5952C369.144 55.5217 366.456 55.2505 363.721 53.6321H363.724ZM367.058 51.6436C365.465 50.703 364.684 50.5816 364.298 50.8104C363.912 51.042 364.122 51.5052 365.714 52.4458C367.306 53.3863 368.087 53.5078 368.473 53.279C368.859 53.0474 368.65 52.5842 367.058 51.6436Z" fill="#64CEC3"/>
<path d="M368.545 45.8535L376.796 50.7343L374.814 51.9178L368.661 48.2798L367.654 48.8814L365.557 47.6414L368.548 45.8563L368.545 45.8535Z" fill="#64CEC3"/>
<path d="M373.821 47.6047C371.086 45.9863 370.615 44.3904 372.168 43.464C373.722 42.5375 376.409 42.8087 379.144 44.4271C381.879 46.0456 382.35 47.6415 380.797 48.5679C379.243 49.4943 376.556 49.2232 373.821 47.6076V47.6047ZM377.154 45.6163C375.562 44.6757 374.781 44.5514 374.395 44.783C374.009 45.0146 374.218 45.4779 375.811 46.4184C377.403 47.359 378.181 47.4805 378.57 47.2517C378.956 47.0201 378.747 46.5568 377.154 45.6163Z" fill="#64CEC3"/>
<path d="M378.639 39.8259L386.89 44.7067L384.908 45.8902L378.755 42.2522L377.748 42.8538L375.651 41.6139L378.639 39.8288V39.8259Z" fill="#64CEC3"/>
<path d="M382.58 37.4734L390.83 42.3542L388.849 43.5377L382.695 39.8997L381.688 40.5013L379.591 39.2613L382.58 37.4762V37.4734Z" fill="#64CEC3"/>
<path d="M363.012 61.8516L371.263 66.7324L369.282 67.9158L363.128 64.2778L362.121 64.8795L360.024 63.6395L363.012 61.8544V61.8516Z" fill="#64CEC3"/>
<path d="M366.953 59.4988L375.203 64.3796L373.222 65.5631L367.069 61.9251L366.062 62.5267L363.964 61.2867L366.953 59.5016V59.4988Z" fill="#64CEC3"/>
<path d="M372.229 61.2529C369.494 59.6345 369.023 58.0386 370.576 57.1122C372.13 56.1857 374.817 56.4569 377.552 58.0753C380.286 59.6938 380.758 61.2897 379.205 62.2161C377.651 63.1425 374.964 62.8714 372.229 61.2529ZM375.562 59.2616C373.97 58.3211 373.192 58.1968 372.803 58.4284C372.414 58.66 372.626 59.1232 374.219 60.0638C375.811 61.0044 376.589 61.1287 376.978 60.897C377.367 60.6654 377.155 60.2022 375.562 59.2616Z" fill="#64CEC3"/>
<path d="M378.468 57.5247C375.733 55.9062 375.261 54.3103 376.815 53.3839C378.369 52.4574 381.056 52.7286 383.791 54.3471C386.525 55.9655 386.997 57.5614 385.444 58.4878C383.89 59.4143 381.202 59.1431 378.468 57.5247ZM381.804 55.5362C380.212 54.5956 379.434 54.4713 379.047 54.7029C378.661 54.9346 378.871 55.3978 380.463 56.3384C382.055 57.2789 382.833 57.4004 383.222 57.1716C383.609 56.94 383.399 56.4768 381.807 55.5362H381.804Z" fill="#64CEC3"/>
<path d="M383.289 49.7458L391.539 54.6266L389.558 55.8101L383.405 52.1721L382.397 52.7738L380.3 51.5338L383.289 49.7487V49.7458Z" fill="#64CEC3"/>
<path d="M388.565 51.4968C385.83 49.8784 385.358 48.2825 386.912 47.3561C388.465 46.4296 391.153 46.7008 393.888 48.3192C396.622 49.9377 397.094 51.5335 395.541 52.46C393.987 53.3864 391.299 53.1153 388.565 51.4968ZM391.898 49.5084C390.306 48.5678 389.525 48.4463 389.141 48.6751C388.755 48.9067 388.965 49.3699 390.554 50.3105C392.146 51.2511 392.927 51.3754 393.314 51.1438C393.7 50.9121 393.49 50.4489 391.898 49.5084Z" fill="#64CEC3"/>
<path d="M393.385 43.7183L401.636 48.5991L399.655 49.7825L393.504 46.1445L392.497 46.7462L390.4 45.5062L393.391 43.7211L393.385 43.7183Z" fill="#64CEC3"/>
<path d="M375.308 72.4915C372.574 70.873 372.102 69.2771 373.655 68.3507C375.209 67.4242 377.897 67.6954 380.631 69.3138C383.366 70.9323 383.838 72.5282 382.284 73.4546C380.731 74.3811 378.043 74.1099 375.308 72.4915ZM378.642 70.5002C377.05 69.5596 376.271 69.4381 375.885 69.6669C375.499 69.8985 375.708 70.3618 377.301 71.3023C378.893 72.2429 379.671 72.3672 380.057 72.1356C380.444 71.904 380.234 71.4407 378.642 70.5002Z" fill="#64CEC3"/>
<path d="M381.547 68.7661C378.813 67.1477 378.341 65.5518 379.894 64.6253C381.448 63.6989 384.136 63.9701 386.87 65.5885C389.605 67.207 390.077 68.8028 388.523 69.7293C386.97 70.6557 384.282 70.3846 381.547 68.7661ZM384.884 66.7748C383.291 65.8342 382.51 65.7128 382.124 65.9416C381.738 66.1732 381.947 66.6364 383.537 67.577C385.129 68.5176 385.91 68.6418 386.296 68.4102C386.683 68.1786 386.473 67.7154 384.884 66.7748Z" fill="#64CEC3"/>
<path d="M386.368 60.9844L394.619 65.8652L392.638 67.0487L386.484 63.4107L385.477 64.0123L383.38 62.7723L386.368 60.9872V60.9844Z" fill="#64CEC3"/>
<path d="M390.309 58.6345L398.559 63.5153L396.578 64.6988L390.424 61.0608L389.417 61.6624L387.32 60.4225L390.309 58.6373V58.6345Z" fill="#64CEC3"/>
<path d="M394.246 56.2815L402.497 61.1623L400.516 62.3458L394.362 58.7078L393.355 59.3094L391.258 58.0694L394.246 56.2843V56.2815Z" fill="#64CEC3"/>
<path d="M399.522 58.0327C396.788 56.4143 396.316 54.8184 397.869 53.8919C399.423 52.9655 402.111 53.2367 404.845 54.8551C407.58 56.4736 408.052 58.0694 406.498 58.9959C404.945 59.9223 402.257 59.6512 399.522 58.0327ZM402.858 56.0442C401.266 55.1037 400.485 54.9822 400.099 55.211C399.713 55.4426 399.922 55.9058 401.515 56.8464C403.107 57.787 403.888 57.9113 404.271 57.6796C404.658 57.448 404.448 56.9848 402.858 56.0442Z" fill="#64CEC3"/>
<path d="M404.343 50.2542L412.594 55.1349L410.613 56.3184L404.459 52.6804L403.452 53.2821L401.355 52.0421L404.343 50.257V50.2542Z" fill="#64CEC3"/>
<path d="M383.264 91.4867C383.366 87.908 384.649 85.1202 386.365 84.109C388.079 83.0978 389.246 84.4423 389.141 88.021C389.039 91.5997 387.756 94.3875 386.04 95.3987C384.323 96.4098 383.159 95.0654 383.264 91.4867ZM386.945 89.3174C387.006 87.2357 386.708 86.7725 386.28 87.0239C385.852 87.2753 385.521 88.1085 385.46 90.1902C385.4 92.2719 385.698 92.7351 386.123 92.4837C386.548 92.2323 386.884 91.3991 386.942 89.3174H386.945Z" fill="#414D73"/>
<path d="M393.363 80.2253L393.054 91.0207L390.866 92.3115L391.098 84.2616L389.986 84.9169L390.063 82.1715L393.363 80.2253Z" fill="#414D73"/>
<path d="M397.784 77.6211L397.475 88.4165L395.287 89.7073L395.518 81.6574L394.406 82.3127L394.484 79.5672L397.784 77.6211Z" fill="#414D73"/>
<path d="M402.207 75.0138L401.898 85.8092L399.71 87.0972L399.942 79.0472L398.83 79.7025L398.907 76.9571L402.207 75.011V75.0138Z" fill="#414D73"/>
<path d="M403.397 79.6207C403.499 76.042 404.782 73.2542 406.498 72.243C408.212 71.2318 409.379 72.5763 409.274 76.155C409.172 79.7337 407.889 82.5215 406.173 83.5327C404.456 84.5439 403.292 83.1994 403.397 79.6207ZM407.075 77.4515C407.136 75.3698 406.838 74.9065 406.41 75.1579C405.982 75.4093 405.651 76.2426 405.59 78.3242C405.53 80.4059 405.828 80.8692 406.253 80.6178C406.678 80.3664 407.014 79.5331 407.072 77.4515H407.075Z" fill="#414D73"/>
<path d="M413.496 68.3591L413.187 79.1545L410.999 80.4453L411.231 72.3954L410.119 73.0507L410.196 70.3052L413.496 68.3591Z" fill="#414D73"/>
<path d="M417.917 65.7551L417.608 76.5505L415.419 77.8413L415.651 69.7914L414.539 70.4467L414.619 67.7012L417.919 65.7551H417.917Z" fill="#414D73"/>
<path d="M345.473 72.4183C345.349 68.834 346.522 67.5093 348.266 68.5487C350.007 69.591 351.323 72.4014 351.445 75.9857C351.566 79.57 350.396 80.8948 348.652 79.8553C346.911 78.8131 345.595 76.0027 345.473 72.4183ZM349.213 74.6525C349.141 72.568 348.799 71.7263 348.365 71.4693C347.932 71.2122 347.634 71.667 347.706 73.7515C347.778 75.836 348.12 76.6777 348.553 76.9348C348.986 77.1946 349.284 76.737 349.213 74.6525Z" fill="#81E4E0"/>
<path d="M352.549 76.6466C352.424 73.0622 353.597 71.7375 355.341 72.777C357.082 73.8192 358.399 76.6325 358.52 80.214C358.641 83.7983 357.471 85.123 355.728 84.0836C353.986 83.0413 352.67 80.2309 352.549 76.6466ZM356.288 78.8808C356.216 76.7963 355.874 75.9546 355.441 75.6975C355.007 75.4377 354.709 75.8953 354.781 77.9798C354.853 80.0643 355.195 80.906 355.628 81.163C356.061 81.4229 356.359 80.9653 356.288 78.8808Z" fill="#81E4E0"/>
<path d="M362.469 77.2793L362.839 88.0916L360.614 86.7641L360.338 78.7029L359.207 78.0278L359.113 75.2795L362.466 77.2821L362.469 77.2793Z" fill="#81E4E0"/>
<path d="M366.964 79.9653L367.334 90.7777L365.11 89.4501L364.834 81.3889L363.702 80.7139L363.608 77.9656L366.961 79.9682L366.964 79.9653Z" fill="#81E4E0"/>
<path d="M368.515 86.1879C368.39 82.6035 369.563 81.2788 371.307 82.3182C373.048 83.3605 374.365 86.1709 374.486 89.7552C374.607 93.3396 373.437 94.6643 371.693 93.6249C369.952 92.5826 368.636 89.7694 368.515 86.1879ZM372.254 88.4221C372.182 86.3375 371.84 85.4958 371.406 85.2388C370.973 84.9789 370.675 85.4365 370.747 87.521C370.819 89.6055 371.161 90.4473 371.594 90.7043C372.027 90.9641 372.325 90.5066 372.254 88.4221Z" fill="#81E4E0"/>
<path d="M378.435 86.8208L378.804 97.6331L376.58 96.3056L376.304 88.2444L375.176 87.5693L375.082 84.821L378.435 86.8236V86.8208Z" fill="#81E4E0"/>
<path d="M281.918 72.5425C281.549 72.5425 281.179 72.4437 280.845 72.2432C280.18 71.8477 279.783 71.1388 279.783 70.3507V55.4456C279.783 54.4232 280.321 53.4685 281.187 52.9572L334.061 21.4721C334.731 21.0767 335.529 21.0767 336.199 21.4721C336.87 21.8675 337.267 22.5765 337.267 23.3674V38.9814C337.267 40.0124 336.723 40.9699 335.846 41.4811L282.975 72.2545C282.644 72.4465 282.28 72.5425 281.918 72.5425ZM281.322 53.2001C280.541 53.6605 280.056 54.522 280.056 55.4456V70.3507C280.056 71.0371 280.401 71.6528 280.98 71.9974C281.56 72.342 282.255 72.3448 282.837 72.0059L335.708 41.2326C336.497 40.7722 336.988 39.9079 336.988 38.9786V23.3646C336.988 22.6754 336.641 22.0596 336.058 21.715C335.476 21.3704 334.778 21.3704 334.196 21.715L281.322 53.2001Z" fill="#112050"/>
<path d="M292.984 57.9482L291.689 58.6995L291.436 59.8294L290.552 60.3406L291.971 54.4543L292.824 53.96L294.112 58.2759L293.213 58.7984L292.986 57.9454L292.984 57.9482ZM292.743 57.0302L292.371 55.6264L291.957 57.4878L292.743 57.0302Z" fill="#231F20"/>
<path d="M311.405 46.5426C311.394 47.4239 310.95 48.195 310.128 48.6723L308.475 49.6298L308.541 44.5287L310.106 43.622C310.909 43.156 311.295 43.4723 311.287 44.2604C311.281 44.749 311.127 45.2292 310.862 45.6077C311.204 45.6105 311.414 45.924 311.405 46.5426ZM310.533 46.89C310.539 46.5398 310.384 46.4635 310.086 46.6358L309.361 47.0567L309.347 48.0904L310.073 47.6696C310.371 47.4973 310.528 47.2374 310.533 46.8872V46.89ZM309.388 45.0767L309.375 46.0596L309.968 45.715C310.255 45.5484 310.407 45.2942 310.412 44.9665C310.418 44.6445 310.269 44.5654 309.982 44.7321L309.388 45.0767Z" fill="#231F20"/>
<path d="M322.97 38.6226C322.99 37.0691 323.718 35.5552 324.687 34.9931C325.25 34.6655 325.699 34.7445 325.989 35.1908L325.429 36.3404C325.241 36.0664 325.01 35.9902 324.717 36.1625C324.215 36.4534 323.856 37.2414 323.845 38.1142C323.834 38.9898 324.176 39.3683 324.678 39.0774C324.971 38.9079 325.211 38.5605 325.407 38.0605L325.948 38.5718C325.641 39.3627 325.183 39.9699 324.62 40.2976C323.649 40.8597 322.954 40.1733 322.973 38.6226H322.97Z" fill="#231F20"/>
<path d="M289.979 65.0606C289.256 65.0606 288.58 64.8827 287.975 64.5268C286.562 63.6936 285.787 62.0243 285.787 59.8296C285.787 55.7284 288.61 50.7233 292.078 48.6727C292.542 48.3987 293.13 48.5625 293.397 49.0342C293.665 49.5059 293.505 50.1104 293.044 50.3843C290.158 52.0904 287.719 56.4147 287.719 59.8296C287.719 61.2871 288.155 62.3491 288.944 62.8151C289.733 63.2812 290.848 63.1371 292.081 62.4084C294.968 60.7024 297.407 56.378 297.407 52.9631C297.407 52.418 297.84 51.9746 298.373 51.9746C298.905 51.9746 299.339 52.418 299.339 52.9631C299.339 57.0644 296.516 62.0694 293.047 64.1201C291.985 64.7471 290.944 65.0635 289.981 65.0635L289.979 65.0606Z" fill="#3DC2B5"/>
<path d="M306.32 55.3663C305.597 55.3663 304.921 55.1884 304.317 54.8325C302.904 53.9993 302.128 52.3299 302.128 50.1353C302.128 46.0341 304.951 41.029 308.42 38.9784C310.277 37.8824 312.076 37.7356 313.489 38.5716C314.902 39.4049 315.677 41.0742 315.677 43.2688C315.677 43.814 315.244 44.2574 314.711 44.2574C314.179 44.2574 313.745 43.814 313.745 43.2688C313.745 41.8114 313.31 40.7493 312.523 40.2833C311.734 39.8173 310.619 39.9613 309.386 40.69C306.499 42.3961 304.06 46.7204 304.06 50.1353C304.06 51.5927 304.496 52.6548 305.285 53.1208C306.074 53.5869 307.189 53.4428 308.423 52.7141C308.883 52.4401 309.474 52.6039 309.742 53.0756C310.009 53.5473 309.849 54.1518 309.388 54.4258C308.326 55.0528 307.286 55.3692 306.323 55.3692L306.32 55.3663Z" fill="#112050"/>
<path d="M322.151 45.9916C321.428 45.9916 320.752 45.8137 320.147 45.455C318.735 44.6217 317.959 42.9524 317.959 40.7578C317.959 40.2126 318.392 39.7692 318.925 39.7692C319.458 39.7692 319.891 40.2126 319.891 40.7578C319.891 42.2152 320.327 43.2772 321.113 43.7433C321.902 44.2093 323.017 44.0653 324.251 43.3366C327.137 41.6305 329.576 37.3062 329.576 33.8913C329.576 32.4338 329.14 31.3718 328.354 30.9058C327.565 30.4397 326.45 30.5838 325.217 31.3125C324.753 31.5865 324.165 31.4227 323.898 30.951C323.63 30.4793 323.79 29.8748 324.251 29.6008C326.108 28.5021 327.907 28.358 329.32 29.1941C330.733 30.0273 331.508 31.6966 331.508 33.8913C331.508 37.9925 328.685 42.9976 325.217 45.0482C324.154 45.6753 323.114 45.9916 322.151 45.9916Z" fill="#D3DAED"/>
<path d="M117.517 164.656L103.301 156.256C102.34 155.689 101.159 155.683 100.191 156.239L76.5756 169.856C75.4746 170.492 75.4663 172.113 76.5618 172.76L91.0736 181.327C92.045 181.9 93.2398 181.9 94.2111 181.327L117.517 167.554C118.604 166.91 118.604 165.303 117.517 164.659V164.656Z" fill="#3DC2B5"/>
<path d="M92.6437 180.575C92.9914 180.575 93.3363 180.482 93.6371 180.301L116.94 166.529C117.15 166.405 117.183 166.21 117.183 166.102C117.183 165.995 117.153 165.8 116.94 165.676L102.724 157.276C102.423 157.098 102.078 157.002 101.73 157.002C101.383 157.002 101.052 157.092 100.754 157.264L77.1385 170.881C76.926 171.003 76.8929 171.201 76.8929 171.308C76.8929 171.415 76.9232 171.613 77.133 171.737L91.6448 180.304C91.9456 180.482 92.2877 180.575 92.6354 180.575H92.6437Z" fill="white"/>
<path d="M85.3754 185.024L88.4135 188.332C89.1668 189.153 90.381 189.32 91.3192 188.733L110.028 177.025C110.028 177.025 116.449 172.771 115.442 169.396C115.348 169.079 114.921 169.079 114.639 169.246C113.441 169.952 111.932 171.017 109.189 171.777C109.189 171.777 107.462 167.63 106.496 167.995C105.53 168.359 106.606 174.031 106.606 174.031L92.6989 180.318L85.3754 185.021V185.024Z" fill="#112050"/>
<g style="mix-blend-mode:multiply">
<mask id="mask0_5_16798" style="mask-type:luminance" maskUnits="userSpaceOnUse" x="66" y="280" width="38" height="23">
<path d="M75.4745 280.705L103.32 296.83L94.2828 302.013L66.1008 285.549L75.4745 280.705Z" fill="white"/>
</mask>
<g mask="url(#mask0_5_16798)">
<path d="M73.1401 280.705L68.6588 287.891L66.1008 286.221V280.705H73.1401Z" fill="#CDDEFF"/>
<path d="M73.841 280.705L69.1582 288.218L68.6588 287.891L73.1401 280.705H73.841Z" fill="#CDDEFF"/>
<path d="M74.5418 280.705L69.6549 288.543L69.1582 288.218L73.841 280.705H74.5418Z" fill="#CFDFFF"/>
<path d="M75.2455 280.705L70.1544 288.868L69.6549 288.543L74.5419 280.705H75.2455Z" fill="#D1E1FF"/>
<path d="M75.9464 280.705L70.6538 289.196L70.1544 288.868L75.2455 280.705H75.9464Z" fill="#D4E2FF"/>
<path d="M76.6501 280.705L71.1533 289.52L70.6539 289.196L75.9464 280.705H76.6501Z" fill="#D6E4FF"/>
<path d="M77.3509 280.705L71.65 289.845L71.1533 289.52L76.65 280.705H77.3509Z" fill="#D8E5FF"/>
<path d="M78.0518 280.705L72.1494 290.173L71.65 289.845L77.3509 280.705H78.0518Z" fill="#DAE6FF"/>
<path d="M78.7555 280.705L72.6489 290.498L72.1494 290.173L78.0518 280.705H78.7555Z" fill="#DCE8FF"/>
<path d="M79.4564 280.705L73.1483 290.825L72.6489 290.498L78.7555 280.705H79.4564Z" fill="#DDE9FF"/>
<path d="M79.6688 280.705L80.0165 280.934L73.645 291.15L73.1483 290.825L79.4564 280.705H79.6688Z" fill="#DFEAFF"/>
<path d="M80.0165 280.932L73.6458 291.148L74.1436 291.473L80.5143 281.257L80.0165 280.932Z" fill="#E1EBFF"/>
<path d="M80.5154 281.26L74.1447 291.476L74.6425 291.801L81.0132 281.585L80.5154 281.26Z" fill="#E3ECFF"/>
<path d="M81.0153 281.587L74.6446 291.803L75.1423 292.128L81.5131 281.912L81.0153 281.587Z" fill="#E4EDFF"/>
<path d="M81.5129 281.913L75.1422 292.129L75.64 292.454L82.0107 282.238L81.5129 281.913Z" fill="#E6EEFF"/>
<path d="M82.0105 282.235L75.6398 292.452L76.1375 292.777L82.5083 282.561L82.0105 282.235Z" fill="#E7EFFF"/>
<path d="M82.5116 282.565L76.1409 292.781L76.6387 293.106L83.0094 282.89L82.5116 282.565Z" fill="#E9F0FF"/>
<path d="M83.0093 282.891L76.6385 293.107L77.1363 293.432L83.507 283.216L83.0093 282.891Z" fill="#EAF1FF"/>
<path d="M83.5091 283.215L77.1384 293.431L77.6362 293.757L84.0069 283.54L83.5091 283.215Z" fill="#ECF2FF"/>
<path d="M84.0068 283.541L77.636 293.757L78.1338 294.082L84.5045 283.866L84.0068 283.541Z" fill="#EDF3FF"/>
<path d="M84.5056 283.866L78.1349 294.083L78.6326 294.408L85.0034 284.191L84.5056 283.866Z" fill="#EEF4FF"/>
<path d="M85.0055 284.193L78.6348 294.41L79.1326 294.735L85.5033 284.519L85.0055 284.193Z" fill="#EFF5FF"/>
<path d="M85.503 284.519L79.1323 294.735L79.6301 295.06L86.0008 284.844L85.503 284.519Z" fill="#F1F5FF"/>
<path d="M86.0007 284.842L79.6299 295.058L80.1277 295.383L86.4984 285.167L86.0007 284.842Z" fill="#F2F6FF"/>
<path d="M86.5033 285.169L80.1326 295.385L80.6303 295.71L87.0011 285.494L86.5033 285.169Z" fill="#F3F7FF"/>
<path d="M86.9994 285.497L80.6287 295.713L81.1264 296.039L87.4971 285.822L86.9994 285.497Z" fill="#F4F8FF"/>
<path d="M87.4993 285.821L81.1286 296.038L81.6264 296.363L87.9971 286.147L87.4993 285.821Z" fill="#F5F8FF"/>
<path d="M87.9969 286.147L81.6262 296.364L82.1239 296.689L88.4946 286.472L87.9969 286.147Z" fill="#F6F9FF"/>
<path d="M88.4972 286.473L82.1265 296.689L82.6243 297.014L88.995 286.798L88.4972 286.473Z" fill="#F7F9FF"/>
<path d="M88.9957 286.8L82.6249 297.016L83.1227 297.341L89.4934 287.125L88.9957 286.8Z" fill="#F7FAFF"/>
<path d="M89.4933 287.125L83.1226 297.342L83.6203 297.667L89.991 287.45L89.4933 287.125Z" fill="#F8FBFF"/>
<path d="M89.9932 287.452L83.6224 297.669L84.1202 297.994L90.4909 287.778L89.9932 287.452Z" fill="#F9FBFF"/>
<path d="M90.4935 287.775L84.1228 297.991L84.6206 298.317L90.9913 288.1L90.4935 287.775Z" fill="#FAFBFF"/>
<path d="M90.9896 288.103L84.6189 298.32L85.1167 298.645L91.4874 288.429L90.9896 288.103Z" fill="#FAFCFF"/>
<path d="M91.4895 288.431L85.1188 298.647L85.6165 298.972L91.9873 288.756L91.4895 288.431Z" fill="#FBFCFF"/>
<path d="M91.9871 288.753L85.6164 298.97L86.1142 299.295L92.4849 289.079L91.9871 288.753Z" fill="#FBFDFF"/>
<path d="M92.4874 289.079L86.1167 299.295L86.6144 299.621L92.9852 289.404L92.4874 289.079Z" fill="#FCFDFF"/>
<path d="M92.9858 289.409L86.6151 299.625L87.1129 299.95L93.4836 289.734L92.9858 289.409Z" fill="#FCFDFF"/>
<path d="M93.4834 289.732L87.1127 299.948L87.6104 300.273L93.9812 290.057L93.4834 289.732Z" fill="#FDFEFF"/>
<path d="M93.9833 290.059L87.6126 300.275L88.1104 300.6L94.4811 290.384L93.9833 290.059Z" fill="#FDFEFF"/>
<path d="M94.4837 290.385L88.113 300.601L88.6107 300.926L94.9815 290.71L94.4837 290.385Z" fill="#FEFEFF"/>
<path d="M94.9797 290.71L88.609 300.926L89.1068 301.251L95.4775 291.035L94.9797 290.71Z" fill="#FEFEFF"/>
<path d="M95.4797 291.037L89.1089 301.253L89.6067 301.578L95.9774 291.362L95.4797 291.037Z" fill="#FEFEFF"/>
<path d="M95.9772 291.362L89.6065 301.579L90.1043 301.904L96.475 291.688L95.9772 291.362Z" fill="#FEFFFF"/>
<path d="M96.4766 291.687L96.976 292.014L90.7397 302.013H90.2706L90.105 301.903L96.4766 291.687Z" fill="white"/>
<path d="M96.976 292.014L97.4754 292.339L91.4433 302.013H90.7397L96.976 292.014Z" fill="white"/>
<path d="M97.4754 292.34L97.9721 292.667L92.1442 302.014H91.4433L97.4754 292.34Z" fill="white"/>
<path d="M97.9721 292.667L98.4716 292.992L92.8479 302.013H92.1442L97.9721 292.667Z" fill="white"/>
<path d="M98.4716 292.992L98.9711 293.317L93.5488 302.013H92.8479L98.4716 292.992Z" fill="white"/>
<path d="M98.971 293.316L99.4705 293.644L94.2497 302.013H93.5488L98.971 293.316Z" fill="white"/>
<path d="M99.4705 293.644L99.9672 293.969L94.9533 302.013H94.2496L99.4705 293.644Z" fill="white"/>
<path d="M99.9672 293.969L103.32 296.158V302.013H94.9534L99.9672 293.969Z" fill="white"/>
</g>
</g>
<g style="mix-blend-mode:multiply">
<mask id="mask1_5_16798" style="mask-type:luminance" maskUnits="userSpaceOnUse" x="81" y="289" width="44" height="23">
<path d="M96.3054 289.837L124.151 305.962L115.114 311.145L81.5508 291.36L96.3054 289.837Z" fill="white"/>
</mask>
<g mask="url(#mask1_5_16798)">
<path d="M87.1938 289.837L84.5889 294.015L81.5508 292.029V289.837H87.1938Z" fill="#CDDEFF"/>
<path d="M88.0134 289.837L85.1712 294.396L84.5889 294.015L87.1938 289.837H88.0134Z" fill="#CDDEFF"/>
<path d="M88.8329 289.837L85.7534 294.777L85.1711 294.396L88.0134 289.837H88.8329Z" fill="#CFDFFF"/>
<path d="M89.6552 289.837L86.3384 295.159L85.7534 294.777L88.8329 289.837H89.6552Z" fill="#D1E1FF"/>
<path d="M90.4748 289.837L86.9206 295.537L86.3384 295.159L89.6552 289.837H90.4748Z" fill="#D4E2FF"/>
<path d="M91.2943 289.837L87.5029 295.918L86.9207 295.537L90.4748 289.837H91.2943Z" fill="#D6E4FF"/>
<path d="M92.1139 289.837L88.0851 296.3L87.5029 295.918L91.2943 289.837H92.1139Z" fill="#D8E5FF"/>
<path d="M92.9362 289.837L88.6674 296.681L88.0851 296.3L92.1139 289.837H92.9362Z" fill="#DAE6FF"/>
<path d="M93.7557 289.837L89.2524 297.062L88.6674 296.681L92.9362 289.837H93.7557Z" fill="#DCE8FF"/>
<path d="M94.5753 289.837L89.8346 297.441L89.2524 297.062L93.7558 289.837H94.5753Z" fill="#DDE9FF"/>
<path d="M95.3948 289.837L90.4168 297.822L89.8345 297.441L94.5752 289.837H95.3948Z" fill="#DFEAFF"/>
<path d="M96.2171 289.837L90.999 298.203L90.4168 297.822L95.3948 289.837H96.2171Z" fill="#E1EBFF"/>
<path d="M97.0367 289.837L91.5813 298.585L90.9991 298.203L96.2172 289.837H97.0367Z" fill="#E3ECFF"/>
<path d="M97.8562 289.837L92.1663 298.966L91.5813 298.585L97.0367 289.837H97.8562Z" fill="#E4EDFF"/>
<path d="M98.6758 289.837L92.7486 299.345L92.1663 298.966L97.8563 289.837H98.6758Z" fill="#E6EEFF"/>
<path d="M99.4981 289.837L93.3308 299.726L92.7485 299.345L98.6758 289.837H99.4981Z" fill="#E7EFFF"/>
<path d="M100.318 289.837L93.913 300.107L93.3308 299.726L99.4981 289.837H100.318Z" fill="#E9F0FF"/>
<path d="M100.5 289.837L100.952 290.134L94.4953 300.488L93.913 300.107L100.318 289.837H100.5Z" fill="#EAF1FF"/>
<path d="M100.954 290.132L94.4971 300.487L95.0809 300.868L101.538 290.514L100.954 290.132Z" fill="#ECF2FF"/>
<path d="M101.537 290.513L95.0801 300.867L95.664 301.249L102.121 290.895L101.537 290.513Z" fill="#EDF3FF"/>
<path d="M102.12 290.896L95.6633 301.251L96.2472 301.632L102.704 291.278L102.12 290.896Z" fill="#EEF4FF"/>
<path d="M102.703 291.277L96.2464 301.632L96.8302 302.013L103.287 291.659L102.703 291.277Z" fill="#EFF5FF"/>
<path d="M103.284 291.656L96.8272 302.011L97.411 302.392L103.868 292.038L103.284 291.656Z" fill="#F1F5FF"/>
<path d="M103.869 292.037L97.4118 302.392L97.9956 302.773L104.452 292.419L103.869 292.037Z" fill="#F2F6FF"/>
<path d="M104.452 292.418L97.9949 302.772L98.5788 303.154L105.036 292.8L104.452 292.418Z" fill="#F3F7FF"/>
<path d="M105.032 292.799L98.5753 303.153L99.1591 303.535L105.616 293.18L105.032 292.799Z" fill="#F4F8FF"/>
<path d="M105.615 293.182L99.1584 303.537L99.7422 303.918L106.199 293.564L105.615 293.182Z" fill="#F5F8FF"/>
<path d="M106.196 293.561L99.7392 303.916L100.323 304.297L106.78 293.943L106.196 293.561Z" fill="#F6F9FF"/>
<path d="M106.781 293.94L100.324 304.294L100.908 304.676L107.364 294.321L106.781 293.94Z" fill="#F7F9FF"/>
<path d="M107.364 294.32L100.907 304.675L101.491 305.056L107.948 294.702L107.364 294.32Z" fill="#F7FAFF"/>
<path d="M107.947 294.704L101.49 305.058L102.074 305.44L108.531 295.085L107.947 294.704Z" fill="#F8FBFF"/>
<path d="M108.53 295.085L102.073 305.439L102.657 305.82L109.114 295.466L108.53 295.085Z" fill="#F9FBFF"/>
<path d="M109.113 295.465L102.656 305.82L103.24 306.201L109.697 295.847L109.113 295.465Z" fill="#FAFBFF"/>
<path d="M109.695 295.845L103.239 306.199L103.822 306.581L110.279 296.226L109.695 295.845Z" fill="#FAFCFF"/>
<path d="M110.279 296.225L103.822 306.58L104.406 306.961L110.862 296.607L110.279 296.225Z" fill="#FBFCFF"/>
<path d="M110.862 296.606L104.405 306.961L104.989 307.342L111.446 296.988L110.862 296.606Z" fill="#FBFDFF"/>
<path d="M111.445 296.99L104.988 307.344L105.572 307.726L112.029 297.372L111.445 296.99Z" fill="#FCFDFF"/>
<path d="M112.028 297.371L105.571 307.725L106.155 308.107L112.612 297.752L112.028 297.371Z" fill="#FCFDFF"/>
<path d="M112.61 297.747L106.153 308.102L106.737 308.483L113.194 298.129L112.61 297.747Z" fill="#FDFEFF"/>
<path d="M113.193 298.131L106.736 308.485L107.32 308.867L113.777 298.512L113.193 298.131Z" fill="#FDFEFF"/>
<path d="M113.774 298.512L107.317 308.866L107.901 309.247L114.357 298.893L113.774 298.512Z" fill="#FEFEFF"/>
<path d="M114.357 298.892L107.9 309.247L108.484 309.628L114.941 299.274L114.357 298.892Z" fill="#FEFEFF"/>
<path d="M114.94 299.273L108.483 309.627L109.067 310.009L115.524 299.654L114.94 299.273Z" fill="#FEFEFF"/>
<path d="M115.522 299.653L109.065 310.007L109.649 310.389L116.106 300.034L115.522 299.653Z" fill="#FEFFFF"/>
<path d="M116.105 300.033L109.648 310.388L110.232 310.769L116.689 300.415L116.105 300.033Z" fill="white"/>
<path d="M116.689 300.415L117.272 300.796L110.817 311.145H110.806L110.232 310.77L116.689 300.415Z" fill="white"/>
<path d="M117.272 300.796L117.854 301.177L111.64 311.145H110.817L117.272 300.796Z" fill="white"/>
<path d="M117.854 301.177L118.436 301.559L112.459 311.145H111.64L117.854 301.177Z" fill="white"/>
<path d="M118.436 301.559L119.021 301.937L113.279 311.145H112.459L118.436 301.559Z" fill="white"/>
<path d="M119.021 301.937L119.603 302.319L114.098 311.145H113.279L119.021 301.937Z" fill="white"/>
<path d="M119.603 302.319L120.186 302.7L114.921 311.145H114.098L119.603 302.319Z" fill="white"/>
<path d="M120.186 302.7L124.151 305.29V311.145H114.921L120.186 302.7Z" fill="white"/>
</g>
</g>
<path d="M88.4714 133.151C88.4714 133.151 93.8468 140.162 89.0371 146.681C84.2274 153.203 75.7422 139.781 75.7422 139.781C75.7422 139.781 80.1987 129.457 88.4714 133.149V133.151Z" fill="#112050"/>
<path d="M84.7958 144.808C84.7958 144.808 82.8146 152.048 85.7865 157.259L74.7681 152.847C74.7681 152.847 77.1577 145.212 76.4513 140.413L84.7958 144.808Z" fill="#112050"/>
<path d="M79.6799 285.9C79.6799 285.9 95.646 286.984 96.6532 289.862C97.4479 292.128 87.0504 291.868 82.6022 291.656C81.4542 291.602 80.4995 290.738 80.3036 289.577L79.6827 285.9H79.6799Z" fill="#3DC2B5"/>
<path d="M66.1007 281.411C66.1007 281.411 79.219 278.502 80.527 280.705C81.0761 281.629 80.5574 282.51 79.9034 283.163C79.2163 283.849 78.3057 284.253 77.3509 284.36L66.098 285.645V281.411H66.1007Z" fill="#3DC2B5"/>
<path d="M65.3419 268.328L66.4374 278.389L66.0483 281.575C66.0483 281.575 65.8717 283.058 68.5235 283.168C71.1754 283.276 76.2665 282.055 76.5148 279.897L72.5551 279.883L73.0462 267.752L65.3419 268.331V268.328Z" fill="#112050"/>
<path d="M65.375 268.619C65.375 268.619 69.9364 271.551 73.0131 268.619L75.6649 195L62.7205 196.065C62.7205 196.065 62.1217 219.63 63.2889 231.9C64.4561 244.17 65.375 268.619 65.375 268.619Z" fill="#3DC2B5"/>
<path d="M87.881 197.616L89.28 238.631L86.5206 274.92C83.6039 277.231 79.6772 274.92 79.6772 274.92L78.67 236.385L74.9696 208.377L64.837 203.971L64.5169 195.873L87.8755 197.616H87.881Z" fill="#3DC2B5"/>
<path d="M79.6689 274.48L80.516 282.38L79.6827 285.902C79.6827 285.902 80.6374 288.67 84.9504 288.998C89.2634 289.323 91.5841 287.529 91.5841 287.529L86.5067 286.62L86.297 283.177L86.5592 274.48H79.6716H79.6689Z" fill="#112050"/>
<path d="M76.0539 212.479C75.9132 210.298 74.5914 208.541 73.3497 206.863C72.0335 205.087 70.6096 202.966 71.1284 200.616C71.178 200.395 70.8441 200.299 70.7945 200.522C69.7376 205.33 75.4193 207.985 75.709 212.479C75.7228 212.705 76.0677 212.705 76.0539 212.479Z" fill="#112050"/>
<path d="M61.6691 180.767L75.033 178.878C76.7769 178.632 78.2008 177.197 78.3112 175.398C78.4629 172.932 76.3796 171.079 74.1362 171.398L66.3021 172.505L68.7773 156.643C69.0919 154.623 67.7674 155.688 65.8137 155.27C63.7331 154.824 61.8705 153.135 61.5421 155.25L58.1342 177.07C57.8003 179.205 59.5774 181.061 61.6691 180.764V180.767Z" fill="#E3EDFE"/>
<path d="M84.5833 155.646L73.3056 149.87C68.0764 146.78 61.5394 150.644 61.5394 156.824L63.7607 171.777C64.5913 177.367 64.4892 183.061 63.4544 188.617C62.8115 192.071 62.2182 195.444 62.2182 196.107C62.2182 196.107 60.7667 221.87 61.796 226.31C61.796 226.31 65.2977 230.623 70.8414 230.92L71.9203 220.678L74.2355 232.27C74.2355 232.27 79.6495 237.603 90.7065 237.162L89.6883 206.129C89.622 204.135 89.4399 202.144 89.1392 200.172L88.3748 195.161C88.1182 193.469 88.0464 191.755 88.1596 190.049L89.4841 170.082C90.2264 164.069 89.7104 158.682 84.5806 155.652L84.5833 155.646Z" fill="#E3EDFE"/>
<path d="M85.9107 137.965C85.8169 140.476 85.7231 142.987 85.6292 145.5C85.5271 148.243 85.6789 150.972 85.6375 153.717C79.6909 151.426 73.3939 150.088 67.0445 149.768C67.2377 145.006 67.8006 140.148 69.8646 135.877C71.9259 131.607 75.7257 127.977 80.3284 127.254C81.9592 126.997 83.6204 127.116 85.2374 127.407C87.6326 127.839 91.2171 128.412 92.3981 130.968C92.9997 132.273 92.743 133.999 91.6531 134.914C90.9246 135.524 89.9339 135.728 88.993 135.665C88.1789 135.612 86.7606 134.894 86.1894 135.846C85.9797 136.196 85.9576 136.631 85.9411 137.041C85.93 137.349 85.919 137.657 85.9052 137.965H85.9107Z" fill="#3DC2B5"/>
<path d="M61.5339 157.169C63.4076 164.357 64.3264 171.8 64.2464 179.24C64.2243 181.335 64.1222 183.426 63.9429 185.513C63.9236 185.739 64.2685 185.739 64.2878 185.513C64.9197 178.09 64.5638 170.591 63.2337 163.264C62.8557 161.182 62.3976 159.118 61.865 157.073C61.8071 156.852 61.476 156.945 61.5311 157.166L61.5339 157.169Z" fill="#112050"/>
<path d="M89.6911 206.126C89.6249 204.132 89.4428 202.141 89.142 200.169L88.3776 195.158C88.121 193.466 88.0492 191.752 88.1624 190.046L89.4234 171.042C89.0951 170.641 88.7281 170.274 88.3114 169.958L82.0916 170.605C83.2092 175.867 81.3632 181.301 81.5177 186.685C81.6474 191.19 83.1871 195.557 85.334 199.491C86.6171 201.844 88.1155 204.061 89.6966 206.219V206.126H89.6911Z" fill="#112050"/>
<path d="M89.4207 190.56L106.377 180.835C108.295 179.737 104.57 172.003 102.429 173.232L91.5923 179.446L89.2165 164.267C88.8384 161.849 85.6458 160.911 83.2644 161.417C81.032 161.891 80.3339 161.939 80.6954 164.244L84.4261 188.083C84.7986 190.461 87.3677 191.735 89.4207 190.557V190.56Z" fill="#E3EDFE"/>
<path d="M81.9039 173.415C82.3234 176.274 82.74 179.132 83.1595 181.988C83.3637 183.383 83.5486 184.781 83.7776 186.174C83.9735 187.368 84.2632 188.6 84.9531 189.608C85.5988 190.549 86.5508 191.255 87.6877 191.365C87.9085 191.388 87.9085 191.035 87.6877 191.012C85.2097 190.769 84.3985 187.93 84.0701 185.835C83.6562 183.191 83.2919 180.536 82.9056 177.886C82.6821 176.364 82.4613 174.844 82.2378 173.322C82.2047 173.099 81.8736 173.192 81.9039 173.415Z" fill="#112050"/>
<path d="M99.1338 173.136C96.8628 173.136 94.5918 172.624 92.8616 171.602C91.068 170.543 90.0801 169.088 90.0801 167.506C90.0801 165.925 91.068 164.47 92.8616 163.411C96.3192 161.369 101.946 161.369 105.403 163.411C105.721 163.597 105.828 164.012 105.646 164.334C105.464 164.656 105.058 164.769 104.744 164.583C101.703 162.787 96.5648 162.787 93.5239 164.583C92.158 165.391 91.4047 166.43 91.4047 167.509C91.4047 168.588 92.158 169.628 93.5239 170.435C96.5648 172.232 101.703 172.232 104.744 170.435C105.058 170.249 105.464 170.359 105.646 170.684C105.828 171.009 105.721 171.421 105.403 171.608C103.673 172.63 101.402 173.141 99.1311 173.141L99.1338 173.136Z" fill="#3DC2B5"/>
<path d="M97.583 166.261C96.4434 167.108 95.2099 167.213 94.3324 166.679C94.0261 166.492 93.8136 166.255 93.7557 166.023L94.5642 165.758C94.5973 165.944 94.7408 166.088 94.9395 166.21C95.4196 166.501 96.057 166.453 96.7138 165.992C96.3523 166.032 95.9991 165.958 95.6983 165.775C95.1409 165.436 95.1078 164.868 95.7287 164.405C96.402 163.905 97.3098 163.885 97.9197 164.258C98.7199 164.747 98.6426 165.47 97.5802 166.258L97.583 166.261ZM97.4092 165.379C97.6906 165.17 97.7127 164.902 97.3954 164.707C97.1111 164.532 96.7248 164.552 96.4213 164.775C96.1205 164.998 96.1205 165.261 96.4213 165.442C96.7138 165.619 97.1249 165.588 97.4119 165.377L97.4092 165.379Z" fill="#112050"/>
<path d="M98.9435 168.574L98.3226 169.034L96.1371 167.704L96.6311 167.337L98.9462 167.125C99.4816 167.074 99.694 166.978 99.8541 166.857C100.113 166.665 100.105 166.456 99.8017 166.272C99.5533 166.119 99.236 166.074 98.8745 166.151L98.7448 165.588C99.3408 165.447 99.9838 165.518 100.505 165.834C101.151 166.227 101.203 166.769 100.605 167.213C100.285 167.45 99.9148 167.619 99.0814 167.69L97.7017 167.817L98.9462 168.574H98.9435Z" fill="#112050"/>
<path d="M104.327 168.241L104.818 168.54L99.5478 169.783L99.0566 169.483L104.327 168.241ZM101.016 167.399C101.57 166.986 102.222 166.905 102.644 167.162C103.066 167.419 103.011 167.856 102.451 168.272C101.891 168.687 101.248 168.769 100.828 168.512C100.406 168.255 100.461 167.811 101.019 167.399H101.016ZM101.427 169.749C101.982 169.336 102.633 169.255 103.05 169.509C103.472 169.766 103.414 170.209 102.859 170.622C102.304 171.034 101.653 171.116 101.231 170.859C100.814 170.605 100.87 170.161 101.424 169.749H101.427ZM102.034 168.02C102.387 167.758 102.437 167.56 102.255 167.45C102.078 167.342 101.78 167.396 101.43 167.653C101.082 167.913 101.032 168.116 101.209 168.224C101.391 168.334 101.681 168.28 102.034 168.02ZM102.445 170.37C102.793 170.11 102.848 169.91 102.666 169.8C102.489 169.692 102.194 169.74 101.841 170.003C101.488 170.266 101.444 170.466 101.62 170.574C101.802 170.684 102.095 170.627 102.445 170.37Z" fill="#112050"/>
<path d="M109.482 132.849L132.636 119.141C133.279 118.76 133.991 118.752 134.595 119.003H134.601C134.802 119.088 134.993 119.204 135.164 119.342L137.349 120.723L136.003 125.169V140.823C136.003 142.701 135.023 144.438 133.431 145.379L112.592 158.877L109.896 166.252L107.288 164.594C107.081 164.526 106.91 164.34 106.91 164.063V137.402C106.91 135.524 107.89 133.787 109.482 132.846V132.849Z" fill="#112050"/>
<path d="M135.373 120.862L112.219 134.569C110.63 135.507 109.647 137.244 109.647 139.125V165.786C109.647 166.382 110.434 166.566 110.688 166.032L113.668 161.202C114.007 160.49 114.548 159.897 115.221 159.502L136.168 147.102C137.757 146.164 138.74 144.427 138.74 142.546V122.853C138.74 121.085 136.869 119.978 135.373 120.862Z" fill="#3DC2B5"/>
<path d="M129.86 130.592C129.832 131.485 129.374 132.298 128.817 132.62C128.089 133.038 127.658 132.544 127.699 131.137C127.744 129.629 128.32 128.471 129.118 128.013C129.397 127.852 129.667 127.802 129.846 127.889L129.598 128.762C129.454 128.686 129.286 128.725 129.11 128.827C128.668 129.081 128.373 129.674 128.329 130.522C128.491 130.177 128.718 129.917 128.994 129.759C129.504 129.465 129.888 129.773 129.863 130.595L129.86 130.592ZM129.267 130.985C129.278 130.587 129.11 130.431 128.836 130.589C128.569 130.745 128.37 131.126 128.359 131.507C128.348 131.88 128.511 132.058 128.803 131.889C129.063 131.739 129.253 131.386 129.264 130.985H129.267Z" fill="white"/>
<path d="M132.032 129.386C132.01 130.124 131.645 130.994 130.895 131.426C130.525 131.638 130.15 131.688 129.901 131.539L130.161 130.629C130.354 130.765 130.63 130.745 130.903 130.587C131.209 130.412 131.405 130.095 131.414 129.742C131.425 129.412 131.281 129.29 130.934 129.491L130.655 129.652L130.674 128.985L131.248 127.658L130.122 128.305L130.147 127.494L131.996 126.429L131.977 127.084L131.347 128.55C131.819 128.401 132.046 128.748 132.026 129.392L132.032 129.386Z" fill="white"/>
<path d="M132.288 127.395C132.31 126.661 132.595 126.037 132.981 125.813C133.367 125.593 133.621 125.898 133.599 126.641C133.577 127.384 133.295 128 132.909 128.22C132.523 128.44 132.266 128.13 132.288 127.395ZM134.554 124.96L135.004 124.703L133.069 130.104L132.619 130.361L134.554 124.96ZM133.221 126.858C133.235 126.39 133.133 126.229 132.967 126.325C132.804 126.418 132.686 126.714 132.672 127.175C132.658 127.635 132.766 127.802 132.926 127.709C133.091 127.613 133.207 127.325 133.221 126.858ZM134.024 128.42C134.046 127.686 134.333 127.062 134.714 126.842C135.1 126.621 135.357 126.932 135.335 127.666C135.313 128.401 135.028 129.025 134.642 129.248C134.261 129.468 134.002 129.155 134.024 128.42ZM134.951 127.887C134.965 127.426 134.863 127.257 134.697 127.353C134.534 127.446 134.416 127.737 134.402 128.203C134.388 128.669 134.496 128.83 134.656 128.737C134.821 128.641 134.937 128.347 134.951 127.887Z" fill="white"/>
<path d="M130.379 135.23L130.36 135.886L129.267 140.159L128.602 140.541L129.656 136.453L128.781 136.956L128.759 137.668L128.215 137.982L128.262 136.448L130.379 135.23Z" fill="white"/>
<path d="M132.493 136.953C132.471 137.727 132.106 138.597 131.35 139.032C130.983 139.244 130.605 139.295 130.357 139.145L130.622 138.233C130.815 138.368 131.085 138.351 131.361 138.193C131.668 138.018 131.863 137.696 131.872 137.34C131.883 136.998 131.753 136.851 131.273 137.125L130.597 137.515L130.807 134.982L132.418 134.055L132.393 134.866L131.292 135.499L131.226 136.352L131.441 136.227C132.222 135.778 132.515 136.179 132.493 136.953Z" fill="white"/>
<path d="M132.713 135.018C132.735 134.284 133.02 133.66 133.406 133.437C133.792 133.216 134.046 133.521 134.024 134.264C134.002 135.007 133.72 135.623 133.334 135.843C132.948 136.064 132.691 135.753 132.713 135.018ZM134.979 132.584L135.429 132.327L133.494 137.727L133.044 137.984L134.979 132.584ZM133.646 134.485C133.66 134.016 133.558 133.855 133.392 133.951C133.229 134.044 133.111 134.341 133.097 134.801C133.083 135.261 133.191 135.428 133.351 135.335C133.516 135.239 133.632 134.951 133.646 134.485ZM134.449 136.044C134.471 135.309 134.758 134.685 135.139 134.465C135.525 134.245 135.782 134.555 135.76 135.29C135.738 136.024 135.453 136.648 135.067 136.871C134.686 137.092 134.427 136.778 134.449 136.044ZM135.379 135.51C135.393 135.05 135.291 134.88 135.125 134.976C134.962 135.069 134.844 135.36 134.83 135.826C134.816 136.295 134.924 136.453 135.084 136.36C135.249 136.264 135.365 135.97 135.379 135.51Z" fill="white"/>
<path d="M130.729 145.819C130.707 146.593 130.343 147.463 129.587 147.898C129.22 148.11 128.842 148.161 128.593 148.011L128.858 147.099C129.052 147.234 129.322 147.218 129.598 147.059C129.904 146.884 130.1 146.562 130.108 146.206C130.119 145.865 129.99 145.718 129.51 145.992L128.834 146.381L129.043 143.848L130.655 142.921L130.63 143.732L129.529 144.365L129.463 145.218L129.678 145.093C130.459 144.644 130.751 145.045 130.729 145.819Z" fill="white"/>
<path d="M133.113 143.56C133.069 145.068 132.495 146.226 131.695 146.684C131.416 146.845 131.151 146.893 130.972 146.805L131.22 145.932C131.358 146.011 131.527 145.969 131.709 145.864C132.148 145.613 132.446 145.017 132.49 144.164C132.327 144.509 132.098 144.777 131.822 144.935C131.312 145.229 130.928 144.921 130.953 144.099C130.98 143.207 131.438 142.393 131.996 142.071C132.727 141.65 133.155 142.147 133.113 143.554V143.56ZM132.454 143.192C132.465 142.82 132.302 142.642 132.012 142.808C131.753 142.958 131.563 143.311 131.552 143.712C131.541 144.11 131.709 144.266 131.982 144.108C132.25 143.952 132.443 143.574 132.454 143.192Z" fill="white"/>
<path d="M133.392 142.481C133.414 141.746 133.698 141.122 134.085 140.899C134.471 140.679 134.725 140.984 134.703 141.727C134.681 142.47 134.399 143.085 134.013 143.306C133.627 143.526 133.37 143.215 133.392 142.481ZM135.658 140.046L136.107 139.789L134.173 145.19L133.723 145.447L135.658 140.046ZM134.325 141.944C134.339 141.475 134.237 141.314 134.071 141.41C133.908 141.504 133.79 141.8 133.776 142.261C133.762 142.721 133.87 142.888 134.03 142.794C134.195 142.698 134.311 142.41 134.325 141.944ZM135.128 143.506C135.15 142.772 135.437 142.148 135.818 141.927C136.204 141.707 136.461 142.018 136.439 142.752C136.417 143.486 136.132 144.111 135.746 144.334C135.365 144.554 135.106 144.241 135.128 143.506ZM136.055 142.972C136.069 142.512 135.967 142.342 135.801 142.438C135.638 142.532 135.52 142.823 135.506 143.289C135.492 143.755 135.6 143.916 135.76 143.823C135.925 143.726 136.041 143.433 136.055 142.972Z" fill="white"/>
<path d="M120.315 133.561L112.178 138.371C111.932 138.518 111.778 138.787 111.778 139.077V141.264C111.778 141.637 112.172 141.868 112.487 141.682L120.315 137.055V133.558V133.561Z" fill="white"/>
<path d="M112.252 141.876C112.15 141.876 112.048 141.848 111.954 141.794C111.767 141.684 111.656 141.487 111.656 141.266V139.08C111.656 138.744 111.833 138.43 112.117 138.264L125.655 130.262C125.842 130.152 126.066 130.152 126.251 130.262C126.438 130.372 126.549 130.57 126.549 130.79V132.976C126.549 133.312 126.372 133.626 126.088 133.792L112.55 141.794C112.456 141.851 112.354 141.876 112.252 141.876ZM125.953 130.431C125.892 130.431 125.834 130.448 125.779 130.479L112.241 138.481C112.034 138.605 111.905 138.834 111.905 139.08V141.266C111.905 141.396 111.971 141.512 112.078 141.577C112.189 141.642 112.318 141.642 112.429 141.577L125.967 133.575C126.174 133.451 126.303 133.222 126.303 132.976V130.79C126.303 130.66 126.237 130.544 126.129 130.479C126.074 130.448 126.013 130.431 125.956 130.431H125.953Z" fill="#112050"/>
<path d="M123.403 139.332L112.178 145.967C111.932 146.113 111.778 146.382 111.778 146.673V148.859C111.778 149.232 112.172 149.463 112.487 149.277L123.4 142.826V139.329L123.403 139.332Z" fill="white"/>
<path d="M112.252 149.472C112.15 149.472 112.048 149.443 111.954 149.39C111.767 149.279 111.656 149.082 111.656 148.861V146.675C111.656 146.339 111.833 146.026 112.117 145.859L125.655 137.857C125.842 137.747 126.066 137.747 126.251 137.857C126.438 137.967 126.549 138.165 126.549 138.385V140.571C126.549 140.908 126.372 141.221 126.088 141.388L112.55 149.39C112.456 149.446 112.354 149.472 112.252 149.472ZM125.953 138.027C125.892 138.027 125.834 138.043 125.779 138.075L112.241 146.076C112.034 146.201 111.905 146.429 111.905 146.675V148.861C111.905 148.991 111.971 149.107 112.078 149.172C112.189 149.237 112.318 149.237 112.429 149.172L125.967 141.17C126.174 141.046 126.303 140.817 126.303 140.571V138.385C126.303 138.255 126.237 138.139 126.129 138.075C126.074 138.043 126.013 138.027 125.956 138.027H125.953Z" fill="#112050"/>
<path d="M118.919 149.576L112.178 153.561C111.932 153.708 111.778 153.977 111.778 154.268V156.454C111.778 156.827 112.172 157.058 112.487 156.872L118.919 153.07V149.573V149.576Z" fill="white"/>
<path d="M112.252 157.067C112.15 157.067 112.048 157.039 111.954 156.985C111.767 156.875 111.656 156.677 111.656 156.457V154.271C111.656 153.935 111.833 153.621 112.117 153.454L125.655 145.452C125.842 145.342 126.066 145.342 126.251 145.452C126.438 145.563 126.549 145.76 126.549 145.981V148.167C126.549 148.503 126.372 148.817 126.088 148.983L112.55 156.985C112.456 157.042 112.354 157.067 112.252 157.067ZM125.953 145.622C125.892 145.622 125.834 145.639 125.779 145.67L112.241 153.672C112.034 153.796 111.905 154.025 111.905 154.271V156.457C111.905 156.587 111.971 156.703 112.078 156.768C112.189 156.833 112.318 156.833 112.429 156.768L125.967 148.766C126.174 148.641 126.303 148.413 126.303 148.167V145.981C126.303 145.851 126.237 145.735 126.129 145.67C126.074 145.639 126.013 145.622 125.956 145.622H125.953Z" fill="#112050"/>
</svg>
