<?xml version="1.0" encoding="utf-8"?>
<!-- Generator: Adobe Illustrator 16.0.0, SVG Export Plug-In . SVG Version: 6.00 Build 0)  -->
<!DOCTYPE svg PUBLIC "-//W3C//DTD SVG 1.1//EN" "http://www.w3.org/Graphics/SVG/1.1/DTD/svg11.dtd">
<svg version="1.1" id="Layer_1" xmlns="http://www.w3.org/2000/svg" xmlns:xlink="http://www.w3.org/1999/xlink" x="0px" y="0px"
	 width="250px" height="250px" viewBox="0 0 250 250" enable-background="new 0 0 250 250" xml:space="preserve">
<path fill="#3BBDB1" d="M224.414,68.006c-1.203-2.012-2.746-3.767-4.6-5.203L145.699,5.057c-0.844-0.662-1.896-1.023-2.971-1.023
	H116.2c-3.643,0-7.165,1.101-10.171,3.169L11.812,72.042c-0.954,0.649-1.641,1.631-1.936,2.754l-9.175,34.759
	c-0.933,3.521-0.845,7.209,0.236,10.686l32.061,102.455l0.252,0.811l32.137,21.665c0.461,0.137,0.889,0.271,1.354,0.41h115.229
	c0.537,0,1.062-0.178,1.486-0.518l25.258-19.79c2.672-2.095,4.664-4.907,5.754-8.12L249.93,112.44
	c0.231-0.667,0.146-1.411-0.21-2.019L224.414,68.006z M142.775,10.02c0.436-0.322,1.029-0.312,1.451,0.022l72.619,56.58
	c1.373,1.062,2.52,2.363,3.416,3.87l16.07,26.934c0.674,1.135-0.691,2.38-1.756,1.602L144.285,32.4c-0.422-0.31-1-0.317-1.43-0.005
	L50.565,99.457c-2,1.455-4.824,0.525-5.586-1.826l-4.056-12.603c-0.158-0.496,0.022-1.045,0.442-1.348L142.775,10.02z
	 M124.696,52.603l74.498,54.122c0.42,0.308,0.592,0.857,0.434,1.353l-28.451,87.58c-0.162,0.505-0.625,0.837-1.156,0.837H77.951
	c-0.525,0-0.984-0.332-1.155-0.837l-28.452-87.58c-0.161-0.496,0.02-1.035,0.444-1.353l74.487-54.122
	C123.7,52.303,124.276,52.303,124.696,52.603z M16.014,75.015l92.759-63.833c2.195-1.511,4.764-2.312,7.425-2.312L132.4,8.865
	c1.176,0,1.658,1.506,0.711,2.195L35.677,81.836c-0.415,0.306-0.596,0.853-0.435,1.357l7.155,22.203l-0.007,0.005l28.057,86.343
	c0.767,2.334-0.988,4.745-3.452,4.745H53.802c-0.529,0-0.998-0.349-1.154-0.85L15.547,76.377
	C15.389,75.868,15.575,75.323,16.014,75.015z M36.795,218.643L4.413,115.152c-0.005-0.234-0.01-0.444-0.018-0.662l7.161-27.122
	c0.308-1.172,1.963-1.206,2.326-0.056l35.203,113.164c0.153,0.505,0.622,0.845,1.152,0.845h114.053c2.465,0,4.209,2.419,3.441,4.758
	l-4.102,12.581c-0.16,0.5-0.625,0.827-1.152,0.827H37.95C37.417,219.482,36.952,219.131,36.795,218.643z M180.488,239.912
	c-0.158,0.501-0.625,0.833-1.139,0.833H68.954c-0.923-0.276-1.782-0.535-2.707-0.823L46.39,226.531
	c-0.991-0.662-0.516-2.202,0.674-2.202H165.99c0.531,0,0.99-0.34,1.152-0.84l7.77-23.831l-2.252-0.732v-0.029l2.295,0.762
	l27.516-84.672c0.76-2.351,3.588-3.264,5.574-1.824l10.699,7.771c0.422,0.308,0.6,0.857,0.436,1.357L180.488,239.912z
	 M244.496,113.397l-35.693,105.417c-0.141,0.19-0.268,0.381-0.406,0.557l-18.5,14.51c-0.938,0.734-2.264-0.188-1.893-1.341
	l36.877-112.089c0.168-0.505-0.012-1.055-0.441-1.362l-20.279-14.739l-0.002,0.007l-72.018-52.33c-1.996-1.445-1.996-4.419,0-5.867
	l10.695-7.769c0.422-0.31,1.004-0.31,1.43,0.005l99.803,73.636C244.496,112.345,244.666,112.901,244.496,113.397z"/>
</svg>
