<?xml version="1.0" encoding="utf-8"?>
<!-- Generator: Adobe Illustrator 16.0.0, SVG Export Plug-In . SVG Version: 6.00 Build 0)  -->
<!DOCTYPE svg PUBLIC "-//W3C//DTD SVG 1.1//EN" "http://www.w3.org/Graphics/SVG/1.1/DTD/svg11.dtd">
<svg version="1.1" id="Layer_1" xmlns="http://www.w3.org/2000/svg" xmlns:xlink="http://www.w3.org/1999/xlink" x="0px" y="0px"
	 width="500px" height="86px" viewBox="0 0 500 86" enable-background="new 0 0 500 86" xml:space="preserve">
<g>
	<path fill="#3BBDB1" d="M138.582,41.646l-7.152-1.562c-3.394-0.732-5.046-2.66-5.046-5.318c0-3.025,2.936-5.871,7.339-5.871
		c6.972,0,8.808,5.045,9.174,7.34l7.612-2.844c-0.916-3.943-4.679-11.837-16.786-11.837c-8.623,0-15.688,6.427-15.688,13.944
		c0,6.236,4.129,10.916,11.01,12.383l7.523,1.652c3.667,0.822,5.687,2.936,5.687,5.686c0,3.121-2.66,5.873-7.522,5.873
		c-6.239,0-9.724-3.67-10.274-8.258l-7.796,2.756c0.733,5.043,5.871,12.844,17.979,12.844c10.917,0,16.146-7.434,16.146-13.67
		C150.785,48.252,146.567,43.386,138.582,41.646z"/>
	<path fill="#3BBDB1" d="M204.541,21.648c-5.597,0-11.286,2.02-14.771,8.35c-2.386-5.689-7.706-8.35-13.21-8.35
		c-5.138,0-10.642,2.293-13.394,7.156v-5.873h-8.255v44.125h8.531V40.453c0-6.605,4.128-11.191,10.274-11.191
		c6.603,0,9.355,4.402,9.355,10.092v27.703h8.623V40.363c0-6.332,4.129-11.102,10.184-11.102c6.512,0,9.356,4.312,9.356,10.09
		v27.705h8.532V38.436C219.769,26.877,212.246,21.648,204.541,21.648z"/>
	<path fill="#3BBDB1" d="M265.441,22.934h-8.526v6.238c-1.47-3.578-5.687-7.43-13.481-7.43c-12.477,0-20.916,10.457-20.916,22.932
		c0,13.119,7.979,23.576,20.916,23.576c6.879,0,11.557-3.668,13.666-7.889v0.73c0,2.662,0.274,4.951,0.457,5.965h8.349
		c-0.093-0.828-0.464-4.221-0.464-8.166V22.934L265.441,22.934z M244.254,60.635c-8.254,0-12.932-6.881-12.932-15.961
		c0-9.082,5.137-15.318,13.025-15.318c7.892,0,12.657,6.236,12.657,15.318C257.006,53.754,252.146,60.635,244.254,60.635z"/>
	<path fill="#3BBDB1" d="M280.764,30.639v-7.705h-8.438v44.123h8.624V44.951c0-9.727,4.858-13.579,12.108-13.579
		c1.189,0,2.477,0.092,3.756,0.274v-9.174c-0.452-0.091-1.646-0.271-2.838-0.271C289.479,22.201,283.975,23.854,280.764,30.639z"/>
	<path fill="#3BBDB1" d="M317.818,8.99h-7.887v7.154c0,3.854-2.021,6.789-6.785,6.789h-2.387v7.797h8.438v24.219
		c0,7.979,4.766,12.566,12.289,12.566c2.936,0,5.137-0.549,5.871-0.824v-7.34c-0.734,0.186-2.295,0.365-3.396,0.365
		c-4.494,0-6.145-2.018-6.145-6.055V30.73h9.541v-7.799h-9.541L317.818,8.99L317.818,8.99z"/>
	<rect x="333.322" y="0.643" fill="#3BBDB1" width="8.627" height="66.414"/>
	<path fill="#3BBDB1" d="M370.018,21.557c-13.211,0-22.564,10-22.564,23.396c0,13.48,9.354,23.48,22.564,23.48
		c13.207,0,22.568-10,22.568-23.48C392.586,31.557,383.225,21.557,370.018,21.557z M370.018,60.729
		c-7.344,0-13.76-5.508-13.76-15.775c0-10.188,6.416-15.688,13.76-15.688c7.338,0,13.76,5.504,13.76,15.688
		C383.773,55.221,377.352,60.729,370.018,60.729z"/>
	<path fill="#3BBDB1" d="M428.813,29.078c-2.2-4.402-6.786-6.971-13.573-6.971c-12.109,0-20.275,9.539-20.275,21.464
		c0,12.477,8.531,21.375,20.275,21.375c6.603,0,11.373-3.213,13.478-7.246v6.328c0,9.539-4.219,14.311-13.478,14.311
		c-6.701,0-11.377-4.68-12.02-10.824l-8.352,1.926c1.104,9.449,9.355,16.42,20.367,16.42c16.601,0,22.104-10.916,22.104-22.104
		V22.936h-8.531L428.813,29.078L428.813,29.078z M416.523,57.701c-7.795,0-12.752-5.506-12.752-14.129
		c0-8.529,5.139-14.125,12.752-14.125c7.43,0,12.564,5.596,12.564,14.125C429.091,52.104,423.953,57.701,416.523,57.701z"/>
	<rect x="443.767" y="22.934" fill="#3BBDB1" width="8.528" height="44.123"/>
	<path fill="#3BBDB1" d="M447.984,0c-3.396,0-6.145,2.754-6.145,6.236c0,3.396,2.748,6.146,6.145,6.146
		c3.487,0,6.233-2.752,6.233-6.146C454.221,2.754,451.476,0,447.984,0z"/>
	<path fill="#3BBDB1" d="M492.383,51.369c-1.008,3.486-4.037,9.082-12.287,9.082c-7.155,0-13.484-5.41-13.484-15.502
		c0-10.273,6.415-15.412,13.391-15.412c7.521,0,10.734,5.047,11.836,9.355l7.795-3.305c-1.834-6.693-7.889-14.033-19.631-14.033
		c-12.567,0-22.2,9.633-22.2,23.395c0,13.395,9.444,23.484,22.297,23.484c11.464,0,17.792-7.434,19.901-13.764L492.383,51.369z"/>
	<path fill="#3BBDB1" d="M78.827,22.492c-0.423-0.707-0.965-1.324-1.616-1.828L51.17,0.375c-0.297-0.232-0.667-0.359-1.044-0.359
		h-9.32c-1.28,0-2.518,0.387-3.573,1.113L4.13,23.91c-0.336,0.229-0.577,0.572-0.681,0.967L0.226,37.09
		c-0.328,1.236-0.297,2.533,0.083,3.754l11.264,35.998l0.089,0.285l11.291,7.611c0.162,0.049,0.312,0.096,0.476,0.145h40.485
		c0.188,0,0.373-0.062,0.522-0.182l8.874-6.953c0.939-0.736,1.639-1.725,2.022-2.854l12.459-36.791
		c0.081-0.234,0.051-0.496-0.074-0.709L78.827,22.492z M50.143,2.119c0.154-0.113,0.362-0.109,0.511,0.008l25.514,19.879
		c0.482,0.373,0.885,0.83,1.2,1.359l5.646,9.463c0.237,0.398-0.243,0.836-0.617,0.562L50.673,9.982
		c-0.148-0.109-0.352-0.111-0.502-0.002L17.745,33.542c-0.702,0.511-1.695,0.185-1.963-0.642l-1.424-4.428
		c-0.056-0.175,0.007-0.367,0.155-0.474L50.143,2.119z M43.791,17.08l26.173,19.016c0.148,0.107,0.209,0.301,0.153,0.475
		l-9.996,30.771c-0.057,0.178-0.219,0.295-0.406,0.295H27.367c-0.185,0-0.346-0.117-0.406-0.295L16.965,36.57
		c-0.057-0.174,0.007-0.363,0.156-0.475L43.292,17.08C43.441,16.975,43.643,16.975,43.791,17.08z M5.606,24.955l32.59-22.428
		c0.772-0.531,1.674-0.812,2.609-0.812l5.693-0.002c0.413,0,0.583,0.529,0.25,0.771L12.515,27.352
		c-0.147,0.107-0.21,0.299-0.153,0.477l2.514,7.801l-0.003,0.002l9.858,30.336c0.269,0.82-0.347,1.668-1.213,1.668h-4.635
		c-0.186,0-0.351-0.123-0.406-0.299L5.442,25.434C5.386,25.254,5.452,25.062,5.606,24.955z M12.907,75.418L1.53,39.057
		c-0.001-0.082-0.003-0.156-0.006-0.232l2.516-9.529c0.108-0.412,0.689-0.424,0.817-0.02l12.368,39.76
		c0.055,0.178,0.219,0.297,0.405,0.297h40.072c0.867,0,1.479,0.85,1.21,1.672l-1.441,4.42c-0.057,0.176-0.219,0.291-0.405,0.291
		H13.313C13.126,75.713,12.962,75.59,12.907,75.418z M63.394,82.891c-0.056,0.176-0.219,0.293-0.4,0.293H24.206
		c-0.324-0.098-0.626-0.188-0.951-0.289l-6.976-4.705c-0.349-0.232-0.182-0.773,0.236-0.773h41.784c0.187,0,0.348-0.119,0.404-0.295
		l2.731-8.373l-0.792-0.258v-0.01l0.806,0.268l9.668-29.75c0.267-0.826,1.26-1.146,1.958-0.641l3.759,2.73
		c0.149,0.107,0.212,0.301,0.154,0.477L63.394,82.891z M85.882,38.439L73.341,75.479c-0.049,0.066-0.094,0.133-0.143,0.195
		l-6.5,5.098c-0.329,0.258-0.795-0.066-0.665-0.471l12.957-39.383c0.059-0.178-0.004-0.371-0.155-0.479l-7.125-5.179l-0.001,0.003
		L46.406,16.878c-0.701-0.508-0.701-1.553,0-2.062l3.757-2.729c0.149-0.108,0.353-0.108,0.503,0.002L85.731,37.96
		C85.881,38.07,85.942,38.266,85.882,38.439z"/>
</g>
</svg>
