<svg xmlns="http://www.w3.org/2000/svg" viewBox="0 0 730.51 392"><defs><style>.cls-1{fill:#3ebeb1;}.cls-2{fill:#fff;}.cls-3{fill:#ff8232;}.cls-4,.cls-6,.cls-7{fill:none;stroke-miterlimit:10;}.cls-4{stroke:#fddf26;stroke-width:2px;}.cls-5{fill:#fddf26;}.cls-6,.cls-7{stroke:#ff8232;stroke-linecap:round;stroke-width:3px;}.cls-7{stroke-dasharray:12.16 12.16;}</style></defs><title>Asset 2</title><g id="Layer_2" data-name="Layer 2"><g id="outlined"><path class="cls-1" d="M399.51,101h-12a1.5,1.5,0,0,0,0,3h12a1.5,1.5,0,0,0,0-3Zm-24,0h-12a1.5,1.5,0,0,0,0,3h12a1.5,1.5,0,0,0,0-3Zm-24,0h-12a1.5,1.5,0,0,0,0,3h12a1.5,1.5,0,0,0,0-3Zm-24,0h-12a1.5,1.5,0,0,0,0,3h12a1.5,1.5,0,0,0,0-3Zm-24,0h-12a1.5,1.5,0,0,0,0,3h12a1.5,1.5,0,0,0,0-3Zm-24,0h-12a1.5,1.5,0,0,0,0,3h12a1.5,1.5,0,0,0,0-3Zm-24,0h-12a1.5,1.5,0,0,0,0,3h12a1.5,1.5,0,0,0,0-3Zm-24,0h-12a1.5,1.5,0,0,0,0,3h12a1.5,1.5,0,1,0,0-3Zm-24,0h-12a1.5,1.5,0,0,0,0,3h12a1.5,1.5,0,1,0,0-3Zm-24,0h-12a1.5,1.5,0,0,0,0,3h12a1.5,1.5,0,1,0,0-3Zm-24,0h-12a1.5,1.5,0,0,0,0,3h12a1.5,1.5,0,1,0,0-3Zm-24,0h-12a1.5,1.5,0,1,0,0,3h12a1.5,1.5,0,0,0,0-3Zm-96,0h-12a1.5,1.5,0,1,0,0,3h12a1.5,1.5,0,0,0,0-3Zm-24,0H4.14a4.48,4.48,0,0,0-.64.1A1.5,1.5,0,0,0,4.16,104a1.51,1.51,0,0,1,.33,0h11a1.5,1.5,0,0,0,0-3Zm-14,8.92a1.5,1.5,0,0,0-1.5,1.5v12a1.5,1.5,0,0,0,3,0v-12a1.5,1.5,0,0,0-1.5-1.5Zm0,24a1.5,1.5,0,0,0-1.5,1.5v12a1.5,1.5,0,0,0,3,0v-12a1.5,1.5,0,0,0-1.5-1.5Zm0,24a1.5,1.5,0,0,0-1.5,1.5v12a1.5,1.5,0,0,0,3,0v-12a1.5,1.5,0,0,0-1.5-1.5Zm0,24a1.5,1.5,0,0,0-1.5,1.5v12a1.5,1.5,0,0,0,3,0v-12a1.5,1.5,0,0,0-1.5-1.5Zm0,24a1.5,1.5,0,0,0-1.5,1.5v12a1.5,1.5,0,0,0,3,0v-12a1.5,1.5,0,0,0-1.5-1.5Zm0,24a1.5,1.5,0,0,0-1.5,1.5v12a1.5,1.5,0,0,0,3,0v-12a1.5,1.5,0,0,0-1.5-1.5Zm0,24a1.5,1.5,0,0,0-1.5,1.5v12a1.5,1.5,0,0,0,3,0v-12a1.5,1.5,0,0,0-1.5-1.5Zm0,24a1.5,1.5,0,0,0-1.5,1.5v12a1.5,1.5,0,0,0,3,0v-12a1.5,1.5,0,0,0-1.5-1.5ZM18.34,296h-12a1.5,1.5,0,1,0,0,3h12a1.5,1.5,0,1,0,0-3Zm24,0h-12a1.5,1.5,0,0,0,0,3h12a1.5,1.5,0,0,0,0-3Zm24,0h-12a1.5,1.5,0,0,0,0,3h12a1.5,1.5,0,0,0,0-3Zm24,0h-12a1.5,1.5,0,1,0,0,3h12a1.5,1.5,0,0,0,0-3Zm24,0h-12a1.5,1.5,0,0,0,0,3h12a1.5,1.5,0,0,0,0-3Zm24,0h-12a1.5,1.5,0,0,0,0,3h12a1.5,1.5,0,0,0,0-3Zm24,0h-12a1.5,1.5,0,0,0,0,3h12a1.5,1.5,0,0,0,0-3Zm24,0h-12a1.5,1.5,0,0,0,0,3h12a1.5,1.5,0,1,0,0-3Zm24,0h-12a1.5,1.5,0,0,0,0,3h12a1.5,1.5,0,1,0,0-3Zm24,0h-12a1.5,1.5,0,0,0,0,3h12a1.5,1.5,0,1,0,0-3Zm24,0h-12a1.5,1.5,0,0,0,0,3h12a1.5,1.5,0,1,0,0-3Zm24,0h-12a1.5,1.5,0,0,0,0,3h12a1.5,1.5,0,1,0,0-3Zm24,0h-12a1.5,1.5,0,0,0,0,3h12a1.5,1.5,0,1,0,0-3Zm24,0h-12a1.5,1.5,0,0,0,0,3h12a1.5,1.5,0,1,0,0-3Zm24,0h-12a1.5,1.5,0,0,0,0,3h12a1.5,1.5,0,1,0,0-3Zm24,0h-12a1.5,1.5,0,0,0,0,3h12a1.5,1.5,0,1,0,0-3Zm22.93-.57a1.49,1.49,0,0,0-.88.29,1.48,1.48,0,0,1-.88.29h-9.17a1.5,1.5,0,0,0,0,3h10.14a4.47,4.47,0,0,0,1.68-.76,1.5,1.5,0,0,0-.89-2.71Zm1.23-22.19a1.5,1.5,0,0,0-1.5,1.5v12a1.5,1.5,0,0,0,3,0v-12a1.5,1.5,0,0,0-1.5-1.5Zm0-24a1.5,1.5,0,0,0-1.5,1.5v12a1.5,1.5,0,0,0,3,0v-12a1.5,1.5,0,0,0-1.5-1.5Zm0-24a1.5,1.5,0,0,0-1.5,1.5v12a1.5,1.5,0,0,0,3,0v-12a1.5,1.5,0,0,0-1.5-1.5Zm0-24a1.5,1.5,0,0,0-1.5,1.5v12a1.5,1.5,0,0,0,3,0v-12a1.5,1.5,0,0,0-1.5-1.5Zm0-24a1.5,1.5,0,0,0-1.5,1.5v12a1.5,1.5,0,0,0,3,0v-12a1.5,1.5,0,0,0-1.5-1.5Zm0-24a1.5,1.5,0,0,0-1.5,1.5v12a1.5,1.5,0,0,0,3,0v-12a1.5,1.5,0,0,0-1.5-1.5Zm0-24a1.5,1.5,0,0,0-1.5,1.5v12a1.5,1.5,0,0,0,3,0v-12a1.5,1.5,0,0,0-1.5-1.5Zm0-24a1.5,1.5,0,0,0-1.5,1.5v12a1.5,1.5,0,0,0,3,0v-12a1.5,1.5,0,0,0-1.5-1.5Z"/><rect class="cls-1" x="15" y="116" width="374" height="168" rx="4.49" ry="4.49"/><rect class="cls-2" x="210" y="148" width="160" height="20" rx="3.74" ry="3.74"/><rect class="cls-2" x="210" y="173" width="160" height="20" rx="3.74" ry="3.74"/><rect class="cls-2" x="210" y="198" width="160" height="20" rx="3.74" ry="3.74"/><rect class="cls-2" x="210" y="223" width="160" height="20" rx="3.74" ry="3.74"/><rect class="cls-2" x="210" y="248" width="160" height="20" rx="3.74" ry="3.74"/><path class="cls-2" d="M43.33,192.48V173.06h12v3.07H46.62v5.15H54.5v3H46.62v5.15h8.71v3.07Z"/><path class="cls-2" d="M66.53,182.29a7,7,0,0,0-1-.08c-2.46,0-3.59,1.42-3.59,3.92v6.35H58.72V179.14h3.1v2.14a4,4,0,0,1,3.86-2.3,4.56,4.56,0,0,1,.85.08Z"/><path class="cls-2" d="M69.18,192.48V172.65h3.18v19.83Z"/><path class="cls-2" d="M79.62,184.84l3.42-.52c.77-.11,1-.49,1-1,0-1.12-.77-2-2.52-2a2.57,2.57,0,0,0-2.74,2.41l-2.9-.66c.25-2.3,2.33-4.35,5.61-4.35,4.11,0,5.67,2.33,5.67,5v6.63a12.11,12.11,0,0,0,.16,2.14h-3a7.43,7.43,0,0,1-.14-1.7,4.65,4.65,0,0,1-4.11,2.11c-2.79,0-4.52-1.92-4.52-4C75.59,186.48,77.34,185.17,79.62,184.84ZM84,186.95v-.6l-3.48.52c-1,.16-1.78.71-1.78,1.81a1.76,1.76,0,0,0,1.94,1.73C82.49,190.4,84,189.55,84,186.95Z"/><path class="cls-2" d="M94.16,192.48H91V179.14h3.1v1.78A4.43,4.43,0,0,1,98,178.76c3.26,0,4.82,2.36,4.82,5.29v8.44H99.67v-7.89c0-1.64-.74-3-2.74-3-1.81,0-2.77,1.4-2.77,3.15Z"/><path class="cls-2" d="M108.68,192.46a3.25,3.25,0,0,0,3.34,2.88c2.52,0,3.78-1.29,3.78-4v-1.4a4.26,4.26,0,0,1-3.86,1.94,6.5,6.5,0,0,1,0-13c2.08,0,3.37.85,3.94,1.94v-1.7h3.07v12.08c0,3.56-1.83,6.87-6.85,6.87-3.53,0-6-2.19-6.35-4.87Zm7.2-7.07a3.46,3.46,0,1,0-6.9,0c0,2.33,1.4,3.78,3.48,3.78S115.88,187.69,115.88,185.39Z"/><path class="cls-2" d="M138.58,172.65a10.12,10.12,0,1,1-9.86,10.11A9.74,9.74,0,0,1,138.58,172.65Zm0,17.12c3.29,0,6.52-2.33,6.52-7s-3.23-7-6.52-7-6.49,2.33-6.49,7S135.32,189.77,138.58,189.77Z"/><path class="cls-2" d="M159,176.16v16.32h-3.29V176.16h-6.3v-3.09h15.91v3.09Z"/><path class="cls-2" d="M171.26,184.9v7.59H168V173.06h7.2c3.72,0,6.19,2.52,6.19,5.92s-2.47,5.92-6.19,5.92Zm3.42-2.9c2.08,0,3.34-1.15,3.34-3s-1.26-3-3.34-3h-3.42v6Z"/><path class="cls-2" d="M50,205.93c3.73,0,5.92,2.19,5.92,5.23a4.32,4.32,0,0,1-2.88,4.19A4.65,4.65,0,0,1,56.53,220c0,3.12-2.41,5.37-6,5.37H43.33V205.93Zm-.44,8.22c1.92,0,3.07-1.1,3.07-2.71s-1.15-2.71-3.15-2.71h-2.9v5.42Zm.36,8.41c2,0,3.26-1.07,3.26-2.79s-1.12-2.85-3.15-2.85H46.59v5.64Z"/><path class="cls-2" d="M60,225.35V205.93h12V209H63.24v5.15h7.89v3H63.24v5.15h8.71v3.07Z"/><path class="cls-2" d="M87.34,220.47H79.12l-1.81,4.88H73.84l7.56-19.42h3.81l7.56,19.42H89.18Zm-7.07-3h5.92l-3-7.94Z"/><path class="cls-2" d="M113.47,225.35v-14.3l-6.05,14.3h-2.85l-6-14.24v14.24h-3.2V205.93h4.38l6.3,14.82,6.22-14.82h4.46v19.42Z"/><path class="cls-2" d="M215.94,128.57a2.64,2.64,0,0,1,2.9,2.65c0,2.07-1.61,3.36-3.75,3.36h-1.93l-.83,3.92h-1.68l2.1-9.93ZM214.13,130l-.67,3.07h1.61a1.8,1.8,0,0,0,2-1.78c0-.77-.5-1.29-1.51-1.29Z"/><path class="cls-2" d="M224.17,133.26c-1,0-1.82.5-2.16,2l-.69,3.19h-1.6l1.19-5.65a6.41,6.41,0,0,0,.15-1.18h1.57a4.77,4.77,0,0,1-.1.94,2.42,2.42,0,0,1,2.06-1,2.53,2.53,0,0,1,.49,0l-.35,1.68A2.8,2.8,0,0,0,224.17,133.26Z"/><path class="cls-2" d="M229.25,138.71a3,3,0,0,1-3.1-3.17,3.85,3.85,0,0,1,3.78-4.08,3,3,0,0,1,3.08,3.15A3.87,3.87,0,0,1,229.25,138.71Zm-1.47-3.22a1.57,1.57,0,0,0,1.56,1.76c1,0,2-.88,2-2.58a1.55,1.55,0,0,0-1.55-1.75C228.73,132.92,227.78,133.93,227.78,135.49Z"/><path class="cls-2" d="M240,134.16a1.49,1.49,0,0,0-1.54-1.22c-1,0-2.07.85-2.07,2.56a1.6,1.6,0,0,0,1.67,1.75,1.88,1.88,0,0,0,1.71-1.13l1.34.55a3.41,3.41,0,0,1-3.14,2,3,3,0,0,1-3.19-3.18,3.85,3.85,0,0,1,3.8-4.06,2.76,2.76,0,0,1,2.9,2.23Z"/><path class="cls-2" d="M244.59,135.53a.63.63,0,0,0,0,.15,1.56,1.56,0,0,0,1.61,1.64,1.88,1.88,0,0,0,1.74-1l1.25.69a3.31,3.31,0,0,1-3,1.69,3,3,0,0,1-3.12-3.12,3.86,3.86,0,0,1,3.7-4.12,2.68,2.68,0,0,1,2.93,2.82,4.38,4.38,0,0,1-.2,1.25Zm3.46-1.19s0-.14,0-.21a1.26,1.26,0,0,0-1.39-1.3,2,2,0,0,0-1.91,1.51Z"/><path class="cls-2" d="M252.58,136.12a1.21,1.21,0,0,0,1.25,1.32c.66,0,1-.39,1-.78a.81.81,0,0,0-.57-.73l-.87-.38a1.94,1.94,0,0,1-1.34-1.83,2.36,2.36,0,0,1,2.55-2.24,2.21,2.21,0,0,1,2.49,2l-1.41.29a1.07,1.07,0,0,0-1.16-1.06.82.82,0,0,0-.92.77.69.69,0,0,0,.48.67l.9.39a2.12,2.12,0,0,1,1.47,1.95,2.63,2.63,0,0,1-5.21-.13Z"/><path class="cls-2" d="M259.77,136.12a1.21,1.21,0,0,0,1.25,1.32c.66,0,1-.39,1-.78a.81.81,0,0,0-.57-.73l-.87-.38a1.94,1.94,0,0,1-1.34-1.83,2.36,2.36,0,0,1,2.55-2.24,2.21,2.21,0,0,1,2.49,2l-1.41.29a1.07,1.07,0,0,0-1.16-1.06.82.82,0,0,0-.92.77.69.69,0,0,0,.48.67l.9.39a2.12,2.12,0,0,1,1.47,1.95,2.63,2.63,0,0,1-5.21-.13Z"/><path class="cls-2" d="M276.06,130.14l-1.78,8.36H272.6l1.77-8.36h-3.1l.34-1.57h7.76l-.34,1.57Z"/><path class="cls-2" d="M283.46,133.26c-1,0-1.82.5-2.16,2l-.69,3.19H279l1.19-5.65a6.41,6.41,0,0,0,.15-1.18h1.57a4.77,4.77,0,0,1-.1.94,2.42,2.42,0,0,1,2.06-1,2.53,2.53,0,0,1,.49,0l-.35,1.68A2.8,2.8,0,0,0,283.46,133.26Z"/><path class="cls-2" d="M287,135.53a.65.65,0,0,0,0,.15,1.56,1.56,0,0,0,1.61,1.64,1.88,1.88,0,0,0,1.74-1l1.25.69a3.31,3.31,0,0,1-3,1.69,3,3,0,0,1-3.12-3.12,3.86,3.86,0,0,1,3.7-4.12,2.68,2.68,0,0,1,2.93,2.82,4.38,4.38,0,0,1-.2,1.25Zm3.46-1.19s0-.14,0-.21a1.26,1.26,0,0,0-1.39-1.3,2,2,0,0,0-1.91,1.51Z"/><path class="cls-2" d="M295.47,135.53a.65.65,0,0,0,0,.15,1.56,1.56,0,0,0,1.61,1.64,1.88,1.88,0,0,0,1.74-1L300,137a3.31,3.31,0,0,1-3,1.69,3,3,0,0,1-3.12-3.12,3.86,3.86,0,0,1,3.7-4.12,2.68,2.68,0,0,1,2.93,2.82,4.38,4.38,0,0,1-.2,1.25Zm3.46-1.19s0-.14,0-.21a1.26,1.26,0,0,0-1.39-1.3,2,2,0,0,0-1.91,1.51Z"/><path class="cls-2" d="M303.46,136.12a1.21,1.21,0,0,0,1.25,1.32c.66,0,1-.39,1-.78a.81.81,0,0,0-.57-.73l-.87-.38a1.94,1.94,0,0,1-1.34-1.83,2.36,2.36,0,0,1,2.55-2.24,2.21,2.21,0,0,1,2.49,2l-1.41.29a1.07,1.07,0,0,0-1.16-1.06.82.82,0,0,0-.92.77.69.69,0,0,0,.48.67l.9.39a2.12,2.12,0,0,1,1.47,1.95,2.63,2.63,0,0,1-5.21-.13Z"/><path class="cls-1" d="M59.48,96.33a2.36,2.36,0,0,0-2.5-2,2,2,0,0,0-2.2,1.84,1.65,1.65,0,0,0,1.49,1.64l1.84.38c2.25.45,3.46,1.87,3.46,3.67,0,2-1.6,3.87-4.52,3.87-3.24,0-4.74-2.09-4.93-3.93l2-.58A2.74,2.74,0,0,0,57,103.83c1.53,0,2.32-.77,2.32-1.76,0-.83-.61-1.49-1.71-1.73l-1.8-.38a3.62,3.62,0,0,1-3.24-3.58A4.16,4.16,0,0,1,57,92.46c3,0,4.18,1.84,4.47,3.26Z"/><path class="cls-1" d="M72.53,103a4,4,0,0,1-4,2.77,4.67,4.67,0,0,1-.22-9.31c2.7,0,4.29,1.78,4.29,4.56a3.08,3.08,0,0,1-.05.67H66.17A2.35,2.35,0,0,0,68.57,104a2.12,2.12,0,0,0,2.2-1.53Zm-2-2.84a2,2,0,0,0-2.16-1.94,2.11,2.11,0,0,0-2.14,1.94Z"/><path class="cls-1" d="M81,98.8a4.54,4.54,0,0,0-.68-.05c-1.62,0-2.36.94-2.36,2.57v4.18H75.89V96.73h2v1.4a2.65,2.65,0,0,1,2.54-1.51,2.93,2.93,0,0,1,.56.05Z"/><path class="cls-1" d="M88.78,105.5H86.69l-3.56-8.77h2.3L87.75,103,90,96.73h2.2Z"/><path class="cls-1" d="M102.5,103a4,4,0,0,1-4,2.77,4.67,4.67,0,0,1-.22-9.31c2.7,0,4.29,1.78,4.29,4.56a3.08,3.08,0,0,1-.05.67H96.14A2.35,2.35,0,0,0,98.54,104a2.12,2.12,0,0,0,2.2-1.53Zm-2-2.84a2,2,0,0,0-2.16-1.94,2.11,2.11,0,0,0-2.14,1.94Z"/><path class="cls-1" d="M111,98.8a4.54,4.54,0,0,0-.68-.05c-1.62,0-2.36.94-2.36,2.57v4.18h-2.09V96.73h2v1.4a2.65,2.65,0,0,1,2.54-1.51,2.93,2.93,0,0,1,.56.05Z"/><path class="cls-3" d="M168,53.77V64.5h-2.16V53.77h-4.14v-2H172.2v2Z"/><path class="cls-3" d="M177.16,64.5h-2.09v-13h2.09v5.11a3.12,3.12,0,0,1,2.5-1.1c2.16,0,3.2,1.55,3.2,3.47V64.5h-2.09V59.31c0-1.08-.49-1.94-1.8-1.94a1.82,1.82,0,0,0-1.82,2Z"/><path class="cls-3" d="M194.42,62a4,4,0,0,1-4,2.77,4.67,4.67,0,0,1-.22-9.31c2.7,0,4.29,1.78,4.29,4.56a3.08,3.08,0,0,1-.05.67h-6.41A2.35,2.35,0,0,0,190.46,63a2.12,2.12,0,0,0,2.2-1.53Zm-2-2.84a2,2,0,0,0-2.16-1.94,2.11,2.11,0,0,0-2.14,1.94Z"/><path class="cls-3" d="M202.92,58.13a6.4,6.4,0,0,1,6.43-6.66,5.56,5.56,0,0,1,5.74,4.14l-2,.68a3.54,3.54,0,0,0-3.71-2.79c-2.11,0-4.21,1.53-4.21,4.63a4.23,4.23,0,0,0,4.23,4.57,3.81,3.81,0,0,0,3.8-2.81l2,.65a5.73,5.73,0,0,1-5.78,4.23A6.32,6.32,0,0,1,202.92,58.13Z"/><path class="cls-3" d="M218.24,64.5v-13h2.09v13Z"/><path class="cls-3" d="M232.69,60.11a4.55,4.55,0,1,1-4.56-4.65A4.47,4.47,0,0,1,232.69,60.11Zm-2.11,0a2.47,2.47,0,1,0-4.9,0,2.47,2.47,0,1,0,4.9,0Z"/><path class="cls-3" d="M239.13,64.75a3.24,3.24,0,0,1-3.31-3.49V55.73h2.09v5.15c0,1.08.5,2,1.76,2a1.76,1.76,0,0,0,1.84-2V55.73h2.09V62.9a14.22,14.22,0,0,0,.09,1.6h-2a6.51,6.51,0,0,1-.07-1A2.8,2.8,0,0,1,239.13,64.75Z"/><path class="cls-3" d="M255.61,62.9a14.34,14.34,0,0,0,.09,1.6h-2a8.75,8.75,0,0,1-.09-1.13A2.88,2.88,0,0,1,251,64.72c-2.52,0-4.21-2-4.21-4.63A4.31,4.31,0,0,1,251,55.5a2.67,2.67,0,0,1,2.57,1.26V51.46h2Zm-4.34,0c1.37,0,2.32-1.13,2.32-2.81s-.94-2.72-2.3-2.72a2.45,2.45,0,0,0-2.38,2.74C248.91,61.76,249.84,62.88,251.27,62.88Z"/><path class="cls-3" d="M596.19,59.51v5H594V51.73h4.74a3.89,3.89,0,1,1,0,7.78Zm2.25-1.91a2,2,0,1,0,0-4h-2.25v4Z"/><path class="cls-3" d="M608.81,64.75a3.24,3.24,0,0,1-3.31-3.49V55.73h2.09v5.15c0,1.08.5,2,1.76,2a1.76,1.76,0,0,0,1.84-2V55.73h2.09V62.9a14,14,0,0,0,.09,1.6h-2a6.51,6.51,0,0,1-.07-1A2.8,2.8,0,0,1,608.81,64.75Z"/><path class="cls-3" d="M617.23,64.5v-13h2.05v5.35A3.16,3.16,0,0,1,622,55.5c2.63,0,4.05,2,4.05,4.57s-1.57,4.65-4.12,4.65a3,3,0,0,1-2.7-1.39V64.5Zm4.39-7.15c-1.33,0-2.36,1-2.36,2.74s1,2.77,2.36,2.77,2.36-1,2.36-2.77S623,57.35,621.63,57.35Z"/><path class="cls-3" d="M629.36,64.5v-13h2.09v13Z"/><path class="cls-3" d="M636.44,51.28a1.37,1.37,0,0,1,1.37,1.37,1.36,1.36,0,1,1-1.37-1.37Zm-1,13.22V55.73h2.07V64.5Z"/><path class="cls-3" d="M642.85,60.11a2.49,2.49,0,0,0,2.45,2.75,2.21,2.21,0,0,0,2.2-1.62l1.84.67a4.07,4.07,0,0,1-4,2.86,4.5,4.5,0,0,1-4.54-4.66,4.46,4.46,0,0,1,4.48-4.65,3.92,3.92,0,0,1,4,2.88l-1.87.68a2.06,2.06,0,0,0-2.12-1.64A2.46,2.46,0,0,0,642.85,60.11Z"/><path class="cls-3" d="M658.34,64.5V51.73h2.2V64.5Z"/><path class="cls-3" d="M666.77,64.5h-2.09V55.73h2V56.9a2.91,2.91,0,0,1,2.59-1.42c2.14,0,3.17,1.55,3.17,3.47V64.5h-2.09V59.31c0-1.08-.49-1.94-1.8-1.94a1.84,1.84,0,0,0-1.82,2.07Z"/><path class="cls-3" d="M678.92,55.73h1.82v1.85h-1.82v4.07c0,.77.34,1.1,1.12,1.1a4.52,4.52,0,0,0,.72-.07v1.73a3.29,3.29,0,0,1-1.28.2A2.42,2.42,0,0,1,676.85,62V57.59h-1.62V55.73h.45A1.24,1.24,0,0,0,677,54.36V53h1.89Z"/><path class="cls-3" d="M691.81,62a4,4,0,0,1-4,2.77,4.67,4.67,0,0,1-.21-9.31c2.7,0,4.29,1.78,4.29,4.56a3.1,3.1,0,0,1-.05.67h-6.41A2.35,2.35,0,0,0,687.85,63a2.12,2.12,0,0,0,2.2-1.53Zm-2-2.84a2,2,0,0,0-2.16-1.94,2.1,2.1,0,0,0-2.14,1.94Z"/><path class="cls-3" d="M700.3,57.8a4.55,4.55,0,0,0-.68-.05c-1.62,0-2.36.94-2.36,2.57V64.5h-2.09V55.73h2v1.4a2.65,2.65,0,0,1,2.54-1.51,2.93,2.93,0,0,1,.56.05Z"/><path class="cls-3" d="M705.4,64.5h-2.09V55.73h2V56.9a2.91,2.91,0,0,1,2.59-1.42c2.14,0,3.17,1.55,3.17,3.47V64.5H709V59.31c0-1.08-.49-1.94-1.8-1.94a1.84,1.84,0,0,0-1.82,2.07Z"/><path class="cls-3" d="M722.66,62a4,4,0,0,1-4,2.77,4.67,4.67,0,0,1-.21-9.31c2.7,0,4.29,1.78,4.29,4.56a3.1,3.1,0,0,1-.05.67H716.3A2.35,2.35,0,0,0,718.7,63a2.12,2.12,0,0,0,2.2-1.53Zm-2-2.84a2,2,0,0,0-2.16-1.94,2.1,2.1,0,0,0-2.14,1.94Z"/><path class="cls-3" d="M728.67,55.73h1.82v1.85h-1.82v4.07c0,.77.34,1.1,1.12,1.1a4.51,4.51,0,0,0,.72-.07v1.73a3.3,3.3,0,0,1-1.28.2A2.42,2.42,0,0,1,726.6,62V57.59H725V55.73h.45a1.24,1.24,0,0,0,1.35-1.37V53h1.89Z"/><path class="cls-1" d="M223,159.18v3.32h-1.44V154h3.15a2.59,2.59,0,1,1,0,5.18Zm1.5-1.27a1.33,1.33,0,1,0,0-2.64H223v2.64Z"/><path class="cls-1" d="M230.76,162.5h-1.39v-8.68h1.39v3.41a2.18,2.18,0,0,1,3.8,1.58v3.69h-1.39V159c0-.72-.32-1.29-1.2-1.29a1.21,1.21,0,0,0-1.21,1.32Z"/><path class="cls-1" d="M242.7,159.57a3,3,0,1,1-3-3.09A3,3,0,0,1,242.7,159.57Zm-1.4,0a1.64,1.64,0,1,0-3.26,0,1.65,1.65,0,1,0,3.26,0Z"/><path class="cls-1" d="M250.05,160.83a2.63,2.63,0,0,1-2.64,1.85,3.11,3.11,0,0,1-.14-6.2,2.73,2.73,0,0,1,2.85,3,2,2,0,0,1,0,.44h-4.27a1.56,1.56,0,0,0,1.6,1.52,1.41,1.41,0,0,0,1.46-1Zm-1.33-1.9a1.31,1.31,0,0,0-1.44-1.29,1.4,1.4,0,0,0-1.43,1.29Z"/><path class="cls-1" d="M253.69,162.5H252.3v-5.84h1.36v.78a1.94,1.94,0,0,1,1.73-.95,2.06,2.06,0,0,1,2.11,2.31v3.69H256.1V159c0-.72-.32-1.29-1.2-1.29a1.23,1.23,0,0,0-1.21,1.38Z"/><path class="cls-1" d="M260.71,153.7a.91.91,0,0,1,.91.91.91.91,0,1,1-.91-.91Zm-.68,8.8v-5.84h1.38v5.84Z"/><path class="cls-1" d="M265.4,159.55l-2.09-2.89H265c.11.18,1.18,1.7,1.28,1.87l1.27-1.87h1.58l-2.05,2.87,2.12,3h-1.63l-1.35-2c-.12.18-1.21,1.78-1.32,2h-1.6Z"/><path class="cls-1" d="M599.11,132.57c1.91,0,3,1.12,3,2.68a2.21,2.21,0,0,1-1.47,2.14,2.38,2.38,0,0,1,1.78,2.37,2.79,2.79,0,0,1-3.08,2.75h-3.67v-9.93Zm-.22,4.2a1.39,1.39,0,0,0,1.57-1.39c0-.84-.59-1.39-1.61-1.39h-1.48v2.77Zm.18,4.3c1,0,1.67-.55,1.67-1.43a1.43,1.43,0,0,0-1.61-1.46h-1.77v2.89Z"/><path class="cls-1" d="M609,137.29a3.49,3.49,0,0,0-.53,0c-1.26,0-1.83.73-1.83,2v3.25H605v-6.82h1.58v1.09a2.06,2.06,0,0,1,2-1.18,2.27,2.27,0,0,1,.43,0Z"/><path class="cls-1" d="M617.79,139.08a3.54,3.54,0,1,1-3.54-3.61A3.47,3.47,0,0,1,617.79,139.08Zm-1.64,0a1.92,1.92,0,1,0-3.81,0,1.92,1.92,0,1,0,3.81,0Z"/><path class="cls-1" d="M625.71,135.68l1.61,4.72,1.36-4.72h1.65l-2.19,6.82h-1.62l-1.69-4.9-1.65,4.9h-1.67l-2.21-6.82H621l1.39,4.72,1.61-4.72Z"/><path class="cls-1" d="M633.35,140.26a1.28,1.28,0,0,0,1.39,1.16c.67,0,1-.36,1-.79s-.25-.64-.8-.76l-1-.22a2.06,2.06,0,0,1-1.83-2,2.37,2.37,0,0,1,2.51-2.2,2.41,2.41,0,0,1,2.63,1.91l-1.37.39a1.17,1.17,0,0,0-1.26-1,.89.89,0,0,0-1,.78.75.75,0,0,0,.69.71l1,.21a2.15,2.15,0,0,1,2,2.07,2.32,2.32,0,0,1-2.58,2.18,2.57,2.57,0,0,1-2.82-2.06Z"/><path class="cls-1" d="M645.91,140.55a3.07,3.07,0,0,1-3.08,2.16,3.63,3.63,0,0,1-.17-7.24c2.1,0,3.33,1.39,3.33,3.54a2.34,2.34,0,0,1,0,.52h-5a1.83,1.83,0,0,0,1.86,1.78,1.65,1.65,0,0,0,1.71-1.19Zm-1.55-2.21a1.53,1.53,0,0,0-1.68-1.51,1.64,1.64,0,0,0-1.67,1.51Z"/><path class="cls-1" d="M652.52,137.29a3.51,3.51,0,0,0-.53,0c-1.26,0-1.84.73-1.84,2v3.25h-1.62v-6.82h1.58v1.09a2.06,2.06,0,0,1,2-1.18,2.28,2.28,0,0,1,.43,0Z"/><path class="cls-1" d="M606.83,169.57h1.74l-2.79,9.93H604L601.63,172l-2.41,7.51H597.5l-2.82-9.93h1.77l2,7.26,2.33-7.26h1.75l2.37,7.31Z"/><path class="cls-1" d="M616.29,177.55a3.07,3.07,0,0,1-3.08,2.16,3.63,3.63,0,0,1-.17-7.24c2.1,0,3.33,1.39,3.33,3.54a2.43,2.43,0,0,1,0,.52h-5a1.83,1.83,0,0,0,1.86,1.78,1.64,1.64,0,0,0,1.71-1.19Zm-1.55-2.21a1.53,1.53,0,0,0-1.68-1.51,1.64,1.64,0,0,0-1.67,1.51Z"/><path class="cls-1" d="M618.9,179.5V169.36h1.6v4.16a2.46,2.46,0,0,1,2.14-1c2,0,3.15,1.55,3.15,3.56s-1.22,3.61-3.21,3.61a2.34,2.34,0,0,1-2.1-1.08v.91Zm3.42-5.56a1.88,1.88,0,0,0-1.83,2.13,1.91,1.91,0,0,0,1.83,2.16c1.06,0,1.83-.81,1.83-2.16S623.4,173.94,622.32,173.94Z"/><path class="cls-1" d="M637.95,172.37a1.83,1.83,0,0,0-1.95-1.53,1.57,1.57,0,0,0-1.71,1.43,1.29,1.29,0,0,0,1.16,1.27l1.43.29a2.93,2.93,0,0,1,2.69,2.86c0,1.54-1.25,3-3.52,3a3.53,3.53,0,0,1-3.84-3.05l1.57-.45a2.13,2.13,0,0,0,2.27,2c1.19,0,1.81-.6,1.81-1.37s-.48-1.16-1.33-1.34l-1.4-.29a2.82,2.82,0,0,1-2.52-2.79,3.51,3.51,0,0,1,6.85-.5Z"/><path class="cls-1" d="M648.6,176.08a3.54,3.54,0,1,1-3.54-3.61A3.47,3.47,0,0,1,648.6,176.08Zm-1.64,0a1.92,1.92,0,1,0-3.81,0,1.92,1.92,0,1,0,3.81,0Z"/><path class="cls-1" d="M652.24,176.08a1.94,1.94,0,0,0,1.91,2.14,1.72,1.72,0,0,0,1.71-1.26l1.43.52a3.16,3.16,0,0,1-3.14,2.23,3.5,3.5,0,0,1-3.53-3.63,3.47,3.47,0,0,1,3.49-3.61,3.05,3.05,0,0,1,3.12,2.24l-1.46.53a1.6,1.6,0,0,0-1.65-1.28A1.91,1.91,0,0,0,652.24,176.08Z"/><path class="cls-1" d="M663.28,175.56l2.86,3.94h-2l-2-2.79-.84.88v1.91H659.7V169.36h1.61v6.08l2.62-2.76h2.16Z"/><path class="cls-1" d="M674,177.55a3.07,3.07,0,0,1-3.08,2.16,3.63,3.63,0,0,1-.17-7.24c2.1,0,3.33,1.39,3.33,3.54a2.34,2.34,0,0,1,0,.52h-5a1.83,1.83,0,0,0,1.86,1.78,1.65,1.65,0,0,0,1.71-1.19Zm-1.55-2.21a1.53,1.53,0,0,0-1.68-1.51,1.64,1.64,0,0,0-1.67,1.51Z"/><path class="cls-1" d="M678.68,172.68h1.41v1.44h-1.41v3.17c0,.6.27.85.87.85a3.38,3.38,0,0,0,.56-.06v1.34a2.55,2.55,0,0,1-1,.15,1.88,1.88,0,0,1-2-2v-3.43h-1.26v-1.44h.35a1,1,0,0,0,1-1.07v-1h1.47Z"/><path class="cls-1" d="M683.67,177.26a1.28,1.28,0,0,0,1.39,1.16c.67,0,1-.36,1-.79s-.25-.64-.8-.76l-1-.22a2.06,2.06,0,0,1-1.83-2,2.37,2.37,0,0,1,2.51-2.2,2.41,2.41,0,0,1,2.63,1.91l-1.37.39a1.17,1.17,0,0,0-1.26-1,.89.89,0,0,0-1,.78.75.75,0,0,0,.69.71l1,.21a2.15,2.15,0,0,1,2,2.07,2.32,2.32,0,0,1-2.58,2.18,2.57,2.57,0,0,1-2.81-2.06Z"/><path class="cls-1" d="M604.95,216.5v-7.31l-3.1,7.31H600.4l-3.07-7.28v7.28h-1.64v-9.93h2.24l3.22,7.58,3.18-7.58h2.28v9.93Z"/><path class="cls-1" d="M616.34,213.08a3.54,3.54,0,1,1-3.54-3.61A3.47,3.47,0,0,1,616.34,213.08Zm-1.64,0a1.92,1.92,0,1,0-3.81,0,1.92,1.92,0,1,0,3.81,0Z"/><path class="cls-1" d="M618.89,216.5V206.36h1.6v4.16a2.46,2.46,0,0,1,2.14-1c2,0,3.15,1.55,3.15,3.56s-1.22,3.61-3.21,3.61a2.34,2.34,0,0,1-2.1-1.08v.91Zm3.42-5.56a1.88,1.88,0,0,0-1.84,2.13,1.91,1.91,0,0,0,1.84,2.16c1.06,0,1.83-.81,1.83-2.16S623.38,210.94,622.31,210.94Z"/><path class="cls-1" d="M629.12,206.22a1.06,1.06,0,0,1,1.06,1.06,1.06,1.06,0,1,1-1.06-1.06Zm-.8,10.28v-6.82h1.61v6.82Z"/><path class="cls-1" d="M633,216.5V206.36h1.62V216.5Z"/><path class="cls-1" d="M643.76,214.55a3.07,3.07,0,0,1-3.08,2.16,3.63,3.63,0,0,1-.17-7.24c2.1,0,3.33,1.39,3.33,3.54a2.34,2.34,0,0,1,0,.52h-5a1.83,1.83,0,0,0,1.86,1.78,1.65,1.65,0,0,0,1.71-1.19Zm-1.55-2.21a1.53,1.53,0,0,0-1.68-1.51,1.64,1.64,0,0,0-1.67,1.51Z"/><path class="cls-1" d="M656.82,214h-4.2l-.92,2.49h-1.78l3.87-9.93h1.95l3.87,9.93h-1.83Zm-3.61-1.55h3l-1.51-4.06Z"/><path class="cls-1" d="M661.71,219.16v-9.48h1.57v.92a2.45,2.45,0,0,1,2.17-1.08c2,0,3.15,1.54,3.15,3.56s-1.25,3.59-3.21,3.59a2.47,2.47,0,0,1-2.07-.94v3.43Zm3.43-8.19a2.15,2.15,0,1,0,1.83,2.12A1.9,1.9,0,0,0,665.15,211Z"/><path class="cls-1" d="M671.15,219.16v-9.48h1.57v.92a2.45,2.45,0,0,1,2.17-1.08c2,0,3.15,1.54,3.15,3.56s-1.25,3.59-3.21,3.59a2.47,2.47,0,0,1-2.07-.94v3.43Zm3.43-8.19a2.15,2.15,0,1,0,1.83,2.12A1.9,1.9,0,0,0,674.58,211Z"/><path class="cls-1" d="M681.4,214.26a1.28,1.28,0,0,0,1.39,1.16c.67,0,1-.36,1-.79s-.25-.64-.8-.76l-1-.22a2.06,2.06,0,0,1-1.83-2,2.36,2.36,0,0,1,2.51-2.2,2.41,2.41,0,0,1,2.63,1.91l-1.37.39a1.17,1.17,0,0,0-1.26-1,.89.89,0,0,0-1,.78.75.75,0,0,0,.69.71l1,.21a2.15,2.15,0,0,1,2,2.07,2.32,2.32,0,0,1-2.58,2.18,2.57,2.57,0,0,1-2.82-2.06Z"/><path class="cls-1" d="M595.69,253.5v-9.93h6.14v1.57h-4.46v2.63h4v1.53h-4v2.63h4.46v1.57Z"/><path class="cls-1" d="M606.26,250.05l-2.44-3.37h1.93c.13.21,1.37,2,1.5,2.18l1.48-2.18h1.85l-2.4,3.35,2.48,3.47h-1.91l-1.58-2.28c-.14.21-1.41,2.07-1.54,2.28h-1.86Z"/><path class="cls-1" d="M615,246.68h1.42v1.44H615v3.17c0,.6.27.85.87.85a3.38,3.38,0,0,0,.56-.06v1.34a2.55,2.55,0,0,1-1,.15,1.88,1.88,0,0,1-2-2v-3.43h-1.26v-1.44h.35a1,1,0,0,0,1-1.07v-1H615Z"/><path class="cls-1" d="M625,251.55a3.07,3.07,0,0,1-3.08,2.16,3.63,3.63,0,0,1-.17-7.24c2.1,0,3.33,1.39,3.33,3.54a2.37,2.37,0,0,1,0,.52h-5a1.83,1.83,0,0,0,1.86,1.78,1.65,1.65,0,0,0,1.71-1.19Zm-1.55-2.21a1.53,1.53,0,0,0-1.68-1.51,1.64,1.64,0,0,0-1.67,1.51Z"/><path class="cls-1" d="M631.63,248.29a3.5,3.5,0,0,0-.53,0c-1.26,0-1.83.73-1.83,2v3.25h-1.62v-6.82h1.58v1.09a2.06,2.06,0,0,1,2-1.18,2.26,2.26,0,0,1,.43,0Z"/><path class="cls-1" d="M635.59,253.5H634v-6.82h1.58v.91a2.26,2.26,0,0,1,2-1.11,2.41,2.41,0,0,1,2.47,2.7v4.31h-1.62v-4c0-.84-.38-1.51-1.4-1.51a1.43,1.43,0,0,0-1.42,1.61Z"/><path class="cls-1" d="M644.62,249.59l1.75-.27c.39-.06.5-.25.5-.49,0-.58-.39-1-1.29-1a1.31,1.31,0,0,0-1.4,1.23l-1.49-.34a2.67,2.67,0,0,1,2.87-2.23c2.1,0,2.9,1.19,2.9,2.55v3.39a6.24,6.24,0,0,0,.08,1.09H647a3.74,3.74,0,0,1-.07-.87,2.38,2.38,0,0,1-2.1,1.08,2.14,2.14,0,0,1-2.31-2.06A2.1,2.1,0,0,1,644.62,249.59Zm2.25,1.08v-.31l-1.78.27c-.5.08-.91.36-.91.92a.9.9,0,0,0,1,.88A1.55,1.55,0,0,0,646.88,250.67Z"/><path class="cls-1" d="M651.41,253.5V243.36H653V253.5Z"/><path class="cls-1" d="M665.72,246.37a1.83,1.83,0,0,0-1.95-1.53,1.57,1.57,0,0,0-1.71,1.43,1.29,1.29,0,0,0,1.16,1.27l1.43.29a2.93,2.93,0,0,1,2.69,2.86c0,1.54-1.25,3-3.52,3a3.53,3.53,0,0,1-3.84-3.05l1.57-.45a2.14,2.14,0,0,0,2.27,2c1.19,0,1.81-.6,1.81-1.37s-.48-1.16-1.33-1.34l-1.4-.29a2.82,2.82,0,0,1-2.52-2.79,3.51,3.51,0,0,1,6.85-.5Z"/><path class="cls-1" d="M669.95,256.26l1.64-3.57-2.91-6h1.83l2,4.31,1.83-4.31H676l-4.34,9.58Z"/><path class="cls-1" d="M678.89,251.26a1.28,1.28,0,0,0,1.39,1.16c.67,0,1-.36,1-.79s-.25-.64-.8-.76l-1-.22a2.06,2.06,0,0,1-1.83-2,2.37,2.37,0,0,1,2.51-2.2,2.41,2.41,0,0,1,2.63,1.91l-1.37.39a1.17,1.17,0,0,0-1.26-1,.89.89,0,0,0-1,.78.75.75,0,0,0,.69.71l1,.21a2.15,2.15,0,0,1,2,2.07,2.32,2.32,0,0,1-2.58,2.18,2.57,2.57,0,0,1-2.82-2.06Z"/><path class="cls-1" d="M687.52,246.68h1.42v1.44h-1.42v3.17c0,.6.27.85.87.85a3.38,3.38,0,0,0,.56-.06v1.34a2.55,2.55,0,0,1-1,.15,1.88,1.88,0,0,1-2-2v-3.43h-1.26v-1.44H685a1,1,0,0,0,1-1.07v-1h1.47Z"/><path class="cls-1" d="M697.54,251.55a3.07,3.07,0,0,1-3.08,2.16,3.63,3.63,0,0,1-.17-7.24c2.1,0,3.33,1.39,3.33,3.54a2.34,2.34,0,0,1,0,.52h-5a1.83,1.83,0,0,0,1.86,1.78,1.65,1.65,0,0,0,1.71-1.19ZM696,249.34a1.53,1.53,0,0,0-1.68-1.51,1.64,1.64,0,0,0-1.67,1.51Z"/><path class="cls-1" d="M700.16,253.5v-6.82h1.55v.87a2.33,2.33,0,0,1,2-1.06,2.14,2.14,0,0,1,2,1.2,2.4,2.4,0,0,1,2.21-1.2,2.34,2.34,0,0,1,2.41,2.59v4.43h-1.57v-4.16a1.24,1.24,0,0,0-1.32-1.4,1.42,1.42,0,0,0-1.42,1.51v4h-1.6v-4.16a1.24,1.24,0,0,0-1.32-1.4,1.39,1.39,0,0,0-1.42,1.51v4Z"/><path class="cls-1" d="M714.17,251.26a1.28,1.28,0,0,0,1.39,1.16c.67,0,1-.36,1-.79s-.25-.64-.8-.76l-1-.22a2.06,2.06,0,0,1-1.83-2,2.37,2.37,0,0,1,2.51-2.2,2.41,2.41,0,0,1,2.63,1.91l-1.37.39a1.17,1.17,0,0,0-1.26-1,.89.89,0,0,0-1,.78.75.75,0,0,0,.69.71l1,.21a2.15,2.15,0,0,1,2,2.07,2.32,2.32,0,0,1-2.58,2.18,2.57,2.57,0,0,1-2.82-2.06Z"/><path class="cls-1" d="M601.13,269.12a3.67,3.67,0,0,1-2.72,1.36,2.7,2.7,0,0,1-3-2.6,3.27,3.27,0,0,1,1.72-2.75l.1-.07-.17-.18a3.35,3.35,0,0,1-1.13-2.19,2.56,2.56,0,0,1,2.66-2.54,2.49,2.49,0,0,1,2.72,2.47,3,3,0,0,1-1.4,2.24l-.43.32,1.65,1.72,2.37-2.55v2.1l-1.36,1.5,2.24,2.34h-2.17Zm-1-1.05h0l-1.84-1.95-.34.25a1.67,1.67,0,0,0-.81,1.4,1.27,1.27,0,0,0,1.32,1.25A2.28,2.28,0,0,0,600.09,268.07Zm-1.86-4.23.28.31.57-.42a1.38,1.38,0,0,0,.67-1.13,1.07,1.07,0,0,0-1.11-1.06,1,1,0,0,0-1.08,1.06A1.93,1.93,0,0,0,598.23,263.84Z"/><path class="cls-1" d="M616.33,267.81h-4.2l-.92,2.49h-1.78l3.87-9.93h1.95l3.87,9.93h-1.84Zm-3.62-1.55h3l-1.51-4.06Z"/><path class="cls-1" d="M623.09,266.42v3.88h-1.68v-9.93h3.68a3,3,0,1,1,0,6.05Zm1.75-1.49a1.55,1.55,0,1,0,0-3.08h-1.75v3.08Z"/><path class="cls-1" d="M630.79,270.3v-9.93h1.71v9.93Z"/><path class="cls-1" d="M636.53,268.06a1.28,1.28,0,0,0,1.39,1.16c.67,0,1-.36,1-.79s-.25-.64-.8-.76l-1-.22a2.06,2.06,0,0,1-1.83-2,2.37,2.37,0,0,1,2.51-2.2,2.41,2.41,0,0,1,2.63,1.91l-1.37.39a1.17,1.17,0,0,0-1.26-1,.89.89,0,0,0-1,.78.75.75,0,0,0,.69.71l1,.21a2.15,2.15,0,0,1,2,2.07,2.32,2.32,0,0,1-2.58,2.18,2.57,2.57,0,0,1-2.82-2.06Z"/><path class="cls-1" d="M430.69,373.5v-9.93h3.52a5,5,0,0,1,0,9.93Zm3.45-1.54a3.06,3.06,0,0,0,3.15-3.4c0-2.33-1.41-3.45-3.14-3.45h-1.78V372Z"/><path class="cls-1" d="M443.28,369.59l1.75-.27c.39-.06.5-.25.5-.49,0-.58-.39-1-1.29-1a1.31,1.31,0,0,0-1.4,1.23l-1.48-.34a2.67,2.67,0,0,1,2.87-2.23c2.1,0,2.9,1.19,2.9,2.55v3.39a6.18,6.18,0,0,0,.08,1.09H445.7a3.79,3.79,0,0,1-.07-.87,2.38,2.38,0,0,1-2.1,1.08,2.14,2.14,0,0,1-2.31-2.06A2.1,2.1,0,0,1,443.28,369.59Zm2.26,1.08v-.31l-1.78.27c-.5.08-.91.36-.91.92a.9.9,0,0,0,1,.88A1.55,1.55,0,0,0,445.53,370.67Z"/><path class="cls-1" d="M452.1,366.68h1.41v1.44H452.1v3.17c0,.6.27.85.87.85a3.39,3.39,0,0,0,.56-.06v1.34a2.56,2.56,0,0,1-1,.15,1.88,1.88,0,0,1-2-2v-3.43h-1.26v-1.44h.35a1,1,0,0,0,1.05-1.07v-1h1.47Z"/><path class="cls-1" d="M457.81,369.59l1.75-.27c.39-.06.5-.25.5-.49,0-.58-.39-1-1.29-1a1.31,1.31,0,0,0-1.4,1.23l-1.48-.34a2.67,2.67,0,0,1,2.87-2.23c2.1,0,2.9,1.19,2.9,2.55v3.39a6.24,6.24,0,0,0,.08,1.09h-1.51a3.77,3.77,0,0,1-.07-.87,2.38,2.38,0,0,1-2.1,1.08,2.14,2.14,0,0,1-2.31-2.06A2.1,2.1,0,0,1,457.81,369.59Zm2.26,1.08v-.31l-1.78.27c-.5.08-.91.36-.91.92a.9.9,0,0,0,1,.88A1.55,1.55,0,0,0,460.06,370.67Z"/><path class="cls-1" d="M464.6,373.5V363.36h1.6v4.16a2.46,2.46,0,0,1,2.14-1c2,0,3.15,1.55,3.15,3.56s-1.22,3.61-3.21,3.61a2.34,2.34,0,0,1-2.1-1.08v.91Zm3.42-5.56a1.88,1.88,0,0,0-1.83,2.13,1.91,1.91,0,0,0,1.83,2.16c1.06,0,1.83-.81,1.83-2.16S469.09,367.94,468,367.94Z"/><path class="cls-1" d="M475.67,369.59l1.75-.27c.39-.06.5-.25.5-.49,0-.58-.39-1-1.29-1a1.31,1.31,0,0,0-1.4,1.23l-1.48-.34a2.67,2.67,0,0,1,2.87-2.23c2.1,0,2.9,1.19,2.9,2.55v3.39a6.18,6.18,0,0,0,.08,1.09H478.1a3.79,3.79,0,0,1-.07-.87,2.38,2.38,0,0,1-2.1,1.08,2.14,2.14,0,0,1-2.31-2.06A2.1,2.1,0,0,1,475.67,369.59Zm2.26,1.08v-.31l-1.78.27c-.5.08-.91.36-.91.92a.9.9,0,0,0,1,.88A1.55,1.55,0,0,0,477.93,370.67Z"/><path class="cls-1" d="M483.27,371.26a1.28,1.28,0,0,0,1.39,1.16c.67,0,1-.36,1-.79s-.25-.64-.8-.76l-1-.22a2.06,2.06,0,0,1-1.83-2,2.37,2.37,0,0,1,2.51-2.2,2.41,2.41,0,0,1,2.63,1.91l-1.37.39a1.17,1.17,0,0,0-1.26-1,.89.89,0,0,0-1,.78.75.75,0,0,0,.69.71l1,.21a2.15,2.15,0,0,1,2,2.07,2.32,2.32,0,0,1-2.58,2.18,2.57,2.57,0,0,1-2.82-2.06Z"/><path class="cls-1" d="M495.83,371.55a3.07,3.07,0,0,1-3.08,2.16,3.63,3.63,0,0,1-.17-7.24c2.1,0,3.33,1.39,3.33,3.54a2.4,2.4,0,0,1,0,.52h-5a1.83,1.83,0,0,0,1.86,1.78,1.65,1.65,0,0,0,1.71-1.19Zm-1.55-2.21a1.53,1.53,0,0,0-1.68-1.51,1.64,1.64,0,0,0-1.67,1.51Z"/><path class="cls-1" d="M221.52,186.5V178h5.25v1.34H223v2.25h3.45v1.31H223v2.25h3.81v1.34Z"/><path class="cls-1" d="M230.58,183.55l-2.09-2.89h1.65c.11.18,1.18,1.7,1.28,1.87l1.27-1.87h1.58l-2.05,2.87,2.12,3h-1.63l-1.35-2c-.12.18-1.21,1.78-1.32,2h-1.6Z"/><path class="cls-1" d="M238.07,180.66h1.21v1.24h-1.21v2.71c0,.52.23.73.74.73a3,3,0,0,0,.48,0v1.15a2.21,2.21,0,0,1-.85.13,1.61,1.61,0,0,1-1.75-1.74v-2.94h-1.08v-1.24h.3a.83.83,0,0,0,.9-.91v-.88h1.26Z"/><path class="cls-1" d="M246.66,184.83a2.63,2.63,0,0,1-2.64,1.85,3.11,3.11,0,0,1-.14-6.2,2.73,2.73,0,0,1,2.85,3,2,2,0,0,1,0,.44h-4.27a1.56,1.56,0,0,0,1.6,1.52,1.41,1.41,0,0,0,1.46-1Zm-1.33-1.9a1.31,1.31,0,0,0-1.44-1.29,1.4,1.4,0,0,0-1.43,1.29Z"/><path class="cls-1" d="M252.32,182a3.11,3.11,0,0,0-.46,0c-1.08,0-1.57.62-1.57,1.71v2.78H248.9v-5.84h1.36v.94a1.77,1.77,0,0,1,1.69-1,2,2,0,0,1,.37,0Z"/><path class="cls-1" d="M255.72,186.5h-1.39v-5.84h1.36v.78a1.94,1.94,0,0,1,1.73-.95,2.06,2.06,0,0,1,2.11,2.31v3.69h-1.39V183c0-.72-.32-1.29-1.2-1.29a1.23,1.23,0,0,0-1.21,1.38Z"/><path class="cls-1" d="M263.46,183.15l1.5-.23c.34,0,.43-.22.43-.42,0-.49-.34-.89-1.1-.89a1.12,1.12,0,0,0-1.2,1.05l-1.27-.29a2.29,2.29,0,0,1,2.46-1.91c1.8,0,2.48,1,2.48,2.18v2.9a5.34,5.34,0,0,0,.07.94h-1.3a3.26,3.26,0,0,1-.06-.74,2,2,0,0,1-1.8.92,1.83,1.83,0,0,1-2-1.76A1.8,1.8,0,0,1,263.46,183.15Zm1.93.92v-.26l-1.52.23c-.43.07-.78.31-.78.79a.77.77,0,0,0,.85.76A1.33,1.33,0,0,0,265.39,184.08Z"/><path class="cls-1" d="M269.28,186.5v-8.68h1.39v8.68Z"/><path class="cls-1" d="M282.26,184.37h-3.6l-.79,2.13h-1.52l3.31-8.5h1.67l3.31,8.5h-1.57ZM279.17,183h2.59l-1.29-3.48Z"/><path class="cls-1" d="M288.06,183.18v3.32h-1.44V178h3.15a2.59,2.59,0,1,1,0,5.18Zm1.5-1.27a1.33,1.33,0,1,0,0-2.64h-1.5v2.64Z"/><path class="cls-1" d="M294.66,186.5V178h1.46v8.5Z"/><path class="cls-1" d="M299.58,184.58a1.09,1.09,0,0,0,1.19,1c.58,0,.88-.31.88-.67s-.22-.55-.68-.65l-.86-.19a1.76,1.76,0,0,1-1.57-1.7,2,2,0,0,1,2.15-1.88,2.06,2.06,0,0,1,2.25,1.63l-1.18.34a1,1,0,0,0-1.08-.88.76.76,0,0,0-.84.67.64.64,0,0,0,.59.61l.89.18a1.84,1.84,0,0,1,1.68,1.77,2,2,0,0,1-2.21,1.87,2.2,2.2,0,0,1-2.41-1.76Z"/><path class="cls-1" d="M224.85,204.35v7.15h-1.44v-7.15h-2.76V203h7v1.35Z"/><path class="cls-1" d="M229.91,208.15l1.5-.23c.34,0,.43-.22.43-.42,0-.49-.34-.89-1.1-.89a1.12,1.12,0,0,0-1.2,1.05l-1.27-.29a2.29,2.29,0,0,1,2.46-1.91c1.8,0,2.48,1,2.48,2.18v2.9a5.28,5.28,0,0,0,.07.94H232a3.28,3.28,0,0,1-.06-.74,2,2,0,0,1-1.8.92,1.83,1.83,0,0,1-2-1.76A1.8,1.8,0,0,1,229.91,208.15Zm1.93.92v-.26l-1.52.23c-.43.07-.78.31-.78.79a.77.77,0,0,0,.85.76A1.33,1.33,0,0,0,231.84,209.08Z"/><path class="cls-1" d="M236.42,209.58a1.09,1.09,0,0,0,1.19,1c.58,0,.88-.31.88-.67s-.22-.55-.68-.65l-.86-.19a1.76,1.76,0,0,1-1.57-1.7,2,2,0,0,1,2.15-1.88,2.06,2.06,0,0,1,2.25,1.63l-1.18.34a1,1,0,0,0-1.08-.88.76.76,0,0,0-.84.67.64.64,0,0,0,.59.61l.89.18a1.84,1.84,0,0,1,1.68,1.77,2,2,0,0,1-2.21,1.87,2.2,2.2,0,0,1-2.41-1.76Z"/><path class="cls-1" d="M245.12,208.13l2.45,3.37h-1.7l-1.71-2.39-.72.76v1.63h-1.38v-8.68h1.38V208l2.24-2.36h1.85Z"/><path class="cls-1" d="M250.11,209.58a1.09,1.09,0,0,0,1.19,1c.58,0,.88-.31.88-.67s-.22-.55-.68-.65l-.86-.19a1.76,1.76,0,0,1-1.57-1.7,2,2,0,0,1,2.15-1.88,2.06,2.06,0,0,1,2.25,1.63l-1.18.34a1,1,0,0,0-1.08-.88.76.76,0,0,0-.84.67.64.64,0,0,0,.59.61l.89.18a1.84,1.84,0,0,1,1.68,1.77,2,2,0,0,1-2.21,1.87,2.2,2.2,0,0,1-2.41-1.76Z"/><path class="cls-1" d="M221.52,236.5V228h3a4.25,4.25,0,0,1,0,8.5Zm3-1.32a2.94,2.94,0,0,0,0-5.86H223v5.86Z"/><path class="cls-1" d="M232.31,233.15l1.5-.23c.34,0,.43-.22.43-.42,0-.49-.34-.89-1.1-.89a1.12,1.12,0,0,0-1.2,1.05l-1.27-.29a2.29,2.29,0,0,1,2.46-1.91c1.8,0,2.48,1,2.48,2.18v2.9a5.34,5.34,0,0,0,.07.94h-1.3a3.26,3.26,0,0,1-.06-.74,2,2,0,0,1-1.8.92,1.83,1.83,0,0,1-2-1.76A1.8,1.8,0,0,1,232.31,233.15Zm1.93.92v-.26l-1.52.23c-.43.07-.78.31-.78.79a.77.77,0,0,0,.85.76A1.33,1.33,0,0,0,234.24,234.08Z"/><path class="cls-1" d="M239.87,230.66h1.21v1.24h-1.21v2.71c0,.52.23.73.74.73a3,3,0,0,0,.48,0v1.15a2.21,2.21,0,0,1-.85.13,1.61,1.61,0,0,1-1.75-1.74v-2.94h-1.08v-1.24h.3a.83.83,0,0,0,.9-.91v-.88h1.26Z"/><path class="cls-1" d="M244.76,233.15l1.5-.23c.34,0,.43-.22.43-.42,0-.49-.34-.89-1.1-.89a1.12,1.12,0,0,0-1.2,1.05l-1.27-.29a2.29,2.29,0,0,1,2.46-1.91c1.8,0,2.48,1,2.48,2.18v2.9a5.28,5.28,0,0,0,.07.94h-1.3a3.28,3.28,0,0,1-.06-.74,2,2,0,0,1-1.8.92,1.83,1.83,0,0,1-2-1.76A1.8,1.8,0,0,1,244.76,233.15Zm1.93.92v-.26l-1.52.23c-.43.07-.78.31-.78.79a.77.77,0,0,0,.85.76A1.33,1.33,0,0,0,246.69,234.08Z"/><path class="cls-1" d="M250.58,236.5v-8.68H252v3.56a2.11,2.11,0,0,1,1.83-.88c1.75,0,2.7,1.33,2.7,3a2.79,2.79,0,0,1-2.75,3.09,2,2,0,0,1-1.8-.92v.78Zm2.93-4.76a1.61,1.61,0,0,0-1.57,1.82,1.64,1.64,0,0,0,1.57,1.85c.91,0,1.57-.7,1.57-1.85S254.43,231.74,253.51,231.74Z"/><path class="cls-1" d="M260.07,233.15l1.5-.23c.34,0,.43-.22.43-.42,0-.49-.34-.89-1.1-.89a1.12,1.12,0,0,0-1.2,1.05l-1.27-.29a2.29,2.29,0,0,1,2.46-1.91c1.8,0,2.48,1,2.48,2.18v2.9a5.34,5.34,0,0,0,.07.94h-1.3a3.26,3.26,0,0,1-.06-.74,2,2,0,0,1-1.8.92,1.83,1.83,0,0,1-2-1.76A1.8,1.8,0,0,1,260.07,233.15Zm1.93.92v-.26l-1.52.23c-.43.07-.78.31-.78.79a.77.77,0,0,0,.85.76A1.33,1.33,0,0,0,262,234.08Z"/><path class="cls-1" d="M266.59,234.58a1.09,1.09,0,0,0,1.19,1c.58,0,.88-.31.88-.67s-.22-.55-.68-.65l-.86-.19a1.76,1.76,0,0,1-1.57-1.7,2,2,0,0,1,2.15-1.88,2.06,2.06,0,0,1,2.25,1.63l-1.18.34a1,1,0,0,0-1.08-.88.76.76,0,0,0-.84.67.64.64,0,0,0,.59.61l.89.18a1.84,1.84,0,0,1,1.68,1.77,2,2,0,0,1-2.21,1.87,2.2,2.2,0,0,1-2.41-1.76Z"/><path class="cls-1" d="M277.35,234.83a2.63,2.63,0,0,1-2.64,1.85,3.11,3.11,0,0,1-.14-6.2,2.73,2.73,0,0,1,2.85,3,2,2,0,0,1,0,.44h-4.27a1.56,1.56,0,0,0,1.6,1.52,1.41,1.41,0,0,0,1.46-1Zm-1.33-1.9a1.31,1.31,0,0,0-1.44-1.29,1.4,1.4,0,0,0-1.43,1.29Z"/><path class="cls-1" d="M286,233.14H285v3.36h-1.45V228h3.26a2.51,2.51,0,0,1,2.66,2.58,2.4,2.4,0,0,1-1.92,2.42l1.92,3.5h-1.63Zm.49-1.27a1.31,1.31,0,1,0,0-2.6H285v2.6Z"/><path class="cls-1" d="M296.68,234.83a2.63,2.63,0,0,1-2.64,1.85,3.11,3.11,0,0,1-.14-6.2,2.73,2.73,0,0,1,2.85,3,2,2,0,0,1,0,.44h-4.27a1.56,1.56,0,0,0,1.6,1.52,1.41,1.41,0,0,0,1.46-1Zm-1.33-1.9a1.31,1.31,0,0,0-1.44-1.29,1.4,1.4,0,0,0-1.43,1.29Z"/><path class="cls-1" d="M298.93,238.78v-8.12h1.34v.79a2.1,2.1,0,0,1,1.86-.92c1.73,0,2.7,1.32,2.7,3a2.79,2.79,0,0,1-2.75,3.07,2.11,2.11,0,0,1-1.77-.8v2.94Zm2.94-7a1.84,1.84,0,1,0,1.57,1.81A1.62,1.62,0,0,0,301.87,231.76Z"/><path class="cls-1" d="M312.62,233.57a3,3,0,1,1-3-3.09A3,3,0,0,1,312.62,233.57Zm-1.4,0a1.64,1.64,0,1,0-3.26,0,1.65,1.65,0,1,0,3.26,0Z"/><path class="cls-1" d="M224.45,254a2.3,2.3,0,0,1,2.59,2.29,1.89,1.89,0,0,1-1.26,1.83,2,2,0,0,1,1.52,2,2.39,2.39,0,0,1-2.64,2.35h-3.14V254Zm-.19,3.6a1.19,1.19,0,0,0,1.34-1.19c0-.72-.5-1.19-1.38-1.19h-1.27v2.38Zm.16,3.68c.86,0,1.43-.47,1.43-1.22a1.22,1.22,0,0,0-1.38-1.25h-1.51v2.47Z"/><path class="cls-1" d="M231.51,262.67a2.16,2.16,0,0,1-2.21-2.33v-3.68h1.39v3.43c0,.72.34,1.33,1.18,1.33a1.17,1.17,0,0,0,1.22-1.31v-3.45h1.39v4.77a9.52,9.52,0,0,0,.06,1.07h-1.33a4.36,4.36,0,0,1,0-.65A1.87,1.87,0,0,1,231.51,262.67Z"/><path class="cls-1" d="M237.83,260.58a1.09,1.09,0,0,0,1.19,1c.58,0,.88-.31.88-.67s-.22-.55-.68-.65l-.86-.19a1.76,1.76,0,0,1-1.57-1.7,2,2,0,0,1,2.15-1.88,2.06,2.06,0,0,1,2.25,1.63l-1.18.34a1,1,0,0,0-1.08-.88.76.76,0,0,0-.84.67.64.64,0,0,0,.59.61l.89.18a1.84,1.84,0,0,1,1.68,1.77,2,2,0,0,1-2.21,1.87,2.2,2.2,0,0,1-2.41-1.76Z"/><path class="cls-1" d="M244.14,253.7a.91.91,0,0,1,.91.91.91.91,0,1,1-.91-.91Zm-.68,8.8v-5.84h1.38v5.84Z"/><path class="cls-1" d="M248.87,262.5h-1.39v-5.84h1.36v.78a1.94,1.94,0,0,1,1.73-.95,2.06,2.06,0,0,1,2.11,2.31v3.69h-1.39V259c0-.72-.32-1.29-1.2-1.29a1.23,1.23,0,0,0-1.21,1.38Z"/><path class="cls-1" d="M260.37,260.83a2.63,2.63,0,0,1-2.64,1.85,3.11,3.11,0,0,1-.14-6.2,2.73,2.73,0,0,1,2.85,3,2,2,0,0,1,0,.44h-4.27a1.56,1.56,0,0,0,1.6,1.52,1.41,1.41,0,0,0,1.46-1Zm-1.33-1.9a1.31,1.31,0,0,0-1.44-1.29,1.4,1.4,0,0,0-1.43,1.29Z"/><path class="cls-1" d="M263.31,260.58a1.09,1.09,0,0,0,1.19,1c.58,0,.88-.31.88-.67s-.22-.55-.68-.65l-.86-.19a1.76,1.76,0,0,1-1.57-1.7,2,2,0,0,1,2.15-1.88,2.06,2.06,0,0,1,2.25,1.63l-1.18.34a1,1,0,0,0-1.08-.88.76.76,0,0,0-.84.67.64.64,0,0,0,.59.61l.89.18a1.84,1.84,0,0,1,1.68,1.77,2,2,0,0,1-2.21,1.87,2.2,2.2,0,0,1-2.41-1.76Z"/><path class="cls-1" d="M269.64,260.58a1.09,1.09,0,0,0,1.19,1c.58,0,.88-.31.88-.67s-.22-.55-.68-.65l-.86-.19a1.76,1.76,0,0,1-1.57-1.7,2,2,0,0,1,2.15-1.88,2.06,2.06,0,0,1,2.25,1.63l-1.18.34a1,1,0,0,0-1.08-.88.76.76,0,0,0-.84.67.64.64,0,0,0,.59.61l.89.18a1.84,1.84,0,0,1,1.68,1.77,2,2,0,0,1-2.21,1.87,2.2,2.2,0,0,1-2.41-1.76Z"/><path class="cls-1" d="M280.64,259.18v3.32H279.2V254h3.15a2.59,2.59,0,1,1,0,5.18Zm1.5-1.27a1.33,1.33,0,1,0,0-2.64h-1.5v2.64Z"/><path class="cls-1" d="M290.41,258a3.11,3.11,0,0,0-.46,0c-1.08,0-1.57.62-1.57,1.71v2.78H287v-5.84h1.36v.94a1.77,1.77,0,0,1,1.69-1,2,2,0,0,1,.37,0Z"/><path class="cls-1" d="M298,259.57a3,3,0,1,1-3-3.09A3,3,0,0,1,298,259.57Zm-1.4,0a1.64,1.64,0,1,0-3.26,0,1.65,1.65,0,1,0,3.26,0Z"/><path class="cls-1" d="M301.08,259.57a1.66,1.66,0,0,0,1.63,1.83,1.47,1.47,0,0,0,1.46-1.08l1.22.44a2.71,2.71,0,0,1-2.69,1.91,3,3,0,0,1-3-3.11,3,3,0,0,1,3-3.09,2.61,2.61,0,0,1,2.67,1.92l-1.25.46a1.37,1.37,0,0,0-1.42-1.09A1.64,1.64,0,0,0,301.08,259.57Z"/><path class="cls-1" d="M312.58,260.83a2.63,2.63,0,0,1-2.64,1.85,3.11,3.11,0,0,1-.14-6.2,2.73,2.73,0,0,1,2.85,3,2,2,0,0,1,0,.44h-4.27a1.56,1.56,0,0,0,1.6,1.52,1.41,1.41,0,0,0,1.46-1Zm-1.33-1.9a1.31,1.31,0,0,0-1.44-1.29,1.4,1.4,0,0,0-1.43,1.29Z"/><path class="cls-1" d="M315.53,260.58a1.09,1.09,0,0,0,1.19,1c.58,0,.88-.31.88-.67s-.22-.55-.68-.65l-.86-.19a1.76,1.76,0,0,1-1.57-1.7,2,2,0,0,1,2.15-1.88,2.06,2.06,0,0,1,2.25,1.63l-1.18.34a1,1,0,0,0-1.08-.88.76.76,0,0,0-.84.67.64.64,0,0,0,.59.61l.89.18a1.84,1.84,0,0,1,1.68,1.77,2,2,0,0,1-2.21,1.87,2.2,2.2,0,0,1-2.41-1.76Z"/><path class="cls-1" d="M321.85,260.58a1.09,1.09,0,0,0,1.19,1c.58,0,.88-.31.88-.67s-.22-.55-.68-.65l-.86-.19a1.76,1.76,0,0,1-1.57-1.7,2,2,0,0,1,2.15-1.88,2.06,2.06,0,0,1,2.25,1.63l-1.18.34a1,1,0,0,0-1.08-.88.76.76,0,0,0-.84.67.64.64,0,0,0,.59.61l.89.18a1.84,1.84,0,0,1,1.68,1.77,2,2,0,0,1-2.21,1.87,2.2,2.2,0,0,1-2.41-1.76Z"/><path class="cls-1" d="M332.61,260.83a2.63,2.63,0,0,1-2.64,1.85,3.11,3.11,0,0,1-.14-6.2,2.73,2.73,0,0,1,2.85,3,2,2,0,0,1,0,.44h-4.27a1.56,1.56,0,0,0,1.6,1.52,1.41,1.41,0,0,0,1.46-1Zm-1.33-1.9a1.31,1.31,0,0,0-1.44-1.29,1.4,1.4,0,0,0-1.43,1.29Z"/><path class="cls-1" d="M335.55,260.58a1.09,1.09,0,0,0,1.19,1c.58,0,.88-.31.88-.67s-.22-.55-.68-.65l-.86-.19a1.76,1.76,0,0,1-1.57-1.7,2,2,0,0,1,2.15-1.88,2.06,2.06,0,0,1,2.25,1.63l-1.18.34a1,1,0,0,0-1.08-.88.76.76,0,0,0-.84.67.64.64,0,0,0,.59.61l.89.18a1.84,1.84,0,0,1,1.68,1.77,2,2,0,0,1-2.21,1.87,2.2,2.2,0,0,1-2.41-1.76Z"/><path class="cls-1" d="M485,323.18v.07c0,1.31-2.12,2.81-5.52,3.93a58.92,58.92,0,0,1-31,0,19.14,19.14,0,0,1-2.79-1.15,7.71,7.71,0,0,1-2.14-1.51,2.47,2.47,0,0,1-.49-.77,1.27,1.27,0,0,1-.06-.18.44.44,0,0,1,0-.1.83.83,0,0,1,0-.22h0l0-.13c.31-2.77,9-5.86,21-5.86S484.68,320.34,485,323.18Z"/><path class="cls-1" d="M485,326.69V333c0,1.3-2,2.75-5.36,3.88l-.16,0a58.92,58.92,0,0,1-31,0l-.13,0C445,335.75,443,334.3,443,333v-6.31l.22.16c.16.12.33.24.51.35l.52.32a13.92,13.92,0,0,0,1.34.67c.21.1.43.19.66.28.51.22,1.06.42,1.65.61a60.81,60.81,0,0,0,32.2,0c.59-.19,1.14-.39,1.65-.61.23-.09.45-.18.66-.28a13.92,13.92,0,0,0,1.34-.67l.52-.32c.18-.11.35-.23.51-.35Z"/><path class="cls-2" d="M443,323.25h0a.83.83,0,0,0,0,.22A1.79,1.79,0,0,1,443,323.25Z"/><path class="cls-1" d="M485,342.12h0c0,1.3-2,2.75-5.36,3.88l-.16,0a58.92,58.92,0,0,1-31,0l-.13,0c-2.66-.9-4.47-2-5.11-3v0a1.44,1.44,0,0,1-.26-.72v-5.8l.31.23a4.38,4.38,0,0,0,.42.28,4.28,4.28,0,0,0,.42.26l.35.2a17.81,17.81,0,0,0,1.9.89c.47.19,1,.37,1.49.54l.16.05a61.06,61.06,0,0,0,31.9,0l.16-.05a22.29,22.29,0,0,0,2.8-1.13l.59-.3.35-.2a4.28,4.28,0,0,0,.42-.26,4.38,4.38,0,0,0,.42-.28l.31-.23Z"/><path class="cls-1" d="M447.89,338.83c-.53-.17-1-.35-1.49-.54C446.87,338.47,447.36,338.65,447.89,338.83Z"/><path class="cls-2" d="M446.4,338.29c.47.19,1,.37,1.49.54C447.36,338.65,446.87,338.47,446.4,338.29Zm0,0c.47.19,1,.37,1.49.54C447.36,338.65,446.87,338.47,446.4,338.29Zm0,0c.47.19,1,.37,1.49.54C447.36,338.65,446.87,338.47,446.4,338.29Zm0,0c.47.19,1,.37,1.49.54C447.36,338.65,446.87,338.47,446.4,338.29Zm0,0c.47.19,1,.37,1.49.54C447.36,338.65,446.87,338.47,446.4,338.29Zm0,0c.47.19,1,.37,1.49.54C447.36,338.65,446.87,338.47,446.4,338.29Zm0,0c.47.19,1,.37,1.49.54C447.36,338.65,446.87,338.47,446.4,338.29Z"/><path class="cls-1" d="M485,351.88l0,.13c-.31,2.77-9,5.86-21,5.86s-20.68-3.09-21-5.86v-6.46a16.23,16.23,0,0,0,4.89,2.4l.16,0a61.06,61.06,0,0,0,31.9,0l.16,0a16.47,16.47,0,0,0,4.89-2.4v6.33Z"/><path class="cls-4" d="M372.17,233c80.39.75,91.42,43.58,91.82,79.82"/><polygon class="cls-5" points="378.66 241.33 380.05 239.89 372.94 233.05 380.27 226.46 378.93 224.97 370 233 378.66 241.33"/><polygon class="cls-5" points="455.64 306.38 457.08 304.98 463.94 312.06 470.5 304.7 471.99 306.04 464 315 455.64 306.38"/><path class="cls-4" d="M412,161c116,0,87.48-22.62,173.83-23"/><polygon class="cls-5" points="579.34 146.33 577.95 144.88 585.06 138.05 577.73 131.46 579.07 129.97 588 138 579.34 146.33"/><path class="cls-4" d="M588,177"/><path class="cls-4" d="M373,158"/><path class="cls-4" d="M372.17,159c60.62.32,112.31,13.8,213.66,14"/><polygon class="cls-5" points="378.58 167.41 379.98 165.98 372.94 159.08 380.33 152.56 379.01 151.06 370 159 378.58 167.41"/><polygon class="cls-5" points="579.07 181.03 577.73 179.55 585.06 172.95 577.95 166.12 579.34 164.68 588 173 579.07 181.03"/><path class="cls-4" d="M585.83,211c-93.21-.75-118.21-50-173.83-50"/><polygon class="cls-5" points="579.34 202.68 577.95 204.12 585.06 210.95 577.73 217.54 579.07 219.03 588 211 579.34 202.68"/><path class="cls-4" d="M372.16,183c50,2.06,139.18,73.56,213.66,74.93"/><polygon class="cls-5" points="378.19 191.79 379.65 190.43 372.93 183.21 380.62 177.03 379.36 175.47 370 183 378.19 191.79"/><polygon class="cls-5" points="578.96 265.9 577.64 264.4 585.07 257.91 578.05 250.97 579.46 249.55 588 258 578.96 265.9"/><line class="cls-6" x1="523.5" y1="1.5" x2="523.5" y2="7.5"/><line class="cls-7" x1="523.5" y1="19.66" x2="523.5" y2="378.42"/><line class="cls-6" x1="523.5" y1="384.5" x2="523.5" y2="390.5"/></g></g></svg>