<svg xmlns="http://www.w3.org/2000/svg" viewBox="0 0 732.5 392"><defs><style>.cls-1,.cls-13,.cls-23,.cls-25,.cls-27,.cls-32,.cls-34,.cls-42,.cls-47,.cls-51{fill:#3ebeb1;}.cls-2,.cls-3,.cls-9{fill:#fff;}.cls-3{font-size:27.39px;}.cls-13,.cls-18,.cls-21,.cls-23,.cls-25,.cls-27,.cls-3,.cls-32,.cls-34,.cls-42,.cls-47,.cls-51{font-family:CircularStd-Medium, Circular Std;}.cls-4{letter-spacing:-0.01em;}.cls-5{letter-spacing:0em;}.cls-6{letter-spacing:0em;}.cls-7{letter-spacing:-0.02em;}.cls-8{letter-spacing:0em;}.cls-25,.cls-27,.cls-32,.cls-34,.cls-9{font-size:14px;}.cls-9{font-family:CircularStd-MediumItalic, Circular Std;font-style:italic;}.cls-36,.cls-9{letter-spacing:0.07em;}.cls-10,.cls-34{letter-spacing:0.07em;}.cls-11{letter-spacing:0.07em;}.cls-12{letter-spacing:0.04em;}.cls-13,.cls-18,.cls-21{font-size:18px;}.cls-13,.cls-28{letter-spacing:0.06em;}.cls-14{letter-spacing:0.07em;}.cls-15{letter-spacing:0.09em;}.cls-16{letter-spacing:0.06em;}.cls-17,.cls-42{letter-spacing:0.07em;}.cls-18,.cls-21{fill:#ff8232;}.cls-18{letter-spacing:0.07em;}.cls-19{letter-spacing:0.06em;}.cls-20{letter-spacing:0.07em;}.cls-21{letter-spacing:0.05em;}.cls-22{letter-spacing:0.07em;}.cls-23,.cls-42,.cls-47,.cls-51{font-size:12px;}.cls-23,.cls-39{letter-spacing:0.06em;}.cls-24,.cls-51{letter-spacing:0.07em;}.cls-25,.cls-33{letter-spacing:0.07em;}.cls-26{letter-spacing:0.06em;}.cls-27{letter-spacing:0.03em;}.cls-29{letter-spacing:0.05em;}.cls-30{letter-spacing:0.08em;}.cls-31{letter-spacing:0.07em;}.cls-32,.cls-41{letter-spacing:0.07em;}.cls-35{letter-spacing:0.08em;}.cls-37{letter-spacing:0.07em;}.cls-38{letter-spacing:0.07em;}.cls-40{letter-spacing:0.03em;}.cls-43{letter-spacing:0.08em;}.cls-44{letter-spacing:0.07em;}.cls-45{letter-spacing:0.07em;}.cls-46{letter-spacing:0.07em;}.cls-47{letter-spacing:-0.02em;}.cls-48{letter-spacing:0.07em;}.cls-49{letter-spacing:0.07em;}.cls-50{letter-spacing:0.05em;}.cls-52,.cls-54,.cls-55{fill:none;stroke-miterlimit:10;}.cls-52{stroke:#fddf26;stroke-width:2px;}.cls-53{fill:#fddf26;}.cls-54,.cls-55{stroke:#ff8232;stroke-linecap:round;stroke-width:3px;}.cls-55{stroke-dasharray:12.16 12.16;}</style></defs><title>Asset 1</title><g id="Layer_2" data-name="Layer 2"><g id="fix_white_masks" data-name="fix white masks"><path class="cls-1" d="M399.51,101h-12a1.5,1.5,0,0,0,0,3h12a1.5,1.5,0,0,0,0-3Zm-24,0h-12a1.5,1.5,0,0,0,0,3h12a1.5,1.5,0,0,0,0-3Zm-24,0h-12a1.5,1.5,0,0,0,0,3h12a1.5,1.5,0,0,0,0-3Zm-24,0h-12a1.5,1.5,0,0,0,0,3h12a1.5,1.5,0,0,0,0-3Zm-24,0h-12a1.5,1.5,0,0,0,0,3h12a1.5,1.5,0,0,0,0-3Zm-24,0h-12a1.5,1.5,0,0,0,0,3h12a1.5,1.5,0,0,0,0-3Zm-24,0h-12a1.5,1.5,0,0,0,0,3h12a1.5,1.5,0,0,0,0-3Zm-24,0h-12a1.5,1.5,0,0,0,0,3h12a1.5,1.5,0,1,0,0-3Zm-24,0h-12a1.5,1.5,0,0,0,0,3h12a1.5,1.5,0,1,0,0-3Zm-24,0h-12a1.5,1.5,0,0,0,0,3h12a1.5,1.5,0,1,0,0-3Zm-24,0h-12a1.5,1.5,0,0,0,0,3h12a1.5,1.5,0,1,0,0-3Zm-24,0h-12a1.5,1.5,0,1,0,0,3h12a1.5,1.5,0,0,0,0-3Zm-96,0h-12a1.5,1.5,0,1,0,0,3h12a1.5,1.5,0,0,0,0-3Zm-24,0H4.14a4.48,4.48,0,0,0-.64.1A1.5,1.5,0,0,0,4.16,104a1.51,1.51,0,0,1,.33,0h11a1.5,1.5,0,0,0,0-3Zm-14,8.92a1.5,1.5,0,0,0-1.5,1.5v12a1.5,1.5,0,0,0,3,0v-12a1.5,1.5,0,0,0-1.5-1.5Zm0,24a1.5,1.5,0,0,0-1.5,1.5v12a1.5,1.5,0,0,0,3,0v-12a1.5,1.5,0,0,0-1.5-1.5Zm0,24a1.5,1.5,0,0,0-1.5,1.5v12a1.5,1.5,0,0,0,3,0v-12a1.5,1.5,0,0,0-1.5-1.5Zm0,24a1.5,1.5,0,0,0-1.5,1.5v12a1.5,1.5,0,0,0,3,0v-12a1.5,1.5,0,0,0-1.5-1.5Zm0,24a1.5,1.5,0,0,0-1.5,1.5v12a1.5,1.5,0,0,0,3,0v-12a1.5,1.5,0,0,0-1.5-1.5Zm0,24a1.5,1.5,0,0,0-1.5,1.5v12a1.5,1.5,0,0,0,3,0v-12a1.5,1.5,0,0,0-1.5-1.5Zm0,24a1.5,1.5,0,0,0-1.5,1.5v12a1.5,1.5,0,0,0,3,0v-12a1.5,1.5,0,0,0-1.5-1.5Zm0,24a1.5,1.5,0,0,0-1.5,1.5v12a1.5,1.5,0,0,0,3,0v-12a1.5,1.5,0,0,0-1.5-1.5ZM18.34,296h-12a1.5,1.5,0,1,0,0,3h12a1.5,1.5,0,1,0,0-3Zm24,0h-12a1.5,1.5,0,0,0,0,3h12a1.5,1.5,0,0,0,0-3Zm24,0h-12a1.5,1.5,0,0,0,0,3h12a1.5,1.5,0,0,0,0-3Zm24,0h-12a1.5,1.5,0,1,0,0,3h12a1.5,1.5,0,0,0,0-3Zm24,0h-12a1.5,1.5,0,0,0,0,3h12a1.5,1.5,0,0,0,0-3Zm24,0h-12a1.5,1.5,0,0,0,0,3h12a1.5,1.5,0,0,0,0-3Zm24,0h-12a1.5,1.5,0,0,0,0,3h12a1.5,1.5,0,0,0,0-3Zm24,0h-12a1.5,1.5,0,0,0,0,3h12a1.5,1.5,0,1,0,0-3Zm24,0h-12a1.5,1.5,0,0,0,0,3h12a1.5,1.5,0,1,0,0-3Zm24,0h-12a1.5,1.5,0,0,0,0,3h12a1.5,1.5,0,1,0,0-3Zm24,0h-12a1.5,1.5,0,0,0,0,3h12a1.5,1.5,0,1,0,0-3Zm24,0h-12a1.5,1.5,0,0,0,0,3h12a1.5,1.5,0,1,0,0-3Zm24,0h-12a1.5,1.5,0,0,0,0,3h12a1.5,1.5,0,1,0,0-3Zm24,0h-12a1.5,1.5,0,0,0,0,3h12a1.5,1.5,0,1,0,0-3Zm24,0h-12a1.5,1.5,0,0,0,0,3h12a1.5,1.5,0,1,0,0-3Zm24,0h-12a1.5,1.5,0,0,0,0,3h12a1.5,1.5,0,1,0,0-3Zm22.93-.57a1.49,1.49,0,0,0-.88.29,1.48,1.48,0,0,1-.88.29h-9.17a1.5,1.5,0,0,0,0,3h10.14a4.47,4.47,0,0,0,1.68-.76,1.5,1.5,0,0,0-.89-2.71Zm1.23-22.19a1.5,1.5,0,0,0-1.5,1.5v12a1.5,1.5,0,0,0,3,0v-12a1.5,1.5,0,0,0-1.5-1.5Zm0-24a1.5,1.5,0,0,0-1.5,1.5v12a1.5,1.5,0,0,0,3,0v-12a1.5,1.5,0,0,0-1.5-1.5Zm0-24a1.5,1.5,0,0,0-1.5,1.5v12a1.5,1.5,0,0,0,3,0v-12a1.5,1.5,0,0,0-1.5-1.5Zm0-24a1.5,1.5,0,0,0-1.5,1.5v12a1.5,1.5,0,0,0,3,0v-12a1.5,1.5,0,0,0-1.5-1.5Zm0-24a1.5,1.5,0,0,0-1.5,1.5v12a1.5,1.5,0,0,0,3,0v-12a1.5,1.5,0,0,0-1.5-1.5Zm0-24a1.5,1.5,0,0,0-1.5,1.5v12a1.5,1.5,0,0,0,3,0v-12a1.5,1.5,0,0,0-1.5-1.5Zm0-24a1.5,1.5,0,0,0-1.5,1.5v12a1.5,1.5,0,0,0,3,0v-12a1.5,1.5,0,0,0-1.5-1.5Zm0-24a1.5,1.5,0,0,0-1.5,1.5v12a1.5,1.5,0,0,0,3,0v-12a1.5,1.5,0,0,0-1.5-1.5Z"/><rect class="cls-1" x="15" y="116" width="374" height="168" rx="4.49" ry="4.49"/><rect class="cls-2" x="210" y="148" width="160" height="20" rx="3.74" ry="3.74"/><rect class="cls-2" x="210" y="173" width="160" height="20" rx="3.74" ry="3.74"/><rect class="cls-2" x="210" y="198" width="160" height="20" rx="3.74" ry="3.74"/><rect class="cls-2" x="210" y="223" width="160" height="20" rx="3.74" ry="3.74"/><rect class="cls-2" x="210" y="248" width="160" height="20" rx="3.74" ry="3.74"/><text class="cls-3" transform="translate(41 192.48)"><tspan class="cls-4">E</tspan><tspan class="cls-5" x="15.67" y="0">r</tspan><tspan class="cls-6" x="26.13" y="0">l</tspan><tspan x="33.36" y="0">ang </tspan><tspan class="cls-7" x="86.57" y="0">O</tspan><tspan class="cls-8" x="108.02" y="0">TP</tspan><tspan x="0" y="32.87">BEAM</tspan></text><text class="cls-9" transform="translate(210.5 138.5)">P<tspan class="cls-10" x="9.2" y="0">ro</tspan><tspan class="cls-11" x="24.23" y="0">c</tspan><tspan class="cls-10" x="32.41" y="0">ess </tspan><tspan class="cls-12" x="59.86" y="0">T</tspan><tspan class="cls-10" x="68.49" y="0">rees</tspan></text><text class="cls-13" transform="translate(51.5 105.5)">S<tspan class="cls-14" x="11.92" y="0">e</tspan><tspan class="cls-15" x="23.04" y="0">r</tspan><tspan class="cls-16" x="31.45" y="0">v</tspan><tspan class="cls-17" x="41.89" y="0">er</tspan></text><text class="cls-18" transform="translate(161.5 64.5)">T<tspan class="cls-17" x="12.22" y="0">he </tspan><tspan class="cls-19" x="40.66" y="0">C</tspan><tspan class="cls-17" x="55.39" y="0">l</tspan><tspan class="cls-20" x="61.43" y="0">ou</tspan><tspan class="cls-17" x="84.65" y="0">d</tspan></text><text class="cls-21" transform="translate(592.5 64.5)">P<tspan class="cls-14" x="11.74" y="0">ublic In</tspan><tspan class="cls-20" x="82.42" y="0">t</tspan><tspan class="cls-17" x="90.2" y="0">e</tspan><tspan class="cls-22" x="101.32" y="0">r</tspan><tspan class="cls-17" x="109.46" y="0">net</tspan></text><text class="cls-23" transform="translate(220.5 162.5)">P<tspan class="cls-24" x="7.97" y="0">hoenix</tspan></text><text class="cls-25" transform="translate(594.5 142.5)">Br<tspan class="cls-26" x="15.69" y="0">o</tspan><tspan class="cls-10" x="24.61" y="0">w</tspan><tspan x="36.99" y="0">s</tspan><tspan class="cls-10" x="44.32" y="0">er</tspan></text><text class="cls-27" transform="translate(594.5 179.5)">W<tspan class="cls-10" x="14.7" y="0">eb </tspan><tspan class="cls-28" x="37.24" y="0">S</tspan><tspan class="cls-10" x="46.51" y="0">oc</tspan><tspan class="cls-29" x="64.15" y="0">k</tspan><tspan class="cls-10" x="72.42" y="0">e</tspan><tspan class="cls-30" x="81.07" y="0">t</tspan><tspan class="cls-31" x="87.3" y="0">s</tspan></text><text class="cls-32" transform="translate(594.5 216.5)">M<tspan class="cls-10" x="14.25" y="0">obile </tspan><tspan class="cls-33" x="55.27" y="0">A</tspan><tspan class="cls-31" x="66.16" y="0">pps</tspan></text><text class="cls-34" transform="translate(594.5 253.5)">E<tspan class="cls-35" x="9.13" y="0">x</tspan><tspan class="cls-36" x="17.39" y="0">t</tspan><tspan x="23.44" y="0">e</tspan><tspan class="cls-37" x="32.09" y="0">r</tspan><tspan class="cls-38" x="38.42" y="0">nal </tspan><tspan class="cls-29" x="65.01" y="0">S</tspan><tspan class="cls-39" x="74.06" y="0">y</tspan><tspan x="82.53" y="0">s</tspan><tspan class="cls-33" x="89.91" y="0">t</tspan><tspan x="95.95" y="0">ems</tspan><tspan class="cls-40"><tspan x="0" y="16.8">&amp;</tspan><tspan class="cls-10" x="10.33" y="16.8" xml:space="preserve"> A</tspan><tspan class="cls-41" x="25.72" y="16.8">P</tspan><tspan class="cls-10" x="35.1" y="16.8">I</tspan><tspan x="40.17" y="16.8">s</tspan></tspan></text><text class="cls-34" transform="translate(429.5 373.5)">D<tspan class="cls-41" x="11.09" y="0">a</tspan><tspan class="cls-11" x="19.49" y="0">t</tspan><tspan x="25.62" y="0">aba</tspan><tspan class="cls-33" x="51.91" y="0">s</tspan><tspan x="59.25" y="0">e</tspan></text><text class="cls-42" transform="translate(220.5 186.5)">E<tspan class="cls-43" x="7.82" y="0">x</tspan><tspan class="cls-44" x="14.9" y="0">t</tspan><tspan class="cls-24" x="20.09" y="0">e</tspan><tspan class="cls-45" x="27.5" y="0">r</tspan><tspan class="cls-24" x="32.93" y="0">nal A</tspan><tspan class="cls-46" x="65.1" y="0">P</tspan><tspan x="73.14" y="0">Is</tspan></text><text class="cls-47" transform="translate(220.5 211.5)">T<tspan class="cls-24" x="7.1" y="0">asks</tspan></text><text class="cls-42" transform="translate(220.5 236.5)">D<tspan class="cls-48" x="9.5" y="0">a</tspan><tspan class="cls-11" x="16.7" y="0">t</tspan><tspan class="cls-24" x="21.96" y="0">aba</tspan><tspan class="cls-49" x="44.5" y="0">s</tspan><tspan class="cls-24" x="50.78" y="0">e </tspan><tspan class="cls-50" x="62.02" y="0">R</tspan><tspan class="cls-24" x="70.11" y="0">epo</tspan></text><text class="cls-51" transform="translate(220.5 262.5)">…</text><path class="cls-1" d="M485,323.18v.07c0,1.31-2.12,2.81-5.52,3.93a58.92,58.92,0,0,1-31,0,19.14,19.14,0,0,1-2.79-1.15,7.71,7.71,0,0,1-2.14-1.51,2.47,2.47,0,0,1-.49-.77,1.27,1.27,0,0,1-.06-.18.44.44,0,0,1,0-.1.83.83,0,0,1,0-.22h0l0-.13c.31-2.77,9-5.86,21-5.86S484.68,320.34,485,323.18Z"/><path class="cls-1" d="M485,326.69V333c0,1.3-2,2.75-5.36,3.88l-.16,0a58.92,58.92,0,0,1-31,0l-.13,0C445,335.75,443,334.3,443,333v-6.31l.22.16c.16.12.33.24.51.35l.52.32a13.92,13.92,0,0,0,1.34.67c.21.1.43.19.66.28.51.22,1.06.42,1.65.61a60.81,60.81,0,0,0,32.2,0c.59-.19,1.14-.39,1.65-.61.23-.09.45-.18.66-.28a13.92,13.92,0,0,0,1.34-.67l.52-.32c.18-.11.35-.23.51-.35Z"/><path class="cls-2" d="M443,323.25h0a.83.83,0,0,0,0,.22A1.79,1.79,0,0,1,443,323.25Z"/><path class="cls-1" d="M485,342.12h0c0,1.3-2,2.75-5.36,3.88l-.16,0a58.92,58.92,0,0,1-31,0l-.13,0c-2.66-.9-4.47-2-5.11-3v0a1.44,1.44,0,0,1-.26-.72v-5.8l.31.23a4.38,4.38,0,0,0,.42.28,4.28,4.28,0,0,0,.42.26l.35.2a17.81,17.81,0,0,0,1.9.89c.47.19,1,.37,1.49.54l.16.05a61.06,61.06,0,0,0,31.9,0l.16-.05a22.29,22.29,0,0,0,2.8-1.13l.59-.3.35-.2a4.28,4.28,0,0,0,.42-.26,4.38,4.38,0,0,0,.42-.28l.31-.23Z"/><path class="cls-1" d="M447.89,338.83c-.53-.17-1-.35-1.49-.54C446.87,338.47,447.36,338.65,447.89,338.83Z"/><path class="cls-2" d="M446.4,338.29c.47.19,1,.37,1.49.54C447.36,338.65,446.87,338.47,446.4,338.29Zm0,0c.47.19,1,.37,1.49.54C447.36,338.65,446.87,338.47,446.4,338.29Zm0,0c.47.19,1,.37,1.49.54C447.36,338.65,446.87,338.47,446.4,338.29Zm0,0c.47.19,1,.37,1.49.54C447.36,338.65,446.87,338.47,446.4,338.29Zm0,0c.47.19,1,.37,1.49.54C447.36,338.65,446.87,338.47,446.4,338.29Zm0,0c.47.19,1,.37,1.49.54C447.36,338.65,446.87,338.47,446.4,338.29Zm0,0c.47.19,1,.37,1.49.54C447.36,338.65,446.87,338.47,446.4,338.29Z"/><path class="cls-1" d="M485,351.88l0,.13c-.31,2.77-9,5.86-21,5.86s-20.68-3.09-21-5.86v-6.46a16.23,16.23,0,0,0,4.89,2.4l.16,0a61.06,61.06,0,0,0,31.9,0l.16,0a16.47,16.47,0,0,0,4.89-2.4v6.33Z"/><path class="cls-52" d="M372.17,233c80.39.75,91.42,43.58,91.82,79.82"/><polygon class="cls-53" points="378.66 241.33 380.05 239.89 372.94 233.05 380.27 226.46 378.93 224.97 370 233 378.66 241.33"/><polygon class="cls-53" points="455.64 306.38 457.08 304.98 463.94 312.06 470.5 304.7 471.99 306.04 464 315 455.64 306.38"/><path class="cls-52" d="M412,161c116,0,87.48-22.62,173.83-23"/><polygon class="cls-53" points="579.34 146.33 577.95 144.88 585.06 138.05 577.73 131.46 579.07 129.97 588 138 579.34 146.33"/><path class="cls-52" d="M588,177"/><path class="cls-52" d="M373,158"/><path class="cls-52" d="M372.17,159c60.62.32,112.31,13.8,213.66,14"/><polygon class="cls-53" points="378.58 167.41 379.98 165.98 372.94 159.08 380.33 152.56 379.01 151.06 370 159 378.58 167.41"/><polygon class="cls-53" points="579.07 181.03 577.73 179.55 585.06 172.95 577.95 166.12 579.34 164.68 588 173 579.07 181.03"/><path class="cls-52" d="M585.83,211c-93.21-.75-118.21-50-173.83-50"/><polygon class="cls-53" points="579.34 202.68 577.95 204.12 585.06 210.95 577.73 217.54 579.07 219.03 588 211 579.34 202.68"/><path class="cls-52" d="M372.16,183c50,2.06,139.18,73.56,213.66,74.93"/><polygon class="cls-53" points="378.19 191.79 379.65 190.43 372.93 183.21 380.62 177.03 379.36 175.47 370 183 378.19 191.79"/><polygon class="cls-53" points="578.96 265.9 577.64 264.4 585.07 257.91 578.05 250.97 579.46 249.55 588 258 578.96 265.9"/><line class="cls-54" x1="523.5" y1="1.5" x2="523.5" y2="7.5"/><line class="cls-55" x1="523.5" y1="19.66" x2="523.5" y2="378.42"/><line class="cls-54" x1="523.5" y1="384.5" x2="523.5" y2="390.5"/></g></g></svg>