<svg xmlns="http://www.w3.org/2000/svg" viewBox="0 0 234 91.12"><defs><style>.cls-1{fill:#3cbeb1;}.cls-2{fill:#31998c;}.cls-3{fill:#21665e;}</style></defs><g id="Layer_2" data-name="Layer 2"><g id="Layer_1-2" data-name="Layer 1"><path class="cls-1" d="M78.83,25.89a6.71,6.71,0,0,0-1.62-1.82l-26-20.29a1.73,1.73,0,0,0-1-.36H40.81a6.36,6.36,0,0,0-3.58,1.11L4.13,27.31a1.65,1.65,0,0,0-.68,1L.23,40.49a6.77,6.77,0,0,0,.08,3.76l11.26,36,.09.29L23,88.14l.48.15H63.91a.86.86,0,0,0,.53-.19l8.87-6.95a6.09,6.09,0,0,0,2-2.85L87.79,41.51a.88.88,0,0,0-.07-.71ZM50.14,5.52a.42.42,0,0,1,.51,0L76.17,25.41a4.9,4.9,0,0,1,1.2,1.36L83,36.23a.42.42,0,0,1-.61.56L50.67,13.38a.44.44,0,0,0-.5,0L17.74,36.94a1.27,1.27,0,0,1-2-.64l-1.42-4.43a.41.41,0,0,1,.15-.47Zm-6.35,15L70,39.5a.43.43,0,0,1,.16.47l-10,30.77a.43.43,0,0,1-.41.3H27.37a.43.43,0,0,1-.41-.3L17,40a.43.43,0,0,1,.16-.47l26.17-19A.45.45,0,0,1,43.79,20.48ZM5.61,28.36,38.2,5.93a4.57,4.57,0,0,1,2.6-.81h5.7a.43.43,0,0,1,.25.77L12.51,30.75a.44.44,0,0,0-.15.48L14.88,39h0l9.86,30.34A1.28,1.28,0,0,1,23.52,71H18.88a.42.42,0,0,1-.4-.3l-13-41.9A.43.43,0,0,1,5.61,28.36Zm7.3,50.46L1.53,42.46a1.69,1.69,0,0,0,0-.23L4,32.7a.43.43,0,0,1,.82,0L17.22,72.44a.43.43,0,0,0,.41.3H57.7a1.27,1.27,0,0,1,1.21,1.67l-1.44,4.42a.43.43,0,0,1-.4.29H13.31A.43.43,0,0,1,12.91,78.82Zm50.48,7.47a.42.42,0,0,1-.4.3H24.21l-1-.29-7-4.71a.42.42,0,0,1,.23-.77H58.3a.41.41,0,0,0,.4-.3l2.73-8.37-.79-.26h0l.81.27L71.12,42.4a1.27,1.27,0,0,1,1.95-.64l3.76,2.73A.44.44,0,0,1,77,45ZM85.88,41.84l-12.54,37-.14.2-6.5,5.09A.43.43,0,0,1,66,83.7L79,44.32a.41.41,0,0,0-.16-.48l-7.12-5.18h0L46.41,20.28a1.26,1.26,0,0,1,0-2.06l3.75-2.73a.44.44,0,0,1,.51,0L85.73,41.36A.43.43,0,0,1,85.88,41.84Z"/><path class="cls-1" d="M123.88,29.18v12h11.59V44.3H123.88V56.45H120.6V44.3H109V41.23H120.6v-12Z"/><path class="cls-1" d="M205.77,0,234,0,186.63,47.34,174.29,59.62l-14-14.06ZM205.5,42.3c.37-.48,1-.24,1.56-.31H234L209.44,66.51l-14.12-14Z"/><path class="cls-2" d="M181.25,66.54l14.07-14.06,14.12,14,.06.06L195.33,80.62,181.25,66.54Z"/><path class="cls-3" d="M195.33,80.62,209.5,66.57,234,91.08c-9.23,0-18.45,0-27.67,0-.52.11-.85-.37-1.18-.66l-9.81-9.82Z"/></g></g></svg>