<svg xmlns="http://www.w3.org/2000/svg" xmlns:xlink="http://www.w3.org/1999/xlink" viewBox="0 0 405.35 140.19"><defs><style>.cls-1{fill:none;}.cls-2{isolation:isolate;}.cls-3,.cls-8{fill:#3ebeb1;}.cls-4{clip-path:url(#clip-path);}.cls-5{opacity:0.6;}.cls-6{opacity:0.7;mix-blend-mode:lighten;}.cls-7{fill:#fff;}.cls-8{font-size:51.25px;font-family:MyriadPro-Regular, Myriad Pro;}</style><clipPath id="clip-path"><path class="cls-1" d="M363.72,114.1c-21.88,0-32.82-13.46-32.82-34.5s16-53,33.66-60.59c0,0,0,21.88,10.94,32.82s12.36,13.22,16.83,24.4C397.38,88.86,387.28,114.1,363.72,114.1Z"/></clipPath></defs><title>Asset 2</title><g class="cls-2"><g id="Layer_2" data-name="Layer 2"><g id="Layer_1-2" data-name="Layer 1"><path class="cls-3" d="M162.12,35.53A32.59,32.59,0,0,1,169,34.6C168.52,37.9,164.34,38.29,162.12,35.53Zm43.77,56.8c-5.68-3.71-8.3.88-15.54.95-4.34,0-10.22-1.42-17.43-6,5.83,8.36,12.69,13.17,20,15.26,14,4,16.7-3.05,30.17,1.57-2-3.24-6.08-4.76-10.17-5.58s-7,.17-10.34-1.32C199.68,95.88,199.86,93,205.89,92.32Zm-.28-42.65a28.06,28.06,0,0,0,12.38,10,32.34,32.34,0,0,0,23.44.9c6.19-2.13,10.64,0,12.95,6,.38-7.27-3.68-10.45-7.09-12.1-7.3-3.54-15.25,2.71-24.12,1.95A30.16,30.16,0,0,1,205.61,49.67Zm25,38.56a10.9,10.9,0,0,1-4.88,2.53c.08.14.1.21.12.21,6.86,0,14.66-1,20.65-7.47,3.93-4.23,4.44-6.7,12-5.39-5.11-4.09-13.71-3.35-19.84,2.18C236.11,82.53,234.13,85.24,230.59,88.23Zm-18.7-11.8A24.9,24.9,0,0,0,236.68,75c7.41-5,14.53-1.26,15.1-2.16-5.61-3.94-11.16-4-16.41-2.63C225.12,72.63,224.71,79.92,211.89,76.42Zm17.57-25.57c-1.28,0-4.18,1-7.89-.24-6-2.29-8.73-9.24-22-9C203,46.59,218.13,57.07,229.46,50.85Zm42,37.45c-6.77-1.82-8.74-11.9-19.71-5.27C260.46,82.69,260.46,93.91,271.5,88.31ZM227.43,64.4c-13.17.37-23.15-11.34-30.69-21.33-9.65-12.8-29.4-18.6-49.07-5.32,0,0,13.28-2.62,15,16.72,1,10.87,0,14.3,3.87,21.1C177.06,94,194.17,89.46,194.17,89.46h0c-9.62-1.37-13.45-8-14.58-13.32-.56-3,1.4-6.36,6.35-6.18s8.85,6.18,15.27,13.54c8.86,11.1,22.08,6.41,31.49-1.9-.48-1.42-5,.84-9.53.79-7.18-.08-13.85-1.73-18.88-5.29-10-7.77-10.86-18-2.39-17.26,3.76.22,7,5,10.37,6.55C217.12,68.56,222,67.9,227.43,64.4ZM230.82,115c-4.39-2-3.66-10.57-18-9.72C221.44,107.33,222.48,115.77,230.82,115Z"/><path class="cls-3" d="M363.72,114.1c-21.88,0-32.82-13.46-32.82-34.5s16-53,33.66-60.59c0,0,0,21.88,10.94,32.82s12.36,13.22,16.83,24.4C397.38,88.86,387.28,114.1,363.72,114.1Z"/><g class="cls-4"><g class="cls-5"><g class="cls-6"><path class="cls-7" d="M397.52,111.89l-3.85-5.45.52-.26c-2.78-1.35-11.28-2.91-17.71-4.1-17.48-3.22-41.41-7.63-48.56-18.86-5.6-8.8-3.35-19.49,6.32-30.11,10.44-11.46,28.5-21.46,43.93-24.32l-.62,6.91c-11.94,2.21-26.65,10.45-35,19.59-5.31,5.83-10.47,14.63-4.88,23.41C343.63,88,365.81,92.11,382,95.1c15,2.76,24,4.42,23.31,9.5C405,107.1,402.36,109.55,397.52,111.89Z"/></g><g class="cls-6"><path class="cls-7" d="M382.2,123.36c-32.4,0-45.14-32.48-57.47-63.94-3.89-9.91-7.56-19.27-11.49-26.42l15.19-2.2c4.1,7.45,7.83,17,11.78,27C346,72.58,352,87.84,360,99.35c5.37,7.68,13.89,16.66,23.9,15.83l2.51,8Q384.27,123.36,382.2,123.36Z"/></g><g class="cls-6"><path class="cls-7" d="M325.74,125.86a61.76,61.76,0,0,1-34-10.55c-10.69-7-17-11.68-14.59-17.55,2.19-5.32,8.88-4.39,13.32-3.78s10.66,1.87,17.75,3.3c13.69,2.77,31.2,6.31,47.51,7.57.59-.41,1.13-.81,1.63-1.19,9.24-7,16.28-16.39,19.78-25.46a18.46,18.46,0,0,1-10.81,5c-6.86.49-13-3.76-18.23-12.61-7.65-12.88-7.37-29.41-7.15-42.69.1-6,.25-15-1.18-17-.51,0-2.46.15-7,2.73l-5.43-9.5c4.92-2.81,12.14-6.15,18-2.7,6.92,4.09,6.75,14,6.54,26.63-.2,11.9-.45,26.71,5.62,36.93,1.67,2.81,4.94,7.51,8.06,7.28,4.5-.31,10.63-9.41,13.32-15.85l5.78-13.8,4.49,14.27c4.56,14.53-2.46,33.62-17,48.29,7.16-.34,13.63-1.46,18.87-3.71l4.31,10.06c-9.88,4.24-22.87,5.16-36.58,4.42A61.73,61.73,0,0,1,325.74,125.86Zm-27.61-19.43c14.46,9.32,27.86,9.79,38.54,7.2-11-1.64-21.61-3.79-30.65-5.62C303.42,107.48,300.72,106.94,298.13,106.43Z"/></g><g class="cls-6"><path class="cls-7" d="M364.47,140.19a124.27,124.27,0,0,1-29-3.74c-12-2.95-22.72-7.37-30.2-12.45-8.79-6-13.15-12.82-12.61-19.8,1.14-14.49,21-29.07,41.87-41.52a88.44,88.44,0,0,1-6.27-9.85c-3-5.59-4.11-10.06-3.46-13.66.83-4.56,4.53-7.84,11-9.75l5.43,4.9c-9.25,2.73-6.21,12,1.59,23.54,4.55-2.59,9-5.07,13.26-7.4,10.3-5.69,23.11-12.77,23.35-14.86,0,.19.23.48.54.66l3-5.35c5,.73,6.58,2.44,7.09,3.39,2.26,4.2-6.32,9.17-25.95,20-5.36,3-11.16,6.16-17,9.53,5.26,7,11.65,14.4,17.78,21.53,9.53,11.09,19.37,22.55,25.93,32.83s.85,15.75-5.14,18.47C380.47,139,373.05,140.19,364.47,140.19ZM339,68.65c-18.2,11.19-34.5,23.81-35.44,35.78-1,13,19.07,22.63,36.58,26.93,15.53,3.81,31.28,4.25,38.3,1.07,6.37-2.89,4.59-8.38,2-12.48-6.39-10-16.12-21.35-25.54-32.31C349.21,81.06,343.72,74.67,339,68.65Z"/></g></g></g><path class="cls-3" d="M78.83,50.65a6.56,6.56,0,0,0-1.62-1.83l-26-20.29a1.7,1.7,0,0,0-1-.36H40.81a6.28,6.28,0,0,0-3.57,1.11L4.13,52.06a1.69,1.69,0,0,0-.68,1L.23,65.24A6.77,6.77,0,0,0,.31,69l11.26,36,.09.29L23,112.89l.48.14H63.91a.83.83,0,0,0,.52-.18l8.87-7a6.12,6.12,0,0,0,2-2.85L87.79,66.26a.86.86,0,0,0-.07-.71ZM50.14,30.27a.42.42,0,0,1,.51,0L76.17,50.16a4.84,4.84,0,0,1,1.2,1.36L83,61a.43.43,0,0,1-.62.56L50.67,38.14a.43.43,0,0,0-.5,0L17.74,61.7a1.27,1.27,0,0,1-2-.64l-1.42-4.43a.43.43,0,0,1,.15-.47Zm-6.35,15L70,64.25a.43.43,0,0,1,.15.47l-10,30.77a.42.42,0,0,1-.41.29H27.37A.43.43,0,0,1,27,95.5L17,64.72a.43.43,0,0,1,.16-.47l26.17-19A.43.43,0,0,1,43.79,45.23ZM5.61,53.11,38.2,30.68a4.58,4.58,0,0,1,2.61-.81H46.5a.43.43,0,0,1,.25.77L12.51,55.51a.43.43,0,0,0-.15.48l2.51,7.8h0l9.86,30.34a1.28,1.28,0,0,1-1.21,1.67H18.88a.43.43,0,0,1-.41-.3l-13-41.9A.43.43,0,0,1,5.61,53.11Zm7.3,50.46L1.53,67.21c0-.08,0-.16,0-.23L4,57.45a.43.43,0,0,1,.82,0L17.22,97.19a.42.42,0,0,0,.41.3H57.7a1.28,1.28,0,0,1,1.21,1.67l-1.44,4.42a.42.42,0,0,1-.4.29H13.31A.43.43,0,0,1,12.91,103.57ZM63.39,111a.42.42,0,0,1-.4.29H24.21l-1-.29-7-4.71a.42.42,0,0,1,.24-.77H58.3a.42.42,0,0,0,.4-.29l2.73-8.37-.79-.26h0l.81.27,9.67-29.75a1.27,1.27,0,0,1,2-.64l3.76,2.73a.42.42,0,0,1,.15.48ZM85.88,66.59l-12.54,37-.14.19-6.5,5.1a.43.43,0,0,1-.67-.47L79,69.07a.42.42,0,0,0-.15-.48l-7.12-5.18h0L46.41,45a1.27,1.27,0,0,1,0-2.06l3.76-2.73a.43.43,0,0,1,.5,0L85.73,66.11A.42.42,0,0,1,85.88,66.59Z"/></g><g id="_" data-name="+"><text class="cls-8" transform="translate(106.97 81.2)">+</text><text class="cls-8" transform="translate(283.97 81.2)">+</text></g></g></g></svg>