<svg xmlns="http://www.w3.org/2000/svg" viewBox="0 0 857.82 352"><defs><style>.cls-1{fill:#7b868c;}.cls-2{fill:#40beb1;}.cls-3{fill:#fff;}.cls-4{fill:#3cbeb1;}.cls-5{fill:#f58137;}.cls-6{fill:#fddf22;}.cls-7{fill:#c7ccce;}.cls-8{fill:#949ca2;}</style></defs><title>rails-diagram</title><g id="Layer_2" data-name="Layer 2"><g id="outlines"><path class="cls-1" d="M151.92,136.36h-1.48v4.06h-1.39v-9.93h3.74a2.88,2.88,0,0,1,3,3,2.77,2.77,0,0,1-2.41,2.81l2.37,4.16h-1.6Zm.62-1.23a1.69,1.69,0,0,0,1.88-1.68,1.71,1.71,0,0,0-1.88-1.73h-2.1v3.41Z"/><path class="cls-1" d="M163.17,138.5a3.06,3.06,0,0,1-3,2.13,3.59,3.59,0,0,1-.17-7.15c2.08,0,3.24,1.42,3.24,3.52a3.91,3.91,0,0,1,0,.43h-5.07a2,2,0,0,0,2,2,1.83,1.83,0,0,0,1.89-1.36Zm-1.33-2.14a1.7,1.7,0,0,0-1.85-1.72,1.81,1.81,0,0,0-1.84,1.72Z"/><path class="cls-1" d="M169.61,139.4a2.27,2.27,0,0,1-2.09,1.2c-2,0-3.19-1.56-3.19-3.57a3.31,3.31,0,0,1,3.19-3.53,2.08,2.08,0,0,1,2.06,1.14v-4.36h1.3v8.9a11.6,11.6,0,0,0,.07,1.24h-1.27a5.33,5.33,0,0,1-.07-.91Zm-2,0c1.2,0,1.94-1.05,1.94-2.44s-.73-2.33-1.93-2.33a2.09,2.09,0,0,0-2,2.36C165.67,138.42,166.38,139.44,167.65,139.44Z"/><path class="cls-1" d="M173.76,130.18a.95.95,0,1,1-.94,1A.95.95,0,0,1,173.76,130.18Zm-.64,10.24v-6.73h1.3v6.73Z"/><path class="cls-1" d="M177.22,138.25a1.44,1.44,0,0,0,1.57,1.26c.74,0,1.15-.42,1.15-.89s-.31-.75-.87-.87l-1.15-.25a1.92,1.92,0,0,1-1.68-1.9,2.29,2.29,0,0,1,2.39-2.12,2.4,2.4,0,0,1,2.57,1.8l-1.16.44a1.32,1.32,0,0,0-1.41-1.12,1,1,0,0,0-1.12.89c0,.41.26.7.77.81l1.1.24a2,2,0,0,1,1.86,2,2.23,2.23,0,0,1-2.47,2.08,2.54,2.54,0,0,1-2.74-2Z"/><path class="cls-2" d="M197.31,155h-59a1,1,0,0,1-1-1V118a1,1,0,0,1,1-1h59a1,1,0,0,1,1,1v36A1,1,0,0,1,197.31,155Zm-58-2h57V119h-57Z"/><path class="cls-1" d="M149.15,235.18a2,2,0,0,0-2.1-1.69,1.75,1.75,0,0,0-1.92,1.65,1.43,1.43,0,0,0,1.27,1.44l1.49.32a2.87,2.87,0,0,1,2.58,2.79,3.13,3.13,0,0,1-3.43,2.94,3.46,3.46,0,0,1-3.72-2.95l1.32-.42a2.26,2.26,0,0,0,2.38,2.13c1.37,0,2-.72,2-1.59a1.62,1.62,0,0,0-1.49-1.54l-1.41-.31a2.74,2.74,0,0,1-2.43-2.71,3.17,3.17,0,0,1,3.28-3,3.13,3.13,0,0,1,3.36,2.47Z"/><path class="cls-1" d="M152.79,232.18a.95.95,0,1,1-.94,1A.95.95,0,0,1,152.79,232.18Zm-.65,10.24v-6.74h1.31v6.74Z"/><path class="cls-1" d="M160.41,241.4a2.27,2.27,0,0,1-2.09,1.2c-2,0-3.2-1.56-3.2-3.57a3.32,3.32,0,0,1,3.2-3.53,2.08,2.08,0,0,1,2.06,1.14v-4.36h1.3v8.9a11.6,11.6,0,0,0,.07,1.24h-1.27a5.33,5.33,0,0,1-.07-.91Zm-2,0c1.21,0,1.95-1.05,1.95-2.44s-.73-2.33-1.93-2.33a2.09,2.09,0,0,0-2,2.36C156.47,240.42,157.18,241.44,158.44,241.44Z"/><path class="cls-1" d="M169.79,240.5a3.06,3.06,0,0,1-3,2.13,3.59,3.59,0,0,1-.17-7.16c2.08,0,3.24,1.43,3.24,3.53a3.52,3.52,0,0,1,0,.42h-5.07a2,2,0,0,0,2,2.05,1.83,1.83,0,0,0,1.89-1.36Zm-1.33-2.14a1.7,1.7,0,0,0-1.85-1.72,1.81,1.81,0,0,0-1.84,1.72Z"/><path class="cls-1" d="M174.67,238.53l2.93,3.89H176l-2.2-3-.94.94v2h-1.3V232.28h1.3v6.39l2.91-3h1.82Z"/><path class="cls-1" d="M179.5,232.18a.95.95,0,1,1-.94,1A.95.95,0,0,1,179.5,232.18Zm-.64,10.24v-6.74h1.3v6.74Z"/><path class="cls-1" d="M187.13,245.08v-3.61a2.23,2.23,0,0,1-2.1,1.13,3.3,3.3,0,0,1-3.19-3.57,3.23,3.23,0,0,1,3.16-3.51,2.27,2.27,0,0,1,2.16,1.2v-1h1.27v9.4Zm-2-3.64a2.14,2.14,0,0,0,2-2.41,2.09,2.09,0,0,0-2-2.35c-1.22,0-2,1-2,2.35S184,241.44,185.16,241.44Z"/><path class="cls-2" d="M204.31,257h-73a1,1,0,0,1-1-1V220a1,1,0,0,1,1-1h73a1,1,0,0,1,1,1v36A1,1,0,0,1,204.31,257Zm-72-2h71V221h-71Z"/><path class="cls-1" d="M359.79,103.42l-5.37-8.09v8.09h-1.37V93.49h1.84l5,7.62V93.49h1.37v9.93Z"/><path class="cls-1" d="M364.38,103.49a1.79,1.79,0,0,0,1.83,1.66c1.42,0,2.06-.73,2.06-2.19v-1a2.24,2.24,0,0,1-2.06,1.11,3.28,3.28,0,0,1,0-6.54,2.14,2.14,0,0,1,2.08,1.06v-.93h1.3v6.23a3.08,3.08,0,0,1-3.38,3.37,3,3,0,0,1-3.11-2.5Zm3.95-3.65a1.95,1.95,0,1,0-1.92,2.15A1.94,1.94,0,0,0,368.33,99.84Z"/><path class="cls-1" d="M372.33,93.18a.95.95,0,1,1-.94,1A.95.95,0,0,1,372.33,93.18Zm-.64,10.24V96.69H373v6.73Z"/><path class="cls-1" d="M376.54,103.42h-1.31V96.69h1.29v1a2.29,2.29,0,0,1,2.07-1.16A2.36,2.36,0,0,1,381,99.15v4.27h-1.32v-4c0-.93-.39-1.69-1.57-1.69s-1.57.83-1.57,1.85Z"/><path class="cls-1" d="M384.62,100l-2.42-3.3h1.6l1.65,2.36,1.62-2.36h1.56l-2.4,3.3c.41.55,2.08,2.89,2.48,3.43h-1.58l-1.74-2.48-1.71,2.48h-1.57Z"/><path class="cls-2" d="M400.31,118h-59a1,1,0,0,1-1-1V83a1,1,0,0,1,1-1h59a1,1,0,0,1,1,1v34A1,1,0,0,1,400.31,118Zm-58-2h57V84h-57Z"/><path class="cls-2" d="M474.82,61h-12a1.5,1.5,0,1,0,0,3h12a1.5,1.5,0,0,0,0-3Zm-24,0h-12a1.5,1.5,0,0,0,0,3h12a1.5,1.5,0,0,0,0-3Zm-24,0h-12a1.5,1.5,0,0,0,0,3h12a1.5,1.5,0,0,0,0-3Zm-24,0h-12a1.5,1.5,0,0,0,0,3h12a1.5,1.5,0,0,0,0-3Zm-24,0h-12a1.5,1.5,0,0,0,0,3h12a1.5,1.5,0,0,0,0-3Zm-24,0h-12a1.5,1.5,0,0,0,0,3h12a1.5,1.5,0,0,0,0-3Zm-24,0h-12a1.5,1.5,0,0,0,0,3h12a1.5,1.5,0,0,0,0-3Zm-24,0h-12a1.5,1.5,0,0,0,0,3h12a1.5,1.5,0,0,0,0-3Zm-24,0h-12a1.5,1.5,0,0,0,0,3h12a1.5,1.5,0,0,0,0-3Zm-24,0h-12a1.5,1.5,0,0,0,0,3h12a1.5,1.5,0,0,0,0-3Zm-24,0h-12a1.5,1.5,0,0,0,0,3h12a1.5,1.5,0,0,0,0-3Zm-24,0h-12a1.5,1.5,0,0,0,0,3h12a1.5,1.5,0,0,0,0-3Zm-24,0h-12a1.5,1.5,0,0,0,0,3h12a1.5,1.5,0,0,0,0-3Zm-24,0h-12a1.5,1.5,0,0,0,0,3h12a1.5,1.5,0,0,0,0-3Zm-24,0h-12a1.5,1.5,0,0,0,0,3h12a1.5,1.5,0,0,0,0-3Zm-24,0H103.45a4.72,4.72,0,0,0-.64.1,1.5,1.5,0,0,0,.34,3,1.66,1.66,0,0,0,.32,0,1.24,1.24,0,0,1,.33,0h11a1.5,1.5,0,0,0,0-3Zm-14,8.92a1.5,1.5,0,0,0-1.5,1.5v12a1.5,1.5,0,1,0,3,0v-12a1.5,1.5,0,0,0-1.5-1.5Zm0,24a1.5,1.5,0,0,0-1.5,1.5v12a1.5,1.5,0,1,0,3,0v-12a1.5,1.5,0,0,0-1.5-1.5Zm0,24a1.5,1.5,0,0,0-1.5,1.5v12a1.5,1.5,0,0,0,3,0v-12a1.5,1.5,0,0,0-1.5-1.5Zm0,24a1.5,1.5,0,0,0-1.5,1.5v12a1.5,1.5,0,1,0,3,0v-12a1.5,1.5,0,0,0-1.5-1.5Zm0,24a1.5,1.5,0,0,0-1.5,1.5v12a1.5,1.5,0,1,0,3,0v-12a1.5,1.5,0,0,0-1.5-1.5Zm0,24a1.5,1.5,0,0,0-1.5,1.5v12a1.5,1.5,0,1,0,3,0v-12a1.5,1.5,0,0,0-1.5-1.5Zm0,24a1.5,1.5,0,0,0-1.5,1.5v12a1.5,1.5,0,1,0,3,0v-12a1.5,1.5,0,0,0-1.5-1.5Zm0,24a1.5,1.5,0,0,0-1.5,1.5v12a1.5,1.5,0,1,0,3,0v-12a1.5,1.5,0,0,0-1.5-1.5Zm0,24a1.5,1.5,0,0,0-1.5,1.5v12a1.5,1.5,0,0,0,3,0v-12a1.5,1.5,0,0,0-1.5-1.5Zm0,24a1.5,1.5,0,0,0-1.5,1.5v12a1.5,1.5,0,0,0,3,0v-12a1.5,1.5,0,0,0-1.5-1.5Zm0,24a1.5,1.5,0,0,0-1.5,1.5v12a1.5,1.5,0,0,0,3,0v-12a1.5,1.5,0,0,0-1.5-1.5Zm0,24a1.5,1.5,0,0,0-1.5,1.5v8.11h0v0h0v0h0v0h0v0h0v0h0v0h0v0h0v0h0l0,0h0l0,.05h0l0,.08h0l0,.07h0a.36.36,0,0,0,0,.09h0a4.58,4.58,0,0,0,1.15,1.47,1.5,1.5,0,0,0,1.93-2.3,1.47,1.47,0,0,1-.53-1.14v-8.09a1.5,1.5,0,0,0-1.5-1.5ZM124.65,345h-12a1.5,1.5,0,1,0,0,3h12a1.5,1.5,0,0,0,0-3Zm24,0h-12a1.5,1.5,0,1,0,0,3h12a1.5,1.5,0,0,0,0-3Zm24,0h-12a1.5,1.5,0,1,0,0,3h12a1.5,1.5,0,0,0,0-3Zm24,0h-12a1.5,1.5,0,1,0,0,3h12a1.5,1.5,0,0,0,0-3Zm24,0h-12a1.5,1.5,0,1,0,0,3h12a1.5,1.5,0,0,0,0-3Zm24,0h-12a1.5,1.5,0,1,0,0,3h12a1.5,1.5,0,0,0,0-3Zm24,0h-12a1.5,1.5,0,1,0,0,3h12a1.5,1.5,0,0,0,0-3Zm24,0h-12a1.5,1.5,0,0,0,0,3h12a1.5,1.5,0,0,0,0-3Zm24,0h-12a1.5,1.5,0,0,0,0,3h12a1.5,1.5,0,0,0,0-3Zm24,0h-12a1.5,1.5,0,0,0,0,3h12a1.5,1.5,0,0,0,0-3Zm24,0h-12a1.5,1.5,0,0,0,0,3h12a1.5,1.5,0,0,0,0-3Zm24,0h-12a1.5,1.5,0,0,0,0,3h12a1.5,1.5,0,0,0,0-3Zm24,0h-12a1.5,1.5,0,0,0,0,3h12a1.5,1.5,0,0,0,0-3Zm24,0h-12a1.5,1.5,0,0,0,0,3h12a1.5,1.5,0,0,0,0-3Zm24,0h-12a1.5,1.5,0,0,0,0,3h12a1.5,1.5,0,0,0,0-3Zm24,0h-12a1.5,1.5,0,0,0,0,3h12a1.5,1.5,0,0,0,0-3Zm17.16-5.77a1.5,1.5,0,0,0-1.5,1.5v2.78a1.49,1.49,0,0,1-1.49,1.49h-2.17a1.5,1.5,0,0,0,0,3h2.17a4.49,4.49,0,0,0,4.49-4.49v-2.78a1.5,1.5,0,0,0-1.5-1.5Zm0-24a1.5,1.5,0,0,0-1.5,1.5v12a1.5,1.5,0,0,0,3,0v-12a1.5,1.5,0,0,0-1.5-1.5Zm0-24a1.5,1.5,0,0,0-1.5,1.5v12a1.5,1.5,0,0,0,3,0v-12a1.5,1.5,0,0,0-1.5-1.5Zm0-24a1.5,1.5,0,0,0-1.5,1.5v12a1.5,1.5,0,0,0,3,0v-12a1.5,1.5,0,0,0-1.5-1.5Zm0-24a1.5,1.5,0,0,0-1.5,1.5v12a1.5,1.5,0,0,0,3,0v-12a1.5,1.5,0,0,0-1.5-1.5Zm0-24a1.5,1.5,0,0,0-1.5,1.5v12a1.5,1.5,0,0,0,3,0v-12a1.5,1.5,0,0,0-1.5-1.5Zm0-24a1.5,1.5,0,0,0-1.5,1.5v12a1.5,1.5,0,0,0,3,0v-12a1.5,1.5,0,0,0-1.5-1.5Zm0-24a1.5,1.5,0,0,0-1.5,1.5v12a1.5,1.5,0,0,0,3,0v-12a1.5,1.5,0,0,0-1.5-1.5Zm0-24a1.5,1.5,0,0,0-1.5,1.5v12a1.5,1.5,0,0,0,3,0v-12a1.5,1.5,0,0,0-1.5-1.5Zm0-24a1.5,1.5,0,0,0-1.5,1.5v12a1.5,1.5,0,0,0,3,0v-12a1.5,1.5,0,0,0-1.5-1.5Zm0-24a1.5,1.5,0,0,0-1.5,1.5v12a1.5,1.5,0,0,0,3,0v-12a1.5,1.5,0,0,0-1.5-1.5Zm0-24a1.5,1.5,0,0,0-1.5,1.5v12a1.5,1.5,0,0,0,3,0v-12a1.5,1.5,0,0,0-1.5-1.5Zm-3-14.23h-12a1.5,1.5,0,1,0,0,3h12a1.48,1.48,0,0,1,1.47,1.24,1.5,1.5,0,0,0,1.48,1.25l.25,0a1.51,1.51,0,0,0,1.23-1.73,4.92,4.92,0,0,0-.14-.55h0a.29.29,0,0,0,0-.09h0l0-.06h0l0,0h0v0h0v0h-.14v0h0l0,0h0l0,0h0l0,0h0l0,0h0l0,0h0l0,0h0l-.05-.06h0l0-.06h0l-.06-.06h0l-.05-.06h0l-.06,0h0l0,0h0l-.05,0h0l-.06-.05h0l-.06,0h0l-.05,0h0l0,0h-.05l-.05,0h-.05l0,0h-.06l-.05,0h-.06l0,0H501l0,0h-.07l0,0h-.08l0,0h-2Z"/><rect class="cls-3" x="141.31" y="52" width="73" height="17"/><rect class="cls-2" x="270.31" y="152" width="201" height="168" rx="4.49"/><rect class="cls-3" x="293.31" y="184" width="159" height="70.5" rx="6.73"/><rect class="cls-4" x="297.31" y="205" width="151" height="20" rx="3.74"/><rect class="cls-4" x="297.31" y="230" width="151" height="20" rx="3.74"/><rect class="cls-3" x="292.31" y="259" width="160" height="20" rx="3.74"/><rect class="cls-3" x="292.31" y="284" width="160" height="20" rx="3.74"/><path class="cls-3" d="M297,170.54h-1.51l-.84,4H293l2.1-9.93h3.35a2.51,2.51,0,0,1,2.8,2.53,3.27,3.27,0,0,1-2.58,3.25l1.59,4.15h-1.8Zm.49-1.47a1.8,1.8,0,0,0,2-1.78c0-.75-.46-1.25-1.42-1.25h-1.64l-.64,3Z"/><path class="cls-3" d="M305.31,167.68l-.84,3.92a2.86,2.86,0,0,0-.07.55,1,1,0,0,0,1.12,1.1c.87,0,1.4-.74,1.59-1.59l.84-4h1.59L308.45,173a6.47,6.47,0,0,0-.15,1.24c0,.09,0,.16,0,.31h-1.57a3,3,0,0,1,0-.41,2,2,0,0,1,0-.33,2.12,2.12,0,0,1-1.75.89,2.07,2.07,0,0,1-2.23-2.22,4.18,4.18,0,0,1,.08-.76l.86-4Z"/><path class="cls-3" d="M311.05,174.5l2.13-10.14h1.6l-.82,3.88a2.65,2.65,0,0,1,1.94-.73,2.61,2.61,0,0,1,2.65,2.91c0,2.43-1.5,4.26-3.6,4.26a2.23,2.23,0,0,1-2.11-1.2l-.22,1Zm2.24-3a1.55,1.55,0,0,0,1.53,1.72,2.35,2.35,0,0,0,2.09-2.61,1.51,1.51,0,0,0-1.59-1.71C314.22,168.92,313.29,170,313.29,171.52Z"/><path class="cls-3" d="M319.38,177.16l2.45-3.78-1.58-5.7H322l1,4,2.45-4h1.85l-6.13,9.48Z"/><path class="cls-3" d="M335.89,174.71a3,3,0,0,1-3.1-3.17,3.85,3.85,0,0,1,3.79-4.07,3,3,0,0,1,3.08,3.15A3.88,3.88,0,0,1,335.89,174.71Zm-1.47-3.22a1.57,1.57,0,0,0,1.55,1.76c1,0,2-.88,2-2.57a1.56,1.56,0,0,0-1.56-1.76C335.37,168.92,334.42,169.93,334.42,171.49Z"/><path class="cls-3" d="M345.7,174.5l.87-4a2.56,2.56,0,0,0,.06-.44,1,1,0,0,0-1.15-1.11,1.79,1.79,0,0,0-1.64,1.62l-.85,4h-1.61l1.19-5.65a6.21,6.21,0,0,0,.15-1.17h1.57a5.09,5.09,0,0,1-.07.71,2.43,2.43,0,0,1,2-.91,2,2,0,0,1,2.05,2.12,3.25,3.25,0,0,1-.08.75l-.9,4.15Z"/><path class="cls-3" d="M359.1,170.54h-1.51l-.84,4h-1.68l2.1-9.93h3.35a2.51,2.51,0,0,1,2.8,2.53,3.27,3.27,0,0,1-2.58,3.25l1.58,4.15h-1.79Zm.49-1.47a1.79,1.79,0,0,0,2-1.78c0-.75-.46-1.25-1.41-1.25h-1.64l-.64,3Z"/><path class="cls-3" d="M372,167.68l-1.1,5.2a6,6,0,0,0-.14,1.28c0,.07,0,.19,0,.34h-1.51a1.58,1.58,0,0,1,0-.28,4.5,4.5,0,0,1,0-.56,2.38,2.38,0,0,1-1.88,1,2.71,2.71,0,0,1-2.71-3c0-2.26,1.48-4.11,3.51-4.11a2.17,2.17,0,0,1,2.05,1l.18-.81Zm-5.7,3.89c0,1,.52,1.67,1.46,1.67s2-1.11,2-2.73a1.4,1.4,0,0,0-1.43-1.59C367,168.92,366.28,170.34,366.28,171.57Z"/><path class="cls-3" d="M373.56,174.5l1.46-6.82h1.61l-1.46,6.82Zm2.86-10.3a.91.91,0,0,1,.95.93,1.17,1.17,0,0,1-1.16,1.16.92.92,0,0,1-.95-.94A1.18,1.18,0,0,1,376.42,164.2Z"/><path class="cls-3" d="M378.29,174.5l2.16-10.14h1.61L379.9,174.5Z"/><path class="cls-3" d="M384.22,172.12a1.21,1.21,0,0,0,1.24,1.32c.66,0,1-.4,1-.79a.82.82,0,0,0-.58-.73l-.86-.38a1.93,1.93,0,0,1-1.35-1.83,2.36,2.36,0,0,1,2.55-2.24,2.2,2.2,0,0,1,2.49,2l-1.41.29a1.07,1.07,0,0,0-1.16-1.06.82.82,0,0,0-.93.77.68.68,0,0,0,.48.67l.89.39a2.13,2.13,0,0,1,1.48,1.95,2.64,2.64,0,0,1-5.22-.13Z"/><path class="cls-2" d="M158.79,56.33a2.37,2.37,0,0,0-2.51-2,2,2,0,0,0-2.19,1.84,1.65,1.65,0,0,0,1.49,1.64l1.84.38c2.25.45,3.45,1.87,3.45,3.67,0,2-1.6,3.87-4.51,3.87-3.25,0-4.74-2.09-4.94-3.93l2-.57a2.74,2.74,0,0,0,2.92,2.56c1.53,0,2.32-.78,2.32-1.77,0-.83-.61-1.49-1.71-1.73l-1.8-.38a3.61,3.61,0,0,1-3.24-3.58,4.17,4.17,0,0,1,4.34-3.91c3,0,4.17,1.84,4.46,3.26Z"/><path class="cls-2" d="M171.84,63a4,4,0,0,1-4,2.77,4.67,4.67,0,0,1-.22-9.31c2.7,0,4.28,1.78,4.28,4.56a3,3,0,0,1-.05.66h-6.41a2.35,2.35,0,0,0,2.4,2.29,2.11,2.11,0,0,0,2.19-1.53Zm-2-2.85a2,2,0,0,0-2.16-1.94,2.11,2.11,0,0,0-2.15,1.94Z"/><path class="cls-2" d="M180.33,58.8a5.45,5.45,0,0,0-.68,0c-1.62,0-2.36.93-2.36,2.57V65.5H175.2V56.73h2v1.41a2.85,2.85,0,0,1,3.1-1.46Z"/><path class="cls-2" d="M188.09,65.5H186l-3.56-8.77h2.3L187.06,63l2.27-6.27h2.2Z"/><path class="cls-2" d="M201.81,63a4,4,0,0,1-4,2.77,4.67,4.67,0,0,1-.21-9.31c2.7,0,4.28,1.78,4.28,4.56a3,3,0,0,1,0,.66h-6.41A2.34,2.34,0,0,0,197.84,64a2.12,2.12,0,0,0,2.2-1.53Zm-2-2.85a2,2,0,0,0-2.16-1.94,2.11,2.11,0,0,0-2.15,1.94Z"/><path class="cls-2" d="M210.3,58.8a5.45,5.45,0,0,0-.68,0c-1.62,0-2.36.93-2.36,2.57V65.5h-2.09V56.73h2v1.41a2.66,2.66,0,0,1,2.54-1.52,2.75,2.75,0,0,1,.56.06Z"/><path class="cls-5" d="M297.35,17.77V28.5h-2.16V17.77H291v-2H301.5v2Z"/><path class="cls-5" d="M306.47,28.5h-2.09v-13h2.09v5.12a3.1,3.1,0,0,1,2.5-1.1c2.16,0,3.21,1.55,3.21,3.47V28.5h-2.09V23.31c0-1.08-.49-1.94-1.8-1.94a1.83,1.83,0,0,0-1.82,2Z"/><path class="cls-5" d="M323.73,26a3.94,3.94,0,0,1-4,2.77,4.43,4.43,0,0,1-4.48-4.7,4.4,4.4,0,0,1,4.27-4.61c2.7,0,4.28,1.78,4.28,4.56a3,3,0,0,1,0,.66h-6.41A2.34,2.34,0,0,0,319.77,27a2.13,2.13,0,0,0,2.2-1.53Zm-2-2.85a2,2,0,0,0-2.17-1.94,2.11,2.11,0,0,0-2.14,1.94Z"/><path class="cls-5" d="M332.23,22.13a6.4,6.4,0,0,1,6.42-6.67,5.56,5.56,0,0,1,5.75,4.15l-2,.68a3.53,3.53,0,0,0-3.71-2.79c-2.1,0-4.21,1.53-4.21,4.63a4.22,4.22,0,0,0,4.23,4.57,3.8,3.8,0,0,0,3.8-2.81l2,.65a5.72,5.72,0,0,1-5.78,4.23A6.31,6.31,0,0,1,332.23,22.13Z"/><path class="cls-5" d="M347.55,28.5v-13h2.08v13Z"/><path class="cls-5" d="M362,24.11a4.55,4.55,0,1,1-9.09,0,4.55,4.55,0,1,1,9.09,0Zm-2.1,0a2.47,2.47,0,1,0-4.9,0,2.47,2.47,0,1,0,4.9,0Z"/><path class="cls-5" d="M368.44,28.75a3.24,3.24,0,0,1-3.31-3.49V19.73h2.09v5.15c0,1.08.5,2,1.76,2a1.76,1.76,0,0,0,1.84-2V19.73h2.09V26.9a13.26,13.26,0,0,0,.09,1.6h-2a6.05,6.05,0,0,1-.07-1A2.81,2.81,0,0,1,368.44,28.75Z"/><path class="cls-5" d="M384.92,26.9a13.78,13.78,0,0,0,.09,1.6h-2a8.07,8.07,0,0,1-.09-1.13,2.92,2.92,0,0,1-2.58,1.35c-2.52,0-4.21-2-4.21-4.63a4.31,4.31,0,0,1,4.18-4.59,2.66,2.66,0,0,1,2.57,1.26v-5.3h2Zm-4.34,0c1.36,0,2.32-1.13,2.32-2.81s-.94-2.72-2.31-2.72a2.45,2.45,0,0,0-2.37,2.74C378.22,25.76,379.15,26.88,380.58,26.88Z"/><path class="cls-5" d="M723.5,33.51v5h-2.16V25.73h4.74a3.89,3.89,0,1,1,0,7.78Zm2.25-1.91a1.93,1.93,0,0,0,2.2-2,2,2,0,0,0-2.2-2H723.5v4Z"/><path class="cls-5" d="M736.12,38.75a3.24,3.24,0,0,1-3.31-3.49V29.73h2.08v5.15c0,1.08.51,2,1.77,2a1.76,1.76,0,0,0,1.84-2V29.73h2.08V36.9a15.78,15.78,0,0,0,.09,1.6h-2a5.88,5.88,0,0,1-.08-1A2.79,2.79,0,0,1,736.12,38.75Z"/><path class="cls-5" d="M744.54,38.5v-13h2.05v5.35a3.18,3.18,0,0,1,2.76-1.31c2.63,0,4,2,4,4.57s-1.57,4.65-4.12,4.65a3,3,0,0,1-2.7-1.39V38.5Zm4.39-7.15c-1.33,0-2.35,1-2.35,2.74s1,2.77,2.35,2.77,2.36-1,2.36-2.77S750.32,31.35,748.93,31.35Z"/><path class="cls-5" d="M756.67,38.5v-13h2.09v13Z"/><path class="cls-5" d="M763.75,25.28a1.38,1.38,0,0,1,1.37,1.37,1.36,1.36,0,1,1-1.37-1.37Zm-1,13.22V29.73h2.07V38.5Z"/><path class="cls-5" d="M770.16,34.11a2.49,2.49,0,0,0,2.44,2.75,2.21,2.21,0,0,0,2.2-1.62l1.84.67a4.07,4.07,0,0,1-4,2.86,4.5,4.5,0,0,1-4.53-4.66,4.46,4.46,0,0,1,4.48-4.65,3.93,3.93,0,0,1,4,2.88l-1.88.69a2,2,0,0,0-2.12-1.64A2.45,2.45,0,0,0,770.16,34.11Z"/><path class="cls-5" d="M785.65,38.5V25.73h2.2V38.5Z"/><path class="cls-5" d="M794.08,38.5H792V29.73h2V30.9a2.91,2.91,0,0,1,2.6-1.42c2.14,0,3.17,1.55,3.17,3.47V38.5H797.7V33.31c0-1.08-.49-1.94-1.8-1.94a1.84,1.84,0,0,0-1.82,2.07Z"/><path class="cls-5" d="M806.23,29.73h1.82v1.86h-1.82v4.07c0,.77.34,1.09,1.11,1.09a4.27,4.27,0,0,0,.72-.07v1.73a3.29,3.29,0,0,1-1.27.2A2.42,2.42,0,0,1,804.16,36V31.59h-1.62V29.73H803a1.25,1.25,0,0,0,1.35-1.37V27.05h1.89Z"/><path class="cls-5" d="M819.12,36a4,4,0,0,1-4,2.77,4.43,4.43,0,0,1-4.49-4.7,4.4,4.4,0,0,1,4.27-4.61c2.7,0,4.29,1.78,4.29,4.56a2.69,2.69,0,0,1-.06.66h-6.41a2.35,2.35,0,0,0,2.4,2.29,2.11,2.11,0,0,0,2.19-1.53Zm-2-2.85A2,2,0,0,0,815,31.21a2.1,2.1,0,0,0-2.14,1.94Z"/><path class="cls-5" d="M827.61,31.8a5.45,5.45,0,0,0-.68-.05c-1.62,0-2.36.93-2.36,2.57V38.5h-2.09V29.73h2v1.41a2.85,2.85,0,0,1,3.1-1.46Z"/><path class="cls-5" d="M832.71,38.5h-2.09V29.73h2V30.9a2.91,2.91,0,0,1,2.59-1.42c2.15,0,3.17,1.55,3.17,3.47V38.5h-2.09V33.31c0-1.08-.48-1.94-1.8-1.94a1.83,1.83,0,0,0-1.81,2.07Z"/><path class="cls-5" d="M850,36a4,4,0,0,1-4,2.77,4.43,4.43,0,0,1-4.49-4.7,4.4,4.4,0,0,1,4.27-4.61c2.7,0,4.29,1.78,4.29,4.56a2.69,2.69,0,0,1-.06.66h-6.41A2.35,2.35,0,0,0,846,37a2.11,2.11,0,0,0,2.19-1.53Zm-2-2.85a2,2,0,0,0-2.16-1.94,2.11,2.11,0,0,0-2.14,1.94Z"/><path class="cls-5" d="M856,29.73h1.82v1.86H856v4.07c0,.77.34,1.09,1.11,1.09a4.42,4.42,0,0,0,.73-.07v1.73a3.42,3.42,0,0,1-1.28.2A2.42,2.42,0,0,1,853.91,36V31.59h-1.62V29.73h.45a1.25,1.25,0,0,0,1.35-1.37V27.05H856Z"/><path class="cls-4" d="M305.84,196.37h-3.6l-.79,2.13h-1.52l3.31-8.5h1.67l3.31,8.5h-1.57ZM302.75,195h2.59l-1.3-3.47Z"/><path class="cls-4" d="M310.9,195.57a1.66,1.66,0,0,0,1.63,1.84,1.47,1.47,0,0,0,1.46-1.08l1.22.44a2.7,2.7,0,0,1-2.68,1.91,3,3,0,0,1-3-3.11,3,3,0,0,1,3-3.09,2.62,2.62,0,0,1,2.68,1.92l-1.25.45a1.38,1.38,0,0,0-1.42-1.09A1.63,1.63,0,0,0,310.9,195.57Z"/><path class="cls-4" d="M319.06,192.66h1.21v1.23h-1.21v2.72c0,.51.22.73.74.73a3.19,3.19,0,0,0,.48-.05v1.15a2.11,2.11,0,0,1-.85.13,1.61,1.61,0,0,1-1.75-1.74v-2.94H316.6v-1.23h.3a.83.83,0,0,0,.9-.91v-.88h1.26Z"/><path class="cls-4" d="M323.22,189.7a.91.91,0,1,1-.9.91A.91.91,0,0,1,323.22,189.7Zm-.68,8.8v-5.84h1.38v5.84Z"/><path class="cls-4" d="M332.16,195.57a3,3,0,1,1-3-3.09A3,3,0,0,1,332.16,195.57Zm-1.41,0a1.64,1.64,0,1,0-3.26,0,1.64,1.64,0,1,0,3.26,0Z"/><path class="cls-4" d="M335.74,198.5h-1.4v-5.84h1.36v.78a1.94,1.94,0,0,1,1.73-.95,2.07,2.07,0,0,1,2.11,2.32v3.69h-1.39v-3.45c0-.72-.33-1.3-1.2-1.3a1.23,1.23,0,0,0-1.21,1.38Z"/><path class="cls-4" d="M345.49,194.25a4.26,4.26,0,0,1,4.28-4.43,3.7,3.7,0,0,1,3.83,2.76l-1.36.45a2.36,2.36,0,0,0-2.47-1.86,3.08,3.08,0,0,0,0,6.13,2.54,2.54,0,0,0,2.53-1.87l1.32.43a3.82,3.82,0,0,1-3.85,2.82A4.22,4.22,0,0,1,345.49,194.25Z"/><path class="cls-4" d="M361.21,195.57a3,3,0,1,1-3-3.09A3,3,0,0,1,361.21,195.57Zm-1.4,0a1.65,1.65,0,1,0-3.27,0,1.65,1.65,0,1,0,3.27,0Z"/><path class="cls-4" d="M364.79,198.5H363.4v-5.84h1.35v.78a2,2,0,0,1,1.73-.95,2.06,2.06,0,0,1,2.11,2.32v3.69H367.2v-3.45c0-.72-.33-1.3-1.2-1.3a1.23,1.23,0,0,0-1.21,1.38Z"/><path class="cls-4" d="M372.89,192.66h1.21v1.23h-1.21v2.72c0,.51.23.73.74.73a3.19,3.19,0,0,0,.48-.05v1.15a2.11,2.11,0,0,1-.85.13,1.61,1.61,0,0,1-1.75-1.74v-2.94h-1.08v-1.23h.3a.83.83,0,0,0,.9-.91v-.88h1.26Z"/><path class="cls-4" d="M379.68,194a2.45,2.45,0,0,0-.46,0c-1.08,0-1.57.63-1.57,1.72v2.78h-1.39v-5.84h1.36v.93a1.76,1.76,0,0,1,1.69-1,2.45,2.45,0,0,1,.37,0Z"/><path class="cls-4" d="M387.23,195.57a3,3,0,1,1-3-3.09A3,3,0,0,1,387.23,195.57Zm-1.41,0a1.64,1.64,0,1,0-3.26,0,1.64,1.64,0,1,0,3.26,0Z"/><path class="cls-4" d="M389.41,198.5v-8.68h1.39v8.68Z"/><path class="cls-4" d="M393.44,198.5v-8.68h1.39v8.68Z"/><path class="cls-4" d="M402.65,196.83a2.64,2.64,0,0,1-2.64,1.85,3.11,3.11,0,0,1-.15-6.2,2.73,2.73,0,0,1,2.86,3,2.2,2.2,0,0,1,0,.45h-4.27a1.57,1.57,0,0,0,1.6,1.52,1.4,1.4,0,0,0,1.46-1Zm-1.34-1.89a1.3,1.3,0,0,0-1.43-1.3,1.4,1.4,0,0,0-1.43,1.3Z"/><path class="cls-4" d="M408.31,194a2.45,2.45,0,0,0-.46,0c-1.08,0-1.57.63-1.57,1.72v2.78h-1.39v-5.84h1.36v.93a1.76,1.76,0,0,1,1.69-1,2.32,2.32,0,0,1,.37,0Z"/><path class="cls-2" d="M728.42,92.57c1.9,0,3,1.12,3,2.67A2.21,2.21,0,0,1,730,97.39a2.38,2.38,0,0,1,1.78,2.36,2.79,2.79,0,0,1-3.08,2.75H725V92.57Zm-.23,4.2a1.39,1.39,0,0,0,1.57-1.39c0-.84-.59-1.38-1.61-1.38h-1.48v2.77Zm.19,4.3c1,0,1.66-.54,1.66-1.43a1.42,1.42,0,0,0-1.61-1.45h-1.76v2.88Z"/><path class="cls-2" d="M738.29,97.29a3.32,3.32,0,0,0-.53,0c-1.26,0-1.84.73-1.84,2v3.25H734.3V95.68h1.58v1.09a2.07,2.07,0,0,1,2-1.18,1.81,1.81,0,0,1,.44,0Z"/><path class="cls-2" d="M747.1,99.08a3.54,3.54,0,1,1-3.55-3.61A3.48,3.48,0,0,1,747.1,99.08Zm-1.64,0a1.92,1.92,0,1,0-3.81,0,1.92,1.92,0,1,0,3.81,0Z"/><path class="cls-2" d="M755,95.68l1.61,4.72L758,95.68h1.65l-2.18,6.82h-1.63l-1.69-4.9-1.66,4.9h-1.66l-2.22-6.82h1.74l1.39,4.72,1.61-4.72Z"/><path class="cls-2" d="M762.66,100.26a1.28,1.28,0,0,0,1.39,1.16c.67,0,1-.36,1-.78s-.25-.65-.8-.76l-1-.22a2.06,2.06,0,0,1-1.83-2,2.36,2.36,0,0,1,2.5-2.2,2.41,2.41,0,0,1,2.64,1.9l-1.37.4a1.18,1.18,0,0,0-1.27-1,.89.89,0,0,0-1,.79.75.75,0,0,0,.69.71l1,.21a2.15,2.15,0,0,1,2,2.08,2.32,2.32,0,0,1-2.58,2.18,2.56,2.56,0,0,1-2.81-2.06Z"/><path class="cls-2" d="M775.22,100.55a3.07,3.07,0,0,1-3.08,2.16,3.63,3.63,0,0,1-.17-7.24c2.1,0,3.34,1.38,3.34,3.54a1.89,1.89,0,0,1,0,.52h-5a1.82,1.82,0,0,0,1.86,1.78,1.65,1.65,0,0,0,1.71-1.19Zm-1.55-2.21A1.53,1.53,0,0,0,772,96.83a1.63,1.63,0,0,0-1.67,1.51Z"/><path class="cls-2" d="M781.83,97.29a3.32,3.32,0,0,0-.53,0c-1.26,0-1.84.73-1.84,2v3.25h-1.62V95.68h1.58v1.09a2.07,2.07,0,0,1,2-1.18,1.81,1.81,0,0,1,.44,0Z"/><path class="cls-2" d="M736.14,129.57h1.73l-2.79,9.93h-1.73L730.94,132l-2.41,7.51h-1.72L724,129.57h1.77l2,7.25,2.32-7.25h1.75l2.37,7.31Z"/><path class="cls-2" d="M745.6,137.55a3.08,3.08,0,0,1-3.08,2.16,3.63,3.63,0,0,1-.17-7.24c2.1,0,3.33,1.38,3.33,3.54a2.83,2.83,0,0,1,0,.52h-5a1.83,1.83,0,0,0,1.87,1.78,1.63,1.63,0,0,0,1.7-1.19ZM744,135.34a1.53,1.53,0,0,0-1.68-1.51,1.64,1.64,0,0,0-1.67,1.51Z"/><path class="cls-2" d="M748.21,139.5V129.36h1.6v4.16a2.46,2.46,0,0,1,2.14-1c2,0,3.15,1.55,3.15,3.55s-1.21,3.62-3.2,3.62a2.36,2.36,0,0,1-2.11-1.08v.91Zm3.42-5.56a1.88,1.88,0,0,0-1.84,2.13,1.92,1.92,0,0,0,1.84,2.16c1.06,0,1.83-.82,1.83-2.16S752.71,133.94,751.63,133.94Z"/><path class="cls-2" d="M767.25,132.37a1.82,1.82,0,0,0-1.94-1.53,1.57,1.57,0,0,0-1.71,1.43,1.29,1.29,0,0,0,1.16,1.28l1.43.29a2.94,2.94,0,0,1,2.69,2.86c0,1.54-1.25,3-3.52,3a3.52,3.52,0,0,1-3.83-3.05l1.56-.45a2.13,2.13,0,0,0,2.27,2c1.19,0,1.81-.61,1.81-1.38s-.48-1.16-1.33-1.34l-1.4-.29a2.83,2.83,0,0,1-2.52-2.79,3.51,3.51,0,0,1,6.85-.51Z"/><path class="cls-2" d="M777.91,136.08a3.54,3.54,0,1,1-3.54-3.61A3.48,3.48,0,0,1,777.91,136.08Zm-1.64,0a1.92,1.92,0,1,0-3.81,0,1.92,1.92,0,1,0,3.81,0Z"/><path class="cls-2" d="M781.55,136.08a1.94,1.94,0,0,0,1.9,2.15,1.72,1.72,0,0,0,1.71-1.27l1.43.52a3.15,3.15,0,0,1-3.14,2.23,3.5,3.5,0,0,1-3.53-3.63,3.47,3.47,0,0,1,3.49-3.61,3,3,0,0,1,3.12,2.24l-1.45.53a1.61,1.61,0,0,0-1.66-1.27A1.91,1.91,0,0,0,781.55,136.08Z"/><path class="cls-2" d="M792.59,135.56l2.86,3.94h-2l-2-2.79-.84.88v1.91H789V129.36h1.61v6.08l2.62-2.76h2.16Z"/><path class="cls-2" d="M803.32,137.55a3.08,3.08,0,0,1-3.08,2.16,3.63,3.63,0,0,1-.17-7.24c2.1,0,3.33,1.38,3.33,3.54a2.1,2.1,0,0,1,0,.52h-5a1.84,1.84,0,0,0,1.87,1.78,1.65,1.65,0,0,0,1.71-1.19Zm-1.56-2.21a1.52,1.52,0,0,0-1.68-1.51,1.63,1.63,0,0,0-1.66,1.51Z"/><path class="cls-2" d="M808,132.68h1.42v1.44H808v3.17c0,.6.27.85.87.85a2.84,2.84,0,0,0,.56-.06v1.35a2.66,2.66,0,0,1-1,.15,1.88,1.88,0,0,1-2-2v-3.43h-1.26v-1.44h.35a1,1,0,0,0,1-1.07v-1H808Z"/><path class="cls-2" d="M813,137.26a1.26,1.26,0,0,0,1.38,1.16c.68,0,1-.36,1-.78s-.26-.65-.8-.76l-1-.22a2.06,2.06,0,0,1-1.84-2,2.37,2.37,0,0,1,2.51-2.2,2.4,2.4,0,0,1,2.63,1.9l-1.37.4a1.17,1.17,0,0,0-1.26-1,.89.89,0,0,0-1,.79.75.75,0,0,0,.69.71l1,.21a2.15,2.15,0,0,1,2,2.08,2.32,2.32,0,0,1-2.57,2.18,2.57,2.57,0,0,1-2.82-2.06Z"/><path class="cls-2" d="M734.26,176.5v-7.31l-3.1,7.31h-1.45l-3.07-7.28v7.28H725v-9.93h2.24l3.22,7.58,3.18-7.58h2.29v9.93Z"/><path class="cls-2" d="M745.65,173.08a3.54,3.54,0,1,1-3.54-3.61A3.47,3.47,0,0,1,745.65,173.08Zm-1.64,0a1.92,1.92,0,1,0-3.81,0,2,2,0,0,0,1.91,2.17A1.94,1.94,0,0,0,744,173.08Z"/><path class="cls-2" d="M748.2,176.5V166.36h1.59v4.16a2.48,2.48,0,0,1,2.15-1c2,0,3.15,1.55,3.15,3.55s-1.22,3.62-3.21,3.62a2.34,2.34,0,0,1-2.1-1.08v.91Zm3.42-5.56a1.88,1.88,0,0,0-1.84,2.13,1.92,1.92,0,0,0,1.84,2.16c1.06,0,1.83-.82,1.83-2.16S752.69,170.94,751.62,170.94Z"/><path class="cls-2" d="M758.43,166.22a1.06,1.06,0,1,1,0,2.11,1.06,1.06,0,0,1,0-2.11Zm-.8,10.28v-6.82h1.62v6.82Z"/><path class="cls-2" d="M762.32,176.5V166.36H764V176.5Z"/><path class="cls-2" d="M773.07,174.55a3.09,3.09,0,0,1-3.09,2.16,3.63,3.63,0,0,1-.16-7.24c2.1,0,3.33,1.38,3.33,3.54a2.83,2.83,0,0,1,0,.52h-5a1.82,1.82,0,0,0,1.86,1.78,1.65,1.65,0,0,0,1.71-1.19Zm-1.56-2.21a1.53,1.53,0,0,0-1.68-1.51,1.64,1.64,0,0,0-1.67,1.51Z"/><path class="cls-2" d="M786.13,174h-4.21L781,176.5h-1.78l3.87-9.93H785l3.87,9.93h-1.83Zm-3.62-1.56h3L784,168.39Z"/><path class="cls-2" d="M791,179.16v-9.48h1.57v.92a2.45,2.45,0,0,1,2.17-1.08c2,0,3.16,1.55,3.16,3.56s-1.25,3.59-3.21,3.59a2.49,2.49,0,0,1-2.08-.94v3.43Zm3.44-8.19a1.89,1.89,0,0,0-1.84,2.11,1.86,1.86,0,1,0,3.67,0A1.88,1.88,0,0,0,794.46,171Z"/><path class="cls-2" d="M800.46,179.16v-9.48H802v.92a2.44,2.44,0,0,1,2.17-1.08c2,0,3.15,1.55,3.15,3.56s-1.25,3.59-3.21,3.59a2.46,2.46,0,0,1-2.07-.94v3.43Zm3.43-8.19a1.89,1.89,0,0,0-1.83,2.11,1.86,1.86,0,1,0,3.67,0A1.88,1.88,0,0,0,803.89,171Z"/><path class="cls-2" d="M810.71,174.26a1.27,1.27,0,0,0,1.38,1.16c.68,0,1-.36,1-.78s-.26-.65-.8-.76l-1-.22a2.06,2.06,0,0,1-1.83-2,2.36,2.36,0,0,1,2.5-2.2,2.42,2.42,0,0,1,2.64,1.9l-1.38.4a1.17,1.17,0,0,0-1.26-1,.89.89,0,0,0-1,.79.75.75,0,0,0,.69.71l1,.21a2.16,2.16,0,0,1,2,2.08,2.33,2.33,0,0,1-2.58,2.18,2.57,2.57,0,0,1-2.82-2.06Z"/><path class="cls-2" d="M725,263.5v-9.93h6.14v1.57h-4.46v2.63h4v1.53h-4v2.63h4.46v1.57Z"/><path class="cls-2" d="M735.57,260.05l-2.44-3.37h1.94c.12.21,1.37,2,1.5,2.18l1.48-2.18h1.85L737.5,260,740,263.5h-1.9l-1.58-2.28c-.14.21-1.42,2.07-1.55,2.28h-1.86Z"/><path class="cls-2" d="M744.31,256.68h1.41v1.44h-1.41v3.17c0,.6.26.85.86.85a2.87,2.87,0,0,0,.57-.06v1.35a2.68,2.68,0,0,1-1,.15,1.87,1.87,0,0,1-2-2v-3.43h-1.27v-1.44h.36a1,1,0,0,0,1-1.07v-1h1.48Z"/><path class="cls-2" d="M754.33,261.55a3.07,3.07,0,0,1-3.08,2.16,3.63,3.63,0,0,1-.17-7.24c2.1,0,3.34,1.38,3.34,3.54a2.83,2.83,0,0,1,0,.52h-5a1.82,1.82,0,0,0,1.86,1.78,1.65,1.65,0,0,0,1.71-1.19Zm-1.55-2.21a1.53,1.53,0,0,0-1.68-1.51,1.64,1.64,0,0,0-1.67,1.51Z"/><path class="cls-2" d="M760.94,258.29a3.23,3.23,0,0,0-.53,0c-1.26,0-1.84.73-1.84,2v3.25H757v-6.82h1.58v1.09a2.07,2.07,0,0,1,2-1.18,1.81,1.81,0,0,1,.44.05Z"/><path class="cls-2" d="M764.9,263.5h-1.62v-6.82h1.58v.91a2.26,2.26,0,0,1,2-1.11,2.42,2.42,0,0,1,2.46,2.71v4.31h-1.62v-4c0-.85-.38-1.52-1.4-1.52a1.44,1.44,0,0,0-1.42,1.61Z"/><path class="cls-2" d="M773.93,259.59l1.75-.26c.39-.06.51-.26.51-.49,0-.58-.4-1-1.29-1a1.31,1.31,0,0,0-1.4,1.23L772,258.7a2.67,2.67,0,0,1,2.87-2.23c2.1,0,2.9,1.19,2.9,2.55v3.39a5.37,5.37,0,0,0,.09,1.09h-1.52a4.06,4.06,0,0,1-.07-.87,2.37,2.37,0,0,1-2.1,1.08,2.14,2.14,0,0,1-2.31-2.06A2.1,2.1,0,0,1,773.93,259.59Zm2.26,1.08v-.31l-1.78.27c-.51.08-.91.36-.91.92a.9.9,0,0,0,1,.89A1.56,1.56,0,0,0,776.19,260.67Z"/><path class="cls-2" d="M780.72,263.5V253.36h1.62V263.5Z"/><path class="cls-2" d="M795,256.37a1.84,1.84,0,0,0-1.95-1.53,1.57,1.57,0,0,0-1.71,1.43,1.3,1.3,0,0,0,1.17,1.28l1.42.29a2.93,2.93,0,0,1,2.69,2.86c0,1.54-1.24,3-3.51,3a3.53,3.53,0,0,1-3.84-3l1.57-.45a2.13,2.13,0,0,0,2.27,2c1.19,0,1.81-.61,1.81-1.38s-.48-1.16-1.34-1.34l-1.4-.29a2.83,2.83,0,0,1-2.52-2.79,3.24,3.24,0,0,1,3.38-3,3.2,3.2,0,0,1,3.47,2.53Z"/><path class="cls-2" d="M799.25,266.26l1.64-3.57-2.91-6h1.84l2,4.31,1.83-4.31h1.72L801,266.26Z"/><path class="cls-2" d="M808.2,261.26a1.28,1.28,0,0,0,1.39,1.16c.67,0,1-.36,1-.78s-.25-.65-.8-.76l-1-.22a2.06,2.06,0,0,1-1.83-2,2.37,2.37,0,0,1,2.51-2.2,2.4,2.4,0,0,1,2.63,1.9l-1.37.4a1.17,1.17,0,0,0-1.26-1,.89.89,0,0,0-1,.79.74.74,0,0,0,.68.71l1,.21a2.15,2.15,0,0,1,2,2.08,2.32,2.32,0,0,1-2.58,2.18,2.56,2.56,0,0,1-2.81-2.06Z"/><path class="cls-2" d="M816.83,256.68h1.41v1.44h-1.41v3.17c0,.6.26.85.86.85a2.75,2.75,0,0,0,.56-.06v1.35a2.56,2.56,0,0,1-1,.15,1.87,1.87,0,0,1-2-2v-3.43H814v-1.44h.35a1,1,0,0,0,1.05-1.07v-1h1.48Z"/><path class="cls-2" d="M826.85,261.55a3.07,3.07,0,0,1-3.08,2.16,3.63,3.63,0,0,1-.17-7.24c2.1,0,3.34,1.38,3.34,3.54a1.89,1.89,0,0,1-.05.52h-5a1.82,1.82,0,0,0,1.86,1.78,1.65,1.65,0,0,0,1.71-1.19Zm-1.55-2.21a1.53,1.53,0,0,0-1.68-1.51,1.63,1.63,0,0,0-1.67,1.51Z"/><path class="cls-2" d="M829.47,263.5v-6.82H831v.87a2.34,2.34,0,0,1,2-1.07,2.14,2.14,0,0,1,2,1.21,2.41,2.41,0,0,1,2.22-1.21,2.35,2.35,0,0,1,2.41,2.59v4.43h-1.57v-4.16a1.25,1.25,0,0,0-1.32-1.4,1.41,1.41,0,0,0-1.41,1.51v4.05h-1.6v-4.16a1.25,1.25,0,0,0-1.32-1.4,1.39,1.39,0,0,0-1.41,1.51v4.05Z"/><path class="cls-2" d="M843.48,261.26a1.28,1.28,0,0,0,1.39,1.16c.67,0,1-.36,1-.78s-.25-.65-.8-.76l-1-.22a2.06,2.06,0,0,1-1.83-2,2.36,2.36,0,0,1,2.5-2.2,2.41,2.41,0,0,1,2.64,1.9l-1.37.4a1.18,1.18,0,0,0-1.27-1,.89.89,0,0,0-1,.79.75.75,0,0,0,.69.71l1,.21a2.15,2.15,0,0,1,2,2.08,2.32,2.32,0,0,1-2.58,2.18,2.56,2.56,0,0,1-2.81-2.06Z"/><path class="cls-2" d="M730.43,279.12a3.63,3.63,0,0,1-2.71,1.36,2.71,2.71,0,0,1-3-2.6,3.27,3.27,0,0,1,1.73-2.75l.09-.07-.16-.18a3.34,3.34,0,0,1-1.14-2.19,2.55,2.55,0,0,1,2.66-2.53,2.49,2.49,0,0,1,2.72,2.46,3,3,0,0,1-1.4,2.25l-.44.32,1.66,1.72,2.36-2.55v2.1l-1.35,1.5,2.24,2.34h-2.17Zm-1-1.05h0l-1.83-1.95-.34.25a1.66,1.66,0,0,0-.81,1.4,1.27,1.27,0,0,0,1.32,1.25A2.29,2.29,0,0,0,729.4,278.07Zm-1.86-4.23.28.31.57-.42a1.37,1.37,0,0,0,.67-1.13,1.07,1.07,0,0,0-1.1-1.07,1,1,0,0,0-1.08,1.07A1.93,1.93,0,0,0,727.54,273.84Z"/><path class="cls-2" d="M745.64,277.81h-4.2l-.93,2.49h-1.78l3.87-9.93h1.95l3.86,9.93h-1.83ZM742,276.25h3l-1.51-4.06Z"/><path class="cls-2" d="M752.4,276.42v3.88h-1.68v-9.93h3.68a3,3,0,1,1,0,6.05Zm1.75-1.49a1.5,1.5,0,0,0,1.71-1.52,1.52,1.52,0,0,0-1.71-1.56H752.4v3.08Z"/><path class="cls-2" d="M760.1,280.3v-9.93h1.71v9.93Z"/><path class="cls-2" d="M765.84,278.06a1.27,1.27,0,0,0,1.38,1.16c.68,0,1-.36,1-.78s-.25-.65-.8-.76l-1-.22a2.06,2.06,0,0,1-1.83-2,2.36,2.36,0,0,1,2.5-2.2,2.42,2.42,0,0,1,2.64,1.9l-1.38.4a1.17,1.17,0,0,0-1.26-1,.89.89,0,0,0-1,.79.75.75,0,0,0,.69.71l1,.21a2.16,2.16,0,0,1,2,2.08,2.32,2.32,0,0,1-2.58,2.18,2.57,2.57,0,0,1-2.82-2.06Z"/><path class="cls-2" d="M0,321.5v-9.93H3.52a5,5,0,0,1,0,9.93ZM3.45,320a3.06,3.06,0,0,0,3.15-3.4c0-2.33-1.42-3.45-3.14-3.45H1.68V320Z"/><path class="cls-2" d="M12.59,317.59l1.75-.26c.39-.06.5-.26.5-.49,0-.58-.39-1-1.29-1a1.32,1.32,0,0,0-1.4,1.23l-1.48-.33a2.67,2.67,0,0,1,2.87-2.23c2.1,0,2.9,1.19,2.9,2.55v3.39a7,7,0,0,0,.08,1.09H15a4.06,4.06,0,0,1-.07-.87,2.37,2.37,0,0,1-2.1,1.08,2.14,2.14,0,0,1-2.31-2.06A2.1,2.1,0,0,1,12.59,317.59Zm2.25,1.08v-.31l-1.78.27a.94.94,0,0,0-.91.92.9.9,0,0,0,1,.89A1.55,1.55,0,0,0,14.84,318.67Z"/><path class="cls-2" d="M21.41,314.68h1.41v1.44H21.41v3.17c0,.6.26.85.87.85a2.84,2.84,0,0,0,.56-.06v1.35a2.68,2.68,0,0,1-1,.15,1.87,1.87,0,0,1-2-2v-3.43H18.54v-1.44h.35a1,1,0,0,0,1.05-1.07v-1h1.47Z"/><path class="cls-2" d="M27.12,317.59l1.75-.26c.39-.06.5-.26.5-.49,0-.58-.39-1-1.29-1a1.32,1.32,0,0,0-1.4,1.23l-1.48-.33a2.67,2.67,0,0,1,2.87-2.23c2.1,0,2.9,1.19,2.9,2.55v3.39a7,7,0,0,0,.08,1.09H29.54a4.06,4.06,0,0,1-.07-.87,2.37,2.37,0,0,1-2.1,1.08,2.14,2.14,0,0,1-2.31-2.06A2.1,2.1,0,0,1,27.12,317.59Zm2.25,1.08v-.31l-1.78.27a.94.94,0,0,0-.91.92.9.9,0,0,0,1,.89A1.55,1.55,0,0,0,29.37,318.67Z"/><path class="cls-2" d="M33.91,321.5V311.36H35.5v4.16a2.48,2.48,0,0,1,2.15-1c2,0,3.15,1.55,3.15,3.55s-1.22,3.62-3.21,3.62a2.33,2.33,0,0,1-2.1-1.08v.91Zm3.42-5.56a1.88,1.88,0,0,0-1.84,2.13,1.92,1.92,0,0,0,1.84,2.16c1.06,0,1.83-.82,1.83-2.16S38.4,315.94,37.33,315.94Z"/><path class="cls-2" d="M45,317.59l1.75-.26c.4-.06.51-.26.51-.49,0-.58-.39-1-1.29-1a1.31,1.31,0,0,0-1.4,1.23l-1.49-.33a2.68,2.68,0,0,1,2.88-2.23c2.1,0,2.89,1.19,2.89,2.55v3.39a5.37,5.37,0,0,0,.09,1.09H47.41a3.4,3.4,0,0,1-.07-.87,2.4,2.4,0,0,1-2.11,1.08,2.14,2.14,0,0,1-2.31-2.06A2.1,2.1,0,0,1,45,317.59Zm2.26,1.08v-.31l-1.78.27c-.51.08-.91.36-.91.92a.9.9,0,0,0,1,.89A1.56,1.56,0,0,0,47.24,318.67Z"/><path class="cls-2" d="M52.58,319.26A1.28,1.28,0,0,0,54,320.42c.67,0,1-.36,1-.78s-.25-.65-.8-.76l-1-.22a2.06,2.06,0,0,1-1.84-2,2.37,2.37,0,0,1,2.51-2.2,2.4,2.4,0,0,1,2.63,1.9l-1.37.4a1.17,1.17,0,0,0-1.26-1,.89.89,0,0,0-1,.79.74.74,0,0,0,.68.71l1,.21a2.15,2.15,0,0,1,2,2.08A2.32,2.32,0,0,1,54,321.71a2.56,2.56,0,0,1-2.81-2.06Z"/><path class="cls-2" d="M65.14,319.55a3.07,3.07,0,0,1-3.08,2.16,3.63,3.63,0,0,1-.17-7.24c2.11,0,3.34,1.38,3.34,3.54a2.83,2.83,0,0,1,0,.52h-5a1.82,1.82,0,0,0,1.86,1.78,1.65,1.65,0,0,0,1.71-1.19Zm-1.55-2.21a1.53,1.53,0,0,0-1.68-1.51,1.64,1.64,0,0,0-1.67,1.51Z"/><path class="cls-3" d="M311.84,216.37h-3.6l-.79,2.13h-1.52l3.31-8.5h1.67l3.31,8.5h-1.57ZM308.75,215h2.59l-1.3-3.47Z"/><path class="cls-3" d="M316.9,215.57a1.66,1.66,0,0,0,1.63,1.84,1.47,1.47,0,0,0,1.46-1.08l1.22.44a2.7,2.7,0,0,1-2.68,1.91,3,3,0,0,1-3-3.11,3,3,0,0,1,3-3.09,2.62,2.62,0,0,1,2.68,1.92l-1.25.45a1.38,1.38,0,0,0-1.42-1.09A1.63,1.63,0,0,0,316.9,215.57Z"/><path class="cls-3" d="M325.06,212.66h1.21v1.23h-1.21v2.72c0,.51.22.73.74.73a3.19,3.19,0,0,0,.48-.05v1.15a2.11,2.11,0,0,1-.85.13,1.61,1.61,0,0,1-1.75-1.74v-2.94H322.6v-1.23h.3a.83.83,0,0,0,.9-.91v-.88h1.26Z"/><path class="cls-3" d="M329.22,209.7a.91.91,0,1,1-.9.91A.91.91,0,0,1,329.22,209.7Zm-.68,8.8v-5.84h1.38v5.84Z"/><path class="cls-3" d="M335.54,218.5h-1.39l-2.37-5.84h1.53l1.55,4.17,1.51-4.17h1.46Z"/><path class="cls-3" d="M344.69,216.83a2.64,2.64,0,0,1-2.64,1.85,3.11,3.11,0,0,1-.15-6.2,2.73,2.73,0,0,1,2.86,3,2.2,2.2,0,0,1,0,.45h-4.27a1.57,1.57,0,0,0,1.6,1.52,1.4,1.4,0,0,0,1.46-1Zm-1.34-1.89a1.3,1.3,0,0,0-1.43-1.3,1.4,1.4,0,0,0-1.43,1.3Z"/><path class="cls-3" d="M358.8,218.5v-6.26l-2.65,6.26H354.9l-2.63-6.24v6.24h-1.4V210h1.92l2.76,6.49,2.72-6.49h2v8.5Z"/><path class="cls-3" d="M368.57,215.57a3,3,0,1,1-3-3.09A3,3,0,0,1,368.57,215.57Zm-1.41,0a1.64,1.64,0,1,0-3.26,0,1.64,1.64,0,1,0,3.26,0Z"/><path class="cls-3" d="M376.15,217.43a10.24,10.24,0,0,0,.06,1.07h-1.33a5,5,0,0,1-.06-.76,1.92,1.92,0,0,1-1.72.9,2.83,2.83,0,0,1-2.8-3.08,2.87,2.87,0,0,1,2.78-3.06,1.77,1.77,0,0,1,1.71.84v-3.52h1.36Zm-2.89,0c.91,0,1.55-.75,1.55-1.87s-.63-1.81-1.54-1.81a1.63,1.63,0,0,0-1.58,1.82C371.69,216.68,372.31,217.42,373.26,217.42Z"/><path class="cls-3" d="M384,216.83a2.64,2.64,0,0,1-2.64,1.85,3.11,3.11,0,0,1-.15-6.2,2.73,2.73,0,0,1,2.86,3,2.2,2.2,0,0,1,0,.45h-4.27a1.57,1.57,0,0,0,1.6,1.52,1.4,1.4,0,0,0,1.46-1Zm-1.34-1.89a1.31,1.31,0,0,0-1.44-1.3,1.4,1.4,0,0,0-1.42,1.3Z"/><path class="cls-3" d="M386.23,218.5v-8.68h1.39v8.68Z"/><path class="cls-3" d="M311.84,241.37h-3.6l-.79,2.13h-1.52l3.31-8.5h1.67l3.31,8.5h-1.57ZM308.75,240h2.59l-1.3-3.47Z"/><path class="cls-3" d="M316.9,240.57a1.66,1.66,0,0,0,1.63,1.84,1.47,1.47,0,0,0,1.46-1.08l1.22.44a2.7,2.7,0,0,1-2.68,1.91,3,3,0,0,1-3-3.11,3,3,0,0,1,3-3.09,2.62,2.62,0,0,1,2.68,1.92l-1.25.45a1.38,1.38,0,0,0-1.42-1.09A1.63,1.63,0,0,0,316.9,240.57Z"/><path class="cls-3" d="M325.06,237.66h1.21v1.23h-1.21v2.72c0,.51.22.73.74.73a3.19,3.19,0,0,0,.48-.05v1.15a2.11,2.11,0,0,1-.85.13,1.61,1.61,0,0,1-1.75-1.74v-2.94H322.6v-1.23h.3a.83.83,0,0,0,.9-.91v-.88h1.26Z"/><path class="cls-3" d="M329.22,234.7a.91.91,0,1,1-.9.91A.91.91,0,0,1,329.22,234.7Zm-.68,8.8v-5.84h1.38v5.84Z"/><path class="cls-3" d="M335.54,243.5h-1.39l-2.37-5.84h1.53l1.55,4.17,1.51-4.17h1.46Z"/><path class="cls-3" d="M344.69,241.83a2.64,2.64,0,0,1-2.64,1.85,3.11,3.11,0,0,1-.15-6.2,2.73,2.73,0,0,1,2.86,3,2.2,2.2,0,0,1,0,.45h-4.27a1.57,1.57,0,0,0,1.6,1.52,1.4,1.4,0,0,0,1.46-1Zm-1.34-1.89a1.3,1.3,0,0,0-1.43-1.3,1.4,1.4,0,0,0-1.43,1.3Z"/><path class="cls-3" d="M353.38,240.14h-1.06v3.36h-1.45V235h3.26a2.51,2.51,0,0,1,2.66,2.58,2.4,2.4,0,0,1-1.92,2.42l1.92,3.5h-1.63Zm.49-1.27a1.31,1.31,0,1,0,0-2.6h-1.55v2.6Z"/><path class="cls-3" d="M364,241.83a2.64,2.64,0,0,1-2.64,1.85,3.11,3.11,0,0,1-.15-6.2,2.73,2.73,0,0,1,2.86,3,1.62,1.62,0,0,1,0,.45h-4.27a1.58,1.58,0,0,0,1.6,1.52,1.4,1.4,0,0,0,1.46-1Zm-1.33-1.89a1.31,1.31,0,0,0-1.44-1.3,1.4,1.4,0,0,0-1.43,1.3Z"/><path class="cls-3" d="M367.2,240.57a1.67,1.67,0,0,0,1.63,1.84,1.47,1.47,0,0,0,1.46-1.08l1.23.44a2.72,2.72,0,0,1-2.69,1.91,3,3,0,0,1-3-3.11,3,3,0,0,1,3-3.09,2.61,2.61,0,0,1,2.68,1.92l-1.25.45a1.38,1.38,0,0,0-1.41-1.09A1.64,1.64,0,0,0,367.2,240.57Z"/><path class="cls-3" d="M379.14,240.57a3,3,0,1,1-3-3.09A3,3,0,0,1,379.14,240.57Zm-1.41,0a1.64,1.64,0,1,0-3.26,0,1.64,1.64,0,1,0,3.26,0Z"/><path class="cls-3" d="M384.74,239a2.35,2.35,0,0,0-.45,0c-1.08,0-1.57.63-1.57,1.72v2.78h-1.4v-5.84h1.36v.93a1.77,1.77,0,0,1,1.69-1,2.32,2.32,0,0,1,.37,0Z"/><path class="cls-3" d="M392.08,242.43a7.28,7.28,0,0,0,.07,1.07h-1.34a6.7,6.7,0,0,1-.06-.76,1.89,1.89,0,0,1-1.71.9,2.84,2.84,0,0,1-2.81-3.08A2.87,2.87,0,0,1,389,237.5a1.79,1.79,0,0,1,1.72.84v-3.52h1.35Zm-2.89,0c.92,0,1.55-.75,1.55-1.87s-.62-1.81-1.53-1.81a1.64,1.64,0,0,0-1.59,1.82C387.62,241.68,388.25,242.42,389.19,242.42Z"/><path class="cls-2" d="M308.84,270.37h-3.6l-.79,2.13h-1.52l3.31-8.5h1.67l3.31,8.5h-1.57ZM305.75,269h2.59l-1.3-3.47Z"/><path class="cls-2" d="M313.9,269.57a1.66,1.66,0,0,0,1.63,1.84,1.47,1.47,0,0,0,1.46-1.08l1.22.44a2.7,2.7,0,0,1-2.68,1.91,3,3,0,0,1-3-3.11,3,3,0,0,1,3-3.09,2.62,2.62,0,0,1,2.68,1.92l-1.25.45a1.38,1.38,0,0,0-1.42-1.09A1.63,1.63,0,0,0,313.9,269.57Z"/><path class="cls-2" d="M322.06,266.66h1.21v1.23h-1.21v2.72c0,.51.22.73.74.73a3.19,3.19,0,0,0,.48,0v1.15a2.11,2.11,0,0,1-.85.13,1.61,1.61,0,0,1-1.75-1.74v-2.94H319.6v-1.23h.3a.83.83,0,0,0,.9-.91v-.88h1.26Z"/><path class="cls-2" d="M326.22,263.7a.91.91,0,1,1-.9.91A.91.91,0,0,1,326.22,263.7Zm-.68,8.8v-5.84h1.38v5.84Z"/><path class="cls-2" d="M335.16,269.57a3,3,0,1,1-3-3.09A3,3,0,0,1,335.16,269.57Zm-1.41,0a1.64,1.64,0,1,0-3.26,0,1.64,1.64,0,1,0,3.26,0Z"/><path class="cls-2" d="M338.74,272.5h-1.4v-5.84h1.36v.78a1.94,1.94,0,0,1,1.73-.95,2.07,2.07,0,0,1,2.11,2.32v3.69h-1.39v-3.45c0-.72-.33-1.3-1.2-1.3a1.23,1.23,0,0,0-1.21,1.38Z"/><path class="cls-2" d="M354.43,264H356l-3.21,8.5h-1.47l-3.16-8.5h1.56l2.37,6.62Z"/><path class="cls-2" d="M358.5,263.7a.91.91,0,1,1-.9.91A.91.91,0,0,1,358.5,263.7Zm-.68,8.8v-5.84h1.38v5.84Z"/><path class="cls-2" d="M367,270.83a2.64,2.64,0,0,1-2.64,1.85,3.11,3.11,0,0,1-.15-6.2,2.73,2.73,0,0,1,2.86,3,2.2,2.2,0,0,1,0,.45h-4.27a1.57,1.57,0,0,0,1.6,1.52,1.4,1.4,0,0,0,1.46-1Zm-1.34-1.89a1.3,1.3,0,0,0-1.43-1.3,1.4,1.4,0,0,0-1.43,1.3Z"/><path class="cls-2" d="M373.92,266.66l1.38,4,1.16-4h1.42L376,272.5h-1.39l-1.45-4.2-1.41,4.2h-1.43l-1.9-5.84h1.49l1.19,4,1.38-4Z"/><path class="cls-2" d="M308.84,296.37h-3.6l-.79,2.13h-1.52l3.31-8.5h1.67l3.31,8.5h-1.57ZM305.75,295h2.59l-1.3-3.47Z"/><path class="cls-2" d="M313.9,295.57a1.66,1.66,0,0,0,1.63,1.84,1.47,1.47,0,0,0,1.46-1.08l1.22.44a2.7,2.7,0,0,1-2.68,1.91,3,3,0,0,1-3-3.11,3,3,0,0,1,3-3.09,2.62,2.62,0,0,1,2.68,1.92l-1.25.45a1.38,1.38,0,0,0-1.42-1.09A1.63,1.63,0,0,0,313.9,295.57Z"/><path class="cls-2" d="M322.06,292.66h1.21v1.23h-1.21v2.72c0,.51.22.73.74.73a3.19,3.19,0,0,0,.48,0v1.15a2.11,2.11,0,0,1-.85.13,1.61,1.61,0,0,1-1.75-1.74v-2.94H319.6v-1.23h.3a.83.83,0,0,0,.9-.91v-.88h1.26Z"/><path class="cls-2" d="M326.22,289.7a.91.91,0,1,1-.9.91A.91.91,0,0,1,326.22,289.7Zm-.68,8.8v-5.84h1.38v5.84Z"/><path class="cls-2" d="M335.16,295.57a3,3,0,1,1-3-3.09A3,3,0,0,1,335.16,295.57Zm-1.41,0a1.64,1.64,0,1,0-3.26,0,1.64,1.64,0,1,0,3.26,0Z"/><path class="cls-2" d="M338.74,298.5h-1.4v-5.84h1.36v.78a1.94,1.94,0,0,1,1.73-.95,2.07,2.07,0,0,1,2.11,2.32v3.69h-1.39v-3.45c0-.72-.33-1.3-1.2-1.3a1.23,1.23,0,0,0-1.21,1.38Z"/><path class="cls-2" d="M356.94,298.5v-6.26l-2.65,6.26H353l-2.63-6.24v6.24H349V290h1.92l2.76,6.49,2.72-6.49h1.95v8.5Z"/><path class="cls-2" d="M362.5,295.15l1.49-.22c.34-.05.44-.22.44-.42,0-.5-.34-.89-1.11-.89a1.13,1.13,0,0,0-1.2,1.05l-1.27-.28a2.29,2.29,0,0,1,2.46-1.91c1.8,0,2.48,1,2.48,2.18v2.9a4.29,4.29,0,0,0,.08.94h-1.3a3.45,3.45,0,0,1-.06-.74,2,2,0,0,1-1.8.92,1.83,1.83,0,0,1-2-1.76A1.81,1.81,0,0,1,362.5,295.15Zm1.93.93v-.27l-1.53.23c-.43.07-.78.31-.78.79a.78.78,0,0,0,.86.76A1.33,1.33,0,0,0,364.43,296.08Z"/><path class="cls-2" d="M369,289.7a.91.91,0,1,1-.9.91A.91.91,0,0,1,369,289.7Zm-.68,8.8v-5.84h1.38v5.84Z"/><path class="cls-2" d="M372.34,298.5v-8.68h1.39v8.68Z"/><path class="cls-2" d="M381.54,296.83a2.64,2.64,0,0,1-2.64,1.85,3.11,3.11,0,0,1-.15-6.2,2.73,2.73,0,0,1,2.86,3,1.62,1.62,0,0,1,0,.45H377.3a1.58,1.58,0,0,0,1.6,1.52,1.4,1.4,0,0,0,1.46-1Zm-1.33-1.89a1.31,1.31,0,0,0-1.44-1.3,1.4,1.4,0,0,0-1.43,1.3Z"/><path class="cls-2" d="M387.2,294a2.35,2.35,0,0,0-.45,0c-1.08,0-1.57.63-1.57,1.72v2.78h-1.4v-5.84h1.36v.93a1.77,1.77,0,0,1,1.69-1,2.32,2.32,0,0,1,.37,0Z"/><path class="cls-2" d="M54.31,271.18v.07c0,1.31-2.12,2.81-5.52,3.93a52.07,52.07,0,0,1-15.48,2.07,52.07,52.07,0,0,1-15.48-2.07A19.14,19.14,0,0,1,15,274a7.71,7.71,0,0,1-2.14-1.51,2.47,2.47,0,0,1-.49-.77,1.27,1.27,0,0,1-.06-.18.44.44,0,0,1,0-.1.83.83,0,0,1,0-.22h0l0-.13c.31-2.77,9-5.86,21-5.86S54,268.34,54.31,271.18Z"/><path class="cls-2" d="M54.31,274.69V281c0,1.3-2,2.75-5.36,3.88l-.16.05A52.07,52.07,0,0,1,33.31,287a52.07,52.07,0,0,1-15.48-2.07l-.13,0c-3.38-1.14-5.39-2.59-5.39-3.89v-6.31l.22.16c.16.12.33.24.51.35l.52.32a13.94,13.94,0,0,0,1.34.67c.21.1.43.19.66.28.51.22,1.06.42,1.65.61a53.87,53.87,0,0,0,16.1,2.17,53.87,53.87,0,0,0,16.1-2.17c.59-.19,1.14-.39,1.65-.61.23-.09.45-.18.66-.28a13.94,13.94,0,0,0,1.34-.67l.52-.32c.18-.11.35-.23.51-.35Z"/><path class="cls-2" d="M54.32,290.12h0c0,1.3-2,2.75-5.36,3.88l-.16.05a52.07,52.07,0,0,1-15.48,2.07,52.07,52.07,0,0,1-15.48-2.07l-.13,0c-2.66-.9-4.47-2-5.11-3v0a1.44,1.44,0,0,1-.26-.72v-5.8l.31.23a4.38,4.38,0,0,0,.42.28,4.28,4.28,0,0,0,.42.26l.35.2a17.82,17.82,0,0,0,1.9.89c.47.19,1,.37,1.49.54l.16.05a54.19,54.19,0,0,0,16,2.12,54.19,54.19,0,0,0,15.95-2.12l.16-.05a22.28,22.28,0,0,0,2.8-1.13l.59-.3.35-.2a4.28,4.28,0,0,0,.42-.26,4.38,4.38,0,0,0,.42-.28l.31-.23Z"/><path class="cls-2" d="M54.32,299.88l0,.13c-.31,2.77-9,5.86-21,5.86s-20.68-3.09-21-5.86v-6.46A16.23,16.23,0,0,0,17.2,296l.16.05a54.19,54.19,0,0,0,16,2.12A54.19,54.19,0,0,0,49.26,296l.16-.05a16.47,16.47,0,0,0,4.89-2.4v6.33Z"/><path class="cls-6" d="M546.31,118v-2c35.79,0,55.9-4.31,77.19-8.87,22.88-4.9,46.54-10,91.64-10.13v2c-44.88.16-68.44,5.21-91.22,10.09C602.52,113.67,582.31,118,546.31,118Z"/><polygon class="cls-6" points="708.63 106.3 707.24 104.85 714.37 98.04 707.06 91.42 708.4 89.94 717.31 98 708.63 106.3"/><path class="cls-6" d="M715.13,134c-58.37-.26-129.73-10.57-192.68-19.67-48.25-7-89.91-13-117-13.32l0-2c27.21.32,68.93,6.35,117.24,13.34,62.89,9.09,134.17,19.39,192.41,19.65Z"/><polygon class="cls-6" points="411.86 108.44 413.27 107.01 406.25 100.09 413.66 93.59 412.34 92.08 403.31 100 411.86 108.44"/><polygon class="cls-6" points="708.36 141.01 707.03 139.53 714.37 132.95 707.28 126.1 708.67 124.66 717.31 133 708.36 141.01"/><path class="cls-6" d="M715.13,172c-52.63-.46-81.84-17.43-107.6-32.41C587.6,128,570.39,118,546.31,118v-2c24.62,0,42,10.13,62.22,21.85,25.56,14.85,54.52,31.69,106.62,32.14Z"/><polygon class="cls-6" points="708.66 162.66 707.27 164.1 714.37 170.95 707.03 177.53 708.37 179.02 717.31 171 708.66 162.66"/><path class="cls-6" d="M715.12,269c-29.63-.77-47.62-17.3-68.46-36.45-31.51-29-70.73-65-169.19-65.51v-2c99.24.52,138.77,36.85,170.53,66,20.54,18.87,38.28,35.17,67.16,35.92Z"/><polygon class="cls-6" points="483.95 174.35 485.34 172.91 478.25 166.06 485.6 159.48 484.26 157.99 475.31 166 483.95 174.35"/><polygon class="cls-6" points="708.14 275.76 706.84 274.23 714.38 267.86 707.48 260.82 708.91 259.42 717.31 268 708.14 275.76"/><path class="cls-5" d="M652.81,9a1.5,1.5,0,0,1-1.5-1.5v-6a1.5,1.5,0,0,1,3,0v6A1.5,1.5,0,0,1,652.81,9Z"/><path class="cls-5" d="M652.81,334.38a1.5,1.5,0,0,1-1.5-1.5V321.26a1.5,1.5,0,0,1,3,0v11.62A1.5,1.5,0,0,1,652.81,334.38Zm0-23.24a1.5,1.5,0,0,1-1.5-1.5V298a1.5,1.5,0,0,1,3,0v11.62A1.5,1.5,0,0,1,652.81,311.14Zm0-23.24a1.5,1.5,0,0,1-1.5-1.5V274.78a1.5,1.5,0,0,1,3,0V286.4A1.5,1.5,0,0,1,652.81,287.9Zm0-23.24a1.5,1.5,0,0,1-1.5-1.5V251.53a1.5,1.5,0,1,1,3,0v11.63A1.5,1.5,0,0,1,652.81,264.66Zm0-23.25a1.5,1.5,0,0,1-1.5-1.5V228.29a1.5,1.5,0,1,1,3,0v11.62A1.5,1.5,0,0,1,652.81,241.41Zm0-23.24a1.5,1.5,0,0,1-1.5-1.5V205.05a1.5,1.5,0,1,1,3,0v11.62A1.5,1.5,0,0,1,652.81,218.17Zm0-23.24a1.5,1.5,0,0,1-1.5-1.5V181.81a1.5,1.5,0,1,1,3,0v11.62A1.5,1.5,0,0,1,652.81,194.93Zm0-23.24a1.5,1.5,0,0,1-1.5-1.5V158.57a1.5,1.5,0,1,1,3,0v11.62A1.5,1.5,0,0,1,652.81,171.69Zm0-23.24a1.5,1.5,0,0,1-1.5-1.5V135.33a1.5,1.5,0,0,1,3,0V147A1.5,1.5,0,0,1,652.81,148.45Zm0-23.24a1.5,1.5,0,0,1-1.5-1.5V112.09a1.5,1.5,0,0,1,3,0v11.62A1.5,1.5,0,0,1,652.81,125.21Zm0-23.24a1.5,1.5,0,0,1-1.5-1.5V88.84a1.5,1.5,0,0,1,3,0v11.63A1.5,1.5,0,0,1,652.81,102Zm0-23.25a1.5,1.5,0,0,1-1.5-1.5V65.6a1.5,1.5,0,0,1,3,0V77.22A1.5,1.5,0,0,1,652.81,78.72Zm0-23.24a1.5,1.5,0,0,1-1.5-1.5V42.36a1.5,1.5,0,0,1,3,0V54A1.5,1.5,0,0,1,652.81,55.48Zm0-23.24a1.5,1.5,0,0,1-1.5-1.5V19.12a1.5,1.5,0,0,1,3,0V30.74A1.5,1.5,0,0,1,652.81,32.24Z"/><path class="cls-5" d="M652.81,352a1.5,1.5,0,0,1-1.5-1.5v-6a1.5,1.5,0,0,1,3,0v6A1.5,1.5,0,0,1,652.81,352Z"/><rect class="cls-6" x="371.31" y="121.17" width="2" height="27.66"/><polygon class="cls-6" points="364.13 127.8 365.6 129.16 372.31 121.94 379.02 129.16 380.49 127.8 372.31 119 364.13 127.8"/><polygon class="cls-6" points="364.13 142.2 365.6 140.84 372.31 148.06 379.02 140.84 380.49 142.2 372.31 151 364.13 142.2"/><rect class="cls-6" x="137.97" y="186" width="59.67" height="2" transform="translate(-21.79 351.87) rotate(-89.1)"/><polygon class="cls-6" points="159.99 163.67 161.44 165.05 168.26 157.94 174.86 165.26 176.35 163.92 168.31 155 159.99 163.67"/><polygon class="cls-6" points="159.27 210.08 160.75 208.74 167.35 216.06 174.18 208.95 175.62 210.33 167.31 219 159.27 210.08"/><path class="cls-6" d="M128.59,293.06c-1.26,0-2.45,0-3.54,0l-2.74,0v-2l2.77,0c14,.19,40.08.54,41.19-30.9l2,.07C167.18,290.92,143.07,293.06,128.59,293.06Z"/><polygon class="cls-6" points="158.56 266.23 159.94 267.69 167.11 260.93 173.33 268.58 174.89 267.32 167.31 258 158.56 266.23"/><path class="cls-6" d="M71.48,293v-2c14.77-.11,145.7-1,193.65-1.95l0,2C217.2,292,86.25,292.88,71.48,293Z"/><polygon class="cls-6" points="258.43 281.91 257.08 283.39 264.37 290.03 257.22 296.81 258.6 298.27 267.31 290 258.43 281.91"/><polygon class="cls-6" points="78.02 283.73 79.4 285.18 72.25 291.97 79.54 298.61 78.19 300.09 69.31 292 78.02 283.73"/><path class="cls-6" d="M263.13,202c-26.36-.23-50.78-4.75-68.75-12.73-17.2-7.64-27.07-17.94-27.07-28.26h2c0,18.35,35.88,38.48,93.84,39Z"/><polygon class="cls-6" points="256.34 208.99 255.01 207.5 262.37 200.94 255.3 194.07 256.69 192.63 265.31 201 256.34 208.99"/><polygon class="cls-7" points="488.31 311 478.31 311 478.31 309 486.31 309 486.31 259 478.31 259 478.31 257 488.31 257 488.31 311"/><rect class="cls-7" x="487.31" y="285" width="34" height="2"/><rect class="cls-7" x="478.31" y="238" width="43" height="2"/><rect class="cls-7" x="478.31" y="214" width="43" height="2"/><path class="cls-8" d="M532.46,281a2.26,2.26,0,0,1,2.49,2.26,2.91,2.91,0,0,1-3.22,2.88h-1.65l-.71,3.36h-1.44l1.8-8.5Zm-1.54,1.26-.58,2.62h1.38a1.54,1.54,0,0,0,1.75-1.52c0-.66-.43-1.1-1.3-1.1Z"/><path class="cls-8" d="M538.68,285c-.82,0-1.56.44-1.85,1.76l-.58,2.73h-1.37l1-4.83a5.39,5.39,0,0,0,.13-1h1.34a3.94,3.94,0,0,1-.08.8,2.07,2.07,0,0,1,1.76-.86,2.58,2.58,0,0,1,.42,0l-.3,1.44A3,3,0,0,0,538.68,285Z"/><path class="cls-8" d="M540.89,287a.62.62,0,0,0,0,.13,1.33,1.33,0,0,0,1.38,1.4,1.6,1.6,0,0,0,1.48-.85l1.07.59a2.81,2.81,0,0,1-2.59,1.45,2.56,2.56,0,0,1-2.67-2.67,3.3,3.3,0,0,1,3.16-3.53,2.3,2.3,0,0,1,2.51,2.41,3.93,3.93,0,0,1-.17,1.07Zm3-1s0-.12,0-.18a1.08,1.08,0,0,0-1.18-1.12,1.7,1.7,0,0,0-1.64,1.3Z"/><path class="cls-8" d="M546.9,287.46a1,1,0,0,0,1.07,1.13c.56,0,.83-.34.83-.67a.71.71,0,0,0-.5-.63l-.74-.32a1.67,1.67,0,0,1-1.15-1.57,2,2,0,0,1,2.18-1.92,1.89,1.89,0,0,1,2.14,1.74l-1.21.25a.92.92,0,0,0-1-.91.7.7,0,0,0-.79.66.57.57,0,0,0,.41.57l.76.34a1.82,1.82,0,0,1,1.26,1.67,2,2,0,0,1-2.2,1.88,2,2,0,0,1-2.26-2Z"/><path class="cls-8" d="M552.61,287a.62.62,0,0,0,0,.13,1.33,1.33,0,0,0,1.38,1.4,1.62,1.62,0,0,0,1.49-.85l1.06.59a2.81,2.81,0,0,1-2.59,1.45,2.56,2.56,0,0,1-2.67-2.67,3.3,3.3,0,0,1,3.17-3.53,2.29,2.29,0,0,1,2.5,2.41,3.58,3.58,0,0,1-.17,1.07Zm3-1s0-.12,0-.18a1.08,1.08,0,0,0-1.19-1.12,1.68,1.68,0,0,0-1.63,1.3Z"/><path class="cls-8" d="M561.31,289.5l.75-3.45a2.9,2.9,0,0,0,0-.38.88.88,0,0,0-1-.94,1.53,1.53,0,0,0-1.4,1.38L559,289.5h-1.38l1-4.83a5,5,0,0,0,.14-1h1.34a3.53,3.53,0,0,1-.06.61,2.1,2.1,0,0,1,1.73-.78,1.68,1.68,0,0,1,1.76,1.81,2.94,2.94,0,0,1-.07.65l-.77,3.55Z"/><path class="cls-8" d="M565,287.47l.55-2.58h-1l.26-1.23H565a1.09,1.09,0,0,0,1.16-1l.18-.84h1.26l-.39,1.79h1.16l-.26,1.23H566.9l-.57,2.73a.87.87,0,0,0,0,.26c0,.28.16.49.64.49a2.69,2.69,0,0,0,.4,0l-.22,1.11a1.78,1.78,0,0,1-.7.12,1.35,1.35,0,0,1-1.53-1.39A3.52,3.52,0,0,1,565,287.47Z"/><path class="cls-8" d="M574.81,283.66l-.95,4.45a5.7,5.7,0,0,0-.12,1.1c0,.06,0,.16,0,.29h-1.29a2.27,2.27,0,0,1,0-.24c0-.14,0-.22,0-.48a2,2,0,0,1-1.61.83,2.32,2.32,0,0,1-2.32-2.58,3.26,3.26,0,0,1,3-3.53,1.84,1.84,0,0,1,1.75.85l.15-.69ZM569.93,287c0,.85.44,1.43,1.25,1.43s1.7-.95,1.7-2.34a1.19,1.19,0,0,0-1.22-1.35C570.53,284.73,569.93,285.94,569.93,287Z"/><path class="cls-8" d="M576,287.47l.55-2.58h-1.06l.27-1.23H576a1.1,1.1,0,0,0,1.17-1l.17-.84h1.26l-.39,1.79h1.16l-.26,1.23H578l-.58,2.73a1.38,1.38,0,0,0,0,.26c0,.28.16.49.64.49a2.93,2.93,0,0,0,.41,0l-.23,1.11a1.78,1.78,0,0,1-.7.12,1.36,1.36,0,0,1-1.53-1.39A3.05,3.05,0,0,1,576,287.47Z"/><path class="cls-8" d="M579.53,289.5l1.25-5.84h1.38l-1.25,5.84Zm2.45-8.82a.78.78,0,0,1,.81.8,1,1,0,0,1-1,1,.79.79,0,0,1-.82-.8A1,1,0,0,1,582,280.68Z"/><path class="cls-8" d="M585.49,289.68a2.57,2.57,0,0,1-2.65-2.71,3.3,3.3,0,0,1,3.24-3.49,2.53,2.53,0,0,1,2.64,2.7A3.32,3.32,0,0,1,585.49,289.68Zm-1.26-2.76a1.35,1.35,0,0,0,1.33,1.51c.87,0,1.75-.75,1.75-2.2a1.32,1.32,0,0,0-1.33-1.5A2,2,0,0,0,584.23,286.92Z"/><path class="cls-8" d="M593.06,289.5l.75-3.45a2.9,2.9,0,0,0,0-.38.87.87,0,0,0-1-.94,1.53,1.53,0,0,0-1.4,1.38l-.73,3.39h-1.38l1-4.83a5.39,5.39,0,0,0,.13-1h1.34a3.53,3.53,0,0,1-.06.61,2.1,2.1,0,0,1,1.73-.78,1.68,1.68,0,0,1,1.76,1.81,2.94,2.94,0,0,1-.07.65l-.77,3.55Z"/><path class="cls-8" d="M599.41,289.5l1.8-8.5h1.44l-1.51,7.13h3.79l-.29,1.37Z"/><path class="cls-8" d="M612.09,283.66l-.94,4.45a5,5,0,0,0-.12,1.1c0,.06,0,.16,0,.29h-1.3a2.27,2.27,0,0,1,0-.24c0-.14,0-.22,0-.48a2,2,0,0,1-1.6.83,2.32,2.32,0,0,1-2.33-2.58,3.26,3.26,0,0,1,3-3.53,1.84,1.84,0,0,1,1.75.85l.16-.69ZM607.21,287c0,.85.45,1.43,1.25,1.43s1.7-.95,1.7-2.34a1.19,1.19,0,0,0-1.22-1.35C607.81,284.73,607.21,285.94,607.21,287Z"/><path class="cls-8" d="M612.17,291.78l2.1-3.24-1.36-4.88h1.48l.9,3.45,2.1-3.45H619l-5.25,8.12Z"/><path class="cls-8" d="M620,287a.32.32,0,0,0,0,.13,1.33,1.33,0,0,0,1.38,1.4,1.62,1.62,0,0,0,1.49-.85l1.07.59a2.84,2.84,0,0,1-2.59,1.45,2.56,2.56,0,0,1-2.68-2.67,3.3,3.3,0,0,1,3.17-3.53,2.3,2.3,0,0,1,2.51,2.41,3.93,3.93,0,0,1-.17,1.07Zm3-1s0-.12,0-.18a1.08,1.08,0,0,0-1.19-1.12,1.7,1.7,0,0,0-1.63,1.3Z"/><path class="cls-8" d="M628.75,285c-.82,0-1.56.44-1.85,1.76l-.58,2.73H625l1-4.83a5.39,5.39,0,0,0,.13-1h1.34a3.94,3.94,0,0,1-.08.8,2.07,2.07,0,0,1,1.76-.86,2.58,2.58,0,0,1,.42,0l-.3,1.44A2.73,2.73,0,0,0,628.75,285Z"/><path class="cls-8" d="M527.93,243.5l1.79-8.5h2.43a3.33,3.33,0,0,1,3.64,3.47c0,3.29-2.26,5-4.55,5Zm3.33-1.33c1.43,0,3.06-1.2,3.06-3.63A2.12,2.12,0,0,0,532,236.3h-1.09l-1.25,5.87Z"/><path class="cls-8" d="M542.83,237.66l-1,4.45a5.7,5.7,0,0,0-.12,1.1c0,.06,0,.16,0,.29h-1.29a2.27,2.27,0,0,1,0-.24c0-.14,0-.22,0-.48a2,2,0,0,1-1.61.83,2.32,2.32,0,0,1-2.32-2.58,3.26,3.26,0,0,1,3-3.53,1.84,1.84,0,0,1,1.75.85l.15-.69ZM538,241c0,.85.44,1.43,1.25,1.43s1.7-.95,1.7-2.34a1.19,1.19,0,0,0-1.22-1.35C538.55,238.73,538,239.94,538,241Z"/><path class="cls-8" d="M544,241.47l.56-2.58h-1.06l.26-1.23H544a1.09,1.09,0,0,0,1.16-.95l.18-.84h1.26l-.39,1.79h1.16l-.26,1.23H546l-.58,2.73a1.38,1.38,0,0,0,0,.26c0,.28.16.49.64.49a2.93,2.93,0,0,0,.41,0l-.23,1.11a1.78,1.78,0,0,1-.7.12,1.36,1.36,0,0,1-1.53-1.39A3.52,3.52,0,0,1,544,241.47Z"/><path class="cls-8" d="M553.88,237.66l-1,4.45a5.7,5.7,0,0,0-.12,1.1,1.8,1.8,0,0,0,0,.29h-1.3a2.27,2.27,0,0,1,0-.24c0-.14,0-.22,0-.48a2,2,0,0,1-1.6.83,2.32,2.32,0,0,1-2.33-2.58,3.26,3.26,0,0,1,3-3.53,1.84,1.84,0,0,1,1.75.85l.16-.69ZM549,241c0,.85.44,1.43,1.25,1.43s1.7-.95,1.7-2.34a1.19,1.19,0,0,0-1.22-1.35C549.6,238.73,549,239.94,549,241Z"/><path class="cls-8" d="M557.65,243.5l1.8-8.5h1.47l-1.8,8.5Z"/><path class="cls-8" d="M564.77,243.5l.74-3.45a3.07,3.07,0,0,0,0-.38.88.88,0,0,0-1-.94,1.54,1.54,0,0,0-1.41,1.38l-.73,3.39h-1.38l1-4.83a5.39,5.39,0,0,0,.13-1h1.35a5,5,0,0,1-.06.61,2.09,2.09,0,0,1,1.72-.78A1.69,1.69,0,0,1,567,239.3a3,3,0,0,1-.08.65l-.76,3.55Z"/><path class="cls-8" d="M568.43,241.47l.55-2.58h-1.06l.27-1.23h.21a1.09,1.09,0,0,0,1.17-.95l.18-.84H571l-.4,1.79h1.16l-.26,1.23h-1.15l-.58,2.73a1.3,1.3,0,0,0,0,.26c0,.28.15.49.63.49a2.73,2.73,0,0,0,.41,0l-.23,1.11a1.68,1.68,0,0,1-.69.12,1.36,1.36,0,0,1-1.54-1.39A3.74,3.74,0,0,1,568.43,241.47Z"/><path class="cls-8" d="M573.31,241a.62.62,0,0,0,0,.13,1.33,1.33,0,0,0,1.38,1.4,1.62,1.62,0,0,0,1.49-.85l1.06.59a2.81,2.81,0,0,1-2.59,1.45A2.56,2.56,0,0,1,572,241a3.3,3.3,0,0,1,3.17-3.53,2.29,2.29,0,0,1,2.5,2.41,3.58,3.58,0,0,1-.17,1.07Zm3-1s0-.12,0-.18a1.08,1.08,0,0,0-1.19-1.12,1.68,1.68,0,0,0-1.63,1.3Z"/><path class="cls-8" d="M582.11,239c-.82,0-1.56.44-1.85,1.76l-.59,2.73H578.3l1-4.83a5.94,5.94,0,0,0,.14-1h1.34a3.94,3.94,0,0,1-.08.8,2.07,2.07,0,0,1,1.76-.86,2.67,2.67,0,0,1,.42,0l-.3,1.44A3,3,0,0,0,582.11,239Z"/><path class="cls-8" d="M585.86,238.86l-1,4.64h-1.4l1-4.64h-1l.25-1.2h1l.23-1.07a2.06,2.06,0,0,1,2.2-1.84,2.19,2.19,0,0,1,.87.17l-.25,1.16a1.37,1.37,0,0,0-.5-.1,1,1,0,0,0-1,.86l-.17.82h1.28l-.25,1.2Z"/><path class="cls-8" d="M593.69,237.66l-1,4.45a5.7,5.7,0,0,0-.12,1.1c0,.06,0,.16,0,.29h-1.3a2.27,2.27,0,0,1,0-.24,3.31,3.31,0,0,1,0-.48,2,2,0,0,1-1.61.83,2.32,2.32,0,0,1-2.33-2.58,3.26,3.26,0,0,1,3-3.53,1.83,1.83,0,0,1,1.75.85l.16-.69ZM588.8,241c0,.85.45,1.43,1.25,1.43s1.7-.95,1.7-2.34a1.19,1.19,0,0,0-1.22-1.35C589.4,238.73,588.8,239.94,588.8,241Z"/><path class="cls-8" d="M598.74,239.78a1.27,1.27,0,0,0-1.32-1c-.88,0-1.78.73-1.78,2.19a1.37,1.37,0,0,0,1.43,1.5,1.6,1.6,0,0,0,1.46-1l1.16.47a2.94,2.94,0,0,1-2.69,1.75,2.6,2.6,0,0,1-2.74-2.72,3.3,3.3,0,0,1,3.25-3.48,2.36,2.36,0,0,1,2.49,1.91Z"/><path class="cls-8" d="M601.81,241a.62.62,0,0,0,0,.13,1.33,1.33,0,0,0,1.38,1.4,1.62,1.62,0,0,0,1.49-.85l1.06.59a2.81,2.81,0,0,1-2.59,1.45,2.56,2.56,0,0,1-2.67-2.67,3.3,3.3,0,0,1,3.16-3.53,2.3,2.3,0,0,1,2.51,2.41A3.58,3.58,0,0,1,606,241Zm3-1s0-.12,0-.18a1.08,1.08,0,0,0-1.19-1.12,1.68,1.68,0,0,0-1.63,1.3Z"/><path class="cls-8" d="M532.44,211a2,2,0,0,1,2.23,2,2.31,2.31,0,0,1-1.67,2.21,1.77,1.77,0,0,1,1.19,1.71,2.68,2.68,0,0,1-2.93,2.6h-3.33l1.8-8.5Zm-1.38,7.28a1.51,1.51,0,0,0,1.68-1.44c0-.6-.37-1-1.24-1h-1.36l-.53,2.47Zm.55-3.69a1.43,1.43,0,0,0,1.61-1.39c0-.6-.4-1-1.19-1h-1.14l-.5,2.37Z"/><path class="cls-8" d="M537.54,213.66l-.72,3.36a2,2,0,0,0-.06.47.85.85,0,0,0,1,.94c.74,0,1.2-.63,1.36-1.36l.71-3.41h1.37l-.93,4.51a5.4,5.4,0,0,0-.14,1.07,1.43,1.43,0,0,0,0,.26h-1.35a2.61,2.61,0,0,1,0-.35c0-.08,0-.18,0-.29a1.8,1.8,0,0,1-1.5.77,1.77,1.77,0,0,1-1.9-1.91,3,3,0,0,1,.07-.64l.73-3.42Z"/><path class="cls-8" d="M542.76,217.46a1,1,0,0,0,1.07,1.13c.56,0,.83-.34.83-.67a.72.72,0,0,0-.49-.63l-.75-.32a1.67,1.67,0,0,1-1.15-1.57,2,2,0,0,1,2.18-1.92,1.89,1.89,0,0,1,2.14,1.74l-1.21.25a.92.92,0,0,0-1-.91.7.7,0,0,0-.79.66.58.58,0,0,0,.41.57l.76.34A1.8,1.8,0,0,1,546,217.8a2,2,0,0,1-2.2,1.88,2,2,0,0,1-2.26-2Z"/><path class="cls-8" d="M547,219.5l1.25-5.84h1.38l-1.25,5.84Zm2.45-8.82a.79.79,0,0,1,.82.8,1,1,0,0,1-1,1,.79.79,0,0,1-.82-.8A1,1,0,0,1,549.48,210.68Z"/><path class="cls-8" d="M554,219.5l.74-3.45a1.89,1.89,0,0,0,0-.38.88.88,0,0,0-1-.94,1.55,1.55,0,0,0-1.41,1.38l-.73,3.39h-1.38l1-4.83a5.39,5.39,0,0,0,.13-1h1.35a3.53,3.53,0,0,1-.06.61,2.09,2.09,0,0,1,1.72-.78,1.68,1.68,0,0,1,1.77,1.81,3.69,3.69,0,0,1-.07.65l-.77,3.55Z"/><path class="cls-8" d="M558.49,217a.62.62,0,0,0,0,.13,1.33,1.33,0,0,0,1.38,1.4,1.62,1.62,0,0,0,1.49-.85l1.06.59a2.81,2.81,0,0,1-2.59,1.45,2.56,2.56,0,0,1-2.67-2.67,3.3,3.3,0,0,1,3.17-3.53,2.29,2.29,0,0,1,2.5,2.41,3.58,3.58,0,0,1-.17,1.07Zm3-1s0-.12,0-.18a1.08,1.08,0,0,0-1.19-1.12,1.68,1.68,0,0,0-1.63,1.3Z"/><path class="cls-8" d="M564.5,217.46a1,1,0,0,0,1.07,1.13c.57,0,.83-.34.83-.67a.72.72,0,0,0-.49-.63l-.75-.32A1.67,1.67,0,0,1,564,215.4a2,2,0,0,1,2.19-1.92,1.89,1.89,0,0,1,2.13,1.74l-1.21.25a.92.92,0,0,0-1-.91.7.7,0,0,0-.79.66.58.58,0,0,0,.41.57l.77.34a1.82,1.82,0,0,1,1.26,1.67,2.25,2.25,0,0,1-4.46-.11Z"/><path class="cls-8" d="M569.82,217.46a1,1,0,0,0,1.07,1.13c.56,0,.83-.34.83-.67a.71.71,0,0,0-.5-.63l-.74-.32a1.67,1.67,0,0,1-1.15-1.57,2,2,0,0,1,2.18-1.92,1.89,1.89,0,0,1,2.14,1.74l-1.22.25a.91.91,0,0,0-1-.91.7.7,0,0,0-.79.66.57.57,0,0,0,.41.57l.76.34a1.82,1.82,0,0,1,1.26,1.67,2,2,0,0,1-2.2,1.88,2,2,0,0,1-2.26-2Z"/><path class="cls-8" d="M577.34,219.5l1.8-8.5h1.44l-1.51,7.13h3.79l-.29,1.37Z"/><path class="cls-8" d="M586.13,219.68a2.57,2.57,0,0,1-2.65-2.71,3.29,3.29,0,0,1,3.23-3.49,2.53,2.53,0,0,1,2.64,2.7A3.31,3.31,0,0,1,586.13,219.68Zm-1.26-2.76a1.35,1.35,0,0,0,1.33,1.51c.86,0,1.75-.75,1.75-2.2a1.32,1.32,0,0,0-1.33-1.5A2,2,0,0,0,584.87,216.92Z"/><path class="cls-8" d="M590.66,219.5a1.21,1.21,0,0,0,1.31,1.26c1,0,1.62-.66,1.87-1.78l.1-.43a1.77,1.77,0,0,1-1.45.64,2.29,2.29,0,0,1-2.38-2.44,3,3,0,0,1,3-3.21,2,2,0,0,1,1.76.84l.14-.72h1.38l-1.1,5.31c-.33,1.54-1.24,3-3.29,3a2.28,2.28,0,0,1-2.56-2.18Zm2.51-4.75a1.71,1.71,0,0,0-1.67,1.91,1.25,1.25,0,0,0,1.3,1.38c1,0,1.64-.77,1.64-2A1.21,1.21,0,0,0,593.17,214.75Z"/><path class="cls-8" d="M596.87,219.5l1.25-5.84h1.38l-1.25,5.84Zm2.45-8.82a.79.79,0,0,1,.81.8,1,1,0,0,1-1,1,.79.79,0,0,1-.82-.8A1,1,0,0,1,599.32,210.68Z"/><path class="cls-8" d="M604.62,215.78a1.27,1.27,0,0,0-1.32-1c-.88,0-1.78.73-1.78,2.19a1.37,1.37,0,0,0,1.43,1.5,1.6,1.6,0,0,0,1.46-1l1.16.47a2.94,2.94,0,0,1-2.69,1.75,2.6,2.6,0,0,1-2.74-2.72,3.3,3.3,0,0,1,3.25-3.48,2.36,2.36,0,0,1,2.49,1.91Z"/></g></g></svg>