<svg xmlns="http://www.w3.org/2000/svg" viewBox="0 0 837.82 352"><defs><style>.cls-1{fill:#7b868c;}.cls-2{fill:#40beb1;}.cls-3{fill:#fff;}.cls-4{fill:#f58137;}.cls-5{fill:#fddf22;}</style></defs><title>Asset 7</title><g id="Layer_2" data-name="Layer 2"><g id="outlines_-large" data-name="outlines -large"><path class="cls-1" d="M151.92,159.36h-1.48v4.06h-1.39v-9.93h3.74a2.88,2.88,0,0,1,3,3,2.77,2.77,0,0,1-2.41,2.81l2.37,4.16h-1.6Zm.62-1.23a1.69,1.69,0,0,0,1.88-1.68,1.71,1.71,0,0,0-1.88-1.73h-2.1v3.41Z"/><path class="cls-1" d="M163.17,161.5a3.06,3.06,0,0,1-3,2.13,3.59,3.59,0,0,1-.17-7.16c2.08,0,3.24,1.43,3.24,3.53a3.52,3.52,0,0,1,0,.42h-5.07a2,2,0,0,0,2,2.05,1.83,1.83,0,0,0,1.89-1.36Zm-1.33-2.14a1.7,1.7,0,0,0-1.85-1.72,1.81,1.81,0,0,0-1.84,1.72Z"/><path class="cls-1" d="M169.61,162.4a2.27,2.27,0,0,1-2.09,1.2c-2,0-3.19-1.56-3.19-3.57a3.31,3.31,0,0,1,3.19-3.53,2.08,2.08,0,0,1,2.06,1.14v-4.36h1.3v8.9a11.6,11.6,0,0,0,.07,1.24h-1.27a5.33,5.33,0,0,1-.07-.91Zm-2,0c1.2,0,1.94-1.05,1.94-2.44s-.73-2.33-1.93-2.33a2.09,2.09,0,0,0-2,2.36C165.67,161.42,166.38,162.44,167.65,162.44Z"/><path class="cls-1" d="M173.76,153.18a.95.95,0,1,1-.94,1A.95.95,0,0,1,173.76,153.18Zm-.64,10.24v-6.74h1.3v6.74Z"/><path class="cls-1" d="M177.22,161.25a1.44,1.44,0,0,0,1.57,1.26c.74,0,1.15-.42,1.15-.89s-.31-.75-.87-.87l-1.15-.25a1.92,1.92,0,0,1-1.68-1.9,2.3,2.3,0,0,1,2.39-2.13,2.4,2.4,0,0,1,2.57,1.81l-1.16.44a1.32,1.32,0,0,0-1.41-1.12,1,1,0,0,0-1.12.89c0,.41.26.7.77.81l1.1.24a2,2,0,0,1,1.86,2,2.23,2.23,0,0,1-2.47,2.08,2.54,2.54,0,0,1-2.74-2Z"/><path class="cls-2" d="M197.31,178h-59a1,1,0,0,1-1-1V141a1,1,0,0,1,1-1h59a1,1,0,0,1,1,1v36A1,1,0,0,1,197.31,178Zm-58-2h57V142h-57Z"/><path class="cls-1" d="M149.15,228.18a2,2,0,0,0-2.1-1.69,1.75,1.75,0,0,0-1.92,1.65,1.43,1.43,0,0,0,1.27,1.44l1.49.32a2.87,2.87,0,0,1,2.58,2.79,3.13,3.13,0,0,1-3.43,2.94,3.46,3.46,0,0,1-3.72-2.95l1.32-.42a2.26,2.26,0,0,0,2.38,2.13c1.37,0,2-.72,2-1.59a1.62,1.62,0,0,0-1.49-1.54l-1.41-.31a2.74,2.74,0,0,1-2.43-2.71,3.17,3.17,0,0,1,3.28-3,3.13,3.13,0,0,1,3.36,2.47Z"/><path class="cls-1" d="M152.79,225.18a.95.95,0,1,1-.94,1A.95.95,0,0,1,152.79,225.18Zm-.65,10.24v-6.74h1.31v6.74Z"/><path class="cls-1" d="M160.41,234.4a2.27,2.27,0,0,1-2.09,1.2c-2,0-3.2-1.56-3.2-3.57a3.32,3.32,0,0,1,3.2-3.53,2.08,2.08,0,0,1,2.06,1.14v-4.36h1.3v8.9a11.6,11.6,0,0,0,.07,1.24h-1.27a5.33,5.33,0,0,1-.07-.91Zm-2,0c1.21,0,1.95-1.05,1.95-2.44s-.73-2.33-1.93-2.33a2.09,2.09,0,0,0-2,2.36C156.47,233.42,157.18,234.44,158.44,234.44Z"/><path class="cls-1" d="M169.79,233.5a3.06,3.06,0,0,1-3,2.13,3.59,3.59,0,0,1-.17-7.16c2.08,0,3.24,1.43,3.24,3.53a3.52,3.52,0,0,1,0,.42h-5.07a2,2,0,0,0,2,2.05,1.83,1.83,0,0,0,1.89-1.36Zm-1.33-2.14a1.7,1.7,0,0,0-1.85-1.72,1.81,1.81,0,0,0-1.84,1.72Z"/><path class="cls-1" d="M174.67,231.53l2.93,3.89H176l-2.2-3-.94.94v2h-1.3V225.28h1.3v6.39l2.91-3h1.82Z"/><path class="cls-1" d="M179.5,225.18a.95.95,0,1,1-.94,1A.95.95,0,0,1,179.5,225.18Zm-.64,10.24v-6.74h1.3v6.74Z"/><path class="cls-1" d="M187.13,238.08v-3.61a2.23,2.23,0,0,1-2.1,1.13,3.3,3.3,0,0,1-3.19-3.57,3.23,3.23,0,0,1,3.16-3.51,2.27,2.27,0,0,1,2.16,1.2v-1h1.27v9.4Zm-2-3.64a2.14,2.14,0,0,0,2-2.41,2.09,2.09,0,0,0-2-2.35c-1.22,0-2,1-2,2.35S184,234.44,185.16,234.44Z"/><path class="cls-2" d="M204.31,250h-73a1,1,0,0,1-1-1V213a1,1,0,0,1,1-1h73a1,1,0,0,1,1,1v36A1,1,0,0,1,204.31,250Zm-72-2h71V214h-71Z"/><path class="cls-1" d="M359.79,96.42l-5.37-8.09v8.09h-1.37V86.49h1.84l5,7.62V86.49h1.37v9.93Z"/><path class="cls-1" d="M364.38,96.49a1.79,1.79,0,0,0,1.83,1.66c1.42,0,2.06-.73,2.06-2.19V95a2.24,2.24,0,0,1-2.06,1.11,3.28,3.28,0,0,1,0-6.54,2.14,2.14,0,0,1,2.08,1.06v-.93h1.3v6.23a3.08,3.08,0,0,1-3.38,3.37,3,3,0,0,1-3.11-2.5Zm3.95-3.65A1.95,1.95,0,1,0,366.41,95,1.94,1.94,0,0,0,368.33,92.84Z"/><path class="cls-1" d="M372.33,86.18a.95.95,0,1,1-.94,1A.95.95,0,0,1,372.33,86.18Zm-.64,10.24V89.69H373v6.73Z"/><path class="cls-1" d="M376.54,96.42h-1.31V89.69h1.29v1a2.29,2.29,0,0,1,2.07-1.16A2.36,2.36,0,0,1,381,92.15v4.27h-1.32v-4c0-.93-.39-1.69-1.57-1.69s-1.57.83-1.57,1.85Z"/><path class="cls-1" d="M384.62,93l-2.42-3.3h1.6l1.65,2.36,1.62-2.36h1.56l-2.4,3.3c.41.55,2.08,2.89,2.48,3.43h-1.58l-1.74-2.48-1.71,2.48h-1.57Z"/><path class="cls-2" d="M400.31,111h-59a1,1,0,0,1-1-1V76a1,1,0,0,1,1-1h59a1,1,0,0,1,1,1v34A1,1,0,0,1,400.31,111Zm-58-2h57V77h-57Z"/><path class="cls-2" d="M546.82,54h-12a1.5,1.5,0,0,0,0,3h12a1.5,1.5,0,0,0,0-3Zm-24,0h-12a1.5,1.5,0,1,0,0,3h12a1.5,1.5,0,0,0,0-3Zm-24,0h-12a1.5,1.5,0,1,0,0,3h12a1.5,1.5,0,0,0,0-3Zm-24,0h-12a1.5,1.5,0,1,0,0,3h12a1.5,1.5,0,0,0,0-3Zm-24,0h-12a1.5,1.5,0,0,0,0,3h12a1.5,1.5,0,0,0,0-3Zm-24,0h-12a1.5,1.5,0,0,0,0,3h12a1.5,1.5,0,0,0,0-3Zm-24,0h-12a1.5,1.5,0,0,0,0,3h12a1.5,1.5,0,0,0,0-3Zm-24,0h-12a1.5,1.5,0,0,0,0,3h12a1.5,1.5,0,0,0,0-3Zm-24,0h-12a1.5,1.5,0,0,0,0,3h12a1.5,1.5,0,0,0,0-3Zm-24,0h-12a1.5,1.5,0,0,0,0,3h12a1.5,1.5,0,0,0,0-3Zm-24,0h-12a1.5,1.5,0,0,0,0,3h12a1.5,1.5,0,0,0,0-3Zm-24,0h-12a1.5,1.5,0,0,0,0,3h12a1.5,1.5,0,0,0,0-3Zm-24,0h-12a1.5,1.5,0,0,0,0,3h12a1.5,1.5,0,0,0,0-3Zm-24,0h-12a1.5,1.5,0,0,0,0,3h12a1.5,1.5,0,0,0,0-3Zm-24,0h-12a1.5,1.5,0,0,0,0,3h12a1.5,1.5,0,0,0,0-3Zm-24,0h-12a1.5,1.5,0,0,0,0,3h12a1.5,1.5,0,0,0,0-3Zm-24,0h-12a1.5,1.5,0,0,0,0,3h12a1.5,1.5,0,0,0,0-3Zm-24,0h-12a1.5,1.5,0,0,0,0,3h12a1.5,1.5,0,0,0,0-3Zm-24,0H103.45a4.35,4.35,0,0,0-.63.1,1.5,1.5,0,0,0,.33,3,1.66,1.66,0,0,0,.32,0,1.24,1.24,0,0,1,.33,0h11a1.5,1.5,0,0,0,0-3Zm-14,8.92a1.5,1.5,0,0,0-1.5,1.5v12a1.5,1.5,0,1,0,3,0v-12a1.5,1.5,0,0,0-1.5-1.5Zm0,24a1.5,1.5,0,0,0-1.5,1.5v12a1.5,1.5,0,1,0,3,0v-12a1.5,1.5,0,0,0-1.5-1.5Zm0,24a1.5,1.5,0,0,0-1.5,1.5v12a1.5,1.5,0,1,0,3,0v-12a1.5,1.5,0,0,0-1.5-1.5Zm0,24a1.5,1.5,0,0,0-1.5,1.5v12a1.5,1.5,0,0,0,3,0v-12a1.5,1.5,0,0,0-1.5-1.5Zm0,24a1.5,1.5,0,0,0-1.5,1.5v12a1.5,1.5,0,1,0,3,0v-12a1.5,1.5,0,0,0-1.5-1.5Zm0,24a1.5,1.5,0,0,0-1.5,1.5v12a1.5,1.5,0,1,0,3,0v-12a1.5,1.5,0,0,0-1.5-1.5Zm0,24a1.5,1.5,0,0,0-1.5,1.5v12a1.5,1.5,0,1,0,3,0v-12a1.5,1.5,0,0,0-1.5-1.5Zm0,24a1.5,1.5,0,0,0-1.5,1.5v12a1.5,1.5,0,1,0,3,0v-12a1.5,1.5,0,0,0-1.5-1.5Zm0,24a1.5,1.5,0,0,0-1.5,1.5v12a1.5,1.5,0,0,0,3,0v-12a1.5,1.5,0,0,0-1.5-1.5Zm0,24a1.5,1.5,0,0,0-1.5,1.5v12a1.5,1.5,0,0,0,3,0v-12a1.5,1.5,0,0,0-1.5-1.5Zm0,24a1.5,1.5,0,0,0-1.5,1.5v12a1.5,1.5,0,0,0,3,0v-12a1.5,1.5,0,0,0-1.5-1.5Zm0,24a1.5,1.5,0,0,0-1.5,1.5v6.09h0v0h0v0h0v0h0v0h0v0h0v0h0v0h0v0h0v0h0v0h0v0h0v0h0a4.49,4.49,0,0,0,3.27,3.47,1.61,1.61,0,0,0,.37,0,1.48,1.48,0,0,0,1.45-1.12,1.5,1.5,0,0,0-1.07-1.83,1.49,1.49,0,0,1-1.11-1.44v-6.09a1.5,1.5,0,0,0-1.5-1.5ZM126.65,336h-12a1.5,1.5,0,1,0,0,3h12a1.5,1.5,0,0,0,0-3Zm24,0h-12a1.5,1.5,0,1,0,0,3h12a1.5,1.5,0,0,0,0-3Zm24,0h-12a1.5,1.5,0,1,0,0,3h12a1.5,1.5,0,0,0,0-3Zm24,0h-12a1.5,1.5,0,1,0,0,3h12a1.5,1.5,0,0,0,0-3Zm24,0h-12a1.5,1.5,0,1,0,0,3h12a1.5,1.5,0,0,0,0-3Zm24,0h-12a1.5,1.5,0,1,0,0,3h12a1.5,1.5,0,0,0,0-3Zm24,0h-12a1.5,1.5,0,0,0,0,3h12a1.5,1.5,0,0,0,0-3Zm24,0h-12a1.5,1.5,0,0,0,0,3h12a1.5,1.5,0,0,0,0-3Zm24,0h-12a1.5,1.5,0,0,0,0,3h12a1.5,1.5,0,0,0,0-3Zm24,0h-12a1.5,1.5,0,0,0,0,3h12a1.5,1.5,0,0,0,0-3Zm24,0h-12a1.5,1.5,0,0,0,0,3h12a1.5,1.5,0,0,0,0-3Zm24,0h-12a1.5,1.5,0,0,0,0,3h12a1.5,1.5,0,0,0,0-3Zm24,0h-12a1.5,1.5,0,0,0,0,3h12a1.5,1.5,0,0,0,0-3Zm24,0h-12a1.5,1.5,0,0,0,0,3h12a1.5,1.5,0,0,0,0-3Zm24,0h-12a1.5,1.5,0,0,0,0,3h12a1.5,1.5,0,0,0,0-3Zm24,0h-12a1.5,1.5,0,0,0,0,3h12a1.5,1.5,0,0,0,0-3Zm24,0h-12a1.5,1.5,0,0,0,0,3h12a1.5,1.5,0,0,0,0-3Zm24,0h-12a1.5,1.5,0,0,0,0,3h12a1.5,1.5,0,0,0,0-3Zm24,0h-12a1.5,1.5,0,0,0,0,3h12a1.5,1.5,0,0,0,0-3Zm15.16-7.77a1.5,1.5,0,0,0-1.5,1.5v4.78a1.49,1.49,0,0,1-1.49,1.49h-.17a1.5,1.5,0,0,0,0,3h.17a4.49,4.49,0,0,0,4.49-4.49v-4.78a1.5,1.5,0,0,0-1.5-1.5Zm0-24a1.5,1.5,0,0,0-1.5,1.5v12a1.5,1.5,0,0,0,3,0v-12a1.5,1.5,0,0,0-1.5-1.5Zm0-24a1.5,1.5,0,0,0-1.5,1.5v12a1.5,1.5,0,0,0,3,0v-12a1.5,1.5,0,0,0-1.5-1.5Zm0-24a1.5,1.5,0,0,0-1.5,1.5v12a1.5,1.5,0,0,0,3,0v-12a1.5,1.5,0,0,0-1.5-1.5Zm0-24a1.5,1.5,0,0,0-1.5,1.5v12a1.5,1.5,0,1,0,3,0v-12a1.5,1.5,0,0,0-1.5-1.5Zm0-24a1.5,1.5,0,0,0-1.5,1.5v12a1.5,1.5,0,1,0,3,0v-12a1.5,1.5,0,0,0-1.5-1.5Zm0-24a1.5,1.5,0,0,0-1.5,1.5v12a1.5,1.5,0,1,0,3,0v-12a1.5,1.5,0,0,0-1.5-1.5Zm0-24a1.5,1.5,0,0,0-1.5,1.5v12a1.5,1.5,0,1,0,3,0v-12a1.5,1.5,0,0,0-1.5-1.5Zm0-24a1.5,1.5,0,0,0-1.5,1.5v12a1.5,1.5,0,1,0,3,0v-12a1.5,1.5,0,0,0-1.5-1.5Zm0-24a1.5,1.5,0,0,0-1.5,1.5v12a1.5,1.5,0,1,0,3,0v-12a1.5,1.5,0,0,0-1.5-1.5Zm0-24a1.5,1.5,0,0,0-1.5,1.5v12a1.5,1.5,0,1,0,3,0v-12a1.5,1.5,0,0,0-1.5-1.5Zm0-24a1.5,1.5,0,0,0-1.5,1.5v12a1.5,1.5,0,1,0,3,0v-12a1.5,1.5,0,0,0-1.5-1.5Zm-3-10.23h-12a1.5,1.5,0,0,0,0,3h12a1.45,1.45,0,0,1,.73.19,1.47,1.47,0,0,0,.73.19,1.5,1.5,0,0,0,.74-2.81l-.08,0h-.14a4.64,4.64,0,0,0-1.37-.42h-.61Z"/><rect class="cls-3" x="141.31" y="45" width="73" height="17"/><path class="cls-2" d="M158.79,49.33a2.37,2.37,0,0,0-2.51-2,2,2,0,0,0-2.19,1.84,1.65,1.65,0,0,0,1.49,1.64l1.84.38c2.25.45,3.45,1.87,3.45,3.67,0,2-1.6,3.87-4.51,3.87-3.25,0-4.74-2.09-4.94-3.93l2-.57a2.74,2.74,0,0,0,2.92,2.56c1.53,0,2.32-.78,2.32-1.77,0-.83-.61-1.49-1.71-1.73l-1.8-.38a3.61,3.61,0,0,1-3.24-3.58,4.17,4.17,0,0,1,4.34-3.91c3,0,4.17,1.84,4.46,3.26Z"/><path class="cls-2" d="M171.84,56a4,4,0,0,1-4,2.77,4.67,4.67,0,0,1-.22-9.31c2.7,0,4.28,1.78,4.28,4.56a3,3,0,0,1-.05.66h-6.41a2.35,2.35,0,0,0,2.4,2.29,2.11,2.11,0,0,0,2.19-1.53Zm-2-2.85a2,2,0,0,0-2.16-1.94,2.11,2.11,0,0,0-2.15,1.94Z"/><path class="cls-2" d="M180.33,51.8a5.45,5.45,0,0,0-.68,0c-1.62,0-2.36.93-2.36,2.57V58.5H175.2V49.73h2v1.41a2.85,2.85,0,0,1,3.1-1.46Z"/><path class="cls-2" d="M188.09,58.5H186l-3.56-8.77h2.3L187.06,56l2.27-6.27h2.2Z"/><path class="cls-2" d="M201.81,56a4,4,0,0,1-4,2.77,4.67,4.67,0,0,1-.21-9.31c2.7,0,4.28,1.78,4.28,4.56a3,3,0,0,1,0,.66h-6.41A2.34,2.34,0,0,0,197.84,57a2.12,2.12,0,0,0,2.2-1.53Zm-2-2.85a2,2,0,0,0-2.16-1.94,2.11,2.11,0,0,0-2.15,1.94Z"/><path class="cls-2" d="M210.3,51.8a5.45,5.45,0,0,0-.68,0c-1.62,0-2.36.93-2.36,2.57V58.5h-2.09V49.73h2v1.41a2.66,2.66,0,0,1,2.54-1.52,2.75,2.75,0,0,1,.56.06Z"/><path class="cls-4" d="M297.35,10.77V21.5h-2.16V10.77H291v-2H301.5v2Z"/><path class="cls-4" d="M306.47,21.5h-2.09v-13h2.09v5.12a3.1,3.1,0,0,1,2.5-1.1c2.16,0,3.21,1.55,3.21,3.47V21.5h-2.09V16.31c0-1.08-.49-1.94-1.8-1.94a1.83,1.83,0,0,0-1.82,2Z"/><path class="cls-4" d="M323.73,19a3.94,3.94,0,0,1-4,2.77,4.43,4.43,0,0,1-4.48-4.7,4.4,4.4,0,0,1,4.27-4.61c2.7,0,4.28,1.78,4.28,4.56a3,3,0,0,1,0,.66h-6.41A2.34,2.34,0,0,0,319.77,20a2.13,2.13,0,0,0,2.2-1.53Zm-2-2.85a2,2,0,0,0-2.17-1.94,2.11,2.11,0,0,0-2.14,1.94Z"/><path class="cls-4" d="M332.23,15.13a6.4,6.4,0,0,1,6.42-6.67,5.56,5.56,0,0,1,5.75,4.15l-2,.68a3.53,3.53,0,0,0-3.71-2.79c-2.1,0-4.21,1.53-4.21,4.63a4.22,4.22,0,0,0,4.23,4.57,3.8,3.8,0,0,0,3.8-2.81l2,.65a5.72,5.72,0,0,1-5.78,4.23A6.31,6.31,0,0,1,332.23,15.13Z"/><path class="cls-4" d="M347.55,21.5v-13h2.08v13Z"/><path class="cls-4" d="M362,17.11a4.55,4.55,0,1,1-9.09,0,4.55,4.55,0,1,1,9.09,0Zm-2.1,0a2.47,2.47,0,1,0-4.9,0,2.47,2.47,0,1,0,4.9,0Z"/><path class="cls-4" d="M368.44,21.75a3.24,3.24,0,0,1-3.31-3.49V12.73h2.09v5.15c0,1.08.5,2,1.76,2a1.76,1.76,0,0,0,1.84-2V12.73h2.09V19.9a13.26,13.26,0,0,0,.09,1.6h-2a6.05,6.05,0,0,1-.07-1A2.81,2.81,0,0,1,368.44,21.75Z"/><path class="cls-4" d="M384.92,19.9a13.78,13.78,0,0,0,.09,1.6h-2a8.07,8.07,0,0,1-.09-1.13,2.92,2.92,0,0,1-2.58,1.35c-2.52,0-4.21-2-4.21-4.63a4.31,4.31,0,0,1,4.18-4.59,2.66,2.66,0,0,1,2.57,1.26V8.46h2Zm-4.34,0c1.36,0,2.32-1.13,2.32-2.81s-.94-2.72-2.31-2.72a2.45,2.45,0,0,0-2.37,2.74C378.22,18.76,379.15,19.88,380.58,19.88Z"/><path class="cls-4" d="M703.5,26.51v5h-2.16V18.73h4.74a3.89,3.89,0,1,1,0,7.78Zm2.25-1.91a1.93,1.93,0,0,0,2.2-2,2,2,0,0,0-2.2-2H703.5v4Z"/><path class="cls-4" d="M716.12,31.75a3.24,3.24,0,0,1-3.31-3.49V22.73h2.08v5.15c0,1.08.51,2,1.77,2a1.76,1.76,0,0,0,1.84-2V22.73h2.08V29.9a15.78,15.78,0,0,0,.09,1.6h-2a5.88,5.88,0,0,1-.08-1A2.79,2.79,0,0,1,716.12,31.75Z"/><path class="cls-4" d="M724.54,31.5v-13h2.05v5.35a3.18,3.18,0,0,1,2.76-1.31c2.63,0,4,2,4,4.57s-1.57,4.65-4.12,4.65a3,3,0,0,1-2.7-1.39V31.5Zm4.39-7.15c-1.33,0-2.35,1-2.35,2.74s1,2.77,2.35,2.77,2.36-1,2.36-2.77S730.32,24.35,728.93,24.35Z"/><path class="cls-4" d="M736.67,31.5v-13h2.09v13Z"/><path class="cls-4" d="M743.75,18.28a1.38,1.38,0,0,1,1.37,1.37,1.36,1.36,0,1,1-1.37-1.37Zm-1,13.22V22.73h2.07V31.5Z"/><path class="cls-4" d="M750.16,27.11a2.49,2.49,0,0,0,2.44,2.75,2.21,2.21,0,0,0,2.2-1.62l1.84.67a4.07,4.07,0,0,1-4,2.86,4.5,4.5,0,0,1-4.53-4.66,4.46,4.46,0,0,1,4.48-4.65,3.93,3.93,0,0,1,4,2.88l-1.88.69a2,2,0,0,0-2.12-1.64A2.45,2.45,0,0,0,750.16,27.11Z"/><path class="cls-4" d="M765.65,31.5V18.73h2.2V31.5Z"/><path class="cls-4" d="M774.08,31.5H772V22.73h2V23.9a2.91,2.91,0,0,1,2.6-1.42c2.14,0,3.17,1.55,3.17,3.47V31.5H777.7V26.31c0-1.08-.49-1.94-1.8-1.94a1.84,1.84,0,0,0-1.82,2.07Z"/><path class="cls-4" d="M786.23,22.73h1.82v1.86h-1.82v4.07c0,.77.34,1.09,1.11,1.09a4.27,4.27,0,0,0,.72-.07v1.73a3.29,3.29,0,0,1-1.27.2A2.42,2.42,0,0,1,784.16,29V24.59h-1.62V22.73H783a1.25,1.25,0,0,0,1.35-1.37V20.05h1.89Z"/><path class="cls-4" d="M799.12,29a4,4,0,0,1-4,2.77,4.43,4.43,0,0,1-4.49-4.7,4.4,4.4,0,0,1,4.27-4.61c2.7,0,4.29,1.78,4.29,4.56a2.69,2.69,0,0,1-.06.66h-6.41a2.35,2.35,0,0,0,2.4,2.29,2.11,2.11,0,0,0,2.19-1.53Zm-2-2.85A2,2,0,0,0,795,24.21a2.1,2.1,0,0,0-2.14,1.94Z"/><path class="cls-4" d="M807.61,24.8a5.45,5.45,0,0,0-.68-.05c-1.62,0-2.36.93-2.36,2.57V31.5h-2.09V22.73h2v1.41a2.85,2.85,0,0,1,3.1-1.46Z"/><path class="cls-4" d="M812.71,31.5h-2.09V22.73h2V23.9a2.91,2.91,0,0,1,2.59-1.42c2.15,0,3.17,1.55,3.17,3.47V31.5h-2.09V26.31c0-1.08-.48-1.94-1.8-1.94a1.83,1.83,0,0,0-1.81,2.07Z"/><path class="cls-4" d="M830,29a4,4,0,0,1-4,2.77,4.43,4.43,0,0,1-4.49-4.7,4.4,4.4,0,0,1,4.27-4.61c2.7,0,4.29,1.78,4.29,4.56a2.69,2.69,0,0,1-.06.66h-6.41A2.35,2.35,0,0,0,826,30a2.11,2.11,0,0,0,2.19-1.53Zm-2-2.85a2,2,0,0,0-2.16-1.94,2.11,2.11,0,0,0-2.14,1.94Z"/><path class="cls-4" d="M836,22.73h1.82v1.86H836v4.07c0,.77.34,1.09,1.11,1.09a4.42,4.42,0,0,0,.73-.07v1.73a3.42,3.42,0,0,1-1.28.2A2.42,2.42,0,0,1,833.91,29V24.59h-1.62V22.73h.45a1.25,1.25,0,0,0,1.35-1.37V20.05H836Z"/><path class="cls-2" d="M708.42,80.57c1.9,0,3,1.12,3,2.67A2.21,2.21,0,0,1,710,85.39a2.38,2.38,0,0,1,1.78,2.36,2.79,2.79,0,0,1-3.08,2.75H705V80.57Zm-.23,4.2a1.39,1.39,0,0,0,1.57-1.39c0-.84-.59-1.38-1.61-1.38h-1.48v2.77Zm.19,4.3c1,0,1.66-.54,1.66-1.43a1.42,1.42,0,0,0-1.61-1.45h-1.76v2.88Z"/><path class="cls-2" d="M718.29,85.29a3.32,3.32,0,0,0-.53,0c-1.26,0-1.84.73-1.84,2V90.5H714.3V83.68h1.58v1.09a2.07,2.07,0,0,1,2-1.18,1.81,1.81,0,0,1,.44,0Z"/><path class="cls-2" d="M727.1,87.08a3.54,3.54,0,1,1-3.55-3.61A3.48,3.48,0,0,1,727.1,87.08Zm-1.64,0a1.92,1.92,0,1,0-3.81,0,1.92,1.92,0,1,0,3.81,0Z"/><path class="cls-2" d="M735,83.68l1.61,4.72L738,83.68h1.65l-2.18,6.82h-1.63l-1.69-4.9-1.66,4.9h-1.66l-2.22-6.82h1.74l1.39,4.72,1.61-4.72Z"/><path class="cls-2" d="M742.66,88.26a1.28,1.28,0,0,0,1.39,1.16c.67,0,1-.36,1-.78s-.25-.65-.8-.76l-1-.22a2.06,2.06,0,0,1-1.83-2,2.36,2.36,0,0,1,2.5-2.2,2.41,2.41,0,0,1,2.64,1.9l-1.37.4a1.18,1.18,0,0,0-1.27-1,.89.89,0,0,0-1,.79.75.75,0,0,0,.69.71l1,.21a2.15,2.15,0,0,1,2,2.08,2.32,2.32,0,0,1-2.58,2.18,2.56,2.56,0,0,1-2.81-2.06Z"/><path class="cls-2" d="M755.22,88.55a3.07,3.07,0,0,1-3.08,2.16,3.63,3.63,0,0,1-.17-7.24c2.1,0,3.34,1.38,3.34,3.54a1.89,1.89,0,0,1,0,.52h-5a1.82,1.82,0,0,0,1.86,1.78,1.65,1.65,0,0,0,1.71-1.19Zm-1.55-2.21A1.53,1.53,0,0,0,752,84.83a1.63,1.63,0,0,0-1.67,1.51Z"/><path class="cls-2" d="M761.83,85.29a3.32,3.32,0,0,0-.53,0c-1.26,0-1.84.73-1.84,2V90.5h-1.62V83.68h1.58v1.09a2.07,2.07,0,0,1,2-1.18,1.81,1.81,0,0,1,.44,0Z"/><path class="cls-2" d="M714.26,129.5v-7.31l-3.1,7.31h-1.45l-3.07-7.28v7.28H705v-9.93h2.24l3.22,7.58,3.18-7.58h2.29v9.93Z"/><path class="cls-2" d="M725.65,126.08a3.54,3.54,0,1,1-3.54-3.61A3.47,3.47,0,0,1,725.65,126.08Zm-1.64,0a1.92,1.92,0,1,0-3.81,0,2,2,0,0,0,1.91,2.17A1.94,1.94,0,0,0,724,126.08Z"/><path class="cls-2" d="M728.2,129.5V119.36h1.59v4.16a2.48,2.48,0,0,1,2.15-1c2,0,3.15,1.55,3.15,3.55s-1.22,3.62-3.21,3.62a2.34,2.34,0,0,1-2.1-1.08v.91Zm3.42-5.56a1.88,1.88,0,0,0-1.84,2.13,1.92,1.92,0,0,0,1.84,2.16c1.06,0,1.83-.82,1.83-2.16S732.69,123.94,731.62,123.94Z"/><path class="cls-2" d="M738.43,119.22a1.06,1.06,0,1,1,0,2.11,1.06,1.06,0,0,1,0-2.11Zm-.8,10.28v-6.82h1.62v6.82Z"/><path class="cls-2" d="M742.32,129.5V119.36H744V129.5Z"/><path class="cls-2" d="M753.07,127.55a3.09,3.09,0,0,1-3.09,2.16,3.63,3.63,0,0,1-.16-7.24c2.1,0,3.33,1.38,3.33,3.54a2.83,2.83,0,0,1,0,.52h-5a1.82,1.82,0,0,0,1.86,1.78,1.65,1.65,0,0,0,1.71-1.19Zm-1.56-2.21a1.53,1.53,0,0,0-1.68-1.51,1.64,1.64,0,0,0-1.67,1.51Z"/><path class="cls-2" d="M766.13,127h-4.21L761,129.5h-1.78l3.87-9.93H765l3.87,9.93h-1.83Zm-3.62-1.56h3L764,121.39Z"/><path class="cls-2" d="M771,132.16v-9.48h1.57v.92a2.45,2.45,0,0,1,2.17-1.08c2,0,3.16,1.55,3.16,3.56s-1.25,3.59-3.21,3.59a2.49,2.49,0,0,1-2.08-.94v3.43Zm3.44-8.19a1.89,1.89,0,0,0-1.84,2.11,1.86,1.86,0,1,0,3.67,0A1.88,1.88,0,0,0,774.46,124Z"/><path class="cls-2" d="M780.46,132.16v-9.48H782v.92a2.44,2.44,0,0,1,2.17-1.08c2,0,3.15,1.55,3.15,3.56s-1.25,3.59-3.21,3.59a2.46,2.46,0,0,1-2.07-.94v3.43Zm3.43-8.19a1.89,1.89,0,0,0-1.83,2.11,1.86,1.86,0,1,0,3.67,0A1.88,1.88,0,0,0,783.89,124Z"/><path class="cls-2" d="M790.71,127.26a1.27,1.27,0,0,0,1.38,1.16c.68,0,1-.36,1-.78s-.26-.65-.8-.76l-1-.22a2.06,2.06,0,0,1-1.83-2,2.36,2.36,0,0,1,2.5-2.2,2.42,2.42,0,0,1,2.64,1.9l-1.38.4a1.17,1.17,0,0,0-1.26-1,.89.89,0,0,0-1,.79.75.75,0,0,0,.69.71l1,.21a2.16,2.16,0,0,1,2,2.08,2.33,2.33,0,0,1-2.58,2.18,2.57,2.57,0,0,1-2.82-2.06Z"/><path class="cls-2" d="M705,199.5v-9.93h6.14v1.57h-4.46v2.63h4v1.53h-4v2.63h4.46v1.57Z"/><path class="cls-2" d="M715.57,196.05l-2.44-3.37h1.94c.12.21,1.37,2,1.5,2.18l1.48-2.18h1.85L717.5,196,720,199.5h-1.9l-1.58-2.28c-.14.21-1.42,2.07-1.55,2.28h-1.86Z"/><path class="cls-2" d="M724.31,192.68h1.41v1.44h-1.41v3.17c0,.6.26.85.86.85a2.87,2.87,0,0,0,.57-.06v1.35a2.68,2.68,0,0,1-1,.15,1.87,1.87,0,0,1-2-2v-3.43h-1.27v-1.44h.36a1,1,0,0,0,1-1.07v-1h1.48Z"/><path class="cls-2" d="M734.33,197.55a3.07,3.07,0,0,1-3.08,2.16,3.63,3.63,0,0,1-.17-7.24c2.1,0,3.34,1.38,3.34,3.54a2.83,2.83,0,0,1,0,.52h-5a1.82,1.82,0,0,0,1.86,1.78,1.65,1.65,0,0,0,1.71-1.19Zm-1.55-2.21a1.53,1.53,0,0,0-1.68-1.51,1.64,1.64,0,0,0-1.67,1.51Z"/><path class="cls-2" d="M740.94,194.29a3.23,3.23,0,0,0-.53,0c-1.26,0-1.84.73-1.84,2v3.25H737v-6.82h1.58v1.09a2.07,2.07,0,0,1,2-1.18,1.81,1.81,0,0,1,.44,0Z"/><path class="cls-2" d="M744.9,199.5h-1.62v-6.82h1.58v.91a2.26,2.26,0,0,1,2-1.11,2.42,2.42,0,0,1,2.46,2.71v4.31h-1.62v-4c0-.85-.38-1.52-1.4-1.52a1.44,1.44,0,0,0-1.42,1.61Z"/><path class="cls-2" d="M753.93,195.59l1.75-.26c.39-.06.51-.26.51-.49,0-.58-.4-1-1.29-1a1.31,1.31,0,0,0-1.4,1.23L752,194.7a2.67,2.67,0,0,1,2.87-2.23c2.1,0,2.9,1.19,2.9,2.55v3.39a5.37,5.37,0,0,0,.09,1.09h-1.52a4.06,4.06,0,0,1-.07-.87,2.37,2.37,0,0,1-2.1,1.08,2.14,2.14,0,0,1-2.31-2.06A2.1,2.1,0,0,1,753.93,195.59Zm2.26,1.08v-.31l-1.78.27c-.51.08-.91.36-.91.92a.9.9,0,0,0,1,.89A1.56,1.56,0,0,0,756.19,196.67Z"/><path class="cls-2" d="M760.72,199.5V189.36h1.62V199.5Z"/><path class="cls-2" d="M775,192.37a1.84,1.84,0,0,0-1.95-1.53,1.57,1.57,0,0,0-1.71,1.43,1.3,1.3,0,0,0,1.17,1.28l1.42.29a2.93,2.93,0,0,1,2.69,2.86c0,1.54-1.24,3-3.51,3a3.53,3.53,0,0,1-3.84-3.05l1.57-.45a2.13,2.13,0,0,0,2.27,2c1.19,0,1.81-.61,1.81-1.38s-.48-1.16-1.34-1.34l-1.4-.29a2.83,2.83,0,0,1-2.52-2.79,3.24,3.24,0,0,1,3.38-3,3.2,3.2,0,0,1,3.47,2.53Z"/><path class="cls-2" d="M779.25,202.26l1.64-3.57-2.91-6h1.84l2,4.31,1.83-4.31h1.72L781,202.26Z"/><path class="cls-2" d="M788.2,197.26a1.28,1.28,0,0,0,1.39,1.16c.67,0,1-.36,1-.78s-.25-.65-.8-.76l-1-.22a2.06,2.06,0,0,1-1.83-2,2.37,2.37,0,0,1,2.51-2.2,2.4,2.4,0,0,1,2.63,1.9l-1.37.4a1.17,1.17,0,0,0-1.26-1,.89.89,0,0,0-1,.79.74.74,0,0,0,.68.71l1,.21a2.15,2.15,0,0,1,2,2.08,2.32,2.32,0,0,1-2.58,2.18,2.56,2.56,0,0,1-2.81-2.06Z"/><path class="cls-2" d="M796.83,192.68h1.41v1.44h-1.41v3.17c0,.6.26.85.86.85a2.75,2.75,0,0,0,.56-.06v1.35a2.56,2.56,0,0,1-1,.15,1.87,1.87,0,0,1-2-2v-3.43H794v-1.44h.35a1,1,0,0,0,1.05-1.07v-1h1.48Z"/><path class="cls-2" d="M806.85,197.55a3.07,3.07,0,0,1-3.08,2.16,3.63,3.63,0,0,1-.17-7.24c2.1,0,3.34,1.38,3.34,3.54a1.89,1.89,0,0,1-.05.52h-5a1.82,1.82,0,0,0,1.86,1.78,1.65,1.65,0,0,0,1.71-1.19Zm-1.55-2.21a1.53,1.53,0,0,0-1.68-1.51,1.63,1.63,0,0,0-1.67,1.51Z"/><path class="cls-2" d="M809.47,199.5v-6.82H811v.87a2.34,2.34,0,0,1,2-1.07,2.14,2.14,0,0,1,2,1.21,2.41,2.41,0,0,1,2.22-1.21,2.35,2.35,0,0,1,2.41,2.59v4.43h-1.57v-4.16a1.25,1.25,0,0,0-1.32-1.4,1.41,1.41,0,0,0-1.41,1.51v4.05h-1.6v-4.16a1.25,1.25,0,0,0-1.32-1.4,1.39,1.39,0,0,0-1.41,1.51v4.05Z"/><path class="cls-2" d="M823.48,197.26a1.28,1.28,0,0,0,1.39,1.16c.67,0,1-.36,1-.78s-.25-.65-.8-.76l-1-.22a2.06,2.06,0,0,1-1.83-2,2.36,2.36,0,0,1,2.5-2.2,2.41,2.41,0,0,1,2.64,1.9l-1.37.4a1.18,1.18,0,0,0-1.27-1,.89.89,0,0,0-1,.79.75.75,0,0,0,.69.71l1,.21a2.15,2.15,0,0,1,2,2.08,2.32,2.32,0,0,1-2.58,2.18,2.56,2.56,0,0,1-2.81-2.06Z"/><path class="cls-2" d="M710.43,215.12a3.63,3.63,0,0,1-2.71,1.36,2.71,2.71,0,0,1-3-2.6,3.27,3.27,0,0,1,1.73-2.75l.09-.07-.16-.18a3.34,3.34,0,0,1-1.14-2.19,2.55,2.55,0,0,1,2.66-2.53,2.49,2.49,0,0,1,2.72,2.46,3,3,0,0,1-1.4,2.25l-.44.32,1.66,1.72,2.36-2.55v2.1l-1.35,1.5,2.24,2.34h-2.17Zm-1-1.05h0l-1.83-1.95-.34.25a1.66,1.66,0,0,0-.81,1.4,1.27,1.27,0,0,0,1.32,1.25A2.29,2.29,0,0,0,709.4,214.07Zm-1.86-4.23.28.31.57-.42a1.37,1.37,0,0,0,.67-1.13,1.07,1.07,0,0,0-1.1-1.07,1,1,0,0,0-1.08,1.07A1.93,1.93,0,0,0,707.54,209.84Z"/><path class="cls-2" d="M725.64,213.81h-4.2l-.93,2.49h-1.78l3.87-9.93h1.95l3.86,9.93h-1.83ZM722,212.25h3l-1.51-4.06Z"/><path class="cls-2" d="M732.4,212.42v3.88h-1.68v-9.93h3.68a3,3,0,1,1,0,6Zm1.75-1.49a1.5,1.5,0,0,0,1.71-1.52,1.52,1.52,0,0,0-1.71-1.56H732.4v3.08Z"/><path class="cls-2" d="M740.1,216.3v-9.93h1.71v9.93Z"/><path class="cls-2" d="M745.84,214.06a1.27,1.27,0,0,0,1.38,1.16c.68,0,1-.36,1-.78s-.25-.65-.8-.76l-1-.22a2.06,2.06,0,0,1-1.83-2,2.36,2.36,0,0,1,2.5-2.2,2.42,2.42,0,0,1,2.64,1.9l-1.38.4a1.17,1.17,0,0,0-1.26-1,.89.89,0,0,0-1,.79.75.75,0,0,0,.69.71l1,.21a2.16,2.16,0,0,1,2,2.08,2.32,2.32,0,0,1-2.58,2.18,2.57,2.57,0,0,1-2.82-2.06Z"/><path class="cls-2" d="M0,334.5v-9.93H3.52a5,5,0,0,1,0,9.93ZM3.45,333a3.06,3.06,0,0,0,3.15-3.4c0-2.33-1.42-3.45-3.14-3.45H1.68V333Z"/><path class="cls-2" d="M12.59,330.59l1.75-.26c.39-.06.5-.26.5-.49,0-.58-.39-1-1.29-1a1.32,1.32,0,0,0-1.4,1.23l-1.48-.33a2.67,2.67,0,0,1,2.87-2.23c2.1,0,2.9,1.19,2.9,2.55v3.39a7,7,0,0,0,.08,1.09H15a4.06,4.06,0,0,1-.07-.87,2.37,2.37,0,0,1-2.1,1.08,2.14,2.14,0,0,1-2.31-2.06A2.1,2.1,0,0,1,12.59,330.59Zm2.25,1.08v-.31l-1.78.27a.94.94,0,0,0-.91.92.9.9,0,0,0,1,.89A1.55,1.55,0,0,0,14.84,331.67Z"/><path class="cls-2" d="M21.41,327.68h1.41v1.44H21.41v3.17c0,.6.26.85.87.85a2.84,2.84,0,0,0,.56-.06v1.35a2.68,2.68,0,0,1-1,.15,1.87,1.87,0,0,1-2-2v-3.43H18.54v-1.44h.35a1,1,0,0,0,1.05-1.07v-1h1.47Z"/><path class="cls-2" d="M27.12,330.59l1.75-.26c.39-.06.5-.26.5-.49,0-.58-.39-1-1.29-1a1.32,1.32,0,0,0-1.4,1.23l-1.48-.33a2.67,2.67,0,0,1,2.87-2.23c2.1,0,2.9,1.19,2.9,2.55v3.39a7,7,0,0,0,.08,1.09H29.54a4.06,4.06,0,0,1-.07-.87,2.37,2.37,0,0,1-2.1,1.08,2.14,2.14,0,0,1-2.31-2.06A2.1,2.1,0,0,1,27.12,330.59Zm2.25,1.08v-.31l-1.78.27a.94.94,0,0,0-.91.92.9.9,0,0,0,1,.89A1.55,1.55,0,0,0,29.37,331.67Z"/><path class="cls-2" d="M33.91,334.5V324.36H35.5v4.16a2.48,2.48,0,0,1,2.15-1c2,0,3.15,1.55,3.15,3.55s-1.22,3.62-3.21,3.62a2.33,2.33,0,0,1-2.1-1.08v.91Zm3.42-5.56a1.88,1.88,0,0,0-1.84,2.13,1.92,1.92,0,0,0,1.84,2.16c1.06,0,1.83-.82,1.83-2.16S38.4,328.94,37.33,328.94Z"/><path class="cls-2" d="M45,330.59l1.75-.26c.4-.06.51-.26.51-.49,0-.58-.39-1-1.29-1a1.31,1.31,0,0,0-1.4,1.23l-1.49-.33a2.68,2.68,0,0,1,2.88-2.23c2.1,0,2.89,1.19,2.89,2.55v3.39a5.37,5.37,0,0,0,.09,1.09H47.41a3.4,3.4,0,0,1-.07-.87,2.4,2.4,0,0,1-2.11,1.08,2.14,2.14,0,0,1-2.31-2.06A2.1,2.1,0,0,1,45,330.59Zm2.26,1.08v-.31l-1.78.27c-.51.08-.91.36-.91.92a.9.9,0,0,0,1,.89A1.56,1.56,0,0,0,47.24,331.67Z"/><path class="cls-2" d="M52.58,332.26A1.28,1.28,0,0,0,54,333.42c.67,0,1-.36,1-.78s-.25-.65-.8-.76l-1-.22a2.06,2.06,0,0,1-1.84-2,2.37,2.37,0,0,1,2.51-2.2,2.4,2.4,0,0,1,2.63,1.9l-1.37.4a1.17,1.17,0,0,0-1.26-1,.89.89,0,0,0-1,.79.74.74,0,0,0,.68.71l1,.21a2.15,2.15,0,0,1,2,2.08A2.32,2.32,0,0,1,54,334.71a2.56,2.56,0,0,1-2.81-2.06Z"/><path class="cls-2" d="M65.14,332.55a3.07,3.07,0,0,1-3.08,2.16,3.63,3.63,0,0,1-.17-7.24c2.11,0,3.34,1.38,3.34,3.54a2.83,2.83,0,0,1,0,.52h-5a1.82,1.82,0,0,0,1.86,1.78,1.65,1.65,0,0,0,1.71-1.19Zm-1.55-2.21a1.53,1.53,0,0,0-1.68-1.51,1.64,1.64,0,0,0-1.67,1.51Z"/><path class="cls-2" d="M54.31,284.18v.07c0,1.31-2.12,2.81-5.52,3.93a52.07,52.07,0,0,1-15.48,2.07,52.07,52.07,0,0,1-15.48-2.07A19.14,19.14,0,0,1,15,287a7.71,7.71,0,0,1-2.14-1.51,2.47,2.47,0,0,1-.49-.77,1.27,1.27,0,0,1-.06-.18.44.44,0,0,1,0-.1.83.83,0,0,1,0-.22h0l0-.13c.31-2.77,9-5.86,21-5.86S54,281.34,54.31,284.18Z"/><path class="cls-2" d="M54.31,287.69V294c0,1.3-2,2.75-5.36,3.88l-.16.05A52.07,52.07,0,0,1,33.31,300a52.07,52.07,0,0,1-15.48-2.07l-.13,0c-3.38-1.14-5.39-2.59-5.39-3.89v-6.31l.22.16c.16.12.33.24.51.35l.52.32a13.94,13.94,0,0,0,1.34.67c.21.1.43.19.66.28.51.22,1.06.42,1.65.61a53.87,53.87,0,0,0,16.1,2.17,53.87,53.87,0,0,0,16.1-2.17c.59-.19,1.14-.39,1.65-.61.23-.09.45-.18.66-.28a13.94,13.94,0,0,0,1.34-.67l.52-.32c.18-.11.35-.23.51-.35Z"/><path class="cls-3" d="M12.31,284.25h0a.83.83,0,0,0,0,.22A1.8,1.8,0,0,1,12.31,284.25Z"/><path class="cls-2" d="M54.32,303.12h0c0,1.3-2,2.75-5.36,3.88l-.16.05a52.07,52.07,0,0,1-15.48,2.07,52.07,52.07,0,0,1-15.48-2.07l-.13,0c-2.66-.9-4.47-2-5.11-3v0a1.44,1.44,0,0,1-.26-.72v-5.8l.31.23a4.38,4.38,0,0,0,.42.28,4.28,4.28,0,0,0,.42.26l.35.2a17.82,17.82,0,0,0,1.9.89c.47.19,1,.37,1.49.54l.16.05a54.19,54.19,0,0,0,16,2.12,54.19,54.19,0,0,0,15.95-2.12l.16-.05a22.28,22.28,0,0,0,2.8-1.13l.59-.3.35-.2a4.28,4.28,0,0,0,.42-.26,4.38,4.38,0,0,0,.42-.28l.31-.23Z"/><path class="cls-2" d="M17.2,299.83c-.53-.17-1-.35-1.49-.54C16.18,299.47,16.67,299.65,17.2,299.83Z"/><path class="cls-3" d="M15.71,299.29c.47.19,1,.37,1.49.54C16.67,299.65,16.18,299.47,15.71,299.29Zm0,0c.47.19,1,.37,1.49.54C16.67,299.65,16.18,299.47,15.71,299.29Zm0,0c.47.19,1,.37,1.49.54C16.67,299.65,16.18,299.47,15.71,299.29Zm0,0c.47.19,1,.37,1.49.54C16.67,299.65,16.18,299.47,15.71,299.29Zm0,0c.47.19,1,.37,1.49.54C16.67,299.65,16.18,299.47,15.71,299.29Zm0,0c.47.19,1,.37,1.49.54C16.67,299.65,16.18,299.47,15.71,299.29Zm0,0c.47.19,1,.37,1.49.54C16.67,299.65,16.18,299.47,15.71,299.29Z"/><path class="cls-2" d="M54.32,312.88l0,.13c-.31,2.77-9,5.86-21,5.86s-20.68-3.09-21-5.86v-6.46A16.23,16.23,0,0,0,17.2,309l.16.05a54.19,54.19,0,0,0,16,2.12A54.19,54.19,0,0,0,49.26,309l.16-.05a16.47,16.47,0,0,0,4.89-2.4v6.33Z"/><path class="cls-5" d="M405.48,94V92c66.18,0,114.22-1.94,160.68-3.77,41.47-1.64,80.64-3.18,129-3.23v2c-48.29,0-87.45,1.59-128.9,3.23C519.76,92.06,471.7,94,405.48,94Z"/><polygon class="cls-5" points="412.21 101.07 413.56 99.58 406.25 92.96 413.38 86.16 412 84.71 403.31 93 412.21 101.07"/><polygon class="cls-5" points="688.58 94.25 687.2 92.8 694.37 86.03 687.1 79.37 688.45 77.89 697.31 86 688.58 94.25"/><path class="cls-5" d="M695.13,125c-53-.27-100.25-10.29-142-19.14C520.63,99,492.55,93,468.31,93V91c24.45,0,52.63,6,85.25,12.89,41.64,8.83,88.83,18.84,141.58,19.1Z"/><polygon class="cls-5" points="688.68 115.64 687.29 117.08 694.37 123.94 687.01 130.5 688.35 132 697.31 124 688.68 115.64"/><path class="cls-5" d="M555.48,203v-2c24,0,39.74-.22,56.36-.44,19.51-.26,41.62-.55,81.3-.56v2c-39.67,0-61.77.3-81.27.56C595.24,202.78,579.53,203,555.48,203Z"/><polygon class="cls-5" points="562.17 210.11 563.52 208.63 556.25 201.98 563.42 195.21 562.04 193.75 553.31 202 562.17 210.11"/><polygon class="cls-5" points="686.57 209.24 685.19 207.78 692.37 201.02 685.11 194.35 686.46 192.88 695.31 201 686.57 209.24"/><path class="cls-4" d="M636.81,9a1.5,1.5,0,0,1-1.5-1.5v-6a1.5,1.5,0,0,1,3,0v6A1.5,1.5,0,0,1,636.81,9Z"/><path class="cls-4" d="M636.81,334.38a1.5,1.5,0,0,1-1.5-1.5V321.26a1.5,1.5,0,0,1,3,0v11.62A1.5,1.5,0,0,1,636.81,334.38Zm0-23.24a1.5,1.5,0,0,1-1.5-1.5V298a1.5,1.5,0,0,1,3,0v11.62A1.5,1.5,0,0,1,636.81,311.14Zm0-23.24a1.5,1.5,0,0,1-1.5-1.5V274.78a1.5,1.5,0,0,1,3,0V286.4A1.5,1.5,0,0,1,636.81,287.9Zm0-23.24a1.5,1.5,0,0,1-1.5-1.5V251.53a1.5,1.5,0,1,1,3,0v11.63A1.5,1.5,0,0,1,636.81,264.66Zm0-23.25a1.5,1.5,0,0,1-1.5-1.5V228.29a1.5,1.5,0,1,1,3,0v11.62A1.5,1.5,0,0,1,636.81,241.41Zm0-23.24a1.5,1.5,0,0,1-1.5-1.5V205.05a1.5,1.5,0,1,1,3,0v11.62A1.5,1.5,0,0,1,636.81,218.17Zm0-23.24a1.5,1.5,0,0,1-1.5-1.5V181.81a1.5,1.5,0,1,1,3,0v11.62A1.5,1.5,0,0,1,636.81,194.93Zm0-23.24a1.5,1.5,0,0,1-1.5-1.5V158.57a1.5,1.5,0,1,1,3,0v11.62A1.5,1.5,0,0,1,636.81,171.69Zm0-23.24a1.5,1.5,0,0,1-1.5-1.5V135.33a1.5,1.5,0,0,1,3,0V147A1.5,1.5,0,0,1,636.81,148.45Zm0-23.24a1.5,1.5,0,0,1-1.5-1.5V112.09a1.5,1.5,0,0,1,3,0v11.62A1.5,1.5,0,0,1,636.81,125.21Zm0-23.24a1.5,1.5,0,0,1-1.5-1.5V88.84a1.5,1.5,0,0,1,3,0v11.63A1.5,1.5,0,0,1,636.81,102Zm0-23.25a1.5,1.5,0,0,1-1.5-1.5V65.6a1.5,1.5,0,0,1,3,0V77.22A1.5,1.5,0,0,1,636.81,78.72Zm0-23.24a1.5,1.5,0,0,1-1.5-1.5V42.36a1.5,1.5,0,0,1,3,0V54A1.5,1.5,0,0,1,636.81,55.48Zm0-23.24a1.5,1.5,0,0,1-1.5-1.5V19.12a1.5,1.5,0,0,1,3,0V30.74A1.5,1.5,0,0,1,636.81,32.24Z"/><path class="cls-4" d="M636.81,352a1.5,1.5,0,0,1-1.5-1.5v-6a1.5,1.5,0,0,1,3,0v6A1.5,1.5,0,0,1,636.81,352Z"/><rect class="cls-5" x="371.31" y="114.17" width="2" height="27.66"/><polygon class="cls-5" points="364.13 120.8 365.6 122.16 372.31 114.94 379.02 122.16 380.49 120.8 372.31 112 364.13 120.8"/><polygon class="cls-5" points="364.13 135.2 365.6 133.84 372.31 141.06 379.02 133.84 380.49 135.2 372.31 144 364.13 135.2"/><rect class="cls-5" x="166.31" y="181.17" width="2" height="27.66"/><polygon class="cls-5" points="159.13 187.8 160.59 189.16 167.31 181.94 174.02 189.16 175.49 187.8 167.31 179 159.13 187.8"/><polygon class="cls-5" points="159.13 202.2 160.59 200.84 167.31 208.06 174.02 200.84 175.49 202.2 167.31 211 159.13 202.2"/><path class="cls-5" d="M121.31,310v-2c13.14,0,43.76-20.73,45-54.87l2,.07c-.71,20.08-10.71,33.91-19,42C138.85,305.36,127.47,310,121.31,310Z"/><polygon class="cls-5" points="158.6 259.28 159.98 260.73 167.13 253.93 173.38 261.55 174.93 260.28 167.31 251 158.6 259.28"/><path class="cls-5" d="M241.27,315.17q-5.91,0-12.07-.06c-70.79-.73-143.89-7.54-157.83-8.9l.19-2c13.93,1.36,87,8.17,157.66,8.89,90,.92,139.14-8.45,142-27.1l2,.3C370.26,305.47,325.9,315.17,241.27,315.17Z"/><polygon class="cls-5" points="362.06 290.26 363.1 291.97 371.51 286.83 376.03 295.6 377.81 294.68 372.31 284 362.06 290.26"/><polygon class="cls-5" points="78.77 297.59 80 299.17 72.24 305.25 78.87 312.55 77.38 313.89 69.31 305 78.77 297.59"/><path class="cls-5" d="M305.24,140.89C303.48,113,266.22,98,231.92,98h-.34c-16.59,0-31.88,3.49-43.07,9.68-12.48,6.92-19.44,17-20.14,29.18l-2-.11c.74-12.9,8.06-23.55,21.17-30.82,11.48-6.35,27.12-9.88,44-9.93h.36c18.27,0,36.51,4.1,50.09,11.27,15.64,8.26,24.36,19.84,25.22,33.47Z"/><polygon class="cls-5" points="176.35 131.09 175.03 129.58 167.61 136.08 161.67 128.21 160.08 129.41 167.31 139 176.35 131.09"/><polygon class="cls-5" points="297.21 135.16 298.52 133.64 305.98 140.08 311.86 132.16 313.47 133.36 306.31 143 297.21 135.16"/><rect class="cls-2" x="224.31" y="148" width="327" height="133" rx="4.49"/><rect class="cls-3" x="372.31" y="167" width="160" height="20" rx="3.74"/><rect class="cls-3" x="372.31" y="192" width="160" height="20" rx="3.74"/><rect class="cls-3" x="372.31" y="217" width="160" height="20" rx="3.74"/><rect class="cls-3" x="372.31" y="242" width="160" height="20" rx="3.74"/><path class="cls-3" d="M258.36,200.81H256v7.67h-3.31V189.06h7.45a5.74,5.74,0,0,1,6.08,5.89,5.47,5.47,0,0,1-4.38,5.53l4.38,8h-3.73Zm1.13-2.9c2,0,3.34-1.18,3.34-3s-1.32-3-3.34-3H256v5.94Z"/><path class="cls-3" d="M273.89,208.87c-3.18,0-5-2.36-5-5.32v-8.41H272V203c0,1.64.77,3,2.68,3a2.67,2.67,0,0,0,2.8-3v-7.89h3.17V206a22.67,22.67,0,0,0,.14,2.44h-3a10.58,10.58,0,0,1-.11-1.48A4.27,4.27,0,0,1,273.89,208.87Z"/><path class="cls-3" d="M284.79,208.48V188.65h3.12v8.14a4.82,4.82,0,0,1,4.19-2c4,0,6.17,3,6.17,7s-2.39,7.07-6.27,7.07a4.56,4.56,0,0,1-4.11-2.11v1.78Zm6.68-10.87c-2,0-3.58,1.51-3.58,4.16s1.56,4.22,3.58,4.22,3.59-1.59,3.59-4.22S293.58,197.61,291.47,197.61Z"/><path class="cls-3" d="M301.39,213.88l3.2-7-5.69-11.75h3.58l3.84,8.44,3.59-8.44h3.37l-8.49,18.74Z"/><path class="cls-3" d="M265.16,234.67a6.92,6.92,0,1,1-6.93-7.07A6.8,6.8,0,0,1,265.16,234.67Zm-3.21,0c0-2.77-1.75-4.2-3.72-4.2s-3.73,1.43-3.73,4.2,1.78,4.24,3.73,4.24S262,237.46,262,234.67Z"/><path class="cls-3" d="M271.4,241.35h-3.18V228h3.1v1.78a4.42,4.42,0,0,1,3.94-2.16c3.26,0,4.82,2.35,4.82,5.28v8.44H276.9v-7.89c0-1.64-.74-3-2.73-3-1.81,0-2.77,1.4-2.77,3.15Z"/><path class="cls-3" d="M296.73,233.68h-2.41v7.67H291V221.93h7.45a5.73,5.73,0,0,1,6.08,5.89,5.48,5.48,0,0,1-4.38,5.53l4.38,8h-3.73Zm1.12-2.9c2,0,3.35-1.18,3.35-3s-1.32-3-3.35-3h-3.53v5.95Z"/><path class="cls-3" d="M310.78,233.71l3.43-.52c.76-.11,1-.5,1-1,0-1.13-.76-2-2.52-2a2.57,2.57,0,0,0-2.74,2.41L307,232c.25-2.3,2.33-4.35,5.62-4.35,4.1,0,5.66,2.33,5.66,5v6.63a11.58,11.58,0,0,0,.17,2.14h-3a7.12,7.12,0,0,1-.14-1.7,4.65,4.65,0,0,1-4.1,2.11c-2.8,0-4.52-1.92-4.52-4C306.76,235.35,308.51,234,310.78,233.71Zm4.41,2.11v-.61l-3.48.52c-1,.17-1.78.72-1.78,1.81a1.77,1.77,0,0,0,1.95,1.73C313.66,239.27,315.19,238.42,315.19,235.82Z"/><path class="cls-3" d="M323.71,221.24a2.09,2.09,0,0,1,2.08,2.09,2.07,2.07,0,0,1-4.13,0A2.08,2.08,0,0,1,323.71,221.24Zm-1.56,20.11V228h3.15v13.34Z"/><path class="cls-3" d="M329.41,241.35V221.52h3.17v19.83Z"/><path class="cls-3" d="M338.28,237a2.5,2.5,0,0,0,2.71,2.27c1.32,0,2-.71,2-1.53s-.49-1.26-1.56-1.48l-2-.44c-2.36-.52-3.59-2.06-3.59-3.89a4.63,4.63,0,0,1,4.9-4.3c3.73,0,4.93,2.41,5.15,3.72l-2.68.77a2.3,2.3,0,0,0-2.47-2,1.74,1.74,0,0,0-1.92,1.53,1.47,1.47,0,0,0,1.35,1.4l2,.41c2.52.55,3.84,2.08,3.84,4.06s-1.65,4.27-5,4.27c-3.86,0-5.34-2.52-5.51-4Z"/><path class="cls-2" d="M383.83,181.5V173h3a4.25,4.25,0,0,1,0,8.5Zm2.95-1.32a2.94,2.94,0,0,0,0-5.86h-1.52v5.86Z"/><path class="cls-2" d="M394.62,178.15l1.5-.22c.33-.05.43-.22.43-.42,0-.5-.34-.89-1.11-.89a1.13,1.13,0,0,0-1.2,1l-1.27-.28a2.29,2.29,0,0,1,2.46-1.91c1.8,0,2.48,1,2.48,2.18v2.9a4.29,4.29,0,0,0,.08.94h-1.3a3.45,3.45,0,0,1-.06-.74,2,2,0,0,1-1.8.92,1.83,1.83,0,0,1-2-1.76A1.81,1.81,0,0,1,394.62,178.15Zm1.93.93v-.27L395,179c-.43.07-.78.31-.78.79a.78.78,0,0,0,.86.76A1.33,1.33,0,0,0,396.55,179.08Z"/><path class="cls-2" d="M402.18,175.66h1.21v1.23h-1.21v2.72c0,.51.22.73.74.73a3.19,3.19,0,0,0,.48-.05v1.15a2.16,2.16,0,0,1-.85.13,1.61,1.61,0,0,1-1.75-1.74v-2.94h-1.08v-1.23h.3a.83.83,0,0,0,.9-.91v-.88h1.26Z"/><path class="cls-2" d="M407.07,178.15l1.5-.22c.34-.05.43-.22.43-.42,0-.5-.33-.89-1.1-.89a1.13,1.13,0,0,0-1.2,1l-1.27-.28a2.29,2.29,0,0,1,2.46-1.91c1.8,0,2.48,1,2.48,2.18v2.9a5.7,5.7,0,0,0,.07.94h-1.29a2.82,2.82,0,0,1-.06-.74,2,2,0,0,1-1.8.92,1.83,1.83,0,0,1-2-1.76A1.8,1.8,0,0,1,407.07,178.15Zm1.93.93v-.27l-1.52.23c-.43.07-.78.31-.78.79a.77.77,0,0,0,.85.76A1.33,1.33,0,0,0,409,179.08Z"/><path class="cls-2" d="M421.84,179.37h-3.6l-.79,2.13h-1.52l3.31-8.5h1.67l3.31,8.5h-1.57ZM418.75,178h2.59l-1.3-3.47Z"/><path class="cls-2" d="M426.9,178.57a1.66,1.66,0,0,0,1.63,1.84,1.47,1.47,0,0,0,1.46-1.08l1.22.44a2.7,2.7,0,0,1-2.68,1.91,3,3,0,0,1-3-3.11,3,3,0,0,1,3-3.09,2.62,2.62,0,0,1,2.68,1.92l-1.25.45a1.38,1.38,0,0,0-1.42-1.09A1.63,1.63,0,0,0,426.9,178.57Z"/><path class="cls-2" d="M434.17,178.57a1.66,1.66,0,0,0,1.63,1.84,1.47,1.47,0,0,0,1.46-1.08l1.23.44a2.73,2.73,0,0,1-2.69,1.91,3,3,0,0,1-3-3.11,3,3,0,0,1,3-3.09,2.62,2.62,0,0,1,2.68,1.92l-1.25.45a1.38,1.38,0,0,0-1.42-1.09A1.63,1.63,0,0,0,434.17,178.57Z"/><path class="cls-2" d="M445.67,179.83a2.62,2.62,0,0,1-2.63,1.85,3.11,3.11,0,0,1-.15-6.2,2.73,2.73,0,0,1,2.86,3,2.2,2.2,0,0,1,0,.45h-4.27a1.57,1.57,0,0,0,1.6,1.52,1.41,1.41,0,0,0,1.46-1Zm-1.33-1.89a1.31,1.31,0,0,0-1.44-1.3,1.39,1.39,0,0,0-1.42,1.3Z"/><path class="cls-2" d="M448.62,179.58a1.09,1.09,0,0,0,1.18,1c.58,0,.88-.32.88-.67s-.22-.56-.68-.65l-.87-.19a1.77,1.77,0,0,1-1.57-1.71,2,2,0,0,1,2.15-1.88,2.06,2.06,0,0,1,2.25,1.63l-1.17.34a1,1,0,0,0-1.08-.88.76.76,0,0,0-.84.67.64.64,0,0,0,.59.61l.88.18a1.84,1.84,0,0,1,1.68,1.78,2,2,0,0,1-2.21,1.87,2.2,2.2,0,0,1-2.41-1.76Z"/><path class="cls-2" d="M454.94,179.58a1.1,1.1,0,0,0,1.19,1c.57,0,.87-.32.87-.67s-.21-.56-.68-.65l-.86-.19a1.77,1.77,0,0,1-1.58-1.71,2,2,0,0,1,2.15-1.88,2.08,2.08,0,0,1,2.26,1.63l-1.18.34a1,1,0,0,0-1.08-.88.76.76,0,0,0-.84.67.64.64,0,0,0,.59.61l.89.18a1.85,1.85,0,0,1,1.68,1.78,2,2,0,0,1-2.21,1.87,2.19,2.19,0,0,1-2.41-1.76Z"/><path class="cls-2" d="M386.76,197a2.3,2.3,0,0,1,2.59,2.29,1.89,1.89,0,0,1-1.26,1.83,2,2,0,0,1,1.52,2A2.39,2.39,0,0,1,387,205.5h-3.14V197Zm-.2,3.59a1.19,1.19,0,0,0,1.35-1.18c0-.72-.51-1.19-1.38-1.19h-1.27v2.37Zm.16,3.69c.86,0,1.43-.47,1.43-1.23a1.22,1.22,0,0,0-1.38-1.24h-1.51v2.47Z"/><path class="cls-2" d="M393.82,205.67a2.16,2.16,0,0,1-2.2-2.33v-3.68H393v3.43c0,.72.33,1.33,1.17,1.33a1.17,1.17,0,0,0,1.23-1.31v-3.45h1.39v4.77a8.33,8.33,0,0,0,.06,1.07h-1.33a3.65,3.65,0,0,1,0-.65A1.87,1.87,0,0,1,393.82,205.67Z"/><path class="cls-2" d="M400.14,203.58a1.09,1.09,0,0,0,1.18,1c.58,0,.88-.32.88-.67s-.22-.56-.68-.65l-.87-.19a1.77,1.77,0,0,1-1.57-1.71,2,2,0,0,1,2.15-1.88,2.06,2.06,0,0,1,2.25,1.63l-1.17.34a1,1,0,0,0-1.08-.88.76.76,0,0,0-.84.67.64.64,0,0,0,.59.61l.88.18a1.84,1.84,0,0,1,1.68,1.78,2,2,0,0,1-2.2,1.87,2.19,2.19,0,0,1-2.41-1.76Z"/><path class="cls-2" d="M406.45,196.7a.91.91,0,1,1-.9.91A.91.91,0,0,1,406.45,196.7Zm-.69,8.8v-5.84h1.38v5.84Z"/><path class="cls-2" d="M411.18,205.5h-1.4v-5.84h1.36v.78a1.94,1.94,0,0,1,1.73-.95,2.07,2.07,0,0,1,2.11,2.32v3.69h-1.39v-3.45c0-.72-.33-1.3-1.2-1.3a1.23,1.23,0,0,0-1.21,1.38Z"/><path class="cls-2" d="M422.68,203.83a2.63,2.63,0,0,1-2.64,1.85,3.11,3.11,0,0,1-.14-6.2,2.72,2.72,0,0,1,2.85,3,2.6,2.6,0,0,1,0,.45h-4.27a1.56,1.56,0,0,0,1.59,1.52,1.42,1.42,0,0,0,1.47-1Zm-1.33-1.89a1.31,1.31,0,0,0-1.44-1.3,1.41,1.41,0,0,0-1.43,1.3Z"/><path class="cls-2" d="M425.62,203.58a1.1,1.1,0,0,0,1.19,1c.58,0,.88-.32.88-.67s-.22-.56-.69-.65l-.86-.19a1.77,1.77,0,0,1-1.57-1.71,2,2,0,0,1,2.15-1.88,2.06,2.06,0,0,1,2.25,1.63l-1.17.34a1,1,0,0,0-1.08-.88.75.75,0,0,0-.84.67.63.63,0,0,0,.58.61l.89.18a1.84,1.84,0,0,1,1.68,1.78,2,2,0,0,1-2.21,1.87,2.19,2.19,0,0,1-2.41-1.76Z"/><path class="cls-2" d="M432,203.58a1.1,1.1,0,0,0,1.19,1c.57,0,.87-.32.87-.67s-.22-.56-.68-.65l-.87-.19a1.77,1.77,0,0,1-1.57-1.71,2,2,0,0,1,2.15-1.88,2.06,2.06,0,0,1,2.25,1.63l-1.17.34a1,1,0,0,0-1.08-.88.76.76,0,0,0-.84.67.64.64,0,0,0,.59.61l.89.18a1.84,1.84,0,0,1,1.67,1.78,2,2,0,0,1-2.2,1.87,2.19,2.19,0,0,1-2.41-1.76Z"/><path class="cls-2" d="M441.51,205.5V197H443v7.13h3.9v1.37Z"/><path class="cls-2" d="M454.47,202.57a3,3,0,1,1-3-3.09A3,3,0,0,1,454.47,202.57Zm-1.4,0a1.65,1.65,0,1,0-3.27,0,1.65,1.65,0,1,0,3.27,0Z"/><path class="cls-2" d="M457.52,205.49a1.42,1.42,0,0,0,1.46,1.26c1.11,0,1.66-.57,1.66-1.75v-.62a1.86,1.86,0,0,1-1.69.86,2.85,2.85,0,0,1,0-5.69,1.8,1.8,0,0,1,1.72.85v-.74H462V205a2.76,2.76,0,0,1-3,3,2.62,2.62,0,0,1-2.78-2.14Zm3.15-3.1a1.52,1.52,0,1,0-1.5,1.66A1.5,1.5,0,0,0,460.67,202.39Z"/><path class="cls-2" d="M465.25,196.7a.91.91,0,1,1-.9.91A.91.91,0,0,1,465.25,196.7Zm-.69,8.8v-5.84h1.38v5.84Z"/><path class="cls-2" d="M469.52,202.57a1.67,1.67,0,0,0,1.63,1.84,1.47,1.47,0,0,0,1.46-1.08l1.23.44a2.72,2.72,0,0,1-2.69,1.91,3,3,0,0,1-3-3.11,3,3,0,0,1,3-3.09,2.61,2.61,0,0,1,2.68,1.92l-1.25.45a1.38,1.38,0,0,0-1.41-1.09A1.64,1.64,0,0,0,469.52,202.57Z"/><path class="cls-2" d="M387.16,223.35v7.15h-1.44v-7.15H383V222h7v1.35Z"/><path class="cls-2" d="M393.25,230.5h-1.39v-8.68h1.39v3.4a2.18,2.18,0,0,1,3.8,1.59v3.69h-1.39v-3.45c0-.72-.33-1.3-1.2-1.3a1.21,1.21,0,0,0-1.21,1.32Z"/><path class="cls-2" d="M400.27,221.7a.91.91,0,1,1-.9.91A.91.91,0,0,1,400.27,221.7Zm-.69,8.8v-5.84H401v5.84Z"/><path class="cls-2" d="M407,226a2.35,2.35,0,0,0-.45,0c-1.08,0-1.57.63-1.57,1.72v2.78h-1.4v-5.84H405v.93a1.77,1.77,0,0,1,1.69-1,2.32,2.32,0,0,1,.37,0Z"/><path class="cls-2" d="M414.37,229.43a7.92,7.92,0,0,0,.06,1.07h-1.34a6.7,6.7,0,0,1-.06-.76,1.89,1.89,0,0,1-1.71.9,2.84,2.84,0,0,1-2.81-3.08,2.87,2.87,0,0,1,2.79-3.06,1.79,1.79,0,0,1,1.71.84v-3.52h1.36Zm-2.89,0c.91,0,1.54-.75,1.54-1.87s-.62-1.81-1.53-1.81a1.64,1.64,0,0,0-1.59,1.82C409.9,228.68,410.53,229.42,411.48,229.42Z"/><path class="cls-2" d="M416.67,227.61v-1.24h3.39v1.24Z"/><path class="cls-2" d="M423.9,227.18v3.32h-1.44V222h3.15a2.59,2.59,0,1,1,0,5.18Zm1.5-1.27a1.33,1.33,0,1,0,0-2.64h-1.5v2.64Z"/><path class="cls-2" d="M431.53,227.15l1.5-.22c.33-.05.43-.22.43-.42,0-.5-.34-.89-1.1-.89a1.12,1.12,0,0,0-1.2,1l-1.28-.28a2.29,2.29,0,0,1,2.46-1.91c1.8,0,2.49,1,2.49,2.18v2.9a5.7,5.7,0,0,0,.07.94h-1.3a3.45,3.45,0,0,1-.06-.74,2,2,0,0,1-1.8.92,1.83,1.83,0,0,1-2-1.76A1.81,1.81,0,0,1,431.53,227.15Zm1.93.93v-.27l-1.52.23c-.44.07-.78.31-.78.79a.77.77,0,0,0,.85.76A1.33,1.33,0,0,0,433.46,228.08Z"/><path class="cls-2" d="M440.77,226a2.45,2.45,0,0,0-.46,0c-1.08,0-1.57.63-1.57,1.72v2.78h-1.39v-5.84h1.35v.93a1.78,1.78,0,0,1,1.7-1,2.45,2.45,0,0,1,.37,0Z"/><path class="cls-2" d="M444.79,224.66H446v1.23h-1.21v2.72c0,.51.23.73.74.73a3.19,3.19,0,0,0,.48-.05v1.15a2.11,2.11,0,0,1-.85.13,1.61,1.61,0,0,1-1.75-1.74v-2.94h-1.08v-1.23h.3a.83.83,0,0,0,.9-.91v-.88h1.26Z"/><path class="cls-2" d="M448.65,232.86l1.41-3.06-2.5-5.14h1.57l1.68,3.69,1.57-3.69h1.48l-3.72,8.2Z"/><path class="cls-2" d="M459.66,230.5V222h1.44v7.13H465v1.37Z"/><path class="cls-2" d="M467.72,221.7a.91.91,0,1,1-.9.91A.91.91,0,0,1,467.72,221.7Zm-.68,8.8v-5.84h1.38v5.84Z"/><path class="cls-2" d="M471.06,230.5v-8.68h1.36v3.56a2.12,2.12,0,0,1,1.84-.88c1.75,0,2.7,1.33,2.7,3.05a2.79,2.79,0,0,1-2.75,3.09,2,2,0,0,1-1.8-.92v.78Zm2.92-4.76a1.61,1.61,0,0,0-1.57,1.82,1.64,1.64,0,0,0,1.57,1.85c.91,0,1.57-.7,1.57-1.85S474.91,225.74,474,225.74Z"/><path class="cls-2" d="M482.56,226a2.35,2.35,0,0,0-.45,0c-1.08,0-1.58.63-1.58,1.72v2.78h-1.39v-5.84h1.36v.93a1.76,1.76,0,0,1,1.69-1,2.32,2.32,0,0,1,.37,0Z"/><path class="cls-2" d="M486,227.15l1.5-.22c.34-.05.43-.22.43-.42,0-.5-.33-.89-1.1-.89a1.13,1.13,0,0,0-1.2,1l-1.27-.28a2.29,2.29,0,0,1,2.46-1.91c1.8,0,2.48,1,2.48,2.18v2.9a5.7,5.7,0,0,0,.07.94h-1.29a3.45,3.45,0,0,1-.06-.74,2,2,0,0,1-1.8.92,1.83,1.83,0,0,1-2-1.76A1.8,1.8,0,0,1,486,227.15Zm1.93.93v-.27l-1.52.23c-.43.07-.78.31-.78.79a.77.77,0,0,0,.85.76A1.33,1.33,0,0,0,487.91,228.08Z"/><path class="cls-2" d="M495.22,226a2.35,2.35,0,0,0-.45,0c-1.08,0-1.58.63-1.58,1.72v2.78H491.8v-5.84h1.36v.93a1.76,1.76,0,0,1,1.69-1,2.32,2.32,0,0,1,.37,0Z"/><path class="cls-2" d="M497.91,221.7a.91.91,0,1,1-.9.91A.9.9,0,0,1,497.91,221.7Zm-.68,8.8v-5.84h1.38v5.84Z"/><path class="cls-2" d="M506.42,228.83a2.64,2.64,0,0,1-2.64,1.85,3.11,3.11,0,0,1-.15-6.2,2.73,2.73,0,0,1,2.86,3,2.2,2.2,0,0,1,0,.45h-4.27a1.57,1.57,0,0,0,1.6,1.52,1.4,1.4,0,0,0,1.46-1Zm-1.34-1.89a1.3,1.3,0,0,0-1.43-1.3,1.4,1.4,0,0,0-1.43,1.3Z"/><path class="cls-2" d="M509.36,228.58a1.1,1.1,0,0,0,1.19,1c.57,0,.87-.32.87-.67s-.21-.56-.68-.65l-.87-.19a1.77,1.77,0,0,1-1.57-1.71,2,2,0,0,1,2.15-1.88,2.08,2.08,0,0,1,2.26,1.63l-1.18.34a1,1,0,0,0-1.08-.88.76.76,0,0,0-.84.67.64.64,0,0,0,.59.61l.89.18a1.84,1.84,0,0,1,1.67,1.78,2,2,0,0,1-2.2,1.87,2.19,2.19,0,0,1-2.41-1.76Z"/><path class="cls-2" d="M392.36,247h1.49l-2.39,8.5H390l-2.07-6.43-2.06,6.43h-1.47L382,247h1.51l1.7,6.21,2-6.21h1.5l2,6.26Z"/><path class="cls-2" d="M400.91,252.57a3,3,0,1,1-3-3.09A3,3,0,0,1,400.91,252.57Zm-1.4,0a1.65,1.65,0,1,0-3.27,0,1.65,1.65,0,1,0,3.27,0Z"/><path class="cls-2" d="M406.52,251a2.53,2.53,0,0,0-.46,0c-1.08,0-1.57.63-1.57,1.72v2.78H403.1v-5.84h1.35v.93a1.78,1.78,0,0,1,1.69-1,2.48,2.48,0,0,1,.38,0Z"/><path class="cls-2" d="M411.59,252.13,414,255.5h-1.71l-1.71-2.39-.72.76v1.63h-1.38v-8.68h1.38V252l2.24-2.36H414Z"/><path class="cls-2" d="M420.78,253.83a2.63,2.63,0,0,1-2.64,1.85,3.11,3.11,0,0,1-.14-6.2,2.72,2.72,0,0,1,2.85,3,2.6,2.6,0,0,1,0,.45h-4.27a1.56,1.56,0,0,0,1.59,1.52,1.41,1.41,0,0,0,1.47-1Zm-1.33-1.89a1.31,1.31,0,0,0-1.44-1.3,1.41,1.41,0,0,0-1.43,1.3Z"/><path class="cls-2" d="M426.45,251a2.45,2.45,0,0,0-.46,0c-1.08,0-1.57.63-1.57,1.72v2.78H423v-5.84h1.35v.93a1.78,1.78,0,0,1,1.7-1,2.45,2.45,0,0,1,.37,0Z"/><path class="cls-2" d="M429.16,253.58a1.1,1.1,0,0,0,1.19,1c.57,0,.87-.32.87-.67s-.21-.56-.68-.65l-.86-.19a1.77,1.77,0,0,1-1.58-1.71,2,2,0,0,1,2.15-1.88,2.08,2.08,0,0,1,2.26,1.63l-1.18.34a1,1,0,0,0-1.08-.88.76.76,0,0,0-.84.67.64.64,0,0,0,.59.61l.89.18a1.85,1.85,0,0,1,1.68,1.78,2,2,0,0,1-2.21,1.87,2.19,2.19,0,0,1-2.41-1.76Z"/></g></g></svg>