<svg xmlns="http://www.w3.org/2000/svg" viewBox="0 0 787.82 352"><defs><style>.cls-1{fill:#7b868c;}.cls-2{fill:#40beb1;}.cls-3{fill:#fff;}.cls-4{fill:#f58137;}.cls-5{fill:#fddf22;}.cls-6{fill:#3cbeb1;}</style></defs><title>Asset 3</title><g id="Layer_2" data-name="Layer 2"><g id="outlines"><path class="cls-1" d="M151.92,166.36h-1.48v4.06h-1.39v-9.93h3.74a2.88,2.88,0,0,1,3,3,2.77,2.77,0,0,1-2.41,2.81l2.37,4.16h-1.6Zm.62-1.23a1.69,1.69,0,0,0,1.88-1.68,1.71,1.71,0,0,0-1.88-1.73h-2.1v3.41Z"/><path class="cls-1" d="M163.17,168.5a3.06,3.06,0,0,1-3,2.13,3.59,3.59,0,0,1-.17-7.16c2.08,0,3.24,1.43,3.24,3.53a3.52,3.52,0,0,1,0,.42h-5.07a2,2,0,0,0,2,2.05,1.83,1.83,0,0,0,1.89-1.36Zm-1.33-2.14a1.7,1.7,0,0,0-1.85-1.72,1.81,1.81,0,0,0-1.84,1.72Z"/><path class="cls-1" d="M169.61,169.4a2.27,2.27,0,0,1-2.09,1.2c-2,0-3.19-1.56-3.19-3.57a3.31,3.31,0,0,1,3.19-3.53,2.08,2.08,0,0,1,2.06,1.14v-4.36h1.3v8.9a11.6,11.6,0,0,0,.07,1.24h-1.27a5.33,5.33,0,0,1-.07-.91Zm-2,0c1.2,0,1.94-1.05,1.94-2.44s-.73-2.33-1.93-2.33a2.09,2.09,0,0,0-2,2.36C165.67,168.42,166.38,169.44,167.65,169.44Z"/><path class="cls-1" d="M173.76,160.18a.95.95,0,1,1-.94,1A.95.95,0,0,1,173.76,160.18Zm-.64,10.24v-6.74h1.3v6.74Z"/><path class="cls-1" d="M177.22,168.25a1.44,1.44,0,0,0,1.57,1.26c.74,0,1.15-.42,1.15-.89s-.31-.75-.87-.87l-1.15-.25a1.92,1.92,0,0,1-1.68-1.9,2.3,2.3,0,0,1,2.39-2.13,2.4,2.4,0,0,1,2.57,1.81l-1.16.44a1.32,1.32,0,0,0-1.41-1.12,1,1,0,0,0-1.12.89c0,.41.26.7.77.81l1.1.24a2,2,0,0,1,1.86,2,2.23,2.23,0,0,1-2.47,2.08,2.54,2.54,0,0,1-2.74-2Z"/><path class="cls-2" d="M197.31,185h-59a1,1,0,0,1-1-1V148a1,1,0,0,1,1-1h59a1,1,0,0,1,1,1v36A1,1,0,0,1,197.31,185Zm-58-2h57V149h-57Z"/><path class="cls-1" d="M149.15,235.18a2,2,0,0,0-2.1-1.69,1.75,1.75,0,0,0-1.92,1.65,1.43,1.43,0,0,0,1.27,1.44l1.49.32a2.87,2.87,0,0,1,2.58,2.79,3.13,3.13,0,0,1-3.43,2.94,3.46,3.46,0,0,1-3.72-2.95l1.32-.42a2.26,2.26,0,0,0,2.38,2.13c1.37,0,2-.72,2-1.59a1.62,1.62,0,0,0-1.49-1.54l-1.41-.31a2.74,2.74,0,0,1-2.43-2.71,3.17,3.17,0,0,1,3.28-3,3.13,3.13,0,0,1,3.36,2.47Z"/><path class="cls-1" d="M152.79,232.18a.95.95,0,1,1-.94,1A.95.95,0,0,1,152.79,232.18Zm-.65,10.24v-6.74h1.31v6.74Z"/><path class="cls-1" d="M160.41,241.4a2.27,2.27,0,0,1-2.09,1.2c-2,0-3.2-1.56-3.2-3.57a3.32,3.32,0,0,1,3.2-3.53,2.08,2.08,0,0,1,2.06,1.14v-4.36h1.3v8.9a11.6,11.6,0,0,0,.07,1.24h-1.27a5.33,5.33,0,0,1-.07-.91Zm-2,0c1.21,0,1.95-1.05,1.95-2.44s-.73-2.33-1.93-2.33a2.09,2.09,0,0,0-2,2.36C156.47,240.42,157.18,241.44,158.44,241.44Z"/><path class="cls-1" d="M169.79,240.5a3.06,3.06,0,0,1-3,2.13,3.59,3.59,0,0,1-.17-7.16c2.08,0,3.24,1.43,3.24,3.53a3.52,3.52,0,0,1,0,.42h-5.07a2,2,0,0,0,2,2.05,1.83,1.83,0,0,0,1.89-1.36Zm-1.33-2.14a1.7,1.7,0,0,0-1.85-1.72,1.81,1.81,0,0,0-1.84,1.72Z"/><path class="cls-1" d="M174.67,238.53l2.93,3.89H176l-2.2-3-.94.94v2h-1.3V232.28h1.3v6.39l2.91-3h1.82Z"/><path class="cls-1" d="M179.5,232.18a.95.95,0,1,1-.94,1A.95.95,0,0,1,179.5,232.18Zm-.64,10.24v-6.74h1.3v6.74Z"/><path class="cls-1" d="M187.13,245.08v-3.61a2.23,2.23,0,0,1-2.1,1.13,3.3,3.3,0,0,1-3.19-3.57,3.23,3.23,0,0,1,3.16-3.51,2.27,2.27,0,0,1,2.16,1.2v-1h1.27v9.4Zm-2-3.64a2.14,2.14,0,0,0,2-2.41,2.09,2.09,0,0,0-2-2.35c-1.22,0-2,1-2,2.35S184,241.44,185.16,241.44Z"/><path class="cls-2" d="M204.31,257h-73a1,1,0,0,1-1-1V220a1,1,0,0,1,1-1h73a1,1,0,0,1,1,1v36A1,1,0,0,1,204.31,257Zm-72-2h71V221h-71Z"/><path class="cls-1" d="M359.79,103.42l-5.37-8.09v8.09h-1.37V93.49h1.84l5,7.62V93.49h1.37v9.93Z"/><path class="cls-1" d="M364.38,103.49a1.79,1.79,0,0,0,1.83,1.66c1.42,0,2.06-.73,2.06-2.19v-1a2.24,2.24,0,0,1-2.06,1.11,3.28,3.28,0,0,1,0-6.54,2.14,2.14,0,0,1,2.08,1.06v-.93h1.3v6.23a3.08,3.08,0,0,1-3.38,3.37,3,3,0,0,1-3.11-2.5Zm3.95-3.65a1.95,1.95,0,1,0-1.92,2.15A1.94,1.94,0,0,0,368.33,99.84Z"/><path class="cls-1" d="M372.33,93.18a.95.95,0,1,1-.94,1A.95.95,0,0,1,372.33,93.18Zm-.64,10.24V96.69H373v6.73Z"/><path class="cls-1" d="M376.54,103.42h-1.31V96.69h1.29v1a2.29,2.29,0,0,1,2.07-1.16A2.36,2.36,0,0,1,381,99.15v4.27h-1.32v-4c0-.93-.39-1.69-1.57-1.69s-1.57.83-1.57,1.85Z"/><path class="cls-1" d="M384.62,100l-2.42-3.3h1.6l1.65,2.36,1.62-2.36h1.56l-2.4,3.3c.41.55,2.08,2.89,2.48,3.43h-1.58l-1.74-2.48-1.71,2.48h-1.57Z"/><path class="cls-2" d="M400.31,118h-59a1,1,0,0,1-1-1V83a1,1,0,0,1,1-1h59a1,1,0,0,1,1,1v34A1,1,0,0,1,400.31,118Zm-58-2h57V84h-57Z"/><path class="cls-2" d="M498.82,61h-12a1.5,1.5,0,1,0,0,3h12.1a1.5,1.5,0,0,1,1.39,1.49v5.24a1.5,1.5,0,0,0,3,0V65.49h-.05v0h-.06v0h-.08v-.05H503l0,0h-.1a.2.2,0,0,0,0-.08h-.11a.41.41,0,0,0-.05-.09h-.11l-.07-.1h-.11l-.12-.15h-.06a1.29,1.29,0,0,0-.16-.17h0l0,0h0a2.29,2.29,0,0,0-.23-.21h0a1.59,1.59,0,0,0-.24-.2h0a4.59,4.59,0,0,0-.51-.35H501l0,0h0l-.16-.08h-.17l-.1,0H500l-.15,0h-.11a4,4,0,0,0-.62-.08h-.28Zm-24,0h-12a1.5,1.5,0,1,0,0,3h12a1.5,1.5,0,0,0,0-3Zm-24,0h-12a1.5,1.5,0,0,0,0,3h12a1.5,1.5,0,0,0,0-3Zm-24,0h-12a1.5,1.5,0,0,0,0,3h12a1.5,1.5,0,0,0,0-3Zm-24,0h-12a1.5,1.5,0,0,0,0,3h12a1.5,1.5,0,0,0,0-3Zm-24,0h-12a1.5,1.5,0,0,0,0,3h12a1.5,1.5,0,0,0,0-3Zm-24,0h-12a1.5,1.5,0,0,0,0,3h12a1.5,1.5,0,0,0,0-3Zm-24,0h-12a1.5,1.5,0,0,0,0,3h12a1.5,1.5,0,0,0,0-3Zm-24,0h-12a1.5,1.5,0,0,0,0,3h12a1.5,1.5,0,0,0,0-3Zm-24,0h-12a1.5,1.5,0,0,0,0,3h12a1.5,1.5,0,0,0,0-3Zm-24,0h-12a1.5,1.5,0,0,0,0,3h12a1.5,1.5,0,0,0,0-3Zm-24,0h-12a1.5,1.5,0,0,0,0,3h12a1.5,1.5,0,0,0,0-3Zm-24,0h-12a1.5,1.5,0,0,0,0,3h12a1.5,1.5,0,0,0,0-3Zm-24,0h-12a1.5,1.5,0,0,0,0,3h12a1.5,1.5,0,0,0,0-3Zm-24,0h-12a1.5,1.5,0,0,0,0,3h12a1.5,1.5,0,0,0,0-3Zm-24,0h-12a1.5,1.5,0,0,0,0,3h12a1.5,1.5,0,0,0,0-3Zm-24,0H103.45a4.72,4.72,0,0,0-.64.1,1.5,1.5,0,0,0,.34,3,1.66,1.66,0,0,0,.32,0,1.24,1.24,0,0,1,.33,0h11a1.5,1.5,0,0,0,0-3Zm-14,8.92a1.5,1.5,0,0,0-1.5,1.5v12a1.5,1.5,0,1,0,3,0v-12a1.5,1.5,0,0,0-1.5-1.5Zm0,24a1.5,1.5,0,0,0-1.5,1.5v12a1.5,1.5,0,1,0,3,0v-12a1.5,1.5,0,0,0-1.5-1.5Zm0,24a1.5,1.5,0,0,0-1.5,1.5v12a1.5,1.5,0,0,0,3,0v-12a1.5,1.5,0,0,0-1.5-1.5Zm0,24a1.5,1.5,0,0,0-1.5,1.5v12a1.5,1.5,0,1,0,3,0v-12a1.5,1.5,0,0,0-1.5-1.5Zm0,24a1.5,1.5,0,0,0-1.5,1.5v12a1.5,1.5,0,1,0,3,0v-12a1.5,1.5,0,0,0-1.5-1.5Zm0,24a1.5,1.5,0,0,0-1.5,1.5v12a1.5,1.5,0,1,0,3,0v-12a1.5,1.5,0,0,0-1.5-1.5Zm0,24a1.5,1.5,0,0,0-1.5,1.5v12a1.5,1.5,0,1,0,3,0v-12a1.5,1.5,0,0,0-1.5-1.5Zm0,24a1.5,1.5,0,0,0-1.5,1.5v12a1.5,1.5,0,1,0,3,0v-12a1.5,1.5,0,0,0-1.5-1.5Zm0,24a1.5,1.5,0,0,0-1.5,1.5v12a1.5,1.5,0,0,0,3,0v-12a1.5,1.5,0,0,0-1.5-1.5Zm0,24a1.5,1.5,0,0,0-1.5,1.5v12a1.5,1.5,0,0,0,3,0v-12a1.5,1.5,0,0,0-1.5-1.5Zm.06,23.69-.3,0a1.5,1.5,0,0,0-1.17,1.77,4.38,4.38,0,0,0,.78,1.76h0l0,.06h0l0,.05h0l0,0h0l0,0h0l0,0h0l0,0h0l0,0h0l0,0h0l0,0h0l0,0h0l0,0h8.78a1.5,1.5,0,0,0,0-3H103.8a1.49,1.49,0,0,1-1.46-1.19,1.51,1.51,0,0,0-1.47-1.2ZM133.65,312h-12a1.5,1.5,0,1,0,0,3h12a1.5,1.5,0,0,0,0-3Zm24,0h-12a1.5,1.5,0,1,0,0,3h12a1.5,1.5,0,0,0,0-3Zm24,0h-12a1.5,1.5,0,1,0,0,3h12a1.5,1.5,0,0,0,0-3Zm24,0h-12a1.5,1.5,0,1,0,0,3h12a1.5,1.5,0,0,0,0-3Zm24,0h-12a1.5,1.5,0,1,0,0,3h12a1.5,1.5,0,0,0,0-3Zm24,0h-12a1.5,1.5,0,1,0,0,3h12a1.5,1.5,0,0,0,0-3Zm24,0h-12a1.5,1.5,0,0,0,0,3h12a1.5,1.5,0,0,0,0-3Zm24,0h-12a1.5,1.5,0,0,0,0,3h12a1.5,1.5,0,0,0,0-3Zm24,0h-12a1.5,1.5,0,0,0,0,3h12a1.5,1.5,0,0,0,0-3Zm24,0h-12a1.5,1.5,0,0,0,0,3h12a1.5,1.5,0,0,0,0-3Zm24,0h-12a1.5,1.5,0,0,0,0,3h12a1.5,1.5,0,0,0,0-3Zm24,0h-12a1.5,1.5,0,0,0,0,3h12a1.5,1.5,0,0,0,0-3Zm24,0h-12a1.5,1.5,0,0,0,0,3h12a1.5,1.5,0,0,0,0-3Zm24,0h-12a1.5,1.5,0,0,0,0,3h12a1.5,1.5,0,0,0,0-3Zm24,0h-12a1.5,1.5,0,0,0,0,3h12a1.5,1.5,0,0,0,0-3Zm24,0h-12a1.5,1.5,0,0,0,0,3h12a1.5,1.5,0,0,0,0-3Zm8.16-14.77a1.5,1.5,0,0,0-1.5,1.5v11.86a1.54,1.54,0,0,0,1.46,1.57h.07a1.47,1.47,0,0,0,1.46-1.32v-.11h0v0h0v0h0v-.1h0V298.73a1.5,1.5,0,0,0-1.5-1.5Zm0-24a1.5,1.5,0,0,0-1.5,1.5v12a1.5,1.5,0,0,0,3,0v-12a1.5,1.5,0,0,0-1.5-1.5Zm0-24a1.5,1.5,0,0,0-1.5,1.5v12a1.5,1.5,0,0,0,3,0v-12a1.5,1.5,0,0,0-1.5-1.5Zm0-24a1.5,1.5,0,0,0-1.5,1.5v12a1.5,1.5,0,0,0,3,0v-12a1.5,1.5,0,0,0-1.5-1.5Zm0-24a1.5,1.5,0,0,0-1.5,1.5v12a1.5,1.5,0,0,0,3,0v-12a1.5,1.5,0,0,0-1.5-1.5Zm0-24a1.5,1.5,0,0,0-1.5,1.5v12a1.5,1.5,0,0,0,3,0v-12a1.5,1.5,0,0,0-1.5-1.5Zm0-24a1.5,1.5,0,0,0-1.5,1.5v12a1.5,1.5,0,0,0,3,0v-12a1.5,1.5,0,0,0-1.5-1.5Zm0-24a1.5,1.5,0,0,0-1.5,1.5v12a1.5,1.5,0,0,0,3,0v-12a1.5,1.5,0,0,0-1.5-1.5Zm0-24a1.5,1.5,0,0,0-1.5,1.5v12a1.5,1.5,0,0,0,3,0v-12a1.5,1.5,0,0,0-1.5-1.5Zm0-24a1.5,1.5,0,0,0-1.5,1.5v12a1.5,1.5,0,0,0,3,0v-12a1.5,1.5,0,0,0-1.5-1.5Z"/><rect class="cls-3" x="141.31" y="52" width="73" height="17"/><rect class="cls-2" x="270.31" y="152" width="201" height="111" rx="4.49"/><path class="cls-2" d="M158.79,56.33a2.37,2.37,0,0,0-2.51-2,2,2,0,0,0-2.19,1.84,1.65,1.65,0,0,0,1.49,1.64l1.84.38c2.25.45,3.45,1.87,3.45,3.67,0,2-1.6,3.87-4.51,3.87-3.25,0-4.74-2.09-4.94-3.93l2-.57a2.74,2.74,0,0,0,2.92,2.56c1.53,0,2.32-.78,2.32-1.77,0-.83-.61-1.49-1.71-1.73l-1.8-.38a3.61,3.61,0,0,1-3.24-3.58,4.17,4.17,0,0,1,4.34-3.91c3,0,4.17,1.84,4.46,3.26Z"/><path class="cls-2" d="M171.84,63a4,4,0,0,1-4,2.77,4.67,4.67,0,0,1-.22-9.31c2.7,0,4.28,1.78,4.28,4.56a3,3,0,0,1-.05.66h-6.41a2.35,2.35,0,0,0,2.4,2.29,2.11,2.11,0,0,0,2.19-1.53Zm-2-2.85a2,2,0,0,0-2.16-1.94,2.11,2.11,0,0,0-2.15,1.94Z"/><path class="cls-2" d="M180.33,58.8a5.45,5.45,0,0,0-.68,0c-1.62,0-2.36.93-2.36,2.57V65.5H175.2V56.73h2v1.41a2.85,2.85,0,0,1,3.1-1.46Z"/><path class="cls-2" d="M188.09,65.5H186l-3.56-8.77h2.3L187.06,63l2.27-6.27h2.2Z"/><path class="cls-2" d="M201.81,63a4,4,0,0,1-4,2.77,4.67,4.67,0,0,1-.21-9.31c2.7,0,4.28,1.78,4.28,4.56a3,3,0,0,1,0,.66h-6.41A2.34,2.34,0,0,0,197.84,64a2.12,2.12,0,0,0,2.2-1.53Zm-2-2.85a2,2,0,0,0-2.16-1.94,2.11,2.11,0,0,0-2.15,1.94Z"/><path class="cls-2" d="M210.3,58.8a5.45,5.45,0,0,0-.68,0c-1.62,0-2.36.93-2.36,2.57V65.5h-2.09V56.73h2v1.41a2.66,2.66,0,0,1,2.54-1.52,2.75,2.75,0,0,1,.56.06Z"/><path class="cls-4" d="M297.35,17.77V28.5h-2.16V17.77H291v-2H301.5v2Z"/><path class="cls-4" d="M306.47,28.5h-2.09v-13h2.09v5.12a3.1,3.1,0,0,1,2.5-1.1c2.16,0,3.21,1.55,3.21,3.47V28.5h-2.09V23.31c0-1.08-.49-1.94-1.8-1.94a1.83,1.83,0,0,0-1.82,2Z"/><path class="cls-4" d="M323.73,26a3.94,3.94,0,0,1-4,2.77,4.43,4.43,0,0,1-4.48-4.7,4.4,4.4,0,0,1,4.27-4.61c2.7,0,4.28,1.78,4.28,4.56a3,3,0,0,1,0,.66h-6.41A2.34,2.34,0,0,0,319.77,27a2.13,2.13,0,0,0,2.2-1.53Zm-2-2.85a2,2,0,0,0-2.17-1.94,2.11,2.11,0,0,0-2.14,1.94Z"/><path class="cls-4" d="M332.23,22.13a6.4,6.4,0,0,1,6.42-6.67,5.56,5.56,0,0,1,5.75,4.15l-2,.68a3.53,3.53,0,0,0-3.71-2.79c-2.1,0-4.21,1.53-4.21,4.63a4.22,4.22,0,0,0,4.23,4.57,3.8,3.8,0,0,0,3.8-2.81l2,.65a5.72,5.72,0,0,1-5.78,4.23A6.31,6.31,0,0,1,332.23,22.13Z"/><path class="cls-4" d="M347.55,28.5v-13h2.08v13Z"/><path class="cls-4" d="M362,24.11a4.55,4.55,0,1,1-9.09,0,4.55,4.55,0,1,1,9.09,0Zm-2.1,0a2.47,2.47,0,1,0-4.9,0,2.47,2.47,0,1,0,4.9,0Z"/><path class="cls-4" d="M368.44,28.75a3.24,3.24,0,0,1-3.31-3.49V19.73h2.09v5.15c0,1.08.5,2,1.76,2a1.76,1.76,0,0,0,1.84-2V19.73h2.09V26.9a13.26,13.26,0,0,0,.09,1.6h-2a6.05,6.05,0,0,1-.07-1A2.81,2.81,0,0,1,368.44,28.75Z"/><path class="cls-4" d="M384.92,26.9a13.78,13.78,0,0,0,.09,1.6h-2a8.07,8.07,0,0,1-.09-1.13,2.92,2.92,0,0,1-2.58,1.35c-2.52,0-4.21-2-4.21-4.63a4.31,4.31,0,0,1,4.18-4.59,2.66,2.66,0,0,1,2.57,1.26v-5.3h2Zm-4.34,0c1.36,0,2.32-1.13,2.32-2.81s-.94-2.72-2.31-2.72a2.45,2.45,0,0,0-2.37,2.74C378.22,25.76,379.15,26.88,380.58,26.88Z"/><path class="cls-4" d="M653.5,33.51v5h-2.16V25.73h4.74a3.89,3.89,0,1,1,0,7.78Zm2.25-1.91a1.93,1.93,0,0,0,2.2-2,2,2,0,0,0-2.2-2H653.5v4Z"/><path class="cls-4" d="M666.12,38.75a3.24,3.24,0,0,1-3.31-3.49V29.73h2.08v5.15c0,1.08.51,2,1.77,2a1.76,1.76,0,0,0,1.84-2V29.73h2.08V36.9a15.78,15.78,0,0,0,.09,1.6h-2a5.88,5.88,0,0,1-.08-1A2.79,2.79,0,0,1,666.12,38.75Z"/><path class="cls-4" d="M674.54,38.5v-13h2.05v5.35a3.18,3.18,0,0,1,2.76-1.31c2.63,0,4,2,4,4.57s-1.57,4.65-4.12,4.65a3,3,0,0,1-2.7-1.39V38.5Zm4.39-7.15c-1.33,0-2.35,1-2.35,2.74s1,2.77,2.35,2.77,2.36-1,2.36-2.77S680.32,31.35,678.93,31.35Z"/><path class="cls-4" d="M686.67,38.5v-13h2.09v13Z"/><path class="cls-4" d="M693.75,25.28a1.38,1.38,0,0,1,1.37,1.37,1.36,1.36,0,1,1-1.37-1.37Zm-1,13.22V29.73h2.07V38.5Z"/><path class="cls-4" d="M700.16,34.11a2.49,2.49,0,0,0,2.44,2.75,2.21,2.21,0,0,0,2.2-1.62l1.84.67a4.07,4.07,0,0,1-4,2.86,4.5,4.5,0,0,1-4.53-4.66,4.46,4.46,0,0,1,4.48-4.65,3.93,3.93,0,0,1,4,2.88l-1.88.69a2,2,0,0,0-2.12-1.64A2.45,2.45,0,0,0,700.16,34.11Z"/><path class="cls-4" d="M715.65,38.5V25.73h2.2V38.5Z"/><path class="cls-4" d="M724.08,38.5H722V29.73h2V30.9a2.91,2.91,0,0,1,2.6-1.42c2.14,0,3.17,1.55,3.17,3.47V38.5H727.7V33.31c0-1.08-.49-1.94-1.8-1.94a1.84,1.84,0,0,0-1.82,2.07Z"/><path class="cls-4" d="M736.23,29.73h1.82v1.86h-1.82v4.07c0,.77.34,1.09,1.11,1.09a4.27,4.27,0,0,0,.72-.07v1.73a3.29,3.29,0,0,1-1.27.2A2.42,2.42,0,0,1,734.16,36V31.59h-1.62V29.73H733a1.25,1.25,0,0,0,1.35-1.37V27.05h1.89Z"/><path class="cls-4" d="M749.12,36a4,4,0,0,1-4,2.77,4.43,4.43,0,0,1-4.49-4.7,4.4,4.4,0,0,1,4.27-4.61c2.7,0,4.29,1.78,4.29,4.56a2.69,2.69,0,0,1-.06.66h-6.41a2.35,2.35,0,0,0,2.4,2.29,2.11,2.11,0,0,0,2.19-1.53Zm-2-2.85A2,2,0,0,0,745,31.21a2.1,2.1,0,0,0-2.14,1.94Z"/><path class="cls-4" d="M757.61,31.8a5.45,5.45,0,0,0-.68-.05c-1.62,0-2.36.93-2.36,2.57V38.5h-2.09V29.73h2v1.41a2.85,2.85,0,0,1,3.1-1.46Z"/><path class="cls-4" d="M762.71,38.5h-2.09V29.73h2V30.9a2.91,2.91,0,0,1,2.59-1.42c2.15,0,3.17,1.55,3.17,3.47V38.5h-2.09V33.31c0-1.08-.48-1.94-1.8-1.94a1.83,1.83,0,0,0-1.81,2.07Z"/><path class="cls-4" d="M780,36a4,4,0,0,1-4,2.77,4.43,4.43,0,0,1-4.49-4.7,4.4,4.4,0,0,1,4.27-4.61c2.7,0,4.29,1.78,4.29,4.56a2.69,2.69,0,0,1-.06.66h-6.41A2.35,2.35,0,0,0,776,37a2.11,2.11,0,0,0,2.19-1.53Zm-2-2.85a2,2,0,0,0-2.16-1.94,2.11,2.11,0,0,0-2.14,1.94Z"/><path class="cls-4" d="M786,29.73h1.82v1.86H786v4.07c0,.77.34,1.09,1.11,1.09a4.42,4.42,0,0,0,.73-.07v1.73a3.42,3.42,0,0,1-1.28.2A2.42,2.42,0,0,1,783.91,36V31.59h-1.62V29.73h.45a1.25,1.25,0,0,0,1.35-1.37V27.05H786Z"/><path class="cls-2" d="M658.42,87.57c1.9,0,3,1.12,3,2.67A2.21,2.21,0,0,1,660,92.39a2.38,2.38,0,0,1,1.78,2.36,2.79,2.79,0,0,1-3.08,2.75H655V87.57Zm-.23,4.2a1.39,1.39,0,0,0,1.57-1.39c0-.84-.59-1.38-1.61-1.38h-1.48v2.77Zm.19,4.3c1,0,1.66-.54,1.66-1.43a1.42,1.42,0,0,0-1.61-1.45h-1.76v2.88Z"/><path class="cls-2" d="M668.29,92.29a3.32,3.32,0,0,0-.53,0c-1.26,0-1.84.73-1.84,2V97.5H664.3V90.68h1.58v1.09a2.07,2.07,0,0,1,2-1.18,1.81,1.81,0,0,1,.44,0Z"/><path class="cls-2" d="M677.1,94.08a3.54,3.54,0,1,1-3.55-3.61A3.48,3.48,0,0,1,677.1,94.08Zm-1.64,0a1.92,1.92,0,1,0-3.81,0,1.92,1.92,0,1,0,3.81,0Z"/><path class="cls-2" d="M685,90.68l1.61,4.72L688,90.68h1.65l-2.18,6.82h-1.63l-1.69-4.9-1.66,4.9h-1.66l-2.22-6.82h1.74l1.39,4.72,1.61-4.72Z"/><path class="cls-2" d="M692.66,95.26a1.28,1.28,0,0,0,1.39,1.16c.67,0,1-.36,1-.78s-.25-.65-.8-.76l-1-.22a2.06,2.06,0,0,1-1.83-2,2.36,2.36,0,0,1,2.5-2.2,2.41,2.41,0,0,1,2.64,1.9l-1.37.4a1.18,1.18,0,0,0-1.27-1,.89.89,0,0,0-1,.79.75.75,0,0,0,.69.71l1,.21a2.15,2.15,0,0,1,2,2.08,2.32,2.32,0,0,1-2.58,2.18,2.56,2.56,0,0,1-2.81-2.06Z"/><path class="cls-2" d="M705.22,95.55a3.07,3.07,0,0,1-3.08,2.16,3.63,3.63,0,0,1-.17-7.24c2.1,0,3.34,1.38,3.34,3.54a1.89,1.89,0,0,1,0,.52h-5a1.82,1.82,0,0,0,1.86,1.78,1.65,1.65,0,0,0,1.71-1.19Zm-1.55-2.21A1.53,1.53,0,0,0,702,91.83a1.63,1.63,0,0,0-1.67,1.51Z"/><path class="cls-2" d="M711.83,92.29a3.32,3.32,0,0,0-.53,0c-1.26,0-1.84.73-1.84,2V97.5h-1.62V90.68h1.58v1.09a2.07,2.07,0,0,1,2-1.18,1.81,1.81,0,0,1,.44,0Z"/><path class="cls-2" d="M664.26,136.5v-7.31l-3.1,7.31h-1.45l-3.07-7.28v7.28H655v-9.93h2.24l3.22,7.58,3.18-7.58h2.29v9.93Z"/><path class="cls-2" d="M675.65,133.08a3.54,3.54,0,1,1-3.54-3.61A3.47,3.47,0,0,1,675.65,133.08Zm-1.64,0a1.92,1.92,0,1,0-3.81,0,2,2,0,0,0,1.91,2.17A1.94,1.94,0,0,0,674,133.08Z"/><path class="cls-2" d="M678.2,136.5V126.36h1.59v4.16a2.48,2.48,0,0,1,2.15-1c2,0,3.15,1.55,3.15,3.55s-1.22,3.62-3.21,3.62a2.34,2.34,0,0,1-2.1-1.08v.91Zm3.42-5.56a1.88,1.88,0,0,0-1.84,2.13,1.92,1.92,0,0,0,1.84,2.16c1.06,0,1.83-.82,1.83-2.16S682.69,130.94,681.62,130.94Z"/><path class="cls-2" d="M688.43,126.22a1.06,1.06,0,1,1,0,2.11,1.06,1.06,0,0,1,0-2.11Zm-.8,10.28v-6.82h1.62v6.82Z"/><path class="cls-2" d="M692.32,136.5V126.36H694V136.5Z"/><path class="cls-2" d="M703.07,134.55a3.09,3.09,0,0,1-3.09,2.16,3.63,3.63,0,0,1-.16-7.24c2.1,0,3.33,1.38,3.33,3.54a2.83,2.83,0,0,1,0,.52h-5a1.82,1.82,0,0,0,1.86,1.78,1.65,1.65,0,0,0,1.71-1.19Zm-1.56-2.21a1.53,1.53,0,0,0-1.68-1.51,1.64,1.64,0,0,0-1.67,1.51Z"/><path class="cls-2" d="M716.13,134h-4.21L711,136.5h-1.78l3.87-9.93H715l3.87,9.93h-1.83Zm-3.62-1.56h3L714,128.39Z"/><path class="cls-2" d="M721,139.16v-9.48h1.57v.92a2.45,2.45,0,0,1,2.17-1.08c2,0,3.16,1.55,3.16,3.56s-1.25,3.59-3.21,3.59a2.49,2.49,0,0,1-2.08-.94v3.43Zm3.44-8.19a1.89,1.89,0,0,0-1.84,2.11,1.86,1.86,0,1,0,3.67,0A1.88,1.88,0,0,0,724.46,131Z"/><path class="cls-2" d="M730.46,139.16v-9.48H732v.92a2.44,2.44,0,0,1,2.17-1.08c2,0,3.15,1.55,3.15,3.56s-1.25,3.59-3.21,3.59a2.46,2.46,0,0,1-2.07-.94v3.43Zm3.43-8.19a1.89,1.89,0,0,0-1.83,2.11,1.86,1.86,0,1,0,3.67,0A1.88,1.88,0,0,0,733.89,131Z"/><path class="cls-2" d="M740.71,134.26a1.27,1.27,0,0,0,1.38,1.16c.68,0,1-.36,1-.78s-.26-.65-.8-.76l-1-.22a2.06,2.06,0,0,1-1.83-2,2.36,2.36,0,0,1,2.5-2.2,2.42,2.42,0,0,1,2.64,1.9l-1.38.4a1.17,1.17,0,0,0-1.26-1,.89.89,0,0,0-1,.79.75.75,0,0,0,.69.71l1,.21a2.16,2.16,0,0,1,2,2.08,2.33,2.33,0,0,1-2.58,2.18,2.57,2.57,0,0,1-2.82-2.06Z"/><path class="cls-2" d="M655,206.5v-9.93h6.14v1.57h-4.46v2.63h4v1.53h-4v2.63h4.46v1.57Z"/><path class="cls-2" d="M665.57,203.05l-2.44-3.37h1.94c.12.21,1.37,2,1.5,2.18l1.48-2.18h1.85L667.5,203,670,206.5h-1.9l-1.58-2.28c-.14.21-1.42,2.07-1.55,2.28h-1.86Z"/><path class="cls-2" d="M674.31,199.68h1.41v1.44h-1.41v3.17c0,.6.26.85.86.85a2.87,2.87,0,0,0,.57-.06v1.35a2.68,2.68,0,0,1-1,.15,1.87,1.87,0,0,1-2-2v-3.43h-1.27v-1.44h.36a1,1,0,0,0,1-1.07v-1h1.48Z"/><path class="cls-2" d="M684.33,204.55a3.07,3.07,0,0,1-3.08,2.16,3.63,3.63,0,0,1-.17-7.24c2.1,0,3.34,1.38,3.34,3.54a2.83,2.83,0,0,1,0,.52h-5a1.82,1.82,0,0,0,1.86,1.78,1.65,1.65,0,0,0,1.71-1.19Zm-1.55-2.21a1.53,1.53,0,0,0-1.68-1.51,1.64,1.64,0,0,0-1.67,1.51Z"/><path class="cls-2" d="M690.94,201.29a3.23,3.23,0,0,0-.53,0c-1.26,0-1.84.73-1.84,2v3.25H687v-6.82h1.58v1.09a2.07,2.07,0,0,1,2-1.18,1.81,1.81,0,0,1,.44,0Z"/><path class="cls-2" d="M694.9,206.5h-1.62v-6.82h1.58v.91a2.26,2.26,0,0,1,2-1.11,2.42,2.42,0,0,1,2.46,2.71v4.31h-1.62v-4c0-.85-.38-1.52-1.4-1.52a1.44,1.44,0,0,0-1.42,1.61Z"/><path class="cls-2" d="M703.93,202.59l1.75-.26c.39-.06.51-.26.51-.49,0-.58-.4-1-1.29-1a1.31,1.31,0,0,0-1.4,1.23L702,201.7a2.67,2.67,0,0,1,2.87-2.23c2.1,0,2.9,1.19,2.9,2.55v3.39a5.37,5.37,0,0,0,.09,1.09h-1.52a4.06,4.06,0,0,1-.07-.87,2.37,2.37,0,0,1-2.1,1.08,2.14,2.14,0,0,1-2.31-2.06A2.1,2.1,0,0,1,703.93,202.59Zm2.26,1.08v-.31l-1.78.27c-.51.08-.91.36-.91.92a.9.9,0,0,0,1,.89A1.56,1.56,0,0,0,706.19,203.67Z"/><path class="cls-2" d="M710.72,206.5V196.36h1.62V206.5Z"/><path class="cls-2" d="M725,199.37a1.84,1.84,0,0,0-1.95-1.53,1.57,1.57,0,0,0-1.71,1.43,1.3,1.3,0,0,0,1.17,1.28l1.42.29a2.93,2.93,0,0,1,2.69,2.86c0,1.54-1.24,3-3.51,3a3.53,3.53,0,0,1-3.84-3.05l1.57-.45a2.13,2.13,0,0,0,2.27,2c1.19,0,1.81-.61,1.81-1.38s-.48-1.16-1.34-1.34l-1.4-.29a2.83,2.83,0,0,1-2.52-2.79,3.24,3.24,0,0,1,3.38-3,3.2,3.2,0,0,1,3.47,2.53Z"/><path class="cls-2" d="M729.25,209.26l1.64-3.57-2.91-6h1.84l2,4.31,1.83-4.31h1.72L731,209.26Z"/><path class="cls-2" d="M738.2,204.26a1.28,1.28,0,0,0,1.39,1.16c.67,0,1-.36,1-.78s-.25-.65-.8-.76l-1-.22a2.06,2.06,0,0,1-1.83-2,2.37,2.37,0,0,1,2.51-2.2,2.4,2.4,0,0,1,2.63,1.9l-1.37.4a1.17,1.17,0,0,0-1.26-1,.89.89,0,0,0-1,.79.74.74,0,0,0,.68.71l1,.21a2.15,2.15,0,0,1,2,2.08,2.32,2.32,0,0,1-2.58,2.18,2.56,2.56,0,0,1-2.81-2.06Z"/><path class="cls-2" d="M746.83,199.68h1.41v1.44h-1.41v3.17c0,.6.26.85.86.85a2.75,2.75,0,0,0,.56-.06v1.35a2.56,2.56,0,0,1-1,.15,1.87,1.87,0,0,1-2-2v-3.43H744v-1.44h.35a1,1,0,0,0,1.05-1.07v-1h1.48Z"/><path class="cls-2" d="M756.85,204.55a3.07,3.07,0,0,1-3.08,2.16,3.63,3.63,0,0,1-.17-7.24c2.1,0,3.34,1.38,3.34,3.54a1.89,1.89,0,0,1-.05.52h-5a1.82,1.82,0,0,0,1.86,1.78,1.65,1.65,0,0,0,1.71-1.19Zm-1.55-2.21a1.53,1.53,0,0,0-1.68-1.51,1.63,1.63,0,0,0-1.67,1.51Z"/><path class="cls-2" d="M759.47,206.5v-6.82H761v.87a2.34,2.34,0,0,1,2-1.07,2.14,2.14,0,0,1,2,1.21,2.41,2.41,0,0,1,2.22-1.21,2.35,2.35,0,0,1,2.41,2.59v4.43h-1.57v-4.16a1.25,1.25,0,0,0-1.32-1.4,1.41,1.41,0,0,0-1.41,1.51v4.05h-1.6v-4.16a1.25,1.25,0,0,0-1.32-1.4,1.39,1.39,0,0,0-1.41,1.51v4.05Z"/><path class="cls-2" d="M773.48,204.26a1.28,1.28,0,0,0,1.39,1.16c.67,0,1-.36,1-.78s-.25-.65-.8-.76l-1-.22a2.06,2.06,0,0,1-1.83-2,2.36,2.36,0,0,1,2.5-2.2,2.41,2.41,0,0,1,2.64,1.9l-1.37.4a1.18,1.18,0,0,0-1.27-1,.89.89,0,0,0-1,.79.75.75,0,0,0,.69.71l1,.21a2.15,2.15,0,0,1,2,2.08,2.32,2.32,0,0,1-2.58,2.18,2.56,2.56,0,0,1-2.81-2.06Z"/><path class="cls-2" d="M660.43,222.12a3.63,3.63,0,0,1-2.71,1.36,2.71,2.71,0,0,1-3-2.6,3.27,3.27,0,0,1,1.73-2.75l.09-.07-.16-.18a3.34,3.34,0,0,1-1.14-2.19,2.55,2.55,0,0,1,2.66-2.53,2.49,2.49,0,0,1,2.72,2.46,3,3,0,0,1-1.4,2.25l-.44.32,1.66,1.72,2.36-2.55v2.1l-1.35,1.5,2.24,2.34h-2.17Zm-1-1.05h0l-1.83-1.95-.34.25a1.66,1.66,0,0,0-.81,1.4,1.27,1.27,0,0,0,1.32,1.25A2.29,2.29,0,0,0,659.4,221.07Zm-1.86-4.23.28.31.57-.42a1.37,1.37,0,0,0,.67-1.13,1.07,1.07,0,0,0-1.1-1.07,1,1,0,0,0-1.08,1.07A1.93,1.93,0,0,0,657.54,216.84Z"/><path class="cls-2" d="M675.64,220.81h-4.2l-.93,2.49h-1.78l3.87-9.93h1.95l3.86,9.93h-1.83ZM672,219.25h3l-1.51-4.06Z"/><path class="cls-2" d="M682.4,219.42v3.88h-1.68v-9.93h3.68a3,3,0,1,1,0,6Zm1.75-1.49a1.5,1.5,0,0,0,1.71-1.52,1.52,1.52,0,0,0-1.71-1.56H682.4v3.08Z"/><path class="cls-2" d="M690.1,223.3v-9.93h1.71v9.93Z"/><path class="cls-2" d="M695.84,221.06a1.27,1.27,0,0,0,1.38,1.16c.68,0,1-.36,1-.78s-.25-.65-.8-.76l-1-.22a2.06,2.06,0,0,1-1.83-2,2.36,2.36,0,0,1,2.5-2.2,2.42,2.42,0,0,1,2.64,1.9l-1.38.4a1.17,1.17,0,0,0-1.26-1,.89.89,0,0,0-1,.79.75.75,0,0,0,.69.71l1,.21a2.16,2.16,0,0,1,2,2.08,2.32,2.32,0,0,1-2.58,2.18,2.57,2.57,0,0,1-2.82-2.06Z"/><path class="cls-2" d="M0,321.5v-9.93H3.52a5,5,0,0,1,0,9.93ZM3.45,320a3.06,3.06,0,0,0,3.15-3.4c0-2.33-1.42-3.45-3.14-3.45H1.68V320Z"/><path class="cls-2" d="M12.59,317.59l1.75-.26c.39-.06.5-.26.5-.49,0-.58-.39-1-1.29-1a1.32,1.32,0,0,0-1.4,1.23l-1.48-.33a2.67,2.67,0,0,1,2.87-2.23c2.1,0,2.9,1.19,2.9,2.55v3.39a7,7,0,0,0,.08,1.09H15a4.06,4.06,0,0,1-.07-.87,2.37,2.37,0,0,1-2.1,1.08,2.14,2.14,0,0,1-2.31-2.06A2.1,2.1,0,0,1,12.59,317.59Zm2.25,1.08v-.31l-1.78.27a.94.94,0,0,0-.91.92.9.9,0,0,0,1,.89A1.55,1.55,0,0,0,14.84,318.67Z"/><path class="cls-2" d="M21.41,314.68h1.41v1.44H21.41v3.17c0,.6.26.85.87.85a2.84,2.84,0,0,0,.56-.06v1.35a2.68,2.68,0,0,1-1,.15,1.87,1.87,0,0,1-2-2v-3.43H18.54v-1.44h.35a1,1,0,0,0,1.05-1.07v-1h1.47Z"/><path class="cls-2" d="M27.12,317.59l1.75-.26c.39-.06.5-.26.5-.49,0-.58-.39-1-1.29-1a1.32,1.32,0,0,0-1.4,1.23l-1.48-.33a2.67,2.67,0,0,1,2.87-2.23c2.1,0,2.9,1.19,2.9,2.55v3.39a7,7,0,0,0,.08,1.09H29.54a4.06,4.06,0,0,1-.07-.87,2.37,2.37,0,0,1-2.1,1.08,2.14,2.14,0,0,1-2.31-2.06A2.1,2.1,0,0,1,27.12,317.59Zm2.25,1.08v-.31l-1.78.27a.94.94,0,0,0-.91.92.9.9,0,0,0,1,.89A1.55,1.55,0,0,0,29.37,318.67Z"/><path class="cls-2" d="M33.91,321.5V311.36H35.5v4.16a2.48,2.48,0,0,1,2.15-1c2,0,3.15,1.55,3.15,3.55s-1.22,3.62-3.21,3.62a2.33,2.33,0,0,1-2.1-1.08v.91Zm3.42-5.56a1.88,1.88,0,0,0-1.84,2.13,1.92,1.92,0,0,0,1.84,2.16c1.06,0,1.83-.82,1.83-2.16S38.4,315.94,37.33,315.94Z"/><path class="cls-2" d="M45,317.59l1.75-.26c.4-.06.51-.26.51-.49,0-.58-.39-1-1.29-1a1.31,1.31,0,0,0-1.4,1.23l-1.49-.33a2.68,2.68,0,0,1,2.88-2.23c2.1,0,2.89,1.19,2.89,2.55v3.39a5.37,5.37,0,0,0,.09,1.09H47.41a3.4,3.4,0,0,1-.07-.87,2.4,2.4,0,0,1-2.11,1.08,2.14,2.14,0,0,1-2.31-2.06A2.1,2.1,0,0,1,45,317.59Zm2.26,1.08v-.31l-1.78.27c-.51.08-.91.36-.91.92a.9.9,0,0,0,1,.89A1.56,1.56,0,0,0,47.24,318.67Z"/><path class="cls-2" d="M52.58,319.26A1.28,1.28,0,0,0,54,320.42c.67,0,1-.36,1-.78s-.25-.65-.8-.76l-1-.22a2.06,2.06,0,0,1-1.84-2,2.37,2.37,0,0,1,2.51-2.2,2.4,2.4,0,0,1,2.63,1.9l-1.37.4a1.17,1.17,0,0,0-1.26-1,.89.89,0,0,0-1,.79.74.74,0,0,0,.68.71l1,.21a2.15,2.15,0,0,1,2,2.08A2.32,2.32,0,0,1,54,321.71a2.56,2.56,0,0,1-2.81-2.06Z"/><path class="cls-2" d="M65.14,319.55a3.07,3.07,0,0,1-3.08,2.16,3.63,3.63,0,0,1-.17-7.24c2.11,0,3.34,1.38,3.34,3.54a2.83,2.83,0,0,1,0,.52h-5a1.82,1.82,0,0,0,1.86,1.78,1.65,1.65,0,0,0,1.71-1.19Zm-1.55-2.21a1.53,1.53,0,0,0-1.68-1.51,1.64,1.64,0,0,0-1.67,1.51Z"/><path class="cls-2" d="M54.31,271.18v.07c0,1.31-2.12,2.81-5.52,3.93a52.07,52.07,0,0,1-15.48,2.07,52.07,52.07,0,0,1-15.48-2.07A19.14,19.14,0,0,1,15,274a7.71,7.71,0,0,1-2.14-1.51,2.47,2.47,0,0,1-.49-.77,1.27,1.27,0,0,1-.06-.18.44.44,0,0,1,0-.1.83.83,0,0,1,0-.22h0l0-.13c.31-2.77,9-5.86,21-5.86S54,268.34,54.31,271.18Z"/><path class="cls-2" d="M54.31,274.69V281c0,1.3-2,2.75-5.36,3.88l-.16.05A52.07,52.07,0,0,1,33.31,287a52.07,52.07,0,0,1-15.48-2.07l-.13,0c-3.38-1.14-5.39-2.59-5.39-3.89v-6.31l.22.16c.16.12.33.24.51.35l.52.32a13.94,13.94,0,0,0,1.34.67c.21.1.43.19.66.28.51.22,1.06.42,1.65.61a53.87,53.87,0,0,0,16.1,2.17,53.87,53.87,0,0,0,16.1-2.17c.59-.19,1.14-.39,1.65-.61.23-.09.45-.18.66-.28a13.94,13.94,0,0,0,1.34-.67l.52-.32c.18-.11.35-.23.51-.35Z"/><path class="cls-3" d="M12.31,271.25h0a.83.83,0,0,0,0,.22A1.8,1.8,0,0,1,12.31,271.25Z"/><path class="cls-2" d="M54.32,290.12h0c0,1.3-2,2.75-5.36,3.88l-.16.05a52.07,52.07,0,0,1-15.48,2.07,52.07,52.07,0,0,1-15.48-2.07l-.13,0c-2.66-.9-4.47-2-5.11-3v0a1.44,1.44,0,0,1-.26-.72v-5.8l.31.23a4.38,4.38,0,0,0,.42.28,4.28,4.28,0,0,0,.42.26l.35.2a17.82,17.82,0,0,0,1.9.89c.47.19,1,.37,1.49.54l.16.05a54.19,54.19,0,0,0,16,2.12,54.19,54.19,0,0,0,15.95-2.12l.16-.05a22.28,22.28,0,0,0,2.8-1.13l.59-.3.35-.2a4.28,4.28,0,0,0,.42-.26,4.38,4.38,0,0,0,.42-.28l.31-.23Z"/><path class="cls-2" d="M17.2,286.83c-.53-.17-1-.35-1.49-.54C16.18,286.47,16.67,286.65,17.2,286.83Z"/><path class="cls-3" d="M15.71,286.29c.47.19,1,.37,1.49.54C16.67,286.65,16.18,286.47,15.71,286.29Zm0,0c.47.19,1,.37,1.49.54C16.67,286.65,16.18,286.47,15.71,286.29Zm0,0c.47.19,1,.37,1.49.54C16.67,286.65,16.18,286.47,15.71,286.29Zm0,0c.47.19,1,.37,1.49.54C16.67,286.65,16.18,286.47,15.71,286.29Zm0,0c.47.19,1,.37,1.49.54C16.67,286.65,16.18,286.47,15.71,286.29Zm0,0c.47.19,1,.37,1.49.54C16.67,286.65,16.18,286.47,15.71,286.29Zm0,0c.47.19,1,.37,1.49.54C16.67,286.65,16.18,286.47,15.71,286.29Z"/><path class="cls-2" d="M54.32,299.88l0,.13c-.31,2.77-9,5.86-21,5.86s-20.68-3.09-21-5.86v-6.46A16.23,16.23,0,0,0,17.2,296l.16.05a54.19,54.19,0,0,0,16,2.12A54.19,54.19,0,0,0,49.26,296l.16-.05a16.47,16.47,0,0,0,4.89-2.4v6.33Z"/><path class="cls-5" d="M405.48,101V99c65.88,0,100.37-1.94,133.72-3.77C569,93.59,597.12,92.05,645.14,92v2c-48,0-76.07,1.59-105.83,3.23C505.93,99.06,471.42,101,405.48,101Z"/><polygon class="cls-5" points="412.16 108.12 413.52 106.64 406.25 99.98 413.42 93.22 412.05 91.76 403.31 100 412.16 108.12"/><polygon class="cls-5" points="638.58 101.25 637.21 99.8 644.37 93.03 637.09 86.37 638.44 84.9 647.31 93 638.58 101.25"/><path class="cls-5" d="M645.14,132c-52.59-.27-84.26-10.31-112.19-19.17C511.24,105.94,492.5,100,468.31,100V98c24.5,0,43.38,6,65.24,12.92,27.8,8.81,59.31,18.8,111.6,19.07Z"/><polygon class="cls-5" points="638.69 122.64 637.29 124.07 644.37 130.94 637.01 137.5 638.34 138.99 647.31 131 638.69 122.64"/><rect class="cls-5" x="477.48" y="207" width="165.66" height="2"/><polygon class="cls-5" points="484.11 216.18 485.47 214.72 478.25 208 485.47 201.29 484.11 199.82 475.31 208 484.11 216.18"/><polygon class="cls-5" points="636.51 216.18 635.15 214.72 642.37 208 635.15 201.29 636.51 199.82 645.31 208 636.51 216.18"/><path class="cls-4" d="M578.81,9a1.5,1.5,0,0,1-1.5-1.5v-6a1.5,1.5,0,0,1,3,0v6A1.5,1.5,0,0,1,578.81,9Z"/><path class="cls-4" d="M578.81,334.38a1.5,1.5,0,0,1-1.5-1.5V321.26a1.5,1.5,0,0,1,3,0v11.62A1.5,1.5,0,0,1,578.81,334.38Zm0-23.24a1.5,1.5,0,0,1-1.5-1.5V298a1.5,1.5,0,0,1,3,0v11.62A1.5,1.5,0,0,1,578.81,311.14Zm0-23.24a1.5,1.5,0,0,1-1.5-1.5V274.78a1.5,1.5,0,0,1,3,0V286.4A1.5,1.5,0,0,1,578.81,287.9Zm0-23.24a1.5,1.5,0,0,1-1.5-1.5V251.53a1.5,1.5,0,1,1,3,0v11.63A1.5,1.5,0,0,1,578.81,264.66Zm0-23.25a1.5,1.5,0,0,1-1.5-1.5V228.29a1.5,1.5,0,1,1,3,0v11.62A1.5,1.5,0,0,1,578.81,241.41Zm0-23.24a1.5,1.5,0,0,1-1.5-1.5V205.05a1.5,1.5,0,1,1,3,0v11.62A1.5,1.5,0,0,1,578.81,218.17Zm0-23.24a1.5,1.5,0,0,1-1.5-1.5V181.81a1.5,1.5,0,1,1,3,0v11.62A1.5,1.5,0,0,1,578.81,194.93Zm0-23.24a1.5,1.5,0,0,1-1.5-1.5V158.57a1.5,1.5,0,1,1,3,0v11.62A1.5,1.5,0,0,1,578.81,171.69Zm0-23.24a1.5,1.5,0,0,1-1.5-1.5V135.33a1.5,1.5,0,0,1,3,0V147A1.5,1.5,0,0,1,578.81,148.45Zm0-23.24a1.5,1.5,0,0,1-1.5-1.5V112.09a1.5,1.5,0,0,1,3,0v11.62A1.5,1.5,0,0,1,578.81,125.21Zm0-23.24a1.5,1.5,0,0,1-1.5-1.5V88.84a1.5,1.5,0,0,1,3,0v11.63A1.5,1.5,0,0,1,578.81,102Zm0-23.25a1.5,1.5,0,0,1-1.5-1.5V65.6a1.5,1.5,0,0,1,3,0V77.22A1.5,1.5,0,0,1,578.81,78.72Zm0-23.24a1.5,1.5,0,0,1-1.5-1.5V42.36a1.5,1.5,0,0,1,3,0V54A1.5,1.5,0,0,1,578.81,55.48Zm0-23.24a1.5,1.5,0,0,1-1.5-1.5V19.12a1.5,1.5,0,0,1,3,0V30.74A1.5,1.5,0,0,1,578.81,32.24Z"/><path class="cls-4" d="M578.81,352a1.5,1.5,0,0,1-1.5-1.5v-6a1.5,1.5,0,0,1,3,0v6A1.5,1.5,0,0,1,578.81,352Z"/><rect class="cls-5" x="371.31" y="121.17" width="2" height="27.66"/><polygon class="cls-5" points="364.13 127.8 365.6 129.16 372.31 121.94 379.02 129.16 380.49 127.8 372.31 119 364.13 127.8"/><polygon class="cls-5" points="364.13 142.2 365.6 140.84 372.31 148.06 379.02 140.84 380.49 142.2 372.31 151 364.13 142.2"/><rect class="cls-5" x="166.31" y="188.17" width="2" height="27.66"/><polygon class="cls-5" points="159.13 194.8 160.59 196.16 167.31 188.94 174.02 196.16 175.49 194.8 167.31 186 159.13 194.8"/><polygon class="cls-5" points="159.13 209.2 160.59 207.84 167.31 215.06 174.02 207.84 175.49 209.2 167.31 218 159.13 209.2"/><path class="cls-5" d="M122.31,297v-2c5,0,16.58,0,26.36-4.74,11.17-5.41,17.09-15.54,17.6-30.13l2,.07C167,297,133.36,297,122.31,297Z"/><polygon class="cls-5" points="158.57 266.24 159.95 267.7 167.12 260.93 173.35 268.58 174.9 267.31 167.31 258 158.57 266.24"/><path class="cls-5" d="M221.17,299.5c-68.18,0-136.37-5.24-149.78-6.32l.16-2c13.93,1.13,87,6.74,157.67,6.3,90-.57,139.14-10.76,142-29.47l2,.3c-3,20.1-51.46,30.58-143.92,31.16Z"/><polygon class="cls-5" points="362.07 272.27 363.11 273.98 371.52 268.83 376.04 277.59 377.82 276.67 372.31 266 362.07 272.27"/><polygon class="cls-5" points="78.64 284.44 79.91 286 72.24 292.2 78.99 299.39 77.53 300.76 69.31 292 78.64 284.44"/><path class="cls-5" d="M305.24,147.89C303.48,120,266.22,105,231.92,105h-.34c-16.59,0-31.88,3.49-43.07,9.68-12.48,6.92-19.44,17-20.14,29.18l-2-.11c.74-12.9,8.06-23.55,21.17-30.82,11.48-6.35,27.12-9.88,44-9.93h.36c18.27,0,36.51,4.1,50.09,11.27,15.64,8.26,24.36,19.84,25.22,33.47Z"/><polygon class="cls-5" points="176.35 138.09 175.03 136.58 167.61 143.08 161.67 135.21 160.08 136.41 167.31 146 176.35 138.09"/><polygon class="cls-5" points="297.21 142.16 298.52 140.64 305.98 147.08 311.86 139.16 313.47 140.36 306.31 150 297.21 142.16"/><path class="cls-3" d="M294.36,183.81H292v7.67h-3.31V172.06h7.45a5.74,5.74,0,0,1,6.08,5.89,5.47,5.47,0,0,1-4.38,5.53l4.38,8h-3.73Zm1.13-2.9c2,0,3.34-1.18,3.34-3s-1.32-3-3.34-3H292v5.94Z"/><path class="cls-3" d="M309.89,191.87c-3.18,0-5-2.36-5-5.32v-8.41H308V186c0,1.64.77,3,2.68,3a2.67,2.67,0,0,0,2.8-3v-7.89h3.17V189a22.67,22.67,0,0,0,.14,2.44h-3a10.58,10.58,0,0,1-.11-1.48A4.27,4.27,0,0,1,309.89,191.87Z"/><path class="cls-3" d="M320.79,191.48V171.65h3.12v8.14a4.82,4.82,0,0,1,4.19-2c4,0,6.17,3,6.17,7s-2.39,7.07-6.27,7.07a4.56,4.56,0,0,1-4.11-2.11v1.78Zm6.68-10.87c-2,0-3.58,1.51-3.58,4.16s1.56,4.22,3.58,4.22,3.59-1.59,3.59-4.22S329.58,180.61,327.47,180.61Z"/><path class="cls-3" d="M337.39,196.88l3.2-7-5.69-11.75h3.58l3.84,8.44,3.59-8.44h3.37l-8.49,18.74Z"/><path class="cls-3" d="M371.19,184.8a6.92,6.92,0,1,1-6.93-7.07A6.79,6.79,0,0,1,371.19,184.8Zm-3.21,0c0-2.77-1.75-4.19-3.72-4.19s-3.73,1.42-3.73,4.19,1.78,4.24,3.73,4.24S368,187.59,368,184.8Z"/><path class="cls-3" d="M377.43,191.48h-3.18V178.14h3.1v1.78a4.42,4.42,0,0,1,3.94-2.16c3.26,0,4.82,2.36,4.82,5.29v8.43h-3.17v-7.89c0-1.64-.74-3-2.74-3-1.81,0-2.77,1.39-2.77,3.15Z"/><path class="cls-3" d="M402.76,183.81h-2.41v7.67H397V172.06h7.45a5.74,5.74,0,0,1,6.08,5.89,5.47,5.47,0,0,1-4.38,5.53l4.38,8h-3.73Zm1.13-2.9c2,0,3.34-1.18,3.34-3s-1.32-3-3.34-3h-3.54v5.94Z"/><path class="cls-3" d="M416.81,183.84l3.43-.52c.76-.11,1-.49,1-1,0-1.12-.76-2-2.52-2a2.58,2.58,0,0,0-2.74,2.42l-2.9-.66c.25-2.3,2.33-4.36,5.62-4.36,4.1,0,5.67,2.33,5.67,5v6.63a11.91,11.91,0,0,0,.16,2.13h-3a7.12,7.12,0,0,1-.14-1.7,4.63,4.63,0,0,1-4.1,2.11c-2.8,0-4.52-1.91-4.52-4C412.79,185.48,414.54,184.17,416.81,183.84Zm4.41,2.11v-.6l-3.48.52a1.84,1.84,0,0,0-1.78,1.81,1.77,1.77,0,0,0,2,1.72C419.69,189.4,421.22,188.55,421.22,186Z"/><path class="cls-3" d="M429.74,171.38a2.08,2.08,0,0,1,2.08,2.08,2.07,2.07,0,1,1-2.08-2.08Zm-1.56,20.1V178.14h3.15v13.34Z"/><path class="cls-3" d="M435.44,191.48V171.65h3.17v19.83Z"/><path class="cls-3" d="M444.31,187.1a2.5,2.5,0,0,0,2.71,2.27c1.32,0,2-.71,2-1.53s-.49-1.26-1.56-1.48l-2-.44c-2.36-.52-3.59-2-3.59-3.89a4.63,4.63,0,0,1,4.9-4.3c3.73,0,4.93,2.41,5.15,3.73l-2.68.76a2.3,2.3,0,0,0-2.47-2,1.73,1.73,0,0,0-1.91,1.54,1.47,1.47,0,0,0,1.34,1.4l2,.41c2.52.55,3.84,2.08,3.84,4.05s-1.64,4.27-5,4.27c-3.86,0-5.34-2.52-5.51-4Z"/><rect class="cls-3" x="284.31" y="205.47" width="123.55" height="40.53" rx="9.63"/><path class="cls-2" d="M398.23,247H293.94a10.64,10.64,0,0,1-10.63-10.63V215.1a10.64,10.64,0,0,1,10.63-10.63H398.23a10.64,10.64,0,0,1,10.63,10.63v21.27A10.64,10.64,0,0,1,398.23,247ZM293.94,206.47a8.64,8.64,0,0,0-8.63,8.63v21.27a8.64,8.64,0,0,0,8.63,8.63H398.23a8.64,8.64,0,0,0,8.63-8.63V215.1a8.64,8.64,0,0,0-8.63-8.63Z"/><rect class="cls-3" x="308.03" y="205.47" width="123.55" height="40.53" rx="9.63"/><path class="cls-2" d="M422,247H317.67A10.65,10.65,0,0,1,307,236.37V215.1a10.65,10.65,0,0,1,10.64-10.63H422a10.64,10.64,0,0,1,10.63,10.63v21.27A10.64,10.64,0,0,1,422,247ZM317.67,206.47A8.65,8.65,0,0,0,309,215.1v21.27a8.65,8.65,0,0,0,8.64,8.63H422a8.64,8.64,0,0,0,8.63-8.63V215.1a8.64,8.64,0,0,0-8.63-8.63Z"/><rect class="cls-3" x="331.76" y="205.47" width="123.55" height="40.53" rx="9.63"/><path class="cls-2" d="M445.68,247H341.39a10.64,10.64,0,0,1-10.63-10.63V215.1a10.64,10.64,0,0,1,10.63-10.63H445.68a10.64,10.64,0,0,1,10.63,10.63v21.27A10.64,10.64,0,0,1,445.68,247ZM341.39,206.47a8.64,8.64,0,0,0-8.63,8.63v21.27a8.64,8.64,0,0,0,8.63,8.63H445.68a8.64,8.64,0,0,0,8.63-8.63V215.1a8.64,8.64,0,0,0-8.63-8.63Z"/><path class="cls-6" d="M376.23,220.49h1.41l-2.83,9.93H373.4l-2.59-8-2.56,8h-1.38L364,220.49h1.42l2.18,7.78,2.49-7.78h1.45l2.55,7.86Z"/><path class="cls-6" d="M384.81,227.05a3.45,3.45,0,1,1-3.45-3.58A3.4,3.4,0,0,1,384.81,227.05Zm-1.35,0a2.12,2.12,0,1,0-2.1,2.41A2.15,2.15,0,0,0,383.46,227.05Z"/><path class="cls-6" d="M390.23,225a4,4,0,0,0-.58-.05c-1.11,0-1.85.59-1.85,2.08v3.37h-1.31v-6.74h1.28v1.18a2.13,2.13,0,0,1,2-1.29,2,2,0,0,1,.44.05Z"/><path class="cls-6" d="M394.79,226.53l2.93,3.89h-1.66l-2.2-3-.93.94v2h-1.31V220.28h1.31v6.39l2.91-3h1.82Z"/><path class="cls-6" d="M404.49,228.5a3,3,0,0,1-3,2.13,3.59,3.59,0,0,1-.17-7.16c2.07,0,3.23,1.43,3.23,3.53a4,4,0,0,1,0,.42h-5.07a2,2,0,0,0,2,2.05,1.83,1.83,0,0,0,1.89-1.36Zm-1.33-2.14a1.7,1.7,0,0,0-1.85-1.72,1.8,1.8,0,0,0-1.83,1.72Z"/><path class="cls-6" d="M410,225a3.77,3.77,0,0,0-.57-.05c-1.11,0-1.85.59-1.85,2.08v3.37h-1.32v-6.74h1.29v1.18a2.12,2.12,0,0,1,2-1.29,1.86,1.86,0,0,1,.43.05Z"/><path class="cls-6" d="M411.91,228.25a1.44,1.44,0,0,0,1.57,1.26c.74,0,1.15-.42,1.15-.89s-.31-.75-.87-.87l-1.15-.25a1.92,1.92,0,0,1-1.68-1.9,2.3,2.3,0,0,1,2.39-2.13,2.4,2.4,0,0,1,2.57,1.81l-1.16.44a1.32,1.32,0,0,0-1.41-1.12,1,1,0,0,0-1.12.89c0,.41.26.7.77.81l1.1.24a2,2,0,0,1,1.86,2,2.23,2.23,0,0,1-2.47,2.08,2.54,2.54,0,0,1-2.74-2Z"/></g></g></svg>