<svg xmlns="http://www.w3.org/2000/svg" xmlns:xlink="http://www.w3.org/1999/xlink" viewBox="0 0 823.81 294.12"><defs><style>.cls-1,.cls-5{fill:#db1e36;}.cls-2{opacity:0.25;isolation:isolate;fill:url(#linear-gradient);}.cls-3{fill:url(#linear-gradient-2);}.cls-4,.cls-5,.cls-6{stroke:#fff;stroke-linecap:round;stroke-linejoin:round;stroke-width:5px;}.cls-4{fill:url(#linear-gradient-3);}.cls-6{fill:none;}</style><linearGradient id="linear-gradient" x1="598.49" y1="308.59" x2="786.22" y2="49.23" gradientUnits="userSpaceOnUse"><stop offset="0" stop-color="#323232"/><stop offset="1" stop-color="#323232" stop-opacity="0"/></linearGradient><linearGradient id="linear-gradient-2" x1="620.97" y1="179.8" x2="806.92" y2="179.8" gradientUnits="userSpaceOnUse"><stop offset="0" stop-color="#d52b26"/><stop offset="1" stop-color="#851b19"/></linearGradient><linearGradient id="linear-gradient-3" x1="697.32" y1="100.86" x2="649.43" y2="205.44" gradientTransform="translate(301.72 -435.38) rotate(45)" gradientUnits="userSpaceOnUse"><stop offset="0" stop-color="#d52b26"/><stop offset="1" stop-color="#781916"/></linearGradient></defs><title>Asset 3</title><g id="Layer_2" data-name="Layer 2"><g id="Layer_1-2" data-name="Layer 1"><path class="cls-1" d="M273.09,77.92a22.58,22.58,0,0,0-5.59-6.33L177.28,1.29A5.92,5.92,0,0,0,173.66.05H141.37A21.77,21.77,0,0,0,129,3.91L14.31,82.83A5.84,5.84,0,0,0,12,86.18L.78,128.49a23.49,23.49,0,0,0,.29,13l39,124.71.31,1,39.12,26.37,1.65.5H221.43a2.87,2.87,0,0,0,1.81-.63L254,269.35a21.23,21.23,0,0,0,7-9.88L304.15,132a2.93,2.93,0,0,0-.26-2.45ZM173.72,7.34a1.47,1.47,0,0,1,1.77,0l88.39,68.88a16.72,16.72,0,0,1,4.16,4.7l19.56,32.79a1.48,1.48,0,0,1-2.14,2l-109.9-81.1a1.47,1.47,0,0,0-1.74,0L61.48,116.2a4.41,4.41,0,0,1-6.8-2.22L49.74,98.64A1.5,1.5,0,0,1,50.28,97Zm-22,51.83,90.68,65.88a1.49,1.49,0,0,1,.53,1.65L208.29,233.3a1.46,1.46,0,0,1-1.41,1H94.81a1.46,1.46,0,0,1-1.4-1L58.77,126.69a1.49,1.49,0,0,1,.54-1.64L150,59.17A1.52,1.52,0,0,1,151.71,59.17ZM19.42,86.45,132.33,8.75a15.87,15.87,0,0,1,9-2.81h19.72A1.48,1.48,0,0,1,162,8.6L43.36,94.76a1.47,1.47,0,0,0-.53,1.65l8.71,27h0l34.15,105.1a4.42,4.42,0,0,1-4.2,5.78H65.42a1.48,1.48,0,0,1-1.41-1L18.85,88.11A1.49,1.49,0,0,1,19.42,86.45Zm25.3,174.83L5.3,135.31c0-.29,0-.54,0-.81l8.72-33a1.47,1.47,0,0,1,2.83-.07L59.68,239.17a1.45,1.45,0,0,0,1.4,1H199.91A4.42,4.42,0,0,1,204.1,246l-5,15.32a1.47,1.47,0,0,1-1.41,1H46.12A1.49,1.49,0,0,1,44.72,261.28Zm174.91,25.89a1.47,1.47,0,0,1-1.39,1H83.86l-3.29-1L56.4,270.88a1.46,1.46,0,0,1,.82-2.67H202a1.48,1.48,0,0,0,1.4-1l9.46-29-2.75-.9v0l2.8.93,33.49-103.07a4.41,4.41,0,0,1,6.78-2.22l13,9.45a1.5,1.5,0,0,1,.53,1.66Zm77.91-154L254.09,261.49c-.17.23-.33.46-.5.68l-22.52,17.66a1.47,1.47,0,0,1-2.3-1.63l44.89-136.44a1.46,1.46,0,0,0-.54-1.66l-24.68-17.95h0L160.77,58.47a4.41,4.41,0,0,1,0-7.14l13-9.46a1.49,1.49,0,0,1,1.74,0L297,131.51A1.49,1.49,0,0,1,297.54,133.17Z"/><path class="cls-1" d="M429.19,99.83v41.73h40.13v10.65H429.19V194.3H417.83V152.21H377.7V141.56h40.13V99.83Z"/><path class="cls-2" d="M808.35,15.45c-20.65-20.65-58.24-19.89-100.21-2-23.36-12.44-72,8.59-114.19,50.78s-63.22,90.83-50.78,114.19c-17.93,42-18.69,79.56,2,100.21,15.51,15.51,40.58,18.94,69.88,12.1h0l191-12.58,16.1-200.73h0C826.57,51.56,822.45,29.56,808.35,15.45Z"/><polygon class="cls-3" points="620.97 275.58 792.45 264.29 806.92 84.02 620.97 275.58"/><ellipse class="cls-4" cx="676.41" cy="146.52" rx="167.15" ry="83.27" transform="translate(94.51 521.21) rotate(-45)"/><ellipse class="cls-5" cx="634.94" cy="105.05" rx="105.73" ry="46.5" transform="translate(111.69 479.74) rotate(-45)"/><polyline class="cls-6" points="764.52 17.16 724.98 41.23 804.06 51.54"/><polyline class="cls-6" points="724.98 41.23 800.62 100.54 705.21 108.27 777.41 153.83 792.88 264.72 730.99 209.62 666.9 257.4 792.88 264.72"/><polyline class="cls-6" points="544.47 226.04 563.38 194.23 597.76 275.03 630.42 176.18 730.99 207.99 705.21 108.27"/><line class="cls-6" x1="630.85" y1="175.75" x2="668.67" y2="257.41"/><line class="cls-6" x1="563.38" y1="194.23" x2="559.94" y2="264.72"/></g></g></svg>