<?xml version="1.0" encoding="utf-8"?>
<!-- Generator: Adobe Illustrator 25.0.0, SVG Export Plug-In . SVG Version: 6.00 Build 0)  -->
<svg version="1.1" id="Layer_1" xmlns="http://www.w3.org/2000/svg" xmlns:xlink="http://www.w3.org/1999/xlink" x="0px" y="0px"
	 viewBox="0 0 251 85.8" style="enable-background:new 0 0 251 85.8;" xml:space="preserve">
<style type="text/css">
	.st0{fill:#3CBEB1;}
</style>
<g id="Layer_2_1_">
	<g id="Layer_1-2">
		<path class="st0" d="M251,42.9c0-6.4-8-12.4-20.2-16.2c2.8-12.5,1.6-22.4-4-25.6c-1.3-0.8-2.8-1.1-4.4-1.1v4.4
			c0.8,0,1.6,0.1,2.2,0.5c2.7,1.5,3.8,7.4,2.9,14.9c-0.2,1.8-0.6,3.8-1,5.8c-4.1-1-8.3-1.7-12.5-2.1c-2.5-3.5-5.2-6.7-8.2-9.8
			c6.4-5.9,12.4-9.2,16.5-9.2V0l0,0C217,0,210,3.8,202.8,10.5c-7.1-6.6-14.2-10.4-19.6-10.4v4.4c4.1,0,10.1,3.2,16.5,9.1
			c-2.9,3.1-5.6,6.4-8.1,9.8c-4.2,0.4-8.4,1.2-12.5,2.2c-0.4-2-0.8-3.9-1-5.7c-0.9-7.5,0.2-13.3,2.9-14.9c0.7-0.4,1.5-0.5,2.3-0.5
			V0.1l0,0c-1.6,0-3.1,0.3-4.4,1.1c-5.5,3.2-6.8,13.1-3.9,25.5c-12.2,3.8-20.2,9.8-20.2,16.2s8,12.4,20.2,16.2
			c-2.8,12.5-1.6,22.4,4,25.6c1.3,0.8,2.9,1.1,4.4,1.1c5.4,0,12.5-3.8,19.6-10.5c7.1,6.6,14.2,10.4,19.6,10.4c1.5,0,3.1-0.3,4.4-1.1
			c5.5-3.2,6.8-13.1,3.9-25.5C243.1,55.3,251,49.2,251,42.9z M225.4,29.8c-0.7,2.5-1.6,5.1-2.6,7.8c-0.8-1.6-1.6-3.1-2.6-4.7
			s-1.9-3.1-2.8-4.6C220.2,28.7,222.9,29.2,225.4,29.8z M216.4,50.7c-1.5,2.7-3.1,5.2-4.7,7.5c-2.9,0.3-5.9,0.4-8.9,0.4
			s-5.9-0.1-8.8-0.4c-1.6-2.3-3.2-4.8-4.8-7.5c-1.5-2.6-2.9-5.2-4.1-7.8c1.2-2.6,2.6-5.3,4.1-7.8s3.1-5.2,4.7-7.5
			c2.9-0.3,5.9-0.4,8.9-0.4s5.9,0.1,8.8,0.4c1.6,2.3,3.2,4.8,4.8,7.5s2.9,5.2,4.1,7.8C219.3,45.5,217.9,48.1,216.4,50.7L216.4,50.7z
			 M222.8,48.1c1,2.6,1.9,5.2,2.7,7.9c-2.6,0.6-5.3,1.2-8.1,1.6c1-1.5,1.9-3.1,2.8-4.7S222,49.7,222.8,48.1L222.8,48.1z M202.9,69.1
			c-1.9-2-3.8-4.1-5.5-6.3c1.8,0.1,3.6,0.1,5.4,0.1s3.7,0,5.5-0.1C206.6,65,204.8,67.1,202.9,69.1L202.9,69.1z M188.3,57.5
			c-2.8-0.4-5.5-0.9-8-1.5c0.7-2.5,1.6-5.1,2.6-7.8c0.8,1.6,1.6,3.1,2.6,4.7S187.3,56,188.3,57.5L188.3,57.5z M202.8,16.7
			c1.9,2,3.8,4.1,5.5,6.3c-1.8-0.1-3.6-0.1-5.4-0.1s-3.7,0-5.5,0.1C199.1,20.8,200.9,18.7,202.8,16.7L202.8,16.7z M188.3,28.2
			c-1,1.5-1.9,3.1-2.8,4.7c-0.9,1.6-1.8,3.1-2.6,4.7c-1-2.6-1.9-5.2-2.7-7.8C182.8,29.2,185.5,28.7,188.3,28.2z M170.5,52.8
			c-6.9-3-11.4-6.8-11.4-9.9s4.5-7,11.4-9.9c1.7-0.7,3.5-1.4,5.4-2c1.2,4.1,2.7,8.1,4.4,12c-1.7,3.9-3.2,7.8-4.4,11.9
			C174.1,54.2,172.3,53.6,170.5,52.8z M181.1,80.9c-2.7-1.5-3.8-7.4-2.9-14.9c0.2-1.8,0.6-3.8,1-5.8c4.1,1,8.3,1.7,12.5,2.1
			c2.5,3.5,5.2,6.7,8.2,9.8c-6.4,5.9-12.4,9.2-16.5,9.2C182.5,81.4,181.7,81.2,181.1,80.9z M227.6,65.9c0.9,7.5-0.2,13.3-2.9,14.9
			c-0.7,0.4-1.5,0.5-2.3,0.5c-4.1,0-10.1-3.2-16.5-9.1c2.9-3.1,5.6-6.4,8.1-9.8c4.2-0.4,8.4-1.1,12.5-2.1
			C227,62.1,227.4,64,227.6,65.9L227.6,65.9z M235.2,52.8c-1.8,0.8-3.6,1.4-5.4,2c-1.2-4.1-2.7-8.1-4.4-12c1.7-3.8,3.2-7.8,4.4-11.8
			c1.9,0.6,3.8,1.3,5.5,2c7,3,11.4,6.8,11.4,9.9S242.1,49.9,235.2,52.8L235.2,52.8z"/>
		<circle class="st0" cx="202.8" cy="42.9" r="9"/>
		<path class="st0" d="M78.8,22.9c-0.4-0.7-1-1.3-1.6-1.8l-26-20.3c-0.3-0.2-0.6-0.4-1-0.4h-9.4c-1.3,0-2.5,0.4-3.6,1.1L4.1,24.3
			c-0.3,0.2-0.6,0.6-0.7,1L0.2,37.5c-0.3,1.2-0.3,2.5,0.1,3.8l11.3,36l0.1,0.3L23,85.2l0.5,0.1h40.4c0.2,0,0.4-0.1,0.5-0.2l8.9-6.9
			c0.9-0.7,1.6-1.7,2-2.9l12.5-36.8c0.1-0.2,0.1-0.5-0.1-0.7L78.8,22.9z M50.1,2.5c0.2-0.1,0.4-0.1,0.5,0l25.5,19.9
			c0.5,0.4,0.9,0.8,1.2,1.4l5.6,9.5c0.1,0.2,0.1,0.5-0.1,0.6c-0.1,0.1-0.3,0.1-0.5,0L50.7,10.4c-0.1-0.1-0.4-0.1-0.5,0L17.7,34
			c-0.6,0.4-1.4,0.3-1.8-0.2c-0.1-0.1-0.2-0.3-0.2-0.4l-1.4-4.5c-0.1-0.2,0-0.4,0.1-0.5L50.1,2.5z M43.8,17.5l26.2,19
			c0.1,0.1,0.2,0.3,0.2,0.5l-10,30.8c-0.1,0.2-0.2,0.3-0.4,0.3H27.4c-0.2,0-0.4-0.1-0.4-0.3L17,37c-0.1-0.2,0-0.4,0.2-0.5l26.2-19
			C43.5,17.4,43.6,17.4,43.8,17.5L43.8,17.5z M5.6,25.4L38.2,3c0.8-0.5,1.7-0.8,2.6-0.8h5.7c0.2,0,0.4,0.2,0.4,0.4
			c0,0.1-0.1,0.2-0.2,0.3L12.5,27.8c-0.1,0.1-0.2,0.3-0.1,0.5l2.5,7.8l0,0l9.8,30.3c0.2,0.7-0.2,1.4-0.8,1.6c-0.1,0-0.3,0.1-0.4,0.1
			h-4.6c-0.2,0-0.3-0.1-0.4-0.3l-13-41.9C5.4,25.7,5.5,25.5,5.6,25.4z M12.9,75.8L1.5,39.5c0-0.1,0-0.2,0-0.2L4,29.7
			c0.1-0.2,0.3-0.4,0.5-0.3c0.1,0,0.2,0.1,0.3,0.3l12.4,39.7c0.1,0.2,0.2,0.3,0.4,0.3h40.1c0.7,0,1.3,0.6,1.3,1.3
			c0,0.1,0,0.3-0.1,0.4l-1.4,4.4c-0.1,0.2-0.2,0.3-0.4,0.3H13.3C13.1,76.1,13,76,12.9,75.8z M63.4,83.3c-0.1,0.2-0.2,0.3-0.4,0.3
			H24.2l-1-0.3l-7-4.7C16,78.5,16,78.2,16.1,78c0.1-0.1,0.2-0.2,0.3-0.2h41.9c0.2,0,0.4-0.1,0.4-0.3l2.7-8.4l-0.8-0.3l0,0l0.8,0.3
			l9.7-29.8c0.2-0.7,0.9-1,1.6-0.8c0.1,0,0.3,0.1,0.4,0.2l3.8,2.7C77,41.6,77,41.8,77,42L63.4,83.3z M85.9,38.9l-12.5,37l-0.1,0.2
			l-6.5,5.1c-0.2,0.1-0.5,0.1-0.6-0.1C66,81,66,80.8,66,80.7l13-39.3c0.1-0.2,0-0.4-0.2-0.5l-7.1-5.2l0,0L46.4,17.3
			c-0.6-0.4-0.7-1.2-0.3-1.8c0.1-0.1,0.2-0.2,0.3-0.3l3.8-2.7c0.2-0.1,0.4-0.1,0.5,0l35.1,25.9C85.9,38.5,85.9,38.7,85.9,38.9z"/>
		<path class="st0" d="M123.9,26.2v12h11.6v3.1h-11.6v12.2h-3.3V41.3H109v-3.1h11.6v-12L123.9,26.2z"/>
	</g>
</g>
</svg>
