<svg xmlns="http://www.w3.org/2000/svg" viewBox="0 0 251 85.76"><defs><style>.cls-1{fill:#fcdf1b;}</style></defs><title>Asset 1</title><g id="Layer_2" data-name="Layer 2"><g id="Layer_1-2" data-name="Layer 1"><path class="cls-1" d="M251,42.89c0-6.38-8-12.43-20.24-16.17,2.83-12.49,1.57-22.42-4-25.6A8.59,8.59,0,0,0,222.4,0V4.4a4.5,4.5,0,0,1,2.24.51c2.67,1.53,3.83,7.36,2.92,14.86-.21,1.84-.57,3.78-1,5.77A95.51,95.51,0,0,0,214.1,23.4a96.21,96.21,0,0,0-8.17-9.82c6.4-5.94,12.41-9.2,16.49-9.2V0h0C217,0,210,3.85,202.81,10.52,195.67,3.89,188.6.08,183.2.08V4.46c4.06,0,10.09,3.23,16.49,9.14a93.09,93.09,0,0,0-8.11,9.8,92,92,0,0,0-12.48,2.16q-.67-3-1-5.7c-.92-7.49.21-13.32,2.86-14.87a4.32,4.32,0,0,1,2.26-.51V.1h0a8.73,8.73,0,0,0-4.44,1.1c-5.51,3.18-6.75,13.09-3.9,25.53-12.21,3.77-20.16,9.8-20.16,16.16s8,12.42,20.24,16.17c-2.83,12.49-1.57,22.42,4,25.6a8.61,8.61,0,0,0,4.42,1.1c5.4,0,12.46-3.85,19.61-10.52,7.14,6.63,14.21,10.44,19.61,10.44a8.67,8.67,0,0,0,4.43-1.1c5.52-3.18,6.76-13.09,3.91-25.54C243.05,55.29,251,49.25,251,42.89ZM225.44,29.8c-.72,2.53-1.63,5.14-2.65,7.75-.8-1.57-1.65-3.14-2.57-4.71s-1.86-3.1-2.83-4.59C220.18,28.66,222.87,29.17,225.44,29.8Zm-9,20.9c-1.53,2.65-3.1,5.16-4.73,7.5-2.92.26-5.89.39-8.87.39s-5.93-.13-8.83-.37q-2.45-3.51-4.75-7.46c-1.5-2.57-2.85-5.18-4.09-7.81,1.22-2.63,2.59-5.26,4.07-7.83s3.1-5.17,4.73-7.5c2.92-.26,5.89-.39,8.87-.39s5.93.13,8.83.37c1.63,2.33,3.22,4.83,4.75,7.46s2.85,5.18,4.09,7.81C219.28,45.5,217.92,48.13,216.45,50.7Zm6.34-2.55A82.54,82.54,0,0,1,225.5,56c-2.57.63-5.28,1.16-8.09,1.57,1-1.51,1.93-3.06,2.83-4.65S222,49.72,222.79,48.15Zm-19.9,20.94a79.41,79.41,0,0,1-5.46-6.28c1.77.08,3.57.14,5.4.14s3.67,0,5.46-.14A77.1,77.1,0,0,1,202.89,69.09Zm-14.6-11.56c-2.79-.41-5.48-.92-8-1.55.72-2.53,1.63-5.14,2.65-7.75.8,1.57,1.65,3.14,2.57,4.71S187.32,56,188.29,57.53Zm14.5-40.85A81.46,81.46,0,0,1,208.25,23c-1.77-.08-3.57-.14-5.4-.14s-3.67,0-5.46.14A79,79,0,0,1,202.79,16.68ZM188.27,28.25c-1,1.51-1.93,3.06-2.83,4.65s-1.75,3.14-2.55,4.71a82.54,82.54,0,0,1-2.71-7.81C182.75,29.19,185.46,28.66,188.27,28.25ZM170.5,52.82c-6.95-3-11.44-6.85-11.44-9.93s4.49-7,11.44-9.93c1.69-.73,3.53-1.38,5.44-2a95,95,0,0,0,4.41,12A94.09,94.09,0,0,0,176,54.82,55.92,55.92,0,0,1,170.5,52.82Zm10.56,28.05c-2.67-1.53-3.83-7.36-2.92-14.86.21-1.84.57-3.79,1-5.77a95.51,95.51,0,0,0,12.46,2.14,96.21,96.21,0,0,0,8.17,9.82c-6.4,5.94-12.41,9.2-16.49,9.2A4.64,4.64,0,0,1,181.06,80.87Zm46.56-15c.92,7.5-.21,13.33-2.86,14.88a4.32,4.32,0,0,1-2.26.51c-4.06,0-10.09-3.24-16.49-9.14a93.09,93.09,0,0,0,8.11-9.8A92,92,0,0,0,226.6,60.2,53.89,53.89,0,0,1,227.62,65.91Zm7.56-13.09a56.6,56.6,0,0,1-5.44,2,94,94,0,0,0-4.42-11.95A92.24,92.24,0,0,0,229.68,31q2.92.91,5.52,2c7,3,11.44,6.85,11.44,9.93S242.13,49.88,235.18,52.82Z"/><circle class="cls-1" cx="202.83" cy="42.89" r="8.97"/><path class="cls-1" d="M78.83,22.92a6.9,6.9,0,0,0-1.62-1.83L51.17.81a1.66,1.66,0,0,0-1-.36H40.81a6.29,6.29,0,0,0-3.58,1.11L4.13,24.34a1.65,1.65,0,0,0-.68,1L.23,37.52a6.74,6.74,0,0,0,.08,3.75l11.26,36,.09.29L23,85.17l.48.14H63.91a.85.85,0,0,0,.53-.18l8.87-6.95a6.12,6.12,0,0,0,2-2.86L87.79,38.53a.89.89,0,0,0-.07-.71ZM50.14,2.55a.42.42,0,0,1,.51,0L76.17,22.44a4.9,4.9,0,0,1,1.2,1.36L83,33.26a.42.42,0,0,1-.61.56L50.67,10.41a.42.42,0,0,0-.5,0L17.74,34a1.27,1.27,0,0,1-2-.64L14.36,28.9a.41.41,0,0,1,.15-.47Zm-6.35,15L70,36.53a.43.43,0,0,1,.16.47l-10,30.77a.43.43,0,0,1-.41.3H27.37a.43.43,0,0,1-.41-.3L17,37a.43.43,0,0,1,.16-.47l26.17-19A.45.45,0,0,1,43.79,17.51ZM5.61,25.39,38.2,3a4.57,4.57,0,0,1,2.6-.81h5.7a.43.43,0,0,1,.25.77L12.51,27.78a.44.44,0,0,0-.15.48l2.52,7.8h0L24.73,66.4a1.28,1.28,0,0,1-1.21,1.67H18.88a.43.43,0,0,1-.4-.3l-13-41.91A.41.41,0,0,1,5.61,25.39Zm7.3,50.46L1.53,39.49a1.69,1.69,0,0,0,0-.23L4,29.73a.43.43,0,0,1,.82,0L17.22,69.47a.43.43,0,0,0,.41.29H57.7a1.28,1.28,0,0,1,1.21,1.68l-1.44,4.42a.43.43,0,0,1-.4.29H13.31A.44.44,0,0,1,12.91,75.85Zm50.48,7.47a.41.41,0,0,1-.4.29H24.21l-1-.28-7-4.71a.42.42,0,0,1,.23-.77H58.3a.41.41,0,0,0,.4-.3l2.73-8.37-.79-.26h0l.81.27,9.67-29.75a1.26,1.26,0,0,1,1.95-.64l3.76,2.73A.44.44,0,0,1,77,42ZM85.88,38.87l-12.54,37-.14.19-6.5,5.1a.43.43,0,0,1-.67-.47L79,41.35a.41.41,0,0,0-.16-.48l-7.12-5.18h0L46.41,17.31a1.26,1.26,0,0,1,0-2.06l3.75-2.73a.44.44,0,0,1,.51,0L85.73,38.39A.43.43,0,0,1,85.88,38.87Z"/><path class="cls-1" d="M123.88,26.21v12h11.59v3.07H123.88V53.48H120.6V41.33H109V38.26H120.6v-12Z"/></g></g></svg>