<svg xmlns="http://www.w3.org/2000/svg" viewBox="0 0 581.58 326"><defs><style>.cls-1,.cls-4,.cls-6,.cls-8{fill:none;}.cls-1{stroke:#fde021;}.cls-1,.cls-4{stroke-linejoin:round;stroke-width:2px;}.cls-2{fill:#fde021;}.cls-3{fill:#ff8232;}.cls-4{stroke:#3cbeb1;stroke-linecap:round;}.cls-5{fill:#3cbeb1;}.cls-6{stroke:#ff8232;}.cls-6,.cls-8{stroke-miterlimit:10;}.cls-7{fill:#7b868c;}.cls-8{stroke:#7b868c;}.cls-9{fill:#fff;}</style></defs><title>Asset 5</title><g id="Layer_2" data-name="Layer 2"><g id="outlined"><line class="cls-1" x1="138.2" y1="151.5" x2="138.2" y2="183.83"/><polygon class="cls-2" points="130.02 177.2 131.48 175.84 138.19 183.06 144.91 175.84 146.37 177.2 138.19 186 130.02 177.2"/><line class="cls-1" x1="282.2" y1="151.5" x2="282.2" y2="183.83"/><polygon class="cls-2" points="274.02 177.2 275.48 175.84 282.19 183.06 288.91 175.84 290.37 177.2 282.19 186 274.02 177.2"/><path class="cls-3" d="M13.38,76.87a1.11,1.11,0,0,0-.76-1l-.94-.42a1.92,1.92,0,0,1-1.29-1.82,2.23,2.23,0,0,1,2.38-2.12,2.09,2.09,0,0,1,2.32,2l-.93.18a1.3,1.3,0,0,0-1.47-1.32,1.21,1.21,0,0,0-1.3,1.12,1,1,0,0,0,.66,1l1,.45a2,2,0,0,1,1.38,1.87A2.22,2.22,0,0,1,12,78.86,2.35,2.35,0,0,1,9.43,76.5a1.06,1.06,0,0,1,0-.15l1-.17a1.72,1.72,0,0,0,0,.2A1.5,1.5,0,0,0,12,78C12.83,78,13.38,77.53,13.38,76.87Z"/><path class="cls-3" d="M18.29,78.71l.62-2.91a1.61,1.61,0,0,0,0-.37.78.78,0,0,0-.88-.84,1.48,1.48,0,0,0-1.34,1.32l-.6,2.8h-.94l1.54-7.23h.94l-.6,2.82a1.77,1.77,0,0,1,1.38-.53,1.36,1.36,0,0,1,1.48,1.43,2.58,2.58,0,0,1-.05.46l-.65,3Z"/><path class="cls-3" d="M25.86,73.91l-.75,3.55A4.83,4.83,0,0,0,25,78.55a1.18,1.18,0,0,0,0,.16h-.89a1.6,1.6,0,0,1,0-.28,2.33,2.33,0,0,1,0-.33,1.88,1.88,0,0,1-3.33-1.4,2.71,2.71,0,0,1,2.51-2.93,1.62,1.62,0,0,1,1.5.74l.13-.6Zm-4.12,2.78c0,.76.37,1.31,1.14,1.31.92,0,1.59-1,1.59-2.19a1.09,1.09,0,0,0-1.12-1.24C22.3,74.57,21.74,75.72,21.74,76.69Z"/><path class="cls-3" d="M29.49,74.84c-.77,0-1.42.47-1.66,1.59l-.49,2.28h-.93l.84-4a6.2,6.2,0,0,0,.12-.84h.92a3.49,3.49,0,0,1-.09.74,1.8,1.8,0,0,1,1.58-.82,1.14,1.14,0,0,1,.27,0l-.22,1Z"/><path class="cls-3" d="M31.05,76.57a1,1,0,0,0,0,.17A1.21,1.21,0,0,0,32.26,78a1.57,1.57,0,0,0,1.42-.8l.71.46a2.38,2.38,0,0,1-2.11,1.17,2.06,2.06,0,0,1-2.18-2.19,2.73,2.73,0,0,1,2.64-2.91,1.81,1.81,0,0,1,2,1.93,3,3,0,0,1-.14.88Zm2.69-.76a1,1,0,0,0,0-.2,1,1,0,0,0-1.07-1,1.58,1.58,0,0,0-1.51,1.23Z"/><path class="cls-3" d="M37.28,78.81a1.89,1.89,0,0,1-1.9-2.11,2.71,2.71,0,0,1,2.51-2.93,1.62,1.62,0,0,1,1.5.74l.64-3H41l-1.26,6a4.83,4.83,0,0,0-.11,1.09,1.18,1.18,0,0,0,0,.16h-.89a1.6,1.6,0,0,1,0-.28,2.48,2.48,0,0,1,0-.33A1.85,1.85,0,0,1,37.28,78.81Zm-1-2.12c0,.76.37,1.31,1.14,1.31.92,0,1.59-1,1.59-2.19a1.09,1.09,0,0,0-1.12-1.24C36.89,74.57,36.33,75.72,36.33,76.69Z"/><path class="cls-3" d="M24.54,85.73l-.93.27a2,2,0,0,0-2-1.62c-1.74,0-2.72,1.58-2.72,3.26A2.05,2.05,0,0,0,20.94,90a2.42,2.42,0,0,0,2.28-1.6l.86.35a3.38,3.38,0,0,1-3.23,2.14,3,3,0,0,1-3-3.16,3.91,3.91,0,0,1,3.82-4.22A2.72,2.72,0,0,1,24.54,85.73Z"/><path class="cls-3" d="M26.88,90.86a2.08,2.08,0,0,1-2.14-2.22,2.7,2.7,0,0,1,2.63-2.88A2,2,0,0,1,29.5,88,2.73,2.73,0,0,1,26.88,90.86ZM25.7,88.62A1.24,1.24,0,0,0,26.92,90c.83,0,1.62-.73,1.62-2a1.23,1.23,0,0,0-1.23-1.39C26.49,86.59,25.7,87.31,25.7,88.62Z"/><path class="cls-3" d="M32.05,90.81a1.89,1.89,0,0,1-1.9-2.11,2.71,2.71,0,0,1,2.51-2.93,1.62,1.62,0,0,1,1.5.74l.64-3h.93l-1.26,6a4.83,4.83,0,0,0-.11,1.09,1.18,1.18,0,0,0,0,.16h-.89a1.6,1.6,0,0,1,0-.28,2.48,2.48,0,0,1,0-.33A1.85,1.85,0,0,1,32.05,90.81Zm-.95-2.12c0,.76.37,1.31,1.14,1.31s1.59-1,1.59-2.19a1.09,1.09,0,0,0-1.12-1.24C31.66,86.57,31.1,87.72,31.1,88.69Z"/><path class="cls-3" d="M36.72,88.57a1,1,0,0,0,0,.17A1.21,1.21,0,0,0,37.93,90a1.57,1.57,0,0,0,1.42-.8l.71.46A2.38,2.38,0,0,1,38,90.86a2.06,2.06,0,0,1-2.18-2.19,2.73,2.73,0,0,1,2.64-2.91,1.81,1.81,0,0,1,2,1.93,3,3,0,0,1-.14.88Zm2.69-.76a1,1,0,0,0,0-.2,1,1,0,0,0-1.07-1,1.58,1.58,0,0,0-1.51,1.23Z"/><path class="cls-3" d="M352.89,38.12a3.57,3.57,0,0,1,2.59-3.36,3.42,3.42,0,0,1-2.23-3.19c0-2.22,2-3.78,4.58-3.78s4.58,1.56,4.58,3.78a3.43,3.43,0,0,1-2.23,3.19,3.53,3.53,0,0,1,2.58,3.36c0,2.19-1.8,3.91-4.93,3.91S352.89,40.31,352.89,38.12Zm7.79-.17c0-1.3-1.05-2.33-2.85-2.33S355,36.65,355,38s1,2.29,2.86,2.29S360.68,39.23,360.68,38Zm-.33-6.27a2.54,2.54,0,1,0-2.52,2.22A2.28,2.28,0,0,0,360.35,31.68Z"/><path class="cls-3" d="M365.87,30a5.08,5.08,0,0,1,8.36,0,8.76,8.76,0,0,1,1.22,4.93,8.76,8.76,0,0,1-1.22,4.93,5.08,5.08,0,0,1-8.36,0,8.76,8.76,0,0,1-1.22-4.93A8.76,8.76,0,0,1,365.87,30Zm2,9.34a3.09,3.09,0,0,0,4.32,0c.82-.86,1.2-2.33,1.2-4.41s-.38-3.55-1.2-4.41a3.09,3.09,0,0,0-4.32,0c-.82.86-1.2,2.33-1.2,4.41S367.07,38.46,367.89,39.32Z"/><path class="cls-3" d="M380.59,28a3.31,3.31,0,1,1-3.36,3.3A3.36,3.36,0,0,1,380.59,28Zm-1.68,13.75,9.79-13.6h1.89l-9.75,13.6Zm1.68-8.79A1.65,1.65,0,1,0,379,31.26,1.59,1.59,0,0,0,380.59,32.92Zm8.32,2.35a3.31,3.31,0,1,1-3.36,3.29A3.36,3.36,0,0,1,388.91,35.27Zm0,4.95a1.65,1.65,0,1,0-1.62-1.66A1.58,1.58,0,0,0,388.91,40.22Z"/><path class="cls-3" d="M355.77,94.71V85.12h-3.3V83.67A3.39,3.39,0,0,0,356,81.11h1.81v13.6Z"/><path class="cls-3" d="M362.07,90.43a2.94,2.94,0,0,0,3.07,2.81,2.78,2.78,0,1,0,0-5.56,3.49,3.49,0,0,0-2.48,1c-.72-.28-1.33-.55-2-.8l1.77-6.76h7.18V83h-5.82l-1,3.9a3.82,3.82,0,0,1,2.77-1,4.31,4.31,0,0,1,4.62,4.52,4.67,4.67,0,0,1-5,4.64c-2.9,0-4.85-1.89-5-4Z"/><path class="cls-3" d="M375.17,81a3.31,3.31,0,1,1-3.36,3.3A3.36,3.36,0,0,1,375.17,81Zm-1.68,13.75,9.79-13.6h1.89l-9.74,13.6Zm1.68-8.79a1.65,1.65,0,1,0-1.61-1.66A1.59,1.59,0,0,0,375.17,85.92Zm8.32,2.35a3.31,3.31,0,1,1-3.36,3.29A3.36,3.36,0,0,1,383.49,88.27Zm0,5a1.65,1.65,0,1,0-1.62-1.66A1.59,1.59,0,0,0,383.49,93.22Z"/><path class="cls-3" d="M367.66,208.43a2.93,2.93,0,0,0,3.06,2.81,2.78,2.78,0,1,0,0-5.56,3.51,3.51,0,0,0-2.48,1c-.71-.28-1.32-.55-2-.8l1.76-6.76h7.18V201h-5.81l-1,3.9a3.82,3.82,0,0,1,2.77-1,4.31,4.31,0,0,1,4.62,4.52,4.67,4.67,0,0,1-5,4.64c-2.89,0-4.85-1.89-5-4Z"/><path class="cls-3" d="M380.76,199a3.31,3.31,0,1,1-3.36,3.3A3.36,3.36,0,0,1,380.76,199Zm-1.68,13.75,9.79-13.6h1.88L381,212.71Zm1.68-8.79a1.65,1.65,0,1,0-1.62-1.66A1.6,1.6,0,0,0,380.76,203.92Zm8.32,2.35a3.31,3.31,0,1,1-3.36,3.29A3.36,3.36,0,0,1,389.08,206.27Zm0,4.95a1.65,1.65,0,1,0-1.62-1.66A1.58,1.58,0,0,0,389.08,211.22Z"/><rect class="cls-4" x="90.09" y="12.5" width="240" height="139"/><path class="cls-5" d="M116.63,39h-4.4l-1,2.77h-1.47l4-9.93h1.59l4,9.93h-1.49Zm-3.91-1.28h3.42l-1.72-4.45Z"/><path class="cls-5" d="M120.38,44.4V35h1.28v1.06a2.46,2.46,0,0,1,2.25-1.21c2,0,3.1,1.56,3.1,3.52s-1.17,3.55-3.14,3.55a2.52,2.52,0,0,1-2.19-1.09V44.4ZM123.67,36a2.11,2.11,0,0,0-2,2.36,2.12,2.12,0,0,0,2,2.38c1.22,0,2-1,2-2.38S124.91,36,123.67,36Z"/><path class="cls-5" d="M128.68,44.4V35H130v1.06a2.46,2.46,0,0,1,2.25-1.21c2,0,3.1,1.56,3.1,3.52s-1.16,3.55-3.14,3.55A2.49,2.49,0,0,1,130,40.83V44.4ZM132,36a2.11,2.11,0,0,0-2,2.36,2.12,2.12,0,0,0,2,2.38c1.22,0,2-1,2-2.38S133.21,36,132,36Z"/><path class="cls-5" d="M139.64,38.14l1.38-.31v.94c0,1.32.71,1.91,1.71,1.91s1.62-.66,1.62-1.81V31.81h1.37v7a3,3,0,0,1-3,3.18,2.91,2.91,0,0,1-3.1-3.16Z"/><path class="cls-5" d="M153.2,34.5a2,2,0,0,0-2.1-1.69,1.75,1.75,0,0,0-1.92,1.65,1.43,1.43,0,0,0,1.27,1.44l1.49.32A2.87,2.87,0,0,1,154.52,39,3.14,3.14,0,0,1,151.08,42a3.45,3.45,0,0,1-3.71-3l1.32-.42a2.26,2.26,0,0,0,2.38,2.13c1.37,0,2.05-.72,2.05-1.59a1.63,1.63,0,0,0-1.49-1.54l-1.41-.31a2.74,2.74,0,0,1-2.43-2.71,3.17,3.17,0,0,1,3.28-3,3.13,3.13,0,0,1,3.36,2.47Z"/><path class="cls-5" d="M114.4,80.09v8.65H113V80.09h-3.32V78.81h8v1.28Z"/><path class="cls-5" d="M120.3,88.74H119V78.6h1.32v4.19a2.48,2.48,0,0,1,4.45,1.68v4.27h-1.31v-4c0-.93-.4-1.69-1.57-1.69-1,0-1.54.78-1.57,1.78Z"/><path class="cls-5" d="M127.49,78.5a.95.95,0,1,1,0,1.89.95.95,0,0,1,0-1.89Zm-.64,10.24V82h1.3v6.74Z"/><path class="cls-5" d="M134.13,83.34a3.88,3.88,0,0,0-.57,0c-1.11,0-1.85.59-1.85,2.08v3.37h-1.32V82h1.29v1.18a2.12,2.12,0,0,1,2-1.29,1.86,1.86,0,0,1,.43,0Z"/><path class="cls-5" d="M140.18,87.72a2.26,2.26,0,0,1-2.09,1.2c-2,0-3.19-1.56-3.19-3.57a3.31,3.31,0,0,1,3.19-3.53A2.07,2.07,0,0,1,140.15,83V78.6h1.3v8.9a11.6,11.6,0,0,0,.07,1.24h-1.27a5.33,5.33,0,0,1-.07-.91Zm-2,0c1.2,0,1.95-1.05,1.95-2.44S139.44,83,138.23,83a2.09,2.09,0,0,0-2,2.36C136.24,86.74,137,87.76,138.22,87.76Z"/><path class="cls-5" d="M148.7,84.68v4.06h-1.37V78.81h3.61a2.94,2.94,0,1,1,0,5.87Zm2-1.23a1.69,1.69,0,0,0,1.92-1.68A1.71,1.71,0,0,0,150.69,80h-2v3.41Z"/><path class="cls-5" d="M156.75,84.89l1.82-.27c.41-.05.52-.26.52-.5,0-.66-.43-1.2-1.45-1.2a1.42,1.42,0,0,0-1.53,1.35L154.85,84a2.6,2.6,0,0,1,2.76-2.19c2,0,2.8,1.15,2.8,2.47v3.38a7.54,7.54,0,0,0,.08,1.1H159.2a5.83,5.83,0,0,1-.07-.91A2.43,2.43,0,0,1,157,89a2,2,0,1,1-.21-4.06Zm2.34,1v-.31l-2.06.31a1,1,0,0,0-1,1,1,1,0,0,0,1.1,1A1.77,1.77,0,0,0,159.09,85.86Z"/><path class="cls-5" d="M166.19,83.34a3.88,3.88,0,0,0-.57,0c-1.11,0-1.85.59-1.85,2.08v3.37h-1.32V82h1.29v1.18a2.12,2.12,0,0,1,2-1.29,1.86,1.86,0,0,1,.43,0Z"/><path class="cls-5" d="M169.7,82h1.46v1.2H169.7v3.5c0,.61.26.92.94.92a3.53,3.53,0,0,0,.52-.05v1.12a3,3,0,0,1-.9.12,1.74,1.74,0,0,1-1.87-1.92V83.2H167.1V82h.36a.94.94,0,0,0,1-1V79.88h1.2Z"/><path class="cls-5" d="M173.22,91.56,174.9,88,172,82h1.51l2.1,4.66,2-4.66H179l-4.38,9.56Z"/><path class="cls-5" d="M183,85.14l1.37-.31v.94c0,1.32.72,1.91,1.71,1.91a1.58,1.58,0,0,0,1.63-1.81V78.81H189v7a3,3,0,0,1-3,3.18,2.91,2.91,0,0,1-3.1-3.16Z"/><path class="cls-5" d="M196.51,81.5a2,2,0,0,0-2.1-1.69,1.75,1.75,0,0,0-1.92,1.65,1.44,1.44,0,0,0,1.28,1.44l1.48.32A2.87,2.87,0,0,1,197.83,86,3.13,3.13,0,0,1,194.4,89a3.44,3.44,0,0,1-3.71-3l1.31-.42a2.27,2.27,0,0,0,2.39,2.13c1.37,0,2-.72,2-1.59A1.62,1.62,0,0,0,195,84.58l-1.42-.31a2.74,2.74,0,0,1-2.42-2.71,3.4,3.4,0,0,1,6.64-.49Z"/><path class="cls-5" d="M113.7,130.68h-1.48v4.06h-1.39v-9.93h3.74a2.88,2.88,0,0,1,3,3,2.77,2.77,0,0,1-2.41,2.81l2.37,4.16H116Zm.62-1.23a1.69,1.69,0,0,0,1.88-1.68,1.71,1.71,0,0,0-1.88-1.73h-2.1v3.41Z"/><path class="cls-5" d="M125,132.82a3.06,3.06,0,0,1-3,2.13,3.59,3.59,0,0,1-.17-7.16c2.08,0,3.24,1.43,3.24,3.53a2.39,2.39,0,0,1,0,.43h-5.07a2,2,0,0,0,2,2,1.83,1.83,0,0,0,1.89-1.36Zm-1.33-2.14a1.7,1.7,0,0,0-1.85-1.72,1.81,1.81,0,0,0-1.84,1.72Z"/><path class="cls-5" d="M128.29,130.89l1.82-.27c.41-.05.52-.26.52-.5,0-.66-.43-1.2-1.46-1.2a1.42,1.42,0,0,0-1.52,1.35l-1.26-.29a2.6,2.6,0,0,1,2.76-2.19c2,0,2.8,1.15,2.8,2.47v3.38a6.29,6.29,0,0,0,.08,1.1h-1.29a4.77,4.77,0,0,1-.07-.91A2.43,2.43,0,0,1,128.5,135a2,2,0,1,1-.21-4.06Zm2.34,1v-.31l-2.06.31a1,1,0,0,0-1,1,1,1,0,0,0,1.09,1A1.77,1.77,0,0,0,130.63,131.86Z"/><path class="cls-5" d="M134.77,131.37a2.11,2.11,0,0,0,2.06,2.36,1.83,1.83,0,0,0,1.88-1.38l1.16.5a3.09,3.09,0,0,1-3,2.1,3.59,3.59,0,0,1,0-7.16,2.94,2.94,0,0,1,3,2.15l-1.19.5a1.77,1.77,0,0,0-1.81-1.43A2.1,2.1,0,0,0,134.77,131.37Z"/><path class="cls-5" d="M143.17,128h1.46v1.2h-1.46v3.5c0,.61.26.92.94.92a3.53,3.53,0,0,0,.52-.05v1.12a3,3,0,0,1-.9.12,1.75,1.75,0,0,1-1.87-1.92V129.2h-1.29V128h.36a.94.94,0,0,0,1-1v-1.09h1.2Z"/><path class="cls-5" d="M156.76,134.74l-5.37-8.09v8.09H150v-9.93h1.83l5,7.62v-7.62h1.38v9.93Z"/><path class="cls-5" d="M162.12,130.89l1.82-.27c.4-.05.52-.26.52-.5,0-.66-.44-1.2-1.46-1.2a1.43,1.43,0,0,0-1.53,1.35l-1.26-.29a2.6,2.6,0,0,1,2.76-2.19c2,0,2.8,1.15,2.8,2.47v3.38a5.94,5.94,0,0,0,.09,1.1h-1.29a4.77,4.77,0,0,1-.07-.91,2.46,2.46,0,0,1-2.17,1.12,2,2,0,1,1-.21-4.06Zm2.34,1v-.31l-2.06.31a1,1,0,0,0-1,1,1,1,0,0,0,1.09,1A1.77,1.77,0,0,0,164.46,131.86Z"/><path class="cls-5" d="M169.58,128H171v1.2h-1.45v3.5c0,.61.25.92.94.92a3.52,3.52,0,0,0,.51-.05v1.12a2.94,2.94,0,0,1-.89.12,1.75,1.75,0,0,1-1.88-1.92V129.2H167V128h.37a.94.94,0,0,0,1-1v-1.09h1.21Z"/><path class="cls-5" d="M173.43,124.5a.95.95,0,1,1-.94,1A.95.95,0,0,1,173.43,124.5Zm-.65,10.24V128h1.3v6.74Z"/><path class="cls-5" d="M179.41,134.74h-1.33L175.34,128h1.49l1.92,5.2,1.93-5.2h1.42Z"/><path class="cls-5" d="M189,132.82a3.06,3.06,0,0,1-3,2.13,3.59,3.59,0,0,1-.17-7.16c2.07,0,3.23,1.43,3.23,3.53,0,.17,0,.34,0,.43H184a2,2,0,0,0,2,2,1.84,1.84,0,0,0,1.89-1.36Zm-1.33-2.14a1.7,1.7,0,0,0-1.85-1.72,1.8,1.8,0,0,0-1.83,1.72Z"/><path class="cls-5" d="M193.39,131.14l1.37-.31v.94c0,1.32.72,1.91,1.71,1.91a1.58,1.58,0,0,0,1.63-1.81v-7.06h1.37v7a3,3,0,0,1-3,3.18,2.91,2.91,0,0,1-3.1-3.16Z"/><path class="cls-5" d="M206.94,127.5a2,2,0,0,0-2.1-1.69,1.75,1.75,0,0,0-1.92,1.65,1.44,1.44,0,0,0,1.28,1.44l1.48.32a2.87,2.87,0,0,1,2.58,2.79,3.13,3.13,0,0,1-3.43,2.94,3.44,3.44,0,0,1-3.71-2.95l1.31-.42a2.27,2.27,0,0,0,2.39,2.13c1.37,0,2-.72,2-1.59a1.62,1.62,0,0,0-1.48-1.54l-1.42-.31a2.74,2.74,0,0,1-2.42-2.71,3.4,3.4,0,0,1,6.64-.49Z"/><line class="cls-4" x1="90.09" y1="59.5" x2="330.09" y2="59.5"/><line class="cls-4" x1="90.09" y1="105.5" x2="330.09" y2="105.5"/><rect class="cls-4" x="76.09" y="188.5" width="124" height="127"/><path class="cls-5" d="M91.11,212.48a4.21,4.21,0,0,1,4.22-4.42,3.63,3.63,0,0,1,3.75,2.7l-1.1.38a2.51,2.51,0,0,0-2.65-2,3.37,3.37,0,0,0,0,6.7,2.69,2.69,0,0,0,2.71-2l1,.39a3.72,3.72,0,0,1-3.76,2.73A4.18,4.18,0,0,1,91.11,212.48Z"/><path class="cls-5" d="M102.39,216.92a2.13,2.13,0,0,1-2.16-2.31V211h1.13v3.47c0,.79.36,1.49,1.31,1.49a1.3,1.3,0,0,0,1.36-1.48V211h1.13v4.71c0,.45,0,.86.06,1.06h-1.08a5.65,5.65,0,0,1,0-.69A1.87,1.87,0,0,1,102.39,216.92Z"/><path class="cls-5" d="M107.56,214.88a1.24,1.24,0,0,0,1.35,1.08c.63,0,1-.36,1-.76s-.26-.64-.74-.75l-1-.21a1.65,1.65,0,0,1-1.44-1.62,2,2,0,0,1,2-1.83,2.05,2.05,0,0,1,2.2,1.55l-1,.37a1.11,1.11,0,0,0-1.2-1,.86.86,0,0,0-1,.77c0,.35.21.6.66.7l.93.2a1.76,1.76,0,0,1,1.6,1.72,1.92,1.92,0,0,1-2.11,1.78,2.19,2.19,0,0,1-2.36-1.68Z"/><path class="cls-5" d="M114,211h1.25v1H114v3c0,.53.21.79.8.79a2.78,2.78,0,0,0,.45,0v1a2.85,2.85,0,0,1-.77.1,1.5,1.5,0,0,1-1.61-1.64V212h-1.1v-1h.31a.81.81,0,0,0,.89-.88v-.94h1Z"/><path class="cls-5" d="M122.13,213.85a3,3,0,1,1-2.95-3.06A2.91,2.91,0,0,1,122.13,213.85Zm-1.15,0a1.82,1.82,0,1,0-1.8,2.07A1.84,1.84,0,0,0,121,213.85Z"/><path class="cls-5" d="M123.57,216.74V211h1.08v.77a2,2,0,0,1,1.75-.93,1.79,1.79,0,0,1,1.73,1.09,2.06,2.06,0,0,1,1.93-1.09,2,2,0,0,1,2,2.19v3.74h-1.11v-3.62a1.17,1.17,0,0,0-1.23-1.32,1.34,1.34,0,0,0-1.33,1.45v3.49h-1.13v-3.62A1.16,1.16,0,0,0,126,211.8a1.34,1.34,0,0,0-1.34,1.46v3.48Z"/><path class="cls-5" d="M142.74,216.74l-4.59-6.93v6.93H137v-8.5h1.57l4.24,6.52v-6.52H144v8.5Z"/><path class="cls-5" d="M147.34,213.44l1.56-.22c.35-.05.45-.23.45-.43,0-.57-.38-1-1.25-1a1.23,1.23,0,0,0-1.31,1.17l-1.08-.25a2.23,2.23,0,0,1,2.36-1.88c1.73,0,2.4,1,2.4,2.11v2.89a5.89,5.89,0,0,0,.07,1h-1.1a4.59,4.59,0,0,1-.06-.78,2.1,2.1,0,0,1-1.86,1,1.74,1.74,0,1,1-.18-3.48Zm2,.83V214l-1.77.26a.85.85,0,1,0,.1,1.7A1.51,1.51,0,0,0,149.35,214.27Z"/><path class="cls-5" d="M153.74,211H155v1h-1.25v3c0,.53.21.79.8.79a2.78,2.78,0,0,0,.45,0v1a2.85,2.85,0,0,1-.77.1,1.5,1.5,0,0,1-1.61-1.64V212h-1.1v-1h.31a.81.81,0,0,0,.89-.88v-.94h1Z"/><path class="cls-5" d="M157,208a.81.81,0,1,1-.8.81A.81.81,0,0,1,157,208Zm-.55,8.76V211h1.11v5.77Z"/><path class="cls-5" d="M162.16,216.74H161L158.68,211H160l1.64,4.45,1.65-4.45h1.21Z"/><path class="cls-5" d="M170.39,215.1a2.6,2.6,0,0,1-2.59,1.82,3.08,3.08,0,0,1-.14-6.13c1.77,0,2.77,1.23,2.77,3a1.73,1.73,0,0,1,0,.36h-4.34a1.72,1.72,0,0,0,1.74,1.75,1.57,1.57,0,0,0,1.62-1.17Zm-1.14-1.84a1.45,1.45,0,0,0-1.58-1.47,1.55,1.55,0,0,0-1.57,1.47Z"/><path class="cls-5" d="M94.71,251.33v7.41H93.53v-7.41H90.69v-1.09h6.86v1.09Z"/><path class="cls-5" d="M99.76,258.74H98.64v-8.68h1.12v3.59a2.13,2.13,0,0,1,3.82,1.43v3.66h-1.13v-3.46c0-.81-.34-1.45-1.34-1.45s-1.32.67-1.35,1.52Z"/><path class="cls-5" d="M105.93,250a.81.81,0,1,1-.8.81A.81.81,0,0,1,105.93,250Zm-.55,8.76V253h1.11v5.77Z"/><path class="cls-5" d="M111.62,254.11l-.49,0c-.95,0-1.59.5-1.59,1.77v2.89h-1.12V253h1.1v1a1.8,1.8,0,0,1,1.73-1.1,2.58,2.58,0,0,1,.37,0Z"/><path class="cls-5" d="M116.8,257.87a1.93,1.93,0,0,1-1.79,1,2.78,2.78,0,0,1-2.73-3.06,2.83,2.83,0,0,1,2.73-3,1.79,1.79,0,0,1,1.77,1v-3.73h1.11v7.62a9.35,9.35,0,0,0,.06,1.06h-1.09a5.31,5.31,0,0,1-.06-.78Zm-1.68,0c1,0,1.67-.9,1.67-2.08s-.62-2-1.66-2-1.7.84-1.7,2S114,257.9,115.12,257.9Z"/><path class="cls-5" d="M124.11,255.26v3.48h-1.17v-8.5H126a2.51,2.51,0,1,1,0,5Zm1.7-1c1,0,1.65-.56,1.65-1.44a1.46,1.46,0,0,0-1.65-1.48h-1.7v2.92Z"/><path class="cls-5" d="M131,255.44l1.56-.22c.35-.05.44-.23.44-.43,0-.57-.37-1-1.24-1a1.23,1.23,0,0,0-1.31,1.17l-1.08-.25a2.22,2.22,0,0,1,2.36-1.88c1.73,0,2.4,1,2.4,2.11v2.89a5.89,5.89,0,0,0,.07.95h-1.1a4.59,4.59,0,0,1-.06-.78,2.1,2.1,0,0,1-1.86,1,1.74,1.74,0,1,1-.18-3.48Zm2,.83V256l-1.76.26a.85.85,0,1,0,.1,1.7A1.51,1.51,0,0,0,133,256.27Z"/><path class="cls-5" d="M139.1,254.11l-.49,0c-1,0-1.59.5-1.59,1.77v2.89H135.9V253H137v1a1.8,1.8,0,0,1,1.73-1.1,2.58,2.58,0,0,1,.37,0Z"/><path class="cls-5" d="M142.11,253h1.25v1h-1.25v3c0,.53.22.79.8.79a2.78,2.78,0,0,0,.45,0v1a2.85,2.85,0,0,1-.77.1,1.5,1.5,0,0,1-1.61-1.64V254h-1.1v-1h.31a.81.81,0,0,0,.89-.88v-.94h1Z"/><path class="cls-5" d="M145.12,261.15l1.44-3L144.08,253h1.29l1.8,4,1.73-4h1.21l-3.75,8.18Z"/><path class="cls-5" d="M160.08,258.74l-4.59-6.93v6.93h-1.18v-8.5h1.58l4.24,6.52v-6.52h1.18v8.5Z"/><path class="cls-5" d="M164.68,255.44l1.56-.22c.35-.05.44-.23.44-.43,0-.57-.37-1-1.24-1a1.23,1.23,0,0,0-1.31,1.17l-1.08-.25a2.23,2.23,0,0,1,2.36-1.88c1.73,0,2.4,1,2.4,2.11v2.89a5.89,5.89,0,0,0,.07.95h-1.1a4.59,4.59,0,0,1-.06-.78,2.1,2.1,0,0,1-1.86,1,1.74,1.74,0,1,1-.18-3.48Zm2,.83V256l-1.76.26a.85.85,0,1,0,.1,1.7A1.51,1.51,0,0,0,166.68,256.27Z"/><path class="cls-5" d="M171.08,253h1.25v1h-1.25v3c0,.53.21.79.8.79a2.78,2.78,0,0,0,.45,0v1a2.85,2.85,0,0,1-.77.1,1.5,1.5,0,0,1-1.61-1.64V254h-1.1v-1h.31a.81.81,0,0,0,.89-.88v-.94h1Z"/><path class="cls-5" d="M174.38,250a.81.81,0,1,1-.81.81A.81.81,0,0,1,174.38,250Zm-.55,8.76V253h1.11v5.77Z"/><path class="cls-5" d="M179.5,258.74h-1.14L176,253h1.27l1.65,4.45,1.65-4.45h1.21Z"/><path class="cls-5" d="M187.73,257.1a2.61,2.61,0,0,1-2.59,1.82,3.08,3.08,0,0,1-.14-6.13c1.77,0,2.77,1.23,2.77,3a1.73,1.73,0,0,1,0,.36H183.4a1.72,1.72,0,0,0,1.74,1.75,1.57,1.57,0,0,0,1.62-1.17Zm-1.14-1.84a1.45,1.45,0,0,0-1.58-1.47,1.55,1.55,0,0,0-1.57,1.47Z"/><path class="cls-5" d="M94.11,296.26H92.84v3.48H91.65v-8.5h3.2a2.47,2.47,0,0,1,2.61,2.53,2.38,2.38,0,0,1-2.07,2.41l2,3.56H96.05Zm.53-1.05a1.44,1.44,0,0,0,1.61-1.44,1.46,1.46,0,0,0-1.61-1.48h-1.8v2.92Z"/><path class="cls-5" d="M103.75,298.1a2.62,2.62,0,0,1-2.6,1.82,3.08,3.08,0,0,1-.14-6.13c1.78,0,2.77,1.23,2.77,3a3.21,3.21,0,0,1,0,.36H99.42a1.7,1.7,0,0,0,1.73,1.75,1.57,1.57,0,0,0,1.62-1.17Zm-1.14-1.84a1.46,1.46,0,0,0-1.59-1.47,1.56,1.56,0,0,0-1.57,1.47Z"/><path class="cls-5" d="M106.61,296.44l1.56-.22c.35-.05.45-.23.45-.43,0-.57-.37-1-1.25-1a1.24,1.24,0,0,0-1.31,1.17l-1.08-.25a2.23,2.23,0,0,1,2.37-1.88c1.72,0,2.4,1,2.4,2.11v2.89a4.87,4.87,0,0,0,.07.95h-1.11a4.59,4.59,0,0,1-.06-.78,2.09,2.09,0,0,1-1.86,1,1.74,1.74,0,1,1-.18-3.48Zm2,.83V297l-1.77.26a.85.85,0,1,0,.1,1.7A1.51,1.51,0,0,0,108.62,297.27Z"/><path class="cls-5" d="M112.17,296.85a1.82,1.82,0,0,0,1.76,2,1.57,1.57,0,0,0,1.61-1.19l1,.43a2.66,2.66,0,0,1-2.61,1.8,3.07,3.07,0,0,1,0-6.13,2.51,2.51,0,0,1,2.57,1.84l-1,.43a1.51,1.51,0,0,0-1.55-1.22A1.79,1.79,0,0,0,112.17,296.85Z"/><path class="cls-5" d="M119.37,294h1.25v1h-1.25v3c0,.53.22.79.8.79a2.78,2.78,0,0,0,.45,0v1a2.85,2.85,0,0,1-.77.1,1.5,1.5,0,0,1-1.61-1.64V295h-1.1v-1h.31a.8.8,0,0,0,.89-.88v-.94h1Z"/><path class="cls-5" d="M131,299.74l-4.59-6.93v6.93h-1.18v-8.5h1.57l4.25,6.52v-6.52h1.17v8.5Z"/><path class="cls-5" d="M135.61,296.44l1.56-.22c.34-.05.44-.23.44-.43,0-.57-.37-1-1.25-1a1.24,1.24,0,0,0-1.31,1.17l-1.07-.25a2.22,2.22,0,0,1,2.36-1.88c1.73,0,2.4,1,2.4,2.11v2.89a4.87,4.87,0,0,0,.07.95h-1.1a3.7,3.7,0,0,1-.06-.78,2.11,2.11,0,0,1-1.86,1,1.74,1.74,0,1,1-.18-3.48Zm2,.83V297l-1.76.26a.85.85,0,1,0,.09,1.7A1.51,1.51,0,0,0,137.61,297.27Z"/><path class="cls-5" d="M142,294h1.25v1H142v3c0,.53.22.79.81.79a2.76,2.76,0,0,0,.44,0v1a2.78,2.78,0,0,1-.77.1,1.49,1.49,0,0,1-1.6-1.64V295h-1.11v-1h.31a.8.8,0,0,0,.89-.88v-.94h1Z"/><path class="cls-5" d="M145.3,291a.81.81,0,1,1-.8.81A.81.81,0,0,1,145.3,291Zm-.55,8.76V294h1.12v5.77Z"/><path class="cls-5" d="M150.43,299.74h-1.14L147,294h1.27l1.64,4.45,1.66-4.45h1.21Z"/><path class="cls-5" d="M158.66,298.1a2.62,2.62,0,0,1-2.59,1.82,3.08,3.08,0,0,1-.15-6.13c1.78,0,2.77,1.23,2.77,3a3.21,3.21,0,0,1,0,.36h-4.34a1.71,1.71,0,0,0,1.74,1.75,1.58,1.58,0,0,0,1.62-1.17Zm-1.14-1.84a1.46,1.46,0,0,0-1.59-1.47,1.56,1.56,0,0,0-1.57,1.47Z"/><path class="cls-5" d="M162.72,295.48a4.21,4.21,0,0,1,4.22-4.42,3.61,3.61,0,0,1,3.74,2.7l-1.09.38a2.52,2.52,0,0,0-2.65-2,3.37,3.37,0,0,0,0,6.7,2.7,2.7,0,0,0,2.71-2l1,.39a3.71,3.71,0,0,1-3.75,2.73A4.17,4.17,0,0,1,162.72,295.48Z"/><path class="cls-5" d="M177.32,296.85a3,3,0,1,1-2.95-3.06A2.91,2.91,0,0,1,177.32,296.85Zm-1.16,0a1.81,1.81,0,1,0-1.79,2.07A1.83,1.83,0,0,0,176.16,296.85Z"/><path class="cls-5" d="M182,295.11l-.49,0c-.95,0-1.58.5-1.58,1.77v2.89h-1.13V294h1.1v1a1.8,1.8,0,0,1,1.73-1.1,2.45,2.45,0,0,1,.37,0Z"/><path class="cls-5" d="M188.13,298.1a2.62,2.62,0,0,1-2.59,1.82,3.08,3.08,0,0,1-.15-6.13c1.78,0,2.77,1.23,2.77,3a3.21,3.21,0,0,1,0,.36H183.8a1.71,1.71,0,0,0,1.74,1.75,1.58,1.58,0,0,0,1.62-1.17ZM187,296.26a1.45,1.45,0,0,0-1.58-1.47,1.56,1.56,0,0,0-1.58,1.47Z"/><line class="cls-4" x1="76.09" y1="231.44" x2="200.09" y2="231.44"/><line class="cls-4" x1="76.09" y1="273.47" x2="200.09" y2="273.47"/><rect class="cls-4" x="220.09" y="188.5" width="124" height="127"/><path class="cls-5" d="M235.11,212.48a4.21,4.21,0,0,1,4.22-4.42,3.63,3.63,0,0,1,3.75,2.7l-1.1.38a2.51,2.51,0,0,0-2.65-2,3.37,3.37,0,0,0,0,6.7,2.69,2.69,0,0,0,2.71-2l1.05.39a3.72,3.72,0,0,1-3.76,2.73A4.18,4.18,0,0,1,235.11,212.48Z"/><path class="cls-5" d="M246.39,216.92a2.13,2.13,0,0,1-2.16-2.31V211h1.13v3.47c0,.79.36,1.49,1.31,1.49a1.3,1.3,0,0,0,1.36-1.48V211h1.13v4.71c0,.45,0,.86.06,1.06h-1.08a5.65,5.65,0,0,1,0-.69A1.87,1.87,0,0,1,246.39,216.92Z"/><path class="cls-5" d="M251.56,214.88a1.24,1.24,0,0,0,1.35,1.08c.63,0,1-.36,1-.76s-.26-.64-.74-.75l-1-.21a1.65,1.65,0,0,1-1.44-1.62,2,2,0,0,1,2.05-1.83,2.05,2.05,0,0,1,2.2,1.55l-1,.37a1.11,1.11,0,0,0-1.2-1,.86.86,0,0,0-1,.77c0,.35.21.6.66.7l.93.2a1.76,1.76,0,0,1,1.6,1.72,1.92,1.92,0,0,1-2.11,1.78,2.19,2.19,0,0,1-2.36-1.68Z"/><path class="cls-5" d="M258,211h1.25v1H258v3c0,.53.21.79.8.79a2.78,2.78,0,0,0,.45,0v1a2.85,2.85,0,0,1-.77.1,1.5,1.5,0,0,1-1.61-1.64V212h-1.1v-1h.31a.81.81,0,0,0,.89-.88v-.94h1Z"/><path class="cls-5" d="M266.13,213.85a3,3,0,1,1-2.95-3.06A2.91,2.91,0,0,1,266.13,213.85Zm-1.15,0a1.82,1.82,0,1,0-1.8,2.07A1.84,1.84,0,0,0,265,213.85Z"/><path class="cls-5" d="M267.57,216.74V211h1.08v.77a2,2,0,0,1,1.75-.93,1.79,1.79,0,0,1,1.73,1.09,2.06,2.06,0,0,1,1.93-1.09,2,2,0,0,1,2,2.19v3.74h-1.11v-3.62a1.17,1.17,0,0,0-1.23-1.32,1.34,1.34,0,0,0-1.33,1.45v3.49h-1.13v-3.62A1.16,1.16,0,0,0,270,211.8a1.34,1.34,0,0,0-1.34,1.46v3.48Z"/><path class="cls-5" d="M286.74,216.74l-4.59-6.93v6.93H281v-8.5h1.57l4.24,6.52v-6.52H288v8.5Z"/><path class="cls-5" d="M291.34,213.44l1.56-.22c.35-.05.45-.23.45-.43,0-.57-.38-1-1.25-1a1.23,1.23,0,0,0-1.31,1.17l-1.08-.25a2.23,2.23,0,0,1,2.37-1.88c1.72,0,2.39,1,2.39,2.11v2.89a5.89,5.89,0,0,0,.07,1h-1.1a4.59,4.59,0,0,1-.06-.78,2.1,2.1,0,0,1-1.86,1,1.74,1.74,0,1,1-.18-3.48Zm2,.83V214l-1.77.26a.85.85,0,1,0,.1,1.7A1.51,1.51,0,0,0,293.35,214.27Z"/><path class="cls-5" d="M297.74,211H299v1h-1.25v3c0,.53.21.79.8.79a2.78,2.78,0,0,0,.45,0v1a2.85,2.85,0,0,1-.77.1,1.5,1.5,0,0,1-1.61-1.64V212h-1.1v-1h.31a.81.81,0,0,0,.89-.88v-.94h1Z"/><path class="cls-5" d="M301,208a.81.81,0,1,1-.8.81A.8.8,0,0,1,301,208Zm-.55,8.76V211h1.11v5.77Z"/><path class="cls-5" d="M306.16,216.74H305L302.68,211H304l1.64,4.45,1.65-4.45h1.21Z"/><path class="cls-5" d="M314.39,215.1a2.6,2.6,0,0,1-2.59,1.82,3.08,3.08,0,0,1-.14-6.13c1.77,0,2.77,1.23,2.77,3a1.73,1.73,0,0,1,0,.36h-4.34a1.72,1.72,0,0,0,1.74,1.75,1.57,1.57,0,0,0,1.62-1.17Zm-1.14-1.84a1.45,1.45,0,0,0-1.58-1.47,1.55,1.55,0,0,0-1.57,1.47Z"/><path class="cls-5" d="M238.71,251.33v7.41h-1.18v-7.41h-2.84v-1.09h6.86v1.09Z"/><path class="cls-5" d="M243.76,258.74h-1.12v-8.68h1.12v3.59a2.13,2.13,0,0,1,3.82,1.43v3.66h-1.13v-3.46c0-.81-.34-1.45-1.34-1.45s-1.32.67-1.35,1.52Z"/><path class="cls-5" d="M249.93,250a.81.81,0,1,1-.8.81A.81.81,0,0,1,249.93,250Zm-.55,8.76V253h1.11v5.77Z"/><path class="cls-5" d="M255.62,254.11l-.49,0c-.95,0-1.59.5-1.59,1.77v2.89h-1.12V253h1.1v1a1.8,1.8,0,0,1,1.73-1.1,2.58,2.58,0,0,1,.37,0Z"/><path class="cls-5" d="M260.8,257.87a1.93,1.93,0,0,1-1.79,1,2.78,2.78,0,0,1-2.73-3.06,2.83,2.83,0,0,1,2.73-3,1.79,1.79,0,0,1,1.77,1v-3.73h1.11v7.62a9.35,9.35,0,0,0,.06,1.06h-1.09a5.31,5.31,0,0,1-.06-.78Zm-1.68,0c1,0,1.67-.9,1.67-2.08s-.62-2-1.66-2-1.7.84-1.7,2S258,257.9,259.12,257.9Z"/><path class="cls-5" d="M268.11,255.26v3.48h-1.17v-8.5H270a2.51,2.51,0,1,1,0,5Zm1.7-1c1,0,1.65-.56,1.65-1.44a1.46,1.46,0,0,0-1.65-1.48h-1.7v2.92Z"/><path class="cls-5" d="M275,255.44l1.56-.22c.35-.05.44-.23.44-.43,0-.57-.37-1-1.24-1a1.23,1.23,0,0,0-1.31,1.17l-1.08-.25a2.23,2.23,0,0,1,2.36-1.88c1.73,0,2.4,1,2.4,2.11v2.89a5.89,5.89,0,0,0,.07.95h-1.1a3.7,3.7,0,0,1-.06-.78,2.1,2.1,0,0,1-1.86,1,1.74,1.74,0,1,1-.18-3.48Zm2,.83V256l-1.76.26a.85.85,0,1,0,.1,1.7A1.51,1.51,0,0,0,277,256.27Z"/><path class="cls-5" d="M283.1,254.11l-.49,0c-.95,0-1.59.5-1.59,1.77v2.89H279.9V253H281v1a1.8,1.8,0,0,1,1.73-1.1,2.58,2.58,0,0,1,.37,0Z"/><path class="cls-5" d="M286.11,253h1.25v1h-1.25v3c0,.53.22.79.8.79a2.78,2.78,0,0,0,.45,0v1a2.85,2.85,0,0,1-.77.1,1.5,1.5,0,0,1-1.61-1.64V254h-1.1v-1h.31a.8.8,0,0,0,.89-.88v-.94h1Z"/><path class="cls-5" d="M289.12,261.15l1.44-3L288.08,253h1.29l1.8,4,1.73-4h1.21l-3.75,8.18Z"/><path class="cls-5" d="M304.08,258.74l-4.59-6.93v6.93h-1.17v-8.5h1.57l4.24,6.52v-6.52h1.18v8.5Z"/><path class="cls-5" d="M308.68,255.44l1.56-.22c.35-.05.44-.23.44-.43,0-.57-.37-1-1.24-1a1.23,1.23,0,0,0-1.31,1.17l-1.08-.25a2.23,2.23,0,0,1,2.36-1.88c1.73,0,2.4,1,2.4,2.11v2.89a5.89,5.89,0,0,0,.07.95h-1.1a4.59,4.59,0,0,1-.06-.78,2.1,2.1,0,0,1-1.86,1,1.74,1.74,0,1,1-.18-3.48Zm2,.83V256l-1.76.26a.85.85,0,1,0,.1,1.7A1.51,1.51,0,0,0,310.68,256.27Z"/><path class="cls-5" d="M315.08,253h1.25v1h-1.25v3c0,.53.21.79.8.79a2.78,2.78,0,0,0,.45,0v1a2.85,2.85,0,0,1-.77.1,1.5,1.5,0,0,1-1.61-1.64V254h-1.1v-1h.31a.81.81,0,0,0,.89-.88v-.94h1Z"/><path class="cls-5" d="M318.38,250a.81.81,0,1,1,0,1.61.81.81,0,0,1,0-1.61Zm-.55,8.76V253h1.11v5.77Z"/><path class="cls-5" d="M323.5,258.74h-1.14L320,253h1.27l1.65,4.45,1.65-4.45h1.21Z"/><path class="cls-5" d="M331.73,257.1a2.61,2.61,0,0,1-2.59,1.82,3.08,3.08,0,0,1-.14-6.13c1.77,0,2.77,1.23,2.77,3a1.73,1.73,0,0,1,0,.36H327.4a1.72,1.72,0,0,0,1.74,1.75,1.57,1.57,0,0,0,1.62-1.17Zm-1.14-1.84a1.45,1.45,0,0,0-1.58-1.47,1.55,1.55,0,0,0-1.57,1.47Z"/><path class="cls-5" d="M238.11,296.26h-1.27v3.48h-1.19v-8.5h3.2a2.47,2.47,0,0,1,2.61,2.53,2.38,2.38,0,0,1-2.07,2.41l2,3.56h-1.37Zm.53-1.05a1.44,1.44,0,0,0,1.61-1.44,1.46,1.46,0,0,0-1.61-1.48h-1.8v2.92Z"/><path class="cls-5" d="M247.75,298.1a2.62,2.62,0,0,1-2.6,1.82,3.08,3.08,0,0,1-.14-6.13c1.78,0,2.77,1.23,2.77,3a3.21,3.21,0,0,1,0,.36h-4.34a1.7,1.7,0,0,0,1.73,1.75,1.57,1.57,0,0,0,1.62-1.17Zm-1.14-1.84a1.46,1.46,0,0,0-1.59-1.47,1.56,1.56,0,0,0-1.57,1.47Z"/><path class="cls-5" d="M250.61,296.44l1.56-.22c.35-.05.45-.23.45-.43,0-.57-.37-1-1.25-1a1.24,1.24,0,0,0-1.31,1.17l-1.08-.25a2.23,2.23,0,0,1,2.37-1.88c1.72,0,2.4,1,2.4,2.11v2.89a4.87,4.87,0,0,0,.07.95h-1.11a4.59,4.59,0,0,1-.06-.78,2.09,2.09,0,0,1-1.86,1,1.74,1.74,0,1,1-.18-3.48Zm2,.83V297l-1.77.26a.85.85,0,1,0,.1,1.7A1.51,1.51,0,0,0,252.62,297.27Z"/><path class="cls-5" d="M256.17,296.85a1.82,1.82,0,0,0,1.76,2,1.57,1.57,0,0,0,1.61-1.19l1,.43a2.66,2.66,0,0,1-2.61,1.8,3.07,3.07,0,0,1,0-6.13,2.51,2.51,0,0,1,2.57,1.84l-1,.43a1.51,1.51,0,0,0-1.55-1.22A1.79,1.79,0,0,0,256.17,296.85Z"/><path class="cls-5" d="M263.37,294h1.25v1h-1.25v3c0,.53.22.79.8.79a2.78,2.78,0,0,0,.45,0v1a2.85,2.85,0,0,1-.77.1,1.5,1.5,0,0,1-1.61-1.64V295h-1.1v-1h.31a.8.8,0,0,0,.89-.88v-.94h1Z"/><path class="cls-5" d="M275,299.74l-4.59-6.93v6.93h-1.18v-8.5h1.57l4.25,6.52v-6.52h1.17v8.5Z"/><path class="cls-5" d="M279.61,296.44l1.56-.22c.34-.05.44-.23.44-.43,0-.57-.37-1-1.25-1a1.24,1.24,0,0,0-1.31,1.17l-1.07-.25a2.21,2.21,0,0,1,2.36-1.88c1.73,0,2.4,1,2.4,2.11v2.89a4.87,4.87,0,0,0,.07.95h-1.1a3.7,3.7,0,0,1-.06-.78,2.11,2.11,0,0,1-1.86,1,1.74,1.74,0,1,1-.18-3.48Zm2,.83V297l-1.76.26a.85.85,0,1,0,.09,1.7A1.51,1.51,0,0,0,281.61,297.27Z"/><path class="cls-5" d="M286,294h1.25v1H286v3c0,.53.22.79.81.79a2.76,2.76,0,0,0,.44,0v1a2.78,2.78,0,0,1-.77.1,1.49,1.49,0,0,1-1.6-1.64V295h-1.11v-1h.31a.8.8,0,0,0,.89-.88v-.94h1Z"/><path class="cls-5" d="M289.3,291a.81.81,0,1,1-.8.81A.81.81,0,0,1,289.3,291Zm-.55,8.76V294h1.12v5.77Z"/><path class="cls-5" d="M294.43,299.74h-1.14L291,294h1.27l1.64,4.45,1.66-4.45h1.21Z"/><path class="cls-5" d="M302.66,298.1a2.62,2.62,0,0,1-2.59,1.82,3.08,3.08,0,0,1-.15-6.13c1.78,0,2.77,1.23,2.77,3a3.21,3.21,0,0,1,0,.36h-4.34a1.71,1.71,0,0,0,1.74,1.75,1.56,1.56,0,0,0,1.61-1.17Zm-1.14-1.84a1.46,1.46,0,0,0-1.59-1.47,1.56,1.56,0,0,0-1.57,1.47Z"/><path class="cls-5" d="M306.72,295.48a4.21,4.21,0,0,1,4.22-4.42,3.61,3.61,0,0,1,3.74,2.7l-1.09.38a2.52,2.52,0,0,0-2.65-2,3.37,3.37,0,0,0,0,6.7,2.7,2.7,0,0,0,2.71-2l1,.39a3.71,3.71,0,0,1-3.75,2.73A4.17,4.17,0,0,1,306.72,295.48Z"/><path class="cls-5" d="M321.32,296.85a3,3,0,1,1-2.95-3.06A2.91,2.91,0,0,1,321.32,296.85Zm-1.15,0a1.82,1.82,0,1,0-1.8,2.07A1.84,1.84,0,0,0,320.17,296.85Z"/><path class="cls-5" d="M326,295.11l-.49,0c-1,0-1.58.5-1.58,1.77v2.89h-1.13V294h1.1v1a1.8,1.8,0,0,1,1.73-1.1,2.45,2.45,0,0,1,.37,0Z"/><path class="cls-5" d="M332.13,298.1a2.62,2.62,0,0,1-2.59,1.82,3.08,3.08,0,0,1-.15-6.13c1.78,0,2.77,1.23,2.77,3a3.21,3.21,0,0,1,0,.36H327.8a1.71,1.71,0,0,0,1.74,1.75,1.58,1.58,0,0,0,1.62-1.17ZM331,296.26a1.46,1.46,0,0,0-1.58-1.47,1.56,1.56,0,0,0-1.58,1.47Z"/><line class="cls-4" x1="220.09" y1="231.44" x2="344.09" y2="231.44"/><line class="cls-4" x1="220.09" y1="273.47" x2="344.09" y2="273.47"/><polyline class="cls-6" points="76.09 0.5 58.09 0.5 58.09 164.5 76.09 164.5"/><polyline class="cls-6" points="335.09 12.5 344.09 12.5 344.09 57.5 335.09 57.5"/><polyline class="cls-6" points="335.09 60.5 344.09 60.5 344.09 105.5 335.09 105.5"/><polyline class="cls-6" points="347.09 189.5 356.09 189.5 356.09 230.5 347.09 230.5"/><polyline class="cls-6" points="203.09 189.5 212.09 189.5 212.09 230.5 203.09 230.5"/><path class="cls-3" d="M3.75,234.63a1.8,1.8,0,0,1,2,1.8,2.39,2.39,0,0,1-2.61,2.34H1.6L1,241.71H0l1.5-7.08Zm-1.45.87-.52,2.4H3.12a1.44,1.44,0,0,0,1.62-1.41c0-.59-.41-1-1.15-1Z"/><path class="cls-3" d="M5.78,241.71l1.54-7.23h.94l-1.54,7.23Z"/><path class="cls-3" d="M13.45,236.91l-.75,3.55a4.83,4.83,0,0,0-.11,1.09,1.18,1.18,0,0,0,0,.16h-.89a1.6,1.6,0,0,1,0-.28,2.33,2.33,0,0,1,0-.33,1.88,1.88,0,0,1-3.33-1.4,2.71,2.71,0,0,1,2.51-2.93,1.62,1.62,0,0,1,1.5.74l.13-.6Zm-4.12,2.78c0,.76.37,1.31,1.14,1.31s1.59-.95,1.59-2.19a1.08,1.08,0,0,0-1.12-1.23C9.89,237.58,9.33,238.72,9.33,239.69Z"/><path class="cls-3" d="M14.48,240.33l.55-2.58h-.88l.18-.84h.14a.92.92,0,0,0,1-.78l.16-.74h.86l-.33,1.52h1l-.18.84H16l-.53,2.53a1,1,0,0,0,0,.23c0,.3.18.43.54.43l.32,0-.16.77a1.5,1.5,0,0,1-.51.07,1,1,0,0,1-1.16-1.06A1.61,1.61,0,0,1,14.48,240.33Z"/><path class="cls-3" d="M19.69,236.06l-.18.85H20.6l-.18.82H19.33l-.84,4h-1l.84-4h-.81l.18-.82h.81l.21-1a1.62,1.62,0,0,1,1.72-1.48,1.31,1.31,0,0,1,.64.14l-.18.8a1.06,1.06,0,0,0-.4-.08C20.13,235.29,19.82,235.47,19.69,236.06Z"/><path class="cls-3" d="M22.78,241.86a2.08,2.08,0,0,1-2.14-2.22,2.7,2.7,0,0,1,2.63-2.88A2,2,0,0,1,25.4,239,2.73,2.73,0,0,1,22.78,241.86Zm-1.18-2.24a1.24,1.24,0,0,0,1.22,1.4c.83,0,1.62-.73,1.62-2a1.23,1.23,0,0,0-1.23-1.39C22.39,237.59,21.6,238.31,21.6,239.62Z"/><path class="cls-3" d="M29.08,237.84c-.77,0-1.42.47-1.66,1.59l-.49,2.28H26l.84-4a6,6,0,0,0,.12-.84h.92a3.5,3.5,0,0,1-.09.75,1.79,1.79,0,0,1,1.58-.83,1.14,1.14,0,0,1,.27,0l-.22,1Z"/><path class="cls-3" d="M32.55,241.71l.64-3a1.87,1.87,0,0,0,0-.32.74.74,0,0,0-.83-.79c-.67,0-1.06.51-1.21,1.23l-.62,2.9h-.93l.84-4a5.3,5.3,0,0,0,.12-.84h.92a4.38,4.38,0,0,1-.05.5,1.67,1.67,0,0,1,1.39-.64,1.24,1.24,0,0,1,1.2.77,1.94,1.94,0,0,1,1.65-.77,1.31,1.31,0,0,1,1.39,1.37,2.42,2.42,0,0,1,0,.45l-.67,3.12h-.93l.64-3a2,2,0,0,0,0-.33.74.74,0,0,0-.83-.78c-.66,0-1.05.53-1.2,1.22l-.62,2.91Z"/><path class="cls-3" d="M38.07,239.25l.17-.82H41l-.17.82Z"/><path class="cls-3" d="M9.67,251.87a1.11,1.11,0,0,0-.76-1L8,250.42a1.91,1.91,0,0,1-1.29-1.82,2.23,2.23,0,0,1,2.38-2.12,2.09,2.09,0,0,1,2.32,2l-.93.18A1.3,1.3,0,0,0,9,247.35a1.21,1.21,0,0,0-1.3,1.12,1,1,0,0,0,.66,1l1,.44a2,2,0,0,1,1.38,1.87,2.22,2.22,0,0,1-2.38,2.1,2.35,2.35,0,0,1-2.59-2.36,1.06,1.06,0,0,1,0-.15l1-.17a1.72,1.72,0,0,0,0,.2,1.5,1.5,0,0,0,1.6,1.6C9.12,253,9.67,252.53,9.67,251.87Z"/><path class="cls-3" d="M14.74,248.78a1.81,1.81,0,0,1,1.83,2.05c0,1.7-1,3-2.52,3a1.77,1.77,0,0,1-1.58-.87l-.56,2.64H11l1.25-5.86a5.3,5.3,0,0,0,.12-.84h.92a3.37,3.37,0,0,1-.06.55A1.91,1.91,0,0,1,14.74,248.78Zm-2,2.88A1.17,1.17,0,0,0,14,253c.81,0,1.62-.75,1.62-2.06a1.15,1.15,0,0,0-1.22-1.32C13.57,249.62,12.79,250.35,12.79,251.66Z"/><path class="cls-3" d="M18.18,251.57a1,1,0,0,0,0,.17A1.21,1.21,0,0,0,19.39,253a1.57,1.57,0,0,0,1.42-.8l.71.46a2.38,2.38,0,0,1-2.11,1.17,2.06,2.06,0,0,1-2.18-2.19,2.73,2.73,0,0,1,2.64-2.91,1.81,1.81,0,0,1,2,1.93,3,3,0,0,1-.14.88Zm2.69-.76a1,1,0,0,0,0-.2,1,1,0,0,0-1.07-1,1.58,1.58,0,0,0-1.51,1.23Z"/><path class="cls-3" d="M26.22,250.57a1.17,1.17,0,0,0-1.19-1c-.82,0-1.62.68-1.62,2A1.27,1.27,0,0,0,24.72,253a1.45,1.45,0,0,0,1.34-.91l.8.35a2.39,2.39,0,0,1-2.18,1.4,2.11,2.11,0,0,1-2.22-2.22,2.69,2.69,0,0,1,2.63-2.88,1.9,1.9,0,0,1,2,1.51Z"/><path class="cls-3" d="M27.54,253.71l1-4.8h.94l-1,4.8Zm1.94-7.32a.59.59,0,0,1,.61.6.77.77,0,0,1-.74.74.59.59,0,0,1-.61-.6A.76.76,0,0,1,29.48,246.39Z"/><path class="cls-3" d="M31.33,253.71h-1l.84-4h-.81l.18-.82h.81l.21-1a1.62,1.62,0,0,1,1.72-1.48,1.31,1.31,0,0,1,.64.14l-.18.8a1.06,1.06,0,0,0-.4-.08c-.4,0-.71.18-.84.77l-.18.85h3.07l-1,4.8h-.94l.85-4H32.17Zm4.06-7.32a.59.59,0,0,1,.61.6.77.77,0,0,1-.74.74.59.59,0,0,1-.61-.6A.76.76,0,0,1,35.39,246.39Z"/><path class="cls-3" d="M39.78,250.57a1.17,1.17,0,0,0-1.19-1c-.82,0-1.62.68-1.62,2A1.27,1.27,0,0,0,38.28,253a1.45,1.45,0,0,0,1.34-.91l.8.35a2.39,2.39,0,0,1-2.18,1.4A2.11,2.11,0,0,1,36,251.64a2.69,2.69,0,0,1,2.63-2.88,1.9,1.9,0,0,1,2,1.51Z"/><path class="cls-3" d="M24.54,260.73l-.93.27a2,2,0,0,0-2-1.62c-1.74,0-2.72,1.58-2.72,3.26A2.05,2.05,0,0,0,20.94,265a2.42,2.42,0,0,0,2.28-1.6l.86.35a3.38,3.38,0,0,1-3.23,2.14,3,3,0,0,1-3-3.16,3.91,3.91,0,0,1,3.82-4.22A2.72,2.72,0,0,1,24.54,260.73Z"/><path class="cls-3" d="M26.88,265.86a2.08,2.08,0,0,1-2.14-2.22,2.7,2.7,0,0,1,2.63-2.88A2,2,0,0,1,29.5,263,2.73,2.73,0,0,1,26.88,265.86Zm-1.18-2.24a1.24,1.24,0,0,0,1.22,1.4c.83,0,1.62-.73,1.62-2a1.23,1.23,0,0,0-1.23-1.39C26.49,261.59,25.7,262.31,25.7,263.62Z"/><path class="cls-3" d="M32.05,265.81a1.89,1.89,0,0,1-1.9-2.11,2.71,2.71,0,0,1,2.51-2.93,1.62,1.62,0,0,1,1.5.74l.64-3h.93l-1.26,6a4.83,4.83,0,0,0-.11,1.09,1.18,1.18,0,0,0,0,.16h-.89a1.6,1.6,0,0,1,0-.28,2.48,2.48,0,0,1,0-.33A1.85,1.85,0,0,1,32.05,265.81Zm-.95-2.12c0,.76.37,1.31,1.14,1.31s1.59-.95,1.59-2.19a1.08,1.08,0,0,0-1.12-1.23C31.66,261.58,31.1,262.72,31.1,263.69Z"/><path class="cls-3" d="M36.72,263.57a1,1,0,0,0,0,.17A1.21,1.21,0,0,0,37.93,265a1.57,1.57,0,0,0,1.42-.8l.71.46A2.38,2.38,0,0,1,38,265.86a2.06,2.06,0,0,1-2.18-2.19,2.73,2.73,0,0,1,2.64-2.91,1.81,1.81,0,0,1,2,1.93,3,3,0,0,1-.14.88Zm2.69-.76a1,1,0,0,0,0-.2,1,1,0,0,0-1.07-1,1.58,1.58,0,0,0-1.51,1.23Z"/><polyline class="cls-6" points="76.09 174.5 58.09 174.5 58.09 325.5 76.09 325.5"/><path class="cls-7" d="M457.5,115.33l.76,6.73,3-6.73h1.19l-3.92,8.51h-1.17l-.75-6.9-3.36,6.9h-1.2l-.66-8.51h1.14L453,122l3.25-6.66Z"/><path class="cls-7" d="M464,124a2.5,2.5,0,0,1-2.56-2.67,3.24,3.24,0,0,1,3.15-3.46,2.46,2.46,0,0,1,2.56,2.65A3.28,3.28,0,0,1,464,124Zm-1.41-2.69A1.48,1.48,0,0,0,464,123c1,0,1.94-.88,1.94-2.45a1.47,1.47,0,0,0-1.47-1.66C463.5,118.9,462.55,119.76,462.55,121.33Z"/><path class="cls-7" d="M471.52,119.2c-.92,0-1.7.56-2,1.9l-.59,2.74h-1.11l1-4.75a8.55,8.55,0,0,0,.14-1h1.1a4.28,4.28,0,0,1-.1.9,2.13,2.13,0,0,1,1.89-1,1.51,1.51,0,0,1,.32,0l-.26,1.23Z"/><path class="cls-7" d="M475,121.1l-1.18,1-.37,1.78h-1.11l1.84-8.69h1.12l-1.13,5.28,2.87-2.36h1.68l-2.86,2.33,1.71,3.44h-1.26Z"/><path class="cls-7" d="M481.65,123.84l1.84-8.69h1.11l-.72,3.4a2.4,2.4,0,0,1,1.74-.65,2.24,2.24,0,0,1,2.25,2.5c0,2-1.25,3.59-3.08,3.59a1.92,1.92,0,0,1-1.82-1.1l-.2,1Zm1.67-2.46a1.45,1.45,0,0,0,1.4,1.61c1,0,2-.88,2-2.48a1.43,1.43,0,0,0-1.51-1.61C484.22,118.9,483.32,119.87,483.32,121.38Z"/><path class="cls-7" d="M492.29,119.2c-.92,0-1.7.56-2,1.9l-.58,2.74H488.6l1-4.75a6.73,6.73,0,0,0,.14-1h1.1a4.28,4.28,0,0,1-.1.9,2.14,2.14,0,0,1,1.89-1,1.69,1.69,0,0,1,.33,0l-.27,1.23A2.83,2.83,0,0,0,492.29,119.2Z"/><path class="cls-7" d="M494.17,121.27a1.41,1.41,0,0,0,0,.2,1.45,1.45,0,0,0,1.46,1.55,1.87,1.87,0,0,0,1.7-1l.85.55a2.84,2.84,0,0,1-2.53,1.41,2.47,2.47,0,0,1-2.61-2.63,3.28,3.28,0,0,1,3.16-3.5,2.18,2.18,0,0,1,2.39,2.32,3.6,3.6,0,0,1-.17,1.06Zm3.22-.91a.78.78,0,0,0,0-.24,1.18,1.18,0,0,0-1.29-1.24,1.9,1.9,0,0,0-1.81,1.48Z"/><path class="cls-7" d="M505.44,118.07l-.9,4.27a5.9,5.9,0,0,0-.13,1.31,1.77,1.77,0,0,0,0,.19h-1.06a2,2,0,0,1,0-.34,2.21,2.21,0,0,1,0-.39,2.3,2.3,0,0,1-1.72.85,2.26,2.26,0,0,1-2.28-2.53,3.27,3.27,0,0,1,3-3.53,1.92,1.92,0,0,1,1.8.9l.16-.73Zm-4.94,3.34c0,.92.45,1.58,1.37,1.58,1.1,0,1.91-1.14,1.91-2.63a1.31,1.31,0,0,0-1.35-1.49C501.17,118.87,500.5,120.25,500.5,121.41Z"/><path class="cls-7" d="M508.77,121.1l-1.18,1-.37,1.78h-1.11l1.85-8.69h1.11l-1.13,5.28,2.87-2.36h1.68l-2.86,2.33,1.71,3.44h-1.26Z"/><path class="cls-7" d="M514.53,124a2.26,2.26,0,0,1-2.28-2.53,3.27,3.27,0,0,1,3-3.53,1.94,1.94,0,0,1,1.8.9l.77-3.65h1.11l-1.51,7.19a5.9,5.9,0,0,0-.13,1.31,1.77,1.77,0,0,0,0,.19h-1.06a1.3,1.3,0,0,1,0-.34,2.33,2.33,0,0,1,0-.39A2.27,2.27,0,0,1,514.53,124Zm-1.14-2.55c0,.92.44,1.58,1.37,1.58,1.1,0,1.91-1.14,1.91-2.63a1.31,1.31,0,0,0-1.35-1.49C514.06,118.87,513.39,120.25,513.39,121.41Z"/><path class="cls-7" d="M521.56,124a2.5,2.5,0,0,1-2.56-2.67,3.24,3.24,0,0,1,3.15-3.46,2.46,2.46,0,0,1,2.56,2.65A3.28,3.28,0,0,1,521.56,124Zm-1.41-2.69a1.48,1.48,0,0,0,1.46,1.68c1,0,1.94-.88,1.94-2.45a1.47,1.47,0,0,0-1.47-1.66C521.09,118.9,520.15,119.76,520.15,121.33Z"/><path class="cls-7" d="M530.5,118.07l.55,4.3,2.17-4.3h1.24l-3.06,5.77h-1.16l-.58-4.37-2.28,4.37H526.2l-.59-5.77h1.08l.37,4.29,2.25-4.29Z"/><path class="cls-7" d="M538.12,123.84l.75-3.49a2.68,2.68,0,0,0,0-.45.93.93,0,0,0-1-1,1.78,1.78,0,0,0-1.61,1.58l-.72,3.36H534.4l1-4.75a6.25,6.25,0,0,0,.14-1h1.11c0,.05,0,.37-.07.63a2.08,2.08,0,0,1,1.78-.8,1.63,1.63,0,0,1,1.72,1.73,3.84,3.84,0,0,1-.06.55l-.78,3.66Z"/><path class="cls-7" d="M547.1,117.05l-.22,1h1.31l-.22,1h-1.3l-1,4.78H544.5l1-4.78h-1l.22-1h1l.25-1.2a2,2,0,0,1,2.06-1.78,1.59,1.59,0,0,1,.77.17l-.22,1a1.21,1.21,0,0,0-.47-.1C547.63,116.12,547.25,116.34,547.1,117.05Z"/><path class="cls-7" d="M550.81,124a2.5,2.5,0,0,1-2.57-2.67,3.24,3.24,0,0,1,3.15-3.46,2.46,2.46,0,0,1,2.56,2.65A3.28,3.28,0,0,1,550.81,124Zm-1.42-2.69a1.49,1.49,0,0,0,1.46,1.68c1,0,1.95-.88,1.95-2.45a1.47,1.47,0,0,0-1.48-1.66C550.34,118.9,549.39,119.76,549.39,121.33Z"/><path class="cls-7" d="M558.37,119.2c-.93,0-1.71.56-2,1.9l-.58,2.74h-1.12l1-4.75a6.73,6.73,0,0,0,.14-1h1.11a4.26,4.26,0,0,1-.11.9,2.15,2.15,0,0,1,1.89-1,1.69,1.69,0,0,1,.33,0l-.27,1.23Z"/><path class="cls-7" d="M568.31,118.07l-.9,4.27a5.9,5.9,0,0,0-.13,1.31,1.77,1.77,0,0,0,0,.19h-1.07a2.33,2.33,0,0,1,0-.34,3.3,3.3,0,0,1,0-.39,2.25,2.25,0,0,1-4-1.68,3.26,3.26,0,0,1,3-3.53,1.94,1.94,0,0,1,1.8.9l.16-.73Zm-4.94,3.34c0,.92.44,1.58,1.37,1.58,1.1,0,1.9-1.14,1.9-2.63,0-.83-.4-1.49-1.34-1.49C564,118.87,563.37,120.25,563.37,121.41Z"/><path class="cls-7" d="M451.09,136.58l.66-3.09h-1.06l.22-1h.17a1.09,1.09,0,0,0,1.18-.94l.2-.88h1l-.4,1.82h1.16l-.21,1h-1.16l-.64,3a1,1,0,0,0,0,.28c0,.36.22.51.65.51l.38,0-.19.92a1.57,1.57,0,0,1-.61.09A1.24,1.24,0,0,1,451,137,1.77,1.77,0,0,1,451.09,136.58Z"/><path class="cls-7" d="M454.14,140.52l2.17-3.28-1.42-4.77h1.23l1,3.62,2.26-3.62h1.33l-5.29,8.05Z"/><path class="cls-7" d="M464.45,132.31a2.18,2.18,0,0,1,2.2,2.47c0,2-1.2,3.61-3,3.61a2.12,2.12,0,0,1-1.9-1l-.67,3.17h-1.12l1.5-7a6.88,6.88,0,0,0,.15-1h1.1a3.77,3.77,0,0,1-.07.66A2.34,2.34,0,0,1,464.45,132.31Zm-2.33,3.47c0,1,.55,1.61,1.43,1.61s1.95-.9,1.95-2.48a1.39,1.39,0,0,0-1.47-1.58C463.05,133.33,462.12,134.21,462.12,135.78Z"/><path class="cls-7" d="M467.38,138.24l1.24-5.77h1.13l-1.24,5.77Zm2.33-8.79a.71.71,0,0,1,.73.72.92.92,0,0,1-.89.88.71.71,0,0,1-.73-.72A.92.92,0,0,1,469.71,129.45Z"/><path class="cls-7" d="M475,134.47a1.41,1.41,0,0,0-1.43-1.17c-1,0-1.94.81-1.94,2.44a1.52,1.52,0,0,0,1.57,1.67,1.74,1.74,0,0,0,1.61-1.09l1,.42a2.9,2.9,0,0,1-2.62,1.68,2.53,2.53,0,0,1-2.66-2.67,3.23,3.23,0,0,1,3.15-3.46,2.29,2.29,0,0,1,2.4,1.82Z"/><path class="cls-7" d="M482.7,132.47l-.9,4.27a5.87,5.87,0,0,0-.13,1.3,1.82,1.82,0,0,0,0,.2h-1.06a2,2,0,0,1,0-.34,2.21,2.21,0,0,1,0-.39,2.3,2.3,0,0,1-1.72.85,2.26,2.26,0,0,1-2.28-2.53,3.27,3.27,0,0,1,3-3.53,1.92,1.92,0,0,1,1.8.9l.16-.73Zm-4.94,3.34c0,.92.45,1.58,1.37,1.58,1.1,0,1.91-1.14,1.91-2.63a1.31,1.31,0,0,0-1.35-1.49C478.43,133.27,477.76,134.65,477.76,135.81Z"/><path class="cls-7" d="M483.37,138.24l1.84-8.69h1.13l-1.84,8.69Z"/><path class="cls-7" d="M493.11,134.71H491.6l-.75,3.53h-1.17l1.8-8.51h2.76a2.13,2.13,0,0,1,2.34,2.16,2.73,2.73,0,0,1-2.28,2.74l1.39,3.61h-1.25Zm.37-1a1.7,1.7,0,0,0,1.91-1.71c0-.7-.46-1.18-1.35-1.18h-1.6l-.63,2.89Z"/><path class="cls-7" d="M498,135.67a1.41,1.41,0,0,0,0,.2,1.45,1.45,0,0,0,1.46,1.55,1.87,1.87,0,0,0,1.7-1l.85.55a2.84,2.84,0,0,1-2.53,1.41,2.47,2.47,0,0,1-2.61-2.63,3.28,3.28,0,0,1,3.16-3.5,2.18,2.18,0,0,1,2.39,2.32,3.6,3.6,0,0,1-.17,1.06Zm3.22-.91a.78.78,0,0,0,0-.24,1.18,1.18,0,0,0-1.29-1.24,1.9,1.9,0,0,0-1.81,1.48Z"/><path class="cls-7" d="M509.23,132.47l-.9,4.27a5.87,5.87,0,0,0-.13,1.3.92.92,0,0,0,0,.2h-1.07a2,2,0,0,1,0-.34,2.21,2.21,0,0,1,0-.39,2.3,2.3,0,0,1-1.72.85,2.26,2.26,0,0,1-2.28-2.53,3.27,3.27,0,0,1,3-3.53,1.92,1.92,0,0,1,1.8.9l.16-.73Zm-4.94,3.34c0,.92.45,1.58,1.37,1.58,1.1,0,1.91-1.14,1.91-2.63a1.31,1.31,0,0,0-1.35-1.49C505,133.27,504.29,134.65,504.29,135.81Z"/><path class="cls-7" d="M514.41,134.47A1.41,1.41,0,0,0,513,133.3c-1,0-1.94.81-1.94,2.44a1.52,1.52,0,0,0,1.57,1.67,1.74,1.74,0,0,0,1.61-1.09l.95.42a2.87,2.87,0,0,1-2.61,1.68,2.53,2.53,0,0,1-2.66-2.67,3.23,3.23,0,0,1,3.15-3.46,2.29,2.29,0,0,1,2.4,1.82Z"/><path class="cls-7" d="M516.57,136.58l.66-3.09h-1.06l.22-1h.17a1.09,1.09,0,0,0,1.18-.94l.2-.88h1l-.4,1.82h1.17l-.22,1h-1.16l-.64,3a1.57,1.57,0,0,0,0,.28c0,.36.22.51.65.51l.39,0-.2.92a1.57,1.57,0,0,1-.61.09,1.24,1.24,0,0,1-1.39-1.27A1.77,1.77,0,0,1,516.57,136.58Z"/><path class="cls-7" d="M528.64,138.24l-2.83-6.89-1.47,6.89h-1.17l1.8-8.51h1.4l2.7,6.65,1.42-6.65h1.17l-1.8,8.51Z"/><path class="cls-7" d="M538,132.47l-.89,4.27A5.47,5.47,0,0,0,537,138a.92.92,0,0,0,0,.2H536a2,2,0,0,1,0-.34,2.21,2.21,0,0,1,0-.39,2.3,2.3,0,0,1-1.72.85,2.26,2.26,0,0,1-2.28-2.53,3.27,3.27,0,0,1,3-3.53,1.92,1.92,0,0,1,1.8.9l.16-.73Zm-4.94,3.34c0,.92.45,1.58,1.37,1.58,1.1,0,1.91-1.14,1.91-2.63a1.31,1.31,0,0,0-1.34-1.49C533.78,133.27,533.1,134.65,533.1,135.81Z"/><path class="cls-7" d="M539.28,136.58l.66-3.09h-1.05l.21-1h.17a1.1,1.1,0,0,0,1.19-.94l.19-.88h1l-.39,1.82h1.16l-.22,1h-1.16l-.63,3a1,1,0,0,0,0,.28c0,.36.22.51.65.51l.38,0-.19.92a1.62,1.62,0,0,1-.61.09,1.24,1.24,0,0,1-1.39-1.27A2.35,2.35,0,0,1,539.28,136.58Z"/><path class="cls-7" d="M542.63,138.24l1.24-5.77H545l-1.24,5.77Zm2.33-8.79a.71.71,0,0,1,.73.72.92.92,0,0,1-.89.88.71.71,0,0,1-.73-.72A.92.92,0,0,1,545,129.45Z"/><path class="cls-7" d="M548.2,138.24h-1.09l-1-5.77h1.16l.64,4.41,2.47-4.41h1.27Z"/><path class="cls-7" d="M552.64,135.67a1.41,1.41,0,0,0,0,.2,1.45,1.45,0,0,0,1.46,1.55,1.87,1.87,0,0,0,1.7-1l.86.55a2.86,2.86,0,0,1-2.53,1.41,2.47,2.47,0,0,1-2.62-2.63,3.28,3.28,0,0,1,3.17-3.5,2.17,2.17,0,0,1,2.38,2.32,3.68,3.68,0,0,1-.16,1.06Zm3.23-.91a1.44,1.44,0,0,0,0-.24,1.17,1.17,0,0,0-1.28-1.24,1.89,1.89,0,0,0-1.81,1.48Z"/><path class="cls-7" d="M566.28,135.86h-3.56l-1.38,2.38H560l5.07-8.51h1.3l1.47,8.51h-1.18Zm-2.92-1.09h2.74l-.6-3.72Z"/><path class="cls-7" d="M572.61,132.31a2.17,2.17,0,0,1,2.19,2.47c0,2-1.2,3.61-3,3.61a2.14,2.14,0,0,1-1.9-1l-.67,3.17H568.1l1.5-7a7.82,7.82,0,0,0,.14-1h1.1a3.77,3.77,0,0,1-.07.66A2.34,2.34,0,0,1,572.61,132.31Zm-2.34,3.47c0,1,.55,1.61,1.44,1.61s1.94-.9,1.94-2.48a1.38,1.38,0,0,0-1.46-1.58C571.2,133.33,570.27,134.21,570.27,135.78Z"/><path class="cls-7" d="M579.39,132.31a2.17,2.17,0,0,1,2.19,2.47c0,2-1.2,3.61-3,3.61a2.14,2.14,0,0,1-1.9-1l-.67,3.17h-1.11l1.5-7a7.82,7.82,0,0,0,.14-1h1.1a3.77,3.77,0,0,1-.07.66A2.34,2.34,0,0,1,579.39,132.31Zm-2.34,3.47c0,1,.55,1.61,1.44,1.61s1.94-.9,1.94-2.48a1.38,1.38,0,0,0-1.46-1.58C578,133.33,577.05,134.21,577.05,135.78Z"/><path class="cls-8" d="M399.09,38.5c37,0-1.5,96.5,44.5,96.5"/><path class="cls-8" d="M391.59,89c29,0,4,46,52,46"/><path class="cls-8" d="M397.59,207c37,0,6-72,45-72"/><path class="cls-7" d="M224.25,121.16h-.89l-.43,2.06h-.69l1-5h1.61a1.24,1.24,0,0,1,1.37,1.26,1.59,1.59,0,0,1-1.33,1.6l.81,2.11H225Zm.21-.61a1,1,0,0,0,1.12-1c0-.41-.27-.69-.79-.69h-.94l-.36,1.69Z"/><path class="cls-7" d="M227.07,121.72v.12a.84.84,0,0,0,.85.9,1.12,1.12,0,0,0,1-.56l.49.32a1.67,1.67,0,0,1-1.48.82,1.43,1.43,0,0,1-1.52-1.53,1.92,1.92,0,0,1,1.85-2.05,1.27,1.27,0,0,1,1.39,1.36,2,2,0,0,1-.1.62Zm1.89-.53s0-.09,0-.14a.69.69,0,0,0-.75-.73,1.11,1.11,0,0,0-1.06.87Z"/><path class="cls-7" d="M233.65,119.85l-.52,2.49a3.24,3.24,0,0,0-.08.76.62.62,0,0,0,0,.12h-.62a.88.88,0,0,1,0-.2,1.11,1.11,0,0,1,0-.23,1.34,1.34,0,0,1-1,.5,1.32,1.32,0,0,1-1.33-1.48,1.91,1.91,0,0,1,1.76-2.06,1.13,1.13,0,0,1,1,.53l.09-.43Zm-2.88,2c0,.53.26.92.8.92s1.11-.67,1.11-1.53c0-.49-.24-.87-.78-.87C231.16,120.32,230.77,121.12,230.77,121.8Z"/><path class="cls-7" d="M236.67,121a.82.82,0,0,0-.83-.69c-.58,0-1.14.48-1.14,1.43a.89.89,0,0,0,.92,1,1,1,0,0,0,.94-.63l.56.24a1.67,1.67,0,0,1-1.53,1,1.47,1.47,0,0,1-1.55-1.55,1.89,1.89,0,0,1,1.84-2,1.34,1.34,0,0,1,1.4,1.07Z"/><path class="cls-7" d="M237.93,122.25l.38-1.81h-.61l.12-.59h.1a.65.65,0,0,0,.7-.55l.11-.52h.6l-.23,1.07h.68l-.13.59H239l-.37,1.78a1,1,0,0,0,0,.16c0,.21.13.3.38.3l.22,0-.11.54a.87.87,0,0,1-.36,0,.72.72,0,0,1-.81-.74A1.22,1.22,0,0,1,237.93,122.25Z"/><path class="cls-7" d="M240.48,122.3a.52.52,0,0,1,.54.57,1.49,1.49,0,0,1-1.38,1.47l.07-.38a1,1,0,0,0,.81-.73.57.57,0,0,1-.16,0,.42.42,0,0,1-.44-.43A.54.54,0,0,1,240.48,122.3Z"/><path class="cls-7" d="M243.75,123.22l1.05-5h3l-.14.64h-2.29l-.35,1.6h2.08l-.13.64h-2.08l-.44,2.09Z"/><path class="cls-7" d="M247.57,123.22l1.08-5.07h.66l-1.08,5.07Z"/><path class="cls-7" d="M250,121.72a.49.49,0,0,0,0,.12.84.84,0,0,0,.85.9,1.12,1.12,0,0,0,1-.56l.49.32a1.64,1.64,0,0,1-1.47.82,1.44,1.44,0,0,1-1.53-1.53,1.92,1.92,0,0,1,1.85-2.05,1.27,1.27,0,0,1,1.39,1.36,2,2,0,0,1-.1.62Zm1.88-.53a.57.57,0,0,0,0-.14.69.69,0,0,0-.75-.73,1.11,1.11,0,0,0-1,.87Z"/><path class="cls-7" d="M253.34,123.22h-.84l1.64-1.73-.88-1.64H254l.6,1.17,1.07-1.17h.84l-1.59,1.66c.31.57.6,1.14.92,1.71h-.73l-.63-1.22Z"/><path class="cls-7" d="M256.35,123.22l1.07-5.07h.65l-.42,2a1.39,1.39,0,0,1,1-.38,1.3,1.3,0,0,1,1.31,1.46,1.9,1.9,0,0,1-1.79,2.1,1.1,1.1,0,0,1-1.06-.65l-.12.56Zm1-1.44a.85.85,0,0,0,.82.94c.6,0,1.16-.51,1.16-1.44a.84.84,0,0,0-.88-1C257.84,120.33,257.32,120.9,257.32,121.78Z"/><path class="cls-7" d="M261.93,123.32a1.46,1.46,0,0,1-1.5-1.55,1.9,1.9,0,0,1,1.85-2,1.44,1.44,0,0,1,1.49,1.55A1.91,1.91,0,0,1,261.93,123.32Zm-.82-1.57c0,.6.33,1,.85,1s1.14-.51,1.14-1.43a.86.86,0,0,0-.87-1C261.66,120.33,261.11,120.84,261.11,121.75Z"/><path class="cls-7" d="M264.4,123.22h-.84l1.64-1.73-.88-1.64H265l.6,1.17,1.07-1.17h.84L266,121.51c.31.57.6,1.14.92,1.71h-.72l-.64-1.22Z"/><path class="cls-7" d="M268.11,122.3a.52.52,0,0,1,.54.57,1.49,1.49,0,0,1-1.38,1.47l.07-.38a1,1,0,0,0,.81-.73.57.57,0,0,1-.16,0,.42.42,0,0,1-.44-.43A.54.54,0,0,1,268.11,122.3Z"/><path class="cls-7" d="M227.07,128.12l-.65.19a1.38,1.38,0,0,0-1.43-1.13,2.06,2.06,0,0,0-1.91,2.29,1.44,1.44,0,0,0,1.47,1.63,1.69,1.69,0,0,0,1.59-1.12l.61.24a2.37,2.37,0,0,1-2.27,1.5,2.07,2.07,0,0,1-2.1-2.21,2.74,2.74,0,0,1,2.68-3A1.9,1.9,0,0,1,227.07,128.12Z"/><path class="cls-7" d="M228.7,131.72a1.45,1.45,0,0,1-1.49-1.55,1.9,1.9,0,0,1,1.84-2,1.44,1.44,0,0,1,1.49,1.55A1.9,1.9,0,0,1,228.7,131.72Zm-.82-1.57c0,.6.33,1,.85,1s1.14-.51,1.14-1.43a.86.86,0,0,0-.86-1C228.43,128.73,227.88,129.24,227.88,130.15Z"/><path class="cls-7" d="M233.12,128.91c-.54,0-1,.33-1.17,1.11l-.34,1.6H231l.59-2.78a4.28,4.28,0,0,0,.08-.59h.64a2.12,2.12,0,0,1-.06.52,1.25,1.25,0,0,1,1.11-.58l.19,0-.16.72A.93.93,0,0,0,233.12,128.91Z"/><path class="cls-7" d="M234.21,130.12a.49.49,0,0,0,0,.12.84.84,0,0,0,.85.9,1.12,1.12,0,0,0,1-.56l.5.32a1.67,1.67,0,0,1-1.48.82,1.44,1.44,0,0,1-1.53-1.53,1.92,1.92,0,0,1,1.85-2.05,1.27,1.27,0,0,1,1.39,1.36,2.41,2.41,0,0,1-.09.62Zm1.88-.53a.57.57,0,0,0,0-.14.68.68,0,0,0-.75-.73,1.11,1.11,0,0,0-1,.87Z"/><path class="cls-7" d="M240.77,130.73l2.27-4.08h.74l-2.85,5h-.68l-.73-5h.68Z"/><path class="cls-7" d="M243.28,131.62l.73-3.37h.65l-.72,3.37Zm1.36-5.14a.41.41,0,0,1,.43.42.54.54,0,0,1-.52.52.42.42,0,0,1-.43-.42A.54.54,0,0,1,244.64,126.48Z"/><path class="cls-7" d="M245.78,130.12v.12a.84.84,0,0,0,.85.9,1.09,1.09,0,0,0,1-.56l.5.32a1.66,1.66,0,0,1-1.48.82,1.43,1.43,0,0,1-1.52-1.53,1.92,1.92,0,0,1,1.85-2.05,1.27,1.27,0,0,1,1.39,1.36,2,2,0,0,1-.1.62Zm1.89-.53s0-.09,0-.14a.69.69,0,0,0-.75-.73,1.11,1.11,0,0,0-1.06.87Z"/><path class="cls-7" d="M251.85,128.25l.32,2.51,1.27-2.51h.72l-1.79,3.37h-.68l-.33-2.55L250,131.62h-.7l-.34-3.37h.63l.22,2.51,1.31-2.51Z"/><path class="cls-7" d="M260.84,128.12l-.65.19a1.38,1.38,0,0,0-1.43-1.13,2.05,2.05,0,0,0-1.9,2.29,1.43,1.43,0,0,0,1.46,1.63,1.7,1.7,0,0,0,1.6-1.12l.6.24a2.37,2.37,0,0,1-2.26,1.5,2.07,2.07,0,0,1-2.1-2.21,2.73,2.73,0,0,1,2.67-3A1.89,1.89,0,0,1,260.84,128.12Z"/><path class="cls-7" d="M262.48,131.72a1.46,1.46,0,0,1-1.5-1.55,1.9,1.9,0,0,1,1.84-2,1.43,1.43,0,0,1,1.49,1.55A1.9,1.9,0,0,1,262.48,131.72Zm-.83-1.57a.87.87,0,0,0,.86,1c.58,0,1.13-.51,1.13-1.43a.86.86,0,0,0-.86-1C262.21,128.73,261.65,129.24,261.65,130.15Z"/><path class="cls-7" d="M266.77,131.62l.45-2.12a1.92,1.92,0,0,0,0-.22.52.52,0,0,0-.58-.56c-.47,0-.75.36-.85.87l-.44,2h-.65l.59-2.78a3.93,3.93,0,0,0,.08-.59h.65a3.13,3.13,0,0,1,0,.35,1.17,1.17,0,0,1,1-.45.88.88,0,0,1,.84.54,1.35,1.35,0,0,1,1.15-.54.93.93,0,0,1,1,1,1.8,1.8,0,0,1,0,.31l-.47,2.19h-.65l.45-2.12a2.08,2.08,0,0,0,0-.23.53.53,0,0,0-.59-.55c-.46,0-.73.38-.84.86l-.43,2Z"/><path class="cls-7" d="M272.78,128.16a1.27,1.27,0,0,1,1.28,1.44,1.89,1.89,0,0,1-1.77,2.11,1.22,1.22,0,0,1-1.1-.61l-.4,1.85h-.65l.88-4.11a4.1,4.1,0,0,0,.08-.59h.65a2.8,2.8,0,0,1,0,.38A1.36,1.36,0,0,1,272.78,128.16Zm-1.37,2c0,.6.32.94.84.94a1.28,1.28,0,0,0,1.14-1.44.81.81,0,0,0-.86-.93C272,128.75,271.41,129.26,271.41,130.18Z"/><path class="cls-7" d="M276,131.72a1.46,1.46,0,0,1-1.5-1.55,1.9,1.9,0,0,1,1.84-2,1.44,1.44,0,0,1,1.49,1.55A1.9,1.9,0,0,1,276,131.72Zm-.83-1.57a.86.86,0,0,0,.85,1c.59,0,1.14-.51,1.14-1.43a.86.86,0,0,0-.86-1C275.74,128.73,275.19,129.24,275.19,130.15Z"/><path class="cls-7" d="M280.44,131.62l.44-2a1.84,1.84,0,0,0,0-.26.54.54,0,0,0-.61-.59,1,1,0,0,0-.94.93l-.42,2h-.66l.59-2.78a3.47,3.47,0,0,0,.08-.59h.65a3.51,3.51,0,0,1,0,.37,1.23,1.23,0,0,1,1-.47,1,1,0,0,1,1,1,1.22,1.22,0,0,1,0,.32l-.45,2.14Z"/><path class="cls-7" d="M282.86,130.12a.49.49,0,0,0,0,.12.84.84,0,0,0,.85.9,1.12,1.12,0,0,0,1-.56l.49.32a1.64,1.64,0,0,1-1.47.82,1.44,1.44,0,0,1-1.53-1.53,1.92,1.92,0,0,1,1.85-2.05,1.27,1.27,0,0,1,1.39,1.36,2,2,0,0,1-.1.62Zm1.88-.53a.57.57,0,0,0,0-.14.69.69,0,0,0-.75-.73,1.11,1.11,0,0,0-1.05.87Z"/><path class="cls-7" d="M288,131.62l.44-2a1.84,1.84,0,0,0,0-.26.54.54,0,0,0-.61-.59,1,1,0,0,0-.94.93l-.42,2h-.66l.59-2.78a3.47,3.47,0,0,0,.08-.59h.65s0,.21,0,.37a1.21,1.21,0,0,1,1-.47,1,1,0,0,1,1,1,1.82,1.82,0,0,1,0,.32l-.46,2.14Z"/><path class="cls-7" d="M290,130.65l.38-1.81h-.61l.12-.59h.1a.64.64,0,0,0,.69-.55l.12-.52h.6l-.23,1.07h.68l-.13.59H291l-.37,1.78a1,1,0,0,0,0,.16c0,.21.13.3.38.3l.22,0-.11.54a.91.91,0,0,1-.36.05.72.72,0,0,1-.81-.74A1.22,1.22,0,0,1,290,130.65Z"/><path class="cls-7" d="M292.4,130.43a.7.7,0,0,0,.73.73c.37,0,.54-.22.54-.45s-.1-.3-.31-.4l-.49-.22a.92.92,0,0,1-.61-.85,1.15,1.15,0,0,1,1.24-1.1,1.09,1.09,0,0,1,1.19,1l-.58.16a.63.63,0,0,0-.68-.58.48.48,0,0,0-.53.44.4.4,0,0,0,.27.38l.46.21a1,1,0,0,1,.7.93,1.11,1.11,0,0,1-1.23,1.06,1.17,1.17,0,0,1-1.28-1.15Z"/><path class="cls-7" d="M295.61,130.7a.52.52,0,0,1,.53.57,1.49,1.49,0,0,1-1.38,1.47l.08-.38a1.06,1.06,0,0,0,.81-.73.58.58,0,0,1-.17,0,.41.41,0,0,1-.43-.43A.53.53,0,0,1,295.61,130.7Z"/><path class="cls-7" d="M227.07,136.52l-.65.19a1.38,1.38,0,0,0-1.43-1.13,2.06,2.06,0,0,0-1.91,2.29,1.44,1.44,0,0,0,1.47,1.63,1.69,1.69,0,0,0,1.59-1.12l.61.24a2.37,2.37,0,0,1-2.27,1.5,2.07,2.07,0,0,1-2.1-2.21,2.74,2.74,0,0,1,2.68-3A1.9,1.9,0,0,1,227.07,136.52Z"/><path class="cls-7" d="M230.76,136.65l-.53,2.49a3.28,3.28,0,0,0-.08.76.62.62,0,0,0,0,.12h-.62a.88.88,0,0,1,0-.2,1.11,1.11,0,0,1,0-.23,1.31,1.31,0,0,1-2.33-1,1.9,1.9,0,0,1,1.75-2.06,1.12,1.12,0,0,1,1,.53l.1-.43Zm-2.89,1.95c0,.53.26.92.8.92s1.11-.67,1.11-1.53c0-.49-.24-.87-.78-.87C228.26,137.12,227.87,137.92,227.87,138.6Z"/><path class="cls-7" d="M233.18,140l.45-2.12a1.8,1.8,0,0,0,0-.22.52.52,0,0,0-.58-.56c-.47,0-.74.36-.84.87l-.44,2h-.65l.59-2.78a3.93,3.93,0,0,0,.08-.59h.65a3.13,3.13,0,0,1,0,.35,1.16,1.16,0,0,1,1-.45.89.89,0,0,1,.85.54,1.35,1.35,0,0,1,1.15-.54.93.93,0,0,1,1,1,1.8,1.8,0,0,1,0,.31l-.47,2.19h-.65l.44-2.12a1,1,0,0,0,0-.23.52.52,0,0,0-.58-.55c-.46,0-.73.38-.84.86l-.43,2Z"/><path class="cls-7" d="M237.64,138.52a.53.53,0,0,0,0,.12.84.84,0,0,0,.85.9,1.12,1.12,0,0,0,1-.56l.5.32a1.67,1.67,0,0,1-1.48.82,1.44,1.44,0,0,1-1.53-1.53,1.92,1.92,0,0,1,1.85-2.05,1.27,1.27,0,0,1,1.39,1.36,2.34,2.34,0,0,1-.09.62Zm1.88-.53a.57.57,0,0,0,0-.14.69.69,0,0,0-.75-.73,1.11,1.11,0,0,0-1.05.87Z"/><path class="cls-7" d="M242.79,137.31c-.54,0-1,.33-1.16,1.11l-.35,1.6h-.65l.59-2.78a4.28,4.28,0,0,0,.08-.59H242a2.11,2.11,0,0,1-.07.52,1.29,1.29,0,0,1,1.11-.58l.19,0-.15.72A1,1,0,0,0,242.79,137.31Z"/><path class="cls-7" d="M246.8,136.65l-.53,2.49a3.74,3.74,0,0,0-.07.76.62.62,0,0,0,0,.12h-.63a1,1,0,0,1,0-.2,2.2,2.2,0,0,1,0-.23,1.31,1.31,0,0,1-2.33-1,1.91,1.91,0,0,1,1.76-2.06,1.14,1.14,0,0,1,1.05.53l.09-.43Zm-2.89,1.95c0,.53.26.92.8.92s1.12-.67,1.12-1.53a.76.76,0,0,0-.79-.87C244.31,137.12,243.91,137.92,243.91,138.6Z"/><path class="cls-7" d="M247.79,139.1a.52.52,0,0,1,.53.57,1.49,1.49,0,0,1-1.38,1.47l.07-.38a1,1,0,0,0,.81-.73.57.57,0,0,1-.16,0,.41.41,0,0,1-.43-.43A.53.53,0,0,1,247.79,139.1Z"/><path class="cls-7" d="M253.75,138.73a.77.77,0,0,0-.53-.72l-.66-.3a1.35,1.35,0,0,1-.9-1.28,1.55,1.55,0,0,1,1.66-1.48,1.46,1.46,0,0,1,1.63,1.4l-.65.13a.91.91,0,0,0-1-.92.84.84,0,0,0-.91.78.73.73,0,0,0,.46.69l.68.31a1.42,1.42,0,0,1,1,1.31,1.55,1.55,0,0,1-1.66,1.47,1.65,1.65,0,0,1-1.82-1.65.59.59,0,0,1,0-.11l.69-.11v.14a1,1,0,0,0,1.12,1.12C253.37,139.5,253.75,139.19,253.75,138.73Z"/><path class="cls-7" d="M257.19,140l.43-2a1.22,1.22,0,0,0,0-.26.55.55,0,0,0-.62-.59,1,1,0,0,0-.94.93l-.42,2H255l1.07-5.07h.66l-.42,2a1.25,1.25,0,0,1,1-.38,1,1,0,0,1,1,1,1.87,1.87,0,0,1,0,.32l-.45,2.14Z"/><path class="cls-7" d="M262.49,136.65l-.53,2.49a3.28,3.28,0,0,0-.08.76.62.62,0,0,0,0,.12h-.62a.88.88,0,0,1,0-.2,1.11,1.11,0,0,1,0-.23,1.31,1.31,0,0,1-2.33-1,1.9,1.9,0,0,1,1.75-2.06,1.15,1.15,0,0,1,1.06.53l.09-.43Zm-2.89,1.95c0,.53.26.92.8.92s1.11-.67,1.11-1.53c0-.49-.23-.87-.78-.87C260,137.12,259.6,137.92,259.6,138.6Z"/><path class="cls-7" d="M265,137.31c-.54,0-1,.33-1.17,1.11l-.34,1.6h-.65l.59-2.78a4.28,4.28,0,0,0,.08-.59h.65a2.11,2.11,0,0,1-.07.52,1.29,1.29,0,0,1,1.11-.58l.19,0-.15.72A1.06,1.06,0,0,0,265,137.31Z"/><path class="cls-7" d="M265.52,140l.73-3.37h.65l-.72,3.37Zm1.36-5.14a.42.42,0,0,1,.43.42.54.54,0,0,1-.52.52.42.42,0,0,1-.43-.42A.54.54,0,0,1,266.88,134.88Z"/><path class="cls-7" d="M269.49,140l.44-2a1.7,1.7,0,0,0,0-.26.55.55,0,0,0-.62-.59,1,1,0,0,0-.94.93l-.42,2h-.66l.59-2.78a3.47,3.47,0,0,0,.08-.59h.65s0,.22,0,.37a1.21,1.21,0,0,1,1-.47,1,1,0,0,1,1,1,1.82,1.82,0,0,1,0,.32l-.46,2.14Z"/><path class="cls-7" d="M271.47,140.07v.05a.73.73,0,0,0,.81.76c.65,0,1-.42,1.18-1.16l.06-.28a1.05,1.05,0,0,1-.9.42,1.32,1.32,0,0,1-1.36-1.42,1.74,1.74,0,0,1,1.71-1.86,1.16,1.16,0,0,1,1,.52l.09-.45h.67l-.63,3a1.89,1.89,0,0,1-1.9,1.76,1.27,1.27,0,0,1-1.41-1.23Zm1.52-2.92a1.11,1.11,0,0,0-1.07,1.25.81.81,0,0,0,.83.9c.64,0,1.07-.51,1.07-1.34A.78.78,0,0,0,273,137.15Z"/><path class="cls-7" d="M275.76,139.1a.52.52,0,0,1,.54.57,1.49,1.49,0,0,1-1.38,1.47l.07-.38a1,1,0,0,0,.81-.73.57.57,0,0,1-.16,0,.42.42,0,0,1-.44-.43A.54.54,0,0,1,275.76,139.1Z"/><path class="cls-7" d="M281.73,138.73a.77.77,0,0,0-.53-.72l-.66-.3a1.36,1.36,0,0,1-.91-1.28A1.56,1.56,0,0,1,281.3,135a1.47,1.47,0,0,1,1.63,1.4l-.65.13a.91.91,0,0,0-1-.92.84.84,0,0,0-.91.78.73.73,0,0,0,.46.69l.68.31a1.42,1.42,0,0,1,1,1.31,1.55,1.55,0,0,1-1.66,1.47,1.65,1.65,0,0,1-1.82-1.65.59.59,0,0,1,0-.11l.69-.11v.14a1,1,0,0,0,1.12,1.12C281.34,139.5,281.73,139.19,281.73,138.73Z"/><path class="cls-7" d="M283.4,139.05l.39-1.81h-.62l.13-.59h.09a.65.65,0,0,0,.7-.55l.11-.52h.6l-.23,1.07h.68l-.13.59h-.68l-.37,1.78a1,1,0,0,0,0,.16c0,.21.13.3.38.3l.23,0-.12.54a.84.84,0,0,1-.35.05.73.73,0,0,1-.82-.74A1.22,1.22,0,0,1,283.4,139.05Z"/><path class="cls-7" d="M286.89,140.12a1.46,1.46,0,0,1-1.5-1.55,1.9,1.9,0,0,1,1.84-2,1.43,1.43,0,0,1,1.49,1.55A1.9,1.9,0,0,1,286.89,140.12Zm-.83-1.57a.87.87,0,0,0,.86,1c.58,0,1.13-.51,1.13-1.43a.86.86,0,0,0-.86-1C286.62,137.13,286.06,137.64,286.06,138.55Z"/><path class="cls-7" d="M291.3,137.31c-.54,0-1,.33-1.16,1.11l-.35,1.6h-.65l.59-2.78a4.28,4.28,0,0,0,.08-.59h.65a2.75,2.75,0,0,1-.06.52,1.26,1.26,0,0,1,1.1-.58l.19,0-.15.72A1,1,0,0,0,291.3,137.31Z"/><path class="cls-7" d="M295.31,136.65l-.52,2.49a3.28,3.28,0,0,0-.08.76V140h-.62a1,1,0,0,1,0-.2,2.2,2.2,0,0,1,0-.23,1.31,1.31,0,0,1-2.33-1,1.91,1.91,0,0,1,1.76-2.06,1.14,1.14,0,0,1,1.05.53l.09-.43Zm-2.89,1.95c0,.53.26.92.8.92s1.12-.67,1.12-1.53a.76.76,0,0,0-.79-.87C292.82,137.12,292.42,137.92,292.42,138.6Z"/><path class="cls-7" d="M296,140.07v.05a.73.73,0,0,0,.81.76c.66,0,1-.42,1.19-1.16l.05-.28a1,1,0,0,1-.89.42,1.32,1.32,0,0,1-1.37-1.42,1.75,1.75,0,0,1,1.72-1.86,1.15,1.15,0,0,1,1,.52l.09-.45h.68l-.64,3a1.88,1.88,0,0,1-1.89,1.76,1.27,1.27,0,0,1-1.41-1.23Zm1.53-2.92a1.11,1.11,0,0,0-1.07,1.25.8.8,0,0,0,.83.9c.64,0,1.07-.51,1.07-1.34A.78.78,0,0,0,297.48,137.15Z"/><path class="cls-7" d="M300.35,138.52a.53.53,0,0,0,0,.12.85.85,0,0,0,.86.9,1.1,1.1,0,0,0,1-.56l.5.32a1.67,1.67,0,0,1-1.48.82,1.44,1.44,0,0,1-1.53-1.53,1.92,1.92,0,0,1,1.85-2.05,1.28,1.28,0,0,1,1.4,1.36,2.24,2.24,0,0,1-.1.62Zm1.88-.53a.52.52,0,0,0,0-.14.69.69,0,0,0-.75-.73,1.11,1.11,0,0,0-1.06.87Z"/><path class="cls-7" d="M304,139.1a.52.52,0,0,1,.53.57,1.49,1.49,0,0,1-1.38,1.47l.08-.38a1,1,0,0,0,.8-.73.57.57,0,0,1-.16,0,.41.41,0,0,1-.43-.43A.53.53,0,0,1,304,139.1Z"/><path class="cls-7" d="M307.85,138.52a.53.53,0,0,0,0,.12.84.84,0,0,0,.85.9,1.12,1.12,0,0,0,1-.56l.49.32a1.64,1.64,0,0,1-1.47.82,1.44,1.44,0,0,1-1.53-1.53,1.92,1.92,0,0,1,1.85-2.05,1.27,1.27,0,0,1,1.39,1.36,2.34,2.34,0,0,1-.09.62Zm1.88-.53a.57.57,0,0,0,0-.14.69.69,0,0,0-.75-.73,1.11,1.11,0,0,0-1.05.87Z"/><path class="cls-7" d="M311.14,139.05l.39-1.81h-.62l.13-.59h.1a.64.64,0,0,0,.69-.55l.11-.52h.6l-.23,1.07H313l-.12.59h-.68l-.38,1.78a1,1,0,0,0,0,.16c0,.21.13.3.38.3l.23,0-.12.54a.84.84,0,0,1-.35.05.73.73,0,0,1-.82-.74A1.22,1.22,0,0,1,311.14,139.05Z"/><path class="cls-7" d="M315.73,137.82a.83.83,0,0,0-.83-.69c-.58,0-1.14.48-1.14,1.43a.88.88,0,0,0,.92,1,1,1,0,0,0,.94-.63l.56.24a1.68,1.68,0,0,1-1.53,1,1.47,1.47,0,0,1-1.55-1.55,1.89,1.89,0,0,1,1.84-2,1.34,1.34,0,0,1,1.4,1.07Z"/><path class="cls-7" d="M316.69,139.62a.54.54,0,0,1,.54-.54.42.42,0,0,1,.45.43.54.54,0,0,1-.54.54A.43.43,0,0,1,316.69,139.62Z"/><path class="cls-7" d="M224.54,79.42h-1l-.5,2.35h-.78l1.2-5.67h1.84a1.41,1.41,0,0,1,1.55,1.44,1.81,1.81,0,0,1-1.51,1.82l.92,2.41h-.83Zm.25-.7a1.12,1.12,0,0,0,1.27-1.13c0-.47-.3-.79-.89-.79H224.1l-.42,1.92Z"/><path class="cls-7" d="M227.78,80.06a.62.62,0,0,0,0,.13,1,1,0,0,0,1,1,1.27,1.27,0,0,0,1.14-.64l.57.36a1.89,1.89,0,0,1-1.69.94A1.64,1.64,0,0,1,227,80.14a2.19,2.19,0,0,1,2.11-2.34,1.45,1.45,0,0,1,1.59,1.55,2.43,2.43,0,0,1-.11.71Zm2.15-.61a.71.71,0,0,0,0-.16.78.78,0,0,0-.85-.82,1.27,1.27,0,0,0-1.21,1Z"/><path class="cls-7" d="M232.76,81.85a1.51,1.51,0,0,1-1.52-1.69,2.18,2.18,0,0,1,2-2.35,1.3,1.3,0,0,1,1.2.6L235,76h.74l-1,4.79a3.77,3.77,0,0,0-.09.87.72.72,0,0,0,0,.13h-.72s0-.12,0-.22,0-.13,0-.27A1.46,1.46,0,0,1,232.76,81.85Zm-.76-1.7c0,.61.3,1,.91,1s1.27-.76,1.27-1.75a.87.87,0,0,0-.89-1C232.45,78.46,232,79.38,232,80.15Z"/><path class="cls-7" d="M237.19,81.85A1.15,1.15,0,0,1,236,80.61a2.28,2.28,0,0,1,.05-.44l.48-2.25h.75l-.47,2.23a2.46,2.46,0,0,0,0,.37.61.61,0,0,0,.68.69c.58,0,.92-.5,1-1l.47-2.25h.75l-.6,2.85a3.77,3.77,0,0,0-.09.87.72.72,0,0,0,0,.13h-.72a1,1,0,0,1,0-.22s0-.12,0-.23A1.32,1.32,0,0,1,237.19,81.85Z"/><path class="cls-7" d="M240.5,81.77h-1l1.88-2-1-1.88h.82l.69,1.34,1.22-1.34h1l-1.82,1.91c.35.64.69,1.29,1,1.94h-.82l-.73-1.39Z"/><path class="cls-7" d="M244.74,80.72a.6.6,0,0,1,.6.66,1.69,1.69,0,0,1-1.57,1.67l.09-.43a1.19,1.19,0,0,0,.92-.83.68.68,0,0,1-.19,0,.47.47,0,0,1-.49-.49A.62.62,0,0,1,244.74,80.72Z"/><path class="cls-7" d="M251.55,80.3a.89.89,0,0,0-.61-.83l-.75-.33a1.54,1.54,0,0,1-1-1.46,1.78,1.78,0,0,1,1.9-1.7,1.68,1.68,0,0,1,1.86,1.61l-.75.14a1,1,0,0,0-1.17-1,1,1,0,0,0-1,.89.83.83,0,0,0,.53.79l.77.36a1.63,1.63,0,0,1,1.11,1.49,1.78,1.78,0,0,1-1.91,1.68A1.88,1.88,0,0,1,248.39,80a.75.75,0,0,1,0-.12l.79-.13a1,1,0,0,0,0,.16,1.2,1.2,0,0,0,1.28,1.28C251.11,81.18,251.55,80.83,251.55,80.3Z"/><path class="cls-7" d="M257.13,77.92l-.59,2.85a3.77,3.77,0,0,0-.09.87.72.72,0,0,0,0,.13h-.72s0-.12,0-.22,0-.15,0-.27a1.5,1.5,0,0,1-2.66-1.12,2.18,2.18,0,0,1,2-2.35,1.3,1.3,0,0,1,1.2.6l.1-.49Zm-3.29,2.23c0,.61.3,1,.91,1s1.27-.76,1.27-1.75a.87.87,0,0,0-.89-1C254.29,78.46,253.84,79.38,253.84,80.15Z"/><path class="cls-7" d="M257.87,81.83v.06a.83.83,0,0,0,.93.86c.74,0,1.18-.48,1.35-1.32l.07-.32a1.22,1.22,0,0,1-1,.48A1.51,1.51,0,0,1,257.63,80a2,2,0,0,1,2-2.13,1.3,1.3,0,0,1,1.19.6l.11-.52h.77l-.72,3.48a2.16,2.16,0,0,1-2.17,2A1.46,1.46,0,0,1,257.16,82Zm1.75-3.33a1.27,1.27,0,0,0-1.23,1.42.92.92,0,0,0,.95,1c.73,0,1.22-.58,1.22-1.52A.89.89,0,0,0,259.62,78.5Z"/><path class="cls-7" d="M266.19,77.92l-.6,2.85a3.77,3.77,0,0,0-.09.87.72.72,0,0,0,0,.13h-.71a1,1,0,0,1,0-.22,1.53,1.53,0,0,1,0-.27,1.5,1.5,0,0,1-2.66-1.12,2.17,2.17,0,0,1,2-2.35,1.3,1.3,0,0,1,1.2.6l.11-.49Zm-3.29,2.23c0,.61.29,1,.91,1s1.27-.76,1.27-1.75a.87.87,0,0,0-.9-1C263.34,78.46,262.9,79.38,262.9,80.15Z"/><path class="cls-7" d="M267.18,80.42a.81.81,0,0,0,.84.83.54.54,0,0,0,.61-.51.52.52,0,0,0-.36-.46l-.56-.25a1.05,1.05,0,0,1-.69-1,1.3,1.3,0,0,1,1.41-1.25,1.26,1.26,0,0,1,1.37,1.12l-.67.18a.72.72,0,0,0-.77-.66.55.55,0,0,0-.61.5.45.45,0,0,0,.31.43l.52.24a1.18,1.18,0,0,1,.8,1.07,1.26,1.26,0,0,1-1.4,1.21,1.35,1.35,0,0,1-1.47-1.32Z"/><path class="cls-7" d="M270.85,80.72a.6.6,0,0,1,.61.66,1.7,1.7,0,0,1-1.58,1.67l.09-.43a1.19,1.19,0,0,0,.92-.83.66.66,0,0,1-.18,0,.48.48,0,0,1-.5-.49A.62.62,0,0,1,270.85,80.72Z"/><path class="cls-7" d="M225.9,91.37,224,86.78l-1,4.59h-.78l1.2-5.67h.93l1.8,4.43.94-4.43h.79l-1.2,5.67Z"/><path class="cls-7" d="M232.18,87.52l-.6,2.85a3.77,3.77,0,0,0-.09.87.72.72,0,0,0,0,.13h-.72s0-.12,0-.22,0-.15,0-.27a1.5,1.5,0,0,1-2.66-1.12,2.18,2.18,0,0,1,2-2.35,1.3,1.3,0,0,1,1.2.6l.1-.49Zm-3.3,2.23c0,.61.3,1,.91,1s1.27-.76,1.27-1.75a.87.87,0,0,0-.89-1C229.33,88.06,228.88,89,228.88,89.75Z"/><path class="cls-7" d="M234.27,91.37h-.73l-.68-3.85h.77l.43,3,1.64-3h.85Z"/><path class="cls-7" d="M236.47,91.37l.83-3.85h.75l-.83,3.85ZM238,85.51a.47.47,0,0,1,.49.48.61.61,0,0,1-.59.59.48.48,0,0,1-.49-.48A.61.61,0,0,1,238,85.51Z"/><path class="cls-7" d="M238.83,91.43v.06a.83.83,0,0,0,.92.86c.75,0,1.18-.48,1.35-1.32l.07-.32a1.22,1.22,0,0,1-1,.48,1.51,1.51,0,0,1-1.56-1.62,2,2,0,0,1,2-2.13,1.33,1.33,0,0,1,1.2.6l.1-.52h.77L241.89,91a2.16,2.16,0,0,1-2.17,2,1.46,1.46,0,0,1-1.61-1.41Zm1.74-3.33a1.27,1.27,0,0,0-1.23,1.42.93.93,0,0,0,1,1c.72,0,1.21-.58,1.21-1.52A.89.89,0,0,0,240.57,88.1Z"/><path class="cls-7" d="M247.14,87.52l-.6,2.85a4.23,4.23,0,0,0-.08.87v.13h-.71a1.22,1.22,0,0,1,0-.22c0-.06,0-.15,0-.27a1.5,1.5,0,0,1-2.66-1.12,2.18,2.18,0,0,1,2-2.35,1.32,1.32,0,0,1,1.2.6l.1-.49Zm-3.29,2.23c0,.61.29,1,.91,1S246,90,246,89.05a.87.87,0,0,0-.89-1C244.3,88.06,243.85,89,243.85,89.75Z"/><path class="cls-7" d="M248,90.27l.44-2.07h-.71l.15-.68H248a.73.73,0,0,0,.79-.62l.13-.59h.69l-.27,1.21h.78l-.14.68h-.78l-.42,2a.62.62,0,0,0,0,.18c0,.24.15.34.43.34h.26l-.13.61a1,1,0,0,1-.41.06.82.82,0,0,1-.92-.85A1,1,0,0,1,248,90.27Z"/><path class="cls-7" d="M250.2,91.37l.82-3.85h.76L251,91.37Zm1.55-5.86a.47.47,0,0,1,.49.48.61.61,0,0,1-.59.59.48.48,0,0,1-.49-.48A.6.6,0,0,1,251.75,85.51Z"/><path class="cls-7" d="M254,91.49a1.67,1.67,0,0,1-1.71-1.78,2.17,2.17,0,0,1,2.1-2.31,1.64,1.64,0,0,1,1.7,1.77A2.17,2.17,0,0,1,254,91.49Zm-.95-1.79a1,1,0,0,0,1,1.12c.66,0,1.29-.59,1.29-1.63a1,1,0,0,0-1-1.11C253.7,88.08,253.06,88.65,253.06,89.7Z"/><path class="cls-7" d="M259.06,91.37l.5-2.33a1.17,1.17,0,0,0,0-.29.62.62,0,0,0-.7-.67,1.17,1.17,0,0,0-1.07,1l-.48,2.24h-.76l.68-3.17a3.88,3.88,0,0,0,.09-.68h.74a4.31,4.31,0,0,1,0,.43,1.4,1.4,0,0,1,1.19-.54,1.09,1.09,0,0,1,1.15,1.15,1.64,1.64,0,0,1-.05.37l-.51,2.44Z"/><path class="cls-7" d="M225.34,28.2a.89.89,0,0,0-.61-.82L224,27a1.54,1.54,0,0,1-1-1.46,1.78,1.78,0,0,1,1.9-1.7,1.67,1.67,0,0,1,1.85,1.61l-.74.15a1,1,0,0,0-1.18-1.06,1,1,0,0,0-1,.9.82.82,0,0,0,.53.78l.78.36a1.63,1.63,0,0,1,1.1,1.49,1.77,1.77,0,0,1-1.9,1.68,1.87,1.87,0,0,1-2.07-1.88.62.62,0,0,1,0-.12l.79-.14a1.1,1.1,0,0,0,0,.16,1.2,1.2,0,0,0,1.28,1.28C224.9,29.08,225.34,28.73,225.34,28.2Z"/><path class="cls-7" d="M229.79,27.16a.92.92,0,0,0-.95-.78c-.66,0-1.3.54-1.3,1.63a1,1,0,0,0,1.05,1.11,1.14,1.14,0,0,0,1.07-.73l.64.28a1.89,1.89,0,0,1-1.74,1.12A1.68,1.68,0,0,1,226.79,28a2.15,2.15,0,0,1,2.1-2.31,1.53,1.53,0,0,1,1.6,1.21Z"/><path class="cls-7" d="M231.61,28a.71.71,0,0,0,0,.14,1,1,0,0,0,1,1,1.24,1.24,0,0,0,1.13-.64l.57.37a1.91,1.91,0,0,1-1.69.93A1.64,1.64,0,0,1,230.85,28,2.19,2.19,0,0,1,233,25.71a1.45,1.45,0,0,1,1.59,1.55,2.41,2.41,0,0,1-.11.7Zm2.15-.61a.57.57,0,0,0,0-.16.78.78,0,0,0-.86-.82,1.27,1.27,0,0,0-1.21,1Z"/><path class="cls-7" d="M237.51,29.67l.5-2.32a2.16,2.16,0,0,0,0-.3.62.62,0,0,0-.7-.67,1.17,1.17,0,0,0-1.07,1.05l-.48,2.24H235l.68-3.16a4,4,0,0,0,.09-.68h.74s0,.24,0,.42a1.39,1.39,0,0,1,1.19-.54,1.09,1.09,0,0,1,1.14,1.16,1.53,1.53,0,0,1,0,.36l-.52,2.44Z"/><path class="cls-7" d="M240.27,28v.14a1,1,0,0,0,1,1,1.27,1.27,0,0,0,1.14-.64l.56.37a1.89,1.89,0,0,1-1.68.93A1.65,1.65,0,0,1,239.51,28a2.19,2.19,0,0,1,2.11-2.33,1.46,1.46,0,0,1,1.6,1.55,2.34,2.34,0,0,1-.12.7Zm2.15-.61a.57.57,0,0,0,0-.16.78.78,0,0,0-.86-.82,1.26,1.26,0,0,0-1.2,1Z"/><path class="cls-7" d="M244.24,28.32a.81.81,0,0,0,.84.83c.42,0,.62-.25.62-.51s-.12-.34-.36-.45l-.56-.26a1.05,1.05,0,0,1-.69-1,1.3,1.3,0,0,1,1.41-1.24,1.25,1.25,0,0,1,1.36,1.11l-.67.18a.71.71,0,0,0-.77-.66.54.54,0,0,0-.6.5.43.43,0,0,0,.3.43l.53.24a1.21,1.21,0,0,1,.8,1.08,1.27,1.27,0,0,1-1.41,1.2,1.34,1.34,0,0,1-1.46-1.32Z"/><path class="cls-7" d="M247.91,28.63a.59.59,0,0,1,.61.65A1.69,1.69,0,0,1,247,31l.08-.43a1.17,1.17,0,0,0,.92-.83.66.66,0,0,1-.18,0,.47.47,0,0,1-.5-.49A.61.61,0,0,1,247.91,28.63Z"/><path class="cls-7" d="M257.16,25.68l-.74.22a1.59,1.59,0,0,0-1.64-1.3,2.36,2.36,0,0,0-2.17,2.62,1.64,1.64,0,0,0,1.67,1.86,1.92,1.92,0,0,0,1.82-1.28l.69.28a2.69,2.69,0,0,1-2.58,1.71,2.36,2.36,0,0,1-2.4-2.52,3.13,3.13,0,0,1,3.05-3.39A2.18,2.18,0,0,1,257.16,25.68Z"/><path class="cls-7" d="M259,29.79A1.66,1.66,0,0,1,257.32,28a2.16,2.16,0,0,1,2.1-2.31,1.64,1.64,0,0,1,1.71,1.76A2.18,2.18,0,0,1,259,29.79ZM258.09,28a1,1,0,0,0,1,1.12c.67,0,1.3-.58,1.3-1.63a1,1,0,0,0-1-1.11C258.72,26.38,258.09,27,258.09,28Z"/><path class="cls-7" d="M263.94,29.67l.51-2.41a2.6,2.6,0,0,0,0-.26.59.59,0,0,0-.66-.63c-.54,0-.85.41-1,1l-.5,2.32h-.74l.67-3.16a5,5,0,0,0,.1-.68h.73s0,.2,0,.4a1.34,1.34,0,0,1,1.11-.52,1,1,0,0,1,1,.62,1.58,1.58,0,0,1,1.32-.62,1.06,1.06,0,0,1,1.12,1.11,1.59,1.59,0,0,1,0,.36L267,29.67h-.75l.51-2.41a1.36,1.36,0,0,0,0-.27.59.59,0,0,0-.67-.62c-.52,0-.84.42-1,1l-.49,2.32Z"/><path class="cls-7" d="M270.8,25.72a1.45,1.45,0,0,1,1.46,1.65,2.16,2.16,0,0,1-2,2.41,1.41,1.41,0,0,1-1.26-.7l-.45,2.11h-.75l1-4.68a3.82,3.82,0,0,0,.1-.68h.73a2.38,2.38,0,0,1,0,.44A1.55,1.55,0,0,1,270.8,25.72ZM269.24,28a.94.94,0,0,0,1,1.07c.65,0,1.3-.59,1.3-1.64a.93.93,0,0,0-1-1.06C269.86,26.4,269.24,27,269.24,28Z"/><path class="cls-7" d="M274.5,29.79A1.66,1.66,0,0,1,272.79,28a2.17,2.17,0,0,1,2.11-2.31,1.64,1.64,0,0,1,1.7,1.76A2.18,2.18,0,0,1,274.5,29.79ZM273.56,28a1,1,0,0,0,1,1.12c.66,0,1.29-.58,1.29-1.63a1,1,0,0,0-1-1.11C274.19,26.38,273.56,27,273.56,28Z"/><path class="cls-7" d="M279.56,29.67l.5-2.32a2.16,2.16,0,0,0,0-.3.62.62,0,0,0-.71-.67,1.18,1.18,0,0,0-1.07,1.05l-.48,2.24h-.75l.67-3.16a4.74,4.74,0,0,0,.1-.68h.73a3.52,3.52,0,0,1,0,.42,1.38,1.38,0,0,1,1.19-.54,1.09,1.09,0,0,1,1.14,1.16,2.33,2.33,0,0,1,0,.36l-.52,2.44Z"/><path class="cls-7" d="M282.32,28a.71.71,0,0,0,0,.14,1,1,0,0,0,1,1,1.24,1.24,0,0,0,1.13-.64l.57.37a1.91,1.91,0,0,1-1.69.93A1.64,1.64,0,0,1,281.56,28a2.19,2.19,0,0,1,2.11-2.33,1.45,1.45,0,0,1,1.59,1.55,2.41,2.41,0,0,1-.11.7Zm2.15-.61a.57.57,0,0,0,0-.16.78.78,0,0,0-.86-.82,1.27,1.27,0,0,0-1.21,1Z"/><path class="cls-7" d="M288.22,29.67l.5-2.32a2.16,2.16,0,0,0,0-.3.62.62,0,0,0-.7-.67A1.17,1.17,0,0,0,287,27.43l-.48,2.24h-.76l.68-3.16a4,4,0,0,0,.09-.68h.74s0,.24-.05.42a1.4,1.4,0,0,1,1.19-.54,1.09,1.09,0,0,1,1.14,1.16,1.53,1.53,0,0,1,0,.36L289,29.67Z"/><path class="cls-7" d="M290.45,28.57l.44-2.06h-.71l.15-.68h.11a.73.73,0,0,0,.79-.63l.13-.59h.69l-.27,1.22h.78l-.14.68h-.78l-.42,2a.67.67,0,0,0,0,.18c0,.24.15.35.43.35l.26,0-.13.62a1.46,1.46,0,0,1-.41.05.82.82,0,0,1-.92-.84A1,1,0,0,1,290.45,28.57Z"/><path class="cls-7" d="M293.22,28.32a.81.81,0,0,0,.84.83c.43,0,.62-.25.62-.51s-.12-.34-.36-.45l-.56-.26a1.05,1.05,0,0,1-.69-1,1.3,1.3,0,0,1,1.41-1.24,1.25,1.25,0,0,1,1.37,1.11l-.68.18a.71.71,0,0,0-.76-.66.54.54,0,0,0-.61.5.43.43,0,0,0,.3.43l.53.24a1.21,1.21,0,0,1,.8,1.08,1.27,1.27,0,0,1-1.41,1.2,1.34,1.34,0,0,1-1.46-1.32Z"/><path class="cls-7" d="M296.9,28.63a.59.59,0,0,1,.6.65A1.69,1.69,0,0,1,295.93,31l.09-.43a1.19,1.19,0,0,0,.92-.83.84.84,0,0,1-.19,0,.47.47,0,0,1-.49-.49A.61.61,0,0,1,296.9,28.63Z"/><path class="cls-7" d="M225.17,33.6a1.29,1.29,0,0,1,1.47,1.3,1.56,1.56,0,0,1-1.14,1.5,1.18,1.18,0,0,1,.83,1.15,1.79,1.79,0,0,1-1.94,1.72h-2.13l1.2-5.67Zm-.89,5a1.13,1.13,0,0,0,1.24-1.08c0-.44-.26-.76-.91-.76h-1l-.38,1.84Zm.35-2.51A1.09,1.09,0,0,0,225.85,35c0-.45-.31-.73-.87-.73h-.88l-.39,1.79Z"/><path class="cls-7" d="M228.42,39.35a1.15,1.15,0,0,1-1.24-1.24,1.8,1.8,0,0,1,0-.44l.48-2.24h.75L228,37.66a1.61,1.61,0,0,0,0,.37.6.6,0,0,0,.67.68c.58,0,.92-.49,1-1l.47-2.24h.74l-.6,2.84a3.8,3.8,0,0,0-.09.88.68.68,0,0,0,0,.12h-.72a1.22,1.22,0,0,1,0-.22v-.22A1.28,1.28,0,0,1,228.42,39.35Z"/><path class="cls-7" d="M231.86,37.92a.81.81,0,0,0,.84.83c.42,0,.61-.25.61-.51s-.12-.34-.36-.45l-.56-.26a1,1,0,0,1-.68-1,1.29,1.29,0,0,1,1.4-1.24,1.25,1.25,0,0,1,1.37,1.11l-.67.18a.72.72,0,0,0-.77-.66.55.55,0,0,0-.61.5.44.44,0,0,0,.31.43l.52.24a1.2,1.2,0,0,1,.8,1.08,1.26,1.26,0,0,1-1.4,1.2,1.35,1.35,0,0,1-1.47-1.32Z"/><path class="cls-7" d="M234.84,39.27l.83-3.84h.75l-.83,3.84Zm1.55-5.86a.48.48,0,0,1,.49.48.61.61,0,0,1-.59.59.47.47,0,0,1-.49-.48A.61.61,0,0,1,236.39,33.41Z"/><path class="cls-7" d="M239.38,39.27l.49-2.32a1.26,1.26,0,0,0,0-.3.62.62,0,0,0-.7-.67A1.17,1.17,0,0,0,238.13,37l-.48,2.24h-.75l.67-3.16a4.74,4.74,0,0,0,.1-.68h.73s0,.24-.05.42a1.4,1.4,0,0,1,1.19-.54,1.09,1.09,0,0,1,1.15,1.16,2.33,2.33,0,0,1,0,.36l-.52,2.44Z"/><path class="cls-7" d="M242.14,37.56a.71.71,0,0,0,0,.14,1,1,0,0,0,1,1,1.27,1.27,0,0,0,1.14-.64l.57.37a1.91,1.91,0,0,1-1.69.93,1.64,1.64,0,0,1-1.74-1.75,2.19,2.19,0,0,1,2.11-2.33,1.45,1.45,0,0,1,1.59,1.55,2.41,2.41,0,0,1-.11.7Zm2.15-.61a.67.67,0,0,0,0-.16.78.78,0,0,0-.85-.82,1.27,1.27,0,0,0-1.21,1Z"/><path class="cls-7" d="M246.1,37.92a.81.81,0,0,0,.84.83c.43,0,.62-.25.62-.51s-.12-.34-.36-.45l-.56-.26a1.05,1.05,0,0,1-.69-1,1.3,1.3,0,0,1,1.41-1.24,1.25,1.25,0,0,1,1.37,1.11l-.67.18a.72.72,0,0,0-.77-.66.54.54,0,0,0-.61.5.43.43,0,0,0,.3.43l.53.24a1.21,1.21,0,0,1,.8,1.08,1.27,1.27,0,0,1-1.41,1.2,1.34,1.34,0,0,1-1.46-1.32Z"/><path class="cls-7" d="M249.63,37.92a.81.81,0,0,0,.84.83c.43,0,.62-.25.62-.51s-.12-.34-.36-.45l-.56-.26a1.05,1.05,0,0,1-.69-1,1.3,1.3,0,0,1,1.41-1.24,1.25,1.25,0,0,1,1.37,1.11l-.68.18a.71.71,0,0,0-.76-.66.54.54,0,0,0-.61.5.43.43,0,0,0,.3.43l.53.24a1.21,1.21,0,0,1,.8,1.08,1.27,1.27,0,0,1-1.41,1.2A1.34,1.34,0,0,1,249,38.07Z"/><path class="cls-7" d="M254.79,39.27,256,33.6h.79l-1,4.94h2.6l-.15.73Z"/><path class="cls-7" d="M260.44,39.39a1.66,1.66,0,0,1-1.71-1.77,2.16,2.16,0,0,1,2.1-2.31,1.64,1.64,0,0,1,1.71,1.76A2.18,2.18,0,0,1,260.44,39.39Zm-.94-1.79a1,1,0,0,0,1,1.12c.67,0,1.3-.58,1.3-1.63a1,1,0,0,0-1-1.11C260.13,36,259.5,36.55,259.5,37.6Z"/><path class="cls-7" d="M263.31,39.34v0a.84.84,0,0,0,.93.87c.74,0,1.18-.48,1.35-1.33l.07-.31a1.24,1.24,0,0,1-1,.47,1.51,1.51,0,0,1-1.56-1.62,2,2,0,0,1,2-2.12,1.29,1.29,0,0,1,1.19.59l.11-.51h.77l-.72,3.48a2.16,2.16,0,0,1-2.17,2,1.45,1.45,0,0,1-1.61-1.41ZM265.06,36a1.27,1.27,0,0,0-1.23,1.43.93.93,0,0,0,.95,1c.73,0,1.22-.59,1.22-1.53A.89.89,0,0,0,265.06,36Z"/><path class="cls-7" d="M267.54,39.27l.82-3.84h.75l-.82,3.84Zm1.55-5.86a.48.48,0,0,1,.49.48.62.62,0,0,1-.6.59.47.47,0,0,1-.48-.48A.61.61,0,0,1,269.09,33.41Z"/><path class="cls-7" d="M272.6,36.76a.94.94,0,0,0-1-.78c-.66,0-1.3.54-1.3,1.63a1,1,0,0,0,1,1.11,1.15,1.15,0,0,0,1.07-.73l.64.28a1.91,1.91,0,0,1-1.74,1.12,1.68,1.68,0,0,1-1.78-1.77,2.16,2.16,0,0,1,2.1-2.31,1.52,1.52,0,0,1,1.6,1.21Z"/><path class="cls-7" d="M274.38,38.23a.59.59,0,0,1,.61.65,1.69,1.69,0,0,1-1.57,1.67l.08-.43a1.19,1.19,0,0,0,.92-.83.42.42,0,0,1-.18,0,.47.47,0,0,1-.5-.49A.61.61,0,0,1,274.38,38.23Z"/><path class="cls-7" d="M225.76,47.29h-2.38l-.91,1.58h-.89L225,43.2h.86l1,5.67H226Zm-1.95-.73h1.83l-.4-2.48Z"/><path class="cls-7" d="M230.41,43.2A1.44,1.44,0,0,1,232,44.64a1.92,1.92,0,0,1-2.09,1.88h-1.21l-.5,2.35h-.78l1.2-5.67Zm-1.16.7-.42,1.93h1.07a1.16,1.16,0,0,0,1.3-1.14c0-.47-.33-.79-.92-.79Z"/><path class="cls-7" d="M232.11,48.87l1.2-5.67h.8l-1.2,5.67Z"/><path class="cls-7" d="M236.44,48.87l1.2-5.67h.8l-1.2,5.67Z"/><path class="cls-7" d="M241.08,48.87l.5-2.32a2.16,2.16,0,0,0,0-.3.62.62,0,0,0-.71-.67,1.18,1.18,0,0,0-1.07,1.05l-.48,2.24h-.75l.67-3.16a4.74,4.74,0,0,0,.1-.68h.73a3.52,3.52,0,0,1,0,.42,1.37,1.37,0,0,1,1.19-.53,1.08,1.08,0,0,1,1.14,1.15,1.53,1.53,0,0,1,0,.36l-.52,2.44Z"/><path class="cls-7" d="M243.31,47.77l.44-2.06H243l.15-.68h.11a.74.74,0,0,0,.79-.63l.13-.59h.68L244.64,45h.78l-.15.68h-.77l-.43,2a1.41,1.41,0,0,0,0,.18c0,.24.14.35.43.35l.26,0-.13.62a1.53,1.53,0,0,1-.41,0,.82.82,0,0,1-.93-.84A1,1,0,0,1,243.31,47.77Z"/><path class="cls-7" d="M246.34,47.16a.71.71,0,0,0,0,.14,1,1,0,0,0,1,1,1.27,1.27,0,0,0,1.14-.64l.57.37a1.91,1.91,0,0,1-1.69.93,1.64,1.64,0,0,1-1.74-1.75,2.19,2.19,0,0,1,2.11-2.33,1.45,1.45,0,0,1,1.59,1.55,2.41,2.41,0,0,1-.11.7Zm2.15-.61a.67.67,0,0,0,0-.16.78.78,0,0,0-.85-.82,1.27,1.27,0,0,0-1.21,1Z"/><path class="cls-7" d="M250.06,48.94V49a.83.83,0,0,0,.92.87c.75,0,1.18-.48,1.36-1.33l.06-.31a1.23,1.23,0,0,1-1,.47,1.51,1.51,0,0,1-1.56-1.62,2,2,0,0,1,2-2.12,1.32,1.32,0,0,1,1.19.59l.1-.51h.77l-.72,3.48a2.16,2.16,0,0,1-2.17,2,1.44,1.44,0,0,1-1.6-1.41Zm1.74-3.34A1.26,1.26,0,0,0,250.58,47a.92.92,0,0,0,.95,1c.73,0,1.21-.59,1.21-1.53A.89.89,0,0,0,251.8,45.6Z"/><path class="cls-7" d="M256.74,45.78c-.61,0-1.13.37-1.32,1.27l-.4,1.82h-.74l.67-3.16a5.75,5.75,0,0,0,.1-.68h.73a2.9,2.9,0,0,1-.07.6A1.44,1.44,0,0,1,257,45l.21,0-.17.82Z"/><path class="cls-7" d="M261.33,45l-.6,2.84a3.84,3.84,0,0,0-.09.88.68.68,0,0,0,0,.12h-.71a1,1,0,0,1,0-.22,1.43,1.43,0,0,1,0-.26,1.52,1.52,0,0,1-1.15.56,1.5,1.5,0,0,1-1.52-1.68,2.18,2.18,0,0,1,2-2.35,1.28,1.28,0,0,1,1.2.6l.1-.49ZM258,47.26c0,.61.3,1.05.91,1.05s1.28-.76,1.28-1.76a.88.88,0,0,0-.9-1C258.48,45.56,258,46.48,258,47.26Z"/><path class="cls-7" d="M262.15,47.77l.44-2.06h-.7L262,45h.12a.74.74,0,0,0,.79-.63l.12-.59h.69L263.49,45h.77l-.14.68h-.78l-.42,2a.62.62,0,0,0,0,.18c0,.24.14.35.43.35l.25,0-.12.62a1.53,1.53,0,0,1-.41,0,.82.82,0,0,1-.93-.84A1.53,1.53,0,0,1,262.15,47.77Z"/><path class="cls-7" d="M264.39,48.87l.82-3.84H266l-.82,3.84ZM265.94,43a.47.47,0,0,1,.48.48.61.61,0,0,1-.59.59.47.47,0,0,1-.49-.48A.62.62,0,0,1,265.94,43Z"/><path class="cls-7" d="M268.19,49a1.66,1.66,0,0,1-1.71-1.77,2.16,2.16,0,0,1,2.1-2.31,1.64,1.64,0,0,1,1.71,1.76A2.18,2.18,0,0,1,268.19,49Zm-.94-1.79a1,1,0,0,0,1,1.12c.67,0,1.3-.58,1.3-1.63a1,1,0,0,0-1-1.11C267.88,45.58,267.25,46.15,267.25,47.2Z"/><path class="cls-7" d="M273.25,48.87l.49-2.32a1.21,1.21,0,0,0,0-.3.62.62,0,0,0-.71-.67A1.17,1.17,0,0,0,272,46.63l-.48,2.24h-.75l.67-3.16a4.74,4.74,0,0,0,.1-.68h.73a2.52,2.52,0,0,1,0,.42,1.4,1.4,0,0,1,1.2-.53,1.08,1.08,0,0,1,1.14,1.15,2.33,2.33,0,0,1,0,.36L274,48.87Z"/><circle class="cls-3" cx="244.14" cy="181.63" r="15.67"/><path class="cls-9" d="M253.22,179.2v5.53a1.33,1.33,0,0,1-2.66,0V179.2a1.33,1.33,0,0,1,2.66,0Zm-16.82-1.33a1.32,1.32,0,0,0-1.33,1.33v5.53a1.33,1.33,0,1,0,2.65,0V179.2A1.32,1.32,0,0,0,236.4,177.87Zm13.67-.23H238.22a5.41,5.41,0,0,1,3-4.77l-.94-1.69a.19.19,0,0,1,.07-.26.19.19,0,0,1,.26.08l1,1.7a6.36,6.36,0,0,1,5.13,0l.95-1.7a.17.17,0,0,1,.16-.1l.09,0a.21.21,0,0,1,.08.26l-.94,1.69A5.41,5.41,0,0,1,250.07,177.64ZM241.91,175a.5.5,0,1,0-.5.49A.5.5,0,0,0,241.91,175Zm5.46,0a.49.49,0,0,0-.49-.5.5.5,0,1,0,0,1A.49.49,0,0,0,247.37,175Zm-9.15,11.69a1.44,1.44,0,0,0,1.43,1.44h.95v2.93a1.33,1.33,0,0,0,2.66,0v-2.93H245v2.93a1.33,1.33,0,0,0,2.66,0v-2.93h.95a1.44,1.44,0,0,0,1.43-1.44v-8.56H238.22Z"/><circle class="cls-3" cx="100.09" cy="182.1" r="15.72"/><path class="cls-9" d="M107.88,186.05a11.45,11.45,0,0,1-1.12,2,10.19,10.19,0,0,1-1.44,1.74,2.82,2.82,0,0,1-1.85.82,4.67,4.67,0,0,1-1.71-.41,5,5,0,0,0-1.84-.41,5.08,5.08,0,0,0-1.89.41,5.1,5.1,0,0,1-1.64.43,2.6,2.6,0,0,1-1.89-.84A10.69,10.69,0,0,1,93,188a12.47,12.47,0,0,1-1.59-3.16,11.46,11.46,0,0,1-.67-3.77,6.9,6.9,0,0,1,.9-3.6,5.38,5.38,0,0,1,1.9-1.92,5,5,0,0,1,2.56-.72,5.93,5.93,0,0,1,2,.46,6.09,6.09,0,0,0,1.57.46,9.53,9.53,0,0,0,1.74-.54,5.6,5.6,0,0,1,2.37-.42,5,5,0,0,1,3.93,2.07,4.55,4.55,0,0,0-.88,7.29,4.84,4.84,0,0,0,1.44.94q-.17.51-.36,1Zm-4-15.78a4.47,4.47,0,0,1-1.13,2.91,3.9,3.9,0,0,1-3.22,1.59,2.61,2.61,0,0,1,0-.4,4.57,4.57,0,0,1,1.2-2.94,4.72,4.72,0,0,1,1.47-1.1,4.39,4.39,0,0,1,1.68-.48,3,3,0,0,1,0,.42Z"/></g></g></svg>