<?xml version="1.0" encoding="utf-8"?>
<!-- Generator: Adobe Illustrator 16.0.0, SVG Export Plug-In . SVG Version: 6.00 Build 0)  -->
<!DOCTYPE svg PUBLIC "-//W3C//DTD SVG 1.1//EN" "http://www.w3.org/Graphics/SVG/1.1/DTD/svg11.dtd">
<svg version="1.1" id="Layer_1" xmlns="http://www.w3.org/2000/svg" xmlns:xlink="http://www.w3.org/1999/xlink" x="0px" y="0px"
	 width="500px" height="344px" viewBox="0 0 500 344" enable-background="new 0 0 500 344" xml:space="preserve">
<g>
	<path d="M138.583,41.646l-7.153-1.56c-3.394-0.734-5.046-2.66-5.046-5.321c0-3.026,2.936-5.87,7.339-5.87
		c6.973,0,8.808,5.045,9.175,7.34l7.612-2.844c-0.916-3.944-4.679-11.836-16.787-11.836c-8.623,0-15.688,6.425-15.688,13.944
		c0,6.239,4.129,10.916,11.01,12.383l7.523,1.652c3.668,0.825,5.687,2.937,5.687,5.687c0,3.121-2.66,5.872-7.523,5.872
		c-6.239,0-9.724-3.669-10.274-8.258l-7.796,2.756c0.733,5.043,5.871,12.843,17.979,12.843c10.917,0,16.146-7.432,16.146-13.67
		C150.786,48.252,146.568,43.387,138.583,41.646z"/>
	<path d="M204.542,21.648c-5.597,0-11.286,2.019-14.771,8.35c-2.386-5.689-7.706-8.35-13.21-8.35
		c-5.138,0-10.642,2.294-13.394,7.156v-5.872h-8.255v44.125h8.531V40.455c0-6.607,4.128-11.193,10.274-11.193
		c6.603,0,9.355,4.403,9.355,10.091v27.704h8.623V40.363c0-6.332,4.129-11.102,10.184-11.102c6.512,0,9.356,4.312,9.356,10.091
		v27.705h8.532V38.435C219.77,26.877,212.247,21.648,204.542,21.648z"/>
	<path d="M265.443,22.933h-8.526v6.238c-1.47-3.578-5.687-7.43-13.482-7.43c-12.477,0-20.916,10.457-20.916,22.933
		c0,13.119,7.979,23.576,20.916,23.576c6.879,0,11.557-3.669,13.667-7.889v0.731c0,2.662,0.274,4.952,0.457,5.964h8.347
		c-0.091-0.828-0.462-4.219-0.462-8.166V22.933L265.443,22.933z M244.256,60.635c-8.254,0-12.932-6.881-12.932-15.961
		c0-9.083,5.137-15.319,13.025-15.319c7.892,0,12.658,6.236,12.658,15.319C257.008,53.754,252.148,60.635,244.256,60.635z"/>
	<path d="M280.766,30.639v-7.706h-8.438v44.124h8.624V44.949c0-9.725,4.859-13.578,12.109-13.578c1.19,0,2.476,0.092,3.756,0.275
		v-9.173c-0.453-0.091-1.646-0.273-2.838-0.273C289.48,22.2,283.977,23.853,280.766,30.639z"/>
	<path d="M317.82,8.99h-7.885v7.154c0,3.854-2.021,6.789-6.787,6.789h-2.387v7.798h8.438v24.217c0,7.981,4.766,12.567,12.29,12.567
		c2.935,0,5.136-0.547,5.871-0.824v-7.34c-0.735,0.186-2.295,0.367-3.396,0.367c-4.494,0-6.146-2.019-6.146-6.056V30.73h9.542
		v-7.798h-9.542L317.82,8.99L317.82,8.99z"/>
	<rect x="333.325" y="0.642" width="8.626" height="66.415"/>
	<path d="M370.02,21.556c-13.211,0-22.565,10-22.565,23.394c0,13.483,9.354,23.483,22.565,23.483c13.207,0,22.568-10,22.568-23.483
		C392.588,31.556,383.227,21.556,370.02,21.556z M370.02,60.729c-7.343,0-13.76-5.508-13.76-15.778
		c0-10.184,6.417-15.688,13.76-15.688c7.336,0,13.758,5.504,13.758,15.688C383.776,55.221,377.354,60.729,370.02,60.729z"/>
	<path d="M428.816,29.078c-2.2-4.403-6.786-6.971-13.574-6.971c-12.109,0-20.274,9.539-20.274,21.465
		c0,12.476,8.531,21.375,20.274,21.375c6.604,0,11.374-3.213,13.48-7.247v6.329c0,9.539-4.219,14.312-13.48,14.312
		c-6.7,0-11.377-4.679-12.018-10.825l-8.351,1.926c1.104,9.449,9.356,16.42,20.367,16.42c16.601,0,22.106-10.916,22.106-22.104
		V22.933h-8.532L428.816,29.078L428.816,29.078z M416.525,57.7c-7.794,0-12.751-5.505-12.751-14.128
		c0-8.53,5.139-14.125,12.751-14.125c7.431,0,12.567,5.595,12.567,14.125C429.094,52.104,423.956,57.7,416.525,57.7z"/>
	<rect x="443.769" y="22.933" width="8.529" height="44.124"/>
	<path d="M447.987,0c-3.395,0-6.143,2.753-6.143,6.236c0,3.396,2.748,6.146,6.143,6.146c3.489,0,6.235-2.751,6.235-6.146
		C454.224,2.753,451.478,0,447.987,0z"/>
	<path d="M492.387,51.369c-1.008,3.486-4.037,9.082-12.288,9.082c-7.157,0-13.486-5.411-13.486-15.502
		c0-10.273,6.415-15.412,13.391-15.412c7.521,0,10.734,5.046,11.836,9.356l7.796-3.303c-1.835-6.695-7.889-14.035-19.632-14.035
		c-12.568,0-22.2,9.632-22.2,23.394c0,13.394,9.444,23.484,22.297,23.484c11.463,0,17.792-7.432,19.901-13.763L492.387,51.369z"/>
	<path d="M78.827,22.491c-0.423-0.707-0.965-1.324-1.616-1.828L51.171,0.375c-0.297-0.232-0.667-0.359-1.044-0.359h-9.321
		c-1.28,0-2.518,0.387-3.573,1.112L4.13,23.909c-0.336,0.23-0.577,0.574-0.681,0.967L0.226,37.09
		c-0.328,1.236-0.297,2.533,0.083,3.754l11.264,35.998l0.089,0.285l11.291,7.611c0.162,0.049,0.312,0.095,0.476,0.145h40.486
		c0.188,0,0.373-0.062,0.522-0.182l8.874-6.953c0.939-0.736,1.639-1.725,2.022-2.854l12.459-36.792
		c0.081-0.235,0.051-0.495-0.074-0.708L78.827,22.491z M50.143,2.118c0.154-0.113,0.362-0.108,0.511,0.009l25.514,19.879
		c0.482,0.373,0.885,0.829,1.2,1.358l5.646,9.464c0.237,0.398-0.243,0.835-0.617,0.562L50.674,9.982
		c-0.148-0.109-0.352-0.111-0.502-0.002L17.745,33.543c-0.702,0.509-1.695,0.184-1.963-0.64l-1.424-4.429
		c-0.056-0.174,0.007-0.366,0.155-0.472L50.143,2.118z M43.791,17.08l26.174,19.015c0.148,0.108,0.209,0.301,0.153,0.475
		l-9.996,30.77c-0.057,0.176-0.219,0.294-0.406,0.294H27.367c-0.185,0-0.346-0.118-0.406-0.294l-9.996-30.77
		c-0.057-0.174,0.007-0.366,0.156-0.475L43.292,17.08C43.441,16.974,43.643,16.974,43.791,17.08z M5.606,24.955l32.59-22.428
		c0.772-0.531,1.674-0.812,2.609-0.812l5.693-0.002c0.413,0,0.583,0.529,0.25,0.771L12.515,27.352
		c-0.147,0.108-0.21,0.299-0.153,0.475l2.514,7.801l-0.003,0.002l9.858,30.336c0.269,0.82-0.347,1.668-1.213,1.668h-4.635
		c-0.186,0-0.351-0.122-0.406-0.298L5.442,25.433C5.386,25.254,5.452,25.062,5.606,24.955z M12.907,75.418L1.53,39.057
		c-0.001-0.082-0.003-0.156-0.006-0.235l2.516-9.53c0.108-0.411,0.689-0.423,0.817-0.016l12.368,39.757
		c0.055,0.177,0.219,0.296,0.405,0.296h40.072c0.867,0,1.479,0.848,1.21,1.673l-1.441,4.419c-0.057,0.175-0.219,0.292-0.405,0.292
		H13.313C13.126,75.712,12.962,75.59,12.907,75.418z M63.394,82.891c-0.056,0.176-0.219,0.293-0.4,0.293H24.206
		c-0.324-0.098-0.626-0.189-0.951-0.289l-6.976-4.705c-0.349-0.234-0.182-0.776,0.236-0.776H58.3c0.187,0,0.348-0.118,0.404-0.294
		l2.731-8.373l-0.792-0.258V68.48l0.806,0.265l9.668-29.75c0.267-0.825,1.26-1.146,1.958-0.638l3.759,2.73
		c0.149,0.109,0.212,0.301,0.154,0.478L63.394,82.891z M85.883,38.439l-12.541,37.04c-0.049,0.068-0.094,0.133-0.143,0.197
		l-6.5,5.096c-0.329,0.258-0.795-0.067-0.665-0.469l12.957-39.384c0.059-0.177-0.004-0.371-0.155-0.478l-7.125-5.178l-0.001,0.002
		L46.406,16.881c-0.701-0.508-0.701-1.553,0-2.062l3.758-2.732c0.149-0.109,0.353-0.109,0.503,0.002L85.732,37.96
		C85.882,38.07,85.943,38.265,85.883,38.439z"/>
</g>
<g>
	<path fill="#DA1036" d="M138.583,127.646l-7.153-1.561c-3.394-0.733-5.046-2.66-5.046-5.32c0-3.025,2.936-5.87,7.339-5.87
		c6.973,0,8.808,5.045,9.175,7.34l7.612-2.844c-0.916-3.944-4.679-11.836-16.787-11.836c-8.623,0-15.688,6.425-15.688,13.944
		c0,6.238,4.129,10.916,11.01,12.383l7.523,1.652c3.668,0.824,5.687,2.936,5.687,5.686c0,3.121-2.66,5.873-7.523,5.873
		c-6.239,0-9.724-3.67-10.274-8.258l-7.796,2.756c0.733,5.043,5.871,12.842,17.979,12.842c10.917,0,16.146-7.432,16.146-13.67
		C150.786,134.252,146.568,129.388,138.583,127.646z"/>
	<path fill="#DA1036" d="M204.542,107.648c-5.597,0-11.286,2.02-14.771,8.35c-2.386-5.688-7.706-8.35-13.21-8.35
		c-5.138,0-10.642,2.294-13.394,7.156v-5.872h-8.255v44.124h8.531v-26.602c0-6.606,4.128-11.192,10.274-11.192
		c6.603,0,9.355,4.403,9.355,10.091v27.703h8.623v-26.693c0-6.332,4.129-11.102,10.184-11.102c6.512,0,9.356,4.312,9.356,10.091
		v27.704h8.532v-28.621C219.77,112.877,212.247,107.648,204.542,107.648z"/>
	<path fill="#DA1036" d="M265.443,108.934h-8.526v6.238c-1.47-3.578-5.687-7.43-13.482-7.43c-12.477,0-20.916,10.457-20.916,22.932
		c0,13.119,7.979,23.576,20.916,23.576c6.879,0,11.557-3.668,13.667-7.889v0.732c0,2.662,0.274,4.951,0.457,5.963h8.347
		c-0.091-0.828-0.462-4.219-0.462-8.166V108.934L265.443,108.934z M244.256,146.635c-8.254,0-12.932-6.881-12.932-15.961
		c0-9.082,5.137-15.318,13.025-15.318c7.892,0,12.658,6.236,12.658,15.318C257.008,139.754,252.148,146.635,244.256,146.635z"/>
	<path fill="#DA1036" d="M280.766,116.64v-7.706h-8.438v44.123h8.624v-22.107c0-9.725,4.859-13.578,12.109-13.578
		c1.19,0,2.476,0.092,3.756,0.275v-9.173c-0.453-0.091-1.646-0.272-2.838-0.272C289.48,108.201,283.977,109.854,280.766,116.64z"/>
	<path fill="#DA1036" d="M317.82,94.99h-7.885v7.154c0,3.854-2.021,6.789-6.787,6.789h-2.387v7.798h8.438v24.218
		c0,7.98,4.766,12.566,12.29,12.566c2.935,0,5.136-0.547,5.871-0.824v-7.34c-0.735,0.186-2.295,0.367-3.396,0.367
		c-4.494,0-6.146-2.018-6.146-6.055V116.73h9.542v-7.798h-9.542L317.82,94.99L317.82,94.99z"/>
	<rect x="333.325" y="86.643" fill="#DA1036" width="8.626" height="66.414"/>
	<path fill="#DA1036" d="M370.02,107.557c-13.211,0-22.565,10-22.565,23.395c0,13.482,9.354,23.482,22.565,23.482
		c13.207,0,22.568-10,22.568-23.482C392.588,117.557,383.227,107.557,370.02,107.557z M370.02,146.729
		c-7.343,0-13.76-5.508-13.76-15.777c0-10.185,6.417-15.688,13.76-15.688c7.336,0,13.758,5.504,13.758,15.688
		C383.776,141.221,377.354,146.729,370.02,146.729z"/>
	<path fill="#DA1036" d="M428.816,115.078c-2.2-4.402-6.786-6.971-13.574-6.971c-12.109,0-20.274,9.539-20.274,21.465
		c0,12.477,8.531,21.375,20.274,21.375c6.604,0,11.374-3.213,13.48-7.246v6.328c0,9.539-4.219,14.312-13.48,14.312
		c-6.7,0-11.377-4.68-12.018-10.826l-8.351,1.926c1.104,9.449,9.356,16.42,20.367,16.42c16.601,0,22.106-10.916,22.106-22.104
		v-40.824h-8.532L428.816,115.078L428.816,115.078z M416.525,143.701c-7.794,0-12.751-5.506-12.751-14.129
		c0-8.529,5.139-14.125,12.751-14.125c7.431,0,12.567,5.596,12.567,14.125C429.094,138.104,423.956,143.701,416.525,143.701z"/>
	<rect x="443.769" y="108.934" fill="#DA1036" width="8.529" height="44.123"/>
	<path fill="#DA1036" d="M447.987,86c-3.395,0-6.143,2.754-6.143,6.236c0,3.396,2.748,6.146,6.143,6.146
		c3.489,0,6.235-2.752,6.235-6.146C454.224,88.754,451.478,86,447.987,86z"/>
	<path fill="#DA1036" d="M492.387,137.369c-1.008,3.486-4.037,9.082-12.288,9.082c-7.157,0-13.486-5.41-13.486-15.502
		c0-10.273,6.415-15.412,13.391-15.412c7.521,0,10.734,5.047,11.836,9.356l7.796-3.304c-1.835-6.694-7.889-14.034-19.632-14.034
		c-12.568,0-22.2,9.632-22.2,23.394c0,13.395,9.444,23.484,22.297,23.484c11.463,0,17.792-7.432,19.901-13.762L492.387,137.369z"/>
	<path fill="#DA1036" d="M78.827,108.492c-0.423-0.707-0.965-1.324-1.616-1.828l-26.04-20.289c-0.297-0.231-0.667-0.358-1.044-0.358
		h-9.321c-1.28,0-2.518,0.387-3.573,1.112L4.13,109.91c-0.336,0.229-0.577,0.573-0.681,0.967L0.226,123.09
		c-0.328,1.236-0.297,2.533,0.083,3.754l11.264,35.998l0.089,0.285l11.291,7.611c0.162,0.049,0.312,0.096,0.476,0.145h40.486
		c0.188,0,0.373-0.062,0.522-0.182l8.874-6.953c0.939-0.736,1.639-1.725,2.022-2.854l12.459-36.791
		c0.081-0.234,0.051-0.495-0.074-0.708L78.827,108.492z M50.143,88.119c0.154-0.113,0.362-0.109,0.511,0.008l25.514,19.879
		c0.482,0.373,0.885,0.83,1.2,1.359l5.646,9.463c0.237,0.398-0.243,0.836-0.617,0.562L50.674,95.982
		c-0.148-0.109-0.352-0.111-0.502-0.002l-32.427,23.562c-0.702,0.51-1.695,0.185-1.963-0.64l-1.424-4.429
		c-0.056-0.174,0.007-0.366,0.155-0.473L50.143,88.119z M43.791,103.08l26.174,19.016c0.148,0.107,0.209,0.301,0.153,0.475
		l-9.996,30.77c-0.057,0.176-0.219,0.295-0.406,0.295H27.367c-0.185,0-0.346-0.119-0.406-0.295l-9.996-30.77
		c-0.057-0.174,0.007-0.365,0.156-0.475l26.171-19.016C43.441,102.975,43.643,102.975,43.791,103.08z M5.606,110.955l32.59-22.428
		c0.772-0.531,1.674-0.812,2.609-0.812l5.693-0.002c0.413,0,0.583,0.529,0.25,0.771l-34.233,24.868
		c-0.147,0.108-0.21,0.299-0.153,0.476l2.514,7.801l-0.003,0.002l9.858,30.336c0.269,0.82-0.347,1.668-1.213,1.668h-4.635
		c-0.186,0-0.351-0.123-0.406-0.299L5.442,111.434C5.386,111.254,5.452,111.062,5.606,110.955z M12.907,161.418L1.53,125.058
		c-0.001-0.082-0.003-0.156-0.006-0.235l2.516-9.529c0.108-0.412,0.689-0.424,0.817-0.017l12.368,39.757
		c0.055,0.178,0.219,0.297,0.405,0.297h40.072c0.867,0,1.479,0.848,1.21,1.672l-1.441,4.42c-0.057,0.174-0.219,0.291-0.405,0.291
		H13.313C13.126,161.713,12.962,161.59,12.907,161.418z M63.394,168.891c-0.056,0.176-0.219,0.293-0.4,0.293H24.206
		c-0.324-0.098-0.626-0.189-0.951-0.289l-6.976-4.705c-0.349-0.234-0.182-0.775,0.236-0.775H58.3c0.187,0,0.348-0.119,0.404-0.295
		l2.731-8.373l-0.792-0.258v-0.008l0.806,0.266l9.668-29.75c0.267-0.826,1.26-1.146,1.958-0.639l3.759,2.73
		c0.149,0.108,0.212,0.301,0.154,0.478L63.394,168.891z M85.883,124.439l-12.541,37.039c-0.049,0.068-0.094,0.133-0.143,0.197
		l-6.5,5.096c-0.329,0.258-0.795-0.066-0.665-0.469l12.957-39.383c0.059-0.178-0.004-0.371-0.155-0.479l-7.125-5.178l-0.001,0.002
		l-25.304-18.385c-0.701-0.508-0.701-1.553,0-2.062l3.758-2.731c0.149-0.109,0.353-0.109,0.503,0.002l35.065,25.871
		C85.882,124.07,85.943,124.266,85.883,124.439z"/>
</g>
<g>
	<path fill="#FEFA39" d="M138.583,213.646l-7.153-1.561c-3.394-0.734-5.046-2.66-5.046-5.32c0-3.026,2.936-5.871,7.339-5.871
		c6.973,0,8.808,5.045,9.175,7.34l7.612-2.844c-0.916-3.943-4.679-11.836-16.787-11.836c-8.623,0-15.688,6.426-15.688,13.944
		c0,6.239,4.129,10.916,11.01,12.383l7.523,1.652c3.668,0.825,5.687,2.937,5.687,5.687c0,3.121-2.66,5.872-7.523,5.872
		c-6.239,0-9.724-3.669-10.274-8.258l-7.796,2.756c0.733,5.043,5.871,12.843,17.979,12.843c10.917,0,16.146-7.432,16.146-13.67
		C150.786,220.252,146.568,215.387,138.583,213.646z"/>
	<path fill="#FEFA39" d="M204.542,193.648c-5.597,0-11.286,2.019-14.771,8.35c-2.386-5.689-7.706-8.35-13.21-8.35
		c-5.138,0-10.642,2.293-13.394,7.156v-5.873h-8.255v44.125h8.531v-26.602c0-6.607,4.128-11.193,10.274-11.193
		c6.603,0,9.355,4.403,9.355,10.092v27.703h8.623v-26.693c0-6.332,4.129-11.103,10.184-11.103c6.512,0,9.356,4.312,9.356,10.091
		v27.705h8.532v-28.621C219.77,198.877,212.247,193.648,204.542,193.648z"/>
	<path fill="#FEFA39" d="M265.443,194.934h-8.526v6.237c-1.47-3.578-5.687-7.43-13.482-7.43c-12.477,0-20.916,10.457-20.916,22.933
		c0,13.119,7.979,23.576,20.916,23.576c6.879,0,11.557-3.669,13.667-7.889v0.731c0,2.662,0.274,4.952,0.457,5.964h8.347
		c-0.091-0.828-0.462-4.219-0.462-8.166V194.934L265.443,194.934z M244.256,232.635c-8.254,0-12.932-6.881-12.932-15.961
		c0-9.083,5.137-15.318,13.025-15.318c7.892,0,12.658,6.235,12.658,15.318C257.008,225.754,252.148,232.635,244.256,232.635z"/>
	<path fill="#FEFA39" d="M280.766,202.639v-7.705h-8.438v44.123h8.624v-22.107c0-9.725,4.859-13.578,12.109-13.578
		c1.19,0,2.476,0.092,3.756,0.275v-9.174c-0.453-0.091-1.646-0.272-2.838-0.272C289.48,194.2,283.977,195.854,280.766,202.639z"/>
	<path fill="#FEFA39" d="M317.82,180.99h-7.885v7.154c0,3.854-2.021,6.789-6.787,6.789h-2.387v7.797h8.438v24.218
		c0,7.981,4.766,12.567,12.29,12.567c2.935,0,5.136-0.547,5.871-0.824v-7.34c-0.735,0.186-2.295,0.367-3.396,0.367
		c-4.494,0-6.146-2.019-6.146-6.056V202.73h9.542v-7.799h-9.542L317.82,180.99L317.82,180.99z"/>
	<rect x="333.325" y="172.643" fill="#FEFA39" width="8.626" height="66.414"/>
	<path fill="#FEFA39" d="M370.02,193.557c-13.211,0-22.565,10-22.565,23.394c0,13.483,9.354,23.483,22.565,23.483
		c13.207,0,22.568-10,22.568-23.483C392.588,203.557,383.227,193.557,370.02,193.557z M370.02,232.729
		c-7.343,0-13.76-5.508-13.76-15.778c0-10.185,6.417-15.688,13.76-15.688c7.336,0,13.758,5.504,13.758,15.688
		C383.776,227.221,377.354,232.729,370.02,232.729z"/>
	<path fill="#FEFA39" d="M428.816,201.078c-2.2-4.403-6.786-6.971-13.574-6.971c-12.109,0-20.274,9.539-20.274,21.465
		c0,12.476,8.531,21.375,20.274,21.375c6.604,0,11.374-3.213,13.48-7.247v6.329c0,9.539-4.219,14.312-13.48,14.312
		c-6.7,0-11.377-4.679-12.018-10.825l-8.351,1.926c1.104,9.449,9.356,16.42,20.367,16.42c16.601,0,22.106-10.916,22.106-22.104
		v-40.823h-8.532L428.816,201.078L428.816,201.078z M416.525,229.7c-7.794,0-12.751-5.505-12.751-14.128
		c0-8.53,5.139-14.125,12.751-14.125c7.431,0,12.567,5.595,12.567,14.125C429.094,224.104,423.956,229.7,416.525,229.7z"/>
	<rect x="443.769" y="194.934" fill="#FEFA39" width="8.529" height="44.123"/>
	<path fill="#FEFA39" d="M447.987,172c-3.395,0-6.143,2.753-6.143,6.236c0,3.396,2.748,6.146,6.143,6.146
		c3.489,0,6.235-2.751,6.235-6.146C454.224,174.753,451.478,172,447.987,172z"/>
	<path fill="#FEFA39" d="M492.387,223.369c-1.008,3.486-4.037,9.082-12.288,9.082c-7.157,0-13.486-5.411-13.486-15.502
		c0-10.273,6.415-15.412,13.391-15.412c7.521,0,10.734,5.046,11.836,9.355l7.796-3.303c-1.835-6.695-7.889-14.035-19.632-14.035
		c-12.568,0-22.2,9.633-22.2,23.395c0,13.394,9.444,23.484,22.297,23.484c11.463,0,17.792-7.432,19.901-13.763L492.387,223.369z"/>
	<path fill="#FEFA39" d="M78.827,194.491c-0.423-0.707-0.965-1.324-1.616-1.828l-26.04-20.288c-0.297-0.232-0.667-0.359-1.044-0.359
		h-9.321c-1.28,0-2.518,0.387-3.573,1.112L4.13,195.909c-0.336,0.229-0.577,0.573-0.681,0.967L0.226,209.09
		c-0.328,1.236-0.297,2.533,0.083,3.754l11.264,35.998l0.089,0.285l11.291,7.611c0.162,0.049,0.312,0.095,0.476,0.145h40.486
		c0.188,0,0.373-0.062,0.522-0.182l8.874-6.953c0.939-0.736,1.639-1.725,2.022-2.854l12.459-36.791
		c0.081-0.235,0.051-0.496-0.074-0.709L78.827,194.491z M50.143,174.118c0.154-0.113,0.362-0.108,0.511,0.009l25.514,19.879
		c0.482,0.373,0.885,0.829,1.2,1.358l5.646,9.464c0.237,0.398-0.243,0.835-0.617,0.562l-31.723-23.408
		c-0.148-0.109-0.352-0.111-0.502-0.002l-32.427,23.562c-0.702,0.509-1.695,0.184-1.963-0.641l-1.424-4.428
		c-0.056-0.175,0.007-0.367,0.155-0.473L50.143,174.118z M43.791,189.08l26.174,19.016c0.148,0.107,0.209,0.301,0.153,0.475
		l-9.996,30.77c-0.057,0.176-0.219,0.294-0.406,0.294H27.367c-0.185,0-0.346-0.118-0.406-0.294l-9.996-30.77
		c-0.057-0.174,0.007-0.366,0.156-0.475l26.171-19.016C43.441,188.975,43.643,188.975,43.791,189.08z M5.606,196.955l32.59-22.428
		c0.772-0.531,1.674-0.812,2.609-0.812l5.693-0.002c0.413,0,0.583,0.529,0.25,0.771l-34.233,24.867
		c-0.147,0.108-0.21,0.299-0.153,0.476l2.514,7.801l-0.003,0.002l9.858,30.336c0.269,0.82-0.347,1.668-1.213,1.668h-4.635
		c-0.186,0-0.351-0.122-0.406-0.298L5.442,197.434C5.386,197.254,5.452,197.062,5.606,196.955z M12.907,247.418L1.53,211.057
		c-0.001-0.082-0.003-0.156-0.006-0.234l2.516-9.53c0.108-0.411,0.689-0.423,0.817-0.017l12.368,39.758
		c0.055,0.177,0.219,0.296,0.405,0.296h40.072c0.867,0,1.479,0.848,1.21,1.673l-1.441,4.419c-0.057,0.175-0.219,0.292-0.405,0.292
		H13.313C13.126,247.712,12.962,247.59,12.907,247.418z M63.394,254.891c-0.056,0.176-0.219,0.293-0.4,0.293H24.206
		c-0.324-0.098-0.626-0.189-0.951-0.289l-6.976-4.705c-0.349-0.234-0.182-0.776,0.236-0.776H58.3c0.187,0,0.348-0.118,0.404-0.294
		l2.731-8.373l-0.792-0.258v-0.008l0.806,0.265l9.668-29.75c0.267-0.825,1.26-1.146,1.958-0.638l3.759,2.729
		c0.149,0.108,0.212,0.302,0.154,0.478L63.394,254.891z M85.883,210.439l-12.541,37.039c-0.049,0.068-0.094,0.133-0.143,0.197
		l-6.5,5.096c-0.329,0.258-0.795-0.067-0.665-0.469l12.957-39.384c0.059-0.177-0.004-0.371-0.155-0.478l-7.125-5.178l-0.001,0.002
		l-25.304-18.385c-0.701-0.508-0.701-1.553,0-2.062l3.758-2.731c0.149-0.108,0.353-0.108,0.503,0.002l35.065,25.871
		C85.882,210.07,85.943,210.266,85.883,210.439z"/>
</g>
<g>
	<path fill="#3BBDB1" d="M138.583,299.646l-7.153-1.561c-3.394-0.734-5.046-2.66-5.046-5.32c0-3.025,2.936-5.871,7.339-5.871
		c6.973,0,8.808,5.045,9.175,7.34l7.612-2.844c-0.916-3.943-4.679-11.836-16.787-11.836c-8.623,0-15.688,6.426-15.688,13.945
		c0,6.238,4.129,10.916,11.01,12.383l7.523,1.652c3.668,0.824,5.687,2.936,5.687,5.686c0,3.121-2.66,5.873-7.523,5.873
		c-6.239,0-9.724-3.67-10.274-8.258l-7.796,2.756c0.733,5.043,5.871,12.842,17.979,12.842c10.917,0,16.146-7.432,16.146-13.67
		C150.786,306.252,146.568,301.387,138.583,299.646z"/>
	<path fill="#3BBDB1" d="M204.542,279.648c-5.597,0-11.286,2.02-14.771,8.35c-2.386-5.689-7.706-8.35-13.21-8.35
		c-5.138,0-10.642,2.293-13.394,7.156v-5.873h-8.255v44.125h8.531v-26.602c0-6.607,4.128-11.193,10.274-11.193
		c6.603,0,9.355,4.404,9.355,10.092v27.703h8.623v-26.693c0-6.332,4.129-11.102,10.184-11.102c6.512,0,9.356,4.312,9.356,10.09
		v27.705h8.532v-28.621C219.77,284.877,212.247,279.648,204.542,279.648z"/>
	<path fill="#3BBDB1" d="M265.443,280.934h-8.526v6.238c-1.47-3.578-5.687-7.43-13.482-7.43c-12.477,0-20.916,10.457-20.916,22.932
		c0,13.119,7.979,23.576,20.916,23.576c6.879,0,11.557-3.668,13.667-7.889v0.732c0,2.662,0.274,4.951,0.457,5.963h8.347
		c-0.091-0.828-0.462-4.219-0.462-8.166V280.934L265.443,280.934z M244.256,318.635c-8.254,0-12.932-6.881-12.932-15.961
		c0-9.082,5.137-15.318,13.025-15.318c7.892,0,12.658,6.236,12.658,15.318C257.008,311.754,252.148,318.635,244.256,318.635z"/>
	<path fill="#3BBDB1" d="M280.766,288.639v-7.705h-8.438v44.123h8.624v-22.107c0-9.725,4.859-13.578,12.109-13.578
		c1.19,0,2.476,0.092,3.756,0.275v-9.174c-0.453-0.09-1.646-0.271-2.838-0.271C289.48,280.201,283.977,281.854,280.766,288.639z"/>
	<path fill="#3BBDB1" d="M317.82,266.99h-7.885v7.154c0,3.854-2.021,6.789-6.787,6.789h-2.387v7.797h8.438v24.219
		c0,7.98,4.766,12.566,12.29,12.566c2.935,0,5.136-0.547,5.871-0.824v-7.34c-0.735,0.186-2.295,0.367-3.396,0.367
		c-4.494,0-6.146-2.018-6.146-6.055V288.73h9.542v-7.799h-9.542L317.82,266.99L317.82,266.99z"/>
	<rect x="333.325" y="258.643" fill="#3BBDB1" width="8.626" height="66.414"/>
	<path fill="#3BBDB1" d="M370.02,279.557c-13.211,0-22.565,10-22.565,23.395c0,13.482,9.354,23.482,22.565,23.482
		c13.207,0,22.568-10,22.568-23.482C392.588,289.557,383.227,279.557,370.02,279.557z M370.02,318.729
		c-7.343,0-13.76-5.508-13.76-15.777c0-10.186,6.417-15.689,13.76-15.689c7.336,0,13.758,5.504,13.758,15.689
		C383.776,313.221,377.354,318.729,370.02,318.729z"/>
	<path fill="#3BBDB1" d="M428.816,287.078c-2.2-4.402-6.786-6.971-13.574-6.971c-12.109,0-20.274,9.539-20.274,21.465
		c0,12.477,8.531,21.375,20.274,21.375c6.604,0,11.374-3.213,13.48-7.246v6.328c0,9.539-4.219,14.312-13.48,14.312
		c-6.7,0-11.377-4.68-12.018-10.826l-8.351,1.926c1.104,9.449,9.356,16.42,20.367,16.42c16.601,0,22.106-10.916,22.106-22.104
		v-40.824h-8.532L428.816,287.078L428.816,287.078z M416.525,315.701c-7.794,0-12.751-5.506-12.751-14.129
		c0-8.529,5.139-14.125,12.751-14.125c7.431,0,12.567,5.596,12.567,14.125C429.094,310.104,423.956,315.701,416.525,315.701z"/>
	<rect x="443.769" y="280.934" fill="#3BBDB1" width="8.529" height="44.123"/>
	<path fill="#3BBDB1" d="M447.987,258c-3.395,0-6.143,2.754-6.143,6.236c0,3.396,2.748,6.146,6.143,6.146
		c3.489,0,6.235-2.752,6.235-6.146C454.224,260.754,451.478,258,447.987,258z"/>
	<path fill="#3BBDB1" d="M492.387,309.369c-1.008,3.486-4.037,9.082-12.288,9.082c-7.157,0-13.486-5.41-13.486-15.502
		c0-10.273,6.415-15.412,13.391-15.412c7.521,0,10.734,5.047,11.836,9.355l7.796-3.303c-1.835-6.695-7.889-14.035-19.632-14.035
		c-12.568,0-22.2,9.633-22.2,23.395c0,13.395,9.444,23.484,22.297,23.484c11.463,0,17.792-7.432,19.901-13.762L492.387,309.369z"/>
	<path fill="#3BBDB1" d="M78.827,280.492c-0.423-0.707-0.965-1.324-1.616-1.828l-26.04-20.289c-0.297-0.232-0.667-0.359-1.044-0.359
		h-9.321c-1.28,0-2.518,0.387-3.573,1.113L4.13,281.91c-0.336,0.229-0.577,0.572-0.681,0.967L0.226,295.09
		c-0.328,1.236-0.297,2.533,0.083,3.754l11.264,35.998l0.089,0.285l11.291,7.611c0.162,0.049,0.312,0.096,0.476,0.145h40.486
		c0.188,0,0.373-0.062,0.522-0.182l8.874-6.953c0.939-0.736,1.639-1.725,2.022-2.854l12.459-36.791
		c0.081-0.234,0.051-0.496-0.074-0.709L78.827,280.492z M50.143,260.119c0.154-0.113,0.362-0.109,0.511,0.008l25.514,19.879
		c0.482,0.373,0.885,0.83,1.2,1.359l5.646,9.463c0.237,0.398-0.243,0.836-0.617,0.562l-31.723-23.408
		c-0.148-0.109-0.352-0.111-0.502-0.002l-32.427,23.562c-0.702,0.51-1.695,0.184-1.963-0.641l-1.424-4.428
		c-0.056-0.174,0.007-0.367,0.155-0.473L50.143,260.119z M43.791,275.08l26.174,19.016c0.148,0.107,0.209,0.301,0.153,0.475
		l-9.996,30.77c-0.057,0.176-0.219,0.295-0.406,0.295H27.367c-0.185,0-0.346-0.119-0.406-0.295l-9.996-30.77
		c-0.057-0.174,0.007-0.365,0.156-0.475l26.171-19.016C43.441,274.975,43.643,274.975,43.791,275.08z M5.606,282.955l32.59-22.428
		c0.772-0.531,1.674-0.812,2.609-0.812l5.693-0.002c0.413,0,0.583,0.529,0.25,0.771l-34.233,24.867
		c-0.147,0.109-0.21,0.299-0.153,0.477l2.514,7.801l-0.003,0.002l9.858,30.336c0.269,0.82-0.347,1.668-1.213,1.668h-4.635
		c-0.186,0-0.351-0.123-0.406-0.299L5.442,283.434C5.386,283.254,5.452,283.062,5.606,282.955z M12.907,333.418L1.53,297.057
		c-0.001-0.082-0.003-0.156-0.006-0.234l2.516-9.529c0.108-0.412,0.689-0.424,0.817-0.018l12.368,39.758
		c0.055,0.178,0.219,0.297,0.405,0.297h40.072c0.867,0,1.479,0.848,1.21,1.672l-1.441,4.42c-0.057,0.174-0.219,0.291-0.405,0.291
		H13.313C13.126,333.713,12.962,333.59,12.907,333.418z M63.394,340.891c-0.056,0.176-0.219,0.293-0.4,0.293H24.206
		c-0.324-0.098-0.626-0.189-0.951-0.289l-6.976-4.705c-0.349-0.234-0.182-0.775,0.236-0.775H58.3c0.187,0,0.348-0.119,0.404-0.295
		l2.731-8.373l-0.792-0.258v-0.008l0.806,0.266l9.668-29.75c0.267-0.826,1.26-1.146,1.958-0.639l3.759,2.73
		c0.149,0.107,0.212,0.301,0.154,0.477L63.394,340.891z M85.883,296.439l-12.541,37.039c-0.049,0.068-0.094,0.133-0.143,0.197
		l-6.5,5.096c-0.329,0.258-0.795-0.066-0.665-0.469l12.957-39.383c0.059-0.178-0.004-0.371-0.155-0.479l-7.125-5.178l-0.001,0.002
		l-25.304-18.385c-0.701-0.508-0.701-1.553,0-2.062l3.758-2.73c0.149-0.109,0.353-0.109,0.503,0.002l35.065,25.871
		C85.882,296.07,85.943,296.266,85.883,296.439z"/>
</g>
</svg>
