<?xml version="1.0" encoding="utf-8"?>
<!-- Generator: Adobe Illustrator 16.0.0, SVG Export Plug-In . SVG Version: 6.00 Build 0)  -->
<!DOCTYPE svg PUBLIC "-//W3C//DTD SVG 1.1//EN" "http://www.w3.org/Graphics/SVG/1.1/DTD/svg11.dtd">
<svg version="1.1" id="Layer_1" xmlns="http://www.w3.org/2000/svg" xmlns:xlink="http://www.w3.org/1999/xlink" x="0px" y="0px"
	 width="90px" height="360px" viewBox="0 0 90 360" enable-background="new 0 0 90 360" xml:space="preserve">
<path d="M78.827,22.491c-0.423-0.707-0.965-1.324-1.616-1.828L51.171,0.375c-0.297-0.232-0.667-0.359-1.044-0.359h-9.321
	c-1.28,0-2.518,0.387-3.573,1.112L4.13,23.909c-0.336,0.23-0.577,0.574-0.681,0.967L0.226,37.09
	c-0.328,1.236-0.297,2.533,0.083,3.754l11.264,35.998l0.089,0.285l11.291,7.611c0.162,0.049,0.312,0.095,0.476,0.145h40.486
	c0.188,0,0.373-0.062,0.522-0.182l8.874-6.953c0.939-0.736,1.639-1.725,2.022-2.854l12.459-36.792
	c0.081-0.235,0.051-0.495-0.074-0.708L78.827,22.491z M50.143,2.118c0.154-0.113,0.362-0.108,0.511,0.009l25.514,19.879
	c0.482,0.373,0.885,0.829,1.2,1.358l5.646,9.464c0.237,0.398-0.243,0.835-0.617,0.562L50.674,9.982
	c-0.148-0.109-0.352-0.111-0.502-0.002L17.745,33.543c-0.702,0.509-1.695,0.184-1.963-0.64l-1.424-4.429
	c-0.056-0.174,0.007-0.366,0.155-0.472L50.143,2.118z M43.791,17.08l26.174,19.015c0.148,0.108,0.209,0.301,0.153,0.475
	l-9.996,30.77c-0.057,0.176-0.219,0.294-0.406,0.294H27.367c-0.185,0-0.346-0.118-0.406-0.294l-9.996-30.77
	c-0.057-0.174,0.007-0.366,0.156-0.475L43.292,17.08C43.441,16.974,43.643,16.974,43.791,17.08z M5.606,24.955l32.59-22.428
	c0.772-0.531,1.674-0.812,2.609-0.812l5.693-0.002c0.413,0,0.583,0.529,0.25,0.771L12.515,27.352
	c-0.147,0.108-0.21,0.299-0.153,0.475l2.514,7.801l-0.003,0.002l9.858,30.336c0.269,0.82-0.347,1.668-1.213,1.668h-4.635
	c-0.186,0-0.351-0.122-0.406-0.298L5.442,25.433C5.386,25.254,5.452,25.062,5.606,24.955z M12.907,75.418L1.53,39.057
	c-0.001-0.082-0.003-0.156-0.006-0.235l2.516-9.53c0.108-0.411,0.689-0.423,0.817-0.016l12.368,39.757
	c0.055,0.177,0.219,0.296,0.405,0.296h40.072c0.867,0,1.479,0.848,1.21,1.673l-1.441,4.419c-0.057,0.175-0.219,0.292-0.405,0.292
	H13.313C13.126,75.712,12.962,75.59,12.907,75.418z M63.394,82.891c-0.056,0.176-0.219,0.293-0.4,0.293H24.206
	c-0.324-0.098-0.626-0.189-0.951-0.289l-6.976-4.705c-0.349-0.234-0.182-0.776,0.236-0.776H58.3c0.187,0,0.348-0.118,0.404-0.294
	l2.731-8.373l-0.792-0.258V68.48l0.806,0.265l9.668-29.75c0.267-0.825,1.26-1.146,1.958-0.638l3.759,2.73
	c0.149,0.109,0.212,0.301,0.154,0.478L63.394,82.891z M85.883,38.439l-12.541,37.04c-0.049,0.068-0.094,0.133-0.143,0.197
	l-6.5,5.096c-0.329,0.258-0.795-0.067-0.665-0.469l12.957-39.384c0.059-0.177-0.004-0.371-0.155-0.478l-7.125-5.178l-0.001,0.002
	L46.406,16.881c-0.701-0.508-0.701-1.553,0-2.062l3.758-2.732c0.149-0.109,0.353-0.109,0.503,0.002L85.732,37.96
	C85.882,38.07,85.943,38.265,85.883,38.439z"/>
<path fill="#DA1036" d="M78.827,112.492c-0.423-0.707-0.965-1.324-1.616-1.828l-26.04-20.289c-0.297-0.231-0.667-0.358-1.044-0.358
	h-9.321c-1.28,0-2.518,0.387-3.573,1.112L4.13,113.91c-0.336,0.229-0.577,0.573-0.681,0.967L0.226,127.09
	c-0.328,1.236-0.297,2.533,0.083,3.754l11.264,35.998l0.089,0.285l11.291,7.611c0.162,0.049,0.312,0.096,0.476,0.145h40.486
	c0.188,0,0.373-0.062,0.522-0.182l8.874-6.953c0.939-0.736,1.639-1.725,2.022-2.854l12.459-36.791
	c0.081-0.234,0.051-0.495-0.074-0.708L78.827,112.492z M50.143,92.119c0.154-0.113,0.362-0.109,0.511,0.008l25.514,19.879
	c0.482,0.373,0.885,0.83,1.2,1.359l5.646,9.463c0.237,0.398-0.243,0.836-0.617,0.562L50.674,99.982
	c-0.148-0.109-0.352-0.111-0.502-0.002l-32.427,23.562c-0.702,0.51-1.695,0.185-1.963-0.64l-1.424-4.429
	c-0.056-0.174,0.007-0.366,0.155-0.473L50.143,92.119z M43.791,107.08l26.174,19.016c0.148,0.107,0.209,0.301,0.153,0.475
	l-9.996,30.77c-0.057,0.176-0.219,0.295-0.406,0.295H27.367c-0.185,0-0.346-0.119-0.406-0.295l-9.996-30.77
	c-0.057-0.174,0.007-0.365,0.156-0.475l26.171-19.016C43.441,106.975,43.643,106.975,43.791,107.08z M5.606,114.955l32.59-22.428
	c0.772-0.531,1.674-0.812,2.609-0.812l5.693-0.002c0.413,0,0.583,0.529,0.25,0.771l-34.233,24.868
	c-0.147,0.108-0.21,0.299-0.153,0.476l2.514,7.801l-0.003,0.002l9.858,30.336c0.269,0.82-0.347,1.668-1.213,1.668h-4.635
	c-0.186,0-0.351-0.123-0.406-0.299L5.442,115.434C5.386,115.254,5.452,115.062,5.606,114.955z M12.907,165.418L1.53,129.058
	c-0.001-0.082-0.003-0.156-0.006-0.235l2.516-9.529c0.108-0.412,0.689-0.424,0.817-0.017l12.368,39.757
	c0.055,0.178,0.219,0.297,0.405,0.297h40.072c0.867,0,1.479,0.848,1.21,1.672l-1.441,4.42c-0.057,0.174-0.219,0.291-0.405,0.291
	H13.313C13.126,165.713,12.962,165.59,12.907,165.418z M63.394,172.891c-0.056,0.176-0.219,0.293-0.4,0.293H24.206
	c-0.324-0.098-0.626-0.188-0.951-0.289l-6.976-4.705c-0.349-0.234-0.182-0.775,0.236-0.775H58.3c0.187,0,0.348-0.119,0.404-0.295
	l2.731-8.373l-0.792-0.258v-0.008l0.806,0.266l9.668-29.75c0.267-0.826,1.26-1.146,1.958-0.639l3.759,2.73
	c0.149,0.108,0.212,0.301,0.154,0.478L63.394,172.891z M85.883,128.439l-12.541,37.039c-0.049,0.068-0.094,0.133-0.143,0.197
	l-6.5,5.096c-0.329,0.258-0.795-0.066-0.665-0.469l12.957-39.383c0.059-0.178-0.004-0.371-0.155-0.479l-7.125-5.178l-0.001,0.002
	l-25.304-18.385c-0.701-0.508-0.701-1.553,0-2.062l3.758-2.731c0.149-0.109,0.353-0.109,0.503,0.002l35.065,25.871
	C85.882,128.07,85.943,128.266,85.883,128.439z"/>
<path fill="#FEFA39" d="M78.827,202.491c-0.423-0.707-0.965-1.324-1.616-1.828l-26.04-20.288c-0.297-0.232-0.667-0.359-1.044-0.359
	h-9.321c-1.28,0-2.518,0.387-3.573,1.112L4.13,203.909c-0.336,0.229-0.577,0.573-0.681,0.967L0.226,217.09
	c-0.328,1.236-0.297,2.533,0.083,3.754l11.264,35.998l0.089,0.285l11.291,7.611c0.162,0.049,0.312,0.095,0.476,0.145h40.486
	c0.188,0,0.373-0.062,0.522-0.182l8.874-6.953c0.939-0.736,1.639-1.725,2.022-2.854l12.459-36.791
	c0.081-0.235,0.051-0.496-0.074-0.709L78.827,202.491z M50.143,182.118c0.154-0.113,0.362-0.108,0.511,0.009l25.514,19.879
	c0.482,0.373,0.885,0.829,1.2,1.358l5.646,9.464c0.237,0.398-0.243,0.835-0.617,0.562l-31.723-23.408
	c-0.148-0.109-0.352-0.111-0.502-0.002l-32.427,23.562c-0.702,0.509-1.695,0.185-1.963-0.642l-1.424-4.428
	c-0.056-0.175,0.007-0.367,0.155-0.473L50.143,182.118z M43.791,197.08l26.174,19.016c0.148,0.107,0.209,0.301,0.153,0.475
	l-9.996,30.771c-0.057,0.177-0.219,0.294-0.406,0.294H27.367c-0.185,0-0.346-0.117-0.406-0.294l-9.996-30.771
	c-0.057-0.174,0.007-0.365,0.156-0.475l26.171-19.016C43.441,196.975,43.643,196.975,43.791,197.08z M5.606,204.955l32.59-22.428
	c0.772-0.531,1.674-0.812,2.609-0.812l5.693-0.002c0.413,0,0.583,0.529,0.25,0.771l-34.233,24.867
	c-0.147,0.107-0.21,0.299-0.153,0.476l2.514,7.801l-0.003,0.002l9.858,30.336c0.269,0.82-0.347,1.668-1.213,1.668h-4.635
	c-0.186,0-0.351-0.122-0.406-0.298L5.442,205.434C5.386,205.254,5.452,205.062,5.606,204.955z M12.907,255.418L1.53,219.057
	c-0.001-0.082-0.003-0.156-0.006-0.233l2.516-9.53c0.108-0.411,0.689-0.423,0.817-0.018l12.368,39.759
	c0.055,0.177,0.219,0.296,0.405,0.296h40.072c0.867,0,1.479,0.848,1.21,1.673l-1.441,4.419c-0.057,0.176-0.219,0.292-0.405,0.292
	H13.313C13.126,255.712,12.962,255.59,12.907,255.418z M63.394,262.891c-0.056,0.176-0.219,0.293-0.4,0.293H24.206
	c-0.324-0.098-0.626-0.188-0.951-0.289l-6.976-4.705c-0.349-0.233-0.182-0.775,0.236-0.775H58.3c0.187,0,0.348-0.118,0.404-0.294
	l2.731-8.373l-0.792-0.259v-0.008l0.806,0.266l9.668-29.75c0.267-0.825,1.26-1.146,1.958-0.639l3.759,2.729
	c0.149,0.108,0.212,0.302,0.154,0.478L63.394,262.891z M85.883,218.439l-12.541,37.039c-0.049,0.067-0.094,0.133-0.143,0.196
	l-6.5,5.097c-0.329,0.258-0.795-0.067-0.665-0.47l12.957-39.384c0.059-0.177-0.004-0.371-0.155-0.479l-7.125-5.178l-0.001,0.002
	l-25.304-18.385c-0.701-0.508-0.701-1.553,0-2.062l3.758-2.73c0.149-0.107,0.353-0.107,0.503,0.002l35.065,25.871
	C85.882,218.07,85.943,218.266,85.883,218.439z"/>
<path fill="#3BBDB1" d="M78.827,292.492c-0.423-0.707-0.965-1.324-1.616-1.828l-26.04-20.289c-0.297-0.232-0.667-0.359-1.044-0.359
	h-9.321c-1.28,0-2.518,0.387-3.573,1.113L4.13,293.91c-0.336,0.229-0.577,0.572-0.681,0.967L0.226,307.09
	c-0.328,1.236-0.297,2.533,0.083,3.754l11.264,35.998l0.089,0.285l11.291,7.611c0.162,0.049,0.312,0.096,0.476,0.145h40.486
	c0.188,0,0.373-0.062,0.522-0.182l8.874-6.953c0.939-0.736,1.639-1.725,2.022-2.854l12.459-36.791
	c0.081-0.234,0.051-0.496-0.074-0.709L78.827,292.492z M50.143,272.119c0.154-0.113,0.362-0.109,0.511,0.008l25.514,19.879
	c0.482,0.373,0.885,0.83,1.2,1.359l5.646,9.463c0.237,0.398-0.243,0.836-0.617,0.562l-31.723-23.408
	c-0.148-0.109-0.352-0.111-0.502-0.002l-32.427,23.562c-0.702,0.511-1.695,0.185-1.963-0.642l-1.424-4.428
	c-0.056-0.174,0.007-0.367,0.155-0.473L50.143,272.119z M43.791,287.08l26.174,19.016c0.148,0.107,0.209,0.301,0.153,0.475
	l-9.996,30.771c-0.057,0.177-0.219,0.295-0.406,0.295H27.367c-0.185,0-0.346-0.118-0.406-0.295l-9.996-30.771
	c-0.057-0.174,0.007-0.364,0.156-0.475l26.171-19.016C43.441,286.975,43.643,286.975,43.791,287.08z M5.606,294.955l32.59-22.428
	c0.772-0.531,1.674-0.812,2.609-0.812l5.693-0.002c0.413,0,0.583,0.529,0.25,0.771l-34.233,24.867
	c-0.147,0.108-0.21,0.299-0.153,0.477l2.514,7.801l-0.003,0.002l9.858,30.336c0.269,0.82-0.347,1.668-1.213,1.668h-4.635
	c-0.186,0-0.351-0.123-0.406-0.299L5.442,295.434C5.386,295.254,5.452,295.062,5.606,294.955z M12.907,345.418L1.53,309.057
	c-0.001-0.082-0.003-0.156-0.006-0.233l2.516-9.529c0.108-0.412,0.689-0.424,0.817-0.019l12.368,39.759
	c0.055,0.178,0.219,0.297,0.405,0.297h40.072c0.867,0,1.479,0.849,1.21,1.672l-1.441,4.42c-0.057,0.175-0.219,0.291-0.405,0.291
	H13.313C13.126,345.713,12.962,345.59,12.907,345.418z M63.394,352.891c-0.056,0.176-0.219,0.293-0.4,0.293H24.206
	c-0.324-0.098-0.626-0.188-0.951-0.289l-6.976-4.705c-0.349-0.233-0.182-0.774,0.236-0.774H58.3c0.187,0,0.348-0.119,0.404-0.295
	l2.731-8.373l-0.792-0.258v-0.009l0.806,0.267l9.668-29.75c0.267-0.826,1.26-1.146,1.958-0.64l3.759,2.73
	c0.149,0.107,0.212,0.301,0.154,0.477L63.394,352.891z M85.883,308.439l-12.541,37.039c-0.049,0.067-0.094,0.133-0.143,0.196
	l-6.5,5.097c-0.329,0.258-0.795-0.066-0.665-0.47l12.957-39.383c0.059-0.178-0.004-0.371-0.155-0.479l-7.125-5.178l-0.001,0.002
	l-25.304-18.385c-0.701-0.508-0.701-1.553,0-2.062l3.758-2.729c0.149-0.108,0.353-0.108,0.503,0.002l35.065,25.871
	C85.882,308.07,85.943,308.266,85.883,308.439z"/>
</svg>
