<?xml version="1.0" encoding="utf-8"?>
<!-- Generator: Adobe Illustrator 16.0.0, SVG Export Plug-In . SVG Version: 6.00 Build 0)  -->
<!DOCTYPE svg PUBLIC "-//W3C//DTD SVG 1.1//EN" "http://www.w3.org/Graphics/SVG/1.1/DTD/svg11.dtd">
<svg version="1.1" id="Layer_1" xmlns="http://www.w3.org/2000/svg" xmlns:xlink="http://www.w3.org/1999/xlink" x="0px" y="0px"
	 width="360px" height="400px" viewBox="0 0 360 400" enable-background="new 0 0 360 400" xml:space="preserve">
<path d="M0,60.016c0,3.396,2.753,6.145,6.236,6.145c3.396,0,6.146-2.748,6.146-6.145c0-3.487-2.751-6.233-6.146-6.233
	C2.753,53.779,0,56.525,0,60.016z"/>
<g>
	<path d="M41.646,369.75l-1.56,7.152c-0.734,3.395-2.66,5.047-5.321,5.047c-3.026,0-5.87-2.937-5.87-7.34
		c0-6.973,5.045-8.808,7.34-9.175l-2.844-7.611c-3.944,0.916-11.836,4.679-11.836,16.786c0,8.623,6.425,15.688,13.944,15.688
		c6.239,0,10.916-4.129,12.383-11.01l1.652-7.523c0.825-3.668,2.937-5.687,5.687-5.687c3.121,0,5.872,2.66,5.872,7.522
		c0,6.239-3.669,9.725-8.258,10.274l2.756,7.796c5.043-0.733,12.843-5.871,12.843-17.979c0-10.917-7.432-16.146-13.67-16.146
		C48.252,357.547,43.387,361.765,41.646,369.75z"/>
	<path d="M21.648,303.791c0,5.597,2.019,11.286,8.35,14.771c-5.689,2.387-8.35,7.706-8.35,13.21c0,5.139,2.294,10.643,7.156,13.395
		h-5.872v8.255h44.125v-8.531H40.455c-6.607,0-11.193-4.128-11.193-10.274c0-6.603,4.403-9.354,10.091-9.354h27.704v-8.623H40.363
		c-6.332,0-11.102-4.129-11.102-10.184c0-6.513,4.312-9.356,10.091-9.356h27.705v-8.532H38.435
		C26.877,288.562,21.648,296.086,21.648,303.791z"/>
	<path d="M22.933,242.89v8.526h6.238c-3.578,1.47-7.43,5.687-7.43,13.481c0,12.478,10.457,20.916,22.933,20.916
		c13.119,0,23.576-7.979,23.576-20.916c0-6.879-3.669-11.557-7.889-13.666h0.731c2.662,0,4.952-0.274,5.964-0.457v-8.349
		c-0.828,0.093-4.219,0.464-8.166,0.464H22.933L22.933,242.89z M60.635,264.077c0,8.254-6.881,12.932-15.961,12.932
		c-9.083,0-15.319-5.137-15.319-13.025c0-7.892,6.236-12.657,15.319-12.657C53.754,251.325,60.635,256.185,60.635,264.077z"/>
	<path d="M30.639,227.567h-7.706v8.438h44.124v-8.624H44.949c-9.725,0-13.578-4.858-13.578-12.108c0-1.189,0.092-2.477,0.275-3.756
		h-9.173c-0.091,0.452-0.273,1.646-0.273,2.838C22.2,218.853,23.853,224.356,30.639,227.567z"/>
	<path d="M8.99,190.512v7.887h7.154c3.854,0,6.789,2.021,6.789,6.786v2.387h7.798v-8.438h24.217c7.981,0,12.567-4.766,12.567-12.289
		c0-2.936-0.547-5.137-0.824-5.871h-7.34c0.186,0.734,0.367,2.295,0.367,3.396c0,4.494-2.019,6.145-6.056,6.145H30.73v-9.541h-7.798
		v9.541L8.99,190.512L8.99,190.512z"/>
	<rect x="0.642" y="166.381" width="66.415" height="8.626"/>
	<path d="M21.556,138.312c0,13.211,10,22.564,23.394,22.564c13.483,0,23.483-9.354,23.483-22.564c0-13.207-10-22.568-23.483-22.568
		C31.556,115.744,21.556,125.105,21.556,138.312z M60.729,138.312c0,7.344-5.508,13.76-15.778,13.76
		c-10.184,0-15.688-6.417-15.688-13.76c0-7.338,5.504-13.76,15.688-13.76C55.221,124.557,60.729,130.979,60.729,138.312z"/>
	<path d="M29.078,79.516c-4.403,2.201-6.971,6.787-6.971,13.574c0,12.109,9.539,20.275,21.465,20.275
		c12.476,0,21.375-8.531,21.375-20.275c0-6.604-3.213-11.373-7.247-13.479h6.329c9.539,0,14.312,4.219,14.312,13.479
		c0,6.701-4.679,11.377-10.825,12.02l1.926,8.352c9.449-1.104,16.42-9.355,16.42-20.367c0-16.602-10.916-22.105-22.104-22.105
		H22.933v8.531L29.078,79.516L29.078,79.516z M57.7,91.807c0,7.795-5.505,12.752-14.128,12.752c-8.53,0-14.125-5.139-14.125-12.752
		c0-7.43,5.595-12.564,14.125-12.564C52.104,79.238,57.7,84.377,57.7,91.807z"/>
	<rect x="22.933" y="56.035" width="44.124" height="8.529"/>
	<path d="M51.369,15.945c3.486,1.008,9.082,4.037,9.082,12.289c0,7.154-5.411,13.484-15.502,13.484
		c-10.273,0-15.412-6.416-15.412-13.391c0-7.521,5.046-10.734,9.356-11.836L35.59,8.695c-6.695,1.836-14.035,7.889-14.035,19.633
		c0,12.566,9.632,22.199,23.394,22.199c13.394,0,23.484-9.443,23.484-22.297c0-11.465-7.432-17.791-13.763-19.9L51.369,15.945z"/>
	<path fill="#DA1036" d="M131.646,369.75l-1.561,7.152c-0.733,3.395-2.66,5.047-5.32,5.047c-3.025,0-5.87-2.937-5.87-7.34
		c0-6.973,5.045-8.808,7.34-9.175l-2.844-7.612c-3.944,0.916-11.836,4.68-11.836,16.787c0,8.623,6.425,15.688,13.944,15.688
		c6.238,0,10.916-4.129,12.383-11.01l1.652-7.522c0.824-3.668,2.936-5.687,5.686-5.687c3.121,0,5.873,2.66,5.873,7.522
		c0,6.239-3.67,9.724-8.258,10.274l2.756,7.795c5.043-0.732,12.842-5.871,12.842-17.979c0-10.917-7.432-16.146-13.67-16.146
		C138.252,357.547,133.388,361.765,131.646,369.75z"/>
	<path fill="#DA1036" d="M111.648,303.791c0,5.597,2.02,11.286,8.35,14.771c-5.688,2.387-8.35,7.706-8.35,13.21
		c0,5.139,2.294,10.643,7.156,13.395h-5.872v8.254h44.124v-8.53h-26.602c-6.606,0-11.192-4.128-11.192-10.274
		c0-6.603,4.403-9.354,10.091-9.354h27.703v-8.623h-26.693c-6.332,0-11.102-4.129-11.102-10.184c0-6.513,4.312-9.356,10.091-9.356
		h27.704v-8.532h-28.621C116.877,288.562,111.648,296.086,111.648,303.791z"/>
	<path fill="#DA1036" d="M112.934,242.89v8.526h6.238c-3.578,1.47-7.43,5.687-7.43,13.481c0,12.478,10.457,20.916,22.932,20.916
		c13.119,0,23.576-7.979,23.576-20.916c0-6.879-3.668-11.558-7.889-13.667h0.732c2.662,0,4.951-0.273,5.963-0.457v-8.348
		c-0.828,0.092-4.219,0.463-8.166,0.463L112.934,242.89L112.934,242.89z M150.635,264.076c0,8.254-6.881,12.932-15.961,12.932
		c-9.082,0-15.318-5.136-15.318-13.024c0-7.892,6.236-12.657,15.318-12.657C143.754,251.324,150.635,256.184,150.635,264.076z"/>
	<path fill="#DA1036" d="M120.64,227.566h-7.706v8.438h44.123v-8.623H134.95c-9.725,0-13.578-4.859-13.578-12.109
		c0-1.189,0.092-2.477,0.275-3.756l-9.173,0.001c-0.091,0.452-0.272,1.646-0.272,2.838
		C112.201,218.853,113.854,224.356,120.64,227.566z"/>
	<path fill="#DA1036" d="M98.99,190.512v7.887h7.154c3.854,0,6.789,2.021,6.789,6.785v2.387h7.798v-8.438h24.218
		c7.98,0,12.566-4.766,12.566-12.289c0-2.936-0.547-5.137-0.824-5.871h-7.34c0.186,0.734,0.367,2.295,0.367,3.396
		c0,4.494-2.018,6.145-6.055,6.145H120.73v-9.541h-7.798v9.541L98.99,190.512L98.99,190.512z"/>
	<rect x="90.643" y="166.381" fill="#DA1036" width="66.414" height="8.626"/>
	<path fill="#DA1036" d="M111.557,138.312c0,13.211,10,22.564,23.395,22.564c13.482,0,23.482-9.354,23.482-22.564
		c0-13.207-10-22.568-23.482-22.568C121.557,115.744,111.557,125.105,111.557,138.312z M150.729,138.312
		c0,7.344-5.508,13.76-15.777,13.76c-10.185,0-15.688-6.417-15.688-13.76c0-7.338,5.504-13.76,15.688-13.76
		C145.221,124.557,150.729,130.979,150.729,138.312z"/>
	<path fill="#DA1036" d="M119.078,79.516c-4.402,2.201-6.971,6.787-6.971,13.574c0,12.109,9.539,20.275,21.465,20.275
		c12.477,0,21.375-8.531,21.375-20.275c0-6.604-3.213-11.373-7.246-13.479h6.328c9.539,0,14.312,4.219,14.312,13.479
		c0,6.701-4.68,11.377-10.826,12.02l1.926,8.352c9.449-1.104,16.42-9.355,16.42-20.367c0-16.602-10.917-22.105-22.104-22.105
		h-40.824v8.531L119.078,79.516L119.078,79.516z M147.701,91.807c0,7.795-5.506,12.752-14.129,12.752
		c-8.529,0-14.125-5.139-14.125-12.752c0-7.43,5.596-12.564,14.125-12.564C142.104,79.238,147.701,84.377,147.701,91.807z"/>
	<rect x="112.934" y="56.035" fill="#DA1036" width="44.123" height="8.529"/>
	<path fill="#DA1036" d="M90,60.346c0,3.396,2.754,6.145,6.236,6.145c3.396,0,6.146-2.748,6.146-6.145
		c0-3.488-2.752-6.234-6.146-6.234C92.754,54.109,90,56.855,90,60.346z"/>
	<path fill="#DA1036" d="M141.369,15.945c3.486,1.008,9.082,4.037,9.082,12.289c0,7.154-5.41,13.484-15.502,13.484
		c-10.273,0-15.412-6.416-15.412-13.391c0-7.521,5.047-10.734,9.356-11.836l-3.304-7.797c-6.694,1.836-14.034,7.889-14.034,19.633
		c0,12.566,9.632,22.199,23.394,22.199c13.395,0,23.484-9.443,23.484-22.297c0-11.465-7.432-17.791-13.762-19.9L141.369,15.945z"/>
	<path fill="#FEFA39" d="M221.646,369.75l-1.562,7.152c-0.732,3.395-2.66,5.047-5.318,5.047c-3.027,0-5.871-2.937-5.871-7.34
		c0-6.973,5.045-8.808,7.34-9.175l-2.844-7.612c-3.943,0.916-11.836,4.68-11.836,16.787c0,8.623,6.426,15.688,13.942,15.688
		c6.237,0,10.916-4.129,12.383-11.01l1.652-7.522c0.823-3.668,2.937-5.687,5.687-5.687c3.121,0,5.872,2.66,5.872,7.522
		c0,6.239-3.669,9.724-8.258,10.274l2.756,7.795c5.043-0.732,12.845-5.871,12.845-17.979c0-10.917-7.434-16.146-13.67-16.146
		C228.252,357.547,223.387,361.765,221.646,369.75z"/>
	<path fill="#FEFA39" d="M201.648,303.79c0,5.598,2.019,11.286,8.35,14.771c-5.689,2.386-8.35,7.706-8.35,13.21
		c0,5.139,2.293,10.643,7.156,13.395h-5.873v8.254h44.125v-8.53h-26.604c-6.605,0-11.193-4.128-11.193-10.274
		c0-6.603,4.403-9.354,10.094-9.354h27.703v-8.623h-26.693c-6.332,0-11.104-4.13-11.104-10.185c0-6.512,4.312-9.355,10.093-9.355
		h27.705v-8.532h-28.621C206.877,288.562,201.648,296.085,201.648,303.79z"/>
	<path fill="#FEFA39" d="M202.934,242.889v8.526h6.237c-3.578,1.47-7.43,5.687-7.43,13.482c0,12.478,10.457,20.916,22.933,20.916
		c13.119,0,23.576-7.979,23.576-20.916c0-6.879-3.669-11.558-7.889-13.667h0.729c2.662,0,4.952-0.274,5.966-0.457v-8.349
		c-0.828,0.093-4.221,0.464-8.166,0.464H202.934L202.934,242.889z M240.635,264.076c0,8.254-6.881,12.932-15.961,12.932
		c-9.083,0-15.318-5.137-15.318-13.024c0-7.893,6.235-12.658,15.318-12.658C233.754,251.324,240.635,256.184,240.635,264.076z"/>
	<path fill="#FEFA39" d="M210.639,227.566h-7.705v8.438h44.123v-8.624H224.95c-9.726,0-13.578-4.858-13.578-12.108
		c0-1.189,0.092-2.477,0.274-3.756h-9.174c-0.092,0.453-0.271,1.646-0.271,2.838C202.2,218.852,203.854,224.355,210.639,227.566z"/>
	<path fill="#FEFA39" d="M188.99,190.512v7.887h7.154c3.854,0,6.789,2.021,6.789,6.785v2.387h7.797v-8.438h24.218
		c7.981,0,12.567-4.766,12.567-12.289c0-2.936-0.549-5.137-0.824-5.871h-7.34c0.186,0.734,0.365,2.295,0.365,3.396
		c0,4.494-2.019,6.145-6.056,6.145H210.73v-9.541h-7.799v9.541L188.99,190.512L188.99,190.512z"/>
	<rect x="180.643" y="166.381" fill="#FEFA39" width="66.414" height="8.626"/>
	<path fill="#FEFA39" d="M201.557,138.312c0,13.211,10,22.564,23.396,22.564c13.481,0,23.481-9.354,23.481-22.564
		c0-13.207-10-22.568-23.481-22.568C211.557,115.744,201.557,125.105,201.557,138.312z M240.729,138.312
		c0,7.344-5.508,13.76-15.776,13.76c-10.187,0-15.688-6.417-15.688-13.76c0-7.338,5.504-13.76,15.688-13.76
		C235.221,124.557,240.729,130.979,240.729,138.312z"/>
	<path fill="#FEFA39" d="M209.078,79.516c-4.403,2.201-6.971,6.787-6.971,13.574c0,12.109,9.539,20.275,21.465,20.275
		c12.476,0,21.375-8.531,21.375-20.275c0-6.604-3.213-11.373-7.247-13.479h6.329c9.539,0,14.312,4.219,14.312,13.479
		c0,6.701-4.679,11.377-10.825,12.02l1.926,8.352c9.449-1.104,16.42-9.355,16.42-20.367c0-16.602-10.916-22.105-22.104-22.105
		h-40.822v8.531L209.078,79.516L209.078,79.516z M237.7,91.807c0,7.795-5.505,12.752-14.128,12.752
		c-8.53,0-14.125-5.139-14.125-12.752c0-7.43,5.595-12.564,14.125-12.564C232.104,79.238,237.7,84.377,237.7,91.807z"/>
	<rect x="202.934" y="56.035" fill="#FEFA39" width="44.123" height="8.529"/>
	<path fill="#FEFA39" d="M180,60.346c0,3.396,2.753,6.145,6.236,6.145c3.396,0,6.146-2.748,6.146-6.145
		c0-3.488-2.751-6.234-6.146-6.234C182.753,54.109,180,56.855,180,60.346z"/>
	<path fill="#FEFA39" d="M231.369,15.945c3.486,1.008,9.082,4.037,9.082,12.289c0,7.154-5.411,13.484-15.502,13.484
		c-10.273,0-15.412-6.416-15.412-13.391c0-7.521,5.046-10.734,9.355-11.836l-3.305-7.797c-6.693,1.836-14.033,7.889-14.033,19.633
		c0,12.566,9.633,22.199,23.395,22.199c13.394,0,23.484-9.443,23.484-22.297c0-11.465-7.434-17.791-13.765-19.9L231.369,15.945z"/>
	<path fill="#3BBDB1" d="M311.646,369.75l-1.562,7.152c-0.732,3.395-2.66,5.047-5.318,5.047c-3.025,0-5.871-2.937-5.871-7.34
		c0-6.973,5.045-8.808,7.34-9.175l-2.844-7.612c-3.943,0.916-11.836,4.68-11.836,16.787c0,8.623,6.426,15.688,13.943,15.688
		c6.236,0,10.916-4.129,12.383-11.01l1.652-7.522c0.822-3.668,2.938-5.687,5.688-5.687c3.119,0,5.871,2.66,5.871,7.522
		c0,6.239-3.67,9.724-8.258,10.274l2.756,7.795c5.043-0.732,12.844-5.871,12.844-17.979c0-10.917-7.434-16.146-13.67-16.146
		C318.252,357.547,313.387,361.765,311.646,369.75z"/>
	<path fill="#3BBDB1" d="M291.648,303.79c0,5.598,2.02,11.286,8.35,14.771c-5.689,2.386-8.35,7.706-8.35,13.21
		c0,5.139,2.293,10.643,7.156,13.395h-5.873v8.254h44.125v-8.53h-26.604c-6.605,0-11.191-4.128-11.191-10.274
		c0-6.603,4.402-9.354,10.092-9.354h27.703v-8.623h-26.693c-6.332,0-11.102-4.13-11.102-10.185c0-6.512,4.312-9.355,10.09-9.355
		h27.705v-8.532h-28.621C296.877,288.562,291.648,296.085,291.648,303.79z"/>
	<path fill="#3BBDB1" d="M292.934,242.889v8.526h6.238c-3.578,1.47-7.43,5.687-7.43,13.482c0,12.477,10.457,20.916,22.932,20.916
		c13.119,0,23.576-7.979,23.576-20.916c0-6.879-3.668-11.558-7.889-13.667h0.73c2.662,0,4.951-0.274,5.965-0.457v-8.349
		c-0.828,0.093-4.221,0.464-8.166,0.464H292.934L292.934,242.889z M330.635,264.076c0,8.254-6.881,12.932-15.961,12.932
		c-9.082,0-15.318-5.137-15.318-13.024c0-7.893,6.236-12.658,15.318-12.658C323.754,251.324,330.635,256.184,330.635,264.076z"/>
	<path fill="#3BBDB1" d="M300.639,227.566h-7.705v8.438h44.123v-8.624H314.95c-9.726,0-13.578-4.858-13.578-12.108
		c0-1.189,0.092-2.477,0.274-3.756h-9.174c-0.091,0.452-0.271,1.646-0.271,2.838C292.201,218.852,293.854,224.355,300.639,227.566z"
		/>
	<path fill="#3BBDB1" d="M278.99,190.512v7.887h7.154c3.854,0,6.789,2.021,6.789,6.785v2.387h7.797v-8.438h24.219
		c7.98,0,12.566-4.766,12.566-12.289c0-2.936-0.549-5.137-0.824-5.871h-7.34c0.186,0.734,0.365,2.295,0.365,3.396
		c0,4.494-2.018,6.145-6.055,6.145H300.73v-9.541h-7.799v9.541L278.99,190.512L278.99,190.512z"/>
	<rect x="270.643" y="166.381" fill="#3BBDB1" width="66.414" height="8.626"/>
	<path fill="#3BBDB1" d="M291.557,138.312c0,13.211,10,22.564,23.396,22.564c13.48,0,23.48-9.354,23.48-22.564
		c0-13.207-10-22.568-23.48-22.568C301.557,115.744,291.557,125.105,291.557,138.312z M330.729,138.312
		c0,7.344-5.508,13.76-15.775,13.76c-10.188,0-15.688-6.417-15.688-13.76c0-7.338,5.504-13.76,15.688-13.76
		C325.221,124.557,330.729,130.979,330.729,138.312z"/>
	<path fill="#3BBDB1" d="M299.078,79.516c-4.402,2.201-6.971,6.787-6.971,13.574c0,12.109,9.539,20.275,21.465,20.275
		c12.477,0,21.375-8.531,21.375-20.275c0-6.604-3.213-11.373-7.246-13.479h6.328c9.539,0,14.312,4.219,14.312,13.479
		c0,6.701-4.68,11.377-10.825,12.02l1.926,8.352c9.449-1.104,16.42-9.355,16.42-20.367c0-16.602-10.916-22.105-22.104-22.105
		h-40.822v8.531L299.078,79.516L299.078,79.516z M327.701,91.807c0,7.795-5.506,12.752-14.129,12.752
		c-8.529,0-14.125-5.139-14.125-12.752c0-7.43,5.596-12.564,14.125-12.564C322.104,79.238,327.701,84.377,327.701,91.807z"/>
	<rect x="292.934" y="56.035" fill="#3BBDB1" width="44.123" height="8.529"/>
	<path fill="#3BBDB1" d="M270,60.346c0,3.396,2.754,6.145,6.236,6.145c3.396,0,6.146-2.748,6.146-6.145
		c0-3.488-2.752-6.234-6.146-6.234C272.754,54.109,270,56.855,270,60.346z"/>
	<path fill="#3BBDB1" d="M321.369,15.945c3.486,1.008,9.082,4.037,9.082,12.289c0,7.154-5.41,13.484-15.502,13.484
		c-10.273,0-15.412-6.416-15.412-13.391c0-7.521,5.047-10.734,9.355-11.836l-3.305-7.797c-6.693,1.836-14.033,7.889-14.033,19.633
		c0,12.566,9.633,22.199,23.395,22.199c13.395,0,23.484-9.443,23.484-22.297c0-11.465-7.434-17.791-13.764-19.9L321.369,15.945z"/>
</g>
</svg>
