<svg width="376" height="344" viewBox="0 0 376 344" fill="none" xmlns="http://www.w3.org/2000/svg">
<path d="M283.936 183.721C283.936 183.721 274.66 188.736 274.394 192.155C274.128 195.573 291.342 191.736 294.471 189.649C297.601 187.559 294.662 183.381 294.662 183.381C294.662 183.381 290.004 180.647 283.936 183.725V183.721Z" fill="#112050"/>
<path d="M285.769 170.464L286.442 179.749C286.557 181.364 285.686 182.896 284.222 183.597C283.632 183.88 282.967 184.242 282.266 184.693L286.413 185.673C288.236 186.103 290.154 185.845 291.797 184.947L294.668 183.379L293.855 182.04C293.362 181.228 293.121 180.29 293.157 179.345L293.52 170.085L285.773 170.464H285.769Z" fill="#3DC2B5"/>
<path d="M294.775 172.06L298.44 90.5812L278.514 89.2139L283.779 172.06C283.779 172.06 289.621 175.364 294.771 172.06H294.775Z" fill="#112050"/>
<path d="M282.132 184.957C284.305 185.576 286.538 186.206 288.822 186.052C291.106 185.898 292.854 184.857 294.674 183.69C294.915 183.536 294.692 183.146 294.448 183.303C292.649 184.456 290.847 185.501 288.66 185.612C286.474 185.723 284.341 185.118 282.254 184.524C281.977 184.445 281.855 184.875 282.136 184.957H282.132Z" fill="#112050"/>
<path d="M296.307 138.009L298.44 90.5773L278.514 89.21L278.787 93.4874H279.262C285.531 101.026 289.783 110.082 292.538 119.478C294.315 125.534 295.484 131.745 296.307 138.005V138.009Z" fill="black"/>
<path d="M311.243 195.477C311.243 195.477 310.689 206.656 317.35 208.696C323.306 210.518 322.465 193.576 320.404 190.233C318.343 186.89 310.861 186.36 311.243 195.473V195.477Z" fill="#112050"/>
<path d="M309.533 178.499L312.731 189.61C312.731 189.61 311.609 197.871 316.749 197.7C321.888 197.528 318.935 188.801 318.935 188.801L318.608 176.588L309.533 178.496V178.499Z" fill="#3DC2B5"/>
<path d="M277.355 31.8815L271.629 53.3045C271.629 53.3045 274.262 57.4066 281.592 56.6084L289.379 37.4619L277.355 31.8779V31.8815Z" fill="#E3EDFE"/>
<path d="M271.63 53.3057L270.371 57.1786L253.879 72.334C253.879 72.334 248.898 71.3067 245.635 73.3614C243.607 74.6356 251.523 75.5913 251.523 75.5913C251.523 75.5913 248.095 77.2737 246.732 81.6943C246.423 82.6966 246.498 83.7955 247.016 84.7082C247.592 85.7248 250.117 86.4299 252.516 86.0469C254.613 85.714 256.505 84.5901 257.865 82.965C259.069 81.5261 260.436 79.2639 261.382 75.8133L278.158 63.6753L281.593 56.6095L271.63 53.3057Z" fill="#3DC2B5"/>
<path d="M307.785 179.353L296.563 111.318L278.838 90.5469L312.936 96.6176L319.579 177.413C319.579 177.413 316.029 183.341 307.785 179.35V179.353Z" fill="#112050"/>
<path d="M275.799 86.2457L276.993 34.0573C277.094 29.608 280.971 26.1861 285.424 26.612C293.38 27.3709 305.354 29.5364 313.314 35.6967C315.145 37.1106 316.209 39.2905 316.271 41.5956L317.691 96.7407C317.756 99.2499 316.073 101.473 313.627 102.092C307.584 103.624 295.243 104.157 278.442 91.6758C276.727 90.4015 275.748 88.3719 275.799 86.2422V86.2457Z" fill="#E3EDFE"/>
<path d="M289.791 24.1606C289.791 24.1606 290.669 27.3893 290.287 28.6421C289.906 29.8949 288.111 37.7984 296.47 37.0001C304.829 36.2019 300.974 29.3652 300.974 29.3652C300.974 29.3652 299.409 25.8716 299.103 20.0586L289.791 24.1606Z" fill="#3DC2B5"/>
<path d="M297.291 22.7403L294.784 21.96L291.018 23.6172L290.043 25.2244C290.266 26.2804 290.525 27.8517 290.288 28.6428C290.234 28.8218 290.151 29.1368 290.072 29.5412C291.007 29.7739 294.593 27.9842 297.291 22.7439V22.7403Z" fill="#112050"/>
<path d="M286.317 9.15534C286.317 9.15534 282.195 18.5765 287.996 26.2508C287.996 26.2508 291.737 29.9734 298.301 21.7693C303.222 15.6198 299.477 10.1934 297.294 7.86316C296.521 7.0363 295.51 6.47433 294.395 6.25956C291.884 5.77634 287.241 5.42555 286.313 9.15892L286.317 9.15534Z" fill="#3DC2B5"/>
<path d="M288.459 10.745C286.376 10.0326 284.121 9.18074 283.01 7.28721C282.38 6.21695 282.211 4.93193 282.265 3.69344C282.326 2.37978 282.736 0.922939 283.891 0.285796C284.639 -0.125841 285.614 -0.0900465 286.326 0.375283C287.042 0.840612 287.466 1.714 287.387 2.55875C288.114 2.24018 288.858 1.91445 289.65 1.83928C290.441 1.76411 291.304 1.97172 291.822 2.57307C292.167 2.97039 292.38 3.53594 292.88 3.7006C293.34 3.85093 293.818 3.58247 294.279 3.43214C295.696 2.96681 297.412 3.79008 297.926 5.18249C298.03 5.46169 298.109 5.78384 298.361 5.94491C298.53 6.0523 298.746 6.05946 298.947 6.08093C300.746 6.25991 302.21 7.7418 302.843 9.42772C303.472 11.1136 303.415 12.975 303.231 14.7647C303.084 16.1786 302.843 17.6462 302.016 18.8059C301.188 19.9656 299.617 20.7173 298.289 20.184C297.138 19.7222 296.491 18.4122 296.523 17.1772C296.559 15.8636 297.232 14.8828 297.861 13.7911C297.311 13.6085 296.714 13.5656 296.156 13.383C295.289 13.0967 294.43 12.7924 293.567 12.4953C291.865 11.9119 290.15 11.3606 288.459 10.745Z" fill="#112050"/>
<path d="M299.419 21.2357C300.768 21.2357 301.861 20.1475 301.861 18.8052C301.861 17.4629 300.768 16.3748 299.419 16.3748C298.07 16.3748 296.977 17.4629 296.977 18.8052C296.977 20.1475 298.07 21.2357 299.419 21.2357Z" fill="#3DC2B5"/>
<path d="M317.69 96.7418L316.424 47.5744C315.172 46.9659 313.813 46.5757 312.457 46.8012C309.773 47.2451 308.079 49.833 306.72 52.1811L306.414 53.9601C307.982 55.3668 308.612 57.5467 308.795 59.6407C308.975 61.7347 308.781 63.8537 309.043 65.937C309.453 69.1692 310.935 72.1545 312.169 75.172C315.331 82.8928 316.96 91.2294 316.964 99.5695C317.449 98.7319 317.715 97.7619 317.69 96.7418Z" fill="#112050"/>
<path d="M326.615 65.7119L328.104 69.7281L327.359 102.978C327.359 102.978 331.654 111.411 329.478 117.224C327.302 123.037 322.834 111.296 322.834 111.296C322.834 111.296 322.032 116.766 320.428 115.627C318.824 114.489 320.428 104.46 320.428 104.46L317.68 72.5523L315.619 69.5885L326.611 65.7155L326.615 65.7119Z" fill="#3DC2B5"/>
<path d="M315.619 39.0475L326.611 65.7145C326.611 65.7145 324.665 70.6147 315.619 69.5874L305.541 52.492L315.619 39.0439V39.0475Z" fill="#E3EDFE"/>
<path d="M276.368 37.094C276.562 44.7934 276.519 52.4964 276.238 60.1923C276.159 62.3829 276.058 64.5735 275.94 66.7606C275.925 67.0469 276.375 67.0469 276.389 66.7606C276.803 59.0719 276.986 51.3689 276.925 43.6695C276.907 41.4789 276.871 39.2882 276.817 37.094C276.81 36.8077 276.361 36.8041 276.368 37.094Z" fill="#112050"/>
<path d="M305.627 53.1121C306.987 55.5067 308.346 57.9014 309.706 60.296C309.85 60.5466 310.238 60.3211 310.094 60.0705C308.735 57.6759 307.375 55.2812 306.016 52.8866C305.872 52.636 305.483 52.8615 305.627 53.1121Z" fill="#112050"/>
<path d="M312.619 189.76C312.547 191.317 312.479 192.903 312.856 194.431C313.137 195.566 313.712 196.751 314.773 197.352C315.834 197.954 317.611 198.047 318.615 197.302C319.733 196.472 319.913 194.904 319.956 193.619C320.01 191.94 319.676 190.283 319.014 188.744C318.899 188.479 318.514 188.708 318.626 188.969C319.287 190.505 319.589 192.18 319.5 193.852C319.453 194.714 319.348 195.67 318.852 196.407C318.356 197.145 317.586 197.352 316.73 197.342C315.935 197.331 315.151 197.177 314.543 196.636C314 196.153 313.647 195.477 313.428 194.793C312.907 193.175 312.996 191.435 313.072 189.76C313.086 189.474 312.637 189.474 312.622 189.76H312.619Z" fill="#112050"/>
<path d="M317.409 171.009C317.341 173.328 317.974 175.827 319.564 177.448C319.575 177.43 319.582 177.419 319.582 177.419L318.506 164.322C318.075 166.549 317.478 168.75 317.413 171.012L317.409 171.009Z" fill="black"/>
<path d="M314.181 147.338C314.293 148.358 315.084 149.149 315.739 149.94C316.487 150.846 317.091 151.841 317.566 152.897L314.055 110.19C312.681 118.914 311.811 127.859 314.57 136.17C315.382 138.615 316.505 141.264 315.552 143.658C315.062 144.893 314.034 146.014 314.178 147.334L314.181 147.338Z" fill="black"/>
<path style="mix-blend-mode:multiply" d="M296.021 188L333.291 208.983L319.907 218.905L274.986 193.158L296.021 188Z" fill="url(#paint0_linear_30_3863)"/>
<path style="mix-blend-mode:multiply" d="M320.403 190.236L376 224.434L362.616 234.357L317.691 208.61L320.403 190.236Z" fill="url(#paint1_linear_30_3863)"/>
<path d="M166.217 284.473C166.217 285.615 165.285 286.542 164.138 286.542C162.99 286.542 162.059 285.615 162.059 284.473C162.059 283.331 162.99 282.404 164.138 282.404C165.285 282.404 166.217 283.331 166.217 284.473Z" fill="#3DC2B5"/>
<path d="M233.262 210.646C233.262 211.52 232.55 212.228 231.672 212.228C230.794 212.228 230.082 211.52 230.082 210.646C230.082 209.773 230.794 209.064 231.672 209.064C232.55 209.064 233.262 209.773 233.262 210.646Z" fill="#3DC2B5"/>
<path d="M321.137 262.268C322.452 262.268 323.518 261.207 323.518 259.898C323.518 258.589 322.452 257.528 321.137 257.528C319.822 257.528 318.756 258.589 318.756 259.898C318.756 261.207 319.822 262.268 321.137 262.268Z" fill="#3DC2B5"/>
<path d="M183.778 229.872C183.778 231.182 182.71 232.241 181.397 232.241C180.084 232.241 179.016 231.182 179.016 229.872C179.016 228.561 180.084 227.502 181.397 227.502C182.71 227.502 183.778 228.565 183.778 229.872Z" fill="#3DC2B5"/>
<path d="M248.456 277.945C248.456 278.772 247.783 279.442 246.952 279.442C246.121 279.442 245.445 278.772 245.445 277.945C245.445 277.119 246.118 276.449 246.952 276.449C247.787 276.449 248.456 277.119 248.456 277.945Z" fill="#3DC2B5"/>
<path d="M253.722 283.674C253.722 284.573 252.988 285.303 252.081 285.303C251.175 285.303 250.441 284.573 250.441 283.674C250.441 282.776 251.175 282.042 252.081 282.042C252.988 282.042 253.722 282.772 253.722 283.674Z" fill="#3DC2B5"/>
<path d="M208.853 166.105C208.853 167.007 208.119 167.737 207.213 167.737C206.306 167.737 205.576 167.007 205.576 166.105C205.576 165.203 206.31 164.473 207.213 164.473C208.116 164.473 208.853 165.203 208.853 166.105Z" fill="#3DC2B5"/>
<path d="M212.948 270.331C212.948 271.326 212.135 272.135 211.135 272.135C210.135 272.135 209.322 271.326 209.322 270.331C209.322 269.336 210.135 268.527 211.135 268.527C212.135 268.527 212.948 269.336 212.948 270.331Z" fill="#3DC2B5"/>
<path d="M301.456 227.505C301.456 228.5 300.643 229.309 299.643 229.309C298.643 229.309 297.83 228.5 297.83 227.505C297.83 226.51 298.643 225.701 299.643 225.701C300.643 225.701 301.456 226.51 301.456 227.505Z" fill="#3DC2B5"/>
<path d="M166.478 197.467C166.478 198.294 165.805 198.963 164.974 198.963C164.143 198.963 163.471 198.294 163.471 197.467C163.471 196.64 164.143 195.971 164.974 195.971C165.805 195.971 166.478 196.64 166.478 197.467Z" fill="#3DC2B5"/>
<path d="M201.654 285.665C201.654 287.026 200.546 288.132 199.176 288.132C197.805 288.132 196.697 287.029 196.697 285.665C196.697 284.302 197.809 283.199 199.176 283.199C200.542 283.199 201.654 284.302 201.654 285.665Z" fill="#3DC2B5"/>
<path d="M184.421 131.345L0 227.217V237.307L184.871 343.528L369.516 237.436V227.052L184.421 131.345Z" fill="#B1C4E4"/>
<path d="M184.42 120.96L0.264803 226.769C0.146107 226.837 0.146107 227.008 0.264803 227.076L184.87 333.143L369.248 227.205C369.367 227.137 369.367 226.966 369.248 226.898L184.42 120.96Z" fill="#E3EDFE"/>
<path style="mix-blend-mode:multiply" d="M259.458 193.179C215.213 167.758 142.812 167.758 98.5704 193.179C54.3255 218.601 54.3255 260.197 98.5704 285.619C142.812 311.036 215.213 311.036 259.458 285.619C303.699 260.197 303.699 218.601 259.458 193.179Z" fill="url(#paint2_radial_30_3863)"/>
<path d="M90.9082 206.362H100.771C104.817 201.87 110.101 197.653 116.637 193.902C150.943 174.19 207.079 174.19 241.39 193.902C247.925 197.657 253.209 201.87 257.255 206.362H267.118V229.554H267.111C267.194 242.604 258.622 255.673 241.39 265.577C207.083 285.286 150.947 285.286 116.637 265.577C99.4004 255.673 90.8327 242.604 90.9154 229.554H90.9082V206.362Z" fill="url(#paint3_linear_30_3863)"/>
<path d="M241.386 170.521C207.079 150.809 150.943 150.809 116.632 170.521C82.3256 190.233 82.3256 222.488 116.632 242.196C150.939 261.908 207.079 261.908 241.386 242.196C275.692 222.484 275.692 190.23 241.386 170.521Z" fill="white"/>
<path d="M90.9265 206.828C90.9229 206.516 90.9229 206.208 90.9265 205.893V186.697H97.7677C102.052 180.809 108.328 175.296 116.637 170.521C140.876 156.597 124.6 209.773 116.637 242.196V265.563C99.8359 255.909 91.2862 243.249 90.9373 230.524L90.9265 206.824V206.828Z" fill="#112050"/>
<path d="M116.636 150.859C82.3296 170.571 82.3296 202.826 116.636 222.534L179.013 193.251L116.636 150.859Z" fill="#414D73"/>
<path d="M179.015 193.251V212.913L116.639 242.2V222.534L179.015 193.251Z" fill="#112050"/>
<path style="mix-blend-mode:multiply" d="M238.924 114.561C205.973 95.6294 152.053 95.6294 119.102 114.561C86.151 133.493 86.151 164.473 119.102 183.405C152.053 202.336 205.973 202.336 238.924 183.405C271.875 164.473 271.875 133.493 238.924 114.561Z" fill="url(#paint4_radial_30_3863)"/>
<path d="M116.639 91.0067C150.945 71.2946 207.085 71.2946 241.392 91.0067L179.019 133.398L116.642 91.0067H116.639Z" fill="#64CEC3"/>
<path d="M241.389 91.0066V130.334L179.016 172.726V133.398L241.389 91.0066Z" fill="#3DC2B5"/>
<path d="M179.015 133.398L116.639 91.0066V130.334L179.015 172.726V133.398Z" fill="#319B90"/>
<defs>
<linearGradient id="paint0_linear_30_3863" x1="284.234" y1="188.426" x2="322.705" y2="213.104" gradientUnits="userSpaceOnUse">
<stop stop-color="#CDDEFF"/>
<stop offset="0.18" stop-color="#DEE9FF"/>
<stop offset="0.43" stop-color="#F0F5FF"/>
<stop offset="0.7" stop-color="#FBFCFF"/>
<stop offset="1" stop-color="white"/>
</linearGradient>
<linearGradient id="paint1_linear_30_3863" x1="321.08" y1="200.155" x2="364.651" y2="228.102" gradientUnits="userSpaceOnUse">
<stop stop-color="#CDDEFF"/>
<stop offset="0.18" stop-color="#DEE9FF"/>
<stop offset="0.43" stop-color="#F0F5FF"/>
<stop offset="0.7" stop-color="#FBFCFF"/>
<stop offset="1" stop-color="white"/>
</linearGradient>
<radialGradient id="paint2_radial_30_3863" cx="0" cy="0" r="1" gradientUnits="userSpaceOnUse" gradientTransform="translate(179.014 247.672) rotate(180) scale(114.866 59.4411)">
<stop offset="0.09" stop-color="#2647C8"/>
<stop offset="0.22" stop-color="#4F6AD2"/>
<stop offset="0.42" stop-color="#8D9EE2"/>
<stop offset="0.61" stop-color="#BEC8EE"/>
<stop offset="0.78" stop-color="#E1E6F7"/>
<stop offset="0.91" stop-color="#F7F8FD"/>
<stop offset="1" stop-color="white"/>
</radialGradient>
<linearGradient id="paint3_linear_30_3863" x1="90.9046" y1="229.736" x2="267.114" y2="229.736" gradientUnits="userSpaceOnUse">
<stop stop-color="#C5D2F4"/>
<stop offset="0.24" stop-color="#CCD7F5"/>
<stop offset="0.59" stop-color="#DFE6F9"/>
<stop offset="1" stop-color="white"/>
</linearGradient>
<radialGradient id="paint4_radial_30_3863" cx="0" cy="0" r="1" gradientUnits="userSpaceOnUse" gradientTransform="translate(179.015 156.764) rotate(180) scale(85.544 44.2677)">
<stop offset="0.09" stop-color="#2DD2CC"/>
<stop offset="0.2" stop-color="#4FD9D4"/>
<stop offset="0.41" stop-color="#8DE6E3"/>
<stop offset="0.6" stop-color="#BEF1EF"/>
<stop offset="0.77" stop-color="#E1F8F7"/>
<stop offset="0.91" stop-color="#F7FDFD"/>
<stop offset="1" stop-color="white"/>
</radialGradient>
</defs>
</svg>
