<svg width="475" height="472" viewBox="0 0 475 472" fill="none" xmlns="http://www.w3.org/2000/svg">
<path d="M383.362 89.3281L466.637 137.571C473.779 141.707 473.79 152.044 466.658 156.198L283.856 262.672" stroke="#112050" stroke-width="4.60123" stroke-miterlimit="10"/>
<path style="mix-blend-mode:multiply" d="M298.372 262.41C314.233 271.598 340.184 271.598 356.041 262.41C371.902 253.223 371.902 238.191 356.041 229.004C340.18 219.816 314.229 219.816 298.372 229.004C282.512 238.191 282.512 253.226 298.372 262.41Z" fill="url(#paint0_radial_30_4953)"/>
<path d="M148.864 237.399C148.864 238.549 147.934 239.482 146.789 239.482C145.643 239.482 144.713 238.549 144.713 237.399C144.713 236.25 145.643 235.316 146.789 235.316C147.934 235.316 148.864 236.25 148.864 237.399Z" fill="#3DC2B5"/>
<path opacity="0.3" d="M337.893 30.0127L240.104 86.6614C240.039 86.6974 240.039 86.7875 240.104 86.8271L338.13 143.613L436.038 86.8956C436.103 86.8595 436.103 86.7695 436.038 86.7298L337.893 30.0127Z" fill="#B1C4E4"/>
<path d="M337.895 5.55859L239.962 56.8858V62.2901L338.132 119.155L436.18 62.3586V56.7957L337.895 5.55859Z" fill="#B1C4E4"/>
<path d="M337.893 0L240.104 56.6487C240.039 56.6847 240.039 56.7748 240.104 56.8144L338.13 113.6L436.038 56.8829C436.103 56.8468 436.103 56.7568 436.038 56.7171L337.893 0Z" fill="#E3EDFE"/>
<path d="M266.971 55.2186C267.904 55.7592 269.43 55.7592 270.364 55.2186C271.298 54.6781 271.298 53.7916 270.364 53.2511C269.43 52.7106 267.904 52.7106 266.971 53.2511C266.037 53.7916 266.037 54.6781 266.971 55.2186Z" fill="#B3CDFA"/>
<path d="M278.018 48.7255C278.952 49.266 280.478 49.266 281.411 48.7255C282.345 48.1849 282.345 47.2985 281.411 46.7579C280.478 46.2174 278.952 46.2174 278.018 46.7579C277.084 47.2985 277.084 48.1849 278.018 48.7255Z" fill="#B3CDFA"/>
<path d="M289.163 42.2294C290.096 42.7699 291.623 42.7699 292.556 42.2294C293.49 41.6888 293.49 40.8024 292.556 40.2618C291.623 39.7213 290.096 39.7213 289.163 40.2618C288.229 40.8024 288.229 41.6888 289.163 42.2294Z" fill="#B3CDFA"/>
<path d="M281.384 63.4286C282.318 63.9691 283.844 63.9691 284.778 63.4286C285.711 62.8881 285.711 62.0016 284.778 61.4611C283.844 60.9205 282.318 60.9205 281.384 61.4611C280.451 62.0016 280.451 62.8881 281.384 63.4286Z" fill="#B3CDFA"/>
<path d="M292.43 56.9374C293.364 57.4779 294.89 57.4779 295.823 56.9374C296.757 56.3968 296.757 55.5104 295.823 54.9698C294.89 54.4293 293.364 54.4293 292.43 54.9698C291.496 55.5104 291.496 56.3968 292.43 56.9374Z" fill="#B3CDFA"/>
<path d="M303.573 50.4452C304.506 50.9857 306.032 50.9857 306.966 50.4452C307.9 49.9047 307.9 49.0182 306.966 48.4777C306.032 47.9371 304.506 47.9371 303.573 48.4777C302.639 49.0182 302.639 49.9047 303.573 50.4452Z" fill="#B3CDFA"/>
<path d="M314.817 43.952C315.751 44.4925 317.277 44.4925 318.21 43.952C319.144 43.4115 319.144 42.525 318.21 41.9845C317.277 41.444 315.751 41.444 314.817 41.9845C313.883 42.525 313.883 43.4115 314.817 43.952Z" fill="#B3CDFA"/>
<path d="M325.874 37.5467C326.808 38.0873 328.334 38.0873 329.268 37.5467C330.201 37.0062 330.201 36.1198 329.268 35.5792C328.334 35.0387 326.808 35.0387 325.874 35.5792C324.941 36.1198 324.941 37.0062 325.874 37.5467Z" fill="#B3CDFA"/>
<path d="M295.794 71.6434C296.728 72.184 298.254 72.184 299.188 71.6434C300.121 71.1029 300.121 70.2164 299.188 69.6759C298.254 69.1354 296.728 69.1354 295.794 69.6759C294.861 70.2164 294.861 71.1029 295.794 71.6434Z" fill="#B3CDFA"/>
<path d="M306.84 65.1512C307.774 65.6918 309.3 65.6918 310.233 65.1512C311.167 64.6107 311.167 63.7242 310.233 63.1837C309.3 62.6432 307.774 62.6432 306.84 63.1837C305.906 63.7242 305.906 64.6107 306.84 65.1512Z" fill="#B3CDFA"/>
<path d="M317.987 58.6591C318.92 59.1996 320.446 59.1996 321.38 58.6591C322.314 58.1185 322.314 57.2321 321.38 56.6915C320.446 56.151 318.92 56.151 317.987 56.6915C317.053 57.2321 317.053 58.1185 317.987 58.6591Z" fill="#B3CDFA"/>
<path d="M329.229 52.1659C330.163 52.7064 331.689 52.7064 332.622 52.1659C333.556 51.6254 333.556 50.7389 332.622 50.1984C331.689 49.6578 330.163 49.6578 329.229 50.1984C328.295 50.7389 328.295 51.6254 329.229 52.1659Z" fill="#B3CDFA"/>
<path d="M340.286 45.7596C341.22 46.3002 342.746 46.3002 343.679 45.7596C344.613 45.2191 344.613 44.3326 343.679 43.7921C342.746 43.2516 341.22 43.2516 340.286 43.7921C339.353 44.3326 339.353 45.2191 340.286 45.7596Z" fill="#B3CDFA"/>
<path d="M351.371 39.2968C352.304 39.8373 353.83 39.8373 354.764 39.2968C355.698 38.7562 355.698 37.8698 354.764 37.3292C353.83 36.7887 352.304 36.7887 351.371 37.3292C350.437 37.8698 350.437 38.7562 351.371 39.2968Z" fill="#B3CDFA"/>
<path d="M310.208 79.8592C311.142 80.3998 312.668 80.3998 313.602 79.8592C314.535 79.3187 314.535 78.4323 313.602 77.8917C312.668 77.3512 311.142 77.3512 310.208 77.8917C309.275 78.4323 309.275 79.3187 310.208 79.8592Z" fill="#B3CDFA"/>
<path d="M321.254 73.3661C322.187 73.9066 323.714 73.9066 324.647 73.3661C325.581 72.8256 325.581 71.9391 324.647 71.3986C323.714 70.858 322.187 70.858 321.254 71.3986C320.32 71.9391 320.32 72.8256 321.254 73.3661Z" fill="#B3CDFA"/>
<path d="M332.401 66.8739C333.334 67.4144 334.86 67.4144 335.794 66.8739C336.728 66.3334 336.728 65.4469 335.794 64.9064C334.86 64.3658 333.334 64.3658 332.401 64.9064C331.467 65.4469 331.467 66.3334 332.401 66.8739Z" fill="#B3CDFA"/>
<path d="M343.639 60.3817C344.573 60.9222 346.099 60.9222 347.032 60.3817C347.966 59.8412 347.966 58.9547 347.032 58.4142C346.099 57.8737 344.573 57.8737 343.639 58.4142C342.705 58.9547 342.705 59.8412 343.639 60.3817Z" fill="#B3CDFA"/>
<path d="M354.698 53.9745C355.632 54.515 357.158 54.515 358.091 53.9745C359.025 53.434 359.025 52.5475 358.091 52.007C357.158 51.4664 355.632 51.4664 354.698 52.007C353.764 52.5475 353.764 53.434 354.698 53.9745Z" fill="#B3CDFA"/>
<path d="M365.781 47.5116C366.714 48.0521 368.24 48.0521 369.174 47.5116C370.107 46.9711 370.107 46.0846 369.174 45.5441C368.24 45.0035 366.714 45.0035 365.781 45.5441C364.847 46.0846 364.847 46.9711 365.781 47.5116Z" fill="#B3CDFA"/>
<path d="M377.009 41.0116C377.943 41.5521 379.469 41.5521 380.402 41.0116C381.336 40.4711 381.336 39.5846 380.402 39.0441C379.469 38.5035 377.943 38.5035 377.009 39.0441C376.075 39.5846 376.075 40.4711 377.009 41.0116Z" fill="#B3CDFA"/>
<path d="M324.618 88.0741C325.552 88.6146 327.078 88.6146 328.012 88.0741C328.945 87.5336 328.945 86.6471 328.012 86.1066C327.078 85.566 325.552 85.566 324.618 86.1066C323.685 86.6471 323.685 87.5336 324.618 88.0741Z" fill="#B3CDFA"/>
<path d="M335.668 81.5809C336.601 82.1215 338.127 82.1215 339.061 81.5809C339.995 81.0404 339.995 80.1539 339.061 79.6134C338.127 79.0729 336.601 79.0729 335.668 79.6134C334.734 80.1539 334.734 81.0404 335.668 81.5809Z" fill="#B3CDFA"/>
<path d="M346.811 75.0878C347.744 75.6283 349.27 75.6283 350.204 75.0878C351.138 74.5472 351.138 73.6608 350.204 73.1202C349.27 72.5797 347.744 72.5797 346.811 73.1202C345.877 73.6608 345.877 74.5472 346.811 75.0878Z" fill="#B3CDFA"/>
<path d="M358.053 68.5966C358.986 69.1371 360.512 69.1371 361.446 68.5966C362.38 68.056 362.38 67.1696 361.446 66.629C360.512 66.0885 358.986 66.0885 358.053 66.629C357.119 67.1696 357.119 68.056 358.053 68.5966Z" fill="#B3CDFA"/>
<path d="M369.114 62.1903C370.047 62.7308 371.573 62.7308 372.507 62.1903C373.441 61.6498 373.441 60.7633 372.507 60.2228C371.573 59.6823 370.047 59.6823 369.114 60.2228C368.18 60.7633 368.18 61.6498 369.114 62.1903Z" fill="#B3CDFA"/>
<path d="M380.194 55.7264C381.128 56.267 382.654 56.267 383.588 55.7264C384.521 55.1859 384.521 54.2994 383.588 53.7589C382.654 53.2184 381.128 53.2184 380.194 53.7589C379.261 54.2994 379.261 55.1859 380.194 55.7264Z" fill="#B3CDFA"/>
<path d="M391.419 49.2264C392.353 49.767 393.879 49.767 394.812 49.2264C395.746 48.6859 395.746 47.7994 394.812 47.2589C393.879 46.7184 392.353 46.7184 391.419 47.2589C390.485 47.7994 390.485 48.6859 391.419 49.2264Z" fill="#B3CDFA"/>
<path d="M339.032 96.2889C339.966 96.8295 341.492 96.8295 342.426 96.2889C343.359 95.7484 343.359 94.8619 342.426 94.3214C341.492 93.7809 339.966 93.7809 339.032 94.3214C338.099 94.8619 338.099 95.7484 339.032 96.2889Z" fill="#B3CDFA"/>
<path d="M350.078 89.7958C351.011 90.3363 352.537 90.3363 353.471 89.7958C354.405 89.2553 354.405 88.3688 353.471 87.8282C352.537 87.2877 351.011 87.2877 350.078 87.8282C349.144 88.3688 349.144 89.2553 350.078 89.7958Z" fill="#B3CDFA"/>
<path d="M361.225 83.3026C362.158 83.8431 363.684 83.8431 364.618 83.3026C365.551 82.7621 365.551 81.8756 364.618 81.3351C363.684 80.7946 362.158 80.7946 361.225 81.3351C360.291 81.8756 360.291 82.7621 361.225 83.3026Z" fill="#B3CDFA"/>
<path d="M372.467 76.8094C373.4 77.35 374.926 77.35 375.86 76.8094C376.794 76.2689 376.794 75.3824 375.86 74.8419C374.926 74.3014 373.4 74.3014 372.467 74.8419C371.533 75.3824 371.533 76.2689 372.467 76.8094Z" fill="#B3CDFA"/>
<path d="M383.522 70.4042C384.455 70.9447 385.982 70.9447 386.915 70.4042C387.849 69.8636 387.849 68.9772 386.915 68.4366C385.982 67.8961 384.455 67.8961 383.522 68.4366C382.588 68.9772 382.588 69.8636 383.522 70.4042Z" fill="#B3CDFA"/>
<path d="M394.608 63.9374C395.542 64.4779 397.068 64.4779 398.002 63.9374C398.935 63.3968 398.935 62.5104 398.002 61.9698C397.068 61.4293 395.542 61.4293 394.608 61.9698C393.675 62.5104 393.675 63.3968 394.608 63.9374Z" fill="#B3CDFA"/>
<path d="M405.831 57.4374C406.765 57.9779 408.291 57.9779 409.224 57.4374C410.158 56.8969 410.158 56.0104 409.224 55.4698C408.291 54.9293 406.765 54.9293 405.831 55.4698C404.897 56.0104 404.897 56.8969 405.831 57.4374Z" fill="#B3CDFA"/>
<path opacity="0.3" d="M241.357 263.952L123.966 331.957C123.89 332 123.89 332.112 123.966 332.155L241.645 400.326L359.18 332.238C359.255 332.195 359.255 332.083 359.18 332.04L241.357 263.952Z" fill="#B1C4E4"/>
<path d="M206.767 273.306L154.208 242.858C151.648 241.377 148.592 241.374 146.035 242.858C143.475 244.339 141.949 246.994 141.949 249.959V258.387L140.153 259.428V249.959C140.153 246.342 142.017 243.103 145.137 241.298C148.258 239.489 151.985 239.489 155.106 241.298L207.665 271.746L206.767 273.306Z" fill="#112050"/>
<path d="M241.357 234.599L123.796 296.216V302.701L241.644 370.969L359.348 302.784V296.111L241.357 234.599Z" fill="#B1C4E4"/>
<path d="M241.357 227.924L123.966 295.929C123.89 295.972 123.89 296.084 123.966 296.127L241.645 364.298L359.18 296.21C359.255 296.167 359.255 296.055 359.18 296.012L241.357 227.924Z" fill="#E3EDFE"/>
<path d="M336.644 292.456C336.644 292.424 336.644 292.388 336.644 292.355V281.219H326.303V284.227L245.39 237.353C243.028 235.984 240.119 235.984 237.756 237.353L156.84 284.227V281.262H146.499V292.564H146.509C146.56 293.786 147.181 294.985 148.387 295.684L237.756 347.455C240.119 348.824 243.031 348.824 245.39 347.455L334.759 295.684C335.98 294.978 336.605 293.757 336.641 292.517H336.644V292.452V292.456Z" fill="#B1C4E4"/>
<path d="M237.755 226.547L148.387 278.318C145.869 279.777 145.869 283.419 148.387 284.879L237.755 336.649C240.118 338.018 243.03 338.018 245.389 336.649L334.758 284.879C337.275 283.419 337.275 279.777 334.758 278.318L245.389 226.547C243.027 225.178 240.118 225.178 237.755 226.547Z" fill="#E3EDFE"/>
<path opacity="0.3" d="M117.563 335.626L0.171424 403.631C0.0960163 403.674 0.0960163 403.786 0.171424 403.829L117.85 472L235.386 403.912C235.461 403.869 235.461 403.757 235.386 403.714L117.563 335.626Z" fill="#B1C4E4"/>
<path d="M82.9687 344.975L30.4096 314.527C27.8494 313.046 24.7936 313.042 22.2369 314.527C19.6766 316.008 18.1505 318.663 18.1505 321.628V330.056L16.3551 331.097V321.628C16.3551 318.011 18.2187 314.772 21.3392 312.967C24.4596 311.158 28.1869 311.158 31.3074 312.967L83.8664 343.415L82.9687 344.975Z" fill="#112050"/>
<path d="M117.564 306.27L0 367.887V374.372L117.848 442.64L235.555 374.455V367.782L117.564 306.27Z" fill="#B1C4E4"/>
<path d="M117.563 299.597L0.171424 367.602C0.0960163 367.645 0.0960163 367.757 0.171424 367.8L117.85 435.971L235.386 367.883C235.461 367.84 235.461 367.728 235.386 367.685L117.563 299.597Z" fill="#E3EDFE"/>
<path d="M113.957 309.025L24.5883 360.795C22.0711 362.254 22.0711 365.897 24.5883 367.356L113.957 419.126C116.32 420.496 119.228 420.496 121.591 419.126L210.96 367.356C213.477 365.897 213.477 362.254 210.96 360.795L121.591 309.025C119.228 307.656 116.32 307.656 113.957 309.025Z" fill="#3DC2B5"/>
<path d="M210.963 363.141L121.595 414.912C119.232 416.281 116.323 416.281 113.96 414.912L24.5917 363.141C24.0675 362.839 23.6761 362.424 23.3708 361.967C22.211 363.693 22.5988 366.2 24.5917 367.353L113.96 419.123C116.323 420.493 119.232 420.493 121.595 419.123L210.963 367.353C212.956 366.2 213.344 363.693 212.184 361.967C211.879 362.421 211.488 362.835 210.963 363.141Z" fill="#319B90"/>
<path d="M25.7591 376.587C24.8937 376.587 24.1899 375.885 24.1899 375.013V373.521C24.1899 371.504 25.2744 369.619 27.0159 368.607L28.4738 367.76C29.2207 367.324 30.1831 367.58 30.6175 368.337C31.052 369.09 30.7935 370.052 30.043 370.488L28.5851 371.334C27.8095 371.785 27.3247 372.624 27.3247 373.521V375.013C27.3247 375.881 26.6245 376.587 25.7555 376.587H25.7591Z" fill="#112050"/>
<path d="M35.7884 382.225C34.923 382.225 34.2191 381.523 34.2191 380.651V379.159C34.2191 377.141 35.3036 375.257 37.0451 374.245L38.503 373.398C39.2499 372.962 40.2122 373.218 40.6467 373.974C41.0812 374.727 40.8227 375.689 40.0722 376.125L38.6143 376.972C37.8387 377.422 37.354 378.262 37.354 379.159V380.651C37.354 381.519 36.6537 382.225 35.7848 382.225H35.7884Z" fill="#112050"/>
<path d="M45.5273 387.864C44.6619 387.864 43.9581 387.161 43.9581 386.289V384.798C43.9581 382.78 45.0426 380.896 46.7841 379.883L48.242 379.037C48.9889 378.601 49.9512 378.857 50.3857 379.613C50.8202 380.366 50.5617 381.328 49.8112 381.764L48.3533 382.611C47.5777 383.061 47.0929 383.901 47.0929 384.798V386.289C47.0929 387.158 46.3927 387.864 45.5237 387.864H45.5273Z" fill="#112050"/>
<path d="M55.0679 393.504C54.2025 393.504 53.4987 392.802 53.4987 391.93V390.438C53.4987 388.421 54.5831 386.536 56.3246 385.524L57.7861 384.677C58.533 384.241 59.4954 384.497 59.9299 385.254C60.3643 386.007 60.1058 386.969 59.3553 387.405L57.8974 388.251C57.1218 388.702 56.637 389.541 56.637 390.438V391.93C56.637 392.798 55.9368 393.504 55.0679 393.504Z" fill="#112050"/>
<path d="M64.9996 399.142C64.1342 399.142 63.4304 398.44 63.4304 397.568V396.076C63.4304 394.058 64.5149 392.174 66.2564 391.162L67.7143 390.315C68.4612 389.879 69.4235 390.135 69.858 390.891C70.2925 391.644 70.0339 392.606 69.2835 393.042L67.8256 393.889C67.05 394.339 66.5652 395.179 66.5652 396.076V397.568C66.5652 398.436 65.865 399.142 64.996 399.142H64.9996Z" fill="#112050"/>
<path d="M74.9315 404.781C74.0661 404.781 73.3623 404.078 73.3623 403.206V401.715C73.3623 399.697 74.4467 397.813 76.1883 396.8L77.6462 395.954C78.3931 395.518 79.3554 395.774 79.7899 396.53C80.2244 397.283 79.9659 398.245 79.2154 398.681L77.7575 399.528C76.9819 399.978 76.4971 400.818 76.4971 401.715V403.206C76.4971 404.075 75.7969 404.781 74.9279 404.781H74.9315Z" fill="#112050"/>
<path d="M84.8652 410.423C83.9998 410.423 83.296 409.721 83.296 408.849V407.357C83.296 405.34 84.3805 403.455 86.122 402.443L87.5835 401.596C88.3304 401.16 89.2927 401.416 89.7272 402.173C90.1617 402.926 89.9032 403.888 89.1527 404.324L87.6948 405.17C86.9192 405.621 86.4344 406.46 86.4344 407.357V408.849C86.4344 409.717 85.7342 410.423 84.8652 410.423Z" fill="#112050"/>
<path d="M94.797 416.061C93.9316 416.061 93.2278 415.359 93.2278 414.487V412.995C93.2278 410.977 94.3122 409.093 96.0538 408.081L97.5116 407.234C98.2585 406.798 99.2209 407.054 99.6554 407.81C100.09 408.563 99.8313 409.525 99.0808 409.961L97.623 410.808C96.8473 411.258 96.3626 412.098 96.3626 412.995V414.487C96.3626 415.355 95.6624 416.061 94.7934 416.061H94.797Z" fill="#112050"/>
<path d="M104.733 421.7C103.867 421.7 103.164 420.997 103.164 420.125V418.634C103.164 416.616 104.248 414.732 105.99 413.719L107.447 412.873C108.194 412.437 109.157 412.692 109.591 413.449C110.026 414.202 109.767 415.164 109.017 415.6L107.559 416.447C106.783 416.897 106.298 417.737 106.298 418.634V420.125C106.298 420.994 105.598 421.7 104.729 421.7H104.733Z" fill="#112050"/>
<path d="M211.118 376.587C211.983 376.587 212.687 375.885 212.687 375.013V373.521C212.687 371.504 211.603 369.619 209.861 368.607L208.403 367.76C207.656 367.324 206.694 367.58 206.26 368.337C205.825 369.09 206.084 370.052 206.834 370.488L208.292 371.334C209.068 371.785 209.552 372.624 209.552 373.521V375.013C209.552 375.881 210.253 376.587 211.122 376.587H211.118Z" fill="#112050"/>
<path d="M201.087 382.225C201.952 382.225 202.656 381.523 202.656 380.651V379.159C202.656 377.141 201.571 375.257 199.83 374.245L198.368 373.398C197.621 372.962 196.659 373.218 196.225 373.974C195.79 374.727 196.049 375.689 196.799 376.125L198.257 376.972C199.033 377.422 199.517 378.262 199.517 379.159V380.651C199.517 381.519 200.218 382.225 201.087 382.225Z" fill="#112050"/>
<path d="M191.352 387.864C192.217 387.864 192.921 387.161 192.921 386.289V384.798C192.921 382.78 191.836 380.896 190.095 379.883L188.637 379.037C187.89 378.601 186.928 378.857 186.493 379.613C186.059 380.366 186.317 381.328 187.068 381.764L188.526 382.611C189.301 383.061 189.786 383.901 189.786 384.798V386.289C189.786 387.158 190.486 387.864 191.355 387.864H191.352Z" fill="#112050"/>
<path d="M181.811 393.504C182.677 393.504 183.38 392.802 183.38 391.93V390.438C183.38 388.421 182.296 386.536 180.554 385.524L179.097 384.677C178.35 384.241 177.387 384.497 176.953 385.254C176.518 386.007 176.777 386.969 177.527 387.405L178.985 388.251C179.761 388.702 180.246 389.541 180.246 390.438V391.93C180.246 392.798 180.946 393.504 181.815 393.504H181.811Z" fill="#112050"/>
<path d="M171.875 399.142C172.741 399.142 173.444 398.44 173.444 397.568V396.076C173.444 394.058 172.36 392.174 170.618 391.162L169.157 390.315C168.41 389.879 167.448 390.135 167.013 390.891C166.579 391.644 166.837 392.606 167.588 393.042L169.046 393.889C169.821 394.339 170.306 395.179 170.306 396.076V397.568C170.306 398.436 171.006 399.142 171.875 399.142Z" fill="#112050"/>
<path d="M161.942 404.781C162.807 404.781 163.511 404.078 163.511 403.206V401.715C163.511 399.697 162.427 397.813 160.685 396.8L159.227 395.954C158.48 395.518 157.518 395.774 157.083 396.53C156.649 397.283 156.907 398.245 157.658 398.681L159.116 399.528C159.891 399.978 160.376 400.818 160.376 401.715V403.206C160.376 404.075 161.076 404.781 161.945 404.781H161.942Z" fill="#112050"/>
<path d="M152.01 410.423C152.875 410.423 153.579 409.721 153.579 408.849V407.357C153.579 405.34 152.495 403.455 150.753 402.443L149.295 401.596C148.548 401.16 147.586 401.416 147.152 402.173C146.717 402.926 146.976 403.888 147.726 404.324L149.184 405.17C149.96 405.621 150.444 406.46 150.444 407.357V408.849C150.444 409.717 151.145 410.423 152.014 410.423H152.01Z" fill="#112050"/>
<path d="M142.078 416.061C142.943 416.061 143.647 415.359 143.647 414.487V412.995C143.647 410.977 142.563 409.093 140.821 408.081L139.36 407.234C138.613 406.798 137.65 407.054 137.216 407.81C136.781 408.563 137.04 409.525 137.79 409.961L139.248 410.808C140.024 411.258 140.509 412.098 140.509 412.995V414.487C140.509 415.355 141.209 416.061 142.078 416.061Z" fill="#112050"/>
<path d="M132.144 421.7C133.01 421.7 133.714 420.997 133.714 420.125V418.634C133.714 416.616 132.629 414.732 130.888 413.719L129.43 412.873C128.683 412.437 127.721 412.692 127.286 413.449C126.852 414.202 127.11 415.164 127.861 415.6L129.318 416.447C130.094 416.897 130.579 417.737 130.579 418.634V420.125C130.579 420.994 131.279 421.7 132.148 421.7H132.144Z" fill="#112050"/>
<path d="M47.7928 359.366C48.7157 359.9 50.2274 359.9 51.1503 359.366C52.0731 358.833 52.0731 357.957 51.1503 357.42C50.2274 356.887 48.7157 356.887 47.7928 357.42C46.87 357.954 46.87 358.829 47.7928 359.366Z" fill="white"/>
<path d="M58.7157 352.945C59.6385 353.479 61.1503 353.479 62.0731 352.945C62.996 352.412 62.996 351.537 62.0731 351C61.1503 350.466 59.6385 350.466 58.7157 351C57.7928 351.533 57.7928 352.409 58.7157 352.945Z" fill="white"/>
<path d="M69.7358 346.526C70.6587 347.059 72.1704 347.059 73.0933 346.526C74.0161 345.992 74.0161 345.117 73.0933 344.58C72.1704 344.046 70.6587 344.046 69.7358 344.58C68.813 345.113 68.813 345.989 69.7358 346.526Z" fill="white"/>
<path d="M80.8573 340.106C81.7801 340.639 83.2919 340.639 84.2148 340.106C85.1376 339.572 85.1376 338.697 84.2148 338.16C83.2919 337.626 81.7801 337.626 80.8573 338.16C79.9344 338.693 79.9344 339.569 80.8573 340.106Z" fill="white"/>
<path d="M91.7919 333.768C92.7147 334.301 94.2264 334.301 95.1493 333.768C96.0721 333.234 96.0721 332.359 95.1493 331.822C94.2264 331.289 92.7147 331.289 91.7919 331.822C90.869 332.355 90.869 333.231 91.7919 333.768Z" fill="white"/>
<path d="M102.756 327.375C103.678 327.909 105.19 327.909 106.113 327.375C107.036 326.842 107.036 325.966 106.113 325.429C105.19 324.896 103.678 324.896 102.756 325.429C101.833 325.963 101.833 326.838 102.756 327.375Z" fill="white"/>
<path d="M113.854 320.948C114.776 321.482 116.288 321.482 117.211 320.948C118.134 320.415 118.134 319.539 117.211 319.003C116.288 318.469 114.776 318.469 113.854 319.003C112.931 319.536 112.931 320.412 113.854 320.948Z" fill="white"/>
<path d="M62.045 367.491C62.9679 368.025 64.4796 368.025 65.4025 367.491C66.3253 366.958 66.3253 366.082 65.4025 365.545C64.4796 365.012 62.9679 365.012 62.045 365.545C61.1222 366.079 61.1222 366.954 62.045 367.491Z" fill="white"/>
<path d="M72.9679 361.071C73.8907 361.604 75.4025 361.604 76.3253 361.071C77.2482 360.537 77.2482 359.662 76.3253 359.125C75.4025 358.591 73.8907 358.591 72.9679 359.125C72.045 359.658 72.045 360.534 72.9679 361.071Z" fill="white"/>
<path d="M83.9921 354.651C84.9149 355.184 86.4266 355.184 87.3495 354.651C88.2723 354.117 88.2723 353.242 87.3495 352.705C86.4266 352.171 84.9149 352.171 83.9921 352.705C83.0692 353.238 83.0692 354.114 83.9921 354.651Z" fill="white"/>
<path d="M95.1096 348.229C96.0325 348.762 97.5442 348.762 98.467 348.229C99.3899 347.695 99.3899 346.82 98.467 346.283C97.5442 345.749 96.0325 345.749 95.1096 346.283C94.1868 346.816 94.1868 347.692 95.1096 348.229Z" fill="white"/>
<path d="M106.046 341.892C106.969 342.426 108.481 342.426 109.403 341.892C110.326 341.359 110.326 340.483 109.403 339.946C108.481 339.409 106.969 339.413 106.046 339.946C105.123 340.48 105.123 341.355 106.046 341.892Z" fill="white"/>
<path d="M117.006 335.5C117.929 336.034 119.441 336.034 120.363 335.5C121.286 334.967 121.286 334.091 120.363 333.554C119.441 333.021 117.929 333.021 117.006 333.554C116.083 334.088 116.083 334.963 117.006 335.5Z" fill="white"/>
<path d="M128.11 329.072C129.033 329.606 130.544 329.606 131.467 329.072C132.39 328.539 132.39 327.663 131.467 327.127C130.544 326.593 129.033 326.593 128.11 327.127C127.187 327.66 127.187 328.535 128.11 329.072Z" fill="white"/>
<path d="M76.3013 375.615C77.2241 376.149 78.7358 376.149 79.6587 375.615C80.5815 375.082 80.5815 374.206 79.6587 373.67C78.7358 373.136 77.2241 373.136 76.3013 373.67C75.3784 374.203 75.3784 375.079 76.3013 375.615Z" fill="white"/>
<path d="M87.2241 369.196C88.147 369.729 89.6587 369.729 90.5815 369.196C91.5044 368.662 91.5044 367.787 90.5815 367.25C89.6587 366.716 88.147 366.716 87.2241 367.25C86.3013 367.783 86.3013 368.659 87.2241 369.196Z" fill="white"/>
<path d="M98.2443 362.775C99.1671 363.308 100.679 363.308 101.602 362.775C102.525 362.241 102.525 361.366 101.602 360.829C100.679 360.295 99.1671 360.295 98.2443 360.829C97.3214 361.362 97.3214 362.238 98.2443 362.775Z" fill="white"/>
<path d="M109.362 356.351C110.285 356.884 111.796 356.884 112.719 356.351C113.642 355.817 113.642 354.942 112.719 354.405C111.796 353.872 110.285 353.872 109.362 354.405C108.439 354.938 108.439 355.814 109.362 356.351Z" fill="white"/>
<path d="M120.3 350.017C121.223 350.55 122.735 350.55 123.658 350.017C124.581 349.483 124.581 348.608 123.658 348.071C122.735 347.538 121.223 347.538 120.3 348.071C119.377 348.604 119.377 349.48 120.3 350.017Z" fill="white"/>
<path d="M131.258 343.625C132.181 344.158 133.693 344.158 134.616 343.625C135.538 343.092 135.538 342.216 134.616 341.679C133.693 341.146 132.181 341.146 131.258 341.679C130.335 342.213 130.335 343.088 131.258 343.625Z" fill="white"/>
<path d="M142.362 337.194C143.285 337.727 144.797 337.727 145.72 337.194C146.642 336.66 146.642 335.785 145.72 335.248C144.797 334.714 143.285 334.714 142.362 335.248C141.439 335.781 141.439 336.657 142.362 337.194Z" fill="white"/>
<path d="M90.5536 383.739C91.4764 384.273 92.9882 384.273 93.9111 383.739C94.8339 383.206 94.8339 382.33 93.9111 381.794C92.9882 381.26 91.4764 381.26 90.5536 381.794C89.6307 382.327 89.6307 383.203 90.5536 383.739Z" fill="white"/>
<path d="M101.476 377.316C102.399 377.849 103.911 377.849 104.834 377.316C105.757 376.782 105.757 375.907 104.834 375.37C103.911 374.836 102.399 374.836 101.476 375.37C100.554 375.903 100.554 376.779 101.476 377.316Z" fill="white"/>
<path d="M112.497 370.896C113.419 371.429 114.931 371.429 115.854 370.896C116.777 370.362 116.777 369.487 115.854 368.95C114.931 368.416 113.419 368.416 112.497 368.95C111.574 369.483 111.574 370.359 112.497 370.896Z" fill="white"/>
<path d="M123.618 364.475C124.541 365.008 126.053 365.008 126.975 364.475C127.898 363.941 127.898 363.066 126.975 362.529C126.053 361.996 124.541 361.996 123.618 362.529C122.695 363.062 122.695 363.938 123.618 364.475Z" fill="white"/>
<path d="M134.551 358.141C135.473 358.674 136.985 358.674 137.908 358.141C138.831 357.608 138.831 356.732 137.908 356.195C136.985 355.662 135.473 355.662 134.551 356.195C133.628 356.728 133.628 357.604 134.551 358.141Z" fill="white"/>
<path d="M145.512 351.746C146.435 352.28 147.947 352.28 148.87 351.746C149.793 351.213 149.793 350.337 148.87 349.8C147.947 349.267 146.435 349.267 145.512 349.8C144.59 350.334 144.59 351.209 145.512 351.746Z" fill="white"/>
<path d="M156.616 345.319C157.539 345.852 159.051 345.852 159.974 345.319C160.897 344.785 160.897 343.91 159.974 343.373C159.051 342.839 157.539 342.839 156.616 343.373C155.693 343.906 155.693 344.782 156.616 345.319Z" fill="white"/>
<path d="M104.804 391.862C105.727 392.395 107.238 392.395 108.161 391.862C109.084 391.328 109.084 390.453 108.161 389.916C107.238 389.382 105.727 389.382 104.804 389.916C103.881 390.449 103.881 391.325 104.804 391.862Z" fill="white"/>
<path d="M115.731 385.442C116.653 385.975 118.165 385.975 119.088 385.442C120.011 384.908 120.011 384.033 119.088 383.496C118.165 382.962 116.653 382.962 115.731 383.496C114.808 384.029 114.808 384.905 115.731 385.442Z" fill="white"/>
<path d="M126.751 379.02C127.674 379.553 129.185 379.553 130.108 379.02C131.031 378.486 131.031 377.611 130.108 377.074C129.185 376.54 127.674 376.54 126.751 377.074C125.828 377.607 125.828 378.483 126.751 379.02Z" fill="white"/>
<path d="M137.87 372.6C138.793 373.133 140.305 373.133 141.228 372.6C142.151 372.066 142.151 371.191 141.228 370.654C140.305 370.121 138.793 370.121 137.87 370.654C136.948 371.187 136.948 372.063 137.87 372.6Z" fill="white"/>
<path d="M148.807 366.262C149.73 366.795 151.241 366.795 152.164 366.262C153.087 365.729 153.087 364.853 152.164 364.316C151.241 363.783 149.73 363.783 148.807 364.316C147.884 364.849 147.884 365.725 148.807 366.262Z" fill="white"/>
<path d="M159.767 359.87C160.689 360.404 162.201 360.404 163.124 359.87C164.047 359.337 164.047 358.461 163.124 357.924C162.201 357.391 160.689 357.391 159.767 357.924C158.844 358.458 158.844 359.333 159.767 359.87Z" fill="white"/>
<path d="M170.869 353.444C171.791 353.977 173.303 353.977 174.226 353.444C175.149 352.91 175.149 352.035 174.226 351.498C173.303 350.964 171.791 350.964 170.869 351.498C169.946 352.031 169.946 352.907 170.869 353.444Z" fill="white"/>
<path d="M119.06 399.986C119.983 400.519 121.495 400.519 122.418 399.986C123.34 399.452 123.34 398.577 122.418 398.04C121.495 397.506 119.983 397.506 119.06 398.04C118.137 398.573 118.137 399.449 119.06 399.986Z" fill="white"/>
<path d="M129.985 393.565C130.908 394.098 132.419 394.098 133.342 393.565C134.265 393.031 134.265 392.156 133.342 391.619C132.419 391.085 130.908 391.085 129.985 391.619C129.062 392.152 129.062 393.028 129.985 393.565Z" fill="white"/>
<path d="M141.003 387.144C141.926 387.677 143.438 387.677 144.361 387.144C145.283 386.61 145.283 385.735 144.361 385.198C143.438 384.665 141.926 384.665 141.003 385.198C140.08 385.731 140.08 386.607 141.003 387.144Z" fill="white"/>
<path d="M152.121 380.725C153.043 381.258 154.555 381.258 155.478 380.725C156.401 380.191 156.401 379.316 155.478 378.779C154.555 378.246 153.043 378.246 152.121 378.779C151.198 379.312 151.198 380.188 152.121 380.725Z" fill="white"/>
<path d="M163.059 374.388C163.982 374.921 165.494 374.921 166.417 374.388C167.339 373.855 167.339 372.979 166.417 372.442C165.494 371.909 163.982 371.909 163.059 372.442C162.136 372.975 162.136 373.851 163.059 374.388Z" fill="white"/>
<path d="M174.021 367.995C174.944 368.529 176.455 368.529 177.378 367.995C178.301 367.462 178.301 366.586 177.378 366.049C176.455 365.516 174.944 365.516 174.021 366.049C173.098 366.583 173.098 367.458 174.021 367.995Z" fill="white"/>
<path d="M185.121 361.569C186.044 362.102 187.555 362.102 188.478 361.569C189.401 361.035 189.401 360.16 188.478 359.623C187.555 359.089 186.044 359.089 185.121 359.623C184.198 360.156 184.198 361.032 185.121 361.569Z" fill="white"/>
<path d="M260.378 181.634C260.033 180.931 260.083 180.059 260.586 179.393C261.297 178.445 262.64 178.254 263.584 178.968L269.689 183.576C275.879 188.249 284.339 188.977 291.234 185.431L297.155 182.39C298.207 181.85 299.496 182.268 300.035 183.324C300.627 184.441 300.157 185.673 299.105 186.213L293.187 189.254C284.842 193.542 274.612 192.659 267.121 187.006L261.017 182.398C260.741 182.189 260.529 181.926 260.385 181.634H260.378Z" fill="#48486A"/>
<path d="M299.792 171.974C293.842 171.542 288.667 176.031 288.236 182.005C287.805 187.975 292.28 193.166 298.233 193.599C304.183 194.031 309.358 189.542 309.788 183.568C310.219 177.598 305.745 172.406 299.792 171.974Z" fill="url(#paint1_linear_30_4953)"/>
<path d="M294.89 187.412C295.583 205.318 311.411 239.751 329.257 239.052C347.104 238.357 360.218 202.796 359.521 184.886C358.828 166.98 343.797 153.025 325.947 153.724C308.1 154.42 294.193 169.502 294.89 187.412Z" fill="url(#paint2_linear_30_4953)"/>
<path d="M300.775 157.151C301.318 171.155 313.074 182.065 327.028 181.517C340.986 180.973 351.859 169.177 351.313 155.176C350.771 141.172 339.018 130.262 325.06 130.81C311.103 131.354 300.23 143.146 300.772 157.151H300.775Z" fill="url(#paint3_linear_30_4953)"/>
<path d="M266.957 176.038C262.821 174.626 256.979 173.797 255.571 177.948C254.163 182.098 259.765 187.395 263.902 188.803C268.035 190.216 271.669 191.552 273.076 187.405C274.484 183.255 271.091 177.451 266.957 176.038Z" fill="url(#paint4_linear_30_4953)"/>
<path d="M313.949 191.467L268.805 164.643C266.661 163.371 263.953 164.92 263.953 167.417V199.051C263.953 202.391 265.731 205.478 268.614 207.15L313.697 233.268C315.841 234.511 318.52 232.958 318.52 230.475V199.519C318.52 196.215 316.782 193.156 313.949 191.474V191.467Z" fill="#3DC2B5"/>
<path d="M316.405 231.319V200.362C316.405 197.058 314.667 194 311.834 192.317L266.69 165.493C266.144 165.169 265.563 165.028 264.999 165.039C265.983 164.142 267.498 163.868 268.805 164.643L313.949 191.467C316.782 193.149 318.52 196.208 318.52 199.512V230.468C318.52 232.327 317.016 233.668 315.36 233.696C315.992 233.12 316.405 232.291 316.405 231.315V231.319Z" fill="#319B90"/>
<path d="M325.879 155.48L334.497 155.725C337.793 155.819 340.418 158.528 340.418 161.839C340.418 165.219 337.689 167.957 334.321 167.957H326.32C321.207 167.957 316.187 166.606 311.76 164.041L300.8 157.692C300.79 157.512 300.779 157.332 300.772 157.152C300.621 153.254 301.357 149.525 302.793 146.163L312.14 151.578C316.324 154.003 321.042 155.343 325.872 155.48H325.879Z" fill="#112050"/>
<path d="M316.915 158.37C316.032 157.858 315.31 158.276 315.31 159.3C315.31 160.323 316.032 161.577 316.915 162.089C317.799 162.6 318.521 162.182 318.521 161.159C318.521 160.136 317.799 158.882 316.915 158.37Z" fill="#3DC2B5"/>
<path d="M307.019 153.92C306.135 153.408 305.413 153.826 305.413 154.849C305.413 155.873 306.135 157.127 307.019 157.639C307.902 158.15 308.624 157.732 308.624 156.709C308.624 155.685 307.902 154.431 307.019 153.92Z" fill="#3DC2B5"/>
<path d="M311.266 199.032L268.245 174.11V177.998L311.266 202.649V199.032Z" fill="white"/>
<path d="M311.266 206.106L268.245 181.185V185.072L311.266 209.723V206.106Z" fill="white"/>
<path d="M311.266 213.176L268.245 188.255V192.142L311.266 216.794V213.176Z" fill="white"/>
<path d="M292.401 209.866L268.044 195.454V199.338L292.401 213.483V209.866Z" fill="white"/>
<path d="M315.899 211.851C315.712 211.531 315.604 211.16 315.604 210.76C315.604 209.574 316.567 208.612 317.748 208.612L325.386 208.623C333.135 208.634 340.334 204.127 343.731 197.137L346.647 191.138C347.164 190.072 348.446 189.629 349.509 190.151C350.572 190.67 351.013 191.952 350.493 193.022L347.577 199.021C343.469 207.474 334.754 212.932 325.378 212.921L317.741 212.911C316.954 212.911 316.269 212.482 315.899 211.851Z" fill="#112050"/>
<path d="M342.525 181.222C337.505 184.461 336.055 191.166 339.279 196.203C342.507 201.24 349.19 202.696 354.21 199.46C359.23 196.221 360.681 189.516 357.456 184.479C354.228 179.442 347.545 177.987 342.525 181.222Z" fill="url(#paint5_linear_30_4953)"/>
<path d="M316.552 205.943C312.879 208.313 308.599 212.388 310.958 216.074C313.321 219.76 320.937 218.654 324.61 216.283C328.284 213.912 331.587 211.891 329.224 208.205C326.862 204.519 320.222 203.572 316.549 205.943H316.552Z" fill="url(#paint6_linear_30_4953)"/>
<path d="M346.65 155.457C347.49 154.812 348.312 154.502 349.052 154.495C349.081 154.495 349.113 154.495 349.142 154.495H353.627L349.706 167.66H345.881C345.881 167.66 345.874 167.66 345.871 167.66C345.838 167.66 345.806 167.66 345.774 167.664C345.738 167.664 345.705 167.664 345.67 167.664C345.641 167.664 345.612 167.664 345.583 167.664C345.548 167.664 345.512 167.664 345.476 167.66C345.451 167.66 345.429 167.657 345.404 167.653C345.249 167.635 345.099 167.606 344.955 167.563C344.948 167.563 344.941 167.559 344.933 167.556C344.89 167.541 344.847 167.527 344.808 167.509C344.793 167.502 344.775 167.498 344.761 167.491C344.722 167.476 344.682 167.458 344.643 167.437C344.625 167.43 344.61 167.422 344.592 167.412C344.556 167.394 344.517 167.372 344.481 167.35C344.463 167.34 344.449 167.332 344.431 167.321C344.395 167.3 344.359 167.275 344.323 167.253C344.309 167.242 344.291 167.231 344.276 167.221C344.24 167.195 344.208 167.17 344.172 167.141C344.158 167.131 344.143 167.116 344.129 167.105C344.097 167.077 344.061 167.048 344.029 167.019C344.014 167.004 344 166.994 343.989 166.979C343.957 166.947 343.924 166.914 343.892 166.882C343.881 166.868 343.867 166.857 343.856 166.842C343.824 166.806 343.792 166.77 343.763 166.731C343.752 166.72 343.741 166.705 343.734 166.691C343.702 166.651 343.669 166.608 343.641 166.565C343.634 166.554 343.626 166.543 343.619 166.532C343.587 166.486 343.555 166.439 343.526 166.392C343.522 166.385 343.519 166.378 343.515 166.37C343.303 166.021 343.138 165.603 343.023 165.12C342.98 164.929 342.941 164.731 342.915 164.518C342.517 161.424 344.197 157.345 346.653 155.45L346.65 155.457Z" fill="url(#paint7_linear_30_4953)"/>
<path d="M350.877 155.459C353.333 153.567 355.674 154.544 356.083 157.635C356.489 160.723 354.808 164.805 352.345 166.703C349.882 168.602 347.541 167.622 347.138 164.527C346.74 161.432 348.42 157.354 350.877 155.459Z" fill="#112050"/>
<path d="M352.067 165.852C354.53 163.953 356.211 159.875 355.805 156.784C355.776 156.578 355.74 156.384 355.697 156.196C355.88 156.607 356.013 157.086 356.085 157.63C356.491 160.718 354.81 164.8 352.347 166.699C350.052 168.468 347.862 167.736 347.251 165.124C348.102 167.027 350.041 167.409 352.067 165.848V165.852Z" fill="black"/>
<path d="M351.287 158.579C352.378 157.736 353.42 158.172 353.603 159.545C353.782 160.918 353.035 162.734 351.94 163.581C350.845 164.424 349.804 163.992 349.624 162.615C349.445 161.239 350.195 159.423 351.287 158.579Z" fill="#D3DAED"/>
<path d="M180.229 281.331L241.625 316.899C241.647 316.91 241.672 316.91 241.69 316.899L303.14 281.331L241.711 245.777L180.229 281.331Z" fill="#3DC2B5"/>
<path d="M180.764 281.071L188.549 285.582L196.341 281.071L188.556 276.567L180.764 281.071Z" fill="#112050"/>
<path d="M196.343 281.071L204.124 285.582L211.916 281.071L204.131 276.567L196.343 281.071Z" fill="#112050"/>
<path d="M204.129 285.578L211.914 290.089L219.706 285.578L211.921 281.074L204.129 285.578Z" fill="#112050"/>
<path d="M204.129 294.596L211.914 299.103L219.706 294.596L211.921 290.089L204.129 294.596Z" fill="#112050"/>
<path d="M219.703 285.578L227.488 290.089L235.28 285.578L227.495 281.074L219.703 285.578Z" fill="#112050"/>
<path d="M196.343 272.056L204.124 276.567L211.916 272.056L204.131 267.549L196.343 272.056Z" fill="#112050"/>
<path d="M204.129 276.562L211.914 281.073L219.706 276.562L211.921 272.059L204.129 276.562Z" fill="#112050"/>
<path d="M211.917 272.056L219.702 276.567L227.494 272.056L219.709 267.549L211.917 272.056Z" fill="#112050"/>
<path d="M227.493 272.056L235.278 276.567L243.07 272.056L235.285 267.549L227.493 272.056Z" fill="#112050"/>
<path d="M211.917 263.041L219.702 267.549L227.494 263.041L219.709 258.534L211.917 263.041Z" fill="#112050"/>
<path d="M180.084 253.058L241.358 288.554V316.822C241.358 316.873 241.304 316.905 241.261 316.88L179.929 281.352V253.152C179.929 253.072 180.015 253.022 180.084 253.062V253.058Z" stroke="#112050" stroke-width="0.920245" stroke-miterlimit="10"/>
<path d="M302.599 253.109L241.411 288.554V316.823C241.411 316.873 241.465 316.906 241.508 316.881L302.839 281.352V253.253C302.839 253.127 302.706 253.051 302.599 253.112V253.109Z" stroke="#112050" stroke-width="0.920245" stroke-miterlimit="10"/>
<path d="M180.084 253.058L241.358 288.554L302.599 253.108C302.707 253.047 302.707 252.888 302.599 252.827L241.411 217.414L180.084 252.878C180.015 252.917 180.015 253.018 180.084 253.058Z" stroke="#112050" stroke-width="0.920245" stroke-miterlimit="10"/>
<path d="M344.43 23.6608L278.707 61.7329C276.858 62.8065 276.858 65.4835 278.707 66.5572L324.213 92.6243C325.951 93.6295 328.092 93.6295 329.829 92.6243L395.553 54.5486C397.402 53.475 397.402 50.798 395.553 49.7243L350.046 23.6572C348.308 22.652 346.168 22.652 344.43 23.6572V23.6608Z" fill="#3DC2B5"/>
<path d="M395.551 51.4529L329.828 89.5285C328.09 90.5337 325.95 90.5337 324.212 89.5285L278.705 63.4614C278.317 63.238 278.034 62.9318 277.807 62.6003C276.953 63.8685 277.24 65.7132 278.705 66.5635L324.212 92.6306C325.95 93.6359 328.09 93.6359 329.828 92.6306L395.551 54.555C397.016 53.7083 397.303 51.86 396.449 50.5918C396.222 50.9269 395.939 51.2295 395.551 51.4529Z" fill="#319B90"/>
<path d="M344.43 18.8718L278.707 56.9438C276.858 58.0175 276.858 60.6944 278.707 61.7681L324.213 87.8352C325.951 88.8404 328.092 88.8404 329.829 87.8352L395.553 49.7596C397.402 48.6859 397.402 46.009 395.553 44.9353L350.046 18.8682C348.308 17.863 346.168 17.863 344.43 18.8682V18.8718Z" fill="#3DC2B5"/>
<path d="M395.551 46.6648L329.828 84.7405C328.09 85.7457 325.95 85.7457 324.212 84.7405L278.705 58.6733C278.317 58.45 278.034 58.1437 277.807 57.8122C276.953 59.0805 277.24 60.9252 278.705 61.7754L324.212 87.8426C325.95 88.8478 328.09 88.8478 329.828 87.8426L395.551 49.7669C397.016 48.9202 397.303 47.0719 396.449 45.8037C396.222 46.1388 395.939 46.4414 395.551 46.6648Z" fill="#319B90"/>
<path d="M344.43 14.0847L278.707 52.1567C276.858 53.2304 276.858 55.9073 278.707 56.981L324.213 83.0481C325.951 84.0533 328.092 84.0533 329.829 83.0481L395.553 44.9725C397.402 43.8988 397.402 41.2218 395.553 40.1482L350.046 14.0811C348.308 13.0758 346.168 13.0758 344.43 14.0811V14.0847Z" fill="#3DC2B5"/>
<path d="M395.551 41.8767L329.828 79.9524C328.09 80.9576 325.95 80.9576 324.212 79.9524L278.705 53.8853C278.317 53.6619 278.034 53.3556 277.807 53.0242C276.953 54.2924 277.24 56.1371 278.705 56.9874L324.212 83.0545C325.95 84.0597 328.09 84.0597 329.828 83.0545L395.551 44.9788C397.016 44.1321 397.303 42.2839 396.449 41.0156C396.222 41.3507 395.939 41.6533 395.551 41.8767Z" fill="#319B90"/>
<path d="M290.089 51.0495L331.516 27.0504C332.938 26.2254 334.691 26.2254 336.113 27.0504L354.254 37.5602C355.521 38.2952 355.517 40.1326 354.246 40.8604L312.776 64.5892C311.372 65.3927 309.652 65.3963 308.241 64.6001L290.103 54.3498C288.825 53.6256 288.814 51.7809 290.085 51.0459L290.089 51.0495Z" fill="#112050"/>
<path d="M314.966 68.6345L375.942 33.3115L381.5 36.6298L320.607 71.9024L314.966 68.6345Z" fill="white"/>
<path d="M323.017 73.9563L353.79 56.2695L359.349 59.5878L328.661 77.2241L323.017 73.9563Z" fill="white"/>
<defs>
<radialGradient id="paint0_radial_30_4953" cx="0" cy="0" r="1" gradientUnits="userSpaceOnUse" gradientTransform="translate(327.207 235.245) scale(39.8655 21.9998)">
<stop stop-color="#CDDEFF"/>
<stop offset="0.27" stop-color="#D7E4FF"/>
<stop offset="0.72" stop-color="#F2F6FF"/>
<stop offset="0.91" stop-color="white"/>
</radialGradient>
<linearGradient id="paint1_linear_30_4953" x1="288.451" y1="174.199" x2="305.27" y2="187.902" gradientUnits="userSpaceOnUse">
<stop stop-color="#7EA7DF"/>
<stop offset="0.22" stop-color="#A8C4EA"/>
<stop offset="0.44" stop-color="#C8DAF2"/>
<stop offset="0.64" stop-color="#E0EAF8"/>
<stop offset="0.83" stop-color="#EEF4FC"/>
<stop offset="1" stop-color="#F3F8FE"/>
</linearGradient>
<linearGradient id="paint2_linear_30_4953" x1="359.917" y1="195.143" x2="295.28" y2="197.651" gradientUnits="userSpaceOnUse">
<stop offset="0.22" stop-color="#B7D1F4"/>
<stop offset="0.29" stop-color="#BCD4F4"/>
<stop offset="0.76" stop-color="#E4EEFB"/>
<stop offset="1" stop-color="#F3F8FE"/>
</linearGradient>
<linearGradient id="paint3_linear_30_4953" x1="331.229" y1="181.308" x2="321.334" y2="133.633" gradientUnits="userSpaceOnUse">
<stop stop-color="#B7D1F4"/>
<stop offset="0.07" stop-color="#BCD4F4"/>
<stop offset="0.41" stop-color="#D4E3F8"/>
<stop offset="0.73" stop-color="#E2ECFA"/>
<stop offset="1" stop-color="#E7F0FB"/>
</linearGradient>
<linearGradient id="paint4_linear_30_4953" x1="257.493" y1="172.426" x2="269.111" y2="188.323" gradientUnits="userSpaceOnUse">
<stop stop-color="#7EA7DF"/>
<stop offset="0.22" stop-color="#A8C4EA"/>
<stop offset="0.44" stop-color="#C8DAF2"/>
<stop offset="0.64" stop-color="#E0EAF8"/>
<stop offset="0.83" stop-color="#EEF4FC"/>
<stop offset="1" stop-color="#F3F8FE"/>
</linearGradient>
<linearGradient id="paint5_linear_30_4953" x1="334.77" y1="189.822" x2="356.417" y2="190.721" gradientUnits="userSpaceOnUse">
<stop stop-color="#7EA7DF"/>
<stop offset="0.22" stop-color="#A8C4EA"/>
<stop offset="0.44" stop-color="#C8DAF2"/>
<stop offset="0.64" stop-color="#E0EAF8"/>
<stop offset="0.83" stop-color="#EEF4FC"/>
<stop offset="1" stop-color="#F3F8FE"/>
</linearGradient>
<linearGradient id="paint6_linear_30_4953" x1="307.839" y1="211.132" x2="327.472" y2="211.952" gradientUnits="userSpaceOnUse">
<stop stop-color="#7EA7DF"/>
<stop offset="0.22" stop-color="#A8C4EA"/>
<stop offset="0.44" stop-color="#C8DAF2"/>
<stop offset="0.64" stop-color="#E0EAF8"/>
<stop offset="0.83" stop-color="#EEF4FC"/>
<stop offset="1" stop-color="#F3F8FE"/>
</linearGradient>
<linearGradient id="paint7_linear_30_4953" x1="342.323" y1="159.482" x2="354.658" y2="162.202" gradientUnits="userSpaceOnUse">
<stop stop-color="#F3F8FE"/>
<stop offset="0.31" stop-color="#E4EEFB"/>
<stop offset="0.92" stop-color="#BCD4F4"/>
<stop offset="1" stop-color="#B7D1F4"/>
</linearGradient>
</defs>
</svg>
