<svg width="315" height="393" viewBox="0 0 315 393" fill="none" xmlns="http://www.w3.org/2000/svg">
<path d="M164.752 139.906L12.1179 227.826C-0.911335 235.333 -0.986464 254.24 11.982 261.851L201.143 372.839" stroke="#112050" stroke-width="4.60123" stroke-miterlimit="10"/>
<path opacity="0.3" d="M196.748 76.792L79.7921 144.846C79.7169 144.889 79.7169 145.001 79.7921 145.044L197.034 213.263L314.133 145.127C314.208 145.084 314.208 144.972 314.133 144.929L196.748 76.792Z" fill="#B1C4E4"/>
<path d="M244.582 155.002L310.505 193.361" stroke="#112050" stroke-width="4.60123" stroke-miterlimit="10"/>
<path d="M196.747 47.415L79.6233 109.08V115.566L197.034 183.886L314.301 115.649V108.972L196.747 47.415Z" fill="#B1C4E4"/>
<path d="M196.748 40.7373L79.7921 108.791C79.7169 108.834 79.7169 108.946 79.7921 108.989L197.034 177.209L314.133 109.072C314.208 109.029 314.208 108.917 314.133 108.874L196.748 40.7373Z" fill="#E3EDFE"/>
<path d="M111.924 107.071C113.04 107.72 114.865 107.72 115.981 107.071C117.097 106.422 117.097 105.358 115.981 104.709C114.865 104.06 113.04 104.06 111.924 104.709C110.808 105.358 110.808 106.422 111.924 107.071Z" fill="#B3CDFA"/>
<path d="M125.136 99.2722C126.252 99.9211 128.077 99.9211 129.193 99.2722C130.309 98.6232 130.309 97.5596 129.193 96.9106C128.077 96.2616 126.252 96.2616 125.136 96.9106C124.02 97.5596 124.02 98.6232 125.136 99.2722Z" fill="#B3CDFA"/>
<path d="M138.464 91.4704C139.581 92.1194 141.405 92.1194 142.521 91.4704C143.638 90.8214 143.638 89.7578 142.521 89.1088C141.405 88.4598 139.581 88.4598 138.464 89.1088C137.348 89.7578 137.348 90.8214 138.464 91.4704Z" fill="#B3CDFA"/>
<path d="M151.909 83.6716C153.025 84.3206 154.85 84.3206 155.966 83.6716C157.082 83.0226 157.082 81.959 155.966 81.31C154.85 80.661 153.025 80.661 151.909 81.31C150.793 81.959 150.793 83.0226 151.909 83.6716Z" fill="#B3CDFA"/>
<path d="M165.135 75.9733C166.251 76.6223 168.076 76.6223 169.192 75.9733C170.308 75.3243 170.308 74.2607 169.192 73.6117C168.076 72.9628 166.251 72.9628 165.135 73.6117C164.019 74.2607 164.019 75.3243 165.135 75.9733Z" fill="#B3CDFA"/>
<path d="M178.39 68.2106C179.506 68.8596 181.33 68.8596 182.447 68.2106C183.563 67.5616 183.563 66.498 182.447 65.849C181.33 65.2001 179.506 65.2001 178.39 65.849C177.273 66.498 177.273 67.5616 178.39 68.2106Z" fill="#B3CDFA"/>
<path d="M191.815 60.402C192.931 61.051 194.756 61.051 195.872 60.402C196.988 59.7531 196.988 58.6894 195.872 58.0405C194.756 57.3915 192.931 57.3915 191.815 58.0405C190.699 58.6894 190.699 59.7531 191.815 60.402Z" fill="#B3CDFA"/>
<path d="M129.165 116.939C130.281 117.588 132.106 117.588 133.222 116.939C134.338 116.29 134.338 115.227 133.222 114.578C132.106 113.929 130.281 113.929 129.165 114.578C128.049 115.227 128.049 116.29 129.165 116.939Z" fill="#B3CDFA"/>
<path d="M142.371 109.141C143.487 109.79 145.312 109.79 146.428 109.141C147.544 108.492 147.544 107.429 146.428 106.78C145.312 106.131 143.487 106.131 142.371 106.78C141.255 107.429 141.255 108.492 142.371 109.141Z" fill="#B3CDFA"/>
<path d="M155.702 101.339C156.818 101.988 158.642 101.988 159.759 101.339C160.875 100.69 160.875 99.626 159.759 98.977C158.642 98.328 156.818 98.328 155.702 98.977C154.585 99.626 154.585 100.69 155.702 101.339Z" fill="#B3CDFA"/>
<path d="M169.15 93.5397C170.266 94.1887 172.091 94.1887 173.207 93.5397C174.323 92.8908 174.323 91.8271 173.207 91.1781C172.091 90.5292 170.266 90.5292 169.15 91.1781C168.034 91.8271 168.034 92.8908 169.15 93.5397Z" fill="#B3CDFA"/>
<path d="M182.376 85.8415C183.492 86.4905 185.317 86.4905 186.433 85.8415C187.549 85.1925 187.549 84.1289 186.433 83.4799C185.317 82.8309 183.492 82.8309 182.376 83.4799C181.26 84.1289 181.26 85.1925 182.376 85.8415Z" fill="#B3CDFA"/>
<path d="M195.631 78.0798C196.747 78.7288 198.571 78.7288 199.687 78.0798C200.804 77.4308 200.804 76.3672 199.687 75.7182C198.571 75.0692 196.747 75.0692 195.631 75.7182C194.514 76.3672 194.514 77.4308 195.631 78.0798Z" fill="#B3CDFA"/>
<path d="M209.056 70.2702C210.172 70.9192 211.997 70.9192 213.113 70.2702C214.229 69.6212 214.229 68.5576 213.113 67.9086C211.997 67.2596 210.172 67.2596 209.056 67.9086C207.94 68.5576 207.94 69.6212 209.056 70.2702Z" fill="#B3CDFA"/>
<path d="M146.4 126.808C147.516 127.457 149.341 127.457 150.457 126.808C151.573 126.159 151.573 125.096 150.457 124.447C149.341 123.798 147.516 123.798 146.4 124.447C145.284 125.096 145.284 126.159 146.4 126.808Z" fill="#B3CDFA"/>
<path d="M159.612 119.005C160.728 119.654 162.553 119.654 163.669 119.005C164.785 118.356 164.785 117.292 163.669 116.643C162.553 115.994 160.728 115.994 159.612 116.643C158.496 117.292 158.496 118.356 159.612 119.005Z" fill="#B3CDFA"/>
<path d="M172.939 111.207C174.055 111.856 175.879 111.856 176.996 111.207C178.112 110.558 178.112 109.494 176.996 108.845C175.879 108.196 174.055 108.196 172.939 108.845C171.823 109.494 171.823 110.558 172.939 111.207Z" fill="#B3CDFA"/>
<path d="M186.385 103.408C187.502 104.057 189.326 104.057 190.442 103.408C191.559 102.759 191.559 101.695 190.442 101.046C189.326 100.397 187.502 100.397 186.385 101.046C185.269 101.695 185.269 102.759 186.385 103.408Z" fill="#B3CDFA"/>
<path d="M199.611 95.7097C200.727 96.3586 202.552 96.3586 203.668 95.7097C204.784 95.0607 204.784 93.9971 203.668 93.3481C202.552 92.6991 200.727 92.6991 199.611 93.3481C198.495 93.9971 198.495 95.0607 199.611 95.7097Z" fill="#B3CDFA"/>
<path d="M212.868 87.9479C213.984 88.5969 215.808 88.5969 216.925 87.9479C218.041 87.299 218.041 86.2353 216.925 85.5864C215.808 84.9374 213.984 84.9374 212.868 85.5864C211.751 86.2353 211.751 87.299 212.868 87.9479Z" fill="#B3CDFA"/>
<path d="M226.293 80.1384C227.409 80.7874 229.234 80.7874 230.35 80.1384C231.466 79.4894 231.466 78.4258 230.35 77.7768C229.234 77.1278 227.409 77.1278 226.293 77.7768C225.177 78.4258 225.177 79.4894 226.293 80.1384Z" fill="#B3CDFA"/>
<path d="M163.635 136.675C164.752 137.324 166.576 137.324 167.692 136.675C168.808 136.026 168.808 134.963 167.692 134.314C166.576 133.665 164.752 133.665 163.635 134.314C162.519 134.963 162.519 136.026 163.635 136.675Z" fill="#B3CDFA"/>
<path d="M176.847 128.874C177.964 129.523 179.788 129.523 180.904 128.874C182.02 128.225 182.02 127.161 180.904 126.512C179.788 125.863 177.964 125.863 176.847 126.512C175.731 127.161 175.731 128.225 176.847 128.874Z" fill="#B3CDFA"/>
<path d="M190.18 121.075C191.296 121.724 193.121 121.724 194.237 121.075C195.353 120.426 195.353 119.362 194.237 118.713C193.121 118.064 191.296 118.064 190.18 118.713C189.064 119.362 189.064 120.426 190.18 121.075Z" fill="#B3CDFA"/>
<path d="M203.623 113.276C204.739 113.925 206.563 113.925 207.679 113.276C208.796 112.627 208.796 111.563 207.679 110.914C206.563 110.265 204.739 110.265 203.623 110.914C202.506 111.563 202.506 112.627 203.623 113.276Z" fill="#B3CDFA"/>
<path d="M216.848 105.579C217.964 106.228 219.789 106.228 220.905 105.579C222.021 104.93 222.021 103.866 220.905 103.217C219.789 102.568 217.964 102.568 216.848 103.217C215.732 103.866 215.732 104.93 216.848 105.579Z" fill="#B3CDFA"/>
<path d="M230.103 97.8132C231.219 98.4622 233.044 98.4622 234.16 97.8132C235.276 97.1642 235.276 96.1006 234.16 95.4516C233.044 94.8026 231.219 94.8026 230.103 95.4516C228.987 96.1006 228.987 97.1642 230.103 97.8132Z" fill="#B3CDFA"/>
<path d="M243.53 90.0065C244.646 90.6555 246.471 90.6555 247.587 90.0065C248.703 89.3576 248.703 88.2939 247.587 87.6449C246.471 86.996 244.646 86.996 243.53 87.6449C242.414 88.2939 242.414 89.3576 243.53 90.0065Z" fill="#B3CDFA"/>
<path d="M180.873 146.544C181.989 147.193 183.813 147.193 184.929 146.544C186.046 145.895 186.046 144.831 184.929 144.182C183.813 143.533 181.989 143.533 180.873 144.182C179.756 144.831 179.756 145.895 180.873 146.544Z" fill="#B3CDFA"/>
<path d="M194.085 138.741C195.201 139.39 197.025 139.39 198.141 138.741C199.258 138.092 199.258 137.028 198.141 136.379C197.025 135.73 195.201 135.73 194.085 136.379C192.968 137.028 192.968 138.092 194.085 138.741Z" fill="#B3CDFA"/>
<path d="M207.415 130.943C208.531 131.592 210.356 131.592 211.472 130.943C212.588 130.294 212.588 129.23 211.472 128.581C210.356 127.932 208.531 127.932 207.415 128.581C206.299 129.23 206.299 130.294 207.415 130.943Z" fill="#B3CDFA"/>
<path d="M220.86 123.145C221.976 123.794 223.8 123.794 224.917 123.145C226.033 122.496 226.033 121.433 224.917 120.784C223.8 120.135 221.976 120.135 220.86 120.784C219.744 121.433 219.744 122.496 220.86 123.145Z" fill="#B3CDFA"/>
<path d="M234.085 115.446C235.201 116.095 237.026 116.095 238.142 115.446C239.258 114.797 239.258 113.733 238.142 113.084C237.026 112.435 235.201 112.435 234.085 113.084C232.969 113.733 232.969 114.797 234.085 115.446Z" fill="#B3CDFA"/>
<path d="M247.34 107.68C248.456 108.329 250.281 108.329 251.397 107.68C252.513 107.031 252.513 105.968 251.397 105.319C250.281 104.67 248.456 104.67 247.34 105.319C246.224 105.968 246.224 107.031 247.34 107.68Z" fill="#B3CDFA"/>
<path d="M260.765 99.8747C261.882 100.524 263.706 100.524 264.822 99.8747C265.938 99.2257 265.938 98.1621 264.822 97.5131C263.706 96.8641 261.882 96.8641 260.765 97.5131C259.649 98.1621 259.649 99.2257 260.765 99.8747Z" fill="#B3CDFA"/>
<path d="M198.11 156.408C199.226 157.057 201.05 157.057 202.167 156.408C203.283 155.759 203.283 154.695 202.167 154.046C201.05 153.397 199.226 153.397 198.11 154.046C196.994 154.695 196.994 155.759 198.11 156.408Z" fill="#B3CDFA"/>
<path d="M211.322 148.61C212.438 149.259 214.262 149.259 215.379 148.61C216.495 147.961 216.495 146.897 215.379 146.248C214.262 145.599 212.438 145.599 211.322 146.248C210.205 146.897 210.205 147.961 211.322 148.61Z" fill="#B3CDFA"/>
<path d="M224.65 140.812C225.766 141.461 227.591 141.461 228.707 140.812C229.823 140.163 229.823 139.1 228.707 138.451C227.591 137.802 225.766 137.802 224.65 138.451C223.534 139.1 223.534 140.163 224.65 140.812Z" fill="#B3CDFA"/>
<path d="M238.099 133.011C239.215 133.66 241.039 133.66 242.156 133.011C243.272 132.362 243.272 131.299 242.156 130.65C241.039 130.001 239.215 130.001 238.099 130.65C236.983 131.299 236.983 132.362 238.099 133.011Z" fill="#B3CDFA"/>
<path d="M251.326 125.315C252.442 125.964 254.267 125.964 255.383 125.315C256.499 124.666 256.499 123.603 255.383 122.954C254.267 122.305 252.442 122.305 251.326 122.954C250.21 123.603 250.21 124.666 251.326 125.315Z" fill="#B3CDFA"/>
<path d="M264.581 117.549C265.697 118.198 267.522 118.198 268.638 117.549C269.754 116.9 269.754 115.836 268.638 115.187C267.522 114.538 265.697 114.538 264.581 115.187C263.465 115.836 263.465 116.9 264.581 117.549Z" fill="#B3CDFA"/>
<path d="M278.006 109.74C279.123 110.389 280.947 110.389 282.063 109.74C283.18 109.091 283.18 108.027 282.063 107.378C280.947 106.729 279.123 106.729 278.006 107.378C276.89 108.027 276.89 109.091 278.006 109.74Z" fill="#B3CDFA"/>
<path d="M184.152 282.764L192.262 278.037L192.859 279.566L184.749 284.275L184.152 282.764Z" fill="white"/>
<path d="M185.238 285.882L193.348 281.155L193.942 282.684L185.832 287.393L185.238 285.882Z" fill="white"/>
<path d="M186.346 289L194.456 284.273L195.05 285.802L186.939 290.511L186.346 289Z" fill="white"/>
<path style="mix-blend-mode:multiply" d="M44.7196 351.967L82.4086 373.452L70.1735 380.36L32.0302 358.421L44.7196 351.967Z" fill="url(#paint0_linear_30_4722)"/>
<path style="mix-blend-mode:multiply" d="M72.9147 364.136L110.604 385.624L98.3723 392.533L52.9451 366.166L72.9147 364.136Z" fill="url(#paint1_linear_30_4722)"/>
<path d="M107.787 175.313L74.1512 155.742C73.6969 155.479 73.128 155.807 73.128 156.337L66.871 181.886C66.871 182.419 67.1536 182.913 67.6115 183.18L101.247 202.75C101.702 203.014 102.056 202.794 102.27 202.156L108.527 176.607C108.527 176.073 108.245 175.58 107.787 175.313Z" fill="#6E8FE4"/>
<path d="M107.356 175.605L73.7205 156.034C73.2662 155.771 72.6974 156.099 72.6974 156.629L66.4403 182.178C66.4403 182.711 66.7229 183.205 67.1809 183.472L100.817 203.042C101.271 203.306 101.69 202.794 101.84 202.448L108.097 176.899C108.097 176.365 107.814 175.872 107.356 175.605Z" fill="#E3EDFE"/>
<path d="M106.762 176.513L73.9021 157.339C73.7232 157.235 73.4978 157.332 73.4477 157.534L67.4483 181.846C67.4018 182.037 67.484 182.235 67.6558 182.336L100.519 201.525C100.698 201.629 100.923 201.532 100.973 201.33L106.969 177.004C107.016 176.813 106.933 176.614 106.762 176.513Z" fill="#3DC2B5"/>
<path d="M65.0773 184.701L43.5371 196.152C43.5371 196.152 43.419 197.846 43.877 198.113L76.8795 217.316C77.7202 217.806 78.7577 217.81 79.6055 217.323L100.802 205.111C101.679 204.563 101.149 203.146 101.149 203.146L67.8033 184.708C66.9626 184.218 65.9251 184.214 65.0773 184.701Z" fill="url(#paint2_linear_30_4722)"/>
<path d="M65.0761 183.385L43.8793 195.597C43.4178 195.864 43.4178 196.531 43.8793 196.798L76.8818 216.001C77.7226 216.491 78.76 216.494 79.6079 216.008L100.805 203.796C101.266 203.529 101.266 202.862 100.805 202.595L67.8021 183.392C66.9614 182.902 65.9239 182.899 65.0761 183.385Z" fill="#E3EDFE"/>
<path d="M63.1946 199.199L57.6065 202.419C57.4848 202.487 57.4848 202.664 57.6065 202.736L66.3034 207.798C66.5252 207.928 66.8007 207.928 67.0225 207.798L72.6106 204.578C72.7322 204.51 72.7322 204.333 72.6106 204.261L63.9136 199.199C63.6918 199.069 63.4199 199.069 63.1946 199.199Z" fill="white"/>
<path d="M67.4138 185.252L69.2383 186.316C69.3099 186.359 69.3099 186.464 69.2383 186.507L68.3296 187.033C68.2581 187.077 68.1686 187.077 68.0935 187.033L66.269 185.97C66.1974 185.926 66.1974 185.822 66.269 185.779L67.1777 185.252C67.2492 185.209 67.3387 185.209 67.4138 185.252Z" fill="white"/>
<path d="M70.0888 186.858L71.9134 187.921C71.9849 187.965 71.9849 188.069 71.9134 188.112L71.0047 188.639C70.9331 188.682 70.8437 188.682 70.7686 188.639L68.944 187.575C68.8725 187.532 68.8725 187.427 68.944 187.384L69.8527 186.858C69.9243 186.814 70.0137 186.814 70.0888 186.858Z" fill="white"/>
<path d="M72.7754 188.379L74.5999 189.443C74.6715 189.486 74.6715 189.591 74.5999 189.634L73.6912 190.16C73.6197 190.204 73.5302 190.204 73.4551 190.16L71.6306 189.097C71.559 189.053 71.559 188.949 71.6306 188.906L72.5393 188.379C72.6108 188.336 72.7002 188.336 72.7754 188.379Z" fill="white"/>
<path d="M75.5416 189.951L77.3661 191.015C77.4377 191.058 77.4377 191.163 77.3661 191.206L76.4574 191.733C76.3859 191.776 76.2965 191.776 76.2213 191.733L74.3968 190.669C74.3253 190.626 74.3253 190.521 74.3968 190.478L75.3055 189.951C75.377 189.908 75.4665 189.908 75.5416 189.951Z" fill="white"/>
<path d="M78.1991 191.443L80.0236 192.506C80.0952 192.549 80.0952 192.654 80.0236 192.697L79.1149 193.224C79.0434 193.267 78.9539 193.267 78.8788 193.224L77.0543 192.16C76.9827 192.117 76.9827 192.012 77.0543 191.969L77.963 191.443C78.0345 191.399 78.1239 191.399 78.1991 191.443Z" fill="white"/>
<path d="M80.781 193.048L82.6055 194.112C82.6771 194.155 82.6771 194.26 82.6055 194.303L81.6968 194.829C81.6253 194.872 81.5358 194.872 81.4607 194.829L79.6362 193.766C79.5646 193.722 79.5646 193.618 79.6362 193.574L80.5449 193.048C80.6164 193.005 80.7059 193.005 80.781 193.048Z" fill="white"/>
<path d="M83.487 194.551L85.3116 195.615C85.3831 195.658 85.3831 195.762 85.3116 195.806L84.4029 196.332C84.3313 196.375 84.2419 196.375 84.1668 196.332L82.3422 195.268C82.2707 195.225 82.2707 195.121 82.3422 195.077L83.2509 194.551C83.3225 194.508 83.4119 194.508 83.487 194.551Z" fill="white"/>
<path d="M86.1504 196.152L87.9749 197.215C88.0465 197.258 88.0465 197.363 87.9749 197.406L87.0662 197.933C86.9947 197.976 86.9052 197.976 86.8301 197.933L85.0056 196.869C84.934 196.826 84.934 196.721 85.0056 196.678L85.9143 196.152C85.9858 196.108 86.0752 196.108 86.1504 196.152Z" fill="white"/>
<path d="M88.7731 197.71L90.5976 198.774C90.6691 198.817 90.6691 198.922 90.5976 198.965L89.6889 199.491C89.6173 199.535 89.5279 199.535 89.4528 199.491L87.6282 198.428C87.5567 198.384 87.5567 198.28 87.6282 198.237L88.5369 197.71C88.6085 197.667 88.6979 197.667 88.7731 197.71Z" fill="white"/>
<path d="M91.5353 199.315L93.3598 200.378C93.4313 200.422 93.4313 200.526 93.3598 200.569L92.4511 201.096C92.3796 201.139 92.2901 201.139 92.215 201.096L90.3905 200.032C90.3189 199.989 90.3189 199.884 90.3905 199.841L91.2991 199.315C91.3707 199.271 91.4601 199.271 91.5353 199.315Z" fill="white"/>
<path d="M94.218 200.832L96.0425 201.896C96.1141 201.939 96.1141 202.044 96.0425 202.087L95.1338 202.613C95.0623 202.657 94.9728 202.657 94.8977 202.613L93.0732 201.55C93.0016 201.506 93.0016 201.402 93.0732 201.359L93.9819 200.832C94.0534 200.789 94.1429 200.789 94.218 200.832Z" fill="white"/>
<path d="M63.7005 187.254L64.9383 186.522C65.0993 186.429 65.2961 186.429 65.4571 186.522L66.6663 187.226C66.8344 187.323 66.838 187.568 66.6734 187.673L65.4714 188.415C65.3104 188.516 65.1065 188.52 64.9419 188.423L63.7041 187.701C63.5324 187.601 63.5324 187.352 63.7041 187.254H63.7005Z" fill="white"/>
<path d="M66.4686 188.858L67.7064 188.126C67.8674 188.032 68.0642 188.032 68.2252 188.126L69.4344 188.829C69.6025 188.926 69.6061 189.172 69.4415 189.276L68.2395 190.019C68.0785 190.12 67.8746 190.123 67.71 190.026L66.4722 189.305C66.3005 189.204 66.3005 188.959 66.4722 188.858H66.4686Z" fill="white"/>
<path d="M69.1588 190.379L70.3966 189.647C70.5576 189.554 70.7544 189.554 70.9154 189.647L72.1246 190.351C72.2927 190.448 72.2963 190.693 72.1317 190.798L70.9297 191.54C70.7687 191.641 70.5648 191.645 70.4002 191.548L69.1588 190.826C68.9871 190.726 68.9871 190.48 69.1588 190.379Z" fill="white"/>
<path d="M72.02 191.952L73.2578 191.224C73.4188 191.13 73.6156 191.13 73.7766 191.224L74.9858 191.927C75.1539 192.024 75.1575 192.269 74.9929 192.374L73.7909 193.117C73.6299 193.217 73.426 193.221 73.2614 193.124L72.02 192.403C71.8483 192.302 71.8483 192.053 72.02 191.956V191.952Z" fill="white"/>
<path d="M74.5398 193.444L75.7776 192.716C75.9386 192.622 76.1354 192.622 76.2964 192.716L77.5056 193.419C77.6737 193.516 77.6773 193.761 77.5127 193.866L76.3107 194.609C76.1497 194.71 75.9458 194.713 75.7812 194.616L74.5398 193.895C74.3681 193.794 74.3681 193.545 74.5398 193.448V193.444Z" fill="white"/>
<path d="M77.1003 195.042L78.3382 194.313C78.4992 194.22 78.6959 194.22 78.8569 194.313L80.0661 195.017C80.2342 195.114 80.2378 195.359 80.0733 195.464L78.8712 196.206C78.7102 196.307 78.5063 196.311 78.3417 196.214L77.1003 195.492C76.9286 195.392 76.9286 195.143 77.1003 195.045V195.042Z" fill="white"/>
<path d="M79.8377 196.555L81.0756 195.827C81.2365 195.733 81.4333 195.733 81.5943 195.827L82.8035 196.53C82.9716 196.628 82.9752 196.873 82.8106 196.977L81.6086 197.72C81.4476 197.821 81.2437 197.825 81.0791 197.727L79.8413 197.006C79.6696 196.905 79.6696 196.66 79.8413 196.559L79.8377 196.555Z" fill="white"/>
<path d="M82.5166 198.084L83.7544 197.353C83.9154 197.259 84.1121 197.259 84.2731 197.353L85.4823 198.056C85.6505 198.153 85.654 198.398 85.4895 198.503L84.2874 199.245C84.1264 199.346 83.9225 199.35 83.758 199.253L82.5201 198.532C82.3484 198.431 82.3484 198.182 82.5201 198.084H82.5166Z" fill="white"/>
<path d="M85.1489 199.711L86.3867 198.979C86.5477 198.886 86.7445 198.886 86.9055 198.979L88.1146 199.683C88.2828 199.78 88.2864 200.025 88.1218 200.13L86.9198 200.872C86.7588 200.973 86.5549 200.977 86.3903 200.88L85.1525 200.158C84.9808 200.058 84.9808 199.809 85.1525 199.711H85.1489Z" fill="white"/>
<path d="M88.0179 201.416L89.2557 200.685C89.4167 200.591 89.6135 200.591 89.7745 200.685L90.9837 201.388C91.1518 201.485 91.1554 201.73 90.9908 201.835L89.7888 202.577C89.6278 202.678 89.4239 202.682 89.2593 202.585L88.0215 201.864C87.8498 201.763 87.8498 201.514 88.0215 201.416H88.0179Z" fill="white"/>
<path d="M90.6114 202.832L91.8492 202.101C92.0102 202.007 92.207 202.007 92.368 202.101L93.5772 202.804C93.7453 202.901 93.7489 203.146 93.5843 203.251L92.3823 203.993C92.2213 204.094 92.0174 204.098 91.8528 204.001L90.615 203.28C90.4433 203.179 90.4433 202.93 90.615 202.832H90.6114Z" fill="white"/>
<path d="M60.9402 188.763L62.178 188.035C62.339 187.941 62.5357 187.941 62.6967 188.035L63.9059 188.738C64.0741 188.836 64.0776 189.081 63.9131 189.185L62.711 189.928C62.55 190.029 62.3461 190.033 62.1816 189.935L60.9437 189.214C60.772 189.113 60.772 188.864 60.9437 188.767L60.9402 188.763Z" fill="white"/>
<path d="M63.7102 190.369L64.948 189.637C65.109 189.543 65.3057 189.543 65.4667 189.637L66.6759 190.34C66.8441 190.437 66.8476 190.682 66.6831 190.787L65.481 191.53C65.3201 191.631 65.1161 191.634 64.9516 191.537L63.7138 190.816C63.542 190.715 63.542 190.466 63.7138 190.369H63.7102Z" fill="white"/>
<path d="M66.4004 191.89L67.6382 191.158C67.7992 191.064 67.996 191.064 68.157 191.158L69.3662 191.861C69.5343 191.959 69.5379 192.204 69.3733 192.308L68.1713 193.051C68.0103 193.152 67.8064 193.156 67.6418 193.058L66.4004 192.337C66.2287 192.236 66.2287 191.987 66.4004 191.89Z" fill="white"/>
<path d="M69.2619 193.463L70.4998 192.734C70.6607 192.641 70.8575 192.641 71.0185 192.734L72.2277 193.437C72.3958 193.535 72.3994 193.78 72.2348 193.885L71.0328 194.627C70.8718 194.728 70.6679 194.732 70.5033 194.634L69.2655 193.913C69.0938 193.812 69.0938 193.567 69.2655 193.466L69.2619 193.463Z" fill="white"/>
<path d="M71.7837 194.956L73.0215 194.224C73.1825 194.13 73.3792 194.13 73.5402 194.224L74.7494 194.927C74.9176 195.024 74.9211 195.269 74.7566 195.374L73.5545 196.117C73.3935 196.217 73.1896 196.221 73.0251 196.124L71.7872 195.403C71.6155 195.302 71.6155 195.053 71.7872 194.956H71.7837Z" fill="white"/>
<path d="M74.3462 196.553L75.584 195.821C75.745 195.728 75.9417 195.728 76.1027 195.821L77.3119 196.524C77.4801 196.622 77.4836 196.867 77.3191 196.971L76.117 197.714C75.956 197.815 75.7521 197.819 75.5876 197.721L74.3497 197C74.178 196.899 74.178 196.651 74.3497 196.553H74.3462Z" fill="white"/>
<path d="M77.0832 198.068L78.321 197.336C78.482 197.242 78.6788 197.242 78.8398 197.336L80.049 198.039C80.2171 198.136 80.2207 198.382 80.0561 198.486L78.8541 199.229C78.6931 199.33 78.4892 199.333 78.3246 199.236L77.0868 198.515C76.9151 198.414 76.9151 198.165 77.0868 198.068H77.0832Z" fill="white"/>
<path d="M79.7578 199.595L80.9956 198.867C81.1566 198.773 81.3534 198.773 81.5144 198.867L82.7236 199.57C82.8917 199.668 82.8953 199.913 82.7307 200.017L81.5287 200.76C81.3677 200.861 81.1638 200.865 80.9992 200.767L79.7578 200.046C79.5861 199.945 79.5861 199.696 79.7578 199.599V199.595Z" fill="white"/>
<path d="M82.3924 201.221L83.6302 200.489C83.7912 200.396 83.988 200.396 84.149 200.489L85.3582 201.192C85.5263 201.29 85.5299 201.535 85.3653 201.639L84.1633 202.382C84.0023 202.483 83.7984 202.487 83.6338 202.389L82.396 201.668C82.2243 201.567 82.2243 201.319 82.396 201.221H82.3924Z" fill="white"/>
<path d="M85.2595 202.926L86.4973 202.197C86.6583 202.104 86.8551 202.104 87.0161 202.197L88.2252 202.9C88.3934 202.998 88.397 203.243 88.2324 203.347L87.0304 204.09C86.8694 204.191 86.6655 204.195 86.5009 204.097L85.2631 203.376C85.0913 203.275 85.0913 203.027 85.2631 202.929L85.2595 202.926Z" fill="white"/>
<path d="M87.8569 204.344L89.0947 203.615C89.2557 203.521 89.4525 203.521 89.6135 203.615L90.8227 204.318C90.9908 204.416 90.9944 204.661 90.8298 204.765L89.6278 205.508C89.4668 205.609 89.2629 205.613 89.0983 205.515L87.8605 204.794C87.6888 204.693 87.6888 204.444 87.8605 204.347L87.8569 204.344Z" fill="white"/>
<path d="M58.1856 190.275L59.4235 189.543C59.5844 189.449 59.7812 189.449 59.9422 189.543L61.1514 190.246C61.3195 190.343 61.3231 190.589 61.1585 190.693L59.9565 191.436C59.7955 191.537 59.5916 191.54 59.427 191.443L58.1892 190.722C58.0175 190.621 58.0175 190.372 58.1892 190.275H58.1856Z" fill="white"/>
<path d="M60.9537 191.882L62.1915 191.15C62.3525 191.057 62.5493 191.057 62.7103 191.15L63.9195 191.853C64.0876 191.951 64.0912 192.196 63.9266 192.301L62.7246 193.043C62.5636 193.144 62.3597 193.148 62.1951 193.05L60.9573 192.329C60.7856 192.228 60.7856 191.98 60.9573 191.882H60.9537Z" fill="white"/>
<path d="M63.6443 193.401L64.8821 192.669C65.0431 192.575 65.2398 192.575 65.4008 192.669L66.61 193.372C66.7782 193.469 66.7817 193.715 66.6172 193.819L65.4151 194.562C65.2541 194.663 65.0502 194.666 64.8857 194.569L63.6478 193.848C63.4761 193.747 63.4761 193.498 63.6478 193.401H63.6443Z" fill="white"/>
<path d="M66.5032 194.973L67.741 194.245C67.902 194.151 68.0987 194.151 68.2597 194.245L69.4689 194.948C69.6371 195.046 69.6407 195.291 69.4761 195.395L68.274 196.138C68.1131 196.239 67.9091 196.243 67.7446 196.145L66.5032 195.428C66.3315 195.327 66.3315 195.078 66.5032 194.981V194.973Z" fill="white"/>
<path d="M69.0269 196.466L70.2647 195.734C70.4257 195.641 70.6224 195.641 70.7834 195.734L71.9926 196.437C72.1608 196.535 72.1643 196.78 71.9998 196.885L70.7977 197.627C70.6367 197.728 70.4328 197.732 70.2683 197.634L69.0269 196.913C68.8551 196.812 68.8551 196.564 69.0269 196.466Z" fill="white"/>
<path d="M71.5877 198.064L72.8256 197.332C72.9865 197.238 73.1833 197.238 73.3443 197.332L74.5535 198.035C74.7216 198.132 74.7252 198.378 74.5606 198.482L73.3586 199.225C73.1976 199.326 72.9937 199.329 72.8291 199.232L71.5913 198.511C71.4196 198.41 71.4196 198.161 71.5913 198.064H71.5877Z" fill="white"/>
<path d="M74.3248 199.578L75.5626 198.846C75.7236 198.752 75.9204 198.752 76.0814 198.846L77.2906 199.549C77.4587 199.646 77.4623 199.891 77.2977 199.996L76.0957 200.739C75.9347 200.84 75.7308 200.843 75.5662 200.746L74.3284 200.025C74.1567 199.924 74.1567 199.675 74.3284 199.578H74.3248Z" fill="white"/>
<path d="M77.0033 201.106L78.2411 200.378C78.4021 200.284 78.5989 200.284 78.7599 200.378L79.9691 201.081C80.1372 201.178 80.1408 201.424 79.9762 201.528L78.7742 202.271C78.6132 202.372 78.4093 202.375 78.2447 202.278L77.0033 201.557C76.8316 201.456 76.8316 201.207 77.0033 201.11V201.106Z" fill="white"/>
<path d="M79.6376 202.732L80.8754 202C81.0364 201.906 81.2331 201.906 81.3941 202L82.6033 202.703C82.7715 202.8 82.7751 203.046 82.6105 203.15L81.4084 203.893C81.2475 203.994 81.0435 203.997 80.879 203.9L79.6376 203.179C79.4659 203.078 79.4659 202.829 79.6376 202.732Z" fill="white"/>
<path d="M82.505 204.438L83.7428 203.706C83.9038 203.612 84.1005 203.612 84.2615 203.706L85.4707 204.409C85.6389 204.506 85.6424 204.752 85.4779 204.856L84.2758 205.599C84.1149 205.7 83.9109 205.703 83.7464 205.606L82.5086 204.885C82.3368 204.784 82.3368 204.539 82.5086 204.438H82.505Z" fill="white"/>
<path d="M85.1004 205.855L86.3382 205.123C86.4992 205.029 86.696 205.029 86.857 205.123L88.0662 205.826C88.2343 205.923 88.2379 206.169 88.0733 206.273L86.8713 207.016C86.7103 207.117 86.5064 207.12 86.3418 207.023L85.104 206.302C84.9323 206.201 84.9323 205.952 85.104 205.855H85.1004Z" fill="white"/>
<path d="M55.4272 191.786L56.665 191.054C56.826 190.96 57.0228 190.96 57.1838 191.054L58.393 191.757C58.5611 191.854 58.5647 192.099 58.4001 192.204L57.1981 192.947C57.0371 193.048 56.8332 193.051 56.6686 192.954L55.4308 192.233C55.2591 192.132 55.2591 191.883 55.4308 191.786H55.4272Z" fill="white"/>
<path d="M58.1969 193.393L59.4347 192.661C59.5957 192.567 59.7925 192.567 59.9535 192.661L61.1627 193.364C61.3308 193.462 61.3344 193.707 61.1698 193.811L59.9678 194.554C59.8068 194.655 59.6029 194.659 59.4383 194.561L58.1969 193.84C58.0252 193.739 58.0252 193.49 58.1969 193.393Z" fill="white"/>
<path d="M60.8858 194.912L62.1236 194.184C62.2846 194.09 62.4814 194.09 62.6424 194.184L63.8516 194.887C64.0197 194.984 64.0233 195.229 63.8587 195.334L62.6567 196.076C62.4957 196.177 62.2918 196.181 62.1272 196.084L60.8894 195.363C60.7177 195.262 60.7177 195.013 60.8894 194.916L60.8858 194.912Z" fill="white"/>
<path d="M63.7506 196.484L64.9884 195.752C65.1494 195.658 65.3462 195.658 65.5072 195.752L66.7164 196.455C66.8845 196.552 66.8881 196.798 66.7235 196.902L65.5215 197.645C65.3605 197.746 65.1566 197.749 64.992 197.652L63.7506 196.931C63.5789 196.83 63.5789 196.585 63.7506 196.484Z" fill="white"/>
<path d="M66.5032 198.143L67.741 197.411C67.902 197.317 68.0987 197.317 68.2597 197.411L74.549 201.074C74.7171 201.172 74.7207 201.417 74.5561 201.521L73.3541 202.264C73.1931 202.365 72.9892 202.369 72.8246 202.271L66.5032 198.594C66.3315 198.493 66.3315 198.244 66.5032 198.147V198.143Z" fill="white"/>
<path d="M74.2468 202.617L75.4846 201.885C75.6456 201.791 75.8424 201.791 76.0034 201.885L77.2126 202.588C77.3807 202.685 77.3843 202.93 77.2197 203.035L76.0177 203.778C75.8567 203.879 75.6528 203.882 75.4882 203.785L74.2468 203.064C74.0751 202.963 74.0751 202.714 74.2468 202.617Z" fill="white"/>
<path d="M76.8795 204.243L78.1173 203.515C78.2783 203.421 78.4751 203.421 78.636 203.515L79.8452 204.218C80.0134 204.315 80.017 204.56 79.8524 204.665L78.6504 205.408C78.4894 205.508 78.2854 205.512 78.1209 205.415L76.8831 204.694C76.7113 204.593 76.7113 204.344 76.8831 204.247L76.8795 204.243Z" fill="white"/>
<path d="M79.7482 205.948L80.986 205.22C81.147 205.126 81.3437 205.126 81.5047 205.22L82.7139 205.923C82.8821 206.02 82.8856 206.265 82.7211 206.37L81.519 207.113C81.3581 207.214 81.1541 207.217 80.9896 207.12L79.7482 206.399C79.5765 206.298 79.5765 206.049 79.7482 205.952V205.948Z" fill="white"/>
<path d="M82.342 207.365L83.5798 206.637C83.7408 206.543 83.9376 206.543 84.0986 206.637L85.3078 207.34C85.4759 207.437 85.4795 207.682 85.3149 207.787L84.1129 208.53C83.9519 208.631 83.748 208.634 83.5834 208.537L82.3456 207.816C82.1739 207.715 82.1739 207.466 82.3456 207.369L82.342 207.365Z" fill="white"/>
<path d="M89.622 169.497L75.9058 161.493C75.8307 161.449 75.7376 161.493 75.7162 161.572L75.5623 162.344C75.5445 162.423 75.5767 162.506 75.6482 162.549L89.3644 170.557C89.4395 170.6 89.5325 170.557 89.554 170.478L89.7078 169.702C89.7257 169.623 89.6935 169.54 89.622 169.497Z" fill="white"/>
<path d="M89.0524 171.605L75.3362 163.601C75.2611 163.558 75.1681 163.601 75.1466 163.68L75.0715 164.088C75.0536 164.167 75.0858 164.25 75.1574 164.293L88.8735 172.301C88.9487 172.344 89.0417 172.301 89.0631 172.222L89.1383 171.811C89.1562 171.731 89.124 171.649 89.0524 171.605Z" fill="white"/>
<path d="M88.6383 173.214L79.666 167.971C79.5908 167.928 79.4978 167.971 79.4763 168.051L79.4012 168.458C79.3833 168.537 79.4155 168.62 79.4871 168.663L88.4595 173.909C88.5346 173.953 88.6276 173.909 88.6491 173.83L88.7242 173.419C88.7421 173.34 88.7099 173.257 88.6383 173.214Z" fill="white"/>
<path d="M73.6203 179.051C73.0765 179.051 72.5399 178.723 72.0891 178.11C71.0839 176.751 70.812 174.378 71.4774 172.824C71.8065 172.056 72.3145 171.599 72.9084 171.526C73.5023 171.458 74.1033 171.786 74.597 172.457C75.6023 173.816 75.8741 176.188 75.2087 177.742C74.8796 178.51 74.3716 178.968 73.7777 179.04C73.7241 179.048 73.674 179.051 73.6203 179.051ZM73.0622 171.678C73.0157 171.678 72.9692 171.678 72.9263 171.685C72.3897 171.746 71.9282 172.175 71.6241 172.886C70.9765 174.393 71.2449 176.693 72.2179 178.013C72.6759 178.633 73.2232 178.943 73.7598 178.878C74.2965 178.817 74.758 178.388 75.0621 177.677C75.7096 176.17 75.4413 173.87 74.4682 172.55C74.0496 171.981 73.5559 171.674 73.0622 171.674V171.678Z" fill="white"/>
<path d="M73.616 179.294C72.9971 179.294 72.3889 178.93 71.8917 178.255C70.8434 176.835 70.5537 174.354 71.2513 172.728C71.3228 172.562 71.5089 172.487 71.6734 172.559C71.838 172.631 71.9131 172.822 71.8416 172.984C71.237 174.398 71.4946 176.633 72.4068 177.87C72.8111 178.418 73.2833 178.692 73.7269 178.641C74.1741 178.587 74.5676 178.216 74.8359 177.585C75.4405 176.171 75.183 173.936 74.2707 172.699C74.1634 172.555 74.1956 172.353 74.3351 172.245C74.4782 172.137 74.6785 172.169 74.7859 172.31C75.8341 173.731 76.1238 176.211 75.4262 177.837C75.0613 178.688 74.4853 179.2 73.802 179.279C73.7412 179.287 73.6768 179.29 73.616 179.29V179.294Z" fill="white"/>
<path d="M80.0294 182.736C79.4856 182.736 78.949 182.408 78.4982 181.795C77.4929 180.435 77.221 178.063 77.8864 176.509C78.2156 175.741 78.7236 175.283 79.3175 175.211C79.9113 175.143 80.5123 175.471 81.006 176.141C82.0113 177.501 82.2832 179.873 81.6178 181.427C81.2887 182.195 80.7807 182.653 80.1868 182.725C80.1331 182.732 80.083 182.736 80.0294 182.736ZM79.4713 175.362C79.4248 175.362 79.3783 175.362 79.3353 175.37C78.7987 175.431 78.3372 175.86 78.0331 176.57C77.3856 178.077 77.6539 180.378 78.627 181.697C79.0849 182.317 79.6359 182.628 80.1689 182.563C80.7055 182.501 81.167 182.072 81.4711 181.362C82.1186 179.855 81.8503 177.555 80.8772 176.235C80.4587 175.665 79.965 175.359 79.4713 175.359V175.362Z" fill="white"/>
<path d="M80.0309 182.978C79.412 182.978 78.8039 182.614 78.3066 181.94C77.9095 181.399 77.609 180.699 77.4373 179.906C77.3979 179.729 77.5088 179.56 77.6841 179.52C77.8594 179.481 78.0275 179.592 78.0669 179.769C78.2172 180.469 78.4783 181.085 78.8253 181.55C79.2296 182.098 79.7018 182.372 80.1454 182.322C80.5926 182.268 80.9861 181.893 81.2545 181.265C81.8591 179.852 81.6015 177.617 80.6892 176.38C80.5819 176.236 80.6141 176.034 80.7536 175.926C80.8967 175.818 81.097 175.85 81.2044 175.991C82.2526 177.411 82.5424 179.892 81.8447 181.518C81.4798 182.369 80.9039 182.881 80.2206 182.96C80.1597 182.967 80.0953 182.971 80.0345 182.971L80.0309 182.978Z" fill="#112050"/>
<path d="M84.4449 186.774C84.4449 186.774 84.4198 186.773 84.4055 186.77C84.3196 186.748 84.266 186.662 84.2874 186.572L85.79 180.468C85.8115 180.381 85.8973 180.327 85.9868 180.349C86.0726 180.37 86.1263 180.457 86.1048 180.547L84.6023 186.651C84.5844 186.723 84.52 186.774 84.4449 186.774Z" fill="white"/>
<path d="M86.5165 188.072C86.5165 188.072 86.4915 188.072 86.4772 188.068C86.3913 188.047 86.3376 187.96 86.3591 187.87L89.0601 176.913C89.0816 176.826 89.1674 176.772 89.2569 176.794C89.3427 176.815 89.3964 176.902 89.3749 176.992L86.6739 187.949C86.656 188.021 86.5916 188.072 86.5165 188.072Z" fill="white"/>
<path d="M88.5902 189.369C88.5902 189.369 88.5652 189.369 88.5509 189.366C88.465 189.344 88.4114 189.258 88.4328 189.167L90.1858 182.047C90.2073 181.96 90.2931 181.906 90.3826 181.928C90.4684 181.949 90.5221 182.036 90.5006 182.126L88.7477 189.247C88.7298 189.319 88.6654 189.369 88.5902 189.369Z" fill="white"/>
<path d="M90.6658 190.671C90.6658 190.671 90.6408 190.671 90.6265 190.667C90.5406 190.646 90.4869 190.559 90.5084 190.469L94.2183 175.409C94.2397 175.322 94.3256 175.268 94.415 175.29C94.5009 175.312 94.5546 175.398 94.5331 175.488L90.8232 190.548C90.8053 190.62 90.7409 190.671 90.6658 190.671Z" fill="white"/>
<path d="M92.7414 191.969C92.7414 191.969 92.7163 191.969 92.702 191.965C92.6162 191.944 92.5625 191.857 92.584 191.767L95.3673 180.468C95.3887 180.381 95.4746 180.327 95.564 180.349C95.6499 180.37 95.7035 180.457 95.6821 180.547L92.8988 191.846C92.8809 191.919 92.8165 191.969 92.7414 191.969Z" fill="white"/>
<path d="M94.8151 193.268C94.8151 193.268 94.7901 193.268 94.7757 193.264C94.6899 193.243 94.6362 193.156 94.6577 193.066L98.8076 176.228C98.8291 176.142 98.9149 176.088 99.0044 176.109C99.0902 176.131 99.1439 176.217 99.1224 176.308L94.9725 193.145C94.9546 193.217 94.8902 193.268 94.8151 193.268Z" fill="white"/>
<path d="M96.8907 194.57C96.8907 194.57 96.8656 194.57 96.8513 194.566C96.7655 194.545 96.7118 194.458 96.7332 194.368L98.9907 185.203C99.0121 185.116 99.098 185.062 99.1874 185.084C99.2733 185.106 99.3269 185.192 99.3055 185.282L97.0481 194.447C97.0302 194.519 96.9658 194.57 96.8907 194.57Z" fill="white"/>
<path d="M98.9623 195.867C98.9623 195.867 98.9373 195.867 98.923 195.864C98.8371 195.842 98.7834 195.756 98.8049 195.665L101.796 183.522C101.817 183.436 101.903 183.382 101.992 183.403C102.078 183.425 102.132 183.511 102.111 183.602L99.1197 195.745C99.1018 195.817 99.0374 195.867 98.9623 195.867Z" fill="white"/>
<path d="M52.3476 144.828C52.3476 144.828 59.6206 154.17 53.1132 162.859C46.6057 171.548 35.1183 153.665 35.1183 153.665C35.1183 153.665 41.15 139.907 52.3476 144.828Z" fill="#112050"/>
<path d="M47.3706 160.36C47.3706 160.36 44.6911 170.008 48.7122 176.953L33.8011 171.076C33.8011 171.076 37.0352 160.901 36.0764 154.505L47.3706 160.36Z" fill="#112050"/>
<path d="M48.8799 151.242L48.4971 161.283C48.3576 164.939 48.5615 168.573 48.5078 172.233C40.4584 169.179 31.9332 167.398 23.3436 166.969C23.6048 160.623 24.3704 154.148 27.1608 148.455C29.9513 142.762 35.0957 137.927 41.3242 136.964C43.5315 136.625 45.7782 136.777 47.9712 137.166C51.2124 137.739 56.0671 138.507 57.6627 141.915C58.4783 143.652 58.1277 145.956 56.6538 147.175C55.67 147.99 54.3249 148.257 53.0548 148.174C51.953 148.102 50.0318 147.146 49.2591 148.415C48.9729 148.884 48.9443 149.461 48.9228 150.009C48.9085 150.42 48.8906 150.831 48.8763 151.238L48.8799 151.242Z" fill="#3DC2B5"/>
<path d="M19.0365 196.771L17.4302 201.314C16.686 203.42 17.7307 205.742 19.7949 206.564L33.5397 212.037L32.0335 198.654L19.04 196.771H19.0365Z" fill="#112050"/>
<path d="M28.0741 171.573L19.0374 196.768C19.0374 196.768 23.2731 202.411 32.0309 198.65L39.4971 177.594L28.0741 171.573Z" fill="#E3EDFE"/>
<path d="M50.4117 358.891C50.4117 358.891 72.0199 360.336 73.3865 364.173C74.4598 367.194 60.3894 366.848 54.3685 366.563C52.8158 366.491 51.5208 365.337 51.256 363.794L50.4153 358.891H50.4117Z" fill="#3DC2B5"/>
<path d="M32.0302 352.908C32.0302 352.908 49.7853 349.029 51.5562 351.967C52.2967 353.197 51.5991 354.372 50.7119 355.241C49.7818 356.153 48.5511 356.694 47.2596 356.838L32.0302 358.551V352.908Z" fill="#3DC2B5"/>
<path d="M31.004 335.472L32.4887 348.881L31.9628 353.125C31.9628 353.125 31.7231 355.104 35.3113 355.249C38.8996 355.393 45.7899 353.767 46.1262 350.89L40.767 350.868L41.4325 334.697L31.004 335.469V335.472Z" fill="#112050"/>
<path d="M31.0501 335.858C31.0501 335.858 37.2249 339.766 41.3891 335.858L44.9773 237.749L25.5085 238.369C25.5085 238.369 26.6462 270.573 28.2239 286.924C29.8016 303.275 31.0465 335.858 31.0465 335.858H31.0501Z" fill="#3DC2B5"/>
<path d="M63.4048 236.159V295.895L59.6698 344.259C55.7203 347.338 50.4077 344.259 50.4077 344.259L49.0446 292.906L44.0361 255.582L25.9375 249.161L25.5046 238.369L63.3976 236.159H63.4048Z" fill="#3DC2B5"/>
<path d="M50.394 343.667L51.5388 354.195L50.4083 358.889C50.4083 358.889 51.6997 362.578 57.5382 363.014C63.3767 363.447 66.5142 361.056 66.5142 361.056L59.6418 359.845L59.3556 355.259L59.7134 343.671H50.3904L50.394 343.667Z" fill="#112050"/>
<path d="M23.3431 237.143L29.7468 215.593C31.2494 210.538 31.5964 205.209 30.7628 200L26.8991 175.828C26.2695 171.88 30.0438 168.679 33.793 169.98L48.4322 175.06C54.5461 177.18 58.8964 182.672 59.594 189.151L64.7241 236.75C64.7241 236.75 40.8514 249.73 23.3359 237.14L23.3431 237.143Z" fill="#E3EDFE"/>
<path d="M45.4933 261.04C45.3002 258.102 43.472 255.744 41.7763 253.487C40.0806 251.23 38.1308 248.327 38.8249 245.226C38.8893 244.945 38.4564 244.823 38.392 245.107C37.7337 248.035 39.2363 250.775 40.8998 253.058C42.6599 255.47 44.8387 257.907 45.0461 261.04C45.064 261.329 45.5112 261.329 45.4933 261.04Z" fill="#112050"/>
<path d="M27.5021 177.436C29.1907 184.16 30.289 191.035 30.7613 197.954C30.8936 199.901 30.9759 201.848 31.0153 203.799C31.0224 204.087 31.4696 204.091 31.4624 203.799C31.3337 196.851 30.5895 189.918 29.2372 183.103C28.8509 181.164 28.4144 179.231 27.935 177.313C27.8635 177.032 27.4342 177.151 27.5021 177.432V177.436Z" fill="#112050"/>
<path d="M25.7037 238.99C32.4974 242.231 40.1962 243.436 47.6481 242.451C49.7445 242.174 51.8123 241.727 53.8372 241.11C54.1127 241.027 53.9946 240.591 53.7191 240.674C46.6214 242.837 38.9476 242.873 31.8176 240.829C29.7963 240.248 27.8287 239.502 25.9326 238.597C25.6751 238.474 25.4461 238.86 25.7072 238.986L25.7037 238.99Z" fill="#112050"/>
<path d="M62.1154 212.453L58.0621 195.99C57.7222 196.391 57.4002 196.802 57.0818 197.223L57.5791 195.933C54.7171 197.483 52.8461 200.476 51.9231 203.616C51.2362 205.945 51.0108 208.379 50.907 210.798C50.8999 210.975 50.8927 211.151 50.8892 211.324C50.7711 211.988 50.7711 212.666 50.8677 213.336L50.9464 213.127C51.0895 214.494 51.4866 215.756 52.3881 217.046C53.651 218.856 55.4219 220.234 57.1784 221.557C58.9386 222.88 60.738 224.2 62.1082 225.927C62.7951 226.792 63.3568 227.744 63.8684 228.735L62.1118 212.453H62.1154Z" fill="#B1C4E4"/>
<path d="M51.4147 207.719L52.5738 213.657C52.86 215.132 54.1336 216.199 55.6218 216.217L85.3008 216.567C85.3008 216.567 95.3071 212.273 96.5235 207.737C96.638 207.311 96.2695 206.911 95.8402 206.998C94.3984 207.297 91.2252 208.115 88.0305 210.037C88.0305 210.037 88.9642 204.103 87.6012 203.814C86.2381 203.526 83.487 210.708 83.487 210.708L63.1239 207.722H51.4218L51.4147 207.719Z" fill="#112050"/>
<path d="M59.2731 187.2L63.1189 207.722C57.377 211.41 51.4169 207.722 51.4169 207.722L46.8949 184.207L59.2767 187.2H59.2731Z" fill="#E3EDFE"/>
<path d="M47.9799 191.882C49.4574 196.692 50.3482 201.664 50.6308 206.69C50.6487 206.979 51.0959 206.982 51.078 206.69C50.7954 201.625 49.901 196.609 48.4128 191.763C48.3269 191.486 47.8976 191.605 47.9799 191.882Z" fill="#112050"/>
<path d="M195.741 51.0098L114.535 98.2597C114.482 98.2885 114.482 98.3679 114.535 98.3967L195.938 145.762L277.244 98.4544C277.298 98.4255 277.298 98.3462 277.244 98.3174L195.741 51.0098Z" fill="#D0DCEF"/>
<path d="M195.741 36.5869L114.535 83.8368C114.482 83.8657 114.482 83.945 114.535 83.9738L195.938 131.339L277.244 84.0315C277.298 84.0027 277.298 83.9234 277.244 83.8945L195.741 36.5869Z" fill="#112050"/>
<path d="M195.741 18.5596L114.535 65.8095C114.482 65.8383 114.482 65.9177 114.535 65.9465L195.938 113.312L277.244 66.0042C277.298 65.9753 277.298 65.896 277.244 65.8672L195.741 18.5596Z" fill="#3DC2B5"/>
<path opacity="0.5" d="M195.741 0.532227L114.535 47.7822C114.482 47.811 114.482 47.8903 114.535 47.9192L195.938 95.2845L277.244 47.9769C277.298 47.948 277.298 47.8687 277.244 47.8398L195.741 0.532227Z" fill="white"/>
<path d="M114.498 48.77L114.537 50.3059C114.484 50.3347 114.484 50.4141 114.537 50.4429L195.94 97.8082L277.246 50.5006C277.3 50.4718 277.3 50.3924 277.246 50.3636L277.289 48.5176" stroke="#112050" stroke-width="0.920245" stroke-miterlimit="10"/>
<path d="M195.741 0.532227L114.535 47.7822C114.482 47.811 114.482 47.8903 114.535 47.9192L195.938 95.2845L277.244 47.9769C277.298 47.948 277.298 47.8687 277.244 47.8398L195.741 0.532227Z" stroke="#112050" stroke-width="0.920245" stroke-miterlimit="10"/>
<path d="M195.073 66.5813C187.299 66.5813 179.525 64.8578 173.608 61.4146C167.658 57.9533 164.381 53.2554 164.381 48.1861C164.381 43.1168 167.658 38.4188 173.608 34.9575L175.883 36.3889C170.753 39.3743 166.918 44.0686 166.918 48.1861C166.918 52.3035 169.744 56.2119 174.874 59.1972C186.011 65.6763 204.131 65.6763 215.268 59.1972C220.398 56.2119 223.224 52.2999 223.224 48.1861C223.224 44.0722 220.398 40.1603 215.268 37.1713C211.297 34.8602 206.302 33.317 200.847 32.6753C199.087 32.4698 197.28 32.358 195.445 32.3436L193.953 29.8594C201.916 29.9171 210.914 31.6801 216.541 34.9539C222.491 38.4152 225.768 43.1168 225.768 48.1825C225.768 53.2482 222.491 57.9497 216.541 61.411C210.624 64.8542 202.85 66.5777 195.073 66.5777V66.5813Z" fill="#112050"/>
<path d="M215.271 59.1977C204.135 65.6768 186.015 65.6768 174.878 59.1977C169.748 56.2124 166.921 52.3004 166.921 48.1865C166.921 44.0727 170.753 39.3747 175.887 36.3894L173.611 34.958C167.662 38.4193 164.385 43.1208 164.385 48.1865C164.385 53.2523 167.662 57.9538 173.611 61.4151C179.529 64.8583 187.303 66.5818 195.076 66.5818C202.85 66.5818 210.624 64.8583 216.545 61.4151L215.275 59.1977H215.271Z" fill="white"/>
<path d="M193.118 52.1272C194.925 53.1908 195.687 54.7989 193.376 56.1401C192.385 56.717 191.001 57.1641 189.62 57.2578L187.928 55.2964C189.051 55.2351 189.985 54.9647 190.593 54.6114C191.14 54.2941 191.265 53.8975 190.747 53.591C190.314 53.335 189.806 53.2918 188.929 53.8001L186.836 55.0152L181.048 51.1825L185.845 48.3955L188.421 49.9134L185.627 51.5395L186.575 52.156L186.947 51.9397C189.083 50.6994 191.33 51.0708 193.122 52.1272H193.118Z" fill="#112050"/>
<path d="M191.867 50.8259C188.511 48.8501 187.932 46.9139 189.842 45.807C191.749 44.6965 195.051 45.0499 198.407 47.0257C201.763 49.0015 202.342 50.9376 200.432 52.0445C198.525 53.155 195.223 52.8017 191.867 50.8259ZM195.96 48.4462C194.007 47.2961 193.048 47.1411 192.576 47.4187C192.103 47.6963 192.357 48.2552 194.311 49.4053C196.264 50.5555 197.223 50.7105 197.699 50.4329C198.174 50.1588 197.917 49.5964 195.963 48.4462H195.96Z" fill="#112050"/>
<path d="M196.481 45.3497C194.689 44.2932 194.485 43.208 195.58 42.5734C196.674 41.9389 198.524 42.0651 200.32 43.1215C202.126 44.1851 202.316 45.2631 201.221 45.8977C200.127 46.5323 198.291 46.4169 196.481 45.3497ZM198.853 43.9724C197.884 43.4027 197.368 43.363 197.139 43.4964C196.914 43.6298 196.975 43.9291 197.944 44.5024C198.914 45.072 199.429 45.1117 199.658 44.9783C199.883 44.8449 199.823 44.5456 198.853 43.9724ZM199.962 40.1938L201.704 39.1807L206.902 48.0105L205.16 49.0237L199.962 40.1938ZM206.548 45.0865C204.756 44.03 204.552 42.9448 205.647 42.3102C206.741 41.6757 208.591 41.8019 210.387 42.8583C212.194 43.9219 212.383 44.9999 211.288 45.6345C210.194 46.2691 208.359 46.1537 206.548 45.0865ZM208.92 43.7092C207.951 43.1395 207.436 43.0998 207.207 43.2332C206.978 43.3666 207.042 43.6659 208.011 44.2392C208.981 44.8088 209.496 44.8485 209.725 44.7151C209.95 44.5817 209.89 44.2824 208.92 43.7092Z" fill="#112050"/>
<defs>
<linearGradient id="paint0_linear_30_4722" x1="39.8041" y1="354.736" x2="73.7132" y2="376.208" gradientUnits="userSpaceOnUse">
<stop stop-color="#CDDEFF"/>
<stop offset="0.18" stop-color="#DEE9FF"/>
<stop offset="0.43" stop-color="#F0F5FF"/>
<stop offset="0.7" stop-color="#FBFCFF"/>
<stop offset="1" stop-color="white"/>
</linearGradient>
<linearGradient id="paint1_linear_30_4722" x1="61.4273" y1="362.805" x2="101.047" y2="387.897" gradientUnits="userSpaceOnUse">
<stop stop-color="#CDDEFF"/>
<stop offset="0.18" stop-color="#DEE9FF"/>
<stop offset="0.43" stop-color="#F0F5FF"/>
<stop offset="0.7" stop-color="#FBFCFF"/>
<stop offset="1" stop-color="white"/>
</linearGradient>
<linearGradient id="paint2_linear_30_4722" x1="43.5228" y1="201.012" x2="101.303" y2="201.012" gradientUnits="userSpaceOnUse">
<stop stop-color="#B6C7F1"/>
<stop offset="0.25" stop-color="#C3D1F3"/>
<stop offset="0.71" stop-color="#E6EBFA"/>
<stop offset="1" stop-color="white"/>
</linearGradient>
</defs>
</svg>
